<svg id="Layer_1" data-name="Layer 1" xmlns="http://www.w3.org/2000/svg" xmlns:xlink="http://www.w3.org/1999/xlink" viewBox="0 0 704.1 105.17"><defs><style>.cls-1{fill:url(#linear-gradient);}.cls-2{fill:#fff;}</style><linearGradient id="linear-gradient" x1="59.62" y1="128.67" x2="59.62" y2="-17.01" gradientUnits="userSpaceOnUse"><stop offset="0" stop-color="#005de8"/><stop offset="1" stop-color="#0999f6"/></linearGradient></defs><polygon class="cls-1" points="0 0 81.04 0 119.23 51 78.67 105.17 22.02 105.17 86.99 18.4 55.03 18.4 34.4 45.95 0 0"/><path class="cls-2" d="M659.6,580.38c-18.09,0-32.76,14.26-32.76,31.85s14.67,31.84,32.76,31.84,32.76-14.25,32.76-31.84S677.7,580.38,659.6,580.38Zm0,52.24c-11.58,0-21-9.13-21-20.39s9.4-20.39,21-20.39,21,9.13,21,20.39S671.19,632.62,659.6,632.62Z" transform="translate(-247.95 -547.42)"/><rect class="cls-2" x="226.87" y="32.97" width="11.28" height="63.69"/><rect class="cls-2" x="226.87" y="8.51" width="11.28" height="14.82"/><path class="cls-2" d="M545.17,598.37H534.46q-.48-9.17-12.26-9.16c-4.05,0-7.25.77-9.58,2.32a7.13,7.13,0,0,0-3.52,6.24q0,6,11.31,8.57l9.4,2.15q9.16,2.13,13.21,6.07c2.7,2.61,4.05,6.19,4.05,10.71A16.23,16.23,0,0,1,540.29,639q-6.79,5.07-18.33,5.06-12.62,0-19.16-6a17.63,17.63,0,0,1-5.84-13H508a14.08,14.08,0,0,0,2.62,6.07q3.21,3.81,12,3.81,6.55,0,10.42-2.44A7.4,7.4,0,0,0,537,626.1q0-6.08-9.4-8.33l-9.16-2.14q-10.49-2.5-14.64-6Q499,605.75,499,598.37a15.76,15.76,0,0,1,6.37-13.21q6.36-4.87,17.07-4.88,11.19,0,17.38,5.59A16.17,16.17,0,0,1,545.17,598.37Z" transform="translate(-247.95 -547.42)"/><path class="cls-2" d="M585.87,632.6c-11.6,0-21-9.15-21-20.42s9.41-20.43,21-20.43a21,21,0,0,1,19.91,13.87H618c-3.12-14.47-16.31-25.34-32.13-25.34-18.12,0-32.81,14.28-32.81,31.9s14.69,31.89,32.81,31.89c16,0,29.36-11.16,32.24-25.92H606A21,21,0,0,1,585.87,632.6Z" transform="translate(-247.95 -547.42)"/><path class="cls-2" d="M751.41,580.87l-22.92,63.2H715.32l-23-63.2h13.21l16,48.64h.66l16-48.64Z" transform="translate(-247.95 -547.42)"/><path class="cls-2" d="M757.67,617.88h58.92a31,31,0,0,0,.54-5.74c0-17.64-14.71-31.94-32.86-31.94s-32.86,14.3-32.86,31.94,14.71,31.93,32.86,31.93A32.83,32.83,0,0,0,815.17,623H802.08a21.35,21.35,0,0,1-35.94-.53,4,4,0,0,0-3.37-1.89h-5.1Zm26.6-26.19a21,21,0,0,1,20.19,14.7H764.08A21,21,0,0,1,784.27,591.69Z" transform="translate(-247.95 -547.42)"/><path class="cls-2" d="M897.81,580.28a23,23,0,0,0-14.4,5.06v-4.48H871v63.2h12.38V597.26a4,4,0,0,0-4-4h-2.21V591h29.5v-9A23,23,0,0,0,897.81,580.28Z" transform="translate(-247.95 -547.42)"/><path class="cls-2" d="M943.15,580.28a23,23,0,0,0-14.4,5.06v-4.48H916.33v63.2h12.39V597.26a4,4,0,0,0-4-4h-2.21V591h29.5v-9A23,23,0,0,0,943.15,580.28Z" transform="translate(-247.95 -547.42)"/><path class="cls-2" d="M852.48,580.28a23,23,0,0,0-14.4,5.06v-4.48H825.66v63.2h12.39V597.26a4,4,0,0,0-3.95-4h-2.22V591h29.5v-9A22.91,22.91,0,0,0,852.48,580.28Z" transform="translate(-247.95 -547.42)"/><path class="cls-2" d="M459.3,576.31A35.2,35.2,0,0,0,445,561.2q-9.3-5.26-22.26-5.27H393.34v88.14h28.54q13.42,0,22.9-5.31a35.38,35.38,0,0,0,14.48-15.22q5-9.9,5-23.67T459.3,576.31Zm-11.42,41.27a23.71,23.71,0,0,1-10,11.06q-6.67,3.81-16.74,3.81H406.64V573.88a4,4,0,0,0-4-4h-3.05v-2.3H422q9.63,0,16.14,3.74a23.6,23.6,0,0,1,9.79,11q3.28,7.23,3.29,17.6T447.88,617.58Z" transform="translate(-247.95 -547.42)"/></svg>