<svg width="1058" height="796" viewBox="0 0 1058 796" fill="none" xmlns="http://www.w3.org/2000/svg">
<path d="M738.114 -665.926C675.605 -599.767 613.096 -533.608 550.525 -467.384C523.666 -438.956 496.744 -410.463 469.885 -382.034C443.025 -353.606 415.74 -328.898 392.447 -299.815C374.042 -276.946 370.368 -244.256 366.499 -216.053C361.694 -180.863 359.37 -145.301 353.417 -110.331C349.684 -88.3948 345.485 -54.1079 324.656 -40.5331C306.937 -28.9467 282.943 -37.0444 265.016 -43.4834C242.354 -51.5565 219.436 -64.051 195.105 -66.3182C170.521 -68.5781 158.815 -52.8007 143.51 -36.6025L46.7046 65.8562" stroke="url(#paint0_radial_496_3442)" stroke-width="1.3" stroke-miterlimit="10"/>
<path d="M747.56 -657.026C684.14 -591.726 623.393 -523.783 559.972 -458.484C532.722 -430.424 506.191 -401.562 479.331 -373.134C452.472 -344.706 425.317 -319.875 401.829 -290.976C383.236 -268.039 379.68 -235.605 375.942 -207.279C371.386 -172.222 369.504 -136.737 363.805 -101.774C360.197 -79.8418 355.999 -45.5549 335.105 -32.0415C317.32 -20.5164 293.2 -28.6104 275.215 -34.858C252.238 -42.8587 228.944 -55.2157 204.36 -57.4756C179.841 -59.6741 168.323 -43.9654 152.957 -27.7021L56.1515 74.7565" stroke="url(#paint1_radial_496_3442)" stroke-width="1.3" stroke-miterlimit="10"/>
<path d="M757.006 -648.123C693.01 -582.997 634.409 -513.155 569.501 -448.888C541.787 -421.51 515.575 -392.595 488.777 -364.232C461.978 -335.869 434.762 -310.973 411.213 -282.008C392.554 -259.133 389.249 -226.833 385.956 -198.456C381.841 -163.476 380.461 -128.132 375.138 -93.3062C371.788 -71.2548 367.709 -37.2244 346.818 -23.5846C328.972 -11.9944 304.406 -20.1388 286.172 -26.2526C262.692 -34.1122 238.896 -46.328 213.935 -48.4504C189.228 -50.5802 177.895 -35.0667 162.406 -18.6733L65.6004 83.7853" stroke="url(#paint2_radial_496_3442)" stroke-width="1.3" stroke-miterlimit="10"/>
<path d="M766.45 -639.227C730.883 -603.017 700.712 -562.092 666.188 -524.9C638.298 -494.86 608.83 -466.799 578.917 -438.789C550.605 -412.343 524.708 -383.5 498.156 -355.397C471.603 -327.294 444.141 -302.138 420.592 -273.173C401.995 -250.363 399.13 -218.139 396.279 -189.839C392.793 -155.003 392.039 -119.93 387.284 -85.1843C384.248 -63.2053 380.545 -29.3123 359.654 -15.6724C341.624 -3.88715 316.361 -12.0746 297.816 -17.9895C273.706 -25.7043 249.219 -37.7103 223.629 -39.6879C198.737 -41.6224 187.397 -26.3618 171.785 -9.83836L74.9793 92.6203" stroke="url(#paint3_radial_496_3442)" stroke-width="1.3" stroke-miterlimit="10"/>
<path d="M775.896 -630.326C739.664 -593.021 710.768 -549.665 675.904 -511.072C648.712 -480.989 618.936 -454.817 588.476 -428.182C559.56 -402.921 533.974 -374.277 507.606 -346.369C481.237 -318.461 453.526 -293.172 430.042 -264.145C411.633 -241.404 409.271 -209.321 406.983 -181.227C404.189 -146.601 404.191 -111.677 400.061 -77.2021C397.47 -55.1727 394.201 -21.6087 373.311 -7.96885C355.031 3.95022 328.82 -4.14641 309.964 -9.86254C285.037 -17.3637 259.859 -29.1599 233.578 -30.9276C208.376 -32.6634 196.963 -17.717 181.105 -0.933303L84.299 101.525" stroke="url(#paint4_radial_496_3442)" stroke-width="1.3" stroke-miterlimit="10"/>
<path d="M785.341 -621.426C748.39 -582.709 720.775 -536.67 685.706 -496.425C659.343 -466.177 629.247 -442.273 598.041 -417.325C568.26 -393.494 543.173 -365.117 517.05 -337.47C490.928 -309.822 462.906 -284.334 439.548 -255.311C421.389 -232.703 419.721 -200.704 418.125 -172.82C416.086 -138.342 416.901 -103.758 413.593 -69.3704C411.447 -47.2907 408.8 -14.1244 387.975 -0.423121C369.387 11.8212 342.098 3.69264 322.805 -1.82098C297.061 -9.10865 270.877 -20.6225 243.967 -22.2454C218.327 -23.7787 206.968 -9.15022 190.742 8.02379L93.9357 110.482" stroke="url(#paint5_radial_496_3442)" stroke-width="1.3" stroke-miterlimit="10"/>
<path d="M794.786 -612.525C757.249 -572.145 730.79 -523.42 695.461 -481.206C669.865 -450.727 639.507 -429.283 607.613 -406.213C576.96 -384.065 552.371 -355.956 526.557 -328.633C500.742 -301.311 472.22 -275.555 449.054 -246.475C431.144 -224.001 430.363 -192.027 429.392 -164.414C428.232 -130.215 429.992 -95.8484 427.374 -61.6707C425.735 -39.6056 423.771 -6.90203 402.949 6.92564C384.055 19.4952 355.561 11.3384 335.768 6.09233C309.08 -0.978125 282.018 -12.2134 254.164 -13.6191C228.086 -14.9499 216.528 -0.631973 200.056 16.8023L103.25 119.261" stroke="url(#paint6_radial_496_3442)" stroke-width="1.3" stroke-miterlimit="10"/>
<path d="M804.231 -603.626C766.052 -561.393 740.878 -509.857 705.228 -465.61C680.341 -434.708 650.029 -416.049 617.19 -394.977C585.595 -374.699 561.633 -346.861 536.002 -319.734C510.372 -292.607 481.474 -266.713 458.565 -237.514C440.97 -215.112 441.136 -183.23 440.787 -156.014C440.445 -122.029 443.145 -88.0057 441.471 -54.0451C440.403 -31.9334 439.188 0.368812 418.493 14.1928C399.291 27.0877 369.466 18.9062 349.175 13.9277C321.481 7.13952 293.413 -3.8135 264.68 -4.94061C238.103 -6.00378 226.408 7.93849 209.567 25.763L112.761 128.222" stroke="url(#paint7_radial_496_3442)" stroke-width="1.3" stroke-miterlimit="10"/>
<path d="M813.678 -594.726C774.794 -550.575 750.909 -496.103 715.13 -449.764C690.768 -418.245 660.751 -402.505 626.837 -383.552C594.232 -365.333 570.833 -337.702 545.51 -310.9C520.187 -284.098 490.852 -258.002 468.073 -228.68C450.789 -206.477 451.845 -174.494 452.306 -147.745C452.908 -113.977 456.548 -80.297 455.757 -46.4886C455.257 -24.4566 454.852 7.37922 434.161 21.3296C414.651 34.5498 383.307 26.4124 362.578 21.6364C333.94 15.0655 304.805 4.45976 275.128 3.54986C248.118 2.81563 236.219 16.3209 219.009 34.5358L122.204 136.994" stroke="url(#paint8_radial_496_3442)" stroke-width="1.3" stroke-miterlimit="10"/>
<path d="M823.124 -585.827C783.666 -539.634 760.936 -482.476 724.905 -433.915C700.945 -401.648 671.412 -388.896 636.357 -372.125C602.738 -356.091 580.034 -328.542 554.895 -301.935C529.756 -275.329 500.045 -249.095 477.519 -219.781C460.55 -197.65 462.554 -165.758 463.764 -139.41C465.309 -105.859 469.89 -72.5231 470.043 -38.9319C470.115 -16.8533 470.455 14.4548 449.893 28.528C429.95 42.077 397.34 33.9764 376.111 29.468C346.468 23.1793 316.263 12.7945 285.707 12.1632C258.259 11.6314 246.1 24.8912 228.521 43.4964L131.715 145.955" stroke="url(#paint9_radial_496_3442)" stroke-width="1.3" stroke-miterlimit="10"/>
<path d="M832.567 -576.93C792.531 -528.822 770.956 -468.976 734.669 -418.32C710.926 -385.111 682.068 -375.289 645.931 -360.89C611.359 -347.106 589.292 -319.45 564.338 -293.038C539.383 -266.627 509.296 -240.256 486.962 -210.884C470.242 -188.887 473.259 -157.024 475.156 -131.012C477.58 -97.74 483.105 -64.6211 484.075 -31.2435C484.765 -9.68893 486.01 22.2256 465.246 35.8618C444.482 49.4979 411.503 41.7876 389.326 37.37C358.678 31.3636 327.528 21.1959 296.094 20.8432C268.208 20.514 255.788 33.5283 237.964 52.3937L141.158 154.852" stroke="url(#paint10_radial_496_3442)" stroke-width="1.3" stroke-miterlimit="10"/>
<path d="M842.011 -568.03C801.268 -518.13 780.906 -455.789 744.486 -403.167C720.834 -369.012 692.723 -361.805 655.503 -349.779C620.041 -338.31 598.552 -310.354 573.782 -284.138C549.012 -257.922 518.549 -231.413 496.407 -201.983C480.001 -180.059 483.778 -148.218 486.362 -122.543C489.604 -89.484 496.007 -56.6437 497.922 -23.4833C499.114 -2.0699 501.115 29.6961 480.351 43.3323C459.149 57.171 425.161 49.6165 402.42 45.4051C370.828 39.6158 338.799 29.7269 306.486 29.6527C278.228 29.5874 265.544 42.2297 247.412 61.4204L150.606 163.879" stroke="url(#paint11_radial_496_3442)" stroke-width="1.3" stroke-miterlimit="10"/>
<path d="M851.457 -559.129C810.063 -507.629 790.91 -442.918 754.224 -388.581C730.536 -353.475 703.242 -348.697 665.069 -338.921C628.973 -329.648 607.814 -301.259 583.29 -275.302C558.766 -249.346 527.926 -222.701 506.04 -193.151C489.823 -171.296 494.421 -139.542 497.565 -114.199C501.625 -81.3542 508.842 -48.8539 511.451 -15.7769C513.15 5.62182 515.838 37.0515 494.947 50.6914C473.373 64.794 438.433 57.2038 415.194 53.26C382.784 47.6843 349.876 38.0738 316.68 38.1519C288.046 38.224 275.293 50.6786 256.854 70.1945L160.048 172.653" stroke="url(#paint12_radial_496_3442)" stroke-width="1.3" stroke-miterlimit="10"/>
<path d="M860.905 -550.23C818.914 -497.447 800.899 -430.682 763.876 -374.816C740.149 -338.887 713.494 -336.088 674.499 -328.439C637.838 -321.175 617.012 -292.226 592.611 -266.4C568.209 -240.574 537.12 -213.794 515.361 -184.249C499.271 -162.397 504.498 -130.788 508.145 -105.586C512.834 -72.8858 520.803 -40.6604 524.107 -7.66681C526.247 13.6558 529.372 44.883 508.547 58.5843C486.661 72.8857 450.901 65.3827 427.285 61.5763C394.119 56.1491 360.46 46.8136 326.634 47.0364C297.75 47.2423 284.802 59.5127 266.24 79.1588L169.434 181.617" stroke="url(#paint13_radial_496_3442)" stroke-width="1.3" stroke-miterlimit="10"/>
<path d="M870.35 -541.33C827.625 -487.64 810.804 -419.012 773.557 -362.127C749.599 -325.432 723.595 -324.234 684.104 -318.406C647.137 -312.904 626.399 -283.135 602.182 -257.504C577.965 -231.873 546.692 -204.898 524.933 -175.353C508.842 -153.501 514.637 -121.971 518.722 -96.9725C524.04 -64.417 532.573 -32.3977 536.441 0.389618C538.961 21.7012 542.398 52.7296 521.572 66.4308C499.564 80.8623 463.044 73.3814 439.179 69.7087C405.448 64.4877 371.098 55.3621 336.705 55.6647C307.698 56.0007 294.681 68.0833 275.934 87.9245L179.129 190.383" stroke="url(#paint14_radial_496_3442)" stroke-width="1.3" stroke-miterlimit="10"/>
<path d="M879.795 -532.427C836.256 -478.397 820.684 -408.223 783.141 -350.634C771.679 -333.029 759.039 -318.87 738.17 -313.202C723.587 -309.236 708.473 -310.442 693.506 -308.805C656.372 -304.69 635.471 -273.968 611.5 -248.597C586.239 -221.86 556.075 -195.93 534.125 -166.442C517.846 -144.522 523.952 -113.191 528.417 -88.2033C534.111 -55.7853 543.274 -23.9109 547.456 8.80407C550.229 30.1083 553.85 60.9416 532.901 74.7729C510.77 89.3345 473.805 81.8032 449.752 78.1993C415.519 73.1194 380.727 64.0699 345.897 64.575C316.828 64.976 303.873 76.9936 285.126 96.8348L188.321 199.293" stroke="url(#paint15_radial_496_3442)" stroke-width="1.3" stroke-miterlimit="10"/>
<path d="M889.238 -523.529C844.933 -469.729 830.537 -398.324 792.683 -340.536C781.278 -323.123 768.462 -308.515 747.708 -303.231C733.056 -299.452 717.928 -301.164 703.014 -299.845C665.92 -296.554 644.857 -264.878 621.009 -239.637C595.686 -212.835 565.775 -186.912 543.633 -157.482C527.166 -135.493 533.265 -104.415 537.925 -79.2432C543.934 -46.8976 553.411 -15.0956 557.782 17.5507C560.682 38.8512 564.303 69.6845 543.227 83.5195C521.096 98.0811 483.878 90.5572 459.828 87.0797C425.281 82.0722 390.24 73.1564 355.094 73.7339C326.026 74.135 313.259 86.0838 294.512 105.925L197.706 208.384" stroke="url(#paint16_radial_496_3442)" stroke-width="1.3" stroke-miterlimit="10"/>
<path d="M898.685 -514.632C855.273 -460.606 839.57 -390.555 802.031 -332.839C790.569 -315.234 778.19 -300.829 757.379 -295.353C742.35 -291.437 726.788 -292.82 711.437 -291.299C674.419 -287.567 652.885 -256.826 629.305 -231.087C604.622 -204.05 575.168 -177.698 553.271 -148.528C536.986 -126.86 543.103 -95.1507 547.437 -70.2854C553.062 -38.0552 562.03 -6.36492 566.143 26.1622C568.786 47.3437 572.479 78.4911 551.589 92.131C529.515 106.501 492.492 99.1614 468.508 95.7453C434.344 90.8532 399.686 82.0528 364.986 82.6806C335.921 83.2081 322.893 94.9115 304.085 114.818L207.279 217.276" stroke="url(#paint17_radial_496_3442)" stroke-width="1.3" stroke-miterlimit="10"/>
<path d="M908.13 -505.729C865.467 -452.104 848.581 -383.537 811.334 -326.652C799.626 -308.787 787.554 -294.707 766.371 -288.968C750.782 -284.719 734.471 -285.7 718.559 -283.847C681.245 -279.41 659.421 -249.926 636.254 -223.06C612.411 -195.479 584.49 -168.665 562.778 -139.69C546.615 -118.152 552.353 -86.4315 556.177 -61.678C561.227 -29.6209 569.496 2.0264 573.161 34.3768C575.486 55.5042 578.864 86.7241 558.096 100.234C536.146 114.474 499.894 107.491 476.036 104.072C442.509 99.2875 408.43 90.7866 374.301 91.4612C345.363 91.985 332.212 103.818 313.527 123.595L216.721 226.053" stroke="url(#paint18_radial_496_3442)" stroke-width="1.3" stroke-miterlimit="10"/>
<path d="M917.574 -496.832C875.645 -444.114 857.564 -377.41 820.603 -321.609C794.992 -282.905 766.795 -283.035 724.711 -277.068C686.789 -271.728 664.863 -243.57 642.12 -215.198C630.812 -201.013 620.086 -186.403 608.778 -172.219C597.346 -157.905 583.143 -145.219 572.226 -130.666C556.186 -109.259 561.03 -77.7649 564.412 -52.9353C568.761 -21.0476 576.202 10.4339 579.034 42.4921C580.914 63.5692 583.721 94.7424 563.076 108.122C541.437 122.163 506.085 115.661 482.55 112.421C449.789 107.868 416.539 99.533 383.238 100.373C354.622 101.078 341.475 113.037 322.913 132.684L226.107 235.142" stroke="url(#paint19_radial_496_3442)" stroke-width="1.3" stroke-miterlimit="10"/>
<path d="M927.018 -487.932C885.685 -436.496 866.464 -371.974 829.777 -317.637C817.263 -299.178 804.916 -285.85 783.182 -279.398C765.847 -274.213 747.605 -274.063 729.885 -271.208C691.234 -264.834 669.01 -238.185 647.085 -207.813C636.671 -193.401 627.034 -178.38 616.684 -163.907C605.904 -148.979 592.584 -136.445 581.667 -121.893C565.688 -100.55 569.439 -69.5942 572.192 -44.6198C575.582 -13.0206 582.006 18.3639 584.072 50.1913C585.384 71.3481 587.355 102.103 566.963 115.475C545.762 129.314 511.63 123.345 488.477 120.221C456.676 115.957 424.384 107.91 392.039 108.912C363.81 109.858 350.797 122.067 332.542 141.388L235.736 243.847" stroke="url(#paint20_radial_496_3442)" stroke-width="1.3" stroke-miterlimit="10"/>
<path d="M936.464 -479.03C895.781 -429.195 875.416 -366.98 838.931 -314.421C811.508 -274.841 778.273 -273.939 734.417 -265.706C694.908 -258.296 672.196 -233.214 651.227 -200.465C641.836 -185.704 633.477 -170.34 624.024 -155.514C614.149 -139.98 601.903 -127.54 590.924 -112.922C574.945 -91.5797 577.47 -61.4106 579.344 -36.1576C581.714 -4.78193 587.118 26.3792 588.16 57.8567C588.839 79.0319 589.721 109.375 569.582 122.74C548.948 136.499 516.162 131.061 493.394 128.052C462.739 124.007 431.471 116.311 400.272 117.533C372.492 118.656 359.682 131.302 341.734 150.297L244.928 252.756" stroke="url(#paint21_radial_496_3442)" stroke-width="1.3" stroke-miterlimit="10"/>
<path d="M945.91 -470.132C905.809 -422.086 884.292 -362.431 848.001 -311.902C819.385 -271.971 783.195 -270.287 738.363 -260.761C698.063 -252.252 674.417 -228.788 654.918 -193.425C637.464 -161.79 622.082 -132.999 600.432 -104.089C584.392 -82.6816 585.494 -53.4835 586.555 -27.8905C587.839 3.20036 592.096 34.1416 591.988 65.2729C591.911 86.5967 591.635 116.341 571.754 129.825C551.684 143.378 520.5 138.589 498.245 135.818C468.741 132.12 438.685 124.704 408.698 126.208C381.558 127.565 368.886 140.587 351.307 159.192L254.501 261.65" stroke="url(#paint22_radial_496_3442)" stroke-width="1.3" stroke-miterlimit="10"/>
<path d="M955.354 -461.231C915.892 -415.164 893.159 -358.132 857.124 -309.698C827.126 -269.347 787.985 -266.755 742.046 -256.058C700.828 -246.446 675.868 -224.59 658.222 -186.496C643.019 -153.725 631.519 -124.35 609.749 -95.1842C593.586 -73.6465 593.324 -45.611 593.383 -19.6093C593.517 11.1353 596.439 41.9256 595.307 72.707C594.42 94.4971 592.773 122.826 573.285 136.805C554.294 150.389 524.011 146.081 502.585 143.476C474.292 140.058 445.452 133.051 416.804 134.831C390.369 136.485 377.838 150.008 360.689 168.158L263.884 270.617" stroke="url(#paint23_radial_496_3442)" stroke-width="1.3" stroke-miterlimit="10"/>
<path d="M964.804 -452.331C925.982 -408.244 902.028 -353.96 866.184 -307.682C834.678 -266.909 792.589 -263.282 745.544 -251.414C703.53 -240.83 676.819 -220.378 661.345 -179.5C648.577 -145.787 641.027 -115.642 619.072 -86.2806C586.204 -42.2404 602.457 28.6547 598.44 80.0821C596.729 101.833 593.866 129.754 574.632 143.726C556.204 157.104 527.781 153.564 506.804 151.136C479.85 147.996 452.16 141.334 424.85 143.392C399.121 145.342 386.796 159.429 370.139 177.058L273.334 279.517" stroke="url(#paint24_radial_496_3442)" stroke-width="1.3" stroke-miterlimit="10"/>
<path d="M974.247 -443.433C936.065 -401.326 910.825 -349.852 875.298 -305.735C842.154 -264.66 797.374 -259.88 749.031 -246.898C706.345 -235.473 677.383 -216.157 664.457 -172.633C654.12 -138.105 650.459 -107.123 628.451 -77.444C595.283 -32.8257 607.776 35.1417 601.629 87.3902C599.092 109.102 595.075 136.55 575.906 150.583C557.978 163.694 531.606 160.98 510.951 158.733C485.274 155.935 458.861 149.616 432.89 151.952C407.866 154.196 395.683 168.786 379.518 185.895L282.712 288.353" stroke="url(#paint25_radial_496_3442)" stroke-width="1.3" stroke-miterlimit="10"/>
<path d="M983.691 -434.533C946.151 -394.28 919.627 -345.616 884.356 -303.594C849.511 -262.154 802.294 -256.227 752.653 -242.132C709.421 -229.868 677.959 -211.556 667.7 -165.642C659.852 -130.49 659.957 -98.5419 637.768 -68.5411C604.488 -23.4134 613.229 41.8791 605.009 94.7572C601.648 116.429 596.542 143.467 577.5 157.496C560.197 170.336 535.559 168.394 515.351 166.323C490.886 163.807 465.689 157.895 441.057 160.508C416.804 163.11 404.696 178.14 388.962 194.794L292.156 297.252" stroke="url(#paint26_radial_496_3442)" stroke-width="1.3" stroke-miterlimit="10"/>
<path d="M993.138 -425.633C956.249 -386.98 928.565 -341.129 893.492 -301.011C856.948 -259.205 807.669 -252.27 756.726 -237.188C713.006 -224.277 678.798 -206.708 671.517 -158.602C666.025 -123.075 669.643 -90.1543 647.277 -59.7054C613.819 -14.1297 619.26 48.7911 608.838 102.176C604.652 123.809 598.518 150.37 579.733 164.518C562.929 177.09 540.024 175.921 520.265 174.027C496.951 171.857 472.966 166.226 449.48 169.059C425.932 171.957 413.901 187.428 398.535 203.691L301.729 306.15" stroke="url(#paint27_radial_496_3442)" stroke-width="1.3" stroke-miterlimit="10"/>
<path d="M1002.58 -416.733C966.411 -379.493 937.385 -336.26 902.644 -297.797C864.587 -255.694 813.435 -247.819 761.191 -231.75C717.171 -218.261 680.286 -201.247 675.592 -151.318C672.262 -115.475 679.075 -81.6338 656.528 -50.8633C622.89 -4.96603 625.364 56.1429 612.985 109.774C608.036 131.303 601.131 157.507 582.411 171.716C566.172 184.082 544.612 183.443 525.241 181.791C503.012 179.905 480.05 174.625 457.711 177.678C434.804 180.81 422.723 196.725 407.787 212.533L310.981 314.992" stroke="url(#paint28_radial_496_3442)" stroke-width="1.3" stroke-miterlimit="10"/>
<path d="M1012.03 -407.834C976.462 -371.624 946.287 -330.826 911.824 -293.699C872.382 -251.302 819.798 -242.563 766.436 -225.703C722.239 -211.766 682.746 -195.118 680.563 -143.808C679.075 -107.828 688.764 -73.1216 665.913 -41.8995C632.283 4.25068 631.992 63.9847 617.967 117.664C612.32 139.149 604.837 165.054 586.182 179.325C570.38 191.488 550.04 191.383 530.99 189.911C509.781 188.249 487.648 183.134 466.333 186.537C443.882 190.099 431.927 206.01 417.176 221.623L320.37 324.082" stroke="url(#paint29_radial_496_3442)" stroke-width="1.3" stroke-miterlimit="10"/>
<path d="M1021.47 -398.933C986.581 -363.439 955.266 -324.821 921.092 -288.652C880.648 -245.847 826.878 -236.504 772.648 -218.986C728.524 -204.735 686.618 -188.27 686.555 -135.945C686.467 -99.753 698.576 -64.6109 675.548 -32.9407C641.979 13.1444 639.388 72.186 624.028 125.714C617.871 147.088 609.877 172.881 591.476 187.144C576.046 199.044 556.48 199.422 537.814 198.066C517.56 196.566 495.872 191.501 475.581 195.254C453.398 199.315 441.558 214.843 426.868 230.39L330.063 332.849" stroke="url(#paint30_radial_496_3442)" stroke-width="1.3" stroke-miterlimit="10"/>
<path d="M1030.92 -390.032C996.72 -354.747 964.275 -317.932 930.336 -282.402C889.206 -239.261 834.752 -229.455 779.839 -211.474C735.971 -197.104 692.036 -180.707 693.507 -127.92C694.569 -91.3821 708.451 -56.2914 684.931 -24.1008C651.42 21.7928 647.179 80.7557 630.922 133.93C624.443 155.124 616.261 180.985 597.859 195.249C582.679 207.014 563.562 207.569 545.157 206.459C525.417 205.197 504.496 200.363 484.711 204.101C462.723 208.346 450.753 223.751 436.063 239.299L339.258 341.758" stroke="url(#paint31_radial_496_3442)" stroke-width="1.3" stroke-miterlimit="10"/>
<path d="M1040.37 -381.135C1006.81 -345.616 973.308 -310.162 939.749 -274.643C898.568 -231.057 843.546 -221.171 788.325 -202.865C744.964 -188.51 699.509 -172.069 701.867 -119.308C703.577 -82.2823 718.579 -47.8569 694.568 -15.1458C661.173 30.3648 655.934 89.8629 639.347 142.604C632.737 163.675 624.69 189.785 606.285 203.922C591.166 215.623 572.172 216.048 553.9 215.187C534.359 214.236 514.071 209.384 494.605 213.175C472.49 217.424 460.39 232.706 445.701 248.254L348.895 350.713" stroke="url(#paint32_radial_496_3442)" stroke-width="1.3" stroke-miterlimit="10"/>
<path d="M1049.46 -371.211C1016.94 -334.71 980.708 -301.834 947.47 -266.135C907.541 -223.092 852.606 -212.386 798.728 -193.676C755.324 -178.623 711.059 -162.66 712.527 -110C713.52 -73.6491 726.92 -39.873 703.845 -7.6321C670.79 38.6912 666.021 96.9103 649.702 150.15C643.219 171.217 635.106 197.266 616.632 211.215C601.568 222.598 582.143 223.478 564.006 222.866C544.284 222.237 523.515 218.284 503.864 222.271C481.819 226.707 469.954 241.351 455.141 257.029L358.335 359.487" stroke="url(#paint33_radial_496_3442)" stroke-width="1.3" stroke-miterlimit="10"/>
<path d="M1057.84 -359.624C1025.72 -322.502 986.407 -293.143 952.786 -257.559C913.634 -216.12 861.413 -203.595 809.329 -184.178C766.963 -168.269 724.601 -152.235 724.318 -100.979C724.142 -65.6067 735.024 -33.4659 712.933 -2.26581C680.073 44.2416 676.558 102.045 660.88 155.519C654.719 176.766 646.787 202.494 628.19 216.573C613.064 228.021 593.083 229.36 574.902 229.445C554.692 229.463 533.385 226.602 513.369 231.105C491.338 236.047 479.524 250.246 464.649 265.989L367.844 368.447" stroke="url(#paint34_radial_496_3442)" stroke-width="1.3" stroke-miterlimit="10"/>
<path d="M1065.57 -346.561C1032.9 -308.853 989.73 -283.495 955.158 -247.946C918.307 -210.117 871.409 -195.406 823.326 -175.662C782.567 -158.978 740.668 -142.261 737.279 -93.1925C734.962 -59.5929 744.183 -27.9099 722.29 1.38635C689.602 45.1049 687.469 102.488 674.203 153.931C668.39 176.244 661.366 202.704 643.066 218.293C628.227 230.872 607.841 233.552 589.057 234.666C567.806 235.916 546.032 234.46 525.003 238.994C502.654 243.881 490.196 257.719 474.952 273.853L377.163 377.352" stroke="url(#paint35_radial_496_3442)" stroke-width="1.3" stroke-miterlimit="10"/>
<path d="M1072.89 -332.161C1039.4 -294.366 992.859 -273.908 956.869 -239.204C920.82 -204.308 879.197 -186.84 834.07 -165.663C796.194 -147.861 757.371 -129.968 751.152 -84.5499C746.649 -52.0257 751.1 -25.329 731.218 3.40274C699.967 48.5981 698.842 103.611 686.676 155.845C681.438 178.33 674.848 204.462 656.679 220.174C641.535 233.204 620.539 236.661 601.343 238.863C579.303 241.338 556.746 241.233 535.179 246.858C512.729 252.634 500.013 266.353 484.524 282.746L386.735 386.246" stroke="url(#paint36_radial_496_3442)" stroke-width="1.3" stroke-miterlimit="10"/>
<path d="M1079.81 -316.798C1045.84 -280.065 998.065 -264.949 960.34 -233.231C942.037 -217.769 926.656 -202.011 905.866 -189.26C885.199 -176.639 863.529 -165.823 842.395 -154.011C807.605 -134.653 774.093 -114.953 765.224 -73.5075C759.042 -44.2877 758.199 -20.9804 739.921 4.09847C707.813 48.1166 710.278 106.758 699.229 158.2C694.772 179.208 689.201 203.349 673.119 218.937C658.208 233.415 636.495 238.411 616.768 241.958C593.699 246.044 569.919 247.493 547.3 253.971C524.619 260.513 510.568 274.081 494.833 290.735L396.061 395.275" stroke="url(#paint37_radial_496_3442)" stroke-width="1.3" stroke-miterlimit="10"/>
<path d="M1086.41 -300.728C1050.24 -263.741 998.746 -254.464 958.72 -223.44C940.691 -209.44 925.216 -192.541 906.474 -179.09C888.538 -166.232 869.81 -154.489 851.483 -142C821.726 -121.712 793.053 -101.14 780.449 -66.1661C771.19 -40.3367 766.443 -18.3713 748.975 4.02681C715.802 46.3043 721.818 109.398 712.451 159.842C708.51 181.215 703.099 204.275 686.759 219.744C670.727 234.888 647.829 240.488 626.999 245.332C604.718 250.407 581.812 253.54 560.031 260.562C536.305 268.211 522.168 280.958 505.388 298.718L405.632 404.299" stroke="url(#paint38_radial_496_3442)" stroke-width="1.3" stroke-miterlimit="10"/>
<path d="M1092.79 -284.148C1054.39 -247.413 1000 -244.062 957.463 -214.546C939.577 -202.132 924.881 -184.623 908.574 -170.231C893.687 -157.081 878.341 -144.488 863.259 -131.523C837.854 -109.717 812.07 -87.9001 795.766 -58.1334C783.795 -36.2112 772.822 -17.0386 757.697 3.14031C725.555 46.0206 733.831 108.416 726.114 158.939C722.81 180.419 718.089 203.27 701.945 218.923C685.555 234.836 661.554 241.734 640.19 247.795C617.002 254.352 593.192 259.093 570.562 267.405C546.742 276.195 531.856 289.344 514.708 307.494L414.952 413.075" stroke="url(#paint39_radial_496_3442)" stroke-width="1.3" stroke-miterlimit="10"/>
<path d="M1099.11 -267.375C1057.86 -230.494 999.92 -233.684 954.634 -204.911C923.841 -185.352 900.356 -149.81 876.502 -122.607C839.95 -81.0543 801.198 -41.0823 766.467 2.06293C735.036 41.0631 745.274 105.553 740.485 152.194C738.061 175.611 734.398 202.163 716.196 218.952C698.302 235.415 672.945 243.617 650.416 251.041C602.407 266.797 560.781 277.622 525.255 315.223L424.515 421.845" stroke="url(#paint40_radial_496_3442)" stroke-width="1.3" stroke-miterlimit="10"/>
<path d="M1105.43 -250.475C1061.14 -213.632 999.776 -223.492 951.625 -195.205C922.224 -177.901 906.104 -141.813 888.989 -113.794C871.874 -85.7756 851.672 -61.5267 825.651 -41.2845C808.674 -28.1379 788.817 -15.9832 775.177 0.799413C743.742 39.6732 757.599 106.589 753.999 152.753C752.284 174.377 749.897 199.058 734.158 215.585C716.822 233.804 690.181 243.624 667.121 252.392C639.425 262.94 610.722 271.555 584.119 284.855C562.699 295.536 547.983 310.199 531.757 327.373L433.967 430.872" stroke="url(#paint41_radial_496_3442)" stroke-width="1.3" stroke-miterlimit="10"/>
<path d="M1111.8 -233.895C1064.34 -196.96 999.738 -213.812 948.92 -185.7C918.242 -168.739 910.703 -131.698 899.351 -101.569C888.173 -72.0144 870.507 -47.7125 841.448 -33.8987C820.953 -24.0665 799.723 -17.756 784.216 0.219647C769.628 17.093 768.052 41.3074 767.276 62.5881C766.194 92.9252 769.041 123.275 767.579 153.623C766.522 176.114 763.896 199.093 747.724 215.949C730.937 233.456 705.83 243.739 683.932 253.232C631.061 276.088 582.437 292.495 542.178 335.105L443.406 439.645" stroke="url(#paint42_radial_496_3442)" stroke-width="1.3" stroke-miterlimit="10"/>
<path d="M1118.41 -217.824C1068.42 -181.069 1001.68 -203.869 948.225 -177.01C915.004 -160.355 915.97 -122.801 910.681 -91.14C905.389 -59.6052 888.385 -34.3102 856.322 -25.7871C833.123 -19.6092 810.45 -19.3305 793.024 0.156C778.421 16.5236 777.756 41.5973 777.664 62.4153C777.534 92.788 781.455 123.043 780.944 153.427C780.589 176.087 778.589 198.796 762.612 215.836C745.402 234.051 719.442 245.497 697.132 256.078C643.571 281.358 592.999 300.479 551.695 344.194L452.923 448.735" stroke="url(#paint43_radial_496_3442)" stroke-width="1.3" stroke-miterlimit="10"/>
<path d="M1125.32 -202.462C1072.42 -165.37 1002.88 -194.985 946.976 -167.611C911.307 -150.189 921.772 -110.571 921.87 -78.8759C921.975 -46.9283 904.211 -21.6113 871.318 -17.6826C846.884 -14.7588 820.29 -20.7565 801.584 0.475438C785.575 18.5922 787.29 49.2277 788.251 71.407C789.442 97.1227 792.974 122.707 793.724 148.499C794.495 172.835 794.077 199.863 775.47 217.992C756.061 236.84 729.748 249.182 705.893 261.136C653.44 287.461 602.739 308.672 561.988 351.803L462.171 457.449" stroke="url(#paint44_radial_496_3442)" stroke-width="1.3" stroke-miterlimit="10"/>
<path d="M1132.64 -188.187C1077.85 -150.66 1006.51 -185.79 948.618 -159.055C909.921 -141.166 928.605 -99.9509 933.311 -68.8328C938.264 -35.7606 919.636 -9.65931 885.12 -9.22661C859.723 -8.93213 830.95 -20.181 810.573 2.42804C794.495 20.357 797.111 51.4724 798.633 73.3192C800.522 99.0779 804.748 124.579 806.196 150.414C807.538 174.796 807.75 201.679 789.147 219.935C769.312 239.365 742.452 252.545 718.182 265.461C665.209 293.508 613.109 316.722 571.498 360.763L471.68 466.409" stroke="url(#paint45_radial_496_3442)" stroke-width="1.3" stroke-miterlimit="10"/>
<path d="M1140.44 -175.064C1085.89 -137.923 1015.4 -174.344 956.684 -151.95C911.57 -134.697 934.168 -93.9754 943.806 -61.0392C953.519 -27.6623 935.754 1.95697 898.936 -0.517119C871.765 -2.38555 842.367 -17.6655 820.071 6.45446C804.896 22.7754 806.696 49.8021 808.246 70.446C810.543 101.507 817.325 132.122 818.61 163.213C819.447 183.308 818.817 205.217 804.511 220.881C783.631 243.631 752.508 258.327 725.815 272.894C671.996 302.358 620.407 327.898 577.874 372.915L481.129 475.309" stroke="url(#paint46_radial_496_3442)" stroke-width="1.3" stroke-miterlimit="10"/>
<path d="M1148.82 -163.476C1093.8 -125.056 1021.53 -165.854 962.127 -143.377C914.499 -125.418 942.255 -83.7706 954.472 -51.4786C967.097 -18.1863 948.301 13.0446 910.726 8.50464C883.07 5.19513 852.369 -13.5268 829.096 11.8869C813.929 28.4608 815.906 55.0395 817.778 75.8638C820.582 106.911 827.932 137.446 829.787 168.583C830.943 188.732 830.436 210.511 816.003 226.178C794.813 249.127 763.512 264.271 736.646 279.413C682.791 309.827 630.157 336.473 587.317 381.815L490.572 484.209" stroke="url(#paint47_radial_496_3442)" stroke-width="1.3" stroke-miterlimit="10"/>
<path d="M1157.85 -153.616C1103.33 -113.249 1029.3 -158.045 969.721 -134.867C920.292 -115.654 950.754 -74.6545 964.747 -42.2877C978.942 -9.48378 958.74 23.4963 921.197 17.8798C892.944 13.6386 862.053 -7.22889 838.249 19.5289C823.032 36.547 824.86 62.3708 826.935 83.632C830.057 114.733 837.909 145.127 839.957 176.322C841.305 196.529 840.732 218.247 826.107 233.856C804.595 256.624 773.425 271.891 746.566 287.286C692.853 318.202 639.535 345.311 596.633 390.718L499.889 493.111" stroke="url(#paint48_radial_496_3442)" stroke-width="1.3" stroke-miterlimit="10"/>
<path d="M1167.71 -145.677C1112.84 -106.755 1040.09 -148.615 980.626 -125.946C932.94 -107.795 960.893 -65.964 973.239 -33.5494C985.799 -0.318444 967.203 31.2231 929.559 26.4953C901.965 23.1208 871.317 4.08095 848.178 29.7438C833.203 46.3754 835.057 73.0841 836.861 93.7206C839.588 124.327 846.735 154.425 848.388 185.125C849.479 205.213 848.914 227.184 834.672 242.908C813.674 265.915 782.116 280.94 755.377 296.078C701.768 326.232 648.877 352.759 606.283 397.841C573.768 432.254 542.817 468.14 509.651 501.939" stroke="url(#paint49_radial_496_3442)" stroke-width="1.3" stroke-miterlimit="10"/>
<path d="M1178.22 -139.466C1123.7 -101.44 1052.12 -140.107 993.224 -117.518C947.672 -100.062 971.19 -58.2286 980.896 -25.1046C990.606 8.14579 973.499 38.6318 936.16 35.6667C909.109 33.5417 880.072 17.6185 857.913 42.1141C843.18 58.359 844.527 85.0825 845.883 105.542C847.893 135.473 854.074 165.03 855.137 195.052C855.841 214.898 854.835 236.944 840.969 252.531C820.535 275.332 789.028 289.913 762.585 304.346C709.446 333.221 657.021 358.342 615.37 403.207C582.567 438.577 553.078 476.825 519.037 511.03" stroke="url(#paint50_radial_496_3442)" stroke-width="1.3" stroke-miterlimit="10"/>
<path d="M1189.32 -134.79C1134.12 -96.1753 1061.27 -135.058 1002.75 -107.926C963.309 -89.6345 983.514 -46.2495 988.423 -14.6945C993.56 18.1826 975.927 45.8368 940.753 45.4028C915.464 45.0615 887.681 33.0246 867.312 55.8865C851.91 73.0998 853.563 103.8 854.745 124.835C856.015 148.903 859.625 172.84 860.58 196.981C861.459 220.681 860.835 247.146 842.916 264.938C823.456 284.231 796.655 297.22 772.692 309.81C720.71 337.069 667.889 359.482 627.606 403.421C593.092 440.992 564.684 483.701 528.545 519.864" stroke="url(#paint51_radial_496_3442)" stroke-width="1.3" stroke-miterlimit="10"/>
<path d="M1200.89 -131.267C1147.01 -92.8804 1075.48 -127.816 1018.31 -100.153C981.2 -82.2457 993.985 -39.0882 994.738 -6.65325C995.538 25.2109 979.041 52.7055 945.167 55.5871C920.899 57.6836 896.045 50.4966 877.151 71.7973C848.133 104.464 865.483 169.506 865.353 208.61C865.335 231.957 863.549 257.696 845.934 275.036C827.089 293.678 801.017 305.634 777.593 317.133C726.622 342.149 674.615 362.006 636.346 405.507C601.446 445.051 574.909 491.122 537.803 528.832" stroke="url(#paint52_radial_496_3442)" stroke-width="1.3" stroke-miterlimit="10"/>
<path d="M1212.87 -128.831C1161.26 -90.7637 1091.92 -120.195 1036.5 -93.4683C1000.82 -76.299 1004.84 -34.0256 1000.92 -1.07542C997.153 30.6682 981.561 58.7692 948.256 65.9997C925.339 70.9674 904.713 69.7315 887.475 89.1493C857.658 122.662 872.131 184.624 869.325 225.387C867.913 246.56 864.215 267.546 849.344 283.415C832.63 301.236 807.353 312.219 785.531 322.154C733.945 345.605 681.281 362.509 644.131 407.432C609.485 449.183 584.87 498.172 547.243 537.605" stroke="url(#paint53_radial_496_3442)" stroke-width="1.3" stroke-miterlimit="10"/>
<path d="M1225.15 -127.099C1175.38 -88.8956 1107.5 -113.877 1054 -86.3207C1020.05 -68.7585 1016.35 -26.1345 1007.03 6.52939C998.358 37.2134 981.836 63.8231 951.482 76.6621C931.392 85.154 912.707 89.6824 897.562 107.015C868.313 140.447 877.998 196.792 872.913 237.621C870.343 258.194 865.545 278.39 850.783 293.623C834.545 310.418 810.628 320.223 789.276 328.878C738.809 349.451 687.884 362.95 652.94 407.493C618.057 451.972 595.26 504.64 556.686 546.379" stroke="url(#paint54_radial_496_3442)" stroke-width="1.3" stroke-miterlimit="10"/>
<path d="M1237.66 -125.88C1190.43 -87.7498 1124.92 -107.296 1073.38 -79.9861C1040.07 -62.3158 1028.18 -19.8973 1013.78 12.0287C999.911 42.737 981.2 68.1448 953.776 88.0481C937.706 99.7132 920.456 110.021 907.408 125.394C879.357 158.602 883.659 208.523 876.15 248.79C872.527 268.002 867.161 288.277 853.137 302.73C836.407 320.045 811.579 328.991 789.372 336.595C740.007 353.656 692.987 364.195 660.756 408.343C626.334 455.592 605.209 511.312 566.195 555.341" stroke="url(#paint55_radial_496_3442)" stroke-width="1.3" stroke-miterlimit="10"/>
<path d="M1250.23 -124.977C1205.47 -86.8552 1142.46 -101.222 1093.01 -73.91C1058.28 -54.7435 1038.97 -10.591 1018.62 21.6342C990.332 66.3006 951.775 104.242 917.592 144.461C890.209 176.701 889.47 221.01 879.588 260.271C867.084 309.604 837.218 330.527 789.704 343.674C744.703 356.116 701.125 363.012 672.458 403.387C636.06 454.553 616.627 516.171 575.705 564.305" stroke="url(#paint56_radial_496_3442)" stroke-width="1.3" stroke-miterlimit="10"/>
<path d="M1262.8 -123.953C1220.45 -85.9012 1159.93 -95.216 1112.45 -67.7709C1075.56 -46.454 1049.06 -1.20689 1022.64 31.3211C1001.96 56.7227 974.115 79.4222 959.583 109.137C949.775 129.162 942.147 145.707 927.646 163.4C900.231 196.716 895.269 237.415 881.151 276.988C865.985 319.755 839.447 339.633 795.755 349.126C749.921 359.062 708.055 361.669 680.015 403.987C644.207 458.046 626.321 522.72 584.962 573.27" stroke="url(#paint57_radial_496_3442)" stroke-width="1.3" stroke-miterlimit="10"/>
<path d="M1275.32 -122.736C1234.68 -84.5435 1176 -89.4196 1130.39 -60.8267C1110.79 -48.553 1094.89 -28.8577 1078.64 -12.5687C1061.77 4.49727 1044.98 21.751 1028.18 38.8784C1004.74 62.7786 971.394 86.0805 962.305 119.94C955.841 143.853 954.518 161.544 937.88 182.02C911.272 214.743 901.255 251.54 884.3 289.424C866.814 328.652 842.201 349.359 799.295 355.413C754.118 361.786 715.571 360.881 688.866 403.35C652.959 460.512 636.694 528.682 594.534 582.165" stroke="url(#paint58_radial_496_3442)" stroke-width="1.3" stroke-miterlimit="10"/>
<path d="M1287.6 -121.003C1248.98 -83.1228 1192.78 -83.3258 1149.01 -54.5965C1129.3 -41.6869 1112.51 -22.2188 1094.84 -6.64793C1075.45 10.4916 1055.79 27.3855 1036.26 44.4023C1009.26 68.0261 969.236 92.4079 965.17 131.246C962.458 157.835 965.94 177.347 947.585 199.77C921.827 231.204 907.351 265.03 888.171 300.448C869.109 335.609 846.845 358.652 805.627 361.747C785.714 363.274 765.312 361.02 745.668 365.26C722.057 370.311 708.661 384.619 696.708 404.958C661.445 464.696 646.524 535.483 603.982 591.066" stroke="url(#paint59_radial_496_3442)" stroke-width="1.3" stroke-miterlimit="10"/>
<path d="M1299.58 -118.567C1261.24 -79.809 1204.36 -77.0821 1162.22 -44.7304C1122.62 -14.2874 1085.08 19.5755 1045.36 50.1487C1015.87 72.896 970.08 97.5082 968.952 139.361C968.271 168.232 978.392 191.664 957.97 217.058C945.986 231.957 932.998 245.052 922.704 261.421C912.409 277.79 903.407 295.007 892.985 311.38C871.532 344.902 849.572 369.709 807.604 368.776C789.029 368.366 770.098 364.424 751.691 367.615C727.923 371.659 716.022 387.252 704.702 407.573C670.2 469.503 656.427 542.725 613.491 600.027" stroke="url(#paint60_radial_496_3442)" stroke-width="1.3" stroke-miterlimit="10"/>
<path d="M1311.15 -115.17C1273.68 -76.6905 1218.7 -69.9692 1177.71 -37.1449C1159.69 -22.6396 1143.5 -6.54203 1124.77 7.2882C1100.95 24.8092 1076.46 41.2107 1052.25 58.1106C1020.45 80.2919 970.855 104.509 973.234 149.297C974.803 179.304 989.512 205.829 967.807 232.842C956.007 247.547 941.93 260.23 930.724 275.74C919.391 291.253 909.089 307.369 897.691 322.821C875.017 353.596 853.684 380.345 812.564 375.908C795.088 374.074 777.31 368.39 759.564 370.361C735.883 373.009 724.265 389.607 713.44 409.534C678.809 473.555 666.513 549.645 622.742 608.743" stroke="url(#paint61_radial_496_3442)" stroke-width="1.3" stroke-miterlimit="10"/>
<path d="M1322.31 -110.433C1285.77 -72.8034 1233.3 -62.3591 1193.12 -30.0012C1173.07 -13.8548 1155.51 3.29458 1134.08 18.0256C1108.74 35.4643 1082.34 51.5417 1056.6 68.3592C1023.52 89.9451 973.011 113.303 978.925 159.823C982.796 190.523 999.973 219.127 977.403 246.925C952.939 277.118 926.296 306.489 901.253 336.383C877.005 365.305 857.227 391.06 816.644 383.317C800.398 380.183 783.588 372.952 766.722 374.644C743.094 376.975 731.911 395.458 721.77 414.922C687.808 480.189 676.642 558.081 632.383 617.826" stroke="url(#paint62_radial_496_3442)" stroke-width="1.3" stroke-miterlimit="10"/>
<path d="M1342.61 -96.343C1305.64 -60.5983 1256.18 -44.6106 1216.56 -12.5853C1196.38 3.69122 1179.2 20.8296 1157.19 35.1347C1129.58 53.0188 1100.71 68.7253 1072.49 85.5513C1038.49 105.899 984.778 130.172 993.568 177.558C999.443 209.654 1021.04 239.965 996.75 269.584C972.09 299.594 942.788 326.827 916.052 355.125C890.974 381.667 872.417 412.385 832.212 400.203C817.065 395.644 801.651 386.285 785.265 387.077C762.172 388.191 749.713 408.545 740.118 427.172C705.874 493.649 697.614 575.632 651.142 635.504" stroke="url(#paint63_radial_496_3442)" stroke-width="1.3" stroke-miterlimit="10"/>
<path d="M1352.05 -87.4428C1315.18 -50.4989 1264.03 -35.8541 1224.05 -3.3121C1204 12.9607 1186.43 29.8573 1164.61 44.2201C1137.76 61.9557 1109.78 78.0158 1082.46 94.9425C1048.17 116.247 996.445 139.324 1003.79 187.068C1008.63 218.562 1028.09 249.441 1004.92 278.268C980.828 308.198 951.725 335.742 925.747 364.018C900.811 391.062 881.845 420.779 841.594 409.168C826.131 404.682 810.28 395.525 793.706 396.386C770.617 397.626 758.092 417.919 748.493 436.419C714.308 502.705 707.513 584.961 660.581 644.278" stroke="url(#paint64_radial_496_3442)" stroke-width="1.3" stroke-miterlimit="10"/>
<path d="M1361.5 -78.543C1323.9 -40.1863 1270.19 -26.8587 1228.96 6.47863C1209.09 22.5563 1191.33 39.3951 1170.22 54.0538C1144.63 71.7527 1118.18 88.1479 1092.2 105.226C1058.26 127.596 1009.55 149.952 1014.22 197.141C1017.34 228.242 1033.37 258.715 1011.18 286.628C987.588 316.29 959.892 344.3 934.747 372.868C922.972 386.243 910.124 404.141 895.276 414.253C880.866 424.161 866.443 422.745 850.225 418.408C834.263 414.189 817.782 405.177 800.771 406.241C777.624 407.672 765.023 427.524 755.435 446.404C721.811 512.357 716.853 594.623 669.968 653.369" stroke="url(#paint65_radial_496_3442)" stroke-width="1.3" stroke-miterlimit="10"/>
<path d="M1370.95 -69.6428C1331.81 -29.7862 1274.96 -17.5697 1231.86 16.7078C1188.88 50.8552 1146.39 84.2293 1101.58 116.279C1068.68 139.758 1023.72 162.068 1024.6 207.786C1025.24 238.516 1037 268.037 1015.66 294.786C992.313 324.062 967.038 352.507 943.239 381.606C932.104 395.215 919.383 413.11 904.784 423.088C890.063 433.195 875.069 431.732 858.416 427.724C841.764 423.715 824.469 415.043 806.959 416.374C783.631 418.127 771.012 437.348 761.435 456.606C728.747 522.089 725.996 603.975 679.537 662.139" stroke="url(#paint66_radial_496_3442)" stroke-width="1.3" stroke-miterlimit="10"/>
<path d="M1380.39 -60.7457C1339.09 -19.2444 1278.6 -7.99771 1232.99 27.3647C1191.48 59.4451 1152.03 95.1982 1110.86 127.965C1079.58 152.725 1038.93 175.417 1035.32 218.861C1032.84 248.985 1039.49 277.263 1018.88 302.852C995.644 331.745 973.679 360.727 951.352 390.352C940.984 404.192 928.708 422.138 914.236 432.111C899.142 442.483 883.323 440.981 866.241 437.427C848.775 433.759 830.54 425.431 812.277 427.036C788.704 429.049 776.062 447.511 766.377 467.406C734.937 532.22 734.58 613.657 688.927 671.228" stroke="url(#paint67_radial_496_3442)" stroke-width="1.3" stroke-miterlimit="10"/>
<path d="M1389.84 -51.8457C1345.86 -8.68495 1281.36 1.85569 1232.74 38.1914C1192.81 68.0747 1156.99 106.506 1119.89 140.04C1090.81 166.255 1054.56 189.768 1045.91 230.195C1039.73 259.288 1040.77 286.337 1020.88 310.64C997.633 339.026 979.549 368.592 959.082 398.986C949.546 413.118 937.842 431.11 923.558 441.015C908.157 451.712 891.137 450.308 873.494 447.087C855.087 443.762 835.789 435.908 816.774 437.788C792.832 440.192 780.1 457.707 770.56 478.23C740.685 542.429 743.03 623.092 698.372 680.002" stroke="url(#paint68_radial_496_3442)" stroke-width="1.3" stroke-miterlimit="10"/>
<path d="M1399.28 -42.9446C1352.12 1.89027 1283.42 11.92 1231.35 49.305C1192.81 77.06 1161.31 118.087 1128.8 152.5C1102.49 180.343 1070.39 204.937 1056.64 241.779C1046.41 269.155 1041.4 295.177 1022.05 318.263C998.598 346.212 984.841 376.411 966.487 407.566C957.974 422.049 946.903 440.022 932.872 449.92C917.164 460.942 898.693 459.77 880.616 456.878C861.266 453.77 840.716 446.458 820.826 448.744C796.577 451.473 783.627 468.045 774.174 489.388C745.989 552.842 751.159 632.601 707.813 688.903" stroke="url(#paint69_radial_496_3442)" stroke-width="1.3" stroke-miterlimit="10"/>
<path d="M1408.73 -34.0496C1358.13 12.4667 1284.98 21.993 1229.33 60.5574C1191.7 86.578 1165.45 129.603 1137.6 165.21C1114.51 194.857 1085.86 220.617 1067.43 253.545C1053.22 278.886 1041.84 303.575 1022.72 325.894C999.062 353.407 989.827 384.423 973.896 416.141C966.473 431.034 956.223 448.921 942.257 458.88C926.18 470.292 906.259 469.352 887.557 466.732C841.567 460.411 799.348 448.667 777.48 500.613C751.11 563.318 759.354 642.038 717.26 697.798" stroke="url(#paint70_radial_496_3442)" stroke-width="1.3" stroke-miterlimit="10"/>
<path d="M1418.18 -25.1434C1363.89 22.9352 1286.42 32.2072 1226.88 71.897C1189.4 96.8374 1169.33 140.759 1146.4 178.057C1126.68 210.138 1101.26 235.993 1078.17 265.388C1060.03 288.501 1042.38 311.347 1023 333.421C999.21 360.558 994.308 392.461 981.055 424.734C974.721 440.039 965.357 457.899 951.518 467.855C934.949 479.787 913.57 478.826 894.376 476.726C848.296 471.674 801.428 459.116 780.541 512.108C756.052 574.127 767.493 651.678 726.712 706.83" stroke="url(#paint71_radial_496_3442)" stroke-width="1.3" stroke-miterlimit="10"/>
<path d="M1427.62 -16.2464C1369.7 33.456 1287.85 42.4123 1224.48 83.1624C1186.23 107.746 1173.18 151.527 1155.2 190.896C1126.31 254.181 1068.57 290.402 1023.35 341.001C999.354 367.827 998.917 400.74 988.268 433.252C974.184 476.178 945.01 490.375 901.246 486.52C855.261 482.541 803.626 469.425 783.654 523.404C761.042 584.608 775.619 661.056 736.15 715.601" stroke="url(#paint72_radial_496_3442)" stroke-width="1.3" stroke-miterlimit="10"/>
<path d="M1437.06 -7.3466C1375.58 43.7881 1289.54 52.6129 1222.4 94.4847C1182.63 119.238 1176.72 162.116 1163.93 203.676C1152.07 242.424 1131.69 265.16 1099.7 288.992C1074.27 307.951 1045.3 324.926 1023.88 348.514C999.631 375.222 1003.53 409.147 995.483 441.774C984.316 486.956 951.665 499.229 908.057 496.382C862.228 493.411 805.636 479.806 786.83 534.637C766.033 595.092 783.745 670.437 745.528 724.439" stroke="url(#paint73_radial_496_3442)" stroke-width="1.3" stroke-miterlimit="10"/>
<path d="M1446.51 1.55303C1381.71 54.2391 1291.67 62.7371 1221.01 105.597C1179.36 130.911 1180.2 172.771 1172.91 216.195C1169.82 234.19 1165.5 253.485 1153.7 267.937C1142.62 281.482 1125.44 291.724 1110.49 300.636C1082.03 317.722 1047.9 331.43 1025.06 356.262C1000.55 382.85 1008.54 417.922 1002.96 450.415C994.826 497.596 958.517 508.267 915.123 506.237C869.508 504.082 808.159 490.299 790.449 545.793C771.345 605.631 792.063 679.749 754.975 733.339" stroke="url(#paint74_radial_496_3442)" stroke-width="1.3" stroke-miterlimit="10"/>
<path d="M1455.96 10.4554C1388.28 64.4903 1294.44 72.7193 1220.7 116.491C1176.92 142.5 1184 183.609 1181.94 228.273C1181.13 246.201 1178.98 265.94 1167.37 280.576C1156.19 294.63 1136.95 304.173 1121.15 312.034C1090.17 327.359 1051.27 338.042 1027.06 364.052C1002.24 390.839 1014.18 426.682 1010.75 459.112C1005.65 507.914 965.564 517.366 922.633 516.018C877.293 514.614 811.441 500.645 794.766 556.869C777.101 616.095 800.832 689.241 764.553 742.364" stroke="url(#paint75_radial_496_3442)" stroke-width="1.3" stroke-miterlimit="10"/>
<path d="M1465.4 19.3521C1395.35 74.7211 1298.07 82.4172 1221.76 127.086C1175.79 153.981 1188.44 194.549 1191.15 239.897C1192.24 257.77 1192.06 277.768 1180.52 292.592C1169.22 307.155 1148.32 316.114 1131.73 322.985C1098.68 336.852 1055.51 344.748 1030.14 371.995C1004.95 399.046 1020.32 435.422 1018.79 467.796C1016.32 517.85 972.853 526.325 930.32 525.598C885.252 524.819 815.533 510.773 799.632 567.48C783.218 626.164 809.647 698.409 773.994 751.261" stroke="url(#paint76_radial_496_3442)" stroke-width="1.3" stroke-miterlimit="10"/>
<path d="M1474.85 28.2508C1403.07 84.9356 1302.85 91.9576 1224.53 137.317C1201.79 150.442 1190.7 163.354 1190.91 190.111C1191.06 210.668 1197.6 230.725 1200.53 250.949C1203.14 268.778 1204.42 288.797 1192.82 303.938C1181.22 318.954 1159.42 327.305 1142.24 333.625C1107.51 346.275 1061.04 351.799 1034.62 380.152C1009 407.658 1027.36 444.137 1027.29 476.533C1027.12 527.532 980.401 535.279 938.451 534.978C893.585 534.636 820.701 520.682 805.51 577.811C789.971 636.09 818.853 707.694 783.442 760.159" stroke="url(#paint77_radial_496_3442)" stroke-width="1.3" stroke-miterlimit="10"/>
<path d="M1484.29 37.1509C1411.78 95.1221 1308.94 101.145 1229.44 147.108C1206.88 160.164 1194.91 173.102 1196.44 199.883C1197.63 220.917 1205.93 240.796 1210.2 261.171C1214.02 279.281 1216.24 298.83 1204.21 314.427C1192.3 329.894 1170.42 337.805 1152.54 343.702C1116.52 355.504 1067.9 359.13 1040.69 388.454C1014.58 416.607 1035.2 452.641 1036.15 485.26C1037.59 536.782 988.381 544.031 947.01 544.03C902.217 544.002 827.18 530.111 812.376 587.482C797.275 645.558 828.42 716.59 792.814 768.872" stroke="url(#paint78_radial_496_3442)" stroke-width="1.3" stroke-miterlimit="10"/>
<path d="M1493.74 46.0514C1457.72 75.5679 1409.22 89.5034 1366.01 104.867C1323.12 120.158 1276.37 133.409 1236.81 156.512C1214.69 169.365 1201.71 182.586 1203.81 209.161C1205.51 230.433 1215.08 250.274 1220.24 270.75C1246.1 373.57 1096.03 345.787 1048.93 397.2C1022.28 426.318 1044.39 461.043 1045.86 494.279C1048.25 545.964 997.132 552.889 956.401 553.122C911.489 553.351 835.628 539.42 820.639 596.987C805.538 655.063 838.514 725.852 802.206 777.964" stroke="url(#paint79_radial_496_3442)" stroke-width="1.3" stroke-miterlimit="10"/>
<path d="M1501.09 54.948C1428.43 112.038 1326.95 118.97 1247.63 164.612C1225.13 177.603 1211.56 190.271 1213.75 217.413C1215.51 238.747 1225.08 258.714 1230.24 279.317C1256.25 382.639 1105.64 353.859 1058.55 405.524C1032.02 434.639 1053.89 470.003 1055.37 503.366C1057.57 554.993 1006.83 561.907 965.91 562.083C920.994 562.185 845.006 548.258 830.079 605.759C814.978 663.835 848.276 734.805 811.776 786.859" stroke="url(#paint80_radial_496_3442)" stroke-width="1.3" stroke-miterlimit="10"/>
<path d="M1504.39 63.8368C1432.38 119.2 1334.47 126.914 1257.05 172.754C1236.87 184.728 1223.41 196.887 1224.38 221.407C1225.26 243.019 1235.11 263.738 1240.65 284.329C1269.7 391.992 1116.05 359.124 1068.32 412.643C1043.04 440.962 1062.19 476.343 1064.59 508.857C1068.44 560.688 1021.21 570.411 978.771 570.757C933.989 571.109 855.605 555.416 839.658 612.694C823.306 671.313 858.141 742.87 821.157 795.698" stroke="url(#paint81_radial_496_3442)" stroke-width="1.3" stroke-miterlimit="10"/>
<path d="M1504.21 72.7642C1435.23 125.698 1342.61 134.714 1268.83 179.056C1248.71 191.092 1235.45 203.308 1236.35 227.767C1237.17 249.571 1247.03 270.416 1252.58 291.26C1281.72 400.375 1126.68 364.954 1078.51 418.929C1052.99 447.508 1072.05 484.283 1074.15 517.248C1077.5 569.474 1031.23 579.359 988.086 579.536C943.3 579.76 864.718 563.757 848.774 621.162C832.425 679.907 867.648 751.706 830.602 804.599" stroke="url(#paint82_radial_496_3442)" stroke-width="1.3" stroke-miterlimit="10"/>
<path d="M1501.11 81.6451C1438.1 130.736 1354.44 142.529 1285.69 181.537C1263.31 194.271 1247.17 207.71 1249.11 235.238C1250.71 257.526 1260.51 278.563 1265.88 299.981C1292.68 406.886 1136.83 371.932 1089.12 424.248C1062.84 453.102 1082.17 492.59 1083.85 526.264C1086.26 576.618 1043.76 587.722 1001.01 588.141C956.417 588.55 875.193 571.042 858.218 627.844C840.557 687.196 877.447 759.707 839.982 813.434" stroke="url(#paint83_radial_496_3442)" stroke-width="1.3" stroke-miterlimit="10"/>
<path d="M1495.73 90.6009C1437.22 137.537 1359.44 149.222 1295.94 187.635C1274.33 200.726 1260.07 215.692 1262.55 242.256C1264.67 265.034 1274.67 286.382 1279.81 308.44C1304.38 414.714 1146.53 376.654 1099.65 429.009C1072.77 459.02 1093.17 500.374 1093.74 535.345C1094.7 587.767 1050.8 596.697 1006.58 596.716C963.687 596.759 884.959 580.127 867.657 634.408C848.561 694.498 887.307 767.651 849.426 822.339" stroke="url(#paint84_radial_496_3442)" stroke-width="1.3" stroke-miterlimit="10"/>
<path d="M1488.57 99.4729C1435.38 143.913 1364.07 155.664 1306.68 193.203C1285.36 207.172 1273.51 222.447 1276.56 248.932C1279.02 270.308 1287.9 290.36 1292.81 311.096C1319.24 422.567 1160.23 379.352 1110.67 433.367C1083.96 462.551 1102.24 505.106 1103.43 539.552C1104.11 558.513 1101.07 578.278 1085.48 591.005C1066.23 606.811 1035.48 605.743 1012.21 605.343C970.571 604.717 894.788 589.139 877.163 641.025C856.439 701.795 897.229 775.52 858.937 831.296" stroke="url(#paint85_radial_496_3442)" stroke-width="1.3" stroke-miterlimit="10"/>
<path d="M1480.28 108.384C1432.83 150.127 1368.56 162.243 1317.73 198.453C1274.03 229.584 1295.23 270.22 1306.18 313.368C1335.96 430.942 1172.12 380.971 1121.37 437.299C1094.3 467.378 1112.35 512.913 1113.19 548.383C1113.58 566.213 1110.96 585.016 1097.33 597.876C1079.02 615.047 1048.53 614.478 1025.2 614.142C979.19 613.58 901.315 595.785 884.894 654.216C868.065 713.861 905.263 786.046 868.384 840.325" stroke="url(#paint86_radial_496_3442)" stroke-width="1.3" stroke-miterlimit="10"/>
<path d="M1471.42 117.241C1430.1 156.022 1373.19 168.81 1329.22 203.492C1287.85 236.075 1311.07 278.613 1321.11 321.154C1348.35 436.588 1183.06 386.596 1132.63 441.142C1104.32 471.764 1122.9 520.511 1123.27 557.132C1123.43 575.855 1119.93 594.937 1105.22 607.639C1087.55 622.83 1060.49 622.793 1038.38 622.613C993.066 622.22 911.722 602.754 894.332 660.517C876.067 720.899 915.186 793.788 877.957 849.09" stroke="url(#paint87_radial_496_3442)" stroke-width="1.3" stroke-miterlimit="10"/>
<path d="M1462.49 126.174C1427.22 161.68 1378.15 175.821 1340.96 208.535C1301.67 243.082 1326.62 286.266 1335.91 329.082C1360.71 443.447 1193.26 390.798 1143.32 444.824C1115.56 474.86 1132.14 524.551 1132.94 560.591C1133.4 580.95 1130.54 604.569 1113.19 618.106C1094.49 632.694 1065.88 631.564 1043.5 631.138C999.447 630.329 921.359 611.717 903.515 666.963C883.688 728.087 924.915 801.61 887.213 858.064" stroke="url(#paint88_radial_496_3442)" stroke-width="1.3" stroke-miterlimit="10"/>
<path d="M1454.07 135.082C1425.63 165.96 1387.07 181.884 1356.72 210.098C1317.42 246.606 1339.16 286.276 1349.15 331.224C1375.91 451.859 1207.18 392.603 1154.46 449.051C1124.48 481.176 1143.96 536.667 1142.81 575.421C1142.3 592.897 1138.88 612.547 1125.24 624.9C1105.8 642.611 1073.3 640.517 1048.95 639.706C1004.23 638.157 924.91 620.594 910.986 679.901C896.837 740.227 932.953 812.254 896.784 866.956" stroke="url(#paint89_radial_496_3442)" stroke-width="1.3" stroke-miterlimit="10"/>
<path d="M1446.79 143.963C1423.38 171.342 1392.74 189.568 1368.15 215.589C1352.73 231.917 1344.29 246.84 1346.61 269.929C1348.83 291.693 1357.09 312.394 1362.14 333.506C1392.29 459.674 1219.31 395.544 1164.91 453.116C1135.35 484.406 1153.02 540.898 1152.6 578.745C1152.36 598.935 1149.27 621.232 1132.81 634.869C1114.07 650.408 1085.02 649.227 1062.06 648.502C1017.61 647.072 935.18 627.321 920.17 686.343C904.713 747.403 942.5 820.267 906.042 875.927" stroke="url(#paint90_radial_496_3442)" stroke-width="1.3" stroke-miterlimit="10"/>
<path d="M1441.34 152.849C1422.94 175.717 1401.72 195.567 1382.73 217.883C1366.74 236.632 1357.16 251.461 1360.32 277.31C1363.05 299.438 1371.4 320.58 1376.27 342.266C1403.75 465.918 1229.23 401.453 1175.95 457.98C1145.46 490.246 1163.57 548.624 1162.31 588.013C1161.69 608.214 1158.58 632.093 1141.03 645.193C1123.3 658.488 1096.48 657.685 1075.56 657.154C1031.49 655.966 945.77 634.223 929.729 692.642C912.71 754.444 952.545 828.008 915.671 884.628" stroke="url(#paint91_radial_496_3442)" stroke-width="1.3" stroke-miterlimit="10"/>
<path d="M1438.12 161.739C1422.42 181.998 1409.18 203.704 1393.94 224.266C1380.34 242.566 1371.08 255.109 1372.79 279.101C1374.65 303.975 1384.71 327.472 1389.66 351.813C1414.47 472.948 1238.73 407.822 1186.17 463.19C1155.13 495.915 1173.66 558.013 1172.03 597.919C1171.25 616.606 1168.03 638.907 1153.14 652.056C1134.49 668.542 1103.57 666.465 1080.68 665.675C1038.19 664.251 955.862 643.612 939.234 699.265C920.525 761.811 962.405 835.948 925.119 893.656" stroke="url(#paint92_radial_496_3442)" stroke-width="1.3" stroke-miterlimit="10"/>
<path d="M1437.68 170.675C1422.97 189.766 1418.39 210.904 1405.52 230.511C1392.84 249.797 1382.9 260.841 1384.69 285.401C1386.56 310.401 1396.63 334.151 1401.58 358.618C1426.37 481.082 1249.29 413.591 1196.36 469.349C1165.01 502.4 1183.39 565.831 1181.59 606.185C1180.74 624.937 1177.6 647.679 1162.52 660.897C1143.81 677.32 1112.89 675.244 1089.93 674.393C1047.44 672.842 964.911 651.893 948.286 707.672C929.647 770.406 971.848 844.723 934.439 902.561" stroke="url(#paint93_radial_496_3442)" stroke-width="1.3" stroke-miterlimit="10"/>
<path d="M1440.72 179.567C1431.06 191.616 1425.79 199.93 1423.62 214.609C1422.36 223.376 1421.71 229.532 1416.81 237.456C1404.66 257.486 1393.91 267.035 1395.79 292.414C1397.6 317.606 1407.67 341.482 1412.63 366.076C1437.44 489.426 1259.43 420.19 1206.32 476.396C1174.85 509.703 1193.07 574.088 1191.09 614.764C1190.11 633.646 1187.1 656.384 1171.97 669.793C1153.19 686.282 1122.27 684.08 1099.31 683.228C1056.81 681.551 974.091 660.417 957.531 716.258C938.892 778.992 981.418 853.616 943.883 911.458" stroke="url(#paint94_radial_496_3442)" stroke-width="1.3" stroke-miterlimit="10"/>
<path d="M1447.83 188.473C1436.86 201.129 1431.79 207.792 1432.12 223.473C1432.33 232.894 1432.66 237.63 1427.21 246.393C1416.2 264.174 1404.32 273.883 1405.36 296.63C1406.48 322.158 1416.69 346.536 1421.85 371.314C1448.5 499.228 1271.93 427.294 1216.2 484.841C1185.45 516.609 1201.78 579.34 1200.7 618.661C1200.06 640.191 1197.5 665.32 1179.55 679.76C1159.61 695.777 1128.62 693.26 1104.63 691.932C1063.71 689.767 984.646 670.361 967.426 723.121C946.837 786.354 991.408 861.552 953.392 920.293" stroke="url(#paint95_radial_496_3442)" stroke-width="1.3" stroke-miterlimit="10"/>
<defs>
<radialGradient id="paint0_radial_496_3442" cx="0" cy="0" r="1" gradientUnits="userSpaceOnUse" gradientTransform="translate(439.268 -255.883) rotate(133.375) scale(503.376 65.6045)">
<stop stop-color="#C4FF96"/>
<stop offset="0.242708" stop-color="#D1D2D2"/>
<stop offset="0.544792" stop-color="white"/>
<stop offset="1" stop-color="white"/>
</radialGradient>
<radialGradient id="paint1_radial_496_3442" cx="0" cy="0" r="1" gradientUnits="userSpaceOnUse" gradientTransform="translate(448.908 -246.8) rotate(133.375) scale(503.376 65.8154)">
<stop stop-color="#C4FF96"/>
<stop offset="0.242708" stop-color="#D1D2D2"/>
<stop offset="0.544792" stop-color="white"/>
<stop offset="1" stop-color="white"/>
</radialGradient>
<radialGradient id="paint2_radial_496_3442" cx="0" cy="0" r="1" gradientUnits="userSpaceOnUse" gradientTransform="translate(458.802 -237.414) rotate(133.375) scale(503.421 66.4739)">
<stop stop-color="#C4FF96"/>
<stop offset="0.242708" stop-color="#D1D2D2"/>
<stop offset="0.544792" stop-color="white"/>
<stop offset="1" stop-color="white"/>
</radialGradient>
<radialGradient id="paint3_radial_496_3442" cx="0" cy="0" r="1" gradientUnits="userSpaceOnUse" gradientTransform="translate(468.862 -227.937) rotate(133.375) scale(503.421 67.4099)">
<stop stop-color="#C4FF96"/>
<stop offset="0.242708" stop-color="#D1D2D2"/>
<stop offset="0.544792" stop-color="white"/>
<stop offset="1" stop-color="white"/>
</radialGradient>
<radialGradient id="paint4_radial_496_3442" cx="0" cy="0" r="1" gradientUnits="userSpaceOnUse" gradientTransform="translate(479.108 -218.22) rotate(133.375) scale(503.466 68.5018)">
<stop stop-color="#C4FF96"/>
<stop offset="0.242708" stop-color="#D1D2D2"/>
<stop offset="0.544792" stop-color="white"/>
<stop offset="1" stop-color="white"/>
</radialGradient>
<radialGradient id="paint5_radial_496_3442" cx="0" cy="0" r="1" gradientUnits="userSpaceOnUse" gradientTransform="translate(489.599 -208.397) rotate(133.375) scale(503.421 69.9359)">
<stop stop-color="#C4FF96"/>
<stop offset="0.242708" stop-color="#D1D2D2"/>
<stop offset="0.544792" stop-color="white"/>
<stop offset="1" stop-color="white"/>
</radialGradient>
<radialGradient id="paint6_radial_496_3442" cx="0" cy="0" r="1" gradientUnits="userSpaceOnUse" gradientTransform="translate(500.077 -198.522) rotate(133.375) scale(503.421 71.4352)">
<stop stop-color="#C4FF96"/>
<stop offset="0.242708" stop-color="#D1D2D2"/>
<stop offset="0.544792" stop-color="white"/>
<stop offset="1" stop-color="white"/>
</radialGradient>
<radialGradient id="paint7_radial_496_3442" cx="0" cy="0" r="1" gradientUnits="userSpaceOnUse" gradientTransform="translate(510.694 -188.519) rotate(133.375) scale(503.421 73.0995)">
<stop stop-color="#C4FF96"/>
<stop offset="0.242708" stop-color="#D1D2D2"/>
<stop offset="0.544792" stop-color="white"/>
<stop offset="1" stop-color="white"/>
</radialGradient>
<radialGradient id="paint8_radial_496_3442" cx="0" cy="0" r="1" gradientUnits="userSpaceOnUse" gradientTransform="translate(521.335 -178.556) rotate(133.375) scale(503.376 74.7771)">
<stop stop-color="#C4FF96"/>
<stop offset="0.242708" stop-color="#D1D2D2"/>
<stop offset="0.544792" stop-color="white"/>
<stop offset="1" stop-color="white"/>
</radialGradient>
<radialGradient id="paint9_radial_496_3442" cx="0" cy="0" r="1" gradientUnits="userSpaceOnUse" gradientTransform="translate(531.969 -168.538) rotate(133.375) scale(503.376 76.4886)">
<stop stop-color="#C4FF96"/>
<stop offset="0.242708" stop-color="#D1D2D2"/>
<stop offset="0.544792" stop-color="white"/>
<stop offset="1" stop-color="white"/>
</radialGradient>
<radialGradient id="paint10_radial_496_3442" cx="0" cy="0" r="1" gradientUnits="userSpaceOnUse" gradientTransform="translate(542.589 -158.531) rotate(133.375) scale(503.376 78.1864)">
<stop stop-color="#C4FF96"/>
<stop offset="0.242708" stop-color="#D1D2D2"/>
<stop offset="0.544792" stop-color="white"/>
<stop offset="1" stop-color="white"/>
</radialGradient>
<radialGradient id="paint11_radial_496_3442" cx="0" cy="0" r="1" gradientUnits="userSpaceOnUse" gradientTransform="translate(553.109 -148.556) rotate(133.375) scale(503.421 79.7851)">
<stop stop-color="#C4FF96"/>
<stop offset="0.242708" stop-color="#D1D2D2"/>
<stop offset="0.544792" stop-color="white"/>
<stop offset="1" stop-color="white"/>
</radialGradient>
<radialGradient id="paint12_radial_496_3442" cx="0" cy="0" r="1" gradientUnits="userSpaceOnUse" gradientTransform="translate(563.549 -138.78) rotate(133.375) scale(503.376 81.1632)">
<stop stop-color="#C4FF96"/>
<stop offset="0.242708" stop-color="#D1D2D2"/>
<stop offset="0.544792" stop-color="white"/>
<stop offset="1" stop-color="white"/>
</radialGradient>
<radialGradient id="paint13_radial_496_3442" cx="0" cy="0" r="1" gradientUnits="userSpaceOnUse" gradientTransform="translate(573.754 -129.106) rotate(133.375) scale(503.421 82.3757)">
<stop stop-color="#C4FF96"/>
<stop offset="0.242708" stop-color="#D1D2D2"/>
<stop offset="0.544792" stop-color="white"/>
<stop offset="1" stop-color="white"/>
</radialGradient>
<radialGradient id="paint14_radial_496_3442" cx="0" cy="0" r="1" gradientUnits="userSpaceOnUse" gradientTransform="translate(584.006 -119.63) rotate(133.375) scale(503.287 83.2692)">
<stop stop-color="#C4FF96"/>
<stop offset="0.242708" stop-color="#D1D2D2"/>
<stop offset="0.544792" stop-color="white"/>
<stop offset="1" stop-color="white"/>
</radialGradient>
<radialGradient id="paint15_radial_496_3442" cx="0" cy="0" r="1" gradientUnits="userSpaceOnUse" gradientTransform="translate(593.721 -110.35) rotate(133.375) scale(503.376 83.7988)">
<stop stop-color="#C4FF96"/>
<stop offset="0.242708" stop-color="#D1D2D2"/>
<stop offset="0.544792" stop-color="white"/>
<stop offset="1" stop-color="white"/>
</radialGradient>
<radialGradient id="paint16_radial_496_3442" cx="0" cy="0" r="1" gradientUnits="userSpaceOnUse" gradientTransform="translate(603.369 -101.135) rotate(133.375) scale(503.466 83.9953)">
<stop stop-color="#C4FF96"/>
<stop offset="0.242708" stop-color="#D1D2D2"/>
<stop offset="0.544792" stop-color="white"/>
<stop offset="1" stop-color="white"/>
</radialGradient>
<radialGradient id="paint17_radial_496_3442" cx="0" cy="0" r="1" gradientUnits="userSpaceOnUse" gradientTransform="translate(612.388 -92.7035) rotate(133.375) scale(503.421 83.6329)">
<stop stop-color="#C4FF96"/>
<stop offset="0.242708" stop-color="#D1D2D2"/>
<stop offset="0.544792" stop-color="white"/>
<stop offset="1" stop-color="white"/>
</radialGradient>
<radialGradient id="paint18_radial_496_3442" cx="0" cy="0" r="1" gradientUnits="userSpaceOnUse" gradientTransform="translate(619.832 -85.7469) rotate(133.375) scale(503.376 83.7451)">
<stop stop-color="#C4FF96"/>
<stop offset="0.242708" stop-color="#D1D2D2"/>
<stop offset="0.544792" stop-color="white"/>
<stop offset="1" stop-color="white"/>
</radialGradient>
<radialGradient id="paint19_radial_496_3442" cx="0" cy="0" r="1" gradientUnits="userSpaceOnUse" gradientTransform="translate(626.328 -79.5048) rotate(133.375) scale(503.466 83.7883)">
<stop stop-color="#C4FF96"/>
<stop offset="0.242708" stop-color="#D1D2D2"/>
<stop offset="0.544792" stop-color="white"/>
<stop offset="1" stop-color="white"/>
</radialGradient>
<radialGradient id="paint20_radial_496_3442" cx="0" cy="0" r="1" gradientUnits="userSpaceOnUse" gradientTransform="translate(632.042 -74.304) rotate(133.375) scale(503.332 83.9158)">
<stop stop-color="#C4FF96"/>
<stop offset="0.242708" stop-color="#D1D2D2"/>
<stop offset="0.544792" stop-color="white"/>
<stop offset="1" stop-color="white"/>
</radialGradient>
<radialGradient id="paint21_radial_496_3442" cx="0" cy="0" r="1" gradientUnits="userSpaceOnUse" gradientTransform="translate(636.941 -69.5637) rotate(133.375) scale(503.421 83.9763)">
<stop stop-color="#C4FF96"/>
<stop offset="0.242708" stop-color="#D1D2D2"/>
<stop offset="0.544792" stop-color="white"/>
<stop offset="1" stop-color="white"/>
</radialGradient>
<radialGradient id="paint22_radial_496_3442" cx="0" cy="0" r="1" gradientUnits="userSpaceOnUse" gradientTransform="translate(641.455 -65.3741) rotate(133.375) scale(503.376 84.2247)">
<stop stop-color="#C4FF96"/>
<stop offset="0.242708" stop-color="#D1D2D2"/>
<stop offset="0.544792" stop-color="white"/>
<stop offset="1" stop-color="white"/>
</radialGradient>
<radialGradient id="paint23_radial_496_3442" cx="0" cy="0" r="1" gradientUnits="userSpaceOnUse" gradientTransform="translate(645.481 -61.5158) rotate(133.375) scale(503.421 84.4377)">
<stop stop-color="#C4FF96"/>
<stop offset="0.242708" stop-color="#D1D2D2"/>
<stop offset="0.544792" stop-color="white"/>
<stop offset="1" stop-color="white"/>
</radialGradient>
<radialGradient id="paint24_radial_496_3442" cx="0" cy="0" r="1" gradientUnits="userSpaceOnUse" gradientTransform="translate(649.43 -57.7999) rotate(133.375) scale(503.421 84.7341)">
<stop stop-color="#C4FF96"/>
<stop offset="0.242708" stop-color="#D1D2D2"/>
<stop offset="0.544792" stop-color="white"/>
<stop offset="1" stop-color="white"/>
</radialGradient>
<radialGradient id="paint25_radial_496_3442" cx="0" cy="0" r="1" gradientUnits="userSpaceOnUse" gradientTransform="translate(653.286 -54.1657) rotate(133.375) scale(503.421 85.0849)">
<stop stop-color="#C4FF96"/>
<stop offset="0.242708" stop-color="#D1D2D2"/>
<stop offset="0.544792" stop-color="white"/>
<stop offset="1" stop-color="white"/>
</radialGradient>
<radialGradient id="paint26_radial_496_3442" cx="0" cy="0" r="1" gradientUnits="userSpaceOnUse" gradientTransform="translate(657.341 -50.345) rotate(133.375) scale(503.421 85.433)">
<stop stop-color="#C4FF96"/>
<stop offset="0.242708" stop-color="#D1D2D2"/>
<stop offset="0.544792" stop-color="white"/>
<stop offset="1" stop-color="white"/>
</radialGradient>
<radialGradient id="paint27_radial_496_3442" cx="0" cy="0" r="1" gradientUnits="userSpaceOnUse" gradientTransform="translate(661.743 -46.2589) rotate(133.375) scale(503.376 85.8309)">
<stop stop-color="#C4FF96"/>
<stop offset="0.242708" stop-color="#D1D2D2"/>
<stop offset="0.544792" stop-color="white"/>
<stop offset="1" stop-color="white"/>
</radialGradient>
<radialGradient id="paint28_radial_496_3442" cx="0" cy="0" r="1" gradientUnits="userSpaceOnUse" gradientTransform="translate(666.519 -41.6956) rotate(133.375) scale(503.421 86.1207)">
<stop stop-color="#C4FF96"/>
<stop offset="0.242708" stop-color="#D1D2D2"/>
<stop offset="0.544792" stop-color="white"/>
<stop offset="1" stop-color="white"/>
</radialGradient>
<radialGradient id="paint29_radial_496_3442" cx="0" cy="0" r="1" gradientUnits="userSpaceOnUse" gradientTransform="translate(672.028 -36.3838) rotate(133.375) scale(503.511 86.4322)">
<stop stop-color="#C4FF96"/>
<stop offset="0.242708" stop-color="#D1D2D2"/>
<stop offset="0.544792" stop-color="white"/>
<stop offset="1" stop-color="white"/>
</radialGradient>
<radialGradient id="paint30_radial_496_3442" cx="0" cy="0" r="1" gradientUnits="userSpaceOnUse" gradientTransform="translate(678.605 -30.3678) rotate(133.375) scale(503.376 86.6989)">
<stop stop-color="#C4FF96"/>
<stop offset="0.242708" stop-color="#D1D2D2"/>
<stop offset="0.544792" stop-color="white"/>
<stop offset="1" stop-color="white"/>
</radialGradient>
<radialGradient id="paint31_radial_496_3442" cx="0" cy="0" r="1" gradientUnits="userSpaceOnUse" gradientTransform="translate(685.885 -23.3868) rotate(133.375) scale(503.466 86.824)">
<stop stop-color="#C4FF96"/>
<stop offset="0.242708" stop-color="#D1D2D2"/>
<stop offset="0.544792" stop-color="white"/>
<stop offset="1" stop-color="white"/>
</radialGradient>
<radialGradient id="paint32_radial_496_3442" cx="0" cy="0" r="1" gradientUnits="userSpaceOnUse" gradientTransform="translate(694.634 -15.2073) rotate(133.375) scale(503.421 86.9466)">
<stop stop-color="#C4FF96"/>
<stop offset="0.242708" stop-color="#D1D2D2"/>
<stop offset="0.544792" stop-color="white"/>
<stop offset="1" stop-color="white"/>
</radialGradient>
<radialGradient id="paint33_radial_496_3442" cx="0" cy="0" r="1" gradientUnits="userSpaceOnUse" gradientTransform="translate(704.18 -5.59564) rotate(133.375) scale(502.884 86.0012)">
<stop stop-color="#C4FF96"/>
<stop offset="0.242708" stop-color="#D1D2D2"/>
<stop offset="0.544792" stop-color="white"/>
<stop offset="1" stop-color="white"/>
</radialGradient>
<radialGradient id="paint34_radial_496_3442" cx="0" cy="0" r="1" gradientUnits="userSpaceOnUse" gradientTransform="translate(713.452 4.9866) rotate(133.375) scale(501.542 84.078)">
<stop stop-color="#C4FF96"/>
<stop offset="0.242708" stop-color="#D1D2D2"/>
<stop offset="0.544792" stop-color="white"/>
<stop offset="1" stop-color="white"/>
</radialGradient>
<radialGradient id="paint35_radial_496_3442" cx="0" cy="0" r="1" gradientUnits="userSpaceOnUse" gradientTransform="translate(722.492 16.4561) rotate(133.375) scale(499.483 81.2169)">
<stop stop-color="#C4FF96"/>
<stop offset="0.242708" stop-color="#D1D2D2"/>
<stop offset="0.544792" stop-color="white"/>
<stop offset="1" stop-color="white"/>
</radialGradient>
<radialGradient id="paint36_radial_496_3442" cx="0" cy="0" r="1" gradientUnits="userSpaceOnUse" gradientTransform="translate(731.382 28.5196) rotate(133.375) scale(496.709 77.6127)">
<stop stop-color="#C4FF96"/>
<stop offset="0.242708" stop-color="#D1D2D2"/>
<stop offset="0.544792" stop-color="white"/>
<stop offset="1" stop-color="white"/>
</radialGradient>
<radialGradient id="paint37_radial_496_3442" cx="0" cy="0" r="1" gradientUnits="userSpaceOnUse" gradientTransform="translate(740.136 41.3143) rotate(133.375) scale(493.576 73.327)">
<stop stop-color="#C4FF96"/>
<stop offset="0.242708" stop-color="#D1D2D2"/>
<stop offset="0.544792" stop-color="white"/>
<stop offset="1" stop-color="white"/>
</radialGradient>
<radialGradient id="paint38_radial_496_3442" cx="0" cy="0" r="1" gradientUnits="userSpaceOnUse" gradientTransform="translate(748.768 54.3713) rotate(133.375) scale(489.997 68.5919)">
<stop stop-color="#C4FF96"/>
<stop offset="0.242708" stop-color="#D1D2D2"/>
<stop offset="0.544792" stop-color="white"/>
<stop offset="1" stop-color="white"/>
</radialGradient>
<radialGradient id="paint39_radial_496_3442" cx="0" cy="0" r="1" gradientUnits="userSpaceOnUse" gradientTransform="translate(757.293 67.6862) rotate(133.375) scale(486.148 63.6902)">
<stop stop-color="#C4FF96"/>
<stop offset="0.242708" stop-color="#D1D2D2"/>
<stop offset="0.544792" stop-color="white"/>
<stop offset="1" stop-color="white"/>
</radialGradient>
<radialGradient id="paint40_radial_496_3442" cx="0" cy="0" r="1" gradientUnits="userSpaceOnUse" gradientTransform="translate(764.108 79.4001) rotate(133.375) scale(482.121 61.1422)">
<stop stop-color="#C4FF96"/>
<stop offset="0.242708" stop-color="#D1D2D2"/>
<stop offset="0.544792" stop-color="white"/>
<stop offset="1" stop-color="white"/>
</radialGradient>
<radialGradient id="paint41_radial_496_3442" cx="0" cy="0" r="1" gradientUnits="userSpaceOnUse" gradientTransform="translate(767.214 87.8579) rotate(133.375) scale(478.183 63.6925)">
<stop stop-color="#C4FF96"/>
<stop offset="0.242708" stop-color="#D1D2D2"/>
<stop offset="0.544792" stop-color="white"/>
<stop offset="1" stop-color="white"/>
</radialGradient>
<radialGradient id="paint42_radial_496_3442" cx="0" cy="0" r="1" gradientUnits="userSpaceOnUse" gradientTransform="translate(770.055 95.763) rotate(133.375) scale(474.29 66.3105)">
<stop stop-color="#C4FF96"/>
<stop offset="0.242708" stop-color="#D1D2D2"/>
<stop offset="0.544792" stop-color="white"/>
<stop offset="1" stop-color="white"/>
</radialGradient>
<radialGradient id="paint43_radial_496_3442" cx="0" cy="0" r="1" gradientUnits="userSpaceOnUse" gradientTransform="translate(773.35 103.848) rotate(133.375) scale(470.755 69.1046)">
<stop stop-color="#C4FF96"/>
<stop offset="0.242708" stop-color="#D1D2D2"/>
<stop offset="0.544792" stop-color="white"/>
<stop offset="1" stop-color="white"/>
</radialGradient>
<radialGradient id="paint44_radial_496_3442" cx="0" cy="0" r="1" gradientUnits="userSpaceOnUse" gradientTransform="translate(777.157 111.862) rotate(133.375) scale(467.533 71.706)">
<stop stop-color="#C4FF96"/>
<stop offset="0.242708" stop-color="#D1D2D2"/>
<stop offset="0.544792" stop-color="white"/>
<stop offset="1" stop-color="white"/>
</radialGradient>
<radialGradient id="paint45_radial_496_3442" cx="0" cy="0" r="1" gradientUnits="userSpaceOnUse" gradientTransform="translate(781.886 120.007) rotate(133.375) scale(464.848 73.9436)">
<stop stop-color="#C4FF96"/>
<stop offset="0.242708" stop-color="#D1D2D2"/>
<stop offset="0.544792" stop-color="white"/>
<stop offset="1" stop-color="white"/>
</radialGradient>
<radialGradient id="paint46_radial_496_3442" cx="0" cy="0" r="1" gradientUnits="userSpaceOnUse" gradientTransform="translate(787.937 128.594) rotate(133.375) scale(462.745 75.438)">
<stop stop-color="#C4FF96"/>
<stop offset="0.242708" stop-color="#D1D2D2"/>
<stop offset="0.544792" stop-color="white"/>
<stop offset="1" stop-color="white"/>
</radialGradient>
<radialGradient id="paint47_radial_496_3442" cx="0" cy="0" r="1" gradientUnits="userSpaceOnUse" gradientTransform="translate(794.878 136.981) rotate(133.375) scale(461.402 76.6206)">
<stop stop-color="#C4FF96"/>
<stop offset="0.242708" stop-color="#D1D2D2"/>
<stop offset="0.544792" stop-color="white"/>
<stop offset="1" stop-color="white"/>
</radialGradient>
<radialGradient id="paint48_radial_496_3442" cx="0" cy="0" r="1" gradientUnits="userSpaceOnUse" gradientTransform="translate(803.209 145.57) rotate(133.375) scale(460.955 77.276)">
<stop stop-color="#C4FF96"/>
<stop offset="0.242708" stop-color="#D1D2D2"/>
<stop offset="0.544792" stop-color="white"/>
<stop offset="1" stop-color="white"/>
</radialGradient>
<radialGradient id="paint49_radial_496_3442" cx="0" cy="0" r="1" gradientUnits="userSpaceOnUse" gradientTransform="translate(813.335 154.249) rotate(133.375) scale(461.313 76.415)">
<stop stop-color="#C4FF96"/>
<stop offset="0.242708" stop-color="#D1D2D2"/>
<stop offset="0.544792" stop-color="white"/>
<stop offset="1" stop-color="white"/>
</radialGradient>
<radialGradient id="paint50_radial_496_3442" cx="0" cy="0" r="1" gradientUnits="userSpaceOnUse" gradientTransform="translate(823.784 162.374) rotate(133.375) scale(462.745 74.4446)">
<stop stop-color="#C4FF96"/>
<stop offset="0.242708" stop-color="#D1D2D2"/>
<stop offset="0.544792" stop-color="white"/>
<stop offset="1" stop-color="white"/>
</radialGradient>
<radialGradient id="paint51_radial_496_3442" cx="0" cy="0" r="1" gradientUnits="userSpaceOnUse" gradientTransform="translate(834.502 169.519) rotate(133.375) scale(464.803 71.673)">
<stop stop-color="#C4FF96"/>
<stop offset="0.242708" stop-color="#D1D2D2"/>
<stop offset="0.544792" stop-color="white"/>
<stop offset="1" stop-color="white"/>
</radialGradient>
<radialGradient id="paint52_radial_496_3442" cx="0" cy="0" r="1" gradientUnits="userSpaceOnUse" gradientTransform="translate(845.743 176.545) rotate(133.375) scale(467.578 67.8144)">
<stop stop-color="#C4FF96"/>
<stop offset="0.242708" stop-color="#D1D2D2"/>
<stop offset="0.544792" stop-color="white"/>
<stop offset="1" stop-color="white"/>
</radialGradient>
<radialGradient id="paint53_radial_496_3442" cx="0" cy="0" r="1" gradientUnits="userSpaceOnUse" gradientTransform="translate(857.349 182.993) rotate(133.375) scale(470.755 63.1489)">
<stop stop-color="#C4FF96"/>
<stop offset="0.242708" stop-color="#D1D2D2"/>
<stop offset="0.544792" stop-color="white"/>
<stop offset="1" stop-color="white"/>
</radialGradient>
<radialGradient id="paint54_radial_496_3442" cx="0" cy="0" r="1" gradientUnits="userSpaceOnUse" gradientTransform="translate(869.264 189.238) rotate(133.375) scale(474.29 58.2602)">
<stop stop-color="#C4FF96"/>
<stop offset="0.242708" stop-color="#D1D2D2"/>
<stop offset="0.544792" stop-color="white"/>
<stop offset="1" stop-color="white"/>
</radialGradient>
<radialGradient id="paint55_radial_496_3442" cx="0" cy="0" r="1" gradientUnits="userSpaceOnUse" gradientTransform="translate(881.371 195.361) rotate(133.375) scale(478.138 53.2206)">
<stop stop-color="#C4FF96"/>
<stop offset="0.242708" stop-color="#D1D2D2"/>
<stop offset="0.544792" stop-color="white"/>
<stop offset="1" stop-color="white"/>
</radialGradient>
<radialGradient id="paint56_radial_496_3442" cx="0" cy="0" r="1" gradientUnits="userSpaceOnUse" gradientTransform="translate(892.522 200.399) rotate(133.375) scale(482.121 46.9864)">
<stop stop-color="#C4FF96"/>
<stop offset="0.242708" stop-color="#D1D2D2"/>
<stop offset="0.544792" stop-color="white"/>
<stop offset="1" stop-color="white"/>
</radialGradient>
<radialGradient id="paint57_radial_496_3442" cx="0" cy="0" r="1" gradientUnits="userSpaceOnUse" gradientTransform="translate(904.416 206.316) rotate(133.375) scale(486.148 42.4104)">
<stop stop-color="#C4FF96"/>
<stop offset="0.242708" stop-color="#D1D2D2"/>
<stop offset="0.544792" stop-color="white"/>
<stop offset="1" stop-color="white"/>
</radialGradient>
<radialGradient id="paint58_radial_496_3442" cx="0" cy="0" r="1" gradientUnits="userSpaceOnUse" gradientTransform="translate(915.463 211.375) rotate(133.375) scale(489.952 39.1194)">
<stop stop-color="#C4FF96"/>
<stop offset="0.242708" stop-color="#D1D2D2"/>
<stop offset="0.544792" stop-color="white"/>
<stop offset="1" stop-color="white"/>
</radialGradient>
<radialGradient id="paint59_radial_496_3442" cx="0" cy="0" r="1" gradientUnits="userSpaceOnUse" gradientTransform="translate(923.169 213.716) rotate(133.375) scale(493.532 40.3244)">
<stop stop-color="#C4FF96"/>
<stop offset="0.242708" stop-color="#D1D2D2"/>
<stop offset="0.544792" stop-color="white"/>
<stop offset="1" stop-color="white"/>
</radialGradient>
<radialGradient id="paint60_radial_496_3442" cx="0" cy="0" r="1" gradientUnits="userSpaceOnUse" gradientTransform="translate(931.165 216.825) rotate(133.375) scale(496.754 41.543)">
<stop stop-color="#C4FF96"/>
<stop offset="0.242708" stop-color="#D1D2D2"/>
<stop offset="0.544792" stop-color="white"/>
<stop offset="1" stop-color="white"/>
</radialGradient>
<radialGradient id="paint61_radial_496_3442" cx="0" cy="0" r="1" gradientUnits="userSpaceOnUse" gradientTransform="translate(939.337 220.773) rotate(133.375) scale(499.483 42.6157)">
<stop stop-color="#C4FF96"/>
<stop offset="0.242708" stop-color="#D1D2D2"/>
<stop offset="0.544792" stop-color="white"/>
<stop offset="1" stop-color="white"/>
</radialGradient>
<radialGradient id="paint62_radial_496_3442" cx="0" cy="0" r="1" gradientUnits="userSpaceOnUse" gradientTransform="translate(947.801 225.857) rotate(133.375) scale(501.587 43.3478)">
<stop stop-color="#C4FF96"/>
<stop offset="0.242708" stop-color="#D1D2D2"/>
<stop offset="0.544792" stop-color="white"/>
<stop offset="1" stop-color="white"/>
</radialGradient>
<radialGradient id="paint63_radial_496_3442" cx="0" cy="0" r="1" gradientUnits="userSpaceOnUse" gradientTransform="translate(965.401 239.923) rotate(133.375) scale(503.421 44.3745)">
<stop stop-color="#C4FF96"/>
<stop offset="0.242708" stop-color="#D1D2D2"/>
<stop offset="0.544792" stop-color="white"/>
<stop offset="1" stop-color="white"/>
</radialGradient>
<radialGradient id="paint64_radial_496_3442" cx="0" cy="0" r="1" gradientUnits="userSpaceOnUse" gradientTransform="translate(975.289 249.182) rotate(133.375) scale(503.376 43.5859)">
<stop stop-color="#C4FF96"/>
<stop offset="0.242708" stop-color="#D1D2D2"/>
<stop offset="0.544792" stop-color="white"/>
<stop offset="1" stop-color="white"/>
</radialGradient>
<radialGradient id="paint65_radial_496_3442" cx="0" cy="0" r="1" gradientUnits="userSpaceOnUse" gradientTransform="translate(985.155 258.601) rotate(133.375) scale(503.466 43.5077)">
<stop stop-color="#C4FF96"/>
<stop offset="0.242708" stop-color="#D1D2D2"/>
<stop offset="0.544792" stop-color="white"/>
<stop offset="1" stop-color="white"/>
</radialGradient>
<radialGradient id="paint66_radial_496_3442" cx="0" cy="0" r="1" gradientUnits="userSpaceOnUse" gradientTransform="translate(994.021 266.831) rotate(133.375) scale(503.376 44.2643)">
<stop stop-color="#C4FF96"/>
<stop offset="0.242708" stop-color="#D1D2D2"/>
<stop offset="0.544792" stop-color="white"/>
<stop offset="1" stop-color="white"/>
</radialGradient>
<radialGradient id="paint67_radial_496_3442" cx="0" cy="0" r="1" gradientUnits="userSpaceOnUse" gradientTransform="translate(1002.64 275.066) rotate(133.375) scale(503.466 45.2279)">
<stop stop-color="#C4FF96"/>
<stop offset="0.242708" stop-color="#D1D2D2"/>
<stop offset="0.544792" stop-color="white"/>
<stop offset="1" stop-color="white"/>
</radialGradient>
<radialGradient id="paint68_radial_496_3442" cx="0" cy="0" r="1" gradientUnits="userSpaceOnUse" gradientTransform="translate(1011.06 282.937) rotate(133.375) scale(503.421 46.4108)">
<stop stop-color="#C4FF96"/>
<stop offset="0.242708" stop-color="#D1D2D2"/>
<stop offset="0.544792" stop-color="white"/>
<stop offset="1" stop-color="white"/>
</radialGradient>
<radialGradient id="paint69_radial_496_3442" cx="0" cy="0" r="1" gradientUnits="userSpaceOnUse" gradientTransform="translate(1019.35 290.755) rotate(133.375) scale(503.421 47.6894)">
<stop stop-color="#C4FF96"/>
<stop offset="0.242708" stop-color="#D1D2D2"/>
<stop offset="0.544792" stop-color="white"/>
<stop offset="1" stop-color="white"/>
</radialGradient>
<radialGradient id="paint70_radial_496_3442" cx="0" cy="0" r="1" gradientUnits="userSpaceOnUse" gradientTransform="translate(1027.9 298.806) rotate(133.375) scale(503.421 48.7741)">
<stop stop-color="#C4FF96"/>
<stop offset="0.242708" stop-color="#D1D2D2"/>
<stop offset="0.544792" stop-color="white"/>
<stop offset="1" stop-color="white"/>
</radialGradient>
<radialGradient id="paint71_radial_496_3442" cx="0" cy="0" r="1" gradientUnits="userSpaceOnUse" gradientTransform="translate(1036.08 306.581) rotate(133.375) scale(503.466 50.2481)">
<stop stop-color="#C4FF96"/>
<stop offset="0.242708" stop-color="#D1D2D2"/>
<stop offset="0.544792" stop-color="white"/>
<stop offset="1" stop-color="white"/>
</radialGradient>
<radialGradient id="paint72_radial_496_3442" cx="0" cy="0" r="1" gradientUnits="userSpaceOnUse" gradientTransform="translate(1044.26 314.225) rotate(133.375) scale(503.421 51.6969)">
<stop stop-color="#C4FF96"/>
<stop offset="0.242708" stop-color="#D1D2D2"/>
<stop offset="0.544792" stop-color="white"/>
<stop offset="1" stop-color="white"/>
</radialGradient>
<radialGradient id="paint73_radial_496_3442" cx="0" cy="0" r="1" gradientUnits="userSpaceOnUse" gradientTransform="translate(1052.52 322.006) rotate(133.375) scale(503.421 53.3284)">
<stop stop-color="#C4FF96"/>
<stop offset="0.242708" stop-color="#D1D2D2"/>
<stop offset="0.544792" stop-color="white"/>
<stop offset="1" stop-color="white"/>
</radialGradient>
<radialGradient id="paint74_radial_496_3442" cx="0" cy="0" r="1" gradientUnits="userSpaceOnUse" gradientTransform="translate(1060.89 329.895) rotate(133.375) scale(503.421 54.801)">
<stop stop-color="#C4FF96"/>
<stop offset="0.242708" stop-color="#D1D2D2"/>
<stop offset="0.544792" stop-color="white"/>
<stop offset="1" stop-color="white"/>
</radialGradient>
<radialGradient id="paint75_radial_496_3442" cx="0" cy="0" r="1" gradientUnits="userSpaceOnUse" gradientTransform="translate(1069.46 337.967) rotate(133.375) scale(503.421 56.1025)">
<stop stop-color="#C4FF96"/>
<stop offset="0.242708" stop-color="#D1D2D2"/>
<stop offset="0.544792" stop-color="white"/>
<stop offset="1" stop-color="white"/>
</radialGradient>
<radialGradient id="paint76_radial_496_3442" cx="0" cy="0" r="1" gradientUnits="userSpaceOnUse" gradientTransform="translate(1078.06 346.071) rotate(133.375) scale(503.421 57.2575)">
<stop stop-color="#C4FF96"/>
<stop offset="0.242708" stop-color="#D1D2D2"/>
<stop offset="0.544792" stop-color="white"/>
<stop offset="1" stop-color="white"/>
</radialGradient>
<radialGradient id="paint77_radial_496_3442" cx="0" cy="0" r="1" gradientUnits="userSpaceOnUse" gradientTransform="translate(1086.85 354.358) rotate(133.375) scale(503.421 58.1499)">
<stop stop-color="#C4FF96"/>
<stop offset="0.242708" stop-color="#D1D2D2"/>
<stop offset="0.544792" stop-color="white"/>
<stop offset="1" stop-color="white"/>
</radialGradient>
<radialGradient id="paint78_radial_496_3442" cx="0" cy="0" r="1" gradientUnits="userSpaceOnUse" gradientTransform="translate(1095.78 362.709) rotate(133.375) scale(503.376 58.8134)">
<stop stop-color="#C4FF96"/>
<stop offset="0.242708" stop-color="#D1D2D2"/>
<stop offset="0.544792" stop-color="white"/>
<stop offset="1" stop-color="white"/>
</radialGradient>
<radialGradient id="paint79_radial_496_3442" cx="0" cy="0" r="1" gradientUnits="userSpaceOnUse" gradientTransform="translate(1105.02 371.538) rotate(133.375) scale(503.466 59.0121)">
<stop stop-color="#C4FF96"/>
<stop offset="0.242708" stop-color="#D1D2D2"/>
<stop offset="0.544792" stop-color="white"/>
<stop offset="1" stop-color="white"/>
</radialGradient>
<radialGradient id="paint80_radial_496_3442" cx="0" cy="0" r="1" gradientUnits="userSpaceOnUse" gradientTransform="translate(1114.01 380.928) rotate(133.375) scale(502.705 59.0978)">
<stop stop-color="#C4FF96"/>
<stop offset="0.242708" stop-color="#D1D2D2"/>
<stop offset="0.544792" stop-color="white"/>
<stop offset="1" stop-color="white"/>
</radialGradient>
<radialGradient id="paint81_radial_496_3442" cx="0" cy="0" r="1" gradientUnits="userSpaceOnUse" gradientTransform="translate(1121.74 391.103) rotate(133.375) scale(500.602 59.3783)">
<stop stop-color="#C4FF96"/>
<stop offset="0.242708" stop-color="#D1D2D2"/>
<stop offset="0.544792" stop-color="white"/>
<stop offset="1" stop-color="white"/>
</radialGradient>
<radialGradient id="paint82_radial_496_3442" cx="0" cy="0" r="1" gradientUnits="userSpaceOnUse" gradientTransform="translate(1128.71 402.223) rotate(133.375) scale(497.291 59.6523)">
<stop stop-color="#C4FF96"/>
<stop offset="0.242708" stop-color="#D1D2D2"/>
<stop offset="0.544792" stop-color="white"/>
<stop offset="1" stop-color="white"/>
</radialGradient>
<radialGradient id="paint83_radial_496_3442" cx="0" cy="0" r="1" gradientUnits="userSpaceOnUse" gradientTransform="translate(1134.86 413.918) rotate(133.375) scale(492.995 60.0354)">
<stop stop-color="#C4FF96"/>
<stop offset="0.242708" stop-color="#D1D2D2"/>
<stop offset="0.544792" stop-color="white"/>
<stop offset="1" stop-color="white"/>
</radialGradient>
<radialGradient id="paint84_radial_496_3442" cx="0" cy="0" r="1" gradientUnits="userSpaceOnUse" gradientTransform="translate(1140.44 426.188) rotate(133.375) scale(487.894 60.5358)">
<stop stop-color="#C4FF96"/>
<stop offset="0.242708" stop-color="#D1D2D2"/>
<stop offset="0.544792" stop-color="white"/>
<stop offset="1" stop-color="white"/>
</radialGradient>
<radialGradient id="paint85_radial_496_3442" cx="0" cy="0" r="1" gradientUnits="userSpaceOnUse" gradientTransform="translate(1145.66 438.914) rotate(133.375) scale(482.21 61.0779)">
<stop stop-color="#C4FF96"/>
<stop offset="0.242708" stop-color="#D1D2D2"/>
<stop offset="0.544792" stop-color="white"/>
<stop offset="1" stop-color="white"/>
</radialGradient>
<radialGradient id="paint86_radial_496_3442" cx="0" cy="0" r="1" gradientUnits="userSpaceOnUse" gradientTransform="translate(1150.85 452.228) rotate(133.375) scale(476.169 61.2194)">
<stop stop-color="#C4FF96"/>
<stop offset="0.242708" stop-color="#D1D2D2"/>
<stop offset="0.544792" stop-color="white"/>
<stop offset="1" stop-color="white"/>
</radialGradient>
<radialGradient id="paint87_radial_496_3442" cx="0" cy="0" r="1" gradientUnits="userSpaceOnUse" gradientTransform="translate(1155.66 465.241) rotate(133.375) scale(469.815 61.7592)">
<stop stop-color="#C4FF96"/>
<stop offset="0.242708" stop-color="#D1D2D2"/>
<stop offset="0.544792" stop-color="white"/>
<stop offset="1" stop-color="white"/>
</radialGradient>
<radialGradient id="paint88_radial_496_3442" cx="0" cy="0" r="1" gradientUnits="userSpaceOnUse" gradientTransform="translate(1160.22 478.332) rotate(133.375) scale(463.595 62.3483)">
<stop stop-color="#C4FF96"/>
<stop offset="0.242708" stop-color="#D1D2D2"/>
<stop offset="0.544792" stop-color="white"/>
<stop offset="1" stop-color="white"/>
</radialGradient>
<radialGradient id="paint89_radial_496_3442" cx="0" cy="0" r="1" gradientUnits="userSpaceOnUse" gradientTransform="translate(1165.17 491.36) rotate(133.375) scale(457.42 62.8627)">
<stop stop-color="#C4FF96"/>
<stop offset="0.242708" stop-color="#D1D2D2"/>
<stop offset="0.544792" stop-color="white"/>
<stop offset="1" stop-color="white"/>
</radialGradient>
<radialGradient id="paint90_radial_496_3442" cx="0" cy="0" r="1" gradientUnits="userSpaceOnUse" gradientTransform="translate(1170.16 504.054) rotate(133.375) scale(451.781 63.41)">
<stop stop-color="#C4FF96"/>
<stop offset="0.242708" stop-color="#D1D2D2"/>
<stop offset="0.544792" stop-color="white"/>
<stop offset="1" stop-color="white"/>
</radialGradient>
<radialGradient id="paint91_radial_496_3442" cx="0" cy="0" r="1" gradientUnits="userSpaceOnUse" gradientTransform="translate(1175.83 516.221) rotate(133.375) scale(446.546 63.9054)">
<stop stop-color="#C4FF96"/>
<stop offset="0.242708" stop-color="#D1D2D2"/>
<stop offset="0.544792" stop-color="white"/>
<stop offset="1" stop-color="white"/>
</radialGradient>
<radialGradient id="paint92_radial_496_3442" cx="0" cy="0" r="1" gradientUnits="userSpaceOnUse" gradientTransform="translate(1181.62 527.698) rotate(133.375) scale(442.25 64.8879)">
<stop stop-color="#C4FF96"/>
<stop offset="0.242708" stop-color="#D1D2D2"/>
<stop offset="0.544792" stop-color="white"/>
<stop offset="1" stop-color="white"/>
</radialGradient>
<radialGradient id="paint93_radial_496_3442" cx="0" cy="0" r="1" gradientUnits="userSpaceOnUse" gradientTransform="translate(1186.06 536.618) rotate(133.375) scale(438.894 68.4232)">
<stop stop-color="#C4FF96"/>
<stop offset="0.242708" stop-color="#D1D2D2"/>
<stop offset="0.544792" stop-color="white"/>
<stop offset="1" stop-color="white"/>
</radialGradient>
<radialGradient id="paint94_radial_496_3442" cx="0" cy="0" r="1" gradientUnits="userSpaceOnUse" gradientTransform="translate(1192.3 545.513) rotate(133.375) scale(436.701 70.7502)">
<stop stop-color="#C4FF96"/>
<stop offset="0.242708" stop-color="#D1D2D2"/>
<stop offset="0.544792" stop-color="white"/>
<stop offset="1" stop-color="white"/>
</radialGradient>
<radialGradient id="paint95_radial_496_3442" cx="0" cy="0" r="1" gradientUnits="userSpaceOnUse" gradientTransform="translate(1200.61 554.383) rotate(133.375) scale(435.851 71.6005)">
<stop stop-color="#C4FF96"/>
<stop offset="0.242708" stop-color="#D1D2D2"/>
<stop offset="0.544792" stop-color="white"/>
<stop offset="1" stop-color="white"/>
</radialGradient>
</defs>
</svg>
