<?xml version="1.0" encoding="utf-8"?>
<!-- Generator: Adobe Illustrator 21.0.0, SVG Export Plug-In . SVG Version: 6.00 Build 0)  -->
<svg version="1.1" id="Layer_1" xmlns:v="https://vecta.io/nano"
	 xmlns="http://www.w3.org/2000/svg" xmlns:xlink="http://www.w3.org/1999/xlink" x="0px" y="0px" viewBox="0 0 1058 796"
	 style="enable-background:new 0 0 1058 796;" xml:space="preserve">
<style type="text/css">
	.st0{fill:none;stroke:url(#SVGID_1_);stroke-width:1.3;stroke-miterlimit:10;}
	.st1{fill:none;stroke:url(#SVGID_2_);stroke-width:1.3;stroke-miterlimit:10;}
	.st2{fill:none;stroke:url(#SVGID_3_);stroke-width:1.3;stroke-miterlimit:10;}
	.st3{fill:none;stroke:url(#SVGID_4_);stroke-width:1.3;stroke-miterlimit:10;}
	.st4{fill:none;stroke:url(#SVGID_5_);stroke-width:1.3;stroke-miterlimit:10;}
	.st5{fill:none;stroke:url(#SVGID_6_);stroke-width:1.3;stroke-miterlimit:10;}
	.st6{fill:none;stroke:url(#SVGID_7_);stroke-width:1.3;stroke-miterlimit:10;}
	.st7{fill:none;stroke:url(#SVGID_8_);stroke-width:1.3;stroke-miterlimit:10;}
	.st8{fill:none;stroke:url(#SVGID_9_);stroke-width:1.3;stroke-miterlimit:10;}
	.st9{fill:none;stroke:url(#SVGID_10_);stroke-width:1.3;stroke-miterlimit:10;}
	.st10{fill:none;stroke:url(#SVGID_11_);stroke-width:1.3;stroke-miterlimit:10;}
	.st11{fill:none;stroke:url(#SVGID_12_);stroke-width:1.3;stroke-miterlimit:10;}
	.st12{fill:none;stroke:url(#SVGID_13_);stroke-width:1.3;stroke-miterlimit:10;}
	.st13{fill:none;stroke:url(#SVGID_14_);stroke-width:1.3;stroke-miterlimit:10;}
	.st14{fill:none;stroke:url(#SVGID_15_);stroke-width:1.3;stroke-miterlimit:10;}
	.st15{fill:none;stroke:url(#SVGID_16_);stroke-width:1.3;stroke-miterlimit:10;}
	.st16{fill:none;stroke:url(#SVGID_17_);stroke-width:1.3;stroke-miterlimit:10;}
	.st17{fill:none;stroke:url(#SVGID_18_);stroke-width:1.3;stroke-miterlimit:10;}
	.st18{fill:none;stroke:url(#SVGID_19_);stroke-width:1.3;stroke-miterlimit:10;}
	.st19{fill:none;stroke:url(#SVGID_20_);stroke-width:1.3;stroke-miterlimit:10;}
	.st20{fill:none;stroke:url(#SVGID_21_);stroke-width:1.3;stroke-miterlimit:10;}
	.st21{fill:none;stroke:url(#SVGID_22_);stroke-width:1.3;stroke-miterlimit:10;}
	.st22{fill:none;stroke:url(#SVGID_23_);stroke-width:1.3;stroke-miterlimit:10;}
	.st23{fill:none;stroke:url(#SVGID_24_);stroke-width:1.3;stroke-miterlimit:10;}
	.st24{fill:none;stroke:url(#SVGID_25_);stroke-width:1.3;stroke-miterlimit:10;}
	.st25{fill:none;stroke:url(#SVGID_26_);stroke-width:1.3;stroke-miterlimit:10;}
	.st26{fill:none;stroke:url(#SVGID_27_);stroke-width:1.3;stroke-miterlimit:10;}
	.st27{fill:none;stroke:url(#SVGID_28_);stroke-width:1.3;stroke-miterlimit:10;}
	.st28{fill:none;stroke:url(#SVGID_29_);stroke-width:1.3;stroke-miterlimit:10;}
	.st29{fill:none;stroke:url(#SVGID_30_);stroke-width:1.3;stroke-miterlimit:10;}
	.st30{fill:none;stroke:url(#SVGID_31_);stroke-width:1.3;stroke-miterlimit:10;}
	.st31{fill:none;stroke:url(#SVGID_32_);stroke-width:1.3;stroke-miterlimit:10;}
	.st32{fill:none;stroke:url(#SVGID_33_);stroke-width:1.3;stroke-miterlimit:10;}
	.st33{fill:none;stroke:url(#SVGID_34_);stroke-width:1.3;stroke-miterlimit:10;}
	.st34{fill:none;stroke:url(#SVGID_35_);stroke-width:1.3;stroke-miterlimit:10;}
	.st35{fill:none;stroke:url(#SVGID_36_);stroke-width:1.3;stroke-miterlimit:10;}
	.st36{fill:none;stroke:url(#SVGID_37_);stroke-width:1.3;stroke-miterlimit:10;}
	.st37{fill:none;stroke:url(#SVGID_38_);stroke-width:1.3;stroke-miterlimit:10;}
	.st38{fill:none;stroke:url(#SVGID_39_);stroke-width:1.3;stroke-miterlimit:10;}
	.st39{fill:none;stroke:url(#SVGID_40_);stroke-width:1.3;stroke-miterlimit:10;}
	.st40{fill:none;stroke:url(#SVGID_41_);stroke-width:1.3;stroke-miterlimit:10;}
	.st41{fill:none;stroke:url(#SVGID_42_);stroke-width:1.3;stroke-miterlimit:10;}
	.st42{fill:none;stroke:url(#SVGID_43_);stroke-width:1.3;stroke-miterlimit:10;}
	.st43{fill:none;stroke:url(#SVGID_44_);stroke-width:1.3;stroke-miterlimit:10;}
	.st44{fill:none;stroke:url(#SVGID_45_);stroke-width:1.3;stroke-miterlimit:10;}
	.st45{fill:none;stroke:url(#SVGID_46_);stroke-width:1.3;stroke-miterlimit:10;}
	.st46{fill:none;stroke:url(#SVGID_47_);stroke-width:1.3;stroke-miterlimit:10;}
	.st47{fill:none;stroke:url(#SVGID_48_);stroke-width:1.3;stroke-miterlimit:10;}
	.st48{fill:none;stroke:url(#SVGID_49_);stroke-width:1.3;stroke-miterlimit:10;}
	.st49{fill:none;stroke:url(#SVGID_50_);stroke-width:1.3;stroke-miterlimit:10;}
	.st50{fill:none;stroke:url(#SVGID_51_);stroke-width:1.3;stroke-miterlimit:10;}
	.st51{fill:none;stroke:url(#SVGID_52_);stroke-width:1.3;stroke-miterlimit:10;}
	.st52{fill:none;stroke:url(#SVGID_53_);stroke-width:1.3;stroke-miterlimit:10;}
	.st53{fill:none;stroke:url(#SVGID_54_);stroke-width:1.3;stroke-miterlimit:10;}
	.st54{fill:none;stroke:url(#SVGID_55_);stroke-width:1.3;stroke-miterlimit:10;}
	.st55{fill:none;stroke:url(#SVGID_56_);stroke-width:1.3;stroke-miterlimit:10;}
	.st56{fill:none;stroke:url(#SVGID_57_);stroke-width:1.3;stroke-miterlimit:10;}
	.st57{fill:none;stroke:url(#SVGID_58_);stroke-width:1.3;stroke-miterlimit:10;}
	.st58{fill:none;stroke:url(#SVGID_59_);stroke-width:1.3;stroke-miterlimit:10;}
	.st59{fill:none;stroke:url(#SVGID_60_);stroke-width:1.3;stroke-miterlimit:10;}
	.st60{fill:none;stroke:url(#SVGID_61_);stroke-width:1.3;stroke-miterlimit:10;}
	.st61{fill:none;stroke:url(#SVGID_62_);stroke-width:1.3;stroke-miterlimit:10;}
	.st62{fill:none;stroke:url(#SVGID_63_);stroke-width:1.3;stroke-miterlimit:10;}
	.st63{fill:none;stroke:url(#SVGID_64_);stroke-width:1.3;stroke-miterlimit:10;}
	.st64{fill:none;stroke:url(#SVGID_65_);stroke-width:1.3;stroke-miterlimit:10;}
	.st65{fill:none;stroke:url(#SVGID_66_);stroke-width:1.3;stroke-miterlimit:10;}
	.st66{fill:none;stroke:url(#SVGID_67_);stroke-width:1.3;stroke-miterlimit:10;}
	.st67{fill:none;stroke:url(#SVGID_68_);stroke-width:1.3;stroke-miterlimit:10;}
	.st68{fill:none;stroke:url(#SVGID_69_);stroke-width:1.3;stroke-miterlimit:10;}
	.st69{fill:none;stroke:url(#SVGID_70_);stroke-width:1.3;stroke-miterlimit:10;}
	.st70{fill:none;stroke:url(#SVGID_71_);stroke-width:1.3;stroke-miterlimit:10;}
	.st71{fill:none;stroke:url(#SVGID_72_);stroke-width:1.3;stroke-miterlimit:10;}
	.st72{fill:none;stroke:url(#SVGID_73_);stroke-width:1.3;stroke-miterlimit:10;}
	.st73{fill:none;stroke:url(#SVGID_74_);stroke-width:1.3;stroke-miterlimit:10;}
	.st74{fill:none;stroke:url(#SVGID_75_);stroke-width:1.3;stroke-miterlimit:10;}
	.st75{fill:none;stroke:url(#SVGID_76_);stroke-width:1.3;stroke-miterlimit:10;}
	.st76{fill:none;stroke:url(#SVGID_77_);stroke-width:1.3;stroke-miterlimit:10;}
	.st77{fill:none;stroke:url(#SVGID_78_);stroke-width:1.3;stroke-miterlimit:10;}
	.st78{fill:none;stroke:url(#SVGID_79_);stroke-width:1.3;stroke-miterlimit:10;}
	.st79{fill:none;stroke:url(#SVGID_80_);stroke-width:1.3;stroke-miterlimit:10;}
	.st80{fill:none;stroke:url(#SVGID_81_);stroke-width:1.3;stroke-miterlimit:10;}
	.st81{fill:none;stroke:url(#SVGID_82_);stroke-width:1.3;stroke-miterlimit:10;}
	.st82{fill:none;stroke:url(#SVGID_83_);stroke-width:1.3;stroke-miterlimit:10;}
	.st83{fill:none;stroke:url(#SVGID_84_);stroke-width:1.3;stroke-miterlimit:10;}
	.st84{fill:none;stroke:url(#SVGID_85_);stroke-width:1.3;stroke-miterlimit:10;}
	.st85{fill:none;stroke:url(#SVGID_86_);stroke-width:1.3;stroke-miterlimit:10;}
	.st86{fill:none;stroke:url(#SVGID_87_);stroke-width:1.3;stroke-miterlimit:10;}
	.st87{fill:none;stroke:url(#SVGID_88_);stroke-width:1.3;stroke-miterlimit:10;}
	.st88{fill:none;stroke:url(#SVGID_89_);stroke-width:1.3;stroke-miterlimit:10;}
	.st89{fill:none;stroke:url(#SVGID_90_);stroke-width:1.3;stroke-miterlimit:10;}
	.st90{fill:none;stroke:url(#SVGID_91_);stroke-width:1.3;stroke-miterlimit:10;}
	.st91{fill:none;stroke:url(#SVGID_92_);stroke-width:1.3;stroke-miterlimit:10;}
	.st92{fill:none;stroke:url(#SVGID_93_);stroke-width:1.3;stroke-miterlimit:10;}
	.st93{fill:none;stroke:url(#SVGID_94_);stroke-width:1.3;stroke-miterlimit:10;}
	.st94{fill:none;stroke:url(#SVGID_95_);stroke-width:1.3;stroke-miterlimit:10;}
	.st95{fill:none;stroke:url(#SVGID_96_);stroke-width:1.3;stroke-miterlimit:10;}
</style>
<g>
	
		<radialGradient id="SVGID_1_" cx="223.3014" cy="791.5163" r="1" gradientTransform="matrix(-345.7037 365.8911 47.8395 45.2001 39779.2539 -117727.3828)" gradientUnits="userSpaceOnUse">
		<stop  offset="0" style="stop-color:#C4FF96"/>
		<stop  offset="0.243" style="stop-color:#D1D2D2"/>
		<stop  offset="0.545" style="stop-color:#FFFFFF"/>
	</radialGradient>
	<path class="st0" d="M747.6-657C684.1-591.7,623.4-523.8,560-458.5c-27.3,28.1-53.8,56.9-80.6,85.4c-26.9,28.4-54,53.3-77.5,82.2
		c-18.6,22.9-22.1,55.4-25.9,83.7c-4.6,35.1-6.4,70.5-12.1,105.5c-3.6,21.9-7.8,56.2-28.7,69.7c-17.8,11.5-41.9,3.4-59.9-2.8
		c-23-8-46.3-20.4-70.9-22.6c-24.5-2.2-36,13.5-51.4,29.8L56.2,74.8"/>
	
		<radialGradient id="SVGID_2_" cx="223.3013" cy="791.5409" r="1" gradientTransform="matrix(-345.7346 365.9238 48.3182 45.6523 39415.9961 -118084.3594)" gradientUnits="userSpaceOnUse">
		<stop  offset="0" style="stop-color:#C4FF96"/>
		<stop  offset="0.243" style="stop-color:#D1D2D2"/>
		<stop  offset="0.545" style="stop-color:#FFFFFF"/>
	</radialGradient>
	<path class="st1" d="M757-648.1c-64,65.1-122.6,135-187.5,199.2c-27.7,27.4-53.9,56.3-80.7,84.7c-26.8,28.4-54,53.3-77.6,82.2
		c-18.7,22.9-22,55.2-25.3,83.6c-4.1,35-5.5,70.3-10.8,105.2c-3.4,22.1-7.4,56.1-28.3,69.7c-17.8,11.6-42.4,3.4-60.6-2.7
		c-23.5-7.9-47.3-20.1-72.2-22.2c-24.7-2.1-36,13.4-51.5,29.8L65.6,83.8"/>
	
		<radialGradient id="SVGID_3_" cx="223.3013" cy="791.575" r="1" gradientTransform="matrix(-345.7346 365.9238 48.9985 46.2951 38885.8594 -118585.2813)" gradientUnits="userSpaceOnUse">
		<stop  offset="0" style="stop-color:#C4FF96"/>
		<stop  offset="0.243" style="stop-color:#D1D2D2"/>
		<stop  offset="0.545" style="stop-color:#FFFFFF"/>
	</radialGradient>
	<path class="st2" d="M766.5-639.2c-35.6,36.2-65.7,77.1-100.3,114.3c-27.9,30-57.4,58.1-87.3,86.1c-28.3,26.4-54.2,55.3-80.8,83.4
		c-26.6,28.1-54,53.3-77.6,82.2c-18.6,22.8-21.5,55-24.3,83.3c-3.5,34.8-4.2,69.9-9,104.7c-3,22-6.7,55.9-27.6,69.5
		c-18,11.8-43.3,3.6-61.8-2.3c-24.1-7.7-48.6-19.7-74.2-21.7c-24.9-1.9-36.2,13.3-51.8,29.9L75,92.6"/>
	
		<radialGradient id="SVGID_4_" cx="223.3013" cy="791.6137" r="1" gradientTransform="matrix(-345.7656 365.9565 49.7922 47.045 38272.8164 -119178.2734)" gradientUnits="userSpaceOnUse">
		<stop  offset="0" style="stop-color:#C4FF96"/>
		<stop  offset="0.243" style="stop-color:#D1D2D2"/>
		<stop  offset="0.545" style="stop-color:#FFFFFF"/>
	</radialGradient>
	<path class="st3" d="M775.9-630.3c-36.2,37.3-65.1,80.7-100,119.3c-27.2,30.1-57,56.3-87.4,82.9c-28.9,25.3-54.5,53.9-80.9,81.8
		c-26.4,27.9-54.1,53.2-77.6,82.2c-18.4,22.7-20.8,54.8-23.1,82.9c-2.8,34.6-2.8,69.6-6.9,104c-2.6,22-5.9,55.6-26.8,69.2
		C355,4,328.8-4.1,310-9.9c-24.9-7.5-50.1-19.3-76.4-21.1c-25.2-1.7-36.6,13.2-52.5,30L84.3,101.5"/>
	
		<radialGradient id="SVGID_5_" cx="223.3013" cy="791.6626" r="1" gradientTransform="matrix(-345.7346 365.9238 50.8346 48.0299 37448.7422 -119943.1563)" gradientUnits="userSpaceOnUse">
		<stop  offset="0" style="stop-color:#C4FF96"/>
		<stop  offset="0.243" style="stop-color:#D1D2D2"/>
		<stop  offset="0.545" style="stop-color:#FFFFFF"/>
	</radialGradient>
	<path class="st4" d="M785.3-621.4c-37,38.7-64.6,84.8-99.6,125c-26.4,30.2-56.5,54.2-87.7,79.1c-29.8,23.8-54.9,52.2-81,79.9
		c-26.1,27.6-54.1,53.1-77.5,82.2c-18.2,22.6-19.8,54.6-21.4,82.5c-2,34.5-1.2,69.1-4.5,103.4c-2.1,22.1-4.8,55.2-25.6,68.9
		c-18.6,12.2-45.9,4.1-65.2-1.4c-25.7-7.3-51.9-18.8-78.8-20.4C218.3-23.8,207-9.2,190.7,8L93.9,110.5"/>
	
		<radialGradient id="SVGID_6_" cx="223.3013" cy="791.7117" r="1" gradientTransform="matrix(-345.7346 365.9238 51.9244 49.0596 36593.9141 -120750.8438)" gradientUnits="userSpaceOnUse">
		<stop  offset="0" style="stop-color:#C4FF96"/>
		<stop  offset="0.243" style="stop-color:#D1D2D2"/>
		<stop  offset="0.545" style="stop-color:#FFFFFF"/>
	</radialGradient>
	<path class="st5" d="M794.8-612.5c-37.5,40.4-64,89.1-99.3,131.3c-25.6,30.5-56,51.9-87.8,75c-30.7,22.1-55.2,50.3-81.1,77.6
		c-25.8,27.3-54.3,53.1-77.5,82.2c-17.9,22.5-18.7,54.4-19.7,82.1c-1.2,34.2,0.6,68.6-2,102.7c-1.6,22.1-3.6,54.8-24.4,68.6
		c-18.9,12.6-47.4,4.4-67.2-0.8C309.1-1,282-12.2,254.2-13.6c-26.1-1.3-37.6,13-54.1,30.4l-96.8,102.5"/>
	
		<radialGradient id="SVGID_7_" cx="223.3013" cy="791.7638" r="1" gradientTransform="matrix(-345.7346 365.9238 53.1342 50.2026 35644 -121648.375)" gradientUnits="userSpaceOnUse">
		<stop  offset="0" style="stop-color:#C4FF96"/>
		<stop  offset="0.243" style="stop-color:#D1D2D2"/>
		<stop  offset="0.545" style="stop-color:#FFFFFF"/>
	</radialGradient>
	<path class="st6" d="M804.2-603.6c-38.2,42.2-63.4,93.8-99,138c-24.9,30.9-55.2,49.6-88,70.6c-31.6,20.3-55.6,48.1-81.2,75.2
		c-25.6,27.1-54.5,53-77.4,82.2c-17.6,22.4-17.4,54.3-17.8,81.5c-0.3,34,2.4,68,0.7,102c-1.1,22.1-2.3,54.4-23,68.2
		c-19.2,12.9-49,4.7-69.3-0.3c-27.7-6.8-55.8-17.7-84.5-18.9C238.1-6,226.4,7.9,209.6,25.8l-96.8,102.5"/>
	
		<radialGradient id="SVGID_8_" cx="223.3014" cy="791.814" r="1" gradientTransform="matrix(-345.7038 365.8911 54.3536 51.3547 34679.5469 -122545.9141)" gradientUnits="userSpaceOnUse">
		<stop  offset="0" style="stop-color:#C4FF96"/>
		<stop  offset="0.243" style="stop-color:#D1D2D2"/>
		<stop  offset="0.545" style="stop-color:#FFFFFF"/>
	</radialGradient>
	<path class="st7" d="M813.7-594.7c-38.9,44.2-62.8,98.6-98.5,145c-24.4,31.5-54.4,47.3-88.3,66.2c-32.6,18.2-56,45.9-81.3,72.7
		s-54.7,52.9-77.4,82.2c-17.3,22.2-16.2,54.2-15.8,80.9c0.6,33.8,4.2,67.4,3.5,101.3c-0.5,22-0.9,53.9-21.6,67.8
		c-19.5,13.2-50.9,5.1-71.6,0.3c-28.6-6.6-57.8-17.2-87.4-18.1c-27-0.7-38.9,12.8-56.1,31L122.2,137"/>
	
		<radialGradient id="SVGID_9_" cx="223.3014" cy="791.8629" r="1" gradientTransform="matrix(-345.7038 365.8911 55.5976 52.5301 33702.4063 -123469.1719)" gradientUnits="userSpaceOnUse">
		<stop  offset="0" style="stop-color:#C4FF96"/>
		<stop  offset="0.243" style="stop-color:#D1D2D2"/>
		<stop  offset="0.545" style="stop-color:#FFFFFF"/>
	</radialGradient>
	<path class="st8" d="M823.1-585.8c-39.5,46.2-62.2,103.4-98.2,151.9c-24,32.3-53.5,45-88.5,61.8c-33.6,16-56.3,43.6-81.5,70.2
		c-25.1,26.6-54.9,52.8-77.4,82.2c-17,22.1-15,54-13.8,80.4c1.5,33.6,6.1,66.9,6.3,100.5c0.1,22.1,0.4,53.4-20.1,67.5
		c-19.9,13.5-52.6,5.4-73.8,0.9c-29.6-6.3-59.8-16.7-90.4-17.3c-27.4-0.5-39.6,12.7-57.2,31.3L131.7,146"/>
	
		<radialGradient id="SVGID_10_" cx="223.3014" cy="791.9092" r="1" gradientTransform="matrix(-345.7038 365.8911 56.8317 53.6961 32733.1621 -124384.9688)" gradientUnits="userSpaceOnUse">
		<stop  offset="0" style="stop-color:#C4FF96"/>
		<stop  offset="0.243" style="stop-color:#D1D2D2"/>
		<stop  offset="0.545" style="stop-color:#FFFFFF"/>
	</radialGradient>
	<path class="st9" d="M832.6-576.9c-40,48.1-61.6,108-97.9,158.6c-23.7,33.2-52.6,43-88.7,57.4c-34.6,13.8-56.6,41.4-81.6,67.9
		c-25,26.4-55,52.8-77.4,82.2c-16.7,22-13.7,53.9-11.8,79.9c2.4,33.3,7.9,66.4,8.9,99.8c0.7,21.6,1.9,53.5-18.8,67.1
		s-53.7,5.9-75.9,1.5c-30.6-6-61.8-16.2-93.2-16.5c-27.9-0.3-40.3,12.7-58.1,31.5l-96.8,102.5"/>
	
		<radialGradient id="SVGID_11_" cx="223.3013" cy="791.9512" r="1" gradientTransform="matrix(-345.7346 365.9238 57.9938 54.794 31827.8984 -125254.0469)" gradientUnits="userSpaceOnUse">
		<stop  offset="0" style="stop-color:#C4FF96"/>
		<stop  offset="0.243" style="stop-color:#D1D2D2"/>
		<stop  offset="0.545" style="stop-color:#FFFFFF"/>
	</radialGradient>
	<path class="st10" d="M842-568c-40.7,49.9-61.1,112.2-97.5,164.9c-23.7,34.2-51.8,41.4-89,53.4c-35.5,11.5-57,39.4-81.7,65.6
		s-55.2,52.7-77.4,82.2c-16.4,21.9-12.6,53.8-10,79.4c3.2,33.1,9.6,65.9,11.6,99.1c1.2,21.4,3.2,53.2-17.6,66.8
		c-21.2,13.8-55.2,6.3-77.9,2.1c-31.6-5.8-63.6-15.7-95.9-15.8c-28.3-0.1-40.9,12.6-59.1,31.8l-96.8,102.5"/>
	
		<radialGradient id="SVGID_12_" cx="223.3014" cy="791.986" r="1" gradientTransform="matrix(-345.7037 365.8911 58.9954 55.7405 31036.0957 -125988.4453)" gradientUnits="userSpaceOnUse">
		<stop  offset="0" style="stop-color:#C4FF96"/>
		<stop  offset="0.243" style="stop-color:#D1D2D2"/>
		<stop  offset="0.545" style="stop-color:#FFFFFF"/>
	</radialGradient>
	<path class="st11" d="M851.5-559.1c-41.4,51.5-60.5,116.2-97.2,170.5c-23.7,35.1-51,39.9-89.2,49.7c-36.1,9.3-57.3,37.7-81.8,63.6
		c-24.5,26-55.4,52.6-77.3,82.2c-16.2,21.9-11.6,53.6-8.5,79c4.1,32.8,11.3,65.3,13.9,98.4c1.7,21.4,4.4,52.8-16.5,66.5
		c-21.6,14.1-56.5,6.5-79.8,2.6c-32.4-5.6-65.3-15.2-98.5-15.1c-28.6,0.1-41.4,12.5-59.8,32L160,172.7"/>
	
		<radialGradient id="SVGID_13_" cx="223.3013" cy="792.0156" r="1" gradientTransform="matrix(-345.7346 365.9238 59.8768 56.5732 30353.4102 -126647.2344)" gradientUnits="userSpaceOnUse">
		<stop  offset="0" style="stop-color:#C4FF96"/>
		<stop  offset="0.243" style="stop-color:#D1D2D2"/>
		<stop  offset="0.545" style="stop-color:#FFFFFF"/>
	</radialGradient>
	<path class="st12" d="M860.9-550.2c-42,52.8-60,119.5-97,175.4c-23.7,35.9-50.4,38.7-89.4,46.4c-36.7,7.3-57.5,36.2-81.9,62
		c-24.4,25.8-55.5,52.6-77.3,82.2c-16.1,21.9-10.9,53.5-7.2,78.7c4.7,32.7,12.7,64.9,16,97.9c2.1,21.3,5.3,52.5-15.6,66.3
		c-21.9,14.3-57.6,6.8-81.3,3c-33.2-5.4-66.8-14.8-100.7-14.5c-28.9,0.2-41.8,12.5-60.4,32.1l-96.8,102.5"/>
	
		<radialGradient id="SVGID_14_" cx="223.3014" cy="792.0369" r="1" gradientTransform="matrix(-345.6426 365.8264 60.5263 57.1868 29827.4707 -127103.2656)" gradientUnits="userSpaceOnUse">
		<stop  offset="0" style="stop-color:#C4FF96"/>
		<stop  offset="0.243" style="stop-color:#D1D2D2"/>
		<stop  offset="0.545" style="stop-color:#FFFFFF"/>
	</radialGradient>
	<path class="st13" d="M870.3-541.3c-42.7,53.7-59.5,122.3-96.8,179.2c-24,36.7-50,37.9-89.5,43.7c-37,5.5-57.7,35.3-81.9,60.9
		s-55.5,52.6-77.2,82.2c-16.1,21.9-10.3,53.4-6.2,78.4c5.3,32.6,13.9,64.6,17.7,97.4c2.5,21.3,6,52.3-14.9,66
		c-22,14.4-58.5,7-82.4,3.3c-33.7-5.2-68.1-14.3-102.5-14c-29,0.3-42,12.4-60.8,32.3l-96.8,102.5"/>
	
		<radialGradient id="SVGID_15_" cx="223.3014" cy="792.0493" r="1" gradientTransform="matrix(-345.7037 365.8911 60.9112 57.5505 29545.1602 -127397.2031)" gradientUnits="userSpaceOnUse">
		<stop  offset="0" style="stop-color:#C4FF96"/>
		<stop  offset="0.243" style="stop-color:#D1D2D2"/>
		<stop  offset="0.545" style="stop-color:#FFFFFF"/>
	</radialGradient>
	<path class="st14" d="M879.8-532.4c-43.5,54-59.1,124.2-96.7,181.8c-11.5,17.6-24.1,31.8-45,37.4c-14.6,4-29.7,2.8-44.7,4.4
		c-37.1,4.1-58,34.8-82,60.2c-25.3,26.7-55.4,52.7-77.4,82.2c-16.3,21.9-10.2,53.3-5.7,78.2c5.7,32.4,14.9,64.3,19,97
		c2.8,21.3,6.4,52.1-14.6,66c-22.1,14.6-59.1,7-83.1,3.4c-34.2-5.1-69-14.1-103.9-13.6c-29.1,0.4-42,12.4-60.8,32.3l-96.8,102.5"/>
	
		<radialGradient id="SVGID_16_" cx="223.3013" cy="792.0538" r="1" gradientTransform="matrix(-345.7656 365.9565 61.054 57.6855 29455.1895 -127509.7266)" gradientUnits="userSpaceOnUse">
		<stop  offset="0" style="stop-color:#C4FF96"/>
		<stop  offset="0.243" style="stop-color:#D1D2D2"/>
		<stop  offset="0.545" style="stop-color:#FFFFFF"/>
	</radialGradient>
	<path class="st15" d="M889.2-523.5c-44.3,53.8-58.7,125.2-96.6,183c-11.4,17.4-24.2,32-45,37.3c-14.7,3.8-29.8,2.1-44.7,3.4
		c-37.1,3.3-58.2,35-82,60.2c-25.3,26.8-55.2,52.7-77.4,82.2c-16.5,22-10.4,53.1-5.7,78.2c6,32.3,15.5,64.1,19.9,96.8
		c2.9,21.3,6.5,52.1-14.6,66c-22.1,14.6-59.3,7-83.4,3.6c-34.5-5-69.6-13.9-104.7-13.3c-29.1,0.4-41.8,12.3-60.6,32.2l-96.8,102.5"
		/>
	
		<radialGradient id="SVGID_17_" cx="223.3013" cy="792.0454" r="1" gradientTransform="matrix(-345.7346 365.9238 60.7906 57.4366 29666.4688 -127296.375)" gradientUnits="userSpaceOnUse">
		<stop  offset="0" style="stop-color:#C4FF96"/>
		<stop  offset="0.243" style="stop-color:#D1D2D2"/>
		<stop  offset="0.545" style="stop-color:#FFFFFF"/>
	</radialGradient>
	<path class="st16" d="M898.7-514.6c-43.4,54-59.1,124.1-96.7,181.8c-11.5,17.6-23.8,32-44.7,37.5c-15,3.9-30.6,2.5-45.9,4.1
		c-37,3.7-58.6,34.5-82.1,60.2c-24.7,27-54.1,53.4-76,82.6c-16.3,21.7-10.2,53.4-5.8,78.2c5.6,32.2,14.6,63.9,18.7,96.4
		c2.6,21.2,6.3,52.3-14.6,66c-22.1,14.4-59.1,7-83.1,3.6c-34.2-4.9-68.8-13.7-103.5-13.1c-29.1,0.5-42.1,12.2-60.9,32.1l-96.8,102.5
		"/>
	
		<radialGradient id="SVGID_18_" cx="223.3014" cy="792.048" r="1" gradientTransform="matrix(-345.7038 365.8911 60.8722 57.5137 29602.2656 -127343.3203)" gradientUnits="userSpaceOnUse">
		<stop  offset="0" style="stop-color:#C4FF96"/>
		<stop  offset="0.243" style="stop-color:#D1D2D2"/>
		<stop  offset="0.545" style="stop-color:#FFFFFF"/>
	</radialGradient>
	<path class="st17" d="M908.1-505.7c-42.7,53.6-59.5,122.2-96.8,179.1c-11.7,17.9-23.8,31.9-45,37.7c-15.6,4.2-31.9,3.3-47.8,5.1
		c-37.3,4.4-59.1,33.9-82.3,60.8c-23.8,27.6-51.8,54.4-73.5,83.4c-16.2,21.5-10.4,53.3-6.6,78c5,32.1,13.3,63.7,17,96.1
		c2.3,21.1,5.7,52.3-15.1,65.9c-22,14.2-58.2,7.3-82.1,3.8c-33.5-4.8-67.6-13.3-101.7-12.6c-28.9,0.5-42.1,12.4-60.8,32.1
		l-96.8,102.5"/>
	
		<radialGradient id="SVGID_19_" cx="223.3013" cy="792.0491" r="1" gradientTransform="matrix(-345.7656 365.9565 60.9036 57.5433 29597.6113 -127375.2188)" gradientUnits="userSpaceOnUse">
		<stop  offset="0" style="stop-color:#C4FF96"/>
		<stop  offset="0.243" style="stop-color:#D1D2D2"/>
		<stop  offset="0.545" style="stop-color:#FFFFFF"/>
	</radialGradient>
	<path class="st18" d="M917.6-496.8c-41.9,52.7-60,119.4-97,175.2c-25.6,38.7-53.8,38.6-95.9,44.5c-37.9,5.3-59.8,33.5-82.6,61.9
		c-11.3,14.2-22,28.8-33.3,43c-11.4,14.3-25.6,27-36.6,41.6c-16,21.4-11.2,52.9-7.8,77.7c4.3,31.9,11.8,63.4,14.6,95.4
		c1.9,21.1,4.7,52.3-16,65.6c-21.6,14-57,7.5-80.5,4.3c-32.8-4.6-66-12.9-99.3-12c-28.6,0.7-41.8,12.7-60.3,32.3l-96.8,102.5"/>
	
		<radialGradient id="SVGID_20_" cx="223.3014" cy="792.052" r="1" gradientTransform="matrix(-345.6735 365.8592 60.9963 57.6309 29509.2148 -127417.8203)" gradientUnits="userSpaceOnUse">
		<stop  offset="0" style="stop-color:#C4FF96"/>
		<stop  offset="0.243" style="stop-color:#D1D2D2"/>
		<stop  offset="0.545" style="stop-color:#FFFFFF"/>
	</radialGradient>
	<path class="st19" d="M927-487.9c-41.3,51.4-60.6,116-97.2,170.3c-12.5,18.5-24.9,31.8-46.6,38.2c-17.3,5.2-35.6,5.3-53.3,8.2
		c-38.7,6.4-60.9,33-82.8,63.4c-10.4,14.4-20.1,29.4-30.4,43.9c-10.8,14.9-24.1,27.5-35,42c-16,21.3-12.2,52.3-9.5,77.3
		c3.4,31.6,9.8,63,11.9,94.8c1.3,21.2,3.3,51.9-17.1,65.3c-21.2,13.8-55.3,7.9-78.5,4.7c-31.8-4.3-64.1-12.3-96.4-11.3
		c-28.2,0.9-41.2,13.2-59.5,32.5l-96.8,102.5"/>
	
		<radialGradient id="SVGID_21_" cx="223.3013" cy="792.0534" r="1" gradientTransform="matrix(-345.7346 365.9238 61.0402 57.6724 29492.8281 -127460.5)" gradientUnits="userSpaceOnUse">
		<stop  offset="0" style="stop-color:#C4FF96"/>
		<stop  offset="0.243" style="stop-color:#D1D2D2"/>
		<stop  offset="0.545" style="stop-color:#FFFFFF"/>
	</radialGradient>
	<path class="st20" d="M936.5-479c-40.7,49.8-61,112.1-97.5,164.6c-27.4,39.6-60.7,40.5-104.5,48.7c-39.5,7.4-62.2,32.5-83.2,65.2
		c-9.4,14.8-17.8,30.1-27.2,45c-9.9,15.5-22.1,28-33.1,42.6c-16,21.3-13.5,51.5-11.6,76.8c2.4,31.4,7.8,62.5,8.8,94
		c0.7,21.2,1.6,51.5-18.6,64.9c-20.6,13.8-53.4,8.3-76.2,5.3c-30.7-4-61.9-11.7-93.1-10.5c-27.8,1.1-40.6,13.8-58.5,32.8
		l-96.8,102.5"/>
	
		<radialGradient id="SVGID_22_" cx="223.3014" cy="792.0591" r="1" gradientTransform="matrix(-345.7037 365.8911 61.2208 57.843 29347.0898 -127584.4609)" gradientUnits="userSpaceOnUse">
		<stop  offset="0" style="stop-color:#C4FF96"/>
		<stop  offset="0.243" style="stop-color:#D1D2D2"/>
		<stop  offset="0.545" style="stop-color:#FFFFFF"/>
	</radialGradient>
	<path class="st21" d="M945.9-470.1c-40.1,48-61.6,107.7-97.9,158.2c-28.6,39.9-64.8,41.6-109.6,51.1c-40.3,8.5-63.9,32-83.4,67.3
		c-17.5,31.6-32.8,60.4-54.5,89.3c-16,21.4-14.9,50.6-13.9,76.2c1.3,31.1,5.5,62,5.4,93.2c-0.1,21.3-0.4,51.1-20.2,64.6
		c-20.1,13.6-51.3,8.8-73.5,6c-29.5-3.7-59.6-11.1-89.5-9.6c-27.1,1.4-39.8,14.4-57.4,33l-96.8,102.5"/>
	
		<radialGradient id="SVGID_23_" cx="223.3013" cy="792.064" r="1" gradientTransform="matrix(-345.7346 365.9238 61.3756 57.9893 29235.0801 -127704.0469)" gradientUnits="userSpaceOnUse">
		<stop  offset="0" style="stop-color:#C4FF96"/>
		<stop  offset="0.243" style="stop-color:#D1D2D2"/>
		<stop  offset="0.545" style="stop-color:#FFFFFF"/>
	</radialGradient>
	<path class="st22" d="M955.4-461.2c-39.5,46.1-62.2,103.1-98.2,151.5c-30,40.4-69.1,42.9-115.1,53.6c-41.2,9.6-66.2,31.5-83.8,69.6
		c-15.2,32.8-26.7,62.1-48.5,91.3c-16.2,21.5-16.4,49.6-16.4,75.6c0.1,30.7,3.1,61.5,1.9,92.3c-0.9,21.8-2.5,50.1-22,64.1
		c-19,13.6-49.3,9.3-70.7,6.7c-28.3-3.4-57.1-10.4-85.8-8.6c-26.4,1.7-39,15.2-56.1,33.3l-96.8,102.5"/>
	
		<radialGradient id="SVGID_24_" cx="223.3013" cy="792.0709" r="1" gradientTransform="matrix(-345.7346 365.9238 61.591 58.1929 29067.9648 -127861.9609)" gradientUnits="userSpaceOnUse">
		<stop  offset="0" style="stop-color:#C4FF96"/>
		<stop  offset="0.243" style="stop-color:#D1D2D2"/>
		<stop  offset="0.545" style="stop-color:#FFFFFF"/>
	</radialGradient>
	<path class="st23" d="M964.8-452.3C926-408.2,902-354,866.2-307.7c-31.5,40.8-73.6,44.4-120.6,56.3c-42,10.6-68.7,31-84.2,71.9
		c-12.8,33.7-20.3,63.9-42.3,93.2c-32.9,44-16.6,114.9-20.6,166.4c-1.7,21.8-4.6,49.7-23.8,63.6c-18.4,13.4-46.9,9.8-67.8,7.4
		c-27-3.1-54.6-9.8-82-7.7c-25.7,1.9-38.1,16-54.7,33.7l-96.8,102.5"/>
	
		<radialGradient id="SVGID_25_" cx="223.3013" cy="792.0788" r="1" gradientTransform="matrix(-345.7346 365.9238 61.846 58.4338 28869.3613 -128049.6172)" gradientUnits="userSpaceOnUse">
		<stop  offset="0" style="stop-color:#C4FF96"/>
		<stop  offset="0.243" style="stop-color:#D1D2D2"/>
		<stop  offset="0.545" style="stop-color:#FFFFFF"/>
	</radialGradient>
	<path class="st24" d="M974.2-443.4c-38.2,42.1-63.4,93.6-98.9,137.7c-33.1,41.1-77.9,45.9-126.3,58.8
		c-42.7,11.4-71.6,30.7-84.6,74.3c-10.3,34.5-14,65.5-36,95.2c-33.2,44.6-20.7,112.6-26.8,164.8c-2.5,21.7-6.6,49.2-25.7,63.2
		c-17.9,13.1-44.3,10.4-65,8.1c-25.7-2.8-52.1-9.1-78.1-6.8c-25,2.2-37.2,16.8-53.4,33.9l-96.8,102.5"/>
	
		<radialGradient id="SVGID_26_" cx="223.3013" cy="792.0866" r="1" gradientTransform="matrix(-345.7346 365.9238 62.0991 58.6729 28672.5137 -128235.6094)" gradientUnits="userSpaceOnUse">
		<stop  offset="0" style="stop-color:#C4FF96"/>
		<stop  offset="0.243" style="stop-color:#D1D2D2"/>
		<stop  offset="0.545" style="stop-color:#FFFFFF"/>
	</radialGradient>
	<path class="st25" d="M983.7-434.5c-37.5,40.3-64.1,88.9-99.3,130.9c-34.8,41.4-82.1,47.4-131.7,61.5c-43.2,12.3-74.7,30.6-85,76.5
		c-7.8,35.2-7.7,67.1-29.9,97.1C604.5-23.4,613.2,41.9,605,94.8c-3.4,21.7-8.5,48.7-27.5,62.7c-17.3,12.8-41.9,10.9-62.1,8.8
		c-24.5-2.5-49.7-8.4-74.3-5.8c-24.3,2.6-36.4,17.6-52.1,34.3l-96.8,102.5"/>
	
		<radialGradient id="SVGID_27_" cx="223.3014" cy="792.0955" r="1" gradientTransform="matrix(-345.7037 365.8911 62.3883 58.9461 28440.3828 -128441.2031)" gradientUnits="userSpaceOnUse">
		<stop  offset="0" style="stop-color:#C4FF96"/>
		<stop  offset="0.243" style="stop-color:#D1D2D2"/>
		<stop  offset="0.545" style="stop-color:#FFFFFF"/>
	</radialGradient>
	<path class="st26" d="M993.1-425.6c-36.9,38.7-64.6,84.5-99.6,124.6c-36.5,41.8-85.8,48.7-136.8,63.8
		c-43.7,12.9-77.9,30.5-85.2,78.6c-5.5,35.5-1.9,68.4-24.2,98.9c-33.5,45.6-28,108.5-38.4,161.9c-4.2,21.6-10.3,48.2-29.1,62.3
		c-16.8,12.6-39.7,11.4-59.5,9.5c-23.3-2.2-47.3-7.8-70.8-5c-23.5,2.9-35.6,18.4-50.9,34.6l-96.8,102.5"/>
	
		<radialGradient id="SVGID_28_" cx="223.3013" cy="792.1019" r="1" gradientTransform="matrix(-345.7346 365.9238 62.5989 59.1451 28284.7949 -128601.9609)" gradientUnits="userSpaceOnUse">
		<stop  offset="0" style="stop-color:#C4FF96"/>
		<stop  offset="0.243" style="stop-color:#D1D2D2"/>
		<stop  offset="0.545" style="stop-color:#FFFFFF"/>
	</radialGradient>
	<path class="st27" d="M1002.6-416.7c-36.2,37.2-65.2,80.5-99.9,118.9c-38.1,42.1-89.2,50-141.5,66c-44,13.5-80.9,30.5-85.6,80.4
		c-3.3,35.8,3.5,69.7-19.1,100.5C622.9-5,625.4,56.1,613,109.8c-4.9,21.5-11.9,47.7-30.6,61.9c-16.2,12.4-37.8,11.7-57.2,10.1
		c-22.2-1.9-45.2-7.2-67.5-4.1c-22.9,3.1-35,19-49.9,34.9L311,315"/>
	
		<radialGradient id="SVGID_29_" cx="223.3013" cy="792.1087" r="1" gradientTransform="matrix(-345.7964 365.9893 62.8254 59.3591 28124.3066 -128781.0938)" gradientUnits="userSpaceOnUse">
		<stop  offset="0" style="stop-color:#C4FF96"/>
		<stop  offset="0.243" style="stop-color:#D1D2D2"/>
		<stop  offset="0.545" style="stop-color:#FFFFFF"/>
	</radialGradient>
	<path class="st28" d="M1012-407.8c-35.6,36.2-65.7,77-100.2,114.1c-39.4,42.4-92,51.1-145.4,68c-44.2,13.9-83.7,30.6-85.9,81.9
		c-1.5,36,8.2,70.7-14.7,101.9C632.3,4.2,632,64,618,117.7c-5.6,21.5-13.1,47.4-31.8,61.7c-15.8,12.2-36.1,12.1-55.2,10.6
		c-21.2-1.7-43.3-6.8-64.7-3.4c-22.5,3.6-34.4,19.5-49.2,35.1l-96.8,102.5"/>
	
		<radialGradient id="SVGID_30_" cx="223.3014" cy="792.1146" r="1" gradientTransform="matrix(-345.7037 365.8911 63.0192 59.5422 27956.2852 -128898.6328)" gradientUnits="userSpaceOnUse">
		<stop  offset="0" style="stop-color:#C4FF96"/>
		<stop  offset="0.243" style="stop-color:#D1D2D2"/>
		<stop  offset="0.545" style="stop-color:#FFFFFF"/>
	</radialGradient>
	<path class="st29" d="M1021.5-398.9c-34.9,35.5-66.2,74.1-100.4,110.3c-40.4,42.8-94.2,52.1-148.4,69.7c-44.1,14.3-86,30.7-86.1,83
		c-0.1,36.2,12,71.3-11,103C642,13.1,639.4,72.2,624,125.7c-6.2,21.4-14.2,47.2-32.6,61.4c-15.4,11.9-35,12.3-53.7,10.9
		c-20.3-1.5-41.9-6.6-62.2-2.8c-22.2,4.1-34,19.6-48.7,35.1l-96.8,102.5"/>
	
		<radialGradient id="SVGID_31_" cx="223.3013" cy="792.1172" r="1" gradientTransform="matrix(-345.7656 365.9565 63.1101 59.6282 27905.1523 -128974.4531)" gradientUnits="userSpaceOnUse">
		<stop  offset="0" style="stop-color:#C4FF96"/>
		<stop  offset="0.243" style="stop-color:#D1D2D2"/>
		<stop  offset="0.545" style="stop-color:#FFFFFF"/>
	</radialGradient>
	<path class="st30" d="M1030.9-390c-34.2,35.3-66.6,72.1-100.6,107.6c-41.1,43.1-95.6,52.9-150.5,70.9
		c-43.9,14.4-87.8,30.8-86.3,83.6c1.1,36.5,14.9,71.6-8.6,103.8c-33.5,45.9-37.8,104.9-54,158c-6.5,21.2-14.7,47.1-33.1,61.3
		c-15.2,11.8-34.3,12.3-52.7,11.2c-19.7-1.3-40.7-6.1-60.4-2.4c-22,4.2-34,19.6-48.6,35.2l-96.8,102.5"/>
	
		<radialGradient id="SVGID_32_" cx="223.3013" cy="792.1199" r="1" gradientTransform="matrix(-345.7346 365.9238 63.1993 59.7123 27836.248 -129025.8281)" gradientUnits="userSpaceOnUse">
		<stop  offset="0" style="stop-color:#C4FF96"/>
		<stop  offset="0.243" style="stop-color:#D1D2D2"/>
		<stop  offset="0.545" style="stop-color:#FFFFFF"/>
	</radialGradient>
	<path class="st31" d="M1040.4-381.1c-33.6,35.5-67.1,71-100.6,106.5c-41.2,43.6-96.2,53.5-151.4,71.8
		c-43.4,14.4-88.8,30.8-86.5,83.6c1.7,37,16.7,71.5-7.3,104.2c-33.4,45.5-38.6,105-55.2,157.8c-6.6,21.1-14.7,47.2-33.1,61.3
		c-15.1,11.7-34.1,12.1-52.4,11.3c-19.5-1-39.8-5.8-59.3-2c-22.1,4.2-34.2,19.5-48.9,35.1l-96.8,102.5"/>
	
		<radialGradient id="SVGID_33_" cx="223.3017" cy="792.0992" r="1" gradientTransform="matrix(-345.3659 365.5335 62.5121 59.0631 28309.1875 -128413.6563)" gradientUnits="userSpaceOnUse">
		<stop  offset="0" style="stop-color:#C4FF96"/>
		<stop  offset="0.243" style="stop-color:#D1D2D2"/>
		<stop  offset="0.545" style="stop-color:#FFFFFF"/>
	</radialGradient>
	<path class="st32" d="M1049.5-371.2c-32.5,36.5-68.8,69.4-102,105.1c-39.9,43-94.9,53.7-148.7,72.5c-43.4,15.1-87.7,31-86.2,83.7
		c1,36.3,14.4,70.1-8.7,102.4C670.8,38.7,666,96.9,649.7,150.1c-6.5,21.1-14.6,47.1-33.1,61.1c-15.1,11.4-34.5,12.3-52.6,11.7
		c-19.7-0.6-40.5-4.6-60.1-0.6c-22,4.4-33.9,19.1-48.7,34.8l-96.8,102.5"/>
	
		<radialGradient id="SVGID_34_" cx="223.3025" cy="792.0558" r="1" gradientTransform="matrix(-344.4442 364.558 61.1142 57.7423 29222.875 -127136.8281)" gradientUnits="userSpaceOnUse">
		<stop  offset="0" style="stop-color:#C4FF96"/>
		<stop  offset="0.243" style="stop-color:#D1D2D2"/>
		<stop  offset="0.545" style="stop-color:#FFFFFF"/>
	</radialGradient>
	<path class="st33" d="M1057.8-359.6c-32.1,37.1-71.4,66.5-105.1,102.1c-39.2,41.4-91.4,54-143.5,73.4c-42.4,15.9-84.7,31.9-85,83.2
		c-0.2,35.4,10.7,67.5-11.4,98.7c-32.9,46.5-36.4,104.3-52.1,157.8c-6.2,21.2-14.1,47-32.7,61.1c-15.1,11.4-35.1,12.8-53.3,12.9
		c-20.2,0-41.5-2.8-61.5,1.7c-22,4.9-33.8,19.1-48.7,34.9l-96.8,102.5"/>
	
		<radialGradient id="SVGID_35_" cx="223.3037" cy="791.9873" r="1" gradientTransform="matrix(-343.0302 363.0614 59.0345 55.7774 30567.832 -125231.4609)" gradientUnits="userSpaceOnUse">
		<stop  offset="0" style="stop-color:#C4FF96"/>
		<stop  offset="0.243" style="stop-color:#D1D2D2"/>
		<stop  offset="0.545" style="stop-color:#FFFFFF"/>
	</radialGradient>
	<path class="st34" d="M1065.6-346.6c-32.7,37.7-75.8,63.1-110.4,98.6c-36.9,37.8-83.7,52.5-131.8,72.3
		c-40.8,16.7-82.7,33.4-86,82.5c-2.3,33.6,6.9,65.3-15,94.6c-32.7,43.7-34.8,101.1-48.1,152.5c-5.8,22.3-12.8,48.8-31.1,64.4
		c-14.8,12.6-35.2,15.3-54,16.4c-21.3,1.3-43-0.2-64.1,4.3c-22.3,4.9-34.8,18.7-50.1,34.9l-97.8,103.5"/>
	
		<radialGradient id="SVGID_36_" cx="223.3054" cy="791.8938" r="1" gradientTransform="matrix(-341.1251 361.0451 56.4147 53.3021 32232.0078 -122804.4063)" gradientUnits="userSpaceOnUse">
		<stop  offset="0" style="stop-color:#C4FF96"/>
		<stop  offset="0.243" style="stop-color:#D1D2D2"/>
		<stop  offset="0.545" style="stop-color:#FFFFFF"/>
	</radialGradient>
	<path class="st35" d="M1072.9-332.2c-33.5,37.8-80,58.3-116,93c-36,34.9-77.7,52.4-122.8,73.5c-37.9,17.8-76.7,35.7-82.9,81.1
		c-4.5,32.5-0.1,59.2-19.9,88c-31.3,45.2-32.4,100.2-44.5,152.4c-5.2,22.5-11.8,48.6-30,64.3c-15.1,13-36.1,16.5-55.3,18.7
		c-22,2.5-44.6,2.4-66.2,8c-22.5,5.8-35.2,19.5-50.7,35.9l-97.8,103.5"/>
	
		<radialGradient id="SVGID_37_" cx="223.3064" cy="791.7708" r="1.0003" gradientTransform="matrix(-338.9734 358.7678 53.2995 50.3588 34234.3828 -119946.7891)" gradientUnits="userSpaceOnUse">
		<stop  offset="0" style="stop-color:#C4FF96"/>
		<stop  offset="0.243" style="stop-color:#D1D2D2"/>
		<stop  offset="0.545" style="stop-color:#FFFFFF"/>
	</radialGradient>
	<path class="st36" d="M1079.8-316.8c-34,36.7-81.7,51.8-119.5,83.6c-18.3,15.5-33.7,31.2-54.5,44c-20.7,12.6-42.3,23.4-63.5,35.2
		c-34.8,19.4-68.3,39.1-77.2,80.5c-6.2,29.2-7,52.5-25.3,77.6c-32.1,44-29.6,102.7-40.7,154.1c-4.5,21-10,45.1-26.1,60.7
		c-14.9,14.5-36.6,19.5-56.4,23c-23.1,4.1-46.8,5.5-69.5,12c-22.7,6.5-36.7,20.1-52.5,36.8l-98.8,104.5"/>
	
		<radialGradient id="SVGID_38_" cx="223.3096" cy="791.6168" r="1" gradientTransform="matrix(-336.5155 356.1663 49.8577 47.1069 36427.7031 -116771.5859)" gradientUnits="userSpaceOnUse">
		<stop  offset="0" style="stop-color:#C4FF96"/>
		<stop  offset="0.243" style="stop-color:#D1D2D2"/>
		<stop  offset="0.545" style="stop-color:#FFFFFF"/>
	</radialGradient>
	<path class="st37" d="M1086.4-300.7c-36.2,37-87.7,46.3-127.7,77.3c-18,14-33.5,30.9-52.2,44.4c-17.9,12.9-36.7,24.6-55,37.1
		c-29.8,20.3-58.4,40.9-71,75.8c-9.3,25.8-14,47.8-31.5,70.2c-33.2,42.3-27.2,105.4-36.5,155.8c-3.9,21.4-9.4,44.4-25.7,59.9
		c-16,15.1-38.9,20.7-59.8,25.6c-22.3,5.1-45.2,8.2-67,15.2c-23.7,7.6-37.9,20.4-54.6,38.2l-99.8,105.6"/>
	
		<radialGradient id="SVGID_39_" cx="223.312" cy="791.4334" r="1" gradientTransform="matrix(-333.8721 353.3685 46.2948 43.7406 38675.707 -113461.4922)" gradientUnits="userSpaceOnUse">
		<stop  offset="0" style="stop-color:#C4FF96"/>
		<stop  offset="0.243" style="stop-color:#D1D2D2"/>
		<stop  offset="0.545" style="stop-color:#FFFFFF"/>
	</radialGradient>
	<path class="st38" d="M1092.8-284.1c-38.4,36.7-92.8,40.1-135.3,69.6c-17.9,12.4-32.6,29.9-48.9,44.3
		c-14.9,13.1-30.2,25.7-45.3,38.7c-25.4,21.8-51.2,43.6-67.5,73.4c-12,21.9-22.9,41.1-38.1,61.3c-32.1,42.9-23.9,105.3-31.6,155.8
		c-3.3,21.5-8,44.3-24.2,60c-16.4,15.9-40.4,22.8-61.8,28.9c-23.2,6.6-47,11.3-69.6,19.6c-23.8,8.8-38.7,21.9-55.9,40.1L415,413.1"
		/>
	
		<radialGradient id="SVGID_40_" cx="223.3146" cy="791.3265" r="1" gradientTransform="matrix(-331.1064 350.4414 44.4427 41.9907 39536.3438 -111407.6094)" gradientUnits="userSpaceOnUse">
		<stop  offset="0" style="stop-color:#C4FF96"/>
		<stop  offset="0.243" style="stop-color:#D1D2D2"/>
		<stop  offset="0.545" style="stop-color:#FFFFFF"/>
	</radialGradient>
	<path class="st39" d="M1099.1-267.4c-41.3,36.9-99.2,33.7-144.5,62.5c-30.8,19.6-54.3,55.1-78.1,82.3
		c-36.6,41.6-75.3,81.5-110,124.7c-31.4,39-21.2,103.5-26,150.1c-2.4,23.4-6.1,50-24.3,66.8c-17.9,16.5-43.3,24.7-65.8,32.1
		c-48,15.8-89.6,26.6-125.2,64.2L424.5,421.8"/>
	
		<radialGradient id="SVGID_41_" cx="223.3172" cy="791.4335" r="1" gradientTransform="matrix(-328.4019 347.579 46.2965 43.7421 37464.4648 -112151.5)" gradientUnits="userSpaceOnUse">
		<stop  offset="0" style="stop-color:#C4FF96"/>
		<stop  offset="0.243" style="stop-color:#D1D2D2"/>
		<stop  offset="0.545" style="stop-color:#FFFFFF"/>
	</radialGradient>
	<path class="st40" d="M1105.4-250.5c-44.3,36.8-105.7,27-153.8,55.3c-29.4,17.3-45.5,53.4-62.6,81.4c-17.1,28-37.3,52.3-63.3,72.5
		c-17,13.1-36.8,25.3-50.5,42.1c-31.4,38.9-17.6,105.8-21.2,152c-1.7,21.6-4.1,46.3-19.8,62.8c-17.3,18.2-44,28-67,36.8
		c-27.7,10.5-56.4,19.2-83,32.5c-21.4,10.7-36.1,25.3-52.4,42.5L434,430.9"/>
	
		<radialGradient id="SVGID_42_" cx="223.3198" cy="791.5349" r="1" gradientTransform="matrix(-325.7284 344.7493 48.1994 45.5401 35360.1523 -112940.1563)" gradientUnits="userSpaceOnUse">
		<stop  offset="0" style="stop-color:#C4FF96"/>
		<stop  offset="0.243" style="stop-color:#D1D2D2"/>
		<stop  offset="0.545" style="stop-color:#FFFFFF"/>
	</radialGradient>
	<path class="st41" d="M1111.8-233.9c-47.5,36.9-112.1,20.1-162.9,48.2c-30.7,17-38.2,54-49.6,84.1c-11.2,29.6-28.8,53.9-57.9,67.7
		c-20.5,9.8-41.7,16.1-57.2,34.1c-14.6,16.9-16.2,41.1-16.9,62.4c-1.1,30.3,1.8,60.7,0.3,91c-1.1,22.5-3.7,45.5-19.9,62.3
		c-16.8,17.5-41.9,27.8-63.8,37.3c-52.9,22.9-101.5,39.3-141.8,81.9l-98.8,104.5"/>
	
		<radialGradient id="SVGID_43_" cx="223.3222" cy="791.6345" r="1" gradientTransform="matrix(-323.3006 342.1797 50.2304 47.459 33209.4805 -113882.6797)" gradientUnits="userSpaceOnUse">
		<stop  offset="0" style="stop-color:#C4FF96"/>
		<stop  offset="0.243" style="stop-color:#D1D2D2"/>
		<stop  offset="0.545" style="stop-color:#FFFFFF"/>
	</radialGradient>
	<path class="st42" d="M1118.4-217.8c-50,36.8-116.7,14-170.2,40.8c-33.2,16.7-32.3,54.2-37.5,85.9c-5.3,31.5-22.3,56.8-54.4,65.4
		c-23.2,6.2-45.9,6.5-63.3,25.9c-14.6,16.4-15.3,41.4-15.4,62.3c-0.1,30.4,3.8,60.6,3.3,91c-0.4,22.7-2.4,45.4-18.3,62.4
		c-17.2,18.2-43.2,29.7-65.5,40.2c-53.6,25.3-104.1,44.4-145.4,88.1l-98.8,104.5"/>
	
		<radialGradient id="SVGID_44_" cx="223.3245" cy="791.7203" r="1" gradientTransform="matrix(-321.0878 339.8378 52.1213 49.2456 31218.4609 -114770.9375)" gradientUnits="userSpaceOnUse">
		<stop  offset="0" style="stop-color:#C4FF96"/>
		<stop  offset="0.243" style="stop-color:#D1D2D2"/>
		<stop  offset="0.545" style="stop-color:#FFFFFF"/>
	</radialGradient>
	<path class="st43" d="M1125.3-202.5c-52.9,37.1-122.4,7.5-178.3,34.9c-35.7,17.4-25.2,57-25.1,88.7c0.1,31.9-17.7,57.3-50.6,61.2
		c-24.4,2.9-51-3.1-69.7,18.2c-16,18.1-14.3,48.8-13.3,70.9c1.2,25.7,4.7,51.3,5.5,77.1c0.8,24.3,0.4,51.4-18.3,69.5
		c-19.4,18.8-45.7,31.2-69.6,43.1c-52.5,26.3-103.2,47.5-143.9,90.7l-99.8,105.6"/>
	
		<radialGradient id="SVGID_45_" cx="223.3263" cy="791.7893" r="1" gradientTransform="matrix(-319.2438 337.8861 53.7477 50.7823 29520.5781 -115547.7266)" gradientUnits="userSpaceOnUse">
		<stop  offset="0" style="stop-color:#C4FF96"/>
		<stop  offset="0.243" style="stop-color:#D1D2D2"/>
		<stop  offset="0.545" style="stop-color:#FFFFFF"/>
	</radialGradient>
	<path class="st44" d="M1132.6-188.2c-54.8,37.5-126.1,2.4-184,29.1c-38.7,17.9-20,59.1-15.3,90.2c5,33.1-13.7,59.2-48.2,59.6
		c-25.4,0.3-54.2-11-74.5,11.7c-16.1,17.9-13.5,49-11.9,70.9c1.9,25.8,6.1,51.3,7.6,77.1c1.3,24.4,1.6,51.3-17,69.5
		c-19.8,19.4-46.7,32.6-71,45.5c-53,28-105.1,51.3-146.7,95.3l-99.8,105.6"/>
	
		<radialGradient id="SVGID_46_" cx="223.3278" cy="791.8331" r="1" gradientTransform="matrix(-317.7996 336.3575 54.834 51.8086 28342.0859 -116013.1406)" gradientUnits="userSpaceOnUse">
		<stop  offset="0" style="stop-color:#C4FF96"/>
		<stop  offset="0.243" style="stop-color:#D1D2D2"/>
		<stop  offset="0.545" style="stop-color:#FFFFFF"/>
	</radialGradient>
	<path class="st45" d="M1140.4-175.1c-54.6,37.1-125,0.7-183.8,23.1c-45.1,17.3-22.5,58-12.9,90.9c9.7,33.4-8.1,63-44.9,60.5
		c-27.2-1.9-56.6-17.1-78.9,7c-15.2,16.3-13.4,43.3-11.8,64c2.3,31.1,9.1,61.7,10.4,92.8c0.8,20.1,0.2,42-14.1,57.7
		c-20.9,22.8-52,37.4-78.7,52c-53.8,29.5-105.4,55-147.9,100l-96.7,102.4"/>
	
		<radialGradient id="SVGID_47_" cx="223.3288" cy="791.8665" r="1" gradientTransform="matrix(-316.8773 335.3813 55.6936 52.6208 27460.8281 -116431.9375)" gradientUnits="userSpaceOnUse">
		<stop  offset="0" style="stop-color:#C4FF96"/>
		<stop  offset="0.243" style="stop-color:#D1D2D2"/>
		<stop  offset="0.545" style="stop-color:#FFFFFF"/>
	</radialGradient>
	<path class="st46" d="M1148.8-163.5c-55,38.4-127.3-2.4-186.7,20.1c-47.6,18-19.9,59.6-7.7,91.9c12.6,33.3-6.2,64.5-43.7,60
		c-27.7-3.3-58.4-22-81.6,3.4c-15.2,16.6-13.2,43.2-11.3,64c2.8,31,10.2,61.6,12,92.7c1.2,20.1,0.6,41.9-13.8,57.6
		c-21.2,22.9-52.5,38.1-79.4,53.2c-53.9,30.4-106.5,57.1-149.3,102.4l-96.7,102.4"/>
	
		<radialGradient id="SVGID_48_" cx="223.3291" cy="791.8846" r="1" gradientTransform="matrix(-316.5703 335.0564 56.1699 53.0709 27022.4375 -116708.2813)" gradientUnits="userSpaceOnUse">
		<stop  offset="0" style="stop-color:#C4FF96"/>
		<stop  offset="0.243" style="stop-color:#D1D2D2"/>
		<stop  offset="0.545" style="stop-color:#FFFFFF"/>
	</radialGradient>
	<path class="st47" d="M1157.8-153.6c-54.5,40.4-128.6-4.4-188.1,18.7c-49.4,19.2-19,60.2-5,92.6c14.2,32.8-6,65.8-43.5,60.2
		c-28.3-4.2-59.1-25.1-82.9,1.6c-15.2,17-13.4,42.8-11.3,64.1c3.1,31.1,11,61.5,13,92.7c1.3,20.2,0.8,41.9-13.8,57.5
		c-21.5,22.8-52.7,38-79.5,53.4c-53.7,30.9-107,58-149.9,103.4l-96.7,102.4"/>
	
		<radialGradient id="SVGID_49_" cx="223.3288" cy="791.8608" r="1" gradientTransform="matrix(-316.8161 335.3166 55.5441 52.4796 27584.3164 -116288.125)" gradientUnits="userSpaceOnUse">
		<stop  offset="0" style="stop-color:#C4FF96"/>
		<stop  offset="0.243" style="stop-color:#D1D2D2"/>
		<stop  offset="0.545" style="stop-color:#FFFFFF"/>
	</radialGradient>
	<path class="st48" d="M1167.7-145.7c-54.9,38.9-127.6-2.9-187.1,19.7c-47.7,18.2-19.7,60-7.4,92.4c12.6,33.2-6,64.8-43.7,60
		c-27.6-3.4-58.2-22.4-81.4,3.2c-15,16.6-13.1,43.3-11.3,64c2.7,30.6,9.9,60.7,11.5,91.4c1.1,20.1,0.5,42.1-13.7,57.8
		c-21,23-52.6,38-79.3,53.2c-53.6,30.2-106.5,56.7-149.1,101.8c-32.5,34.4-63.5,70.3-96.6,104.1"/>
	
		<radialGradient id="SVGID_50_" cx="223.3278" cy="791.8042" r="1" gradientTransform="matrix(-317.7996 336.3575 54.1119 51.1264 28951.2617 -115437.6719)" gradientUnits="userSpaceOnUse">
		<stop  offset="0" style="stop-color:#C4FF96"/>
		<stop  offset="0.243" style="stop-color:#D1D2D2"/>
		<stop  offset="0.545" style="stop-color:#FFFFFF"/>
	</radialGradient>
	<path class="st49" d="M1178.2-139.5c-54.5,38-126.1-0.6-185,21.9c-45.6,17.5-22,59.3-12.3,92.4c9.7,33.3-7.4,63.7-44.7,60.8
		c-27.1-2.1-56.1-18-78.2,6.4c-14.7,16.2-13.4,43-12,63.4c2,29.9,8.2,59.5,9.3,89.5c0.7,19.8-0.3,41.9-14.2,57.5
		c-20.4,22.8-51.9,37.4-78.4,51.8c-53.1,28.9-105.6,54-147.2,98.9c-32.8,35.4-62.3,73.6-96.3,107.8"/>
	
		<radialGradient id="SVGID_51_" cx="223.3264" cy="791.7192" r="1" gradientTransform="matrix(-319.213 337.8534 52.0973 49.2229 30876.7598 -114252.7734)" gradientUnits="userSpaceOnUse">
		<stop  offset="0" style="stop-color:#C4FF96"/>
		<stop  offset="0.243" style="stop-color:#D1D2D2"/>
		<stop  offset="0.545" style="stop-color:#FFFFFF"/>
	</radialGradient>
	<path class="st50" d="M1189.3-134.8c-55.2,38.6-128.1-0.3-186.6,26.9c-39.4,18.3-19.2,61.7-14.3,93.2c5.1,32.9-12.5,60.5-47.7,60.1
		c-25.3-0.3-53.1-12.4-73.4,10.5c-15.4,17.2-13.7,47.9-12.6,68.9c1.3,24.1,4.9,48,5.8,72.1c0.9,23.7,0.3,50.2-17.7,68
		c-19.5,19.3-46.3,32.3-70.2,44.9c-52,27.3-104.8,49.7-145.1,93.6c-34.5,37.6-62.9,80.3-99.1,116.4"/>
	
		<radialGradient id="SVGID_52_" cx="223.3244" cy="791.5895" r="1" gradientTransform="matrix(-321.1187 339.8705 49.2925 46.5729 33539.9375 -112591.4766)" gradientUnits="userSpaceOnUse">
		<stop  offset="0" style="stop-color:#C4FF96"/>
		<stop  offset="0.243" style="stop-color:#D1D2D2"/>
		<stop  offset="0.545" style="stop-color:#FFFFFF"/>
	</radialGradient>
	<path class="st51" d="M1200.9-131.3c-53.9,38.4-125.4,3.5-182.6,31.1C981.2-82.2,994-39.1,994.7-6.7c0.8,31.9-15.7,59.4-49.6,62.2
		c-24.3,2.1-49.1-5.1-68,16.2c-29,32.7-11.7,97.7-11.8,136.8c0,23.3-1.8,49.1-19.4,66.4c-18.8,18.6-44.9,30.6-68.3,42.1
		c-51,25-103,44.9-141.2,88.4c-34.9,39.5-61.4,85.6-98.5,123.3"/>
	
		<radialGradient id="SVGID_53_" cx="223.3222" cy="791.4114" r="1" gradientTransform="matrix(-323.3006 342.1797 45.9013 43.3688 36730.7344 -110555.9219)" gradientUnits="userSpaceOnUse">
		<stop  offset="0" style="stop-color:#C4FF96"/>
		<stop  offset="0.243" style="stop-color:#D1D2D2"/>
		<stop  offset="0.545" style="stop-color:#FFFFFF"/>
	</radialGradient>
	<path class="st52" d="M1212.9-128.8c-51.6,38.1-120.9,8.6-176.4,35.4c-35.7,17.2-31.7,59.4-35.6,92.4
		c-3.8,31.7-19.4,59.8-52.7,67.1c-22.9,5-43.5,3.7-60.8,23.2c-29.8,33.5-15.3,95.5-18.2,136.2c-1.4,21.2-5.1,42.2-20,58
		c-16.7,17.8-42,28.8-63.8,38.7c-51.6,23.5-104.3,40.4-141.4,85.3c-34.6,41.8-59.3,90.7-96.9,130.2"/>
	
		<radialGradient id="SVGID_54_" cx="223.3198" cy="791.1942" r="1" gradientTransform="matrix(-325.7283 344.7493 42.3479 40.0114 40105.4883 -108456.8828)" gradientUnits="userSpaceOnUse">
		<stop  offset="0" style="stop-color:#C4FF96"/>
		<stop  offset="0.243" style="stop-color:#D1D2D2"/>
		<stop  offset="0.545" style="stop-color:#FFFFFF"/>
	</radialGradient>
	<path class="st53" d="M1225.2-127.1c-49.8,38.2-117.7,13.2-171.2,40.8c-34,17.6-37.7,60.2-47,92.8c-8.7,30.7-25.2,57.3-55.5,70.1
		c-20.1,8.5-38.8,13-53.9,30.4c-29.2,33.4-19.6,89.8-24.6,130.6c-2.6,20.6-7.4,40.8-22.1,56c-16.2,16.8-40.2,26.6-61.5,35.3
		c-50.5,20.6-101.4,34.1-136.3,78.6c-34.9,44.5-57.7,97.1-96.3,138.9"/>
	
		<radialGradient id="SVGID_55_" cx="223.3173" cy="790.9285" r="1" gradientTransform="matrix(-328.371 347.5463 38.6847 36.5503 43615.4609 -106326.4219)" gradientUnits="userSpaceOnUse">
		<stop  offset="0" style="stop-color:#C4FF96"/>
		<stop  offset="0.243" style="stop-color:#D1D2D2"/>
		<stop  offset="0.545" style="stop-color:#FFFFFF"/>
	</radialGradient>
	<path class="st54" d="M1237.7-125.9c-47.2,38.1-112.7,18.6-164.3,45.9c-33.3,17.7-45.2,60.1-59.6,92c-13.9,30.7-32.6,56.1-60,76
		c-16.1,11.7-33.3,22-46.4,37.3c-28.1,33.2-23.7,83.1-31.3,123.4c-3.6,19.2-9,39.5-23,53.9c-16.7,17.3-41.6,26.3-63.8,33.9
		c-49.4,17.1-96.4,27.6-128.6,71.7c-34.4,47.2-55.5,103-94.6,147"/>
	
		<radialGradient id="SVGID_56_" cx="223.3146" cy="790.521" r="1" gradientTransform="matrix(-331.1064 350.4414 34.1532 32.2689 47834.6094 -103567.5156)" gradientUnits="userSpaceOnUse">
		<stop  offset="0" style="stop-color:#C4FF96"/>
		<stop  offset="0.243" style="stop-color:#D1D2D2"/>
		<stop  offset="0.545" style="stop-color:#FFFFFF"/>
	</radialGradient>
	<path class="st55" d="M1250.2-125c-44.8,38.1-107.8,23.8-157.2,51.1c-34.7,19.2-54,63.3-74.4,95.5c-28.3,44.7-66.8,82.6-101,122.8
		c-27.4,32.2-28.1,76.5-38,115.8c-12.5,49.3-42.4,70.3-89.9,83.4c-45,12.4-88.6,19.3-117.2,59.7c-36.4,51.2-55.8,112.8-96.8,160.9"
		/>
	
		<radialGradient id="SVGID_57_" cx="223.312" cy="790.1456" r="1" gradientTransform="matrix(-333.8721 353.3686 30.827 29.1262 51104.2227 -101719.0859)" gradientUnits="userSpaceOnUse">
		<stop  offset="0" style="stop-color:#C4FF96"/>
		<stop  offset="0.243" style="stop-color:#D1D2D2"/>
		<stop  offset="0.545" style="stop-color:#FFFFFF"/>
	</radialGradient>
	<path class="st56" d="M1262.8-124c-42.3,38.1-102.9,28.7-150.3,56.2c-36.9,21.3-63.4,66.6-89.8,99.1
		c-20.7,25.4-48.5,48.1-63.1,77.8c-9.8,20-17.4,36.6-31.9,54.3c-27.4,33.3-32.4,74-46.5,113.6c-15.2,42.8-41.7,62.6-85.4,72.1
		c-45.8,9.9-87.7,12.5-115.7,54.9C644.2,458,626.3,522.7,585,573.3"/>
	
		<radialGradient id="SVGID_58_" cx="223.3096" cy="789.8214" r="1" gradientTransform="matrix(-336.4845 356.1336 28.4349 26.8661 53597.2109 -100536.0547)" gradientUnits="userSpaceOnUse">
		<stop  offset="0" style="stop-color:#C4FF96"/>
		<stop  offset="0.243" style="stop-color:#D1D2D2"/>
		<stop  offset="0.545" style="stop-color:#FFFFFF"/>
	</radialGradient>
	<path class="st57" d="M1275.3-122.7c-40.6,38.2-99.3,33.3-144.9,61.9c-19.6,12.3-35.5,32-51.8,48.3c-16.9,17.1-33.7,34.3-50.5,51.4
		c-23.4,23.9-56.8,47.2-65.9,81.1c-6.5,23.9-7.8,41.6-24.4,62.1c-26.6,32.7-36.6,69.5-53.6,107.4c-17.5,39.2-42.1,59.9-85,66
		c-45.2,6.4-83.7,5.5-110.4,47.9c-35.9,57.2-52.2,125.3-94.3,178.8"/>
	
		<radialGradient id="SVGID_59_" cx="223.3074" cy="789.9462" r="1" gradientTransform="matrix(-338.9432 358.7358 29.3108 27.6936 53457.75 -101771.0859)" gradientUnits="userSpaceOnUse">
		<stop  offset="0" style="stop-color:#C4FF96"/>
		<stop  offset="0.243" style="stop-color:#D1D2D2"/>
		<stop  offset="0.545" style="stop-color:#FFFFFF"/>
	</radialGradient>
	<path class="st58" d="M1287.6-121c-38.6,37.9-94.8,37.7-138.6,66.4c-19.7,12.9-36.5,32.4-54.2,48c-19.4,17.1-39.1,34-58.6,51
		c-27,23.6-67,48-71.1,86.8c-2.7,26.6,0.8,46.1-17.6,68.5c-25.8,31.4-40.2,65.3-59.4,100.7c-19.1,35.2-41.3,58.2-82.5,61.3
		c-19.9,1.5-40.3-0.7-60,3.5c-23.6,5.1-37,19.4-49,39.7c-35.3,59.7-50.2,130.5-92.7,186.1"/>
	
		<radialGradient id="SVGID_60_" cx="223.3054" cy="790.0651" r="1" gradientTransform="matrix(-341.1559 361.0778 30.1965 28.5305 53255.8867 -102954.7344)" gradientUnits="userSpaceOnUse">
		<stop  offset="0" style="stop-color:#C4FF96"/>
		<stop  offset="0.243" style="stop-color:#D1D2D2"/>
		<stop  offset="0.545" style="stop-color:#FFFFFF"/>
	</radialGradient>
	<path class="st59" d="M1299.6-118.6c-38.3,38.8-95.2,41.5-137.4,73.8c-39.6,30.4-77.1,64.3-116.9,94.9
		c-29.5,22.7-75.3,47.4-76.4,89.2c-0.7,28.9,9.4,52.3-11,77.7c-12,14.9-25,28-35.3,44.4c-10.3,16.4-19.3,33.6-29.7,50
		c-21.5,33.5-43.4,58.3-85.4,57.4c-18.6-0.4-37.5-4.4-55.9-1.2c-23.8,4-35.7,19.6-47,40c-34.5,61.9-48.3,135.2-91.2,192.5"/>
	
		<radialGradient id="SVGID_61_" cx="223.3037" cy="790.1642" r="1" gradientTransform="matrix(-343.0302 363.0614 30.9763 29.2672 53062.9102 -103978.0781)" gradientUnits="userSpaceOnUse">
		<stop  offset="0" style="stop-color:#C4FF96"/>
		<stop  offset="0.243" style="stop-color:#D1D2D2"/>
		<stop  offset="0.545" style="stop-color:#FFFFFF"/>
	</radialGradient>
	<path class="st60" d="M1311.2-115.2c-37.5,38.5-92.4,45.2-133.4,78c-18,14.5-34.2,30.6-52.9,44.4c-23.8,17.5-48.3,33.9-72.5,50.8
		c-31.8,22.2-81.4,46.4-79,91.2c1.6,30,16.3,56.5-5.4,83.5c-11.8,14.7-25.9,27.4-37.1,42.9c-11.3,15.5-21.6,31.6-33,47.1
		c-22.7,30.8-44,57.5-85.1,53.1c-17.5-1.8-35.3-7.5-53-5.5c-23.7,2.6-35.3,19.2-46.1,39.2c-34.6,64-46.9,140.1-90.7,199.2"/>
	
		<radialGradient id="SVGID_62_" cx="223.3024" cy="790.2289" r="1" gradientTransform="matrix(-344.4751 364.5908 31.5084 29.77 52971.0781 -104713.25)" gradientUnits="userSpaceOnUse">
		<stop  offset="0" style="stop-color:#C4FF96"/>
		<stop  offset="0.243" style="stop-color:#D1D2D2"/>
		<stop  offset="0.545" style="stop-color:#FFFFFF"/>
	</radialGradient>
	<path class="st61" d="M1322.3-110.4c-36.5,37.6-89,48.1-129.2,80.4c-20.1,16.1-37.6,33.3-59,48c-25.3,17.4-51.7,33.5-77.5,50.3
		c-33.1,21.6-83.6,44.9-77.7,91.5c3.9,30.7,21,59.3-1.5,87.1c-24.5,30.2-51.1,59.6-76.2,89.5c-24.2,28.9-44,54.7-84.6,46.9
		c-16.2-3.1-33.1-10.4-49.9-8.7c-23.6,2.3-34.8,20.8-45,40.3c-34,65.3-45.1,143.2-89.4,202.9"/>
	
		<radialGradient id="SVGID_63_" cx="223.3013" cy="790.3162" r="1" gradientTransform="matrix(-345.7346 365.9238 32.2547 30.4751 52677.0039 -105556.3203)" gradientUnits="userSpaceOnUse">
		<stop  offset="0" style="stop-color:#C4FF96"/>
		<stop  offset="0.243" style="stop-color:#D1D2D2"/>
		<stop  offset="0.545" style="stop-color:#FFFFFF"/>
	</radialGradient>
	<path class="st62" d="M1342.6-96.3c-37,35.7-86.4,51.7-126.1,83.8c-20.2,16.3-37.4,33.4-59.4,47.7c-27.6,17.9-56.5,33.6-84.7,50.4
		c-34,20.3-87.7,44.6-78.9,92c5.9,32.1,27.5,62.4,3.2,92c-24.7,30-54,57.2-80.7,85.5c-25.1,26.5-43.6,57.3-83.8,45.1
		c-15.1-4.6-30.6-13.9-46.9-13.1c-23.1,1.1-35.6,21.5-45.1,40.1c-34.2,66.5-42.5,148.5-89,208.3"/>
	
		<radialGradient id="SVGID_64_" cx="223.3014" cy="790.2496" r="1" gradientTransform="matrix(-345.7037 365.8911 31.6815 29.9335 53135.1328 -105109.7422)" gradientUnits="userSpaceOnUse">
		<stop  offset="0" style="stop-color:#C4FF96"/>
		<stop  offset="0.243" style="stop-color:#D1D2D2"/>
		<stop  offset="0.545" style="stop-color:#FFFFFF"/>
	</radialGradient>
	<path class="st63" d="M1352.1-87.4c-36.9,36.9-88,51.6-128,84.1c-20.1,16.3-37.6,33.2-59.4,47.5c-26.8,17.7-54.8,33.8-82.2,50.7
		c-34.3,21.3-86,44.4-78.7,92.1c4.8,31.5,24.3,62.4,1.1,91.2c-24.1,29.9-53.2,57.5-79.2,85.8c-24.9,27-43.9,56.8-84.2,45.1
		c-15.5-4.5-31.3-13.6-47.9-12.8c-23.1,1.2-35.6,21.5-45.2,40c-34.2,66.3-41,148.5-87.9,207.9"/>
	
		<radialGradient id="SVGID_65_" cx="223.3013" cy="790.2429" r="1" gradientTransform="matrix(-345.7656 365.9565 31.6246 29.8798 53203.9141 -105072.2734)" gradientUnits="userSpaceOnUse">
		<stop  offset="0" style="stop-color:#C4FF96"/>
		<stop  offset="0.243" style="stop-color:#D1D2D2"/>
		<stop  offset="0.545" style="stop-color:#FFFFFF"/>
	</radialGradient>
	<path class="st64" d="M1361.5-78.5c-37.6,38.4-91.3,51.7-132.5,85c-19.9,16.1-37.6,32.9-58.7,47.6c-25.6,17.7-52,34.1-78,51.2
		c-33.9,22.4-82.7,44.7-78,91.9c3.1,31.1,19.2,61.6-3,89.5c-23.6,29.7-51.3,57.7-76.4,86.2c-11.8,13.4-24.6,31.3-39.5,41.4
		c-14.4,9.9-28.8,8.5-45.1,4.2c-16-4.2-32.4-13.2-49.5-12.2c-23.1,1.4-35.7,21.3-45.3,40.2c-33.6,66-38.6,148.2-85.5,207"/>
	
		<radialGradient id="SVGID_66_" cx="223.3014" cy="790.3071" r="1" gradientTransform="matrix(-345.7038 365.8911 32.1746 30.3994 52762.3359 -105462.0313)" gradientUnits="userSpaceOnUse">
		<stop  offset="0" style="stop-color:#C4FF96"/>
		<stop  offset="0.243" style="stop-color:#D1D2D2"/>
		<stop  offset="0.545" style="stop-color:#FFFFFF"/>
	</radialGradient>
	<path class="st65" d="M1370.9-69.6c-39.1,39.9-96,52.1-139.1,86.3c-43,34.1-85.5,67.5-130.3,99.6c-32.9,23.5-77.9,45.8-77,91.5
		c0.6,30.7,12.4,60.3-8.9,87c-23.3,29.3-48.6,57.7-72.4,86.8c-11.1,13.6-23.9,31.5-38.5,41.5c-14.7,10.1-29.7,8.6-46.4,4.6
		c-16.7-4-33.9-12.7-51.5-11.4c-23.3,1.8-35.9,21-45.5,40.2C728.7,522.1,726,604,679.5,662.1"/>
	
		<radialGradient id="SVGID_67_" cx="223.3013" cy="790.3857" r="1" gradientTransform="matrix(-345.7656 365.9565 32.875 31.0612 52228.6055 -105993.8281)" gradientUnits="userSpaceOnUse">
		<stop  offset="0" style="stop-color:#C4FF96"/>
		<stop  offset="0.243" style="stop-color:#D1D2D2"/>
		<stop  offset="0.545" style="stop-color:#FFFFFF"/>
	</radialGradient>
	<path class="st66" d="M1380.4-60.7C1339.1-19.2,1278.6-8,1233,27.4c-41.5,32.1-81,67.8-122.1,100.6c-31.3,24.8-71.9,47.5-75.5,90.9
		c-2.5,30.1,4.2,58.4-16.4,84c-23.2,28.9-45.2,57.9-67.5,87.5c-10.4,13.8-22.6,31.8-37.1,41.8c-15.1,10.4-30.9,8.9-48,5.3
		c-17.5-3.7-35.7-12-54-10.4c-23.6,2-36.2,20.5-45.9,40.4c-31.4,64.8-31.8,146.3-77.5,203.8"/>
	
		<radialGradient id="SVGID_68_" cx="223.3013" cy="790.4778" r="1" gradientTransform="matrix(-345.7346 365.9238 33.7348 31.8736 51547.4375 -106623.6797)" gradientUnits="userSpaceOnUse">
		<stop  offset="0" style="stop-color:#C4FF96"/>
		<stop  offset="0.243" style="stop-color:#D1D2D2"/>
		<stop  offset="0.545" style="stop-color:#FFFFFF"/>
	</radialGradient>
	<path class="st67" d="M1389.8-51.8c-44,43.2-108.5,53.7-157.1,90c-39.9,29.9-75.8,68.3-112.8,101.8c-29.1,26.2-65.3,49.7-74,90.2
		c-6.2,29.1-5.1,56.1-25,80.4c-23.2,28.4-41.3,58-61.8,88.3c-9.5,14.1-21.2,32.1-35.5,42c-15.4,10.7-32.4,9.3-50.1,6.1
		c-18.4-3.3-37.7-11.2-56.7-9.3c-23.9,2.4-36.7,19.9-46.2,40.4C740.7,542.4,743,623.1,698.4,680"/>
	
		<radialGradient id="SVGID_69_" cx="223.3013" cy="790.5723" r="1" gradientTransform="matrix(-345.7346 365.9238 34.6642 32.7517 50817.8008 -107313.0859)" gradientUnits="userSpaceOnUse">
		<stop  offset="0" style="stop-color:#C4FF96"/>
		<stop  offset="0.243" style="stop-color:#D1D2D2"/>
		<stop  offset="0.545" style="stop-color:#FFFFFF"/>
	</radialGradient>
	<path class="st68" d="M1399.3-42.9c-47.2,44.8-115.9,54.9-167.9,92.3c-38.5,27.8-70,68.8-102.6,103.2
		c-26.3,27.8-58.4,52.4-72.2,89.3c-10.2,27.4-15.2,53.4-34.6,76.5c-23.5,27.9-37.2,58.1-55.6,89.3c-8.5,14.5-19.6,32.5-33.6,42.4
		c-15.7,11-34.2,9.9-52.3,7c-19.3-3.1-39.9-10.4-59.8-8.1c-24.2,2.7-37.2,19.3-46.7,40.6c-28.2,63.5-23,143.2-66.4,199.5"/>
	
		<radialGradient id="SVGID_70_" cx="223.3013" cy="790.6485" r="1" gradientTransform="matrix(-345.7346 365.9238 35.4526 33.4966 50200.3281 -107896.5156)" gradientUnits="userSpaceOnUse">
		<stop  offset="0" style="stop-color:#C4FF96"/>
		<stop  offset="0.243" style="stop-color:#D1D2D2"/>
		<stop  offset="0.545" style="stop-color:#FFFFFF"/>
	</radialGradient>
	<path class="st69" d="M1408.7-34c-50.6,46.5-123.8,56-179.4,94.6c-37.6,26-63.9,69-91.7,104.7c-23.1,29.6-51.7,55.4-70.2,88.3
		c-14.2,25.3-25.6,50-44.7,72.3c-23.7,27.5-32.9,58.5-48.8,90.2c-7.4,14.9-17.7,32.8-31.6,42.7c-16.1,11.4-36,10.5-54.7,7.9
		c-46-6.3-88.2-18.1-110.1,33.9c-26.4,62.7-18.1,141.4-60.2,197.2"/>
	
		<radialGradient id="SVGID_71_" cx="223.3013" cy="790.7468" r="1" gradientTransform="matrix(-345.7656 365.9565 36.5241 34.5089 49364.6992 -108699.7969)" gradientUnits="userSpaceOnUse">
		<stop  offset="0" style="stop-color:#C4FF96"/>
		<stop  offset="0.243" style="stop-color:#D1D2D2"/>
		<stop  offset="0.545" style="stop-color:#FFFFFF"/>
	</radialGradient>
	<path class="st70" d="M1418.2-25.1c-54.3,48.1-131.8,57.3-191.3,97c-37.5,24.9-57.6,68.9-80.5,106.2
		c-19.7,32.1-45.1,57.9-68.2,87.3c-18.1,23.1-35.8,46-55.2,68c-23.8,27.1-28.7,59-41.9,91.3c-6.3,15.3-15.7,33.2-29.5,43.1
		c-16.6,11.9-37.9,11-57.1,8.9c-46.1-5.1-92.9-17.6-113.8,35.4c-24.5,62-13,139.6-53.8,194.7"/>
	
		<radialGradient id="SVGID_72_" cx="223.3013" cy="790.838" r="1" gradientTransform="matrix(-345.7346 365.9238 37.5772 35.5039 48529.8281 -109474.8906)" gradientUnits="userSpaceOnUse">
		<stop  offset="0" style="stop-color:#C4FF96"/>
		<stop  offset="0.243" style="stop-color:#D1D2D2"/>
		<stop  offset="0.545" style="stop-color:#FFFFFF"/>
	</radialGradient>
	<path class="st71" d="M1427.6-16.2c-57.9,49.7-139.8,58.7-203.1,99.4c-38.3,24.6-51.3,68.4-69.3,107.7
		c-28.9,63.3-86.6,99.5-131.8,150.1c-24,26.8-24.4,59.7-35.1,92.3c-14.1,42.9-43.3,57.1-87,53.3c-46-4-97.6-17.1-117.6,36.9
		c-22.6,61.2-8,137.7-47.5,192.2"/>
	
		<radialGradient id="SVGID_73_" cx="223.3013" cy="790.9347" r="1" gradientTransform="matrix(-345.7346 365.9238 38.7631 36.6244 47596.4844 -110356.7578)" gradientUnits="userSpaceOnUse">
		<stop  offset="0" style="stop-color:#C4FF96"/>
		<stop  offset="0.243" style="stop-color:#D1D2D2"/>
		<stop  offset="0.545" style="stop-color:#FFFFFF"/>
	</radialGradient>
	<path class="st72" d="M1437.1-7.3c-61.5,51.1-147.5,60-214.7,101.8c-39.8,24.8-45.7,67.6-58.5,109.2
		c-11.9,38.7-32.2,61.5-64.2,85.3c-25.4,19-54.4,35.9-75.8,59.5c-24.2,26.7-20.3,60.6-28.4,93.3c-11.2,45.2-43.8,57.5-87.4,54.6
		c-45.8-3-102.4-16.6-121.2,38.3c-20.8,60.5-3.1,135.8-41.3,189.8"/>
	
		<radialGradient id="SVGID_74_" cx="223.3013" cy="791.0171" r="1" gradientTransform="matrix(-345.7346 365.9238 39.8334 37.6357 46754.9648 -111151.8672)" gradientUnits="userSpaceOnUse">
		<stop  offset="0" style="stop-color:#C4FF96"/>
		<stop  offset="0.243" style="stop-color:#D1D2D2"/>
		<stop  offset="0.545" style="stop-color:#FFFFFF"/>
	</radialGradient>
	<path class="st73" d="M1446.5,1.6c-64.8,52.7-154.8,61.2-225.5,104c-41.7,25.3-40.8,67.2-48.1,110.6c-3.1,18-7.4,37.3-19.2,51.7
		c-11.1,13.5-28.3,23.8-43.2,32.7c-28.5,17.1-62.6,30.8-85.4,55.6c-24.5,26.6-16.5,61.7-22.1,94.2c-8.1,47.2-44.4,57.9-87.8,55.8
		c-45.6-2.2-107-15.9-124.7,39.6c-19.1,59.8,1.6,134-35.5,187.5"/>
	
		<radialGradient id="SVGID_75_" cx="223.3013" cy="791.0863" r="1" gradientTransform="matrix(-345.7346 365.9238 40.7795 38.5295 46012.3906 -111853.5)" gradientUnits="userSpaceOnUse">
		<stop  offset="0" style="stop-color:#C4FF96"/>
		<stop  offset="0.243" style="stop-color:#D1D2D2"/>
		<stop  offset="0.545" style="stop-color:#FFFFFF"/>
	</radialGradient>
	<path class="st74" d="M1456,10.5c-67.7,54-161.5,62.3-235.3,106c-43.8,26-36.7,67.1-38.8,111.8c-0.8,17.9-3,37.7-14.6,52.3
		c-11.2,14.1-30.4,23.6-46.2,31.5c-31,15.3-69.9,26-94.1,52c-24.8,26.8-12.9,62.6-16.3,95.1c-5.1,48.8-45.2,58.3-88.1,56.9
		c-45.3-1.4-111.2-15.4-127.9,40.9c-17.7,59.2,6.1,132.4-30.2,185.5"/>
	
		<radialGradient id="SVGID_76_" cx="223.3013" cy="791.1451" r="1" gradientTransform="matrix(-345.7346 365.9238 41.619 39.3228 45354.3906 -112475.2188)" gradientUnits="userSpaceOnUse">
		<stop  offset="0" style="stop-color:#C4FF96"/>
		<stop  offset="0.243" style="stop-color:#D1D2D2"/>
		<stop  offset="0.545" style="stop-color:#FFFFFF"/>
	</radialGradient>
	<path class="st75" d="M1465.4,19.4c-70.1,55.4-167.3,63.1-243.6,107.7c-46,26.9-33.3,67.5-30.6,112.8c1.1,17.9,0.9,37.9-10.6,52.7
		c-11.3,14.6-32.2,23.5-48.8,30.4c-33.1,13.9-76.2,21.8-101.6,49c-25.2,27.1-9.8,63.4-11.3,95.8c-2.5,50.1-45.9,58.5-88.5,57.8
		c-45.1-0.8-114.8-14.8-130.7,41.9c-16.4,58.7,10,130.9-25.6,183.8"/>
	
		<radialGradient id="SVGID_77_" cx="223.3013" cy="791.1889" r="1" gradientTransform="matrix(-345.7346 365.9238 42.2677 39.9356 44848.1484 -112953.5469)" gradientUnits="userSpaceOnUse">
		<stop  offset="0" style="stop-color:#C4FF96"/>
		<stop  offset="0.243" style="stop-color:#D1D2D2"/>
		<stop  offset="0.545" style="stop-color:#FFFFFF"/>
	</radialGradient>
	<path class="st76" d="M1474.8,28.3c-71.8,56.7-172,63.7-250.3,109.1c-22.7,13.1-33.8,26-33.6,52.8c0.2,20.6,6.7,40.6,9.6,60.8
		c2.6,17.8,3.9,37.8-7.7,53c-11.6,15-33.4,23.4-50.6,29.7c-34.7,12.6-81.2,18.2-107.6,46.5c-25.6,27.5-7.3,64-7.3,96.4
		c-0.2,51-46.9,58.7-88.8,58.4c-44.9-0.3-117.8-14.3-132.9,42.8c-15.5,58.3,13.3,129.9-22.1,182.3"/>
	
		<radialGradient id="SVGID_78_" cx="223.3014" cy="791.2206" r="1" gradientTransform="matrix(-345.7037 365.8911 42.75 40.3913 44467.2539 -113299.7109)" gradientUnits="userSpaceOnUse">
		<stop  offset="0" style="stop-color:#C4FF96"/>
		<stop  offset="0.243" style="stop-color:#D1D2D2"/>
		<stop  offset="0.545" style="stop-color:#FFFFFF"/>
	</radialGradient>
	<path class="st77" d="M1484.3,37.2c-72.5,58-175.3,64-254.8,110c-22.6,13.1-34.5,26-33,52.8c1.2,21,9.5,40.9,13.8,61.3
		c3.8,18.1,6,37.7-6,53.3c-11.9,15.5-33.8,23.4-51.7,29.3c-36,11.8-84.6,15.4-111.8,44.8c-26.1,28.2-5.5,64.2-4.5,96.8
		c1.4,51.5-47.8,58.8-89.1,58.8c-44.8,0-119.8-13.9-134.6,43.5c-15.1,58.1,16,129.1-19.6,181.4"/>
	
		<radialGradient id="SVGID_79_" cx="223.3013" cy="791.2299" r="1" gradientTransform="matrix(-345.7656 365.9565 42.8944 40.5278 44375.6055 -113413.8125)" gradientUnits="userSpaceOnUse">
		<stop  offset="0" style="stop-color:#C4FF96"/>
		<stop  offset="0.243" style="stop-color:#D1D2D2"/>
		<stop  offset="0.545" style="stop-color:#FFFFFF"/>
	</radialGradient>
	<path class="st78" d="M1493.7,46.1c-36,29.5-84.5,43.5-127.7,58.8c-42.9,15.3-89.6,28.5-129.2,51.6c-22.1,12.9-35.1,26.1-33,52.6
		c1.7,21.3,11.3,41.1,16.4,61.6c25.9,102.8-124.2,75-171.3,126.5c-26.7,29.1-4.5,63.8-3.1,97.1c2.4,51.7-48.7,58.6-89.5,58.8
		c-44.9,0.2-120.8-13.7-135.8,43.9c-15.1,58.1,17.9,128.9-18.4,181"/>
	
		<radialGradient id="SVGID_80_" cx="223.3" cy="791.2339" r="1.0005" gradientTransform="matrix(-345.2429 365.4034 42.9567 40.5866 44218.5781 -113327.8125)" gradientUnits="userSpaceOnUse">
		<stop  offset="0" style="stop-color:#C4FF96"/>
		<stop  offset="0.243" style="stop-color:#D1D2D2"/>
		<stop  offset="0.545" style="stop-color:#FFFFFF"/>
	</radialGradient>
	<path class="st79" d="M1501.1,54.9c-72.7,57.1-174.1,64-253.5,109.7c-22.5,13-36.1,25.7-33.9,52.8c1.8,21.3,11.3,41.3,16.5,61.9
		c26,103.3-124.6,74.5-171.7,126.2c-26.5,29.1-4.7,64.5-3.2,97.8c2.2,51.6-48.5,58.5-89.5,58.7c-44.9,0.1-120.9-13.8-135.8,43.7
		c-15.1,58.1,18.2,129-18.3,181.1"/>
	
		<radialGradient id="SVGID_81_" cx="223.303" cy="791.247" r="1" gradientTransform="matrix(-343.7986 363.8748 43.1606 40.7793 43742.3477 -113129.7031)" gradientUnits="userSpaceOnUse">
		<stop  offset="0" style="stop-color:#C4FF96"/>
		<stop  offset="0.243" style="stop-color:#D1D2D2"/>
		<stop  offset="0.545" style="stop-color:#FFFFFF"/>
	</radialGradient>
	<path class="st80" d="M1504.4,63.8c-72,55.4-169.9,63.1-247.3,108.9c-20.2,12-33.6,24.1-32.7,48.7c0.9,21.6,10.7,42.3,16.3,62.9
		c29.1,107.7-124.6,74.8-172.3,128.3c-25.3,28.3-6.1,63.7-3.7,96.2c3.8,51.8-43.4,61.6-85.8,61.9c-44.8,0.4-123.2-15.3-139.1,41.9
		c-16.4,58.6,18.5,130.2-18.5,183"/>
	
		<radialGradient id="SVGID_82_" cx="223.305" cy="791.2597" r="1" gradientTransform="matrix(-341.5247 361.4681 43.3597 40.9674 43084.0977 -112731.3047)" gradientUnits="userSpaceOnUse">
		<stop  offset="0" style="stop-color:#C4FF96"/>
		<stop  offset="0.243" style="stop-color:#D1D2D2"/>
		<stop  offset="0.545" style="stop-color:#FFFFFF"/>
	</radialGradient>
	<path class="st81" d="M1504.2,72.8c-69,52.9-161.6,62-235.4,106.3c-20.1,12-33.4,24.3-32.5,48.7c0.8,21.8,10.7,42.6,16.2,63.5
		c29.1,109.1-125.9,73.7-174.1,127.7c-25.5,28.6-6.5,65.4-4.4,98.3c3.3,52.2-42.9,62.1-86.1,62.3c-44.8,0.2-123.4-15.8-139.3,41.6
		c-16.3,58.7,18.9,130.5-18.2,183.4"/>
	
		<radialGradient id="SVGID_83_" cx="223.305" cy="791.2772" r="1.0008" gradientTransform="matrix(-338.5744 358.3454 43.6382 41.2305 42211.2148 -112232.1641)" gradientUnits="userSpaceOnUse">
		<stop  offset="0" style="stop-color:#C4FF96"/>
		<stop  offset="0.243" style="stop-color:#D1D2D2"/>
		<stop  offset="0.545" style="stop-color:#FFFFFF"/>
	</radialGradient>
	<path class="st82" d="M1501.1,81.6c-63,49.1-146.7,60.9-215.4,99.9c-22.4,12.7-38.5,26.2-36.6,53.7c1.6,22.3,11.4,43.3,16.8,64.7
		c26.8,106.9-129.1,72-176.8,124.3c-26.3,28.9-6.9,68.3-5.3,102c2.4,50.4-40.1,61.5-82.8,61.9c-44.6,0.4-125.8-17.1-142.8,39.7
		c-17.7,59.4,19.2,131.9-18.2,185.6"/>
	
		<radialGradient id="SVGID_84_" cx="223.3109" cy="791.2997" r="1" gradientTransform="matrix(-335.0712 354.6377 44.0019 41.5742 41146.7891 -111665.9219)" gradientUnits="userSpaceOnUse">
		<stop  offset="0" style="stop-color:#C4FF96"/>
		<stop  offset="0.243" style="stop-color:#D1D2D2"/>
		<stop  offset="0.545" style="stop-color:#FFFFFF"/>
	</radialGradient>
	<path class="st83" d="M1495.7,90.6c-58.5,46.9-136.3,58.6-199.8,97c-21.6,13.1-35.9,28.1-33.4,54.6c2.1,22.8,12.1,44.1,17.3,66.2
		c24.6,106.3-133.3,68.2-180.2,120.6c-26.9,30-6.5,71.4-5.9,106.3c1,52.4-42.9,61.4-87.2,61.4c-42.9,0-121.6-16.6-138.9,37.7
		c-19.1,60.1,19.7,133.2-18.2,187.9"/>
	
		<radialGradient id="SVGID_85_" cx="223.3146" cy="791.3237" r="1" gradientTransform="matrix(-331.1676 350.5061 44.396 41.9465 39968.6367 -111027.4688)" gradientUnits="userSpaceOnUse">
		<stop  offset="0" style="stop-color:#C4FF96"/>
		<stop  offset="0.243" style="stop-color:#D1D2D2"/>
		<stop  offset="0.545" style="stop-color:#FFFFFF"/>
	</radialGradient>
	<path class="st84" d="M1488.6,99.5c-53.2,44.4-124.5,56.2-181.9,93.7c-21.3,14-33.2,29.2-30.1,55.7c2.5,21.4,11.3,41.4,16.3,62.2
		c26.4,111.5-132.6,68.3-182.1,122.3c-26.7,29.2-8.4,71.7-7.2,106.2c0.7,19-2.4,38.7-17.9,51.5c-19.3,15.8-50,14.7-73.3,14.3
		c-41.6-0.6-117.4-16.2-135,35.7c-20.7,60.8,20.1,134.5-18.2,190.3"/>
	
		<radialGradient id="SVGID_86_" cx="223.3186" cy="791.3296" r="1.0001" gradientTransform="matrix(-327.0188 346.1151 44.4988 42.0437 38966.9805 -110112.1016)" gradientUnits="userSpaceOnUse">
		<stop  offset="0" style="stop-color:#C4FF96"/>
		<stop  offset="0.243" style="stop-color:#D1D2D2"/>
		<stop  offset="0.545" style="stop-color:#FFFFFF"/>
	</radialGradient>
	<path class="st85" d="M1480.3,108.4c-47.4,41.7-111.7,53.9-162.6,90.1c-43.7,31.1-22.5,71.8-11.6,114.9
		c29.8,117.6-134.1,67.6-184.8,123.9c-27.1,30.1-9,75.6-8.2,111.1c0.4,17.8-2.2,36.6-15.9,49.5c-18.3,17.2-48.8,16.6-72.1,16.3
		c-46-0.6-123.9-18.4-140.3,40.1c-16.8,59.6,20.4,131.8-16.5,186.1"/>
	
		<radialGradient id="SVGID_87_" cx="223.3229" cy="791.35" r="1.001" gradientTransform="matrix(-322.6551 341.4965 44.8912 42.4144 37687.1406 -109363.5078)" gradientUnits="userSpaceOnUse">
		<stop  offset="0" style="stop-color:#C4FF96"/>
		<stop  offset="0.243" style="stop-color:#D1D2D2"/>
		<stop  offset="0.545" style="stop-color:#FFFFFF"/>
	</radialGradient>
	<path class="st86" d="M1471.4,117.2c-41.3,38.8-98.2,51.6-142.2,86.3c-41.4,32.6-18.2,75.1-8.1,117.7
		c27.2,115.4-138.1,65.4-188.5,120c-28.3,30.6-9.7,79.4-9.4,116c0.2,18.7-3.3,37.8-18.1,50.5c-17.7,15.2-44.7,15.2-66.8,15
		c-45.3-0.4-126.7-19.9-144,37.9c-18.3,60.4,20.9,133.3-16.4,188.6"/>
	
		<radialGradient id="SVGID_88_" cx="223.3272" cy="791.3777" r="1.0001" gradientTransform="matrix(-318.3833 336.9753 45.3194 42.819 36399.1133 -108663.4297)" gradientUnits="userSpaceOnUse">
		<stop  offset="0" style="stop-color:#C4FF96"/>
		<stop  offset="0.243" style="stop-color:#D1D2D2"/>
		<stop  offset="0.545" style="stop-color:#FFFFFF"/>
	</radialGradient>
	<path class="st87" d="M1462.5,126.2c-35.3,35.5-84.3,49.6-121.5,82.4c-39.3,34.5-14.3,77.7-5.1,120.5
		c24.8,114.4-142.7,61.7-192.6,115.7c-27.8,30-11.2,79.7-10.4,115.8c0.5,20.4-2.4,44-19.8,57.5c-18.7,14.6-47.3,13.5-69.7,13
		c-44.1-0.8-122.1-19.4-140,35.8c-19.8,61.1,21.4,134.6-16.3,191.1"/>
	
		<radialGradient id="SVGID_89_" cx="223.3316" cy="791.3992" r="1.0001" gradientTransform="matrix(-314.1425 332.4869 45.6933 43.1722 35161.4805 -107929.9766)" gradientUnits="userSpaceOnUse">
		<stop  offset="0" style="stop-color:#C4FF96"/>
		<stop  offset="0.243" style="stop-color:#D1D2D2"/>
		<stop  offset="0.545" style="stop-color:#FFFFFF"/>
	</radialGradient>
	<path class="st88" d="M1454.1,135.1c-28.4,30.9-67,46.8-97.3,75c-39.3,36.5-17.6,76.2-7.6,121.1c26.8,120.6-142,61.4-194.7,117.8
		c-30,32.1-10.5,87.6-11.7,126.4c-0.5,17.5-3.9,37.1-17.6,49.5c-19.4,17.7-51.9,15.6-76.3,14.8c-44.7-1.5-124-19.1-138,40.2
		c-14.1,60.3,22,132.4-14.2,187.1"/>
	
		<radialGradient id="SVGID_90_" cx="223.3358" cy="791.419" r="1.001" gradientTransform="matrix(-310.2698 328.388 46.0911 43.5481 33987 -107301.6797)" gradientUnits="userSpaceOnUse">
		<stop  offset="0" style="stop-color:#C4FF96"/>
		<stop  offset="0.243" style="stop-color:#D1D2D2"/>
		<stop  offset="0.545" style="stop-color:#FFFFFF"/>
	</radialGradient>
	<path class="st89" d="M1446.8,144c-23.4,27.4-54.1,45.6-78.6,71.6c-15.4,16.3-23.9,31.3-21.5,54.3c2.2,21.8,10.5,42.5,15.5,63.6
		c30.2,126.2-142.8,62-197.2,119.6c-29.6,31.3-11.9,87.8-12.3,125.6c-0.2,20.2-3.3,42.5-19.8,56.1c-18.7,15.5-47.8,14.4-70.8,13.6
		c-44.5-1.4-126.9-21.2-141.9,37.8c-15.5,61.1,22.3,133.9-14.1,189.6"/>
	
		<radialGradient id="SVGID_91_" cx="223.3397" cy="791.442" r="1" gradientTransform="matrix(-306.6746 324.5829 46.4512 43.8883 32905.0117 -106711.0938)" gradientUnits="userSpaceOnUse">
		<stop  offset="0" style="stop-color:#C4FF96"/>
		<stop  offset="0.243" style="stop-color:#D1D2D2"/>
		<stop  offset="0.545" style="stop-color:#FFFFFF"/>
	</radialGradient>
	<path class="st90" d="M1441.3,152.8c-18.4,22.9-39.6,42.7-58.6,65c-16,18.7-25.6,33.6-22.4,59.4c2.7,22.1,11.1,43.3,15.9,65
		c27.5,123.7-147,59.2-200.3,115.7c-30.5,32.3-12.4,90.6-13.6,130c-0.6,20.2-3.7,44.1-21.3,57.2c-17.7,13.3-44.6,12.5-65.5,12
		c-44.1-1.2-129.8-22.9-145.8,35.5c-17,61.8,22.8,135.4-14.1,192"/>
	
		<radialGradient id="SVGID_92_" cx="223.343" cy="791.4808" r="1" gradientTransform="matrix(-303.7242 321.4602 47.1654 44.5631 31685.8262 -106539.0234)" gradientUnits="userSpaceOnUse">
		<stop  offset="0" style="stop-color:#C4FF96"/>
		<stop  offset="0.243" style="stop-color:#D1D2D2"/>
		<stop  offset="0.545" style="stop-color:#FFFFFF"/>
	</radialGradient>
	<path class="st91" d="M1438.1,161.7c-15.7,20.3-28.9,42-44.2,62.5c-13.6,18.3-22.9,30.8-21.2,54.8c1.9,24.9,11.9,48.4,16.9,72.7
		c24.8,121.1-150.9,56-203.5,111.4c-31,32.7-12.5,94.8-14.1,134.7c-0.8,18.7-4,41-18.9,54.1c-18.7,16.5-49.6,14.4-72.5,13.6
		c-42.5-1.4-124.8-22.1-141.4,33.6c-18.7,62.5,23.2,136.7-14.1,194.4"/>
	
		<radialGradient id="SVGID_93_" cx="223.3456" cy="791.611" r="1" gradientTransform="matrix(-301.4194 319.0208 49.7351 46.991 29135.9492 -107913.9063)" gradientUnits="userSpaceOnUse">
		<stop  offset="0" style="stop-color:#C4FF96"/>
		<stop  offset="0.243" style="stop-color:#D1D2D2"/>
		<stop  offset="0.545" style="stop-color:#FFFFFF"/>
	</radialGradient>
	<path class="st92" d="M1437.7,170.7c-14.7,19.1-19.3,40.2-32.2,59.8c-12.7,19.3-22.6,30.3-20.8,54.9c1.9,25,11.9,48.8,16.9,73.2
		c24.8,122.5-152.3,55-205.2,110.7c-31.3,33.1-13,96.5-14.8,136.8c-0.8,18.8-4,41.5-19.1,54.7c-18.7,16.4-49.6,14.3-72.6,13.5
		c-42.5-1.6-125-22.5-141.6,33.3c-18.6,62.7,23.6,137.1-13.8,194.9"/>
	
		<radialGradient id="SVGID_94_" cx="223.3474" cy="791.6895" r="1" gradientTransform="matrix(-299.9133 317.4268 51.4265 48.5891 27463.332 -108818.4375)" gradientUnits="userSpaceOnUse">
		<stop  offset="0" style="stop-color:#C4FF96"/>
		<stop  offset="0.243" style="stop-color:#D1D2D2"/>
		<stop  offset="0.545" style="stop-color:#FFFFFF"/>
	</radialGradient>
	<path class="st93" d="M1440.7,179.6c-9.7,12-14.9,20.4-17.1,35c-1.3,8.8-1.9,14.9-6.8,22.8c-12.2,20-22.9,29.6-21,55
		c1.8,25.2,11.9,49.1,16.8,73.7c24.8,123.4-153.2,54.1-206.3,110.3c-31.5,33.3-13.3,97.7-15.2,138.4c-1,18.9-4,41.6-19.1,55
		c-18.8,16.5-49.7,14.3-72.7,13.4c-42.5-1.7-125.2-22.8-141.8,33c-18.6,62.7,23.9,137.4-13.6,195.2"/>
	
		<radialGradient id="SVGID_95_" cx="223.3481" cy="791.717" r="1" gradientTransform="matrix(-299.3296 316.8089 52.0446 49.1731 26850.7129 -109135.4531)" gradientUnits="userSpaceOnUse">
		<stop  offset="0" style="stop-color:#C4FF96"/>
		<stop  offset="0.243" style="stop-color:#D1D2D2"/>
		<stop  offset="0.545" style="stop-color:#FFFFFF"/>
	</radialGradient>
	<path class="st94" d="M1447.8,188.5c-11,12.7-16,19.3-15.7,35c0.2,9.4,0.5,14.2-4.9,22.9c-11,17.8-22.9,27.5-21.8,50.2
		c1.1,25.5,11.3,49.9,16.5,74.7c26.7,127.9-149.9,56-205.7,113.5c-30.8,31.8-14.4,94.5-15.5,133.8c-0.6,21.5-3.2,46.7-21.2,61.1
		c-19.9,16-50.9,13.5-74.9,12.2c-40.9-2.2-120-21.6-137.2,31.2c-20.6,63.2,24,138.4-14,197.2"/>
</g>
<radialGradient id="SVGID_96_" cx="781.7962" cy="356.7765" r="233.6274" gradientTransform="matrix(1 0 0 0.1668 0 663.2001)" gradientUnits="userSpaceOnUse">
	<stop  offset="0" style="stop-color:#C4FF96"/>
	<stop  offset="0.243" style="stop-color:#D1D2D2"/>
	<stop  offset="0.545" style="stop-color:#FFFFFF"/>
</radialGradient>
<rect x="505.8" y="1.6" class="st95" width="552.1" height="710.4"/>
</svg>
