<svg xmlns="http://www.w3.org/2000/svg" width="51" height="50" fill="none" xmlns:v="https://vecta.io/nano"><path d="M23.979 8.348c2.286 0 4.55.438 6.662 1.288s4.031 2.097 5.648 3.668a16.9 16.9 0 0 1 3.774 5.49c.875 2.053 1.325 4.254 1.325 6.476s-.45 4.423-1.325 6.476a16.9 16.9 0 0 1-3.774 5.49c-1.617 1.571-3.536 2.818-5.648 3.668s-4.376 1.288-6.662 1.288V25.27 8.348z" fill="#6981f1" fill-opacity=".2"/><path d="M25.111 36.218L12.996 25.122l2.276-2.084 8.957 8.203 9.537-17.47 2.881 1.319-11.536 21.13z" fill="#4361ee"/><path d="M24.663 43.923c-5.639-.004-10.907-2.532-14.455-6.937l-.942.762c3.775 4.689 9.382 7.38 15.386 7.388h.024c10.914-.011 19.792-8.921 19.792-19.867 0-10.956-8.89-19.869-19.817-19.869-10.31 0-18.802 7.936-19.73 18.035l-.35-.513-.999.683 1.777 2.611 2.248-2.251-.855-.859-.629.628c.78-9.571 8.793-17.119 18.536-17.119 10.258 0 18.605 8.369 18.605 18.654s-8.34 18.649-18.593 18.654z" fill="#607bf8"/><path d="M49.472 22.44l-.667.981C47.858 10.772 37.299.77 24.446.77 10.972.77.01 11.76.01 25.27c0 13.499 10.945 24.484 24.407 24.5h.029c7.401-.009 14.316-3.328 18.972-9.111l-.942-.762c-4.428 5.499-11.004 8.656-18.044 8.659C11.631 48.547 1.22 38.105 1.22 25.27c0-12.841 10.419-23.287 23.226-23.287 12.295 0 22.384 9.631 23.17 21.763l-1.059-1.059-.855.859 2.666 2.667 2.105-3.093-1-.68z" fill="#4361ee"/></svg>