<svg xmlns="http://www.w3.org/2000/svg" width="553" height="554" fill="#fff" fill-rule="evenodd" xmlns:v="https://vecta.io/nano"><path d="M276.43 39.464c10.881 0 19.699-8.833 19.699-19.732S287.305.001 276.43.001C200.098.001 130.99 30.993 80.965 81.1S0 200.425 0 276.883s30.94 145.682 80.965 195.789 119.133 81.099 195.465 81.099c11.897 0 23.954-.822 36.1-2.415 12.281-1.61 24.108-3.96 35.438-6.997 10.496-2.807 16.732-13.611 13.93-24.125-2.807-10.514-13.587-16.76-24.09-13.953-10.083 2.699-20.225 4.742-30.361 6.068-9.817 1.29-20.166 1.953-31.017 1.953-65.457 0-124.713-26.575-167.604-69.537-42.891-42.968-69.422-102.323-69.422-167.882 0-65.565 26.531-124.919 69.422-167.882S210.973 39.464 276.43 39.464zm167.603 405.307c-7.695 7.702-7.695 20.199 0 27.907a19.69 19.69 0 0 0 27.861 0c25.403-25.444 45.917-55.956 59.984-89.967 13.523-32.697 20.981-68.442 20.981-105.822 0-10.899-8.818-19.731-19.699-19.731s-19.704 8.826-19.704 19.725c0 32.282-6.372 62.972-17.903 90.868-11.956 28.925-29.587 55.045-51.52 77.02z"/><path d="M212.511 515.8c-5.248-1.403-10.639 1.716-12.045 6.973s1.714 10.663 6.962 12.066c11.017 2.948 22.424 5.221 34.167 6.766 11.561 1.516 23.192 2.303 34.83 2.303 73.612 0 140.257-29.884 188.496-78.204 48.246-48.332 78.087-115.087 78.087-188.821 0-61.06-20.485-117.342-54.942-162.335-35.249-46.029-85.114-80.223-142.639-95.621-5.248-1.403-10.644 1.723-12.045 6.974-1.401 5.257 1.714 10.656 6.962 12.065 53.287 14.267 99.464 45.928 132.095 88.529 31.904 41.66 50.87 93.798 50.87 150.388 0 68.288-27.637 130.106-72.307 174.861s-106.396 72.427-174.571 72.427c-11.112 0-21.886-.705-32.288-2.072-10.674-1.398-21.236-3.517-31.632-6.299zm109.964-65.239c5.249-1.403 8.369-6.808 6.963-12.065s-6.797-8.383-12.045-6.974c-6.697 1.794-13.47 3.155-20.273 4.043-6.607.865-13.516 1.32-20.697 1.32-43.695 0-83.253-17.742-111.888-46.419s-46.342-68.306-46.342-112.067c0-36.284 12.151-69.703 32.595-96.397 20.91-27.303 50.509-47.597 84.659-56.738 5.248-1.403 8.369-6.808 6.968-12.065s-6.797-8.383-12.045-6.974c-38.393 10.277-71.674 33.105-95.203 63.83-23.003 30.033-36.673 67.596-36.673 108.344 0 49.214 19.917 93.768 52.111 126.021s76.685 52.203 125.818 52.203c7.707 0 15.473-.533 23.239-1.545 7.878-1.042 15.491-2.558 22.813-4.517zm.001-344.342c38.387 10.277 71.673 33.105 95.202 63.831 23.003 30.032 36.674 67.595 36.674 108.343 0 7.72-.526 15.499-1.543 23.278-1.034 7.885-2.547 15.51-4.504 22.845-1.4 5.257-6.796 8.383-12.045 6.974s-8.369-6.808-6.962-12.065c1.791-6.707 3.15-13.492 4.043-20.3.862-6.624 1.312-13.539 1.312-20.738 0-36.284-12.152-69.703-32.596-96.397-20.91-27.303-50.509-47.597-84.658-56.738-5.249-1.403-8.369-6.808-6.969-12.065 1.407-5.251 6.797-8.371 12.046-6.968z"/></svg>