<svg xmlns="http://www.w3.org/2000/svg" xmlns:xlink="http://www.w3.org/1999/xlink" width="1438" height="614" fill="none" xmlns:v="https://vecta.io/nano"><style><![CDATA[.B{stroke-miterlimit:10}.C{stroke-width:.3}]]></style><mask id="A" maskUnits="userSpaceOnUse" x="-2" y="0" width="1440" height="614" mask-type="alpha"><path d="M1438 15c0-8.284-6.72-15-15-15H13C4.716 0-2 6.716-2 15v584c0 8.284 6.716 15 15 15h1410c8.28 0 15-6.716 15-15V15z" fill="#080c29"/></mask><g mask="url(#A)" class="B C"><path d="M2108.2 268.563c-145.16-57.221-290.32-114.441-435.63-171.718-62.37-24.588-124.89-49.231-187.27-73.819-62.37-24.587-117.04-49.79-180.37-70.871-49.8-16.664-118.36-18.462-177.59-20.692-73.9-2.763-148.28-3.09-221.856-6.98-46.151-2.44-118.098-4.662-148.814-24.19-26.211-16.609-12.129-40.394-.797-58.185 14.186-22.488 37.557-45.465 39.448-69.261 1.847-24.042-32.398-34.573-67.939-48.583l-224.807-88.616" stroke="url(#B)"/><path d="M2090.75 278.234c-143.48-58.154-292.15-113.563-435.63-171.718-61.65-24.987-124.89-49.23-187.26-73.818-62.38-24.587-117.29-49.657-180.26-70.939-49.96-16.843-117.97-18.538-177.44-20.635-73.59-2.527-147.768-2.43-221.298-6.074-46.13-2.317-118.076-4.538-148.673-24.132-26.09-16.677-12.03-40.584-1.104-58.422 13.998-22.79 37.039-46.126 38.886-70.167 1.726-23.975-32.353-34.327-68.037-48.393L485.127-354.68" stroke="url(#C)"/><path d="M2073.3 287.907c-143.18-58.723-295.56-111.941-437.06-171.599-60.29-25.475-123.6-49.406-185.84-73.937-62.23-24.531-117.28-49.657-180.39-70.995-49.85-16.91-117.55-18.37-177.07-20.031-73.38-2.102-147.204-1.523-220.404-4.809-46.348-2.06-117.746-4.18-148.605-23.763-26.234-16.733-12.121-41.076-1.502-59.149 13.646-23.272 36.333-47.089 37.85-71.489 1.561-24.154-32.09-34.337-68.059-48.516l-224.808-88.616" stroke="url(#D)"/><path d="M2055.86 297.582c-79.61-32.635-168.42-59.765-249.95-91.333-65.85-25.502-127.76-52.647-189.63-80.228-58.41-26.107-121.54-49.736-183.2-74.042-61.66-24.306-117.28-49.657-180.39-70.995-49.71-16.853-117.2-17.888-176.51-19.124-73.01-1.498-146.191-.325-219.158-3.062-46.16-1.759-117.228-3.519-148.088-23.103-26.661-16.901-12.54-41.926-2.372-60.291 13.271-23.876 35.441-48.354 36.582-73.358 1.133-24.324-31.992-34.527-68.247-48.818L450.09-335.388" stroke="url(#E)"/><path d="M2038.41 307.253c-81.97-33.223-175.69-58.98-260.18-90.803-65.87-24.82-123.88-52.368-182.93-80.555-56.02-26.76-118.7-50.097-179.93-74.234-61.23-24.138-117.17-49.724-180.39-70.995-49.54-16.674-116.68-17.228-175.5-17.926-72.488-.837-145.274 1.063-217.603-1.08-46.214-1.323-116.545-2.679-147.405-22.263-26.969-17.137-13.147-43.079-3.43-61.735 12.73-24.66 34.383-49.799 35.006-75.464.683-24.615-31.796-34.906-68.621-49.422L432.619-325.84" stroke="url(#F)"/><path d="M2020.96 316.927c-85-33.846-184.16-58.21-272.12-90.143-66.11-24.005-119.43-51.987-175.06-80.992-53.14-27.679-115.2-50.545-175.86-74.457-60.66-23.912-117.04-49.79-180.25-70.939-49.23-16.439-116.12-16.321-174.42-16.359-72.088-.109-144.07 2.565-216.122 1.215-46.267-.887-115.697-1.66-146.677-21.176-27.683-17.419-13.92-44.411-4.676-63.483 12.19-25.443 33.137-51.544 33.386-77.814.209-25.03-31.601-35.286-69.283-50.14l-224.807-88.616" stroke="url(#G)"/><path d="M2003.51 326.601c-88.52-34.325-193.15-57.42-285.24-89.498-66.51-23.246-114.73-51.616-166.53-81.393-49.73-28.62-111.17-51.014-171.12-74.645-59.95-23.631-116.95-49.98-180.25-70.939-48.93-16.203-115.65-15.225-173.32-14.668-71.404.73-142.824 4.31-214.358 3.622-46.177-.395-114.563-.528-145.806-20.035-28.397-17.7-14.715-45.866-6.087-65.408 11.628-26.35 31.892-53.291 31.578-80.468-.264-25.444-31.45-35.911-69.703-50.99l-224.807-88.615" stroke="url(#H)"/><path d="M1986.06 336.274c-92.46-34.85-202.8-56.541-299.16-88.821-67.3-22.533-109.72-51.01-157.46-81.815-45.94-29.637-106.75-51.438-166.27-74.9-59.52-23.462-116.85-50.17-180.37-70.872C1134.06 3.965 1067.63 5.86 1010.87 7c-70.865 1.515-141.459 5.991-212.431 6.21-46.208.162-113.67.736-144.891-18.647-29.11-17.982-15.532-47.444-7.52-67.457 10.922-27.314 30.481-55.217 29.484-83.234-.879-25.915-31.298-36.536-70.408-51.953l-224.807-88.616" stroke="url(#I)"/><path d="M1968.62 345.949c-96.55-35.432-212.85-55.709-313.6-88-68.52-21.99-104.82-50.338-148.27-82.304-41.77-30.733-102.08-51.996-160.88-75.177-58.81-23.18-116.61-50.303-180.38-70.871-48.28-15.61-114.82-12.843-170.51-10.94-70.306 2.421-140.074 7.794-210.626 8.862-45.975.711-112.372 2.048-143.855-17.325-29.824-18.263-16.515-49.2-8.976-69.629 10.36-28.22 29.07-57.143 27.511-86.066-1.616-26.32-31.148-37.162-71.113-52.916l-224.808-88.616" stroke="url(#J)"/><path d="M1951.17 355.623c-100.87-35.879-222.64-54.886-328.04-87.302-70.04-21.558-100.05-49.599-139.09-82.793-37.33-31.837-97.39-52.429-155.77-75.441-58.38-23.012-116.51-50.493-180.23-70.816-48.1-15.307-114.33-11.623-169.1-9.014-69.743 3.328-138.686 9.597-208.675 11.572-46.006 1.27-111.216 3.303-142.94-15.937-30.56-18.667-17.475-50.835-10.551-71.734 9.654-29.183 27.779-59.136 25.537-88.899-2.089-26.734-31.139-37.843-71.961-53.934l-224.808-88.616" stroke="url(#K)"/><path d="M1933.72 365.296c-104.92-36.337-232.16-54.075-341.95-86.626-71.98-21.295-95.81-48.838-130.03-83.215-32.75-32.886-92.96-52.853-150.91-75.696-57.95-22.843-116.41-50.683-180.23-70.815-47.79-15.072-113.85-10.404-167.835-7.145-69.06 4.168-137.44 11.343-206.889 14.102-44.842 1.843-111.21 4.79-142.047-14.672-30.837-19.46-18.609-51.966-11.985-73.782 8.949-30.146 26.512-61.005 23.587-91.608-2.562-27.15-31.131-38.525-72.524-54.842l-224.808-88.616" stroke="url(#L)"/><path d="M1916.27 374.968c-108.74-36.928-241.03-53.35-354.94-85.924-73.94-21.155-92.23-48.113-121.63-83.672-28.03-33.879-88.8-53.266-146.32-75.94-57.52-22.675-116.32-50.873-180.23-70.816-47.6-14.77-113.524-9.364-166.733-5.454-68.52 4.952-136.217 12.967-205.103 16.632-44.489 2.325-110.46 5.998-141.297-13.462-31.31-19.876-19.524-53.355-13.395-75.71 8.386-31.051 25.266-62.75 21.658-94.194-3.155-27.497-30.98-39.15-73.087-55.748l-224.807-88.616" stroke="url(#M)"/><path d="M1898.83 384.641c-112.16-37.474-249.25-52.59-366.77-85.33-75.92-21.138-89.06-47.434-113.88-84.042-23.53-34.615-85.16-53.658-142.11-76.108-56.95-22.449-116.07-51.005-180.2-70.692-47.44-14.59-113.085-8.39-165.535-3.954-67.98 5.736-134.873 14.524-203.505 18.86-44.399 2.817-109.589 7.14-140.449-12.443-31.903-20.224-20.154-54.63-14.64-77.455 7.846-31.836 24.043-64.376 20.014-96.669-3.485-27.856-30.926-39.586-73.747-56.465l-224.807-88.616" stroke="url(#N)"/><path d="M1881.38 394.317c-114.9-37.985-256.14-51.883-376.88-84.867-77.65-21.132-86.58-46.913-107.07-84.436-19.41-35.275-82.16-53.963-138.83-76.3-56.66-22.337-116.1-51.129-180.21-70.693-47.41-14.467-112.679-7.663-164.776-2.744-67.605 6.34-133.838 15.845-202.215 20.853-44.189 3.241-108.906 7.98-139.886-11.537-32.354-20.516-20.882-55.717-15.699-78.9 7.449-32.563 22.985-65.82 18.582-98.718-3.793-28.091-30.874-40.021-73.98-57.013l-224.807-88.616" stroke="url(#O)"/><path d="M1863.93 403.989c-116.87-38.649-261.86-51.284-384.75-84.43-79.27-21.315-84.79-46.55-101.54-84.656-15.77-35.667-80.23-54.226-136.46-76.394-56.24-22.168-116.1-51.128-180.21-70.692-47.42-14.467-112.452-7.115-164.077-1.782-67.229 6.944-132.967 16.987-200.849 22.533-44.122 3.611-108.388 8.641-139.368-10.876-32.639-20.628-21.301-56.567-16.426-79.986 6.953-33.101 21.971-67.018 17.336-100.464-4.079-28.204-30.776-40.211-74.31-57.372l-224.807-88.616" stroke="url(#P)"/><path d="M1846.48 413.663c-117.67-39.422-265.74-50.758-390.13-84.154-38.02-10.195-69.01-21.723-83.25-41.719-9.96-13.973-9.21-28.743-14.36-43.217-12.9-35.904-79.37-54.57-135.03-76.513-58.67-23.124-116.22-51.062-180.23-70.815-47.583-14.647-112.168-7.002-163.725-1.3-66.899 7.302-132.262 17.95-199.956 23.798-44.077 3.856-107.915 9.055-139.181-10.575-32.925-20.74-21.533-57.114-16.824-80.712 6.601-33.583 21.409-67.925 16.3-101.786-4.221-28.26-30.775-40.211-74.309-57.372l-224.808-88.616" stroke="url(#Q)"/><path d="M1829.03 423.337c-117.28-40.181-267.77-50.306-392.62-83.993-37.62-10.15-69.55-21.825-82.98-41.73-9.58-14.05-7.78-28.862-12.26-43.3-11.18-35.911-79.65-54.683-135.03-76.513-58.81-23.181-116.32-50.872-180.23-70.816-47.747-14.825-111.805-7.202-163.724-1.3-66.712 7.605-131.887 18.555-199.416 24.582-44.054 3.98-107.892 9.178-139.18-10.574-32.925-20.74-21.579-57.361-17.132-80.949 6.413-33.884 20.914-68.462 15.617-102.625-4.221-28.26-30.61-40.032-74.144-57.193L223.123-209.69" stroke="url(#R)"/><path d="M1811.59 433.01c-117.66-39.299-265.48-50.769-390.13-84.154-38.03-10.195-69.49-21.456-83.33-41.407-9.91-14.408-8.84-29.624-13.8-44.477-12.09-35.813-78.66-55.094-135.05-76.636-59.22-22.545-117.57-49.77-180.92-69.488-47.051-14.667-112.425-6.992-163.742-1.423-66.516 7.225-131.517 17.673-198.828 23.443-43.837 3.724-108.321 9.01-139.181-10.574-32.519-20.695-21.534-57.115-17.207-80.636 6.217-33.505 20.522-67.703 15.172-101.43-4.484-28.25-30.392-40.289-74.069-57.506l-224.807-88.616" stroke="url(#S)"/><path d="M1794.14 442.684c-116.73-38.593-261.6-51.294-384.49-84.44-38.6-10.42-69.34-21.4-83.77-41.698-10.67-14.936-10.53-30.859-16.24-46.239-13.6-36.063-77.59-55.694-136.27-76.774-60.26-21.698-119.4-47.405-182.313-66.955-46.769-14.554-112.21-7.248-163.353-2.181-66.222 6.656-131.215 16.422-198.21 21.746-43.761 3.411-108.433 8.395-139.007-11.076-32.234-20.583-21.903-56.233-17.555-79.631 6.066-32.88 19.815-66.5 14.434-99.668-4.461-28.126-30.655-40.278-74.046-57.382L188.512-190.23" stroke="url(#T)"/><path d="M1776.69 452.357c-114.75-37.928-255.87-51.894-376.47-84.821-83.65-22.813-86.66-50.254-104-90.875-15.54-36.605-76.78-56.407-138.56-76.992-30.88-10.231-62.58-19.873-93.45-30.104-31.17-10.344-59.26-23.472-90.862-33.303-46.483-14.442-111.555-8.018-162.908-3.377-65.951 5.965-130.695 14.916-197.178 19.414-43.708 2.975-108.349 7.401-138.637-11.958-31.784-20.29-22.349-55.038-18.338-78.113 5.674-32.122 19.173-64.925 13.544-97.279-4.8-27.803-31.257-39.944-74.363-56.936l-224.807-88.616" stroke="url(#U)"/><path d="M1759.24 462.031c-112.01-37.418-248.72-52.612-366.23-85.352-39.93-11.172-69.15-22.46-85.12-43.255-12.83-16.584-15.27-34.324-23.28-51.409-17.78-37.259-75.91-57.432-141.76-77.113-31.25-9.349-63.68-17.908-95.05-27.191-32.36-9.677-60.037-21.955-91.637-31.786-46.341-14.386-110.42-9.054-162.148-5.017-65.461 5.016-130.122 12.973-196.213 16.713-43.94 2.426-107.806 6.016-138.05-13.097-31.31-19.875-22.846-53.408-19.031-76.104 5.184-31.173 18.194-63.028 12.338-94.444-5.259-27.413-32.219-39.41-74.612-56.12L153.64-170.762" stroke="url(#V)"/><path d="M1741.79 471.704c-108.6-36.872-240.63-53.304-354.42-85.945-85.68-24.528-91.43-56.815-113.69-99.037-20.05-38.036-74.97-58.77-145.66-77.391-31.86-8.334-64.85-15.633-96.85-24.023-33.527-8.764-60.879-20.002-92.622-29.889-46.341-14.386-108.922-10.29-161.334-7.093-65.114 4.011-129.427 10.963-194.908 13.688-44.052 1.812-107.188 4.319-137.387-14.548-31.078-19.327-23.562-51.522-19.944-73.838 4.86-30.045 17.26-60.885 11.079-91.173-5.575-26.967-33.422-38.743-75.101-55.172l-224.807-88.616" stroke="url(#W)"/><path d="M1724.35 481.377c-104.81-36.404-231.64-54.095-341.17-86.657-86.55-25.671-94.28-60.79-119.35-103.891-22.43-38.747-74.08-60.478-150.06-77.526-67.96-15.261-129.752-28.662-192.524-48.155-46.484-14.442-107.207-11.782-160.422-9.359-64.647 2.94-128.636 8.764-193.529 10.351-44.45 1.084-106.472 2.433-136.889-16.177-30.583-18.79-24.234-49.39-21.052-71.193 4.273-28.907 16.228-58.553 9.602-87.646-5.989-26.332-34.603-37.954-75.425-54.046l-224.808-88.615" stroke="url(#X)"/><path d="M1706.9 491.051c-100.6-35.889-222.11-54.907-327.25-87.333-87.59-26.992-97.55-64.934-125.19-109.047-24.83-39.581-73.29-62.677-154.74-77.774-70.07-13.01-132.626-22.602-195.946-42.197-46.769-14.555-105.229-13.286-159.412-11.815-64.059 1.802-127.889 6.319-192.172 6.891-45.516.321-104.748.259-136.151-17.941-30.523-17.739-25.07-47.437-22.137-68.425 3.828-27.712 15.075-56.153 8.027-83.93-6.524-25.629-36.168-37.086-75.991-52.783L101.131-141.92" stroke="url(#Y)"/><path d="M1689.45 500.726c-96.4-35.375-212.32-55.73-312.94-88.088-88.65-28.437-101.11-69.19-131.32-114.316-26.95-40.301-72.69-65.178-159.68-78.011-71.75-10.59-135.457-16.296-199.205-36.06-95.612-29.585-241.472-9.918-349.119-11.03-45.531-.483-104.055-1.75-135.412-19.704-30.029-17.202-25.96-45.048-23.343-65.59 3.405-26.395 14.064-53.698 6.594-80.156-7.058-24.927-37.852-36.153-76.533-51.4L83.684-132.245" stroke="url(#Z)"/><path d="M1672 510.398c-92.2-34.86-202.42-56.618-298.5-88.785-89.46-30.015-104.64-73.323-137.32-119.652-28.79-40.91-72.41-68.038-164.63-78.248-73.163-8.18-138.157-10.057-202.575-29.857-96.851-29.844-237.047-13.994-346.654-17.135-45.544-1.287-103.218-3.703-134.696-21.59-29.412-16.731-26.827-42.536-24.548-62.755 2.84-25.134 12.934-51.176 5.042-76.317-7.593-24.224-39.417-35.285-76.957-50.082L66.355-122.64" stroke="url(#a)"/><path d="M1654.56 520.072c-88.27-34.336-192.78-57.497-284.46-89.529-90.43-31.648-108.28-77.266-143.43-124.797-30.6-41.395-72.42-71.01-169.31-78.496-74.174-5.724-140.744-3.885-205.853-23.843-97.926-29.926-232.984-17.872-344.145-22.994-45.558-2.092-102.501-5.59-133.957-23.354-28.774-16.137-27.596-40.214-25.634-59.987 2.396-23.94 11.782-48.776 3.467-72.6-8.248-23.455-40.981-34.418-77.522-48.821L48.909-112.965" stroke="url(#b)"/><path d="M1637.1 529.744c-84.85-33.789-183.63-58.231-271.32-90.174-91.39-33.283-111.58-80.851-148.94-129.595-32-41.835-72.6-74.162-173.71-78.631-74.679-3.412-142.869 1.898-208.932-18.208-98.88-30.074-229.38-21.36-341.853-28.598-45.573-2.896-101.643-7.42-133.317-24.928-28.158-15.665-28.388-38.014-26.742-57.341 1.808-22.802 10.749-46.444 2.11-69.14-8.782-22.753-42.425-33.617-78.109-47.683L31.48-103.17" stroke="url(#c)"/><path d="M1619.66 539.419c-81.83-33.167-175.31-59.058-259.52-90.767-92.17-34.738-114.54-84.078-154.12-134.035-33.24-42.095-72.99-77.057-177.59-78.909-75.092-1.291-144.827 7.177-211.581-13.087-99.572-30.232-226.641-24.503-339.856-33.632-45.444-3.645-100.859-8.937-132.653-26.378-27.663-15.128-28.841-36.139-27.654-55.076 1.34-21.73 9.672-44.357.708-65.926-9.196-22.116-43.771-33.006-78.456-46.678L14.131-93.685" stroke="url(#d)"/><path d="M1602.21 549.093c-79.61-32.636-168.15-59.776-249.54-91.288-92.95-36.069-117.29-86.755-158.64-137.757-34.19-42.243-73.49-79.762-180.68-79.096-75.157.508-146.36 11.821-214.091-8.714-100.098-30.211-224.624-27.246-338.13-37.973-45.436-4.327-100.294-10.199-132.209-27.574-27.19-14.713-29.339-34.508-28.49-53.122.993-20.725 9.076-42.537-.498-63.09-10.038-21.65-44.591-32.417-78.847-45.92L-3.723-84.057" stroke="url(#e)"/><path d="M1584.76 558.766c-78.04-32.017-162.16-60.385-241.53-91.668-93.92-37.022-119.65-88.829-162.47-140.639-34.84-42.156-74.04-82.033-183.094-79.249-75.439 1.882-147.268 15.574-215.954-5.109-99.955-30.155-223.305-29.467-336.652-41.501-45.262-4.829-99.947-11.203-131.817-28.332-26.597-14.365-29.664-33.38-29.011-51.615.767-19.787 8.796-41.164-1.387-60.702-11.046-21.362-44.787-32.037-78.901-45.484L-20.863-74.149" stroke="url(#f)"/><path d="M1567.31 568.44c-77.52-31.356-158.02-60.921-236.02-92.011-94.7-37.672-121.48-90.119-165.35-142.568-35.06-41.899-74.34-83.754-184.185-79.453-76.026 3.02-147.542 18.433-217.37-2.7-99.549-30.109-222.928-31.03-335.642-43.956-44.924-5.152-99.774-11.706-131.644-28.834-26.288-14.13-29.671-32.699-29.5-50.667.33-19.274 7.968-39.892-2.126-58.939-11.407-21.161-44.907-31.97-79.021-45.417L-38.355-64.72" stroke="url(#g)"/><path d="M1549.86 578.114l-233.65-92.104c-95.64-37.697-122.65-90.693-167.23-143.424-34.97-41.407-74.52-84.738-184.208-79.576-76.966 3.677-146.965 20.145-217.934-1.438-98.738-30.017-223.348-31.88-335.198-45.15-44.683-5.286-100.037-11.696-131.643-28.835-26.147-14.073-29.244-32.53-29.577-50.354-.293-19.064 7.457-39.067-2.713-57.8-11.429-21.285-44.689-32.227-78.803-45.674L-55.903-54.857" stroke="url(#h)"/><path d="M1530.25 587.502c-79.86-29.653-152.6-63.119-230.87-93.516-94.36-36.508-123.07-89.374-168.33-140.777-36.43-41.412-74.85-83.611-184.431-79.32-75.643 2.943-144.475 17.816-214.356-2.881-100.391-29.642-222.281-31.118-335.138-44.1-44.661-5.163-99.894-11.639-131.118-28.855-25.477-14.038-29.574-32.889-30.41-50.569-.984-19.222 4.834-39.644-5.764-58.546-11.812-21.208-43.712-31.956-78.111-45.516L-73.086-45.193" stroke="url(#i)"/><path d="M1507.07 596.287c-81.1-29.232-146.87-65.886-224.94-96.662-90.93-35.84-123.11-85.967-169.64-135.585-38.09-40.355-76.44-80.699-183.298-78.188-73.74 1.752-139.457 14.086-207.054-5.711-100.753-29.442-221.629-29.719-334.901-42.065-44.999-4.84-99.541-11.158-131.05-28.487-25.62-14.094-30.738-33.462-33.032-51.145-2.39-19.662 1.092-40.549-10.626-59.778-12.865-21.166-43.832-31.89-78.374-45.505L-90.653-35.455" stroke="url(#j)"/><path d="M1480.75 604.518c-82.39-29.738-140.27-70.359-218.38-102.063-83.13-33.797-119.26-78.626-166-124.335-39.52-38.749-79.24-78.605-181.899-79.234-70.295-.428-135.251 10.265-198.857-9.442-94.921-29.426-214.761-28.382-323.518-38.492-47.179-4.443-103.143-9.838-137.764-26.796-27.943-13.754-35.902-33.442-40.413-51.657-5.079-20.608-4.581-41.872-16.477-62.085-12.79-21.478-43.08-32.848-78.478-46.801l-227.091-89.516" stroke="url(#k)"/><path d="M1451.59 612.428c-82.67-30.532-130.73-74.702-207.24-107.832-76.93-33.175-118.18-72.723-167.57-115.477-41.51-35.883-83.326-72.683-178.705-76.264-68.309-2.613-123.429 3.168-185.624-14.613-97.831-27.948-212.614-26.052-322.891-35.049-47.473-3.874-102.701-8.865-137.562-25.688-28.919-14.025-38.569-34.266-45.394-52.823-7.724-21.308-10.134-43.261-24.367-63.939-14.653-21.528-44.725-33.154-80.695-47.332l-227.091-89.516" stroke="url(#l)"/><path d="M1420.37 619.984c-80.51-31.052-117.57-76.711-188.07-111.69-34.36-16.968-68.99-31.076-97.98-50.61-28.72-19.421-53.78-39.917-80.86-59.837-44.39-32.795-89.353-64.33-176.762-70.705-61.617-4.427-110.29-3.98-164.686-20.4-95.477-28.846-217.405-23.26-325.901-31.213-44.302-3.195-95.262-7.302-129.622-22.102-31.911-13.72-44.852-34.573-54.54-53.574-11.203-22.222-16.993-45.28-33.127-66.935-16.276-21.711-46.189-34.644-82.73-49.048L-143.281-6.546" stroke="url(#m)"/><path d="M1387.65 627.293c-81.3-33.188-106.63-82.782-175.95-120.037-31.27-16.781-68.29-30.917-98.51-48.421-28.89-16.752-55.54-34.335-83.7-51.487-45.75-27.849-91.964-54.627-166.32-64.989-54.91-7.604-101.24-11.028-149.955-26.806-91.973-29.977-222.767-20.694-328.988-27.065-45.001-2.672-93.692-6.683-127.833-21.739-33.428-14.775-47.765-36.75-60.286-56.752-13.173-21.402-22.369-43.518-39.541-64.327-18.703-22.668-46.917-35.731-85.884-51.09L-160.975 3.262" stroke="url(#n)"/><path d="M1353.84 634.393c-81.03-35.366-94.35-88.1-160.81-127.884-27.96-16.727-66.16-30.073-98.06-45.157-29.13-13.769-57.17-28.015-85.94-41.983-48.407-23.533-96.878-47.433-160.814-61.678-47.082-10.454-88.317-20.088-132.133-33.708-93.11-28.94-222.185-17.496-328.378-22.258-45.152-2.046-93.325-5.397-127.828-20.253-35.073-15.081-52.243-38.058-67.363-58.515-16.366-22.203-29.019-45.112-48.978-66.677-21.093-22.697-50.231-36.466-90.054-52.163L-178.177 12.8" stroke="url(#o)"/><path d="M1319.62 641.449c-81.67-38.128-81.77-94.669-147.01-137.166-44.34-28.895-121.15-49.813-180.622-71.543-90.857-33.303-178.676-68.833-272.639-100.279-84.941-28.46-218.152-14.993-315.915-17.117-49.085-1.085-104.849-3.205-141.958-20.002-36.395-16.515-56.441-40.74-74.537-62.255-38.427-45.853-65.836-85.765-148.337-118.285L-195.34 22.585" stroke="url(#p)"/><path d="M1285.14 648.519c-81.94-41.089-68.54-101.326-133.1-146.637-39.49-27.664-116.58-41.386-176.964-56.514-60.386-15.129-113.276-33.466-158.493-57.682-29.376-15.803-57.02-34.462-93.585-46.821-84.678-28.47-222.523-11.351-319.152-12.343-45.267-.494-96.983-1.474-133.26-15.888-39.988-15.877-63.558-41.263-84.516-63.222-25.208-26.374-46.506-53.831-77.321-78.991-24.756-20.26-57.028-33.78-94.71-48.634l-227.092-89.516" stroke="url(#q)"/><path d="M1251.32 655.62c-82.5-44.164-54.9-107.937-119.41-155.851-38.92-28.926-116.99-34.247-181.106-43.654-62.897-9.269-115.602-25.136-147.775-52.657-22.878-19.406-38.502-39.719-77.771-53.828-36.865-13.276-87.513-13.494-131.955-13.091-63.351.597-126.271 5.016-189.69 5.244-46.997.194-95.194-1.112-132.207-15.93-38.441-15.381-62.794-39.249-85.129-60.039-53.793-50.197-93.648-96.613-187.139-133.466l-229.375-90.416" stroke="url(#r)"/><path d="M1218.61 662.927c-82.43-46.645-42.68-112.821-104.88-163.365-38.58-31.417-116.737-28.436-183.339-31.86-66.338-3.435-121.035-18.603-142.532-49.336-15.577-22.235-18.798-44.279-61.439-60.174-35.813-13.318-88.146-12.602-131.544-11.559-63.315 1.524-125.913 6.983-189.295 8.139-47.268.886-94.827.174-132.201-14.444-39.966-15.754-66.844-40.389-91.493-61.52-58.925-50.737-104.663-98.9-200.58-136.71L-248.07 51.682" stroke="url(#s)"/><path d="M1187.39 670.485c-83.47-49.452-29.84-118.718-93.4-171.624-40.47-33.757-121.816-21.421-187.859-19.603-66.57 1.839-121.402-14.068-133.42-45.858-8.939-23.613.464-49.813-45.964-66.859-39.622-14.59-103.269-11.257-149.381-9.116-53.456 2.557-106.365 7.384-160.031 9.516-50.628 2.073-107.006 3.136-146.955-13.981-41.542-17.86-70.328-42.79-98.02-65.349-60.971-49.602-111.083-97.778-205.716-135.081l-231.801-91.373" stroke="url(#t)"/><path d="M1158.49 678.384c-84.59-51.265-19.68-122.59-82.14-177.46-41.79-36.677-125.513-16.257-189.818-9.987-68.349 6.617-124.916-10.088-129.837-43.646-3.572-24.694 16.521-53.301-32.971-71.897-39.238-14.668-103.781-10.432-149.135-7.763-53.464 3.239-106.118 8.737-159.792 11.55-50.66 2.632-106.662 4.299-146.874-12.808-42.804-18.242-73.401-43.658-103.145-66.569-64.622-50.015-119.07-99.443-215.7-137.534l-231.802-91.373" stroke="url(#u)"/><path d="M1132.05 686.682c-83.76-51.051-16.06-121.619-69.57-177.526-41.21-42.955-123.449-18.755-190.969-7.588-68.43 11.265-132.228-4.409-131.36-40.365.73-26.537 29.152-55.97-23.713-76.352-35.782-13.876-91.899-10.656-134.742-8.025-64.468 3.923-127.482 12.186-192.129 15.126-41.783 1.907-87.517 2.485-121.827-10.582-49.845-19.078-84.098-48.56-117.566-73.739-67.674-50.76-126.91-99.565-225.682-138.5l-224.664-88.56" stroke="url(#v)"/><path d="M1108.87 695.469c-86.47-51.438-9.86-123.971-63.62-180.549-42.98-45.363-126.544-16.093-192.421-2.452-67.914 14.094-135.192-2.495-130.106-39.3 3.677-27.088 39.12-57.976-16.555-79.237-36.308-13.856-91.47-10.488-134.652-7.534-64.378 4.415-127.16 13.227-191.838 16.725-41.858 2.22-87.307 2.91-121.639-10.28-50.296-19.37-85.503-49-120.189-74.316C68.193 267.783 6.531 218.022-92.955 178.806l-224.665-88.56" stroke="url(#w)"/><path d="M1089.37 704.789c-90.474-50.846-5.74-125.312-60.98-182.017-45.799-47.046-127.698-15.179-193.524.194-66.714 15.594-137.8-2.268-130.467-39.1 5.549-27.72 45.442-58.909-13.096-80.614-37.24-13.88-90.846-10.698-134.915-7.523-64.454 4.728-126.883 14.021-191.659 17.709-41.956 2.41-87.284 3.033-121.518-10.347-49.958-19.692-85.405-49.189-120.617-74.484C51.906 278.028-10.8 227.627-110.429 188.355l-224.664-88.56" stroke="url(#x)"/><path d="M1073.98 714.817c-87.51-51.273-8.74-124.326-62.91-180.949-43.381-45.409-127.307-15.939-193.425-2.164-67.794 14.026-135.695-2.352-130.226-39.234 3.82-27.031 39.932-57.884-16.247-79.002-36.406-13.665-91.853-10.41-134.652-7.533-63.468 4.317-125.363 12.907-189.154 16.184-41.738 2.154-87.592 2.799-122.022-10.202-50.394-19.18-85.383-49.067-120.047-74.26-69.086-50.518-130.53-100.536-229.445-139.527-75.507-29.763-153.901-57.926-228.205-88.357" stroke="url(#y)"/><path d="M1062.25 725.375c-85.594-50.977-13.34-122.718-67.28-178.793-41.684-43.37-126.131-18.215-194.035-6.971-68.166 11.255-133.694-3.731-131.863-40.221 1.279-26.435 31.083-55.551-22.549-75.779-35.572-13.451-91.109-10.687-133.591-8.257-62.145 3.584-123.025 11.205-185.469 13.871-41.279 1.763-87.344 1.983-121.443-10.66-49.899-18.642-83.956-48.503-117.116-73.446-66.367-50.132-124.827-99.772-223.18-137.856-77.535-29.993-160.682-56.604-235.931-87.864" stroke="url(#z)"/><path d="M1053.8 736.428c-86.906-51.607-14.35-124.598-77.715-180.051-42.714-37.384-130.78-15.367-195.972-8.876-67.921 6.786-127.608-8.866-130.8-43.113-2.233-24.623 19.617-52.308-30.401-70.883-37.668-14.049-101.459-10.772-145.158-8.479-50.014 2.544-99.481 7.358-149.681 9.6-49.292 2.144-104.519 2.975-143.687-13.492-42.474-17.884-72.665-43.254-101.695-65.883-62.865-49.094-115.725-99.267-211.99-136.071-82.321-31.537-174.639-56.855-254.215-90.049" stroke="url(#AA)"/><path d="M1047.8 747.877c-86.271-50.331-21.79-121.825-86.102-175.94-41.642-35.135-130.097-20.349-197.607-17.853-66.315 2.51-125.538-12.045-135.488-44.846-7.195-23.497 4.889-48.069-41.704-65.294-71.46-26.456-204.994-6.04-286.506-4.041-48.658 1.252-102.509.913-140.7-15.283-41.047-17.321-69-42.037-95.692-64.202-58.071-48.231-105.513-97.752-200.63-132.62-86.478-31.805-185.584-55.12-268.496-89.172" stroke="url(#AB)"/><path d="M1044.12 759.664c-85.342-48.139-32.08-117.205-94.234-169.671-39.937-33.778-127.572-27.572-196.7-29.595-66.595-1.938-126.976-15.58-145.924-47.591-13.021-22.026-12.848-42.162-55.324-57.878-73.315-27.187-200.766-9.738-286.047-10.252-44.29-.223-88.458-2.68-123.263-16.285-39.087-15.293-64.92-39.289-88.166-59.98-54.883-48.915-96.244-99.235-194.196-132.938-91.048-31.438-196.011-52.723-282.576-87.188" stroke="url(#AC)"/><path d="M1041.95 771.704c-85.42-46.34-41.26-113.744-104.921-164.293-40.556-32.081-129.82-33.366-198.979-40.652-64.959-6.772-122.34-21.4-152.633-50.235-20.037-19.085-31.651-37.018-69.537-50.81-73.083-26.64-189.382-14.154-275.066-16.882-43.177-1.382-85.825-4.952-119.292-18.487-36.893-14.885-60.113-37.621-80.638-57.926-48.752-47.982-82.816-96.795-179.719-128.372-96.759-31.521-209.181-50.838-300.66-86.098" stroke="url(#AD)"/><path d="M1040.86 783.949c-84.964-43.88-51.857-108.677-114.775-157.336-40.706-31.455-130.495-40.709-198.709-52.987-65.614-11.825-120.746-28.648-165.42-54.248-26.182-15.001-49.673-31.224-83.232-43.083-72.476-25.486-176.014-18.587-260.809-23.703-40.462-2.481-83.343-6.599-115.097-19.459-38.035-15.335-59.57-39.005-78.004-60.198-41.305-47.101-68.745-92.275-164.508-121.234-102.479-30.922-221.066-48.446-317.37-84.011" stroke="url(#AE)"/><path d="M1040.45 796.228c-84.658-41.477-62.053-103.565-124.733-150.189-43.989-32.75-138.256-49.134-207.786-67.182-96.384-25.094-179.948-60.545-267.749-91.617-70.38-24.889-162.811-23.199-245.784-30.679-104.271-9.484-151.355-37.404-184.29-82.918-31.17-43.106-50.617-85.13-138.101-110.826-110.873-32.632-241.554-48.189-346.635-85.386" stroke="url(#AF)"/><path d="M1039.78 808.518c-84.241-39.14-71.876-98.53-134.603-143.232-48.722-34.73-146.108-58.05-216.976-81.991-55.347-18.735-105.899-44.597-169.52-57.12-42.876-8.454-78.245-14.976-116.808-28.123-72.627-24.861-158.026-27.476-242.144-39.061-90.897-12.43-135.415-37.17-160.288-79.164-26.043-44.053-36.353-84.644-127.814-109.624-116.834-31.9-253.703-45.787-363.871-83.278" stroke="url(#AG)"/><path d="M1038.7 820.761c-84.334-37.465-81.005-94.824-145.907-137.644-27.862-18.402-70.76-32.801-106.601-47.728-37.531-15.479-75.445-30.881-113.097-46.293-52.54-21.51-104.987-52.685-176.612-59.687-50.59-4.989-87.613-5.314-132.224-20.388-71.297-24.109-149.152-31.855-230.08-46.292-83.792-14.88-129.815-37.701-147.428-79.117-18.544-43.608-21.145-81.16-112.766-104.834-123.312-31.828-267.278-43.946-383.654-82.058" stroke="url(#AH)"/><path d="M1036.52 832.801c-83.447-35.518-89.568-90.21-154.54-131.231-29.2-18.473-71.729-33.753-106.238-50.096-37.979-17.938-75.476-36.144-113.215-54.216-52.378-24.984-107.854-62.604-189.27-64.449-55.729-1.192-95.989 3.256-144.86-13.383-68.509-23.353-140.692-35.597-216.74-52.333-75.499-16.634-126.117-37.044-137.366-76.978-5.502-19.29-3.18-39.263-14.303-58.145-13.276-22.698-44.656-34.953-88.438-45.477-128.604-31.06-277.871-41.729-398.665-80.099" stroke="url(#AI)"/><path d="M1032.84 844.589c-85.245-35.198-97.552-90.388-169.883-129.63-68.058-36.872-143.003-71.551-211.346-108.536-50.843-27.461-107.469-70.671-194.827-69.492-60.247.906-107.903 12.028-163.205-6.462-32.449-10.85-61.25-22.774-96.564-31.9-35.314-9.126-72.245-16.949-107.58-26.198-72.363-19.05-126.62-39.067-129.563-79.95-1.31-18.095 4.703-36.728-4.093-54.463-11.194-22.905-45.078-33.636-88.748-43.545-133.085-30.201-287.291-39.621-411.715-78.28" stroke="url(#AJ)"/><path d="M1027.1 856.028c-84.554-34.359-104.965-87.493-178.147-125.586-32.329-16.739-67.764-31.62-98.768-49.092-39.29-22.222-76.324-45.153-114.365-67.796-49.93-29.727-106.177-76.668-199.243-71.918-62.355 3.158-115.923 18.911-174.749-.739-32.02-10.681-60.091-23.687-93.721-33.747-33.651-10.183-68.438-19.33-101.97-29.579-66.776-20.387-125.009-39.689-120.55-79.937 1.786-17.103 11.562-34.709 5.389-51.867-8.278-22.897-44.222-33.298-87.014-42.747-137.459-30.213-297.468-38.04-425.733-77.413" stroke="url(#AK)"/><path d="M1018.53 867.146c-82.682-33.505-110.56-83.988-182.675-121.319-35.987-18.637-73.773-34.787-106.969-54.835-39.295-23.709-75.876-48.515-113.923-72.645-48.839-31.009-103.401-78.884-199.665-70.601-63.53 5.435-121.145 23.702-181.706 3.254-65.775-22.16-130.09-46.485-195.308-69.225-63.1-22.02-119.08-39.862-107.669-79.768 4.64-15.977 17.753-32.725 12.263-49.043-7.61-22.861-47.432-32.737-89.179-41.545-139.978-29.494-303.612-36.124-433.281-75.938" stroke="url(#AL)"/><path d="M1006.81 877.709c-81.104-33.568-115.146-82.258-187.173-119.096-36.535-18.74-74.178-34.834-106.817-55.462-39.948-25.106-76.249-51.287-114.564-76.892-47.824-31.978-102.985-81.688-201.303-71.589-64.764 6.661-125.449 27.713-188.008 6.478-65.37-22.115-127.27-48.456-190.3-72.274-60.031-22.637-120.799-39.856-104.038-79.478 6.594-15.436 22.23-31.416 18.123-47.418-5.723-22.688-48.002-32.962-88.631-41.443-142.104-29.534-310.107-34.69-440.887-75.512" stroke="url(#AM)"/><path d="M991.532 887.666c-78.802-34.031-117.881-81.282-189.239-118.085-36.272-18.75-73.99-34.531-106.367-55.17-40.487-25.89-76.584-53.132-114.936-79.664-46.366-31.974-103.209-82.917-200.942-71.789-66.208 7.461-126.865 30.123-191.422 8.099C123.212 548.696 63.041 521.668.952 497.193c-58.236-22.956-124.416-39.341-103.709-79.12 7.736-14.985 25.447-30.491 21.888-46.39-5.01-22.407-48.882-33.423-88.819-41.746-142.533-29.702-314.355-33.282-444.547-75.242" stroke="url(#AN)"/><path d="M974.087 897.338c-81.289-33.869-117.766-82.834-190.243-119.965-36.25-18.626-73.509-34.797-105.984-55.246-40.09-25.163-76.819-51.512-115.278-77.174-48.394-32.203-102.511-81.273-201.16-71.532-65.071 6.425-127.161 27.037-189.939 6.058-65.181-21.812-125.976-48.63-187.931-72.367-59.266-22.791-123.409-39.629-103.896-79.422 7.548-15.288 24.786-31.208 21.061-47.287-5.272-22.397-49.024-33.479-88.698-41.812-142.127-29.657-314.349-31.796-443.436-74.234" stroke="url(#AO)"/><path d="M956.635 907.012c-84.318-34.492-118.349-86.032-192.629-124.329-35.821-18.458-72.983-34.819-105.992-54.565-39.866-23.933-77.115-48.775-115.733-73.13-50.574-31.807-102.838-77.977-200.642-70.872-64.454 4.728-126.096 21.979-186.853 1.911C90.22 564.685 28.62 539.262-33.847 516.35c-29.247-10.73-68.045-22.256-90.847-36.153-22.329-13.482-21.057-27.591-13.906-43.606 6.933-15.759 23.795-32.284 19.598-48.778-5.678-22.442-48.52-33.622-88.983-41.924-141.369-29.13-313.398-29.481-441.29-71.904" stroke="url(#AP)"/><path d="M939.189 916.686c-87.622-35.909-119.704-90.561-196.161-130.63-76.171-39.957-150.674-79.484-222.687-121.34-52.763-30.729-104.497-73.266-199.674-69.919-63.969 2.293-124.126 15.336-182.359-3.966-63.732-21.127-125.958-44.172-189.374-65.745-29.66-10.094-68.437-21.498-90.931-35.159-22.779-13.773-21.477-28.442-15.062-44.861 6.415-16.42 22.474-33.718 17.661-50.682-6.369-22.601-47.896-33.834-89.148-42.104-140.28-28.244-311.259-26.469-437.889-68.509" stroke="url(#AQ)"/><path d="M921.741 926.36c-91.303-37.931-121.787-96.176-200.796-138.621-71.694-38.648-150.8-75.082-223.885-113.364-55.244-29.083-107.269-67.397-198.232-68.553-63.072-.777-121.231 7.232-176.961-11.426-62.92-21.036-125.88-40.831-190.222-60.943-30.052-9.335-68.881-20.303-91.353-33.841-23.373-14.122-22.085-29.595-16.669-46.408 5.612-17.193 20.845-35.387 15.372-53.069-6.941-22.825-46.889-34.121-89.479-42.462-138.74-27.066-308.505-22.986-433.805-64.273" stroke="url(#AR)"/><path d="M904.291 936.031c-95.073-40.445-124.552-102.632-205.941-147.955-66.93-37.227-151.197-69.987-225.405-104.262-58.021-26.866-111.246-60.859-196.506-67.072-61.354-4.438-117.605-1.955-170.57-19.98-61.868-21.077-125.591-37.064-191.319-55.325-30.564-8.51-69.424-18.919-91.73-32.278-24.086-14.403-23.143-31.038-18.485-48.379 4.786-18.089 18.908-37.292 12.774-55.691-7.797-23.163-45.784-34.598-89.666-42.764-137.277-25.576-305.113-18.909-428.919-59.265" stroke="url(#AS)"/><path d="M886.842 945.704c-98.933-43.45-127.836-109.748-211.814-158.375-62.332-35.985-151.504-64.4-227.011-94.164-61.09-24.081-116.086-53.978-194.47-65.357-58.245-8.463-113.062-11.921-163.427-29.492-60.981-21.298-125.52-33.041-192.588-49.205-31.174-7.494-69.922-17.289-92.184-30.402-24.8-14.684-24.508-32.718-20.587-50.463 4.224-18.996 17.069-39.387 9.989-58.615-8.51-23.444-44.558-35.143-90.139-43.179-135.527-23.974-301.149-14.608-423.536-53.719" stroke="url(#AT)"/><path d="M869.396 955.379c-102.837-46.701-131.21-117.355-218.062-169.398-58.612-35.203-151.338-58.399-228.789-83.565-64.476-20.849-121.498-47.322-192.271-63.462-54.467-12.453-107.247-22.186-155.99-39.573-60.093-21.519-125.81-28.818-193.767-42.593-31.905-6.413-70.376-15.413-92.758-28.459-25.656-15.022-26.017-34.455-22.733-52.794 7.816-45.089 27.375-86.804-83.431-105.256-133.756-22.248-296.856-9.947-417.966-47.87" stroke="url(#AU)"/><path d="M851.947 965.053c-106.523-50.208-134.868-125.075-224.52-180.846-56.342-35.108-150.217-52.251-230.62-72.53-69.156-17.444-126-40.764-189.951-61.635-50.284-16.397-99.952-32.323-148.213-49.977-59.328-21.674-126.388-24.708-195.189-35.848-32.635-5.331-70.949-13.47-93.308-26.393-26.799-15.472-27.286-36.325-25.144-55.114 5.163-45.107 25.878-91.389-86.997-108.83-132.104-20.455-292.396-5.107-412.088-41.787" stroke="url(#AV)"/><path d="M834.5 974.726c-110.33-53.649-138.527-132.796-230.834-192.24-55.688-35.877-148.452-46.189-232.596-61.551-135.256-24.665-217.468-78.874-328.188-120.121-58.703-21.884-127.346-20.52-196.347-29.113-91.101-11.369-124.085-38.982-121.15-81.771 2.939-44.957 24.26-95.909-90.562-112.405-130.19-18.673-287.817-.335-406.09-35.77" stroke="url(#AW)"/><path d="M817.051 984.399C703.32 927.355 674.91 844.13 579.825 781.08c-56.22-37.343-146.27-40.764-234.373-50.952-82.137-9.434-131.893-28.019-185.288-57.856-42.474-23.706-81.224-50.966-132.88-70.529-58.485-22.14-128.734-16.501-197.67-22.557-95.463-8.409-124.844-39.51-123.99-82.092.856-44.75 22.619-100.55-93.843-115.867-128.418-16.947-283.381 4.382-400.377-29.865" stroke="url(#AX)"/><path d="M799.605 994.071c-117.35-60.183-145.545-147.319-243.098-213.739-57.609-39.145-144.75-36.055-236.1-40.788-37.862-2.026-78.579-5.177-110.073-15.88-29.518-10.037-52.865-26.203-73.179-40.261-38.924-26.757-71.467-59.218-125.88-80.096-58.266-22.398-130.429-12.718-198.796-16.382-99.278-5.346-125.746-40.093-126.568-82.423-.82-44.498 20.76-104.935-96.958-119.149-126.932-15.334-278.99 8.853-394.995-24.319" stroke="url(#AY)"/><path d="M782.157 1003.75c-120.495-62.91-148.574-153.766-248.386-223.131-59.304-41.184-144.153-32.054-237.477-31.629-37.459.187-78.848-.832-110.703-11.334-30.592-10.118-52.72-28.315-70.944-43.26-35.545-29.308-62.34-66.58-119.368-88.717-58.717-22.689-132.027-9.124-200.013-10.697-102.303-2.316-126.669-40.8-128.86-82.642-2.354-44.189 19.089-109.018-100.028-122.186-125.491-13.967-275.169 13.099-390.109-19.31" stroke="url(#AZ)"/><path d="M764.705 1013.42c-123.551-65.138-150.919-159.367-252.9-231.185-61.407-43.268-144.481-28.758-238.675-23.654-37.123 2.032-78.822 2.946-111.06-7.479-31.667-10.2-52.771-30.048-69.024-45.815-32.748-31.4-54.232-72.971-113.97-96.177-59.311-23.037-133.332-6.1-200.982-5.828-104.605.316-127.329-41.516-130.768-82.937-3.625-43.891 17.53-112.487-102.506-124.875-124.214-12.779-271.701 16.863-386.002-14.952" stroke="url(#Aa)"/><path d="M747.261 1023.09C620.765 956.336 594.46 859.216 490.805 785.483c-30-21.415-58.203-31.504-113.942-29.848-42.827 1.268-83.864 8.72-125.672 12.672-36.854 3.508-78.427 5.841-111.334-4.62-32.644-10.47-52.589-31.231-67.76-47.598C41.69 682.985 24.765 638.074-37.4 613.912c-60.31-23.431-134.199-3.588-201.723-1.897-106.306 2.613-127.892-42.423-132.151-83.254-4.511-43.67 16.083-115.34-104.75-127.015-123.268-11.949-269.134 20.043-382.601-11.557" stroke="url(#Ab)"/><path d="M729.814 1032.77c-129.261-67.394-153.79-167.124-258.841-241.979-29.836-21.235-58.195-32.185-113.831-29.232-43.699 2.293-84.16 11.456-126.127 16.715-37.299 4.703-77.783 7.921-111.689-2.933-33.62-10.742-52.656-31.601-67.03-48.681-28.79-34.406-42.008-81.508-106.292-106.391-61.714-23.871-134.41-1.846-202.281.85-107.211 4.197-128.049-43.284-132.865-83.535-5.158-43.582 15.055-117.343-106.237-128.628-122.795-11.535-267.206 22.629-380.312-9.171" stroke="url(#Ac)"/><path d="M712.365 1042.44c-65.709-33.43-100.401-79.869-137.451-121.07-36.862-40.898-69.925-85.664-122.68-122.896-29.362-20.82-58.427-32.734-113.567-29.243-44.136 2.806-84.373 13.199-126.446 19.33C.946 819.311 41.372 671.789-71.262 628.76c-63.789-24.346-133.585-.949-202.682 2.291-107.437 5.135-127.822-44.222-133.052-83.838-5.706-43.684 14.493-118.25-107.228-129.703-122.794-11.535-266.486 24.397-379.32-8.096" stroke="url(#Ad)"/><path d="M694.68 1050.08c-127.442-67.586-153.708-165.947-258.069-240.643-29.692-21.179-57.674-33.693-113.987-30.093-44.256 2.873-84.756 13.276-127.092 19.417C-16.773 829.676 25.668 681.579-87.492 638.57c-63.766-24.222-134.923-1.019-204.283 2.231-107.339 4.945-127.657-44.042-132.789-83.848-5.443-43.695 14.733-118.383-106.844-129.78-122.795-11.535-266.825 24.72-379.562-7.963" stroke="url(#Ae)"/><path d="M676.537 1053.77c-123.768-67.048-151.248-161.892-255.798-234.723-27.306-18.982-54.213-31.414-105.203-29.141-44.939 2.033-86.972 12.745-129.241 19.255-220.997 34.109-170.39-117.162-287.488-160.695-61.964-23.055-133.471-2.502-200.952 1.603-107.574 6.565-133.338-38.862-139.002-80.133-5.947-43.551 17.63-120.666-103.601-133.068-124.071-12.723-269.148 25.06-383.552-8.051" stroke="url(#Af)"/><path d="M657.914 1054.08C539.562 989.847 509.987 900.227 408.98 830.848c-27.426-18.916-54.431-31.159-105.301-28.952-45.345 1.987-87.641 12.709-130.436 19.24C-50.768 855.427 4.996 702.651-113.101 658.724c-62.534-23.28-136.957-2.735-205.416 1.099-108.452 6.104-134.443-38.385-139.836-80.347-5.683-43.562 18.517-120.888-102.976-133.279-124.335-12.712-269.87 25.46-384.417-7.707" stroke="url(#Ag)"/><path d="M639.035 1051.55c-109.647-58.634-143.968-139.395-233.271-204.161-29.144-21.076-59.032-36.054-116.178-32.669-46.263 2.767-88.966 13.443-132.978 19.837-219.68 31.889-164.98-121.65-279.569-165.221-63.195-23.997-143.24-3.043-213.224.419-104.663 5.086-132.755-35.665-138.606-77.238-6.045-43.362 20.985-123.339-99.373-136.767-125.753-13.956-272.576 25.878-388.912-7.652" stroke="url(#Ah)"/><path d="M619.76 1046.8c-104.632-54.368-138.042-129.405-225.494-189.104-29.799-20.307-62.651-33.371-117.724-29.511-47.225 3.3-90.552 14.187-135.924 20.387-218.625 29.68-157.685-125.965-272.259-168.731-65.675-24.519-149.487-2.423-222.303.036-109.141 3.778-132.865-38.448-138.053-81.472-5.085-41.727 20.409-119.228-94.732-133.111-127.458-15.313-275.403 26.362-393.79-7.52" stroke="url(#Ai)"/><path d="M600.425 1040.32c-98.813-49.336-131.607-118.081-216.526-171.873-31.596-19.988-64.811-30.684-119.651-26.276-44.265 3.555-85.019 13.287-127.663 19.192C-92.655 893.137-21.109 736.08-139.453 690.8c-63.931-24.401-150.491-4.303-222.143-1.271-39.438 1.691-80.983-.189-109.323-14.671-35.183-17.864-36.539-47.848-38.414-70.503-3.545-40.55 20.096-115.128-90.092-129.455-129.064-16.86-277.965 26.834-398.667-7.389" stroke="url(#Aj)"/><path d="M580.893 1032.74c-92.521-43.893-125.255-105.765-206.641-153.256-69.97-40.823-152.189-17.985-240.839-4.988-241.569 35.36-156.504-126.755-279.807-173.077-65.84-24.697-158.638-4.661-232.462-1.914-37.114 1.351-76.608-.177-104.996-12.737-37.92-16.888-40.283-46.584-42.301-69.296-4.186-44.798 23.832-121.532-99.856-134.332-126.265-13.131-272.374 26.984-389.791-5.945" stroke="url(#Ak)"/><path d="M561.394 1024.59c-85.635-38.091-118.912-92.757-196.315-133.655-72.723-38.483-158.672-13.578-246.163-1.494-237.403 32.779-152.464-130.756-272.017-176.854-67.116-25.886-166.544-5.152-242.825-2.803-39.001 1.177-79.177-1.191-107.361-14.811-33.719-16.374-36.793-42.698-38.992-64.225-4.458-44.106 26.638-124.307-95.771-138.086-127.97-14.488-275.321 27.534-394.91-5.681" stroke="url(#Al)"/><path d="M541.744 1016.39c-78.104-32.383-113.291-79.355-185.801-113.759-76.574-36.348-163.668-9.726-251.819 1.642-235.46 30.348-145.235-135.44-263.646-181.089-65.832-25.379-167.46-6.54-242.479-3.808-42.376 1.56-91.933.06-122.165-16.081-32.584-17.409-33.558-45.303-35.276-67.097-3.445-42.908 26.249-119.894-90.966-134.252-129.697-15.967-278.125 28.142-400.172-5.471" stroke="url(#Am)"/><path d="M522.195 1008.69c-67.665-25.992-105.344-62.647-167.677-90.642-80.663-36.248-160.808-12.936-253.32-.776-248.3 32.593-144.454-134.79-268.236-183.012-70.444-27.426-183.823-5.457-264.724-4.473-36.483.459-77.832-1.801-105.167-14.402-39.174-17.953-38.596-49.686-39.741-73.424-1.978-43.584 25.387-121.717-99.837-132.041-127.373-10.485-273.278 28.569-391.493-3.648" stroke="url(#An)"/><path d="M502.843 1002.08c-59.786-21.28-101.337-50.101-158.431-72.607-35.827-14.122-67.911-21.518-115.76-18.007-45.099 3.339-87.281 12.509-130.692 18.569-259.435 36.194-145.927-135.599-272.247-185.392-68.655-27.063-184.332-6.799-263.258-5.15-42.104.867-88.933-.927-119.272-16.196-34.567-17.393-35.489-45.722-36.65-68.096-2.197-43.328 29.366-124.601-95.39-135.996-129.056-11.719-276.511 29.007-396.753-3.439" stroke="url(#Ao)"/><path d="M483.682 997.27c-49.803-16.663-93.642-36.227-142.362-53.491-40.937-14.539-72.959-23.053-126.462-18.574-45.798 3.863-88.89 13.131-133.518 19.053-254.502 33.459-140.473-139.841-264.487-188.611-70.797-27.907-190.352-7.117-272.591-6.204-42.172.499-92.301-1.226-121.646-17.588-29.773-16.53-31.224-42.671-32.553-63.056-2.655-42.939 32.677-127.519-90.943-139.95-130.782-13.2-279.458 29.557-401.75-3.241" stroke="url(#Ap)"/><path d="M464.781 994.615c-44.048-14.167-90.828-25.872-135.456-39.583-39.722-12.233-66.942-20.566-116.745-17.597-51.623 3.165-99.421 14.23-149.574 20.372-249.568 30.724-134.305-143.802-255.817-191.928-71.818-28.424-199.078-7.018-282.437-6.432-39.037.25-85.889-1.667-115.026-15.436-36.53-17.253-35.803-47.443-36.822-69.761-1.981-41.417 31.447-122.64-86.476-135.792-132.532-14.802-282.164 29.974-406.778-3.165" stroke="url(#Aq)"/><path d="M446.113 994.674c-41.502-13.278-86.089-16.585-128.45-28.032-41.669-11.289-65.845-20.362-116.82-17.285-51.886 3.176-100.21 14.262-150.626 20.414-252.342 30.769-132.304-145.182-254.673-193.646-72.532-28.705-202.588-7.374-286.9-6.936-39.181.194-86.941-1.625-116.244-15.573-36.409-17.319-35.683-47.51-36.581-69.894-1.718-41.428 32.333-122.861-85.853-136.003-132.915-14.725-282.886 30.374-407.786-2.877" stroke="url(#Ar)"/><path d="M427.928 998.121c-26.235-8.743-44.178-13.419-75.021-14.733-18.42-.755-31.325-1.047-48.411-5.385-43.158-10.734-64.311-20.671-116.985-17.464-52.291 3.131-100.88 14.227-151.558 20.389C-218.23 1011.77-94.667 834.813-217.99 786.2c-73.08-28.807-205.142-7.582-290.147-7.302-39.465.081-87.204-1.615-116.912-15.608-36.552-17.376-35.562-47.577-36.461-69.962-1.454-41.438 32.958-123.071-85.348-136.146-132.915-14.725-283.492 30.708-408.402-2.667" stroke="url(#As)"/><path d="M410.197 1005.52c-27.654-9.992-42.131-14.557-74.774-13.385-19.61.717-29.441 1.294-48.338-3.53-38.341-9.749-59.959-20.781-107.244-18.531-53.072 2.479-102.69 13.74-153.729 20.103-263.482 32.883-134.126-142.818-260.55-193.908-69.789-28.195-198.625-8.894-280.699-7.802-44.945.547-97.615-.581-129.8-17.264-35.701-18.524-34.065-48.813-34.091-72.223-.254-39.937 30.983-117.914-80.979-131.799-134.183-16.594-285.713 30.859-412.563-2.935" stroke="url(#At)"/></g><defs><radialGradient id="B" cx="0" cy="0" r="1" gradientTransform="matrix(-802.81072 -316.46218 28.5464 -72.41738 1218.83 .097)" xlink:href="#Au"><stop stop-color="#002dff"/><stop offset=".685" stop-color="#fff"/><stop offset="1" stop-color="#0e1430"/></radialGradient><radialGradient id="C" cx="0" cy="0" r="1" gradientTransform="matrix(-802.81072 -316.46218 28.63816 -72.65015 1201.02 9.966)" xlink:href="#Au"><stop stop-color="#002dff"/><stop offset=".685" stop-color="#fff"/><stop offset="1" stop-color="#0e1430"/></radialGradient><radialGradient id="D" cx="0" cy="0" r="1" gradientTransform="rotate(-158.486 593.214 -102.287) scale(863.009 78.8723)" xlink:href="#Au"><stop stop-color="#002dff"/><stop offset=".685" stop-color="#fff"/><stop offset="1" stop-color="#0e1430"/></radialGradient><radialGradient id="E" cx="0" cy="0" r="1" gradientTransform="rotate(-158.486 584.903 -95.369) scale(863.009 79.9829)" xlink:href="#Au"><stop stop-color="#002dff"/><stop offset=".685" stop-color="#fff"/><stop offset="1" stop-color="#0e1430"/></radialGradient><radialGradient id="F" cx="0" cy="0" r="1" gradientTransform="matrix(-802.95306 -316.51829 29.80711 -75.61557 1144.98 40.901)" xlink:href="#Au"><stop stop-color="#002dff"/><stop offset=".685" stop-color="#fff"/><stop offset="1" stop-color="#0e1430"/></radialGradient><radialGradient id="G" cx="0" cy="0" r="1" gradientTransform="rotate(-158.486 567.766 -81.112) scale(863.009 82.98)" xlink:href="#Au"><stop stop-color="#002dff"/><stop offset=".685" stop-color="#fff"/><stop offset="1" stop-color="#0e1430"/></radialGradient><radialGradient id="H" cx="0" cy="0" r="1" gradientTransform="rotate(-158.486 559.11 -73.908) scale(863.009 84.7589)" xlink:href="#Au"><stop stop-color="#002dff"/><stop offset=".685" stop-color="#fff"/><stop offset="1" stop-color="#0e1430"/></radialGradient><radialGradient id="I" cx="0" cy="0" r="1" gradientTransform="rotate(-158.486 550.338 -66.609) scale(863.009 86.7336)" xlink:href="#Au"><stop stop-color="#002dff"/><stop offset=".685" stop-color="#fff"/><stop offset="1" stop-color="#0e1430"/></radialGradient><radialGradient id="J" cx="0" cy="0" r="1" gradientTransform="rotate(-158.486 541.608 -59.307) scale(862.933 88.7241)" xlink:href="#Au"><stop stop-color="#002dff"/><stop offset=".685" stop-color="#fff"/><stop offset="1" stop-color="#0e1430"/></radialGradient><radialGradient id="K" cx="0" cy="0" r="1" gradientTransform="matrix(-802.81072 -316.46218 33.28241 -84.43182 1047.59 95.033)" xlink:href="#Au"><stop stop-color="#002dff"/><stop offset=".685" stop-color="#fff"/><stop offset="1" stop-color="#0e1430"/></radialGradient><radialGradient id="L" cx="0" cy="0" r="1" gradientTransform="matrix(-802.81072 -316.46218 34.02115 -86.30588 1027.97 105.912)" xlink:href="#Au"><stop stop-color="#002dff"/><stop offset=".685" stop-color="#fff"/><stop offset="1" stop-color="#0e1430"/></radialGradient><radialGradient id="M" cx="0" cy="0" r="1" gradientTransform="matrix(-802.88143 -316.49005 34.7168 -88.07062 1008.4 116.689)" xlink:href="#Au"><stop stop-color="#002dff"/><stop offset=".685" stop-color="#fff"/><stop offset="1" stop-color="#0e1430"/></radialGradient><radialGradient id="N" cx="0" cy="0" r="1" gradientTransform="matrix(-802.81072 -316.46218 35.31644 -89.5918 989.248 127.377)" xlink:href="#Au"><stop stop-color="#002dff"/><stop offset=".685" stop-color="#fff"/><stop offset="1" stop-color="#0e1430"/></radialGradient><radialGradient id="O" cx="0" cy="0" r="1" gradientTransform="matrix(-802.88143 -316.49005 35.84405 -90.93026 970.271 137.832)" xlink:href="#Au"><stop stop-color="#002dff"/><stop offset=".685" stop-color="#fff"/><stop offset="1" stop-color="#0e1430"/></radialGradient><radialGradient id="P" cx="0" cy="0" r="1" gradientTransform="rotate(-158.486 489.947 -16.244) scale(862.779 98.8002)" xlink:href="#Au"><stop stop-color="#002dff"/><stop offset=".685" stop-color="#fff"/><stop offset="1" stop-color="#0e1430"/></radialGradient><radialGradient id="Q" cx="0" cy="0" r="1" gradientTransform="matrix(-802.81072 -316.46218 36.4633 -92.5012 933.515 158.278)" xlink:href="#Au"><stop stop-color="#002dff"/><stop offset=".685" stop-color="#fff"/><stop offset="1" stop-color="#0e1430"/></radialGradient><radialGradient id="R" cx="0" cy="0" r="1" gradientTransform="matrix(-802.95306 -316.51829 36.54883 -92.71816 915.433 168.168)" xlink:href="#Au"><stop stop-color="#002dff"/><stop offset=".685" stop-color="#fff"/><stop offset="1" stop-color="#0e1430"/></radialGradient><radialGradient id="S" cx="0" cy="0" r="1" gradientTransform="rotate(-158.486 466.303 3.312) scale(863.009 99.2317)" xlink:href="#Au"><stop stop-color="#002dff"/><stop offset=".685" stop-color="#fff"/><stop offset="1" stop-color="#0e1430"/></radialGradient><radialGradient id="T" cx="0" cy="0" r="1" gradientTransform="matrix(-802.81072 -316.46218 36.43991 -92.44185 885.279 185.021)" xlink:href="#Au"><stop stop-color="#002dff"/><stop offset=".685" stop-color="#fff"/><stop offset="1" stop-color="#0e1430"/></radialGradient><radialGradient id="U" cx="0" cy="0" r="1" gradientTransform="matrix(-802.95306 -316.51829 36.45869 -92.48949 873.024 191.681)" xlink:href="#Au"><stop stop-color="#002dff"/><stop offset=".685" stop-color="#fff"/><stop offset="1" stop-color="#0e1430"/></radialGradient><radialGradient id="V" cx="0" cy="0" r="1" gradientTransform="matrix(-802.73909 -316.43394 36.5142 -92.63034 862.849 197.524)" xlink:href="#Au"><stop stop-color="#002dff"/><stop offset=".685" stop-color="#fff"/><stop offset="1" stop-color="#0e1430"/></radialGradient><radialGradient id="W" cx="0" cy="0" r="1" gradientTransform="matrix(-802.88143 -316.49005 36.5405 -92.69704 853.543 202.547)" xlink:href="#Au"><stop stop-color="#002dff"/><stop offset=".685" stop-color="#fff"/><stop offset="1" stop-color="#0e1430"/></radialGradient><radialGradient id="X" cx="0" cy="0" r="1" gradientTransform="rotate(-158.486 442.347 23.283) scale(862.933 99.9339)" xlink:href="#Au"><stop stop-color="#002dff"/><stop offset=".685" stop-color="#fff"/><stop offset="1" stop-color="#0e1430"/></radialGradient><radialGradient id="Y" cx="0" cy="0" r="1" gradientTransform="matrix(-802.88143 -316.49005 36.74143 -93.20677 837.767 211.295)" xlink:href="#Au"><stop stop-color="#002dff"/><stop offset=".685" stop-color="#fff"/><stop offset="1" stop-color="#0e1430"/></radialGradient><radialGradient id="Z" cx="0" cy="0" r="1" gradientTransform="rotate(-158.486 435.696 28.779) scale(863.009 100.538)" xlink:href="#Au"><stop stop-color="#002dff"/><stop offset=".685" stop-color="#fff"/><stop offset="1" stop-color="#0e1430"/></radialGradient><radialGradient id="a" cx="0" cy="0" r="1" gradientTransform="rotate(-158.486 432.507 31.432) scale(863.009 100.955)" xlink:href="#Au"><stop stop-color="#002dff"/><stop offset=".685" stop-color="#fff"/><stop offset="1" stop-color="#0e1430"/></radialGradient><radialGradient id="b" cx="0" cy="0" r="1" gradientTransform="rotate(-158.486 429.157 34.22) scale(863.009 101.368)" xlink:href="#Au"><stop stop-color="#002dff"/><stop offset=".685" stop-color="#fff"/><stop offset="1" stop-color="#0e1430"/></radialGradient><radialGradient id="c" cx="0" cy="0" r="1" gradientTransform="matrix(-802.81072 -316.46218 37.34764 -94.7446 807.859 227.942)" xlink:href="#Au"><stop stop-color="#002dff"/><stop offset=".685" stop-color="#fff"/><stop offset="1" stop-color="#0e1430"/></radialGradient><radialGradient id="d" cx="0" cy="0" r="1" gradientTransform="rotate(-158.486 421.57 40.53) scale(863.009 102.183)" xlink:href="#Au"><stop stop-color="#002dff"/><stop offset=".685" stop-color="#fff"/><stop offset="1" stop-color="#0e1430"/></radialGradient><radialGradient id="e" cx="0" cy="0" r="1" gradientTransform="rotate(-158.486 416.892 44.346) scale(863.163 102.553)" xlink:href="#Au"><stop stop-color="#002dff"/><stop offset=".685" stop-color="#fff"/><stop offset="1" stop-color="#0e1430"/></radialGradient><radialGradient id="f" cx="0" cy="0" r="1" gradientTransform="matrix(-802.81072 -316.46218 37.72537 -95.70284 776.706 245.215)" xlink:href="#Au"><stop stop-color="#002dff"/><stop offset=".685" stop-color="#fff"/><stop offset="1" stop-color="#0e1430"/></radialGradient><radialGradient id="g" cx="0" cy="0" r="1" gradientTransform="matrix(-802.95306 -316.51829 37.77964 -95.84053 763.008 252.675)" xlink:href="#Au"><stop stop-color="#002dff"/><stop offset=".685" stop-color="#fff"/><stop offset="1" stop-color="#0e1430"/></radialGradient><radialGradient id="h" cx="0" cy="0" r="1" gradientTransform="rotate(-158.486 398.34 59.86) scale(863.009 103.163)" xlink:href="#Au"><stop stop-color="#002dff"/><stop offset=".685" stop-color="#fff"/><stop offset="1" stop-color="#0e1430"/></radialGradient><radialGradient id="i" cx="0" cy="0" r="1" gradientTransform="matrix(-802.02552 -316.15266 37.42172 -94.93253 728.058 271.444)" xlink:href="#Au"><stop stop-color="#002dff"/><stop offset=".685" stop-color="#fff"/><stop offset="1" stop-color="#0e1430"/></radialGradient><radialGradient id="j" cx="0" cy="0" r="1" gradientTransform="rotate(-158.486 380.238 73.354) scale(859.787 99.7598)" xlink:href="#Au"><stop stop-color="#002dff"/><stop offset=".685" stop-color="#fff"/><stop offset="1" stop-color="#0e1430"/></radialGradient><radialGradient id="k" cx="0" cy="0" r="1" gradientTransform="matrix(-796.60171 -314.01463 35.33983 -89.65115 684.231 290.46)" xlink:href="#Au"><stop stop-color="#002dff"/><stop offset=".685" stop-color="#fff"/><stop offset="1" stop-color="#0e1430"/></radialGradient><radialGradient id="l" cx="0" cy="0" r="1" gradientTransform="rotate(-158.486 358.537 87.177) scale(851.502 92.0887)" xlink:href="#Au"><stop stop-color="#002dff"/><stop offset=".685" stop-color="#fff"/><stop offset="1" stop-color="#0e1430"/></radialGradient><radialGradient id="m" cx="0" cy="0" r="1" gradientTransform="rotate(-158.486 346.588 94.218) scale(846.132 87.0036)" xlink:href="#Au"><stop stop-color="#002dff"/><stop offset=".685" stop-color="#fff"/><stop offset="1" stop-color="#0e1430"/></radialGradient><radialGradient id="n" cx="0" cy="0" r="1" gradientTransform="matrix(-781.47086 -308.05016 29.84631 -75.71502 608.268 318.089)" xlink:href="#Au"><stop stop-color="#002dff"/><stop offset=".685" stop-color="#fff"/><stop offset="1" stop-color="#0e1430"/></radialGradient><radialGradient id="o" cx="0" cy="0" r="1" gradientTransform="rotate(-158.486 321.829 108.31) scale(833.398 75.5695)" xlink:href="#Au"><stop stop-color="#002dff"/><stop offset=".685" stop-color="#fff"/><stop offset="1" stop-color="#0e1430"/></radialGradient><radialGradient id="p" cx="0" cy="0" r="1" gradientTransform="rotate(-158.486 310.71 114.19) scale(826.494 72.5461)" xlink:href="#Au"><stop stop-color="#002dff"/><stop offset=".685" stop-color="#fff"/><stop offset="1" stop-color="#0e1430"/></radialGradient><radialGradient id="q" cx="0" cy="0" r="1" gradientTransform="rotate(-158.486 302.409 117.57) scale(819.744 75.5721)" xlink:href="#Au"><stop stop-color="#002dff"/><stop offset=".685" stop-color="#fff"/><stop offset="1" stop-color="#0e1430"/></radialGradient><radialGradient id="r" cx="0" cy="0" r="1" gradientTransform="rotate(-158.486 294.64 120.701) scale(813.07 78.6784)" xlink:href="#Au"><stop stop-color="#002dff"/><stop offset=".685" stop-color="#fff"/><stop offset="1" stop-color="#0e1430"/></radialGradient><radialGradient id="s" cx="0" cy="0" r="1" gradientTransform="rotate(-158.486 286.755 124.086) scale(807.009 81.9937)" xlink:href="#Au"><stop stop-color="#002dff"/><stop offset=".685" stop-color="#fff"/><stop offset="1" stop-color="#0e1430"/></radialGradient><radialGradient id="t" cx="0" cy="0" r="1" gradientTransform="matrix(-745.64486 -293.9278 31.20134 -79.1525 491.761 348.831)" xlink:href="#Au"><stop stop-color="#002dff"/><stop offset=".685" stop-color="#fff"/><stop offset="1" stop-color="#0e1430"/></radialGradient><radialGradient id="u" cx="0" cy="0" r="1" gradientTransform="rotate(-158.486 271.284 131.785) scale(796.883 87.7352)" xlink:href="#Au"><stop stop-color="#002dff"/><stop offset=".685" stop-color="#fff"/><stop offset="1" stop-color="#0e1430"/></radialGradient><radialGradient id="v" cx="0" cy="0" r="1" gradientTransform="rotate(-158.486 263.29 136.594) scale(793.278 89.5083)" xlink:href="#Au"><stop stop-color="#002dff"/><stop offset=".685" stop-color="#fff"/><stop offset="1" stop-color="#0e1430"/></radialGradient><radialGradient id="w" cx="0" cy="0" r="1" gradientTransform="matrix(-735.86804 -290.07386 33.33984 -84.57751 441.474 367.439)" xlink:href="#Au"><stop stop-color="#002dff"/><stop offset=".685" stop-color="#fff"/><stop offset="1" stop-color="#0e1430"/></radialGradient><radialGradient id="x" cx="0" cy="0" r="1" gradientTransform="rotate(-158.486 247.987 147.679) scale(790.209 91.6891)" xlink:href="#Au"><stop stop-color="#002dff"/><stop offset=".685" stop-color="#fff"/><stop offset="1" stop-color="#0e1430"/></radialGradient><radialGradient id="y" cx="0" cy="0" r="1" gradientTransform="matrix(-735.72477 -290.01738 33.25036 -84.35051 407.634 386.336)" xlink:href="#Au"><stop stop-color="#002dff"/><stop offset=".685" stop-color="#fff"/><stop offset="1" stop-color="#0e1430"/></radialGradient><radialGradient id="z" cx="0" cy="0" r="1" gradientTransform="rotate(-158.486 233.664 161.244) scale(793.278 88.3297)" xlink:href="#Au"><stop stop-color="#002dff"/><stop offset=".685" stop-color="#fff"/><stop offset="1" stop-color="#0e1430"/></radialGradient><radialGradient id="AA" cx="0" cy="0" r="1" gradientTransform="matrix(-741.29185 -292.21188 31.18704 -79.1162 378.268 407.761)" xlink:href="#Au"><stop stop-color="#002dff"/><stop offset=".685" stop-color="#fff"/><stop offset="1" stop-color="#0e1430"/></radialGradient><radialGradient id="AB" cx="0" cy="0" r="1" gradientTransform="rotate(-158.486 222.277 174.875) scale(801.563 80.4627)" xlink:href="#Au"><stop stop-color="#002dff"/><stop offset=".685" stop-color="#fff"/><stop offset="1" stop-color="#0e1430"/></radialGradient><radialGradient id="AC" cx="0" cy="0" r="1" gradientTransform="matrix(-750.78306 -295.95325 27.47794 -69.70687 352.85 430.721)" xlink:href="#Au"><stop stop-color="#002dff"/><stop offset=".685" stop-color="#fff"/><stop offset="1" stop-color="#0e1430"/></radialGradient><radialGradient id="AD" cx="0" cy="0" r="1" gradientTransform="rotate(-158.486 212.659 188.912) scale(813.07 69.1266)" xlink:href="#Au"><stop stop-color="#002dff"/><stop offset=".685" stop-color="#fff"/><stop offset="1" stop-color="#0e1430"/></radialGradient><radialGradient id="AE" cx="0" cy="0" r="1" gradientTransform="rotate(-158.486 208.136 196.048) scale(819.667 63.147)" xlink:href="#Au"><stop stop-color="#002dff"/><stop offset=".685" stop-color="#fff"/><stop offset="1" stop-color="#0e1430"/></radialGradient><radialGradient id="AF" cx="0" cy="0" r="1" gradientTransform="matrix(-768.9105 -303.09895 20.44515 -51.86588 320.681 465.89)" xlink:href="#Au"><stop stop-color="#002dff"/><stop offset=".685" stop-color="#fff"/><stop offset="1" stop-color="#0e1430"/></radialGradient><radialGradient id="AG" cx="0" cy="0" r="1" gradientTransform="rotate(-158.486 200.249 209.47) scale(833.398 50.3206)" xlink:href="#Au"><stop stop-color="#002dff"/><stop offset=".685" stop-color="#fff"/><stop offset="1" stop-color="#0e1430"/></radialGradient><radialGradient id="AH" cx="0" cy="0" r="1" gradientTransform="rotate(-158.486 196.666 215.861) scale(839.919 46.4158)" xlink:href="#Au"><stop stop-color="#002dff"/><stop offset=".685" stop-color="#fff"/><stop offset="1" stop-color="#0e1430"/></radialGradient><radialGradient id="AI" cx="0" cy="0" r="1" gradientTransform="rotate(-158.486 195.402 220.05) scale(846.056 47.8455)" xlink:href="#Au"><stop stop-color="#002dff"/><stop offset=".685" stop-color="#fff"/><stop offset="1" stop-color="#0e1430"/></radialGradient><radialGradient id="AJ" cx="0" cy="0" r="1" gradientTransform="matrix(-792.24778 -312.29834 18.07656 -45.85717 290.942 504.378)" xlink:href="#Au"><stop stop-color="#002dff"/><stop offset=".685" stop-color="#fff"/><stop offset="1" stop-color="#0e1430"/></radialGradient><radialGradient id="AK" cx="0" cy="0" r="1" gradientTransform="rotate(-158.486 190.52 229.325) scale(856.259 50.5641)" xlink:href="#Au"><stop stop-color="#002dff"/><stop offset=".685" stop-color="#fff"/><stop offset="1" stop-color="#0e1430"/></radialGradient><radialGradient id="AL" cx="0" cy="0" r="1" gradientTransform="rotate(-158.486 186.522 234.494) scale(859.864 51.4329)" xlink:href="#Au"><stop stop-color="#002dff"/><stop offset=".685" stop-color="#fff"/><stop offset="1" stop-color="#0e1430"/></radialGradient><radialGradient id="AM" cx="0" cy="0" r="1" gradientTransform="matrix(-802.09623 -316.18053 19.09809 -48.4486 262.019 529.759)" xlink:href="#Au"><stop stop-color="#4361ee"/><stop offset=".2" stop-color="#6b7fda"/><stop offset=".4" stop-color="#06124a"/><stop offset=".6" stop-color="#0e1430"/><stop offset=".8" stop-color="#070223"/><stop offset="1" stop-color="#30f"/></radialGradient><radialGradient id="AN" cx="0" cy="0" r="1" gradientTransform="rotate(-158.486 174.591 246.029) scale(863.009 52.651)" xlink:href="#Au"><stop stop-color="#002dff"/><stop offset=".685" stop-color="#fff"/><stop offset="1" stop-color="#0e1430"/></radialGradient><radialGradient id="AO" cx="0" cy="0" r="1" gradientTransform="rotate(-158.486 166.483 252.815) scale(862.933 51.7153)" xlink:href="#Au"><stop stop-color="#002dff"/><stop offset=".685" stop-color="#fff"/><stop offset="1" stop-color="#0e1430"/></radialGradient><radialGradient id="AP" cx="0" cy="0" r="1" gradientTransform="matrix(-802.95306 -316.51829 18.93148 -48.02595 210.166 559.182)" xlink:href="#Au"><stop stop-color="#002dff"/><stop offset=".685" stop-color="#fff"/><stop offset="1" stop-color="#0e1430"/></radialGradient><radialGradient id="AQ" cx="0" cy="0" r="1" gradientTransform="matrix(-802.81072 -316.46218 19.2607 -48.8611 194.049 568.254)" xlink:href="#Au"><stop stop-color="#002dff"/><stop offset=".685" stop-color="#fff"/><stop offset="1" stop-color="#0e1430"/></radialGradient><radialGradient id="AR" cx="0" cy="0" r="1" gradientTransform="rotate(-158.486 143.76 271.643) scale(863.086 53.6636)" xlink:href="#Au"><stop stop-color="#002dff"/><stop offset=".685" stop-color="#fff"/><stop offset="1" stop-color="#0e1430"/></radialGradient><radialGradient id="AS" cx="0" cy="0" r="1" gradientTransform="rotate(-158.486 136.866 277.416) scale(863.009 55.0671)" xlink:href="#Au"><stop stop-color="#002dff"/><stop offset=".685" stop-color="#fff"/><stop offset="1" stop-color="#0e1430"/></radialGradient><radialGradient id="AT" cx="0" cy="0" r="1" gradientTransform="rotate(-158.486 130.01 283.12) scale(863.009 56.5842)" xlink:href="#Au"><stop stop-color="#002dff"/><stop offset=".685" stop-color="#fff"/><stop offset="1" stop-color="#0e1430"/></radialGradient><radialGradient id="AU" cx="0" cy="0" r="1" gradientTransform="rotate(-158.486 122.946 289) scale(863.009 57.8712)" xlink:href="#Au"><stop stop-color="#002dff"/><stop offset=".685" stop-color="#fff"/><stop offset="1" stop-color="#0e1430"/></radialGradient><radialGradient id="AV" cx="0" cy="0" r="1" gradientTransform="rotate(-158.486 116.123 294.637) scale(863.086 59.6201)" xlink:href="#Au"><stop stop-color="#002dff"/><stop offset=".685" stop-color="#fff"/><stop offset="1" stop-color="#0e1430"/></radialGradient><radialGradient id="AW" cx="0" cy="0" r="1" gradientTransform="rotate(-158.486 109.427 300.247) scale(863.009 61.3392)" xlink:href="#Au"><stop stop-color="#002dff"/><stop offset=".685" stop-color="#fff"/><stop offset="1" stop-color="#0e1430"/></radialGradient><radialGradient id="AX" cx="0" cy="0" r="1" gradientTransform="rotate(-158.486 102.603 305.925) scale(863.009 63.275)" xlink:href="#Au"><stop stop-color="#002dff"/><stop offset=".685" stop-color="#fff"/><stop offset="1" stop-color="#0e1430"/></radialGradient><radialGradient id="AY" cx="0" cy="0" r="1" gradientTransform="rotate(-158.486 95.684 311.681) scale(863.009 65.0223)" xlink:href="#Au"><stop stop-color="#002dff"/><stop offset=".685" stop-color="#fff"/><stop offset="1" stop-color="#0e1430"/></radialGradient><radialGradient id="AZ" cx="0" cy="0" r="1" gradientTransform="matrix(-802.88143 -316.49005 24.41184 -61.92868 54.581 645.51)" xlink:href="#Au"><stop stop-color="#002dff"/><stop offset=".685" stop-color="#fff"/><stop offset="1" stop-color="#0e1430"/></radialGradient><radialGradient id="Aa" cx="0" cy="0" r="1" gradientTransform="rotate(-158.486 81.496 323.487) scale(863.009 67.9369)" xlink:href="#Au"><stop stop-color="#002dff"/><stop offset=".685" stop-color="#fff"/><stop offset="1" stop-color="#0e1430"/></radialGradient><radialGradient id="Ab" cx="0" cy="0" r="1" gradientTransform="rotate(-158.486 74.23 329.533) scale(863.009 68.9957)" xlink:href="#Au"><stop stop-color="#002dff"/><stop offset=".685" stop-color="#fff"/><stop offset="1" stop-color="#0e1430"/></radialGradient><radialGradient id="Ac" cx="0" cy="0" r="1" gradientTransform="rotate(-158.486 66.916 335.658) scale(862.933 69.783)" xlink:href="#Au"><stop stop-color="#002dff"/><stop offset=".685" stop-color="#fff"/><stop offset="1" stop-color="#0e1430"/></radialGradient><radialGradient id="Ad" cx="0" cy="0" r="1" gradientTransform="matrix(-802.95306 -316.51829 25.6779 -65.14045 -11.25 681.94)" xlink:href="#Au"><stop stop-color="#002dff"/><stop offset=".685" stop-color="#fff"/><stop offset="1" stop-color="#0e1430"/></radialGradient><radialGradient id="Ae" cx="0" cy="0" r="1" gradientTransform="rotate(-158.486 50.77 348.425) scale(861.782 70.1205)" xlink:href="#Au"><stop stop-color="#002dff"/><stop offset=".685" stop-color="#fff"/><stop offset="1" stop-color="#0e1430"/></radialGradient><radialGradient id="Af" cx="0" cy="0" r="1" gradientTransform="rotate(-158.486 41.384 354.392) scale(858.176 70.4532)" xlink:href="#Au"><stop stop-color="#002dff"/><stop offset=".685" stop-color="#fff"/><stop offset="1" stop-color="#0e1430"/></radialGradient><radialGradient id="Ag" cx="0" cy="0" r="1" gradientTransform="matrix(-793.1046 -312.6361 25.95646 -65.84713 -72.44 706.656)" xlink:href="#Au"><stop stop-color="#002dff"/><stop offset=".685" stop-color="#fff"/><stop offset="1" stop-color="#0e1430"/></radialGradient><radialGradient id="Ah" cx="0" cy="0" r="1" gradientTransform="rotate(-158.486 19.703 365.768) scale(845.135 71.2329)" xlink:href="#Au"><stop stop-color="#002dff"/><stop offset=".685" stop-color="#fff"/><stop offset="1" stop-color="#0e1430"/></radialGradient><radialGradient id="Ai" cx="0" cy="0" r="1" gradientTransform="rotate(-158.486 7.829 371.182) scale(836.39 71.8267)" xlink:href="#Au"><stop stop-color="#002dff"/><stop offset=".685" stop-color="#fff"/><stop offset="1" stop-color="#0e1430"/></radialGradient><radialGradient id="Aj" cx="0" cy="0" r="1" gradientTransform="matrix(-769.05377 -303.15543 26.57675 -67.42068 -146.938 725.144)" xlink:href="#Au"><stop stop-color="#002dff"/><stop offset=".685" stop-color="#fff"/><stop offset="1" stop-color="#0e1430"/></radialGradient><radialGradient id="Ak" cx="0" cy="0" r="1" gradientTransform="matrix(-759.4193 -299.35759 26.63832 -67.57689 -174.074 730.915)" xlink:href="#Au"><stop stop-color="#002dff"/><stop offset=".685" stop-color="#fff"/><stop offset="1" stop-color="#0e1430"/></radialGradient><radialGradient id="Al" cx="0" cy="0" r="1" gradientTransform="rotate(-158.486 -30.379 387.211) scale(805.398 73.2782)" xlink:href="#Au"><stop stop-color="#002dff"/><stop offset=".685" stop-color="#fff"/><stop offset="1" stop-color="#0e1430"/></radialGradient><radialGradient id="Am" cx="0" cy="0" r="1" gradientTransform="matrix(-739.36514 -291.45239 27.12955 -68.82306 -227.389 741.449)" xlink:href="#Au"><stop stop-color="#002dff"/><stop offset=".685" stop-color="#fff"/><stop offset="1" stop-color="#0e1430"/></radialGradient><radialGradient id="An" cx="0" cy="0" r="1" gradientTransform="matrix(-729.51576 -287.56983 27.35337 -69.39084 -253.966 746.98)" xlink:href="#Au"><stop stop-color="#002dff"/><stop offset=".685" stop-color="#fff"/><stop offset="1" stop-color="#0e1430"/></radialGradient><radialGradient id="Ao" cx="0" cy="0" r="1" gradientTransform="matrix(-720.52414 -284.0254 27.59156 -69.99509 -279.835 752.521)" xlink:href="#Au"><stop stop-color="#002dff"/><stop offset=".685" stop-color="#fff"/><stop offset="1" stop-color="#0e1430"/></radialGradient><radialGradient id="Ap" cx="0" cy="0" r="1" gradientTransform="matrix(-712.17352 -280.73365 27.80712 -70.54193 -304.54 758.702)" xlink:href="#Au"><stop stop-color="#002dff"/><stop offset=".685" stop-color="#fff"/><stop offset="1" stop-color="#0e1430"/></radialGradient><radialGradient id="Aq" cx="0" cy="0" r="1" gradientTransform="matrix(-705.32258 -278.03306 28.23462 -71.62642 -327.783 764.954)" xlink:href="#Au"><stop stop-color="#002dff"/><stop offset=".685" stop-color="#fff"/><stop offset="1" stop-color="#0e1430"/></radialGradient><radialGradient id="Ar" cx="0" cy="0" r="1" gradientTransform="rotate(-158.486 -99.805 417.732) scale(752.39 81.1852)" xlink:href="#Au"><stop stop-color="#002dff"/><stop offset=".685" stop-color="#fff"/><stop offset="1" stop-color="#0e1430"/></radialGradient><radialGradient id="As" cx="0" cy="0" r="1" gradientTransform="rotate(-158.486 -108.09 422.704) scale(748.632 83.9463)" xlink:href="#Au"><stop stop-color="#002dff"/><stop offset=".685" stop-color="#fff"/><stop offset="1" stop-color="#0e1430"/></radialGradient><radialGradient id="At" cx="0" cy="0" r="1" gradientTransform="rotate(-158.486 -116.036 428.65) scale(747.174 84.9551)" xlink:href="#Au"><stop stop-color="#002dff"/><stop offset=".685" stop-color="#fff"/><stop offset="1" stop-color="#0e1430"/></radialGradient><linearGradient id="Au" gradientUnits="userSpaceOnUse"/></defs></svg>