<svg width="1438" height="614" viewBox="0 0 1438 614" fill="none" xmlns="http://www.w3.org/2000/svg">
<mask id="mask0_1412_523" style="mask-type:alpha" maskUnits="userSpaceOnUse" x="-2" y="0" width="1440" height="614">
<path d="M1438 15C1438 6.71574 1431.28 -7.77979e-07 1423 -1.73767e-06L13 -0.000165078C4.7157 -0.000166038 -2 6.71556 -2 14.9998L-2.00004 599C-2.00004 607.284 4.71566 614 13 614L1423 614C1431.28 614 1438 607.284 1438 599L1438 15Z" fill="#080C29"/>
</mask>
<g mask="url(#mask0_1412_523)">
<path d="M2108.2 268.563C1963.04 211.342 1817.88 154.122 1672.57 96.8449C1610.2 72.2575 1547.68 47.6139 1485.3 23.0265C1422.93 -1.5609 1368.26 -26.764 1304.93 -47.8453C1255.13 -64.5091 1186.57 -66.307 1127.34 -68.5374C1053.44 -71.2998 979.06 -71.6276 905.484 -75.5177C859.333 -77.9578 787.386 -80.1785 756.67 -99.7062C730.459 -116.316 744.541 -140.101 755.873 -157.892C770.059 -180.38 793.43 -203.357 795.321 -227.153C797.168 -251.195 762.923 -261.726 727.382 -275.736L502.575 -364.352" stroke="url(#paint0_radial_1412_523)" stroke-width="0.3" stroke-miterlimit="10"/>
<path d="M2090.75 278.234C1947.27 220.08 1798.6 164.671 1655.12 106.516C1593.47 81.5288 1530.23 57.2854 1467.86 32.698C1405.48 8.1106 1350.57 -16.9591 1287.6 -38.2405C1237.64 -55.0836 1169.63 -56.7794 1110.16 -58.8763C1036.57 -61.4032 962.392 -61.3058 888.862 -64.95C842.732 -67.2672 770.786 -69.4878 740.189 -89.0822C714.099 -105.759 728.159 -129.666 739.085 -147.504C753.083 -170.294 776.124 -193.63 777.971 -217.671C779.697 -241.646 745.618 -251.998 709.934 -266.064L485.127 -354.68" stroke="url(#paint1_radial_1412_523)" stroke-width="0.3" stroke-miterlimit="10"/>
<path d="M2073.3 287.907C1930.12 229.184 1777.74 175.966 1636.24 116.308C1575.95 90.8327 1512.64 66.902 1450.4 42.3708C1388.17 17.8397 1333.12 -7.28623 1270.01 -28.6239C1220.16 -45.5337 1152.46 -46.994 1092.94 -48.6553C1019.56 -50.757 945.736 -50.1781 872.536 -53.4638C826.188 -55.5246 754.79 -57.6431 723.931 -77.2271C697.697 -93.9601 711.81 -118.303 722.429 -136.376C736.075 -159.648 758.762 -183.465 760.279 -207.865C761.84 -232.019 728.189 -242.202 692.22 -256.381L467.412 -344.997" stroke="url(#paint2_radial_1412_523)" stroke-width="0.3" stroke-miterlimit="10"/>
<path d="M2055.86 297.582C1976.25 264.947 1887.44 237.817 1805.91 206.249C1740.06 180.747 1678.15 153.602 1616.28 126.021C1557.87 99.9138 1494.74 76.2853 1433.08 51.9792C1371.42 27.6732 1315.8 2.32217 1252.69 -19.0155C1202.98 -35.869 1135.49 -36.9042 1076.18 -38.1402C1003.17 -39.6375 929.989 -38.4646 857.022 -41.2021C810.862 -42.9606 739.794 -44.7208 708.934 -64.3047C682.273 -81.2065 696.394 -106.231 706.562 -124.596C719.833 -148.472 742.003 -172.95 743.144 -197.954C744.277 -222.278 711.152 -232.481 674.897 -246.772L450.09 -335.388" stroke="url(#paint3_radial_1412_523)" stroke-width="0.3" stroke-miterlimit="10"/>
<path d="M2038.41 307.253C1956.44 274.03 1862.72 248.273 1778.23 216.45C1712.36 191.63 1654.35 164.082 1595.3 135.895C1539.28 109.135 1476.6 85.798 1415.37 61.6607C1354.14 37.5234 1298.2 11.9369 1234.98 -9.3341C1185.44 -26.0083 1118.3 -26.562 1059.48 -27.2603C986.992 -28.0969 914.206 -26.1966 841.877 -28.3401C795.663 -29.663 725.332 -31.0188 694.472 -50.6028C667.503 -67.74 681.325 -93.682 691.042 -112.338C703.772 -136.998 725.425 -162.137 726.048 -187.802C726.731 -212.417 694.252 -222.708 657.427 -237.224L432.619 -325.84" stroke="url(#paint4_radial_1412_523)" stroke-width="0.3" stroke-miterlimit="10"/>
<path d="M2020.96 316.927C1935.96 283.081 1836.8 258.717 1748.84 226.784C1682.73 202.779 1629.41 174.797 1573.78 145.792C1520.64 118.113 1458.58 95.247 1397.92 71.3348C1337.26 47.4226 1280.88 21.5443 1217.67 0.396271C1168.44 -16.0425 1101.55 -15.925 1043.25 -15.9626C971.162 -16.0718 899.18 -13.3982 827.128 -14.7476C780.861 -15.6349 711.431 -16.4072 680.451 -35.9244C652.768 -53.343 666.531 -80.3354 675.775 -99.4067C687.965 -124.85 708.912 -150.951 709.161 -177.221C709.37 -202.251 677.56 -212.507 639.878 -227.361L415.071 -315.977" stroke="url(#paint5_radial_1412_523)" stroke-width="0.3" stroke-miterlimit="10"/>
<path d="M2003.51 326.601C1914.99 292.276 1810.36 269.181 1718.27 237.103C1651.76 213.857 1603.54 185.487 1551.74 155.71C1502.01 127.09 1440.57 104.696 1380.62 81.0646C1320.67 57.4337 1263.67 31.0844 1200.37 10.1261C1151.44 -6.07714 1084.72 -5.09881 1027.05 -4.54246C955.646 -3.81166 884.226 -0.231482 812.692 -0.92015C766.515 -1.3155 698.129 -1.44794 666.886 -20.9547C638.489 -38.6546 652.171 -66.8206 660.799 -86.3629C672.427 -112.713 692.691 -139.654 692.377 -166.831C692.113 -192.275 660.927 -202.742 622.674 -217.821L397.867 -306.436" stroke="url(#paint6_radial_1412_523)" stroke-width="0.3" stroke-miterlimit="10"/>
<path d="M1986.06 336.274C1893.6 301.424 1783.26 279.733 1686.9 247.453C1619.6 224.92 1577.18 196.443 1529.44 165.638C1483.5 136.001 1422.69 114.2 1363.17 90.7377C1303.65 67.2756 1246.32 40.5679 1182.8 19.8659C1134.06 3.96493 1067.63 5.86037 1010.87 7.00026C940.005 8.51474 869.411 12.9911 798.439 13.2091C752.231 13.3724 684.769 13.9464 653.548 -5.43739C624.438 -23.4186 638.016 -52.8811 646.028 -72.8943C656.95 -100.208 676.509 -128.111 675.512 -156.128C674.633 -182.043 644.214 -192.664 605.104 -208.081L380.297 -296.697" stroke="url(#paint7_radial_1412_523)" stroke-width="0.3" stroke-miterlimit="10"/>
<path d="M1968.62 345.949C1872.07 310.517 1755.77 290.24 1655.02 257.949C1586.5 235.959 1550.2 207.611 1506.75 175.645C1464.98 144.912 1404.67 123.649 1345.87 100.468C1287.06 77.2877 1229.26 50.1652 1165.49 29.5967C1117.21 13.9874 1050.67 16.7542 994.98 18.6568C924.674 21.078 854.906 26.4506 784.354 27.519C738.379 28.2304 671.982 29.5673 640.499 10.1939C610.675 -8.06864 623.984 -39.0069 631.523 -59.4349C641.883 -87.6547 660.593 -116.578 659.034 -145.501C657.418 -171.821 627.886 -182.663 587.921 -198.417L363.113 -287.033" stroke="url(#paint8_radial_1412_523)" stroke-width="0.3" stroke-miterlimit="10"/>
<path d="M1951.17 355.623C1850.3 319.744 1728.53 300.737 1623.13 268.321C1553.09 246.763 1523.08 218.722 1484.04 185.528C1446.71 153.691 1386.65 133.099 1328.27 110.087C1269.89 87.0747 1211.76 59.5937 1148.04 39.2712C1099.94 23.9641 1033.71 27.648 978.94 30.2572C909.197 33.585 840.254 39.8538 770.265 41.8288C724.259 43.0989 659.049 45.1318 627.325 25.8919C596.765 7.22501 609.85 -24.943 616.774 -45.842C626.428 -75.0247 644.553 -104.978 642.311 -134.741C640.222 -161.475 611.172 -172.584 570.35 -188.675L345.542 -277.291" stroke="url(#paint9_radial_1412_523)" stroke-width="0.3" stroke-miterlimit="10"/>
<path d="M1933.72 365.296C1828.8 328.959 1701.56 311.221 1591.77 278.67C1519.79 257.375 1495.96 229.832 1461.74 195.455C1428.99 162.569 1368.78 142.602 1310.83 119.759C1252.88 96.916 1194.42 69.0765 1130.6 48.9437C1082.81 33.8722 1016.75 38.5399 962.765 41.7993C893.705 45.9671 825.325 53.1425 755.876 55.9012C711.034 57.7444 644.666 60.6904 613.829 41.2294C582.992 21.7685 595.22 -10.7371 601.844 -32.5533C610.793 -62.6989 628.356 -93.5584 625.431 -124.161C622.869 -151.311 594.3 -162.686 552.907 -179.003L328.099 -267.619" stroke="url(#paint10_radial_1412_523)" stroke-width="0.3" stroke-miterlimit="10"/>
<path d="M1916.27 374.968C1807.53 338.04 1675.24 321.618 1561.33 289.044C1487.39 267.889 1469.1 240.931 1439.7 205.372C1411.67 171.493 1350.9 152.106 1293.38 129.432C1235.86 106.757 1177.06 78.5594 1113.15 58.6162C1065.55 43.8469 999.626 49.2525 946.417 53.1622C877.897 58.1136 810.2 66.129 741.314 69.7944C696.825 72.119 630.854 75.7924 600.017 56.3315C568.707 36.4557 580.493 2.97679 586.622 -19.3771C595.008 -50.4294 611.888 -82.1288 608.28 -113.572C605.125 -141.069 577.3 -152.722 535.193 -169.32L310.386 -257.936" stroke="url(#paint11_radial_1412_523)" stroke-width="0.3" stroke-miterlimit="10"/>
<path d="M1898.83 384.641C1786.67 347.167 1649.58 332.051 1532.06 299.311C1456.14 278.173 1443 251.877 1418.18 215.269C1394.65 180.654 1333.02 161.611 1276.07 139.161C1219.12 116.712 1160 88.1556 1095.87 68.4688C1048.43 53.8788 982.785 60.0785 930.335 64.5154C862.355 70.2505 795.462 79.0391 726.83 83.3757C682.431 86.1922 617.241 90.5159 586.381 70.9319C554.478 50.7082 566.227 16.3017 571.741 -6.52319C579.587 -38.3592 595.784 -70.8985 591.755 -103.192C588.27 -131.048 560.829 -142.778 518.008 -159.657L293.201 -248.273" stroke="url(#paint12_radial_1412_523)" stroke-width="0.3" stroke-miterlimit="10"/>
<path d="M1881.38 394.317C1766.48 356.332 1625.24 342.434 1504.5 309.45C1426.85 288.318 1417.92 262.537 1397.43 225.014C1378.02 189.739 1315.27 171.051 1258.6 148.714C1201.94 126.377 1142.5 97.5851 1078.39 78.0213C1030.98 63.5542 965.711 70.3583 913.614 75.2768C846.009 81.6163 779.776 91.1219 711.399 96.1296C667.21 99.3713 602.493 104.11 571.513 84.5925C539.159 64.077 550.631 28.8763 555.814 5.69297C563.263 -26.8705 578.799 -60.1268 574.396 -93.0245C570.603 -121.116 543.522 -133.046 500.416 -150.038L275.609 -238.654" stroke="url(#paint13_radial_1412_523)" stroke-width="0.3" stroke-miterlimit="10"/>
<path d="M1863.93 403.989C1747.06 365.34 1602.07 352.705 1479.18 319.559C1399.91 298.244 1394.39 273.009 1377.64 234.903C1361.87 199.236 1297.41 180.677 1241.18 158.509C1184.94 136.341 1125.08 107.381 1060.97 87.8168C1013.55 73.3497 948.518 80.702 896.893 86.0352C829.664 92.9792 763.926 103.022 696.044 108.568C651.922 112.179 587.656 117.209 556.676 97.6915C524.037 77.0635 535.375 41.125 540.25 17.7061C547.203 -15.3951 562.221 -49.3121 557.586 -82.758C553.507 -110.962 526.81 -122.969 483.276 -140.13L258.469 -228.746" stroke="url(#paint14_radial_1412_523)" stroke-width="0.3" stroke-miterlimit="10"/>
<path d="M1846.48 413.663C1728.81 374.241 1580.74 362.905 1456.35 329.509C1418.33 319.314 1387.34 307.786 1373.1 287.79C1363.14 273.817 1363.89 259.047 1358.74 244.573C1345.84 208.669 1279.37 190.003 1223.71 168.06C1165.04 144.936 1107.49 116.998 1043.48 97.2448C995.897 82.5985 931.312 90.2426 879.755 95.9447C812.856 103.247 747.493 113.895 679.799 119.743C635.722 123.599 571.884 128.798 540.618 109.168C507.693 88.4278 519.085 52.0537 523.794 28.4556C530.395 -5.12704 545.203 -39.4693 540.094 -73.33C535.873 -101.59 509.319 -113.541 465.785 -130.702L240.977 -219.318" stroke="url(#paint15_radial_1412_523)" stroke-width="0.3" stroke-miterlimit="10"/>
<path d="M1829.03 423.337C1711.75 383.156 1561.26 373.031 1436.41 339.344C1398.79 329.194 1366.86 317.519 1353.43 297.614C1343.85 283.564 1345.65 268.752 1341.17 254.314C1329.99 218.403 1261.52 199.631 1206.14 177.801C1147.33 154.62 1089.82 126.929 1025.91 106.985C978.163 92.1599 914.105 99.7831 862.186 105.685C795.474 113.29 730.299 124.24 662.77 130.267C618.716 134.247 554.878 139.445 523.59 119.693C490.665 98.9521 502.011 62.332 506.458 38.7444C512.871 4.85953 527.372 -29.7181 522.075 -63.8811C517.854 -92.141 491.465 -103.913 447.931 -121.074L223.123 -209.69" stroke="url(#paint16_radial_1412_523)" stroke-width="0.3" stroke-miterlimit="10"/>
<path d="M1811.59 433.01C1693.93 393.711 1546.11 382.241 1421.46 348.856C1383.43 338.661 1351.97 327.4 1338.13 307.449C1328.22 293.041 1329.29 277.825 1324.33 262.972C1312.24 227.159 1245.67 207.878 1189.28 186.336C1130.06 163.791 1071.71 136.566 1008.36 116.848C961.309 102.181 895.935 109.856 844.618 115.425C778.102 122.65 713.101 133.098 645.79 138.868C601.953 142.592 537.469 147.878 506.609 128.294C474.09 107.599 485.075 71.1795 489.402 47.6585C495.619 14.1531 509.924 -20.0452 504.574 -53.7725C500.09 -82.022 474.182 -94.0609 430.505 -111.278L205.698 -199.894" stroke="url(#paint17_radial_1412_523)" stroke-width="0.3" stroke-miterlimit="10"/>
<path d="M1794.14 442.684C1677.41 404.091 1532.54 391.39 1409.65 358.244C1371.05 347.824 1340.31 336.844 1325.88 316.546C1315.21 301.61 1315.35 285.687 1309.64 270.307C1296.04 234.244 1232.05 214.613 1173.37 193.533C1113.11 171.835 1053.97 146.128 991.057 126.578C944.288 112.024 878.847 119.33 827.704 124.397C761.482 131.053 696.489 140.819 629.494 146.143C585.733 149.554 521.061 154.538 490.487 135.067C458.253 114.484 468.584 78.8337 472.932 55.4358C478.998 22.5556 492.747 -11.0631 487.366 -44.2318C482.905 -72.3583 456.711 -84.5098 413.32 -101.614L188.512 -190.23" stroke="url(#paint18_radial_1412_523)" stroke-width="0.3" stroke-miterlimit="10"/>
<path d="M1776.69 452.357C1661.94 414.429 1520.82 400.463 1400.22 367.536C1316.57 344.723 1313.56 317.282 1296.22 276.661C1280.68 240.056 1219.44 220.254 1157.66 199.669C1126.78 189.438 1095.08 179.796 1064.21 169.565C1033.04 159.221 1004.95 146.093 973.348 136.262C926.865 121.82 861.793 128.244 810.44 132.885C744.489 138.85 679.745 147.801 613.262 152.299C569.554 155.274 504.913 159.7 474.625 140.341C442.841 120.051 452.276 85.3026 456.287 62.2278C461.961 30.1064 475.46 -2.69734 469.831 -35.0509C465.031 -62.8544 438.574 -74.9954 395.468 -91.9871L170.661 -180.603" stroke="url(#paint19_radial_1412_523)" stroke-width="0.3" stroke-miterlimit="10"/>
<path d="M1759.24 462.031C1647.23 424.613 1510.52 409.419 1393.01 376.679C1353.08 365.507 1323.86 354.219 1307.89 333.424C1295.06 316.84 1292.62 299.1 1284.61 282.015C1266.83 244.756 1208.7 224.583 1142.85 204.902C1111.6 195.553 1079.17 186.994 1047.8 177.711C1015.44 168.034 987.763 155.756 956.163 145.925C909.822 131.539 845.743 136.871 794.015 140.908C728.554 145.924 663.893 153.881 597.802 157.621C553.862 160.047 489.996 163.637 459.752 144.524C428.442 124.649 436.906 91.1157 440.721 68.4203C445.905 37.2474 458.915 5.39203 453.059 -26.0236C447.8 -53.4372 420.84 -65.4343 378.447 -82.1447L153.64 -170.761" stroke="url(#paint20_radial_1412_523)" stroke-width="0.3" stroke-miterlimit="10"/>
<path d="M1741.79 471.704C1633.19 434.832 1501.16 418.4 1387.37 385.759C1301.69 361.231 1295.94 328.944 1273.68 286.722C1253.63 248.686 1198.71 227.952 1128.02 209.331C1096.16 200.997 1063.17 193.698 1031.17 185.308C997.643 176.544 970.291 165.306 938.548 155.419C892.207 141.033 829.626 145.129 777.214 148.326C712.1 152.337 647.787 159.289 582.306 162.014C538.254 163.826 475.118 166.333 444.919 147.466C413.841 128.139 421.357 95.9445 424.975 73.6284C429.835 43.5832 442.235 12.743 436.054 -17.5449C430.479 -44.5124 402.632 -56.2884 360.953 -72.7175L136.146 -161.333" stroke="url(#paint21_radial_1412_523)" stroke-width="0.3" stroke-miterlimit="10"/>
<path d="M1724.35 481.377C1619.54 444.973 1492.71 427.282 1383.18 394.72C1296.63 369.049 1288.9 333.93 1263.83 290.829C1241.4 252.082 1189.75 230.351 1113.77 213.303C1045.81 198.042 984.018 184.641 921.246 165.148C874.762 150.706 814.039 153.366 760.824 155.789C696.177 158.729 632.188 164.553 567.295 166.14C522.845 167.224 460.823 168.573 430.406 149.963C399.823 131.173 406.172 100.573 409.354 78.7698C413.627 49.8627 425.582 20.217 418.956 -8.87649C412.967 -35.2082 384.353 -46.83 343.531 -62.9215L118.723 -151.537" stroke="url(#paint22_radial_1412_523)" stroke-width="0.3" stroke-miterlimit="10"/>
<path d="M1706.9 491.051C1606.3 455.162 1484.79 436.144 1379.65 403.718C1292.06 376.726 1282.1 338.784 1254.46 294.671C1229.63 255.09 1181.17 231.994 1099.72 216.897C1029.65 203.887 967.094 194.295 903.774 174.7C857.005 160.145 798.545 161.414 744.362 162.885C680.303 164.687 616.473 169.204 552.19 169.776C506.674 170.097 447.442 170.035 416.039 151.835C385.516 134.096 390.969 104.398 393.902 83.4102C397.73 55.6976 408.977 27.2567 401.929 -0.519417C395.405 -26.1486 365.761 -37.6056 325.938 -53.3032L101.131 -141.919" stroke="url(#paint23_radial_1412_523)" stroke-width="0.3" stroke-miterlimit="10"/>
<path d="M1689.45 500.726C1593.05 465.351 1477.13 444.996 1376.51 412.638C1287.86 384.201 1275.4 343.448 1245.19 298.322C1218.24 258.021 1172.5 233.144 1085.51 220.311C1013.76 209.721 950.053 204.015 886.305 184.251C790.693 154.666 644.833 174.333 537.186 173.221C491.655 172.738 433.131 171.471 401.774 153.517C371.745 136.315 375.814 108.469 378.431 87.9272C381.836 61.532 392.495 34.2293 385.025 7.77057C377.967 -17.1561 347.173 -28.3816 308.492 -43.6292L83.6842 -132.245" stroke="url(#paint24_radial_1412_523)" stroke-width="0.3" stroke-miterlimit="10"/>
<path d="M1672 510.398C1579.8 475.538 1469.58 453.78 1373.5 421.613C1284.04 391.598 1268.86 348.29 1236.18 301.961C1207.39 261.051 1163.77 233.923 1071.55 223.713C998.387 215.533 933.393 213.656 868.975 193.856C772.124 164.012 631.928 179.862 522.321 176.721C476.777 175.434 419.103 173.018 387.625 155.131C358.213 138.4 360.798 112.595 363.077 92.3759C365.917 67.2418 376.011 41.2002 368.119 16.0589C360.526 -8.16532 328.702 -19.226 291.162 -34.0235L66.355 -122.639" stroke="url(#paint25_radial_1412_523)" stroke-width="0.3" stroke-miterlimit="10"/>
<path d="M1654.56 520.072C1566.29 485.736 1461.78 462.575 1370.1 430.543C1279.67 398.895 1261.82 353.277 1226.67 305.746C1196.07 264.351 1154.25 234.736 1057.36 227.25C983.186 221.526 916.616 223.365 851.507 203.407C753.581 173.481 618.523 185.535 507.362 180.413C461.804 178.321 404.861 174.823 373.405 157.059C344.631 140.922 345.809 116.845 347.771 97.0721C350.167 73.1324 359.553 48.2957 351.238 24.4718C342.99 1.01679 310.257 -9.94583 273.716 -24.3494L48.9091 -112.965" stroke="url(#paint26_radial_1412_523)" stroke-width="0.3" stroke-miterlimit="10"/>
<path d="M1637.1 529.744C1552.25 495.955 1453.47 471.513 1365.78 439.57C1274.39 406.287 1254.2 358.719 1216.84 309.975C1184.84 268.14 1144.24 235.813 1043.13 231.344C968.451 227.932 900.261 233.242 834.198 213.136C735.318 183.062 604.818 191.776 492.345 184.538C446.772 181.642 390.702 177.118 359.028 159.61C330.87 143.945 330.64 121.596 332.286 102.269C334.094 79.4675 343.035 55.8252 334.396 33.1289C325.614 10.3764 291.971 -0.488142 256.287 -14.5542L31.4799 -103.17" stroke="url(#paint27_radial_1412_523)" stroke-width="0.3" stroke-miterlimit="10"/>
<path d="M1619.66 539.419C1537.83 506.252 1444.35 480.361 1360.14 448.652C1267.97 413.914 1245.6 364.574 1206.02 314.617C1172.78 272.522 1133.03 237.56 1028.43 235.708C953.338 234.417 883.603 242.885 816.849 222.621C717.277 192.389 590.208 198.118 476.993 188.989C431.549 185.344 376.134 180.052 344.34 162.611C316.677 147.483 315.499 126.472 316.686 107.535C318.026 85.805 326.358 63.1778 317.394 41.6093C308.198 19.4926 273.623 8.60313 238.938 -5.06904L14.1307 -93.6849" stroke="url(#paint28_radial_1412_523)" stroke-width="0.3" stroke-miterlimit="10"/>
<path d="M1602.21 549.093C1522.6 516.457 1434.06 489.317 1352.67 457.805C1259.72 421.736 1235.38 371.05 1194.03 320.048C1159.84 277.805 1120.54 240.286 1013.35 240.952C938.193 241.46 866.99 252.773 799.259 232.238C699.161 202.027 574.635 204.992 461.129 194.265C415.693 189.938 360.835 184.066 328.92 166.691C301.73 151.978 299.581 132.183 300.43 113.569C301.423 92.8437 309.506 71.0316 299.932 50.4783C289.894 28.8286 255.341 18.062 221.085 4.55867L-3.72281 -84.0572" stroke="url(#paint29_radial_1412_523)" stroke-width="0.3" stroke-miterlimit="10"/>
<path d="M1584.76 558.766C1506.72 526.749 1422.6 498.381 1343.23 467.098C1249.31 430.076 1223.58 378.269 1180.76 326.459C1145.92 284.303 1106.72 244.426 997.666 247.21C922.227 249.092 850.398 262.784 781.712 242.101C681.757 211.946 558.407 212.634 445.06 200.6C399.798 195.771 345.113 189.397 313.243 172.268C286.646 157.903 283.579 138.888 284.232 120.653C284.999 100.866 293.028 79.4892 282.845 59.951C271.799 38.589 238.058 27.9141 203.944 14.467L-20.8635 -74.1489" stroke="url(#paint30_radial_1412_523)" stroke-width="0.3" stroke-miterlimit="10"/>
<path d="M1567.31 568.44C1489.79 537.084 1409.29 507.519 1331.29 476.429C1236.59 438.757 1209.81 386.31 1165.94 333.861C1130.88 291.962 1091.6 250.107 981.755 254.408C905.729 257.428 834.213 272.841 764.385 251.708C664.836 221.599 541.457 220.678 428.743 207.752C383.819 202.6 328.969 196.046 297.099 178.918C270.811 164.788 267.428 146.219 267.599 128.251C267.929 108.977 275.567 88.3588 265.473 69.3125C254.066 48.1507 220.566 37.3424 186.452 23.8953L-38.3553 -64.7205" stroke="url(#paint31_radial_1412_523)" stroke-width="0.3" stroke-miterlimit="10"/>
<path d="M1549.86 578.114C1471.93 547.394 1394.14 516.73 1316.21 486.01C1220.57 448.313 1193.56 395.317 1148.98 342.586C1114.01 301.179 1074.46 257.848 964.772 263.01C887.806 266.687 817.807 283.155 746.838 261.572C648.1 231.555 523.49 229.692 411.64 216.422C366.957 211.136 311.603 204.726 279.997 187.587C253.85 173.514 250.753 155.057 250.42 137.233C250.127 118.169 257.877 98.1662 247.707 79.4326C236.278 58.1479 203.018 47.2061 168.904 33.759L-55.9032 -54.8569" stroke="url(#paint32_radial_1412_523)" stroke-width="0.3" stroke-miterlimit="10"/>
<path d="M1530.25 587.502C1450.39 557.849 1377.65 524.383 1299.38 493.986C1205.02 457.478 1176.31 404.612 1131.05 353.209C1094.62 311.797 1056.2 269.598 946.619 273.889C870.976 276.832 802.144 291.705 732.263 271.008C631.872 241.366 509.982 239.89 397.125 226.908C352.464 221.745 297.231 215.269 266.007 198.053C240.53 184.015 236.433 165.164 235.597 147.484C234.613 128.262 240.431 107.84 229.833 88.9377C218.021 67.73 186.121 56.982 151.722 43.4223L-73.0855 -45.1935" stroke="url(#paint33_radial_1412_523)" stroke-width="0.3" stroke-miterlimit="10"/>
<path d="M1507.07 596.287C1425.97 567.055 1360.2 530.401 1282.13 499.625C1191.2 463.785 1159.02 413.658 1112.49 364.04C1074.4 323.685 1036.05 283.341 929.192 285.852C855.452 287.604 789.735 299.938 722.138 280.141C621.385 250.699 500.509 250.422 387.237 238.076C342.238 233.236 287.696 226.918 256.187 209.589C230.567 195.495 225.449 176.127 223.155 158.444C220.765 138.782 224.247 117.895 212.529 98.6659C199.664 77.5 168.697 66.7769 134.155 53.161L-90.6525 -35.4549" stroke="url(#paint34_radial_1412_523)" stroke-width="0.3" stroke-miterlimit="10"/>
<path d="M1480.75 604.518C1398.36 574.78 1340.48 534.159 1262.37 502.455C1179.24 468.658 1143.11 423.829 1096.37 378.12C1056.85 339.371 1017.13 299.515 914.471 298.886C844.176 298.458 779.22 309.151 715.614 289.444C620.693 260.018 500.853 261.062 392.096 250.952C344.917 246.509 288.953 241.114 254.332 224.156C226.389 210.402 218.43 190.714 213.919 172.499C208.84 151.891 209.338 130.627 197.442 110.414C184.652 88.9356 154.362 77.5663 118.964 63.6128L-108.127 -25.9033" stroke="url(#paint35_radial_1412_523)" stroke-width="0.3" stroke-miterlimit="10"/>
<path d="M1451.59 612.428C1368.92 581.896 1320.86 537.726 1244.35 504.596C1167.42 471.421 1126.17 431.873 1076.78 389.119C1035.27 353.236 993.454 316.436 898.075 312.855C829.766 310.242 774.646 316.023 712.451 298.242C614.62 270.294 499.837 272.19 389.56 263.193C342.087 259.319 286.859 254.328 251.998 237.505C223.079 223.48 213.429 203.239 206.604 184.682C198.88 163.374 196.47 141.421 182.237 120.743C167.584 99.2149 137.512 87.5892 101.542 73.4106L-125.549 -16.1055" stroke="url(#paint36_radial_1412_523)" stroke-width="0.3" stroke-miterlimit="10"/>
<path d="M1420.37 619.984C1339.86 588.932 1302.8 543.273 1232.3 508.294C1197.94 491.326 1163.31 477.218 1134.32 457.684C1105.6 438.263 1080.54 417.767 1053.46 397.847C1009.07 365.052 964.107 333.517 876.698 327.142C815.081 322.715 766.408 323.162 712.012 306.742C616.535 277.896 494.607 283.482 386.111 275.529C341.809 272.334 290.849 268.227 256.489 253.427C224.578 239.707 211.637 218.854 201.949 199.853C190.746 177.631 184.956 154.573 168.822 132.918C152.546 111.207 122.633 98.2738 86.0925 83.8702L-143.282 -6.54607" stroke="url(#paint37_radial_1412_523)" stroke-width="0.3" stroke-miterlimit="10"/>
<path d="M1387.65 627.293C1306.35 594.105 1281.02 544.511 1211.7 507.256C1180.43 490.475 1143.41 476.339 1113.19 458.835C1084.3 442.083 1057.65 424.5 1029.49 407.348C983.74 379.499 937.526 352.721 863.17 342.359C808.26 334.755 761.93 331.331 713.215 315.553C621.242 285.576 490.448 294.859 384.227 288.488C339.226 285.816 290.535 281.805 256.394 266.749C222.966 251.974 208.629 229.999 196.108 209.997C182.935 188.595 173.739 166.479 156.567 145.67C137.864 123.002 109.65 109.939 70.6833 94.5793L-160.975 3.26282" stroke="url(#paint38_radial_1412_523)" stroke-width="0.3" stroke-miterlimit="10"/>
<path d="M1353.84 634.393C1272.81 599.027 1259.49 546.293 1193.03 506.509C1165.07 489.782 1126.87 476.436 1094.97 461.352C1065.84 447.583 1037.8 433.337 1009.03 419.369C960.623 395.836 912.152 371.936 848.216 357.691C801.134 347.237 759.899 337.603 716.083 323.983C622.973 295.043 493.898 306.487 387.705 301.725C342.553 299.679 294.38 296.328 259.877 281.472C224.804 266.391 207.634 243.414 192.514 222.957C176.148 200.754 163.495 177.845 143.536 156.28C122.443 133.583 93.3048 119.814 53.4818 104.117L-178.177 12.8001" stroke="url(#paint39_radial_1412_523)" stroke-width="0.3" stroke-miterlimit="10"/>
<path d="M1319.62 641.449C1237.95 603.321 1237.85 546.78 1172.61 504.283C1128.27 475.388 1051.46 454.47 991.988 432.74C901.131 399.437 813.312 363.907 719.349 332.461C634.408 304.001 501.197 317.468 403.434 315.344C354.349 314.259 298.585 312.139 261.476 295.342C225.081 278.827 205.035 254.602 186.939 233.087C148.512 187.234 121.103 147.322 38.6022 114.802L-195.34 22.5848" stroke="url(#paint40_radial_1412_523)" stroke-width="0.3" stroke-miterlimit="10"/>
<path d="M1285.14 648.519C1203.2 607.43 1216.6 547.193 1152.04 501.882C1112.55 474.218 1035.46 460.496 975.076 445.368C914.69 430.239 861.8 411.902 816.583 387.686C787.207 371.883 759.563 353.224 722.998 340.865C638.32 312.395 500.475 329.514 403.846 328.522C358.579 328.028 306.863 327.048 270.586 312.634C230.598 296.757 207.028 271.371 186.07 249.412C160.862 223.038 139.564 195.581 108.749 170.421C83.9927 150.161 51.7205 136.641 14.0385 121.787L-213.053 32.2709" stroke="url(#paint41_radial_1412_523)" stroke-width="0.3" stroke-miterlimit="10"/>
<path d="M1251.32 655.62C1168.82 611.456 1196.42 547.683 1131.91 499.769C1092.99 470.843 1014.92 465.522 950.804 456.115C887.907 446.846 835.202 430.979 803.029 403.458C780.151 384.052 764.527 363.739 725.258 349.63C688.393 336.354 637.745 336.136 593.303 336.539C529.952 337.136 467.032 341.555 403.613 341.783C356.616 341.977 308.419 340.671 271.406 325.853C232.965 310.472 208.612 286.604 186.277 265.814C132.484 215.617 92.6294 169.201 -0.861954 132.348L-230.237 41.9319" stroke="url(#paint42_radial_1412_523)" stroke-width="0.3" stroke-miterlimit="10"/>
<path d="M1218.61 662.927C1136.18 616.282 1175.93 550.106 1113.73 499.562C1075.15 468.145 996.993 471.126 930.391 467.702C864.053 464.267 809.356 449.099 787.859 418.366C772.282 396.131 769.061 374.087 726.42 358.192C690.607 344.874 638.274 345.59 594.876 346.633C531.561 348.157 468.963 353.616 405.581 354.772C358.313 355.658 310.754 354.946 273.38 340.328C233.414 324.574 206.536 299.939 181.887 278.808C122.962 228.071 77.2239 179.908 -18.6939 142.098L-248.069 51.6817" stroke="url(#paint43_radial_1412_523)" stroke-width="0.3" stroke-miterlimit="10"/>
<path d="M1187.39 670.485C1103.92 621.033 1157.55 551.767 1093.99 498.861C1053.52 465.104 972.174 477.44 906.131 479.258C839.561 481.097 784.729 465.19 772.711 433.4C763.772 409.787 773.175 383.587 726.747 366.541C687.125 351.951 623.478 355.284 577.366 357.425C523.91 359.982 471.001 364.809 417.335 366.941C366.707 369.014 310.329 370.077 270.38 352.96C228.838 335.1 200.052 310.17 172.36 287.611C111.389 238.009 61.2773 189.833 -33.3559 152.53L-265.157 61.1568" stroke="url(#paint44_radial_1412_523)" stroke-width="0.3" stroke-miterlimit="10"/>
<path d="M1158.49 678.384C1073.9 627.119 1138.81 555.794 1076.35 500.924C1034.56 464.247 950.837 484.667 886.532 490.937C818.183 497.554 761.616 480.849 756.695 447.291C753.123 422.597 773.216 393.99 723.724 375.394C684.486 360.726 619.943 364.962 574.589 367.631C521.125 370.87 468.471 376.368 414.797 379.181C364.137 381.813 308.135 383.48 267.923 366.373C225.119 348.131 194.522 322.715 164.778 299.804C100.156 249.789 45.7086 200.361 -50.9228 162.27L-282.724 70.8973" stroke="url(#paint45_radial_1412_523)" stroke-width="0.3" stroke-miterlimit="10"/>
<path d="M1132.05 686.682C1048.29 635.631 1115.99 565.063 1062.48 509.156C1021.27 466.201 939.031 490.401 871.511 501.568C803.081 512.833 739.283 497.159 740.151 461.203C740.881 434.666 769.303 405.233 716.438 384.851C680.656 370.975 624.539 374.195 581.696 376.826C517.228 380.749 454.214 389.012 389.567 391.952C347.784 393.859 302.05 394.437 267.74 381.37C217.895 362.292 183.642 332.81 150.174 307.631C82.5002 256.871 23.2649 208.066 -75.5076 169.131L-300.172 80.5719" stroke="url(#paint46_radial_1412_523)" stroke-width="0.3" stroke-miterlimit="10"/>
<path d="M1108.87 695.469C1022.4 644.031 1099.01 571.498 1045.25 514.92C1002.27 469.557 918.706 498.827 852.829 512.468C784.915 526.562 717.637 509.973 722.723 473.168C726.4 446.08 761.843 415.192 706.168 393.931C669.86 380.075 614.698 383.443 571.516 386.397C507.138 390.812 444.356 399.624 379.678 403.122C337.82 405.342 292.371 406.032 258.039 392.842C207.743 373.472 172.536 343.842 137.85 318.526C68.1927 267.783 6.53097 218.022 -92.9552 178.806L-317.62 90.246" stroke="url(#paint47_radial_1412_523)" stroke-width="0.3" stroke-miterlimit="10"/>
<path d="M1089.37 704.789C998.896 653.943 1083.63 579.477 1028.39 522.772C982.591 475.726 900.692 507.593 834.866 522.966C768.152 538.56 697.066 520.698 704.399 483.866C709.948 456.146 749.841 424.957 691.303 403.252C654.063 389.372 600.457 392.554 556.388 395.729C491.934 400.457 429.505 409.75 364.729 413.438C322.773 415.848 277.445 416.471 243.211 403.091C193.253 383.399 157.806 353.902 122.594 328.607C51.9062 278.028 -10.7998 227.627 -110.429 188.355L-335.093 99.7954" stroke="url(#paint48_radial_1412_523)" stroke-width="0.3" stroke-miterlimit="10"/>
<path d="M1073.98 714.817C986.47 663.544 1065.24 590.491 1011.07 533.868C967.689 488.459 883.763 517.929 817.645 531.704C749.851 545.73 681.95 529.352 687.419 492.47C691.239 465.439 727.351 434.586 671.172 413.468C634.766 399.803 579.319 403.058 536.52 405.935C473.052 410.252 411.157 418.842 347.366 422.119C305.628 424.273 259.774 424.918 225.344 411.917C174.95 392.737 139.961 362.85 105.297 337.657C36.2108 287.139 -25.2327 237.121 -124.148 198.13C-199.655 168.367 -278.049 140.204 -352.353 109.773" stroke="url(#paint49_radial_1412_523)" stroke-width="0.3" stroke-miterlimit="10"/>
<path d="M1062.25 725.375C976.656 674.398 1048.91 602.657 994.97 546.582C953.286 503.212 868.839 528.367 800.935 539.611C732.769 550.866 667.241 535.88 669.072 499.39C670.351 472.955 700.155 443.839 646.523 423.611C610.951 410.16 555.414 412.924 512.932 415.354C450.787 418.938 389.907 426.559 327.463 429.225C286.184 430.988 240.119 431.208 206.02 418.565C156.121 399.923 122.064 370.062 88.9037 345.119C22.5373 294.987 -35.923 245.347 -134.276 207.263C-211.811 177.27 -294.958 150.659 -370.207 119.399" stroke="url(#paint50_radial_1412_523)" stroke-width="0.3" stroke-miterlimit="10"/>
<path d="M1053.8 736.428C966.894 684.821 1039.45 611.83 976.085 556.377C933.371 518.993 845.305 541.01 780.113 547.501C712.192 554.287 652.505 538.635 649.313 504.388C647.08 479.765 668.93 452.08 618.912 433.505C581.244 419.456 517.453 422.733 473.754 425.026C423.74 427.57 374.273 432.384 324.073 434.626C274.781 436.77 219.554 437.601 180.386 421.134C137.912 403.25 107.721 377.88 78.6912 355.251C15.826 306.157 -37.0342 255.984 -133.299 219.18C-215.62 187.643 -307.938 162.325 -387.514 129.131" stroke="url(#paint51_radial_1412_523)" stroke-width="0.3" stroke-miterlimit="10"/>
<path d="M1047.8 747.877C961.529 697.546 1026.01 626.052 961.698 571.937C920.056 536.802 831.601 551.588 764.091 554.084C697.776 556.594 638.553 542.039 628.603 509.238C621.408 485.741 633.492 461.169 586.899 443.944C515.439 417.488 381.905 437.904 300.393 439.903C251.735 441.155 197.884 440.816 159.693 424.62C118.646 407.299 90.6938 382.583 64.001 360.418C5.92992 312.187 -41.5122 262.666 -136.629 227.798C-223.107 195.993 -322.213 172.678 -405.125 138.626" stroke="url(#paint52_radial_1412_523)" stroke-width="0.3" stroke-miterlimit="10"/>
<path d="M1044.12 759.664C958.778 711.525 1012.04 642.459 949.886 589.993C909.949 556.215 822.314 562.421 753.186 560.398C686.591 558.46 626.21 544.818 607.262 512.807C594.241 490.781 594.414 470.645 551.938 454.929C478.623 427.742 351.172 445.191 265.891 444.677C221.601 444.454 177.433 441.997 142.628 428.392C103.541 413.099 77.7072 389.103 54.4623 368.412C-0.421248 319.497 -41.7823 269.177 -139.734 235.474C-230.782 204.036 -335.745 182.751 -422.31 148.286" stroke="url(#paint53_radial_1412_523)" stroke-width="0.3" stroke-miterlimit="10"/>
<path d="M1041.95 771.704C956.53 725.364 1000.69 657.96 937.029 607.411C896.473 575.33 807.209 574.045 738.05 566.759C673.091 559.987 615.71 545.359 585.417 516.524C565.38 497.439 553.766 479.506 515.88 465.714C442.797 439.074 326.498 451.56 240.814 448.832C197.637 447.45 154.989 443.88 121.522 430.345C84.6288 415.46 61.4088 392.724 40.8842 372.419C-7.86756 324.437 -41.9324 275.624 -138.835 244.047C-235.594 212.526 -348.016 193.209 -439.495 157.949" stroke="url(#paint54_radial_1412_523)" stroke-width="0.3" stroke-miterlimit="10"/>
<path d="M1040.86 783.949C955.896 740.069 989.003 675.272 926.085 626.613C885.379 595.158 795.59 585.904 727.376 573.626C661.762 561.801 606.63 544.978 561.956 519.378C535.774 504.377 512.283 488.154 478.724 476.295C406.248 450.809 302.71 457.708 217.915 452.592C177.453 450.111 134.572 445.993 102.818 433.133C64.7832 417.798 43.2479 394.128 24.8138 372.935C-16.4909 325.834 -43.931 280.66 -139.694 251.701C-242.173 220.779 -360.76 203.255 -457.064 167.69" stroke="url(#paint55_radial_1412_523)" stroke-width="0.3" stroke-miterlimit="10"/>
<path d="M1040.45 796.228C955.792 754.751 978.397 692.663 915.717 646.039C871.728 613.289 777.461 596.905 707.931 578.857C611.547 553.763 527.983 518.312 440.182 487.24C369.802 462.351 277.371 464.041 194.398 456.561C90.1269 447.077 43.0428 419.157 10.1089 373.643C-21.0615 330.537 -40.5087 288.513 -127.993 262.817C-238.866 230.185 -369.547 214.628 -474.628 177.431" stroke="url(#paint56_radial_1412_523)" stroke-width="0.3" stroke-miterlimit="10"/>
<path d="M1039.78 808.518C955.539 769.378 967.904 709.988 905.177 665.286C856.455 630.556 759.069 607.236 688.201 583.295C632.854 564.56 582.302 538.698 518.681 526.175C475.805 517.721 440.436 511.199 401.873 498.052C329.246 473.191 243.847 470.576 159.729 458.991C68.8319 446.561 24.3145 421.821 -0.558973 379.827C-26.6025 335.774 -36.912 295.183 -128.373 270.203C-245.207 238.303 -382.076 224.416 -492.244 186.925" stroke="url(#paint57_radial_1412_523)" stroke-width="0.3" stroke-miterlimit="10"/>
<path d="M1038.7 820.761C954.366 783.296 957.695 725.937 892.793 683.117C864.931 664.715 822.033 650.316 786.192 635.389C748.661 619.91 710.747 604.508 673.095 589.096C620.555 567.586 568.108 536.411 496.483 529.409C445.893 524.42 408.87 524.095 364.259 509.021C292.962 484.912 215.107 477.166 134.179 462.729C50.3872 447.849 4.36449 425.028 -13.2494 383.612C-31.7927 340.004 -34.3945 302.452 -126.015 278.778C-249.327 246.95 -393.293 234.832 -509.669 196.72" stroke="url(#paint58_radial_1412_523)" stroke-width="0.3" stroke-miterlimit="10"/>
<path d="M1036.52 832.801C953.073 797.283 946.952 742.591 881.98 701.57C852.78 683.097 810.251 667.817 775.742 651.474C737.763 633.536 700.266 615.33 662.527 597.258C610.149 572.274 554.673 534.654 473.257 532.809C417.528 531.617 377.268 536.065 328.397 519.426C259.888 496.073 187.705 483.829 111.657 467.093C36.158 450.459 -14.4597 430.049 -25.7094 390.115C-31.2111 370.825 -28.8881 350.852 -40.012 331.97C-53.2885 309.272 -84.6677 297.017 -128.45 286.493C-257.054 255.433 -406.321 244.764 -527.115 206.394" stroke="url(#paint59_radial_1412_523)" stroke-width="0.3" stroke-miterlimit="10"/>
<path d="M1032.84 844.589C947.595 809.391 935.288 754.201 862.957 714.959C794.899 678.087 719.954 643.408 651.611 606.423C600.768 578.962 544.142 535.752 456.784 536.931C396.537 537.837 348.881 548.959 293.579 530.469C261.13 519.619 232.329 507.695 197.015 498.569C161.701 489.443 124.77 481.62 89.4342 472.371C17.0716 453.321 -37.1843 433.304 -40.1279 392.421C-41.4372 374.326 -35.4253 355.693 -44.2207 337.958C-55.4151 315.053 -89.2989 304.322 -132.969 294.413C-266.054 264.212 -420.26 254.792 -544.684 216.133" stroke="url(#paint60_radial_1412_523)" stroke-width="0.3" stroke-miterlimit="10"/>
<path d="M1027.1 856.028C942.546 821.669 922.135 768.535 848.953 730.442C816.624 713.703 781.189 698.822 750.185 681.35C710.895 659.128 673.861 636.197 635.82 613.554C585.89 583.827 529.643 536.886 436.577 541.636C374.222 544.794 320.654 560.547 261.828 540.897C229.808 530.216 201.737 517.21 168.107 507.15C134.456 496.967 99.6686 487.82 66.1375 477.571C-0.639296 457.184 -58.872 437.882 -54.4133 397.634C-52.6272 380.531 -42.8511 362.925 -49.0241 345.767C-57.3024 322.87 -93.246 312.469 -136.038 303.02C-273.497 272.807 -433.506 264.98 -561.771 225.607" stroke="url(#paint61_radial_1412_523)" stroke-width="0.3" stroke-miterlimit="10"/>
<path d="M1018.53 867.146C935.848 833.641 907.97 783.158 835.855 745.827C799.868 727.19 762.082 711.04 728.886 690.992C689.591 667.283 653.01 642.477 614.963 618.347C566.124 587.338 511.562 539.463 415.298 547.746C351.768 553.181 294.153 571.448 233.592 551C167.817 528.84 103.502 504.515 38.2839 481.775C-24.8158 459.755 -80.7954 441.913 -69.385 402.007C-64.7441 386.03 -51.632 369.282 -57.1221 352.964C-64.7315 330.103 -104.554 320.227 -146.301 311.419C-286.279 281.925 -449.913 275.295 -579.582 235.481" stroke="url(#paint62_radial_1412_523)" stroke-width="0.3" stroke-miterlimit="10"/>
<path d="M1006.81 877.709C925.706 844.141 891.664 795.451 819.637 758.613C783.102 739.873 745.459 723.779 712.82 703.151C672.872 678.045 636.571 651.864 598.256 626.259C550.432 594.281 495.271 544.571 396.953 554.67C332.189 561.331 271.504 582.383 208.945 561.148C143.575 539.033 81.6758 512.692 18.6459 488.874C-41.3865 466.237 -102.154 449.018 -85.3931 409.396C-78.7988 393.96 -63.1622 377.98 -67.2697 361.978C-72.9929 339.29 -115.272 329.016 -155.901 320.535C-298.005 291.001 -466.008 285.845 -596.788 245.023" stroke="url(#paint63_radial_1412_523)" stroke-width="0.3" stroke-miterlimit="10"/>
<path d="M991.532 887.666C912.73 853.635 873.651 806.384 802.293 769.581C766.021 750.831 728.303 735.05 695.926 714.411C655.439 688.521 619.342 661.279 580.99 634.747C534.624 602.773 477.781 551.83 380.048 562.958C313.84 570.419 253.183 593.081 188.626 571.057C123.212 548.696 63.0414 521.668 0.951771 497.193C-57.284 474.237 -123.464 457.852 -102.757 418.073C-95.0208 403.088 -77.3105 387.582 -80.8695 371.683C-85.879 349.276 -129.751 338.26 -169.688 329.937C-312.221 300.235 -484.043 296.655 -614.235 254.695" stroke="url(#paint64_radial_1412_523)" stroke-width="0.3" stroke-miterlimit="10"/>
<path d="M974.087 897.338C892.798 863.469 856.321 814.504 783.844 777.373C747.594 758.747 710.335 742.576 677.86 722.127C637.77 696.964 601.041 670.615 562.582 644.953C514.188 612.75 460.071 563.68 361.422 573.421C296.351 579.846 234.261 600.458 171.483 579.479C106.302 557.667 45.5072 530.849 -16.448 507.112C-75.7137 484.321 -139.857 467.483 -120.344 427.69C-112.796 412.402 -95.5583 396.482 -99.2825 380.403C-104.555 358.006 -148.307 346.924 -187.981 338.591C-330.108 308.934 -502.33 306.795 -631.417 264.357" stroke="url(#paint65_radial_1412_523)" stroke-width="0.3" stroke-miterlimit="10"/>
<path d="M956.635 907.012C872.317 872.52 838.286 820.98 764.006 782.683C728.185 764.225 691.023 747.864 658.014 728.118C618.148 704.185 580.899 679.343 542.281 654.988C491.707 623.181 439.443 577.011 341.639 584.116C277.185 588.844 215.543 606.095 154.786 586.027C90.2201 564.685 28.62 539.262 -33.8472 516.35C-63.0938 505.62 -101.892 494.094 -124.694 480.197C-147.023 466.715 -145.751 452.606 -138.6 436.591C-131.667 420.832 -114.805 404.307 -119.002 387.813C-124.68 365.371 -167.522 354.191 -207.985 345.889C-349.354 316.759 -521.383 316.408 -649.275 273.985" stroke="url(#paint66_radial_1412_523)" stroke-width="0.3" stroke-miterlimit="10"/>
<path d="M939.189 916.686C851.567 880.777 819.485 826.125 743.028 786.056C666.857 746.099 592.354 706.572 520.341 664.716C467.578 633.987 415.844 591.45 320.667 594.797C256.698 597.09 196.541 610.133 138.308 590.831C74.5763 569.704 12.3496 546.659 -51.0662 525.086C-80.7269 514.992 -119.503 503.588 -141.997 489.927C-164.776 476.154 -163.474 461.485 -157.059 445.066C-150.644 428.646 -134.585 411.348 -139.398 394.384C-145.767 371.783 -187.294 360.55 -228.546 352.28C-368.826 324.036 -539.805 325.811 -666.435 283.771" stroke="url(#paint67_radial_1412_523)" stroke-width="0.3" stroke-miterlimit="10"/>
<path d="M921.741 926.36C830.438 888.429 799.954 830.184 720.945 787.739C649.251 749.091 570.145 712.657 497.06 674.375C441.816 645.292 389.791 606.978 298.828 605.822C235.756 605.045 177.597 613.054 121.867 594.396C58.9462 573.36 -4.0132 553.565 -68.3552 533.453C-98.4075 524.118 -137.236 513.15 -159.708 499.612C-183.081 485.49 -181.793 470.017 -176.377 453.204C-170.765 436.011 -155.532 417.817 -161.005 400.135C-167.946 377.31 -207.894 366.014 -250.484 357.673C-389.224 330.607 -558.989 334.687 -684.289 293.4" stroke="url(#paint68_radial_1412_523)" stroke-width="0.3" stroke-miterlimit="10"/>
<path d="M904.291 936.031C809.218 895.586 779.739 833.399 698.35 788.076C631.42 750.849 547.153 718.089 472.945 683.814C414.924 656.948 361.699 622.955 276.439 616.742C215.085 612.304 158.834 614.787 105.869 596.762C44.0005 575.685 -19.7225 559.698 -85.4495 541.437C-116.014 532.927 -154.874 522.518 -177.18 509.159C-201.266 494.756 -200.323 478.121 -195.665 460.78C-190.879 442.691 -176.757 423.488 -182.891 405.089C-190.688 381.926 -228.675 370.491 -272.557 362.325C-409.834 336.749 -577.67 343.416 -701.476 303.06" stroke="url(#paint69_radial_1412_523)" stroke-width="0.3" stroke-miterlimit="10"/>
<path d="M886.842 945.704C787.909 902.254 759.006 835.956 675.028 787.329C612.696 751.344 523.524 722.929 448.017 693.165C386.927 669.084 331.931 639.187 253.547 627.808C195.302 619.345 140.485 615.887 90.1199 598.316C29.1389 577.018 -35.4008 565.275 -102.468 549.111C-133.642 541.617 -172.39 531.822 -194.652 518.709C-219.452 504.025 -219.16 485.991 -215.239 468.246C-211.015 449.25 -198.17 428.859 -205.25 409.631C-213.76 386.187 -249.808 374.488 -295.389 366.452C-430.916 342.478 -596.538 351.844 -718.925 312.733" stroke="url(#paint70_radial_1412_523)" stroke-width="0.3" stroke-miterlimit="10"/>
<path d="M869.396 955.379C766.559 908.678 738.186 838.024 651.334 785.981C592.722 750.778 499.996 727.582 422.545 702.416C358.069 681.567 301.047 655.094 230.274 638.954C175.807 626.501 123.027 616.768 74.2846 599.381C14.1907 577.862 -51.5265 570.563 -119.483 556.788C-151.388 550.375 -189.859 541.375 -212.241 528.329C-237.897 513.307 -238.258 493.874 -234.974 475.535C-227.158 430.446 -207.599 388.731 -318.405 370.279C-452.161 348.031 -615.261 360.332 -736.371 322.409" stroke="url(#paint71_radial_1412_523)" stroke-width="0.3" stroke-miterlimit="10"/>
<path d="M851.947 965.053C745.424 914.845 717.079 839.978 627.427 784.207C571.085 749.099 477.21 731.956 396.807 711.677C327.651 694.233 270.807 670.913 206.856 650.042C156.572 633.645 106.904 617.719 58.6426 600.065C-0.68452 578.391 -67.7446 575.357 -136.546 564.217C-169.181 558.886 -207.495 550.747 -229.854 537.824C-256.653 522.352 -257.14 501.499 -254.998 482.71C-249.835 437.603 -229.12 391.321 -341.995 373.88C-474.099 353.425 -634.391 368.773 -754.083 332.093" stroke="url(#paint72_radial_1412_523)" stroke-width="0.3" stroke-miterlimit="10"/>
<path d="M834.5 974.726C724.17 921.077 695.973 841.93 603.666 782.486C547.978 746.609 455.214 736.297 371.07 720.935C235.814 696.27 153.602 642.061 42.882 600.814C-15.8211 578.93 -84.4645 580.294 -153.465 571.701C-244.566 560.332 -277.55 532.719 -274.615 489.93C-271.676 444.973 -250.355 394.021 -365.177 377.525C-495.367 358.852 -652.994 377.19 -771.267 341.755" stroke="url(#paint73_radial_1412_523)" stroke-width="0.3" stroke-miterlimit="10"/>
<path d="M817.051 984.399C703.32 927.355 674.91 844.13 579.825 781.08C523.605 743.737 433.555 740.316 345.452 730.128C263.315 720.694 213.559 702.109 160.164 672.272C117.69 648.566 78.94 621.306 27.284 601.743C-31.2007 579.603 -101.45 585.242 -170.386 579.186C-265.849 570.777 -295.23 539.676 -294.376 497.094C-293.52 452.344 -271.757 396.544 -388.219 381.227C-516.637 364.28 -671.6 385.609 -788.596 351.362" stroke="url(#paint74_radial_1412_523)" stroke-width="0.3" stroke-miterlimit="10"/>
<path d="M799.605 994.071C682.255 933.888 654.06 846.752 556.507 780.332C498.898 741.187 411.757 744.277 320.407 739.544C282.545 737.518 241.828 734.367 210.334 723.664C180.816 713.627 157.469 697.461 137.155 683.403C98.2314 656.646 65.6882 624.185 11.2755 603.307C-46.9911 580.909 -119.154 590.589 -187.521 586.925C-286.799 581.579 -313.267 546.832 -314.089 504.502C-314.909 460.004 -293.329 399.567 -411.047 385.353C-537.979 370.019 -690.037 394.206 -806.042 361.034" stroke="url(#paint75_radial_1412_523)" stroke-width="0.3" stroke-miterlimit="10"/>
<path d="M782.157 1003.75C661.662 940.84 633.583 849.984 533.771 780.619C474.467 739.435 389.618 748.565 296.294 748.99C258.835 749.177 217.446 748.158 185.591 737.656C154.999 727.538 132.871 709.341 114.647 694.396C79.1016 665.088 52.3061 627.816 -4.72062 605.679C-63.4378 582.99 -136.748 596.555 -204.734 594.982C-307.037 592.666 -331.403 554.182 -333.594 512.34C-335.948 468.151 -314.505 403.322 -433.622 390.154C-559.113 376.187 -708.791 403.253 -823.731 370.844" stroke="url(#paint76_radial_1412_523)" stroke-width="0.3" stroke-miterlimit="10"/>
<path d="M764.705 1013.42C641.154 948.282 613.786 854.053 511.805 782.235C450.398 738.967 367.324 753.477 273.13 758.581C236.007 760.613 194.308 761.527 162.07 751.102C130.403 740.902 109.299 721.054 93.0458 705.287C60.2984 673.887 38.814 632.316 -20.9247 609.11C-80.2352 586.073 -154.256 603.01 -221.906 603.282C-326.511 603.598 -349.235 561.766 -352.674 520.345C-356.299 476.454 -335.144 407.858 -455.18 395.47C-579.394 382.691 -726.881 412.333 -841.182 380.518" stroke="url(#paint77_radial_1412_523)" stroke-width="0.3" stroke-miterlimit="10"/>
<path d="M747.261 1023.09C620.765 956.336 594.46 859.216 490.805 785.483C460.805 764.068 432.602 753.979 376.863 755.635C334.036 756.903 292.999 764.355 251.191 768.307C214.337 771.815 172.764 774.148 139.857 763.687C107.213 753.217 87.2681 732.456 72.0977 716.089C41.6897 682.985 24.7638 638.074 -37.4014 613.912C-97.711 590.481 -171.6 610.324 -239.124 612.015C-345.43 614.628 -367.016 569.592 -371.275 528.761C-375.786 485.091 -355.192 413.421 -476.025 401.746C-599.293 389.797 -745.159 421.789 -858.626 390.189" stroke="url(#paint78_radial_1412_523)" stroke-width="0.3" stroke-miterlimit="10"/>
<path d="M729.814 1032.77C600.553 965.376 576.024 865.646 470.973 790.791C441.137 769.556 412.778 758.606 357.142 761.559C313.443 763.852 272.982 773.015 231.015 778.274C193.716 782.977 153.232 786.195 119.326 775.341C85.7055 764.599 66.6696 743.74 52.2968 726.66C23.5062 692.254 10.2881 645.152 -53.9957 620.269C-115.71 596.398 -188.406 618.423 -256.277 621.119C-363.488 625.316 -384.326 577.835 -389.142 537.584C-394.3 494.002 -374.087 420.241 -495.379 408.956C-618.174 397.421 -762.585 431.585 -875.691 399.785" stroke="url(#paint79_radial_1412_523)" stroke-width="0.3" stroke-miterlimit="10"/>
<path d="M712.365 1042.44C646.656 1009.01 611.964 962.571 574.914 921.37C538.052 880.472 504.989 835.706 452.234 798.474C422.872 777.654 393.807 765.74 338.667 769.231C294.531 772.037 254.294 782.43 212.221 788.561C0.945585 819.311 41.3721 671.789 -71.2623 628.76C-135.051 604.414 -204.847 627.811 -273.944 631.051C-381.381 636.186 -401.766 586.829 -406.996 547.213C-412.702 503.529 -392.503 428.963 -514.224 417.51C-637.018 405.975 -780.71 441.907 -893.544 409.414" stroke="url(#paint80_radial_1412_523)" stroke-width="0.3" stroke-miterlimit="10"/>
<path d="M694.68 1050.08C567.238 982.494 540.972 884.133 436.611 809.437C406.919 788.258 378.937 775.744 322.624 779.344C278.368 782.217 237.868 792.62 195.532 798.761C-16.7734 829.676 25.6681 681.579 -87.4924 638.57C-151.258 614.348 -222.415 637.551 -291.775 640.801C-399.114 645.746 -419.432 596.759 -424.564 556.953C-430.007 513.258 -409.831 438.57 -531.408 427.173C-654.203 415.638 -798.233 451.893 -910.97 419.21" stroke="url(#paint81_radial_1412_523)" stroke-width="0.3" stroke-miterlimit="10"/>
<path d="M676.537 1053.77C552.769 986.722 525.289 891.878 420.739 819.047C393.433 800.065 366.526 787.633 315.536 789.906C270.597 791.939 228.564 802.651 186.295 809.161C-34.7024 843.27 15.9049 691.999 -101.193 648.466C-163.157 625.411 -234.664 645.964 -302.145 650.069C-409.719 656.634 -435.483 611.207 -441.147 569.936C-447.094 526.385 -423.517 449.27 -544.748 436.868C-668.819 424.145 -813.896 461.928 -928.3 428.817" stroke="url(#paint82_radial_1412_523)" stroke-width="0.3" stroke-miterlimit="10"/>
<path d="M657.914 1054.08C539.562 989.847 509.987 900.227 408.98 830.848C381.554 811.932 354.549 799.689 303.679 801.896C258.334 803.883 216.038 814.605 173.243 821.136C-50.7684 855.427 4.99643 702.651 -113.101 658.724C-175.635 635.444 -250.058 655.989 -318.517 659.823C-426.969 665.927 -452.96 621.438 -458.353 579.476C-464.036 535.914 -439.836 458.588 -561.329 446.197C-685.664 433.485 -831.199 471.657 -945.746 438.49" stroke="url(#paint83_radial_1412_523)" stroke-width="0.3" stroke-miterlimit="10"/>
<path d="M639.035 1051.55C529.388 992.916 495.067 912.155 405.764 847.389C376.62 826.313 346.732 811.335 289.586 814.72C243.323 817.487 200.62 828.163 156.608 834.557C-63.0714 866.446 -8.37279 712.907 -122.961 669.336C-186.156 645.339 -266.201 666.293 -336.185 669.755C-440.848 674.841 -468.94 634.09 -474.791 592.517C-480.836 549.155 -453.806 469.178 -574.164 455.75C-699.917 441.794 -846.74 481.628 -963.076 448.098" stroke="url(#paint84_radial_1412_523)" stroke-width="0.3" stroke-miterlimit="10"/>
<path d="M619.76 1046.8C515.128 992.432 481.718 917.395 394.266 857.696C364.467 837.389 331.615 824.325 276.542 828.185C229.317 831.485 185.99 842.372 140.618 848.572C-78.0066 878.252 -17.0675 722.607 -131.641 679.841C-197.316 655.322 -281.128 677.418 -353.944 679.877C-463.085 683.655 -486.809 641.429 -491.997 598.405C-497.082 556.678 -471.588 479.177 -586.729 465.294C-714.187 449.981 -862.132 491.656 -980.519 457.774" stroke="url(#paint85_radial_1412_523)" stroke-width="0.3" stroke-miterlimit="10"/>
<path d="M600.425 1040.32C501.612 990.984 468.818 922.239 383.899 868.447C352.303 848.459 319.088 837.763 264.248 842.171C219.983 845.726 179.229 855.458 136.585 861.363C-92.6546 893.137 -21.1092 736.08 -139.453 690.8C-203.384 666.399 -289.944 686.497 -361.596 689.529C-401.034 691.22 -442.579 689.34 -470.919 674.858C-506.102 656.994 -507.458 627.01 -509.333 604.355C-512.878 563.805 -489.237 489.227 -599.425 474.9C-728.489 458.04 -877.39 501.734 -998.092 467.511" stroke="url(#paint86_radial_1412_523)" stroke-width="0.3" stroke-miterlimit="10"/>
<path d="M580.893 1032.74C488.372 988.847 455.638 926.975 374.252 879.484C304.282 838.661 222.063 861.499 133.413 874.496C-108.156 909.856 -23.0908 747.741 -146.394 701.419C-212.234 676.722 -305.032 696.758 -378.856 699.505C-415.97 700.856 -455.464 699.328 -483.852 686.768C-521.772 669.88 -524.135 640.184 -526.153 617.472C-530.339 572.674 -502.321 495.94 -626.009 483.14C-752.274 470.009 -898.383 510.124 -1015.8 477.195" stroke="url(#paint87_radial_1412_523)" stroke-width="0.3" stroke-miterlimit="10"/>
<path d="M561.394 1024.59C475.759 986.499 442.482 931.833 365.079 890.935C292.356 852.452 206.407 877.357 118.916 889.441C-118.487 922.22 -33.5477 758.685 -153.101 712.587C-220.217 686.701 -319.645 707.435 -395.926 709.784C-434.927 710.961 -475.103 708.593 -503.287 694.973C-537.006 678.599 -540.08 652.275 -542.279 630.748C-546.737 586.642 -515.641 506.441 -638.05 492.662C-766.02 478.174 -913.371 520.196 -1032.96 486.981" stroke="url(#paint88_radial_1412_523)" stroke-width="0.3" stroke-miterlimit="10"/>
<path d="M541.744 1016.39C463.64 984.007 428.453 937.035 355.943 902.631C279.369 866.283 192.275 892.905 104.124 904.273C-131.336 934.621 -41.1114 768.833 -159.522 723.184C-225.354 697.805 -326.982 716.644 -402.001 719.376C-444.377 720.936 -493.934 719.436 -524.166 703.295C-556.75 685.886 -557.724 657.992 -559.442 636.198C-562.887 593.29 -533.193 516.304 -650.408 501.946C-780.105 485.979 -928.533 530.088 -1050.58 496.475" stroke="url(#paint89_radial_1412_523)" stroke-width="0.3" stroke-miterlimit="10"/>
<path d="M522.195 1008.69C454.53 982.698 416.851 946.043 354.518 918.048C273.855 881.8 193.71 905.112 101.198 917.272C-147.102 949.865 -43.2563 782.482 -167.038 734.26C-237.482 706.834 -350.861 728.803 -431.762 729.787C-468.245 730.246 -509.594 727.986 -536.929 715.385C-576.103 697.432 -575.525 665.699 -576.67 641.961C-578.648 598.377 -551.283 520.244 -676.507 509.92C-803.88 499.435 -949.785 538.489 -1068 506.272" stroke="url(#paint90_radial_1412_523)" stroke-width="0.3" stroke-miterlimit="10"/>
<path d="M502.843 1002.08C443.057 980.8 401.506 951.979 344.412 929.473C308.585 915.351 276.501 907.955 228.652 911.466C183.553 914.805 141.371 923.975 97.9601 930.035C-161.475 966.229 -47.9667 794.436 -174.287 744.643C-242.942 717.58 -358.619 737.844 -437.545 739.493C-479.649 740.36 -526.478 738.566 -556.817 723.297C-591.384 705.904 -592.306 677.575 -593.467 655.201C-595.664 611.873 -564.101 530.6 -688.857 519.205C-817.913 507.486 -965.368 548.212 -1085.61 515.766" stroke="url(#paint91_radial_1412_523)" stroke-width="0.3" stroke-miterlimit="10"/>
<path d="M483.682 997.27C433.879 980.607 390.04 961.043 341.32 943.779C300.383 929.24 268.361 920.726 214.858 925.205C169.06 929.068 125.968 938.336 81.34 944.258C-173.162 977.717 -59.1329 804.417 -183.147 755.647C-253.944 727.74 -373.499 748.53 -455.738 749.443C-497.91 749.942 -548.039 748.217 -577.384 731.855C-607.157 715.325 -608.608 689.184 -609.937 668.799C-612.592 625.86 -577.26 541.28 -700.88 528.849C-831.662 515.649 -980.338 558.406 -1102.63 525.608" stroke="url(#paint92_radial_1412_523)" stroke-width="0.3" stroke-miterlimit="10"/>
<path d="M464.781 994.615C420.733 980.448 373.953 968.743 329.325 955.032C289.603 942.799 262.383 934.466 212.58 937.435C160.957 940.6 113.159 951.665 63.0063 957.807C-186.562 988.531 -71.299 814.005 -192.811 765.879C-264.629 737.455 -391.889 758.861 -475.248 759.447C-514.285 759.697 -561.137 757.78 -590.274 744.011C-626.804 726.758 -626.077 696.568 -627.096 674.25C-629.077 632.833 -595.649 551.61 -713.572 538.458C-846.104 523.656 -995.736 568.432 -1120.35 535.293" stroke="url(#paint93_radial_1412_523)" stroke-width="0.3" stroke-miterlimit="10"/>
<path d="M446.113 994.674C404.611 981.396 360.024 978.089 317.663 966.642C275.994 955.353 251.818 946.28 200.843 949.357C148.957 952.533 100.633 963.619 50.217 969.771C-202.125 1000.54 -82.0874 824.589 -204.456 776.125C-276.988 747.42 -407.044 768.751 -491.356 769.189C-530.537 769.383 -578.297 767.564 -607.6 753.616C-644.009 736.297 -643.283 706.106 -644.181 683.722C-645.899 642.294 -611.848 560.861 -730.034 547.719C-862.949 532.994 -1012.92 578.093 -1137.82 544.842" stroke="url(#paint94_radial_1412_523)" stroke-width="0.3" stroke-miterlimit="10"/>
<path d="M427.928 998.121C401.693 989.378 383.75 984.702 352.907 983.388C334.487 982.633 321.582 982.341 304.496 978.003C261.338 967.269 240.185 957.332 187.511 960.539C135.22 963.67 86.6319 974.766 35.9532 980.928C-218.23 1011.77 -94.6668 834.813 -217.99 786.2C-291.07 757.393 -423.132 778.618 -508.137 778.898C-547.602 778.979 -595.341 777.283 -625.049 763.29C-661.601 745.914 -660.611 715.713 -661.51 693.328C-662.964 651.89 -628.552 570.257 -746.858 557.182C-879.773 542.457 -1030.35 587.89 -1155.26 554.515" stroke="url(#paint95_radial_1412_523)" stroke-width="0.3" stroke-miterlimit="10"/>
<path d="M410.197 1005.52C382.543 995.528 368.066 990.963 335.423 992.135C315.813 992.852 305.982 993.429 287.085 988.605C248.744 978.856 227.126 967.824 179.841 970.074C126.769 972.553 77.1518 983.814 26.112 990.177C-237.37 1023.06 -108.014 847.359 -234.438 796.269C-304.227 768.074 -433.063 787.375 -515.137 788.467C-560.082 789.014 -612.752 787.886 -644.937 771.203C-680.638 752.679 -679.002 722.39 -679.028 698.98C-679.282 659.043 -648.045 581.066 -760.007 567.181C-894.19 550.587 -1045.72 598.04 -1172.57 564.246" stroke="url(#paint96_radial_1412_523)" stroke-width="0.3" stroke-miterlimit="10"/>
</g>
<defs>
<radialGradient id="paint0_radial_1412_523" cx="0" cy="0" r="1" gradientUnits="userSpaceOnUse" gradientTransform="translate(1218.83 0.0967404) rotate(-158.486) scale(862.933 77.8407)">
<stop stop-color="#002DFF"/>
<stop offset="0.685417" stop-color="white"/>
<stop offset="1" stop-color="#0E1430"/>
</radialGradient>
<radialGradient id="paint1_radial_1412_523" cx="0" cy="0" r="1" gradientUnits="userSpaceOnUse" gradientTransform="translate(1201.02 9.96584) rotate(-158.486) scale(862.933 78.0909)">
<stop stop-color="#002DFF"/>
<stop offset="0.685417" stop-color="white"/>
<stop offset="1" stop-color="#0E1430"/>
</radialGradient>
<radialGradient id="paint2_radial_1412_523" cx="0" cy="0" r="1" gradientUnits="userSpaceOnUse" gradientTransform="translate(1182.61 20.1014) rotate(-158.486) scale(863.009 78.8723)">
<stop stop-color="#002DFF"/>
<stop offset="0.685417" stop-color="white"/>
<stop offset="1" stop-color="#0E1430"/>
</radialGradient>
<radialGradient id="paint3_radial_1412_523" cx="0" cy="0" r="1" gradientUnits="userSpaceOnUse" gradientTransform="translate(1164.03 30.4076) rotate(-158.486) scale(863.009 79.9829)">
<stop stop-color="#002DFF"/>
<stop offset="0.685417" stop-color="white"/>
<stop offset="1" stop-color="#0E1430"/>
</radialGradient>
<radialGradient id="paint4_radial_1412_523" cx="0" cy="0" r="1" gradientUnits="userSpaceOnUse" gradientTransform="translate(1144.98 40.9013) rotate(-158.486) scale(863.086 81.2784)">
<stop stop-color="#002DFF"/>
<stop offset="0.685417" stop-color="white"/>
<stop offset="1" stop-color="#0E1430"/>
</radialGradient>
<radialGradient id="paint5_radial_1412_523" cx="0" cy="0" r="1" gradientUnits="userSpaceOnUse" gradientTransform="translate(1125.72 51.643) rotate(-158.486) scale(863.009 82.98)">
<stop stop-color="#002DFF"/>
<stop offset="0.685417" stop-color="white"/>
<stop offset="1" stop-color="#0E1430"/>
</radialGradient>
<radialGradient id="paint6_radial_1412_523" cx="0" cy="0" r="1" gradientUnits="userSpaceOnUse" gradientTransform="translate(1106.37 62.3748) rotate(-158.486) scale(863.009 84.7589)">
<stop stop-color="#002DFF"/>
<stop offset="0.685417" stop-color="white"/>
<stop offset="1" stop-color="#0E1430"/>
</radialGradient>
<radialGradient id="paint7_radial_1412_523" cx="0" cy="0" r="1" gradientUnits="userSpaceOnUse" gradientTransform="translate(1086.76 73.2481) rotate(-158.486) scale(863.009 86.7336)">
<stop stop-color="#002DFF"/>
<stop offset="0.685417" stop-color="white"/>
<stop offset="1" stop-color="#0E1430"/>
</radialGradient>
<radialGradient id="paint8_radial_1412_523" cx="0" cy="0" r="1" gradientUnits="userSpaceOnUse" gradientTransform="translate(1067.23 84.142) rotate(-158.486) scale(862.933 88.7241)">
<stop stop-color="#002DFF"/>
<stop offset="0.685417" stop-color="white"/>
<stop offset="1" stop-color="#0E1430"/>
</radialGradient>
<radialGradient id="paint9_radial_1412_523" cx="0" cy="0" r="1" gradientUnits="userSpaceOnUse" gradientTransform="translate(1047.59 95.033) rotate(-158.486) scale(862.933 90.7549)">
<stop stop-color="#002DFF"/>
<stop offset="0.685417" stop-color="white"/>
<stop offset="1" stop-color="#0E1430"/>
</radialGradient>
<radialGradient id="paint10_radial_1412_523" cx="0" cy="0" r="1" gradientUnits="userSpaceOnUse" gradientTransform="translate(1027.97 105.912) rotate(-158.486) scale(862.933 92.7693)">
<stop stop-color="#002DFF"/>
<stop offset="0.685417" stop-color="white"/>
<stop offset="1" stop-color="#0E1430"/>
</radialGradient>
<radialGradient id="paint11_radial_1412_523" cx="0" cy="0" r="1" gradientUnits="userSpaceOnUse" gradientTransform="translate(1008.4 116.689) rotate(-158.486) scale(863.009 94.6662)">
<stop stop-color="#002DFF"/>
<stop offset="0.685417" stop-color="white"/>
<stop offset="1" stop-color="#0E1430"/>
</radialGradient>
<radialGradient id="paint12_radial_1412_523" cx="0" cy="0" r="1" gradientUnits="userSpaceOnUse" gradientTransform="translate(989.248 127.377) rotate(-158.486) scale(862.933 96.3013)">
<stop stop-color="#002DFF"/>
<stop offset="0.685417" stop-color="white"/>
<stop offset="1" stop-color="#0E1430"/>
</radialGradient>
<radialGradient id="paint13_radial_1412_523" cx="0" cy="0" r="1" gradientUnits="userSpaceOnUse" gradientTransform="translate(970.271 137.832) rotate(-158.486) scale(863.009 97.74)">
<stop stop-color="#002DFF"/>
<stop offset="0.685417" stop-color="white"/>
<stop offset="1" stop-color="#0E1430"/>
</radialGradient>
<radialGradient id="paint14_radial_1412_523" cx="0" cy="0" r="1" gradientUnits="userSpaceOnUse" gradientTransform="translate(951.716 148.321) rotate(-158.486) scale(862.779 98.8002)">
<stop stop-color="#002DFF"/>
<stop offset="0.685417" stop-color="white"/>
<stop offset="1" stop-color="#0E1430"/>
</radialGradient>
<radialGradient id="paint15_radial_1412_523" cx="0" cy="0" r="1" gradientUnits="userSpaceOnUse" gradientTransform="translate(933.515 158.278) rotate(-158.486) scale(862.933 99.4286)">
<stop stop-color="#002DFF"/>
<stop offset="0.685417" stop-color="white"/>
<stop offset="1" stop-color="#0E1430"/>
</radialGradient>
<radialGradient id="paint16_radial_1412_523" cx="0" cy="0" r="1" gradientUnits="userSpaceOnUse" gradientTransform="translate(915.433 168.168) rotate(-158.486) scale(863.086 99.6618)">
<stop stop-color="#002DFF"/>
<stop offset="0.685417" stop-color="white"/>
<stop offset="1" stop-color="#0E1430"/>
</radialGradient>
<radialGradient id="paint17_radial_1412_523" cx="0" cy="0" r="1" gradientUnits="userSpaceOnUse" gradientTransform="translate(898.903 177.4) rotate(-158.486) scale(863.009 99.2317)">
<stop stop-color="#002DFF"/>
<stop offset="0.685417" stop-color="white"/>
<stop offset="1" stop-color="#0E1430"/>
</radialGradient>
<radialGradient id="paint18_radial_1412_523" cx="0" cy="0" r="1" gradientUnits="userSpaceOnUse" gradientTransform="translate(885.279 185.021) rotate(-158.486) scale(862.933 99.3648)">
<stop stop-color="#002DFF"/>
<stop offset="0.685417" stop-color="white"/>
<stop offset="1" stop-color="#0E1430"/>
</radialGradient>
<radialGradient id="paint19_radial_1412_523" cx="0" cy="0" r="1" gradientUnits="userSpaceOnUse" gradientTransform="translate(873.024 191.681) rotate(-158.486) scale(863.086 99.416)">
<stop stop-color="#002DFF"/>
<stop offset="0.685417" stop-color="white"/>
<stop offset="1" stop-color="#0E1430"/>
</radialGradient>
<radialGradient id="paint20_radial_1412_523" cx="0" cy="0" r="1" gradientUnits="userSpaceOnUse" gradientTransform="translate(862.849 197.524) rotate(-158.486) scale(862.856 99.5674)">
<stop stop-color="#002DFF"/>
<stop offset="0.685417" stop-color="white"/>
<stop offset="1" stop-color="#0E1430"/>
</radialGradient>
<radialGradient id="paint21_radial_1412_523" cx="0" cy="0" r="1" gradientUnits="userSpaceOnUse" gradientTransform="translate(853.543 202.547) rotate(-158.486) scale(863.009 99.6391)">
<stop stop-color="#002DFF"/>
<stop offset="0.685417" stop-color="white"/>
<stop offset="1" stop-color="#0E1430"/>
</radialGradient>
<radialGradient id="paint22_radial_1412_523" cx="0" cy="0" r="1" gradientUnits="userSpaceOnUse" gradientTransform="translate(845.337 207.166) rotate(-158.486) scale(862.933 99.9339)">
<stop stop-color="#002DFF"/>
<stop offset="0.685417" stop-color="white"/>
<stop offset="1" stop-color="#0E1430"/>
</radialGradient>
<radialGradient id="paint23_radial_1412_523" cx="0" cy="0" r="1" gradientUnits="userSpaceOnUse" gradientTransform="translate(837.767 211.295) rotate(-158.486) scale(863.009 100.187)">
<stop stop-color="#002DFF"/>
<stop offset="0.685417" stop-color="white"/>
<stop offset="1" stop-color="#0E1430"/>
</radialGradient>
<radialGradient id="paint24_radial_1412_523" cx="0" cy="0" r="1" gradientUnits="userSpaceOnUse" gradientTransform="translate(830.483 215.335) rotate(-158.486) scale(863.009 100.538)">
<stop stop-color="#002DFF"/>
<stop offset="0.685417" stop-color="white"/>
<stop offset="1" stop-color="#0E1430"/>
</radialGradient>
<radialGradient id="paint25_radial_1412_523" cx="0" cy="0" r="1" gradientUnits="userSpaceOnUse" gradientTransform="translate(823.353 219.286) rotate(-158.486) scale(863.009 100.955)">
<stop stop-color="#002DFF"/>
<stop offset="0.685417" stop-color="white"/>
<stop offset="1" stop-color="#0E1430"/>
</radialGradient>
<radialGradient id="paint26_radial_1412_523" cx="0" cy="0" r="1" gradientUnits="userSpaceOnUse" gradientTransform="translate(815.864 223.44) rotate(-158.486) scale(863.009 101.368)">
<stop stop-color="#002DFF"/>
<stop offset="0.685417" stop-color="white"/>
<stop offset="1" stop-color="#0E1430"/>
</radialGradient>
<radialGradient id="paint27_radial_1412_523" cx="0" cy="0" r="1" gradientUnits="userSpaceOnUse" gradientTransform="translate(807.859 227.942) rotate(-158.486) scale(862.933 101.84)">
<stop stop-color="#002DFF"/>
<stop offset="0.685417" stop-color="white"/>
<stop offset="1" stop-color="#0E1430"/>
</radialGradient>
<radialGradient id="paint28_radial_1412_523" cx="0" cy="0" r="1" gradientUnits="userSpaceOnUse" gradientTransform="translate(798.906 232.84) rotate(-158.486) scale(863.009 102.183)">
<stop stop-color="#002DFF"/>
<stop offset="0.685417" stop-color="white"/>
<stop offset="1" stop-color="#0E1430"/>
</radialGradient>
<radialGradient id="paint29_radial_1412_523" cx="0" cy="0" r="1" gradientUnits="userSpaceOnUse" gradientTransform="translate(788.475 238.488) rotate(-158.486) scale(863.163 102.553)">
<stop stop-color="#002DFF"/>
<stop offset="0.685417" stop-color="white"/>
<stop offset="1" stop-color="#0E1430"/>
</radialGradient>
<radialGradient id="paint30_radial_1412_523" cx="0" cy="0" r="1" gradientUnits="userSpaceOnUse" gradientTransform="translate(776.706 245.215) rotate(-158.486) scale(862.933 102.87)">
<stop stop-color="#002DFF"/>
<stop offset="0.685417" stop-color="white"/>
<stop offset="1" stop-color="#0E1430"/>
</radialGradient>
<radialGradient id="paint31_radial_1412_523" cx="0" cy="0" r="1" gradientUnits="userSpaceOnUse" gradientTransform="translate(763.008 252.675) rotate(-158.486) scale(863.086 103.018)">
<stop stop-color="#002DFF"/>
<stop offset="0.685417" stop-color="white"/>
<stop offset="1" stop-color="#0E1430"/>
</radialGradient>
<radialGradient id="paint32_radial_1412_523" cx="0" cy="0" r="1" gradientUnits="userSpaceOnUse" gradientTransform="translate(746.973 261.632) rotate(-158.486) scale(863.009 103.163)">
<stop stop-color="#002DFF"/>
<stop offset="0.685417" stop-color="white"/>
<stop offset="1" stop-color="#0E1430"/>
</radialGradient>
<radialGradient id="paint33_radial_1412_523" cx="0" cy="0" r="1" gradientUnits="userSpaceOnUse" gradientTransform="translate(728.058 271.444) rotate(-158.486) scale(862.089 102.042)">
<stop stop-color="#002DFF"/>
<stop offset="0.685417" stop-color="white"/>
<stop offset="1" stop-color="#0E1430"/>
</radialGradient>
<radialGradient id="paint34_radial_1412_523" cx="0" cy="0" r="1" gradientUnits="userSpaceOnUse" gradientTransform="translate(707.084 281.041) rotate(-158.486) scale(859.787 99.7598)">
<stop stop-color="#002DFF"/>
<stop offset="0.685417" stop-color="white"/>
<stop offset="1" stop-color="#0E1430"/>
</radialGradient>
<radialGradient id="paint35_radial_1412_523" cx="0" cy="0" r="1" gradientUnits="userSpaceOnUse" gradientTransform="translate(684.231 290.46) rotate(-158.486) scale(856.259 96.3651)">
<stop stop-color="#002DFF"/>
<stop offset="0.685417" stop-color="white"/>
<stop offset="1" stop-color="#0E1430"/>
</radialGradient>
<radialGradient id="paint36_radial_1412_523" cx="0" cy="0" r="1" gradientUnits="userSpaceOnUse" gradientTransform="translate(660.124 299.767) rotate(-158.486) scale(851.502 92.0887)">
<stop stop-color="#002DFF"/>
<stop offset="0.685417" stop-color="white"/>
<stop offset="1" stop-color="#0E1430"/>
</radialGradient>
<radialGradient id="paint37_radial_1412_523" cx="0" cy="0" r="1" gradientUnits="userSpaceOnUse" gradientTransform="translate(634.476 308.975) rotate(-158.486) scale(846.132 87.0036)">
<stop stop-color="#002DFF"/>
<stop offset="0.685417" stop-color="white"/>
<stop offset="1" stop-color="#0E1430"/>
</radialGradient>
<radialGradient id="paint38_radial_1412_523" cx="0" cy="0" r="1" gradientUnits="userSpaceOnUse" gradientTransform="translate(608.268 318.089) rotate(-158.486) scale(839.995 81.3853)">
<stop stop-color="#002DFF"/>
<stop offset="0.685417" stop-color="white"/>
<stop offset="1" stop-color="#0E1430"/>
</radialGradient>
<radialGradient id="paint39_radial_1412_523" cx="0" cy="0" r="1" gradientUnits="userSpaceOnUse" gradientTransform="translate(581.515 327.099) rotate(-158.486) scale(833.398 75.5695)">
<stop stop-color="#002DFF"/>
<stop offset="0.685417" stop-color="white"/>
<stop offset="1" stop-color="#0E1430"/>
</radialGradient>
<radialGradient id="paint40_radial_1412_523" cx="0" cy="0" r="1" gradientUnits="userSpaceOnUse" gradientTransform="translate(557.896 334.371) rotate(-158.486) scale(826.494 72.5461)">
<stop stop-color="#002DFF"/>
<stop offset="0.685417" stop-color="white"/>
<stop offset="1" stop-color="#0E1430"/>
</radialGradient>
<radialGradient id="paint41_radial_1412_523" cx="0" cy="0" r="1" gradientUnits="userSpaceOnUse" gradientTransform="translate(540.632 337.851) rotate(-158.486) scale(819.744 75.5721)">
<stop stop-color="#002DFF"/>
<stop offset="0.685417" stop-color="white"/>
<stop offset="1" stop-color="#0E1430"/>
</radialGradient>
<radialGradient id="paint42_radial_1412_523" cx="0" cy="0" r="1" gradientUnits="userSpaceOnUse" gradientTransform="translate(524.487 341.046) rotate(-158.486) scale(813.07 78.6784)">
<stop stop-color="#002DFF"/>
<stop offset="0.685417" stop-color="white"/>
<stop offset="1" stop-color="#0E1430"/>
</radialGradient>
<radialGradient id="paint43_radial_1412_523" cx="0" cy="0" r="1" gradientUnits="userSpaceOnUse" gradientTransform="translate(508.025 344.688) rotate(-158.486) scale(807.009 81.9937)">
<stop stop-color="#002DFF"/>
<stop offset="0.685417" stop-color="white"/>
<stop offset="1" stop-color="#0E1430"/>
</radialGradient>
<radialGradient id="paint44_radial_1412_523" cx="0" cy="0" r="1" gradientUnits="userSpaceOnUse" gradientTransform="translate(491.761 348.831) rotate(-158.486) scale(801.486 85.0802)">
<stop stop-color="#002DFF"/>
<stop offset="0.685417" stop-color="white"/>
<stop offset="1" stop-color="#0E1430"/>
</radialGradient>
<radialGradient id="paint45_radial_1412_523" cx="0" cy="0" r="1" gradientUnits="userSpaceOnUse" gradientTransform="translate(475.338 353.875) rotate(-158.486) scale(796.883 87.7352)">
<stop stop-color="#002DFF"/>
<stop offset="0.685417" stop-color="white"/>
<stop offset="1" stop-color="#0E1430"/>
</radialGradient>
<radialGradient id="paint46_radial_1412_523" cx="0" cy="0" r="1" gradientUnits="userSpaceOnUse" gradientTransform="translate(458.144 360.227) rotate(-158.486) scale(793.278 89.5083)">
<stop stop-color="#002DFF"/>
<stop offset="0.685417" stop-color="white"/>
<stop offset="1" stop-color="#0E1430"/>
</radialGradient>
<radialGradient id="paint47_radial_1412_523" cx="0" cy="0" r="1" gradientUnits="userSpaceOnUse" gradientTransform="translate(441.474 367.439) rotate(-158.486) scale(790.977 90.9115)">
<stop stop-color="#002DFF"/>
<stop offset="0.685417" stop-color="white"/>
<stop offset="1" stop-color="#0E1430"/>
</radialGradient>
<radialGradient id="paint48_radial_1412_523" cx="0" cy="0" r="1" gradientUnits="userSpaceOnUse" gradientTransform="translate(424.539 376.013) rotate(-158.486) scale(790.209 91.6891)">
<stop stop-color="#002DFF"/>
<stop offset="0.685417" stop-color="white"/>
<stop offset="1" stop-color="#0E1430"/>
</radialGradient>
<radialGradient id="paint49_radial_1412_523" cx="0" cy="0" r="1" gradientUnits="userSpaceOnUse" gradientTransform="translate(407.634 386.336) rotate(-158.486) scale(790.823 90.6675)">
<stop stop-color="#002DFF"/>
<stop offset="0.685417" stop-color="white"/>
<stop offset="1" stop-color="#0E1430"/>
</radialGradient>
<radialGradient id="paint50_radial_1412_523" cx="0" cy="0" r="1" gradientUnits="userSpaceOnUse" gradientTransform="translate(391.915 396.944) rotate(-158.486) scale(793.278 88.3297)">
<stop stop-color="#002DFF"/>
<stop offset="0.685417" stop-color="white"/>
<stop offset="1" stop-color="#0E1430"/>
</radialGradient>
<radialGradient id="paint51_radial_1412_523" cx="0" cy="0" r="1" gradientUnits="userSpaceOnUse" gradientTransform="translate(378.268 407.761) rotate(-158.486) scale(796.807 85.0412)">
<stop stop-color="#002DFF"/>
<stop offset="0.685417" stop-color="white"/>
<stop offset="1" stop-color="#0E1430"/>
</radialGradient>
<radialGradient id="paint52_radial_1412_523" cx="0" cy="0" r="1" gradientUnits="userSpaceOnUse" gradientTransform="translate(364.936 419.081) rotate(-158.486) scale(801.563 80.4627)">
<stop stop-color="#002DFF"/>
<stop offset="0.685417" stop-color="white"/>
<stop offset="1" stop-color="#0E1430"/>
</radialGradient>
<radialGradient id="paint53_radial_1412_523" cx="0" cy="0" r="1" gradientUnits="userSpaceOnUse" gradientTransform="translate(352.85 430.721) rotate(-158.486) scale(807.009 74.9272)">
<stop stop-color="#002DFF"/>
<stop offset="0.685417" stop-color="white"/>
<stop offset="1" stop-color="#0E1430"/>
</radialGradient>
<radialGradient id="paint54_radial_1412_523" cx="0" cy="0" r="1" gradientUnits="userSpaceOnUse" gradientTransform="translate(341.222 442.651) rotate(-158.486) scale(813.07 69.1266)">
<stop stop-color="#002DFF"/>
<stop offset="0.685417" stop-color="white"/>
<stop offset="1" stop-color="#0E1430"/>
</radialGradient>
<radialGradient id="paint55_radial_1412_523" cx="0" cy="0" r="1" gradientUnits="userSpaceOnUse" gradientTransform="translate(329.874 454.766) rotate(-158.486) scale(819.667 63.147)">
<stop stop-color="#002DFF"/>
<stop offset="0.685417" stop-color="white"/>
<stop offset="1" stop-color="#0E1430"/>
</radialGradient>
<radialGradient id="paint56_radial_1412_523" cx="0" cy="0" r="1" gradientUnits="userSpaceOnUse" gradientTransform="translate(320.681 465.89) rotate(-158.486) scale(826.494 55.7501)">
<stop stop-color="#002DFF"/>
<stop offset="0.685417" stop-color="white"/>
<stop offset="1" stop-color="#0E1430"/>
</radialGradient>
<radialGradient id="paint57_radial_1412_523" cx="0" cy="0" r="1" gradientUnits="userSpaceOnUse" gradientTransform="translate(309.727 477.784) rotate(-158.486) scale(833.398 50.3206)">
<stop stop-color="#002DFF"/>
<stop offset="0.685417" stop-color="white"/>
<stop offset="1" stop-color="#0E1430"/>
</radialGradient>
<radialGradient id="paint58_radial_1412_523" cx="0" cy="0" r="1" gradientUnits="userSpaceOnUse" gradientTransform="translate(300.468 488.806) rotate(-158.486) scale(839.919 46.4158)">
<stop stop-color="#002DFF"/>
<stop offset="0.685417" stop-color="white"/>
<stop offset="1" stop-color="#0E1430"/>
</radialGradient>
<radialGradient id="paint59_radial_1412_523" cx="0" cy="0" r="1" gradientUnits="userSpaceOnUse" gradientTransform="translate(296.491 496.428) rotate(-158.486) scale(846.056 47.8455)">
<stop stop-color="#002DFF"/>
<stop offset="0.685417" stop-color="white"/>
<stop offset="1" stop-color="#0E1430"/>
</radialGradient>
<radialGradient id="paint60_radial_1412_523" cx="0" cy="0" r="1" gradientUnits="userSpaceOnUse" gradientTransform="translate(290.942 504.378) rotate(-158.486) scale(851.579 49.2914)">
<stop stop-color="#002DFF"/>
<stop offset="0.685417" stop-color="white"/>
<stop offset="1" stop-color="#0E1430"/>
</radialGradient>
<radialGradient id="paint61_radial_1412_523" cx="0" cy="0" r="1" gradientUnits="userSpaceOnUse" gradientTransform="translate(283.666 512.542) rotate(-158.486) scale(856.259 50.5641)">
<stop stop-color="#002DFF"/>
<stop offset="0.685417" stop-color="white"/>
<stop offset="1" stop-color="#0E1430"/>
</radialGradient>
<radialGradient id="paint62_radial_1412_523" cx="0" cy="0" r="1" gradientUnits="userSpaceOnUse" gradientTransform="translate(274.052 521.054) rotate(-158.486) scale(859.864 51.4329)">
<stop stop-color="#002DFF"/>
<stop offset="0.685417" stop-color="white"/>
<stop offset="1" stop-color="#0E1430"/>
</radialGradient>
<radialGradient id="paint63_radial_1412_523" cx="0" cy="0" r="1" gradientUnits="userSpaceOnUse" gradientTransform="translate(262.019 529.759) rotate(-158.486) scale(862.165 52.0769)">
<stop stop-color="#4361EE"/>
<stop offset="0.2" stop-color="#6B7FDA"/>
<stop offset="0.4" stop-color="#06124A"/>
<stop offset="0.6" stop-color="#0E1430"/>
<stop offset="0.8" stop-color="#070223"/>
<stop offset="1" stop-color="#3300FF"/>
</radialGradient>
<radialGradient id="paint64_radial_1412_523" cx="0" cy="0" r="1" gradientUnits="userSpaceOnUse" gradientTransform="translate(246.792 538.944) rotate(-158.486) scale(863.009 52.651)">
<stop stop-color="#002DFF"/>
<stop offset="0.685417" stop-color="white"/>
<stop offset="1" stop-color="#0E1430"/>
</radialGradient>
<radialGradient id="paint65_radial_1412_523" cx="0" cy="0" r="1" gradientUnits="userSpaceOnUse" gradientTransform="translate(228.652 549.07) rotate(-158.486) scale(862.933 51.7153)">
<stop stop-color="#002DFF"/>
<stop offset="0.685417" stop-color="white"/>
<stop offset="1" stop-color="#0E1430"/>
</radialGradient>
<radialGradient id="paint66_radial_1412_523" cx="0" cy="0" r="1" gradientUnits="userSpaceOnUse" gradientTransform="translate(210.166 559.182) rotate(-158.486) scale(863.086 51.6226)">
<stop stop-color="#002DFF"/>
<stop offset="0.685417" stop-color="white"/>
<stop offset="1" stop-color="#0E1430"/>
</radialGradient>
<radialGradient id="paint67_radial_1412_523" cx="0" cy="0" r="1" gradientUnits="userSpaceOnUse" gradientTransform="translate(194.049 568.254) rotate(-158.486) scale(862.933 52.5203)">
<stop stop-color="#002DFF"/>
<stop offset="0.685417" stop-color="white"/>
<stop offset="1" stop-color="#0E1430"/>
</radialGradient>
<radialGradient id="paint68_radial_1412_523" cx="0" cy="0" r="1" gradientUnits="userSpaceOnUse" gradientTransform="translate(177.884 577.081) rotate(-158.486) scale(863.086 53.6636)">
<stop stop-color="#002DFF"/>
<stop offset="0.685417" stop-color="white"/>
<stop offset="1" stop-color="#0E1430"/>
</radialGradient>
<radialGradient id="paint69_radial_1412_523" cx="0" cy="0" r="1" gradientUnits="userSpaceOnUse" gradientTransform="translate(162.461 585.696) rotate(-158.486) scale(863.009 55.0671)">
<stop stop-color="#002DFF"/>
<stop offset="0.685417" stop-color="white"/>
<stop offset="1" stop-color="#0E1430"/>
</radialGradient>
<radialGradient id="paint70_radial_1412_523" cx="0" cy="0" r="1" gradientUnits="userSpaceOnUse" gradientTransform="translate(147.134 594.192) rotate(-158.486) scale(863.009 56.5842)">
<stop stop-color="#002DFF"/>
<stop offset="0.685417" stop-color="white"/>
<stop offset="1" stop-color="#0E1430"/>
</radialGradient>
<radialGradient id="paint71_radial_1412_523" cx="0" cy="0" r="1" gradientUnits="userSpaceOnUse" gradientTransform="translate(131.342 602.951) rotate(-158.486) scale(863.009 57.8712)">
<stop stop-color="#002DFF"/>
<stop offset="0.685417" stop-color="white"/>
<stop offset="1" stop-color="#0E1430"/>
</radialGradient>
<radialGradient id="paint72_radial_1412_523" cx="0" cy="0" r="1" gradientUnits="userSpaceOnUse" gradientTransform="translate(116.103 611.332) rotate(-158.486) scale(863.086 59.6201)">
<stop stop-color="#002DFF"/>
<stop offset="0.685417" stop-color="white"/>
<stop offset="1" stop-color="#0E1430"/>
</radialGradient>
<radialGradient id="paint73_radial_1412_523" cx="0" cy="0" r="1" gradientUnits="userSpaceOnUse" gradientTransform="translate(101.121 619.706) rotate(-158.486) scale(863.009 61.3392)">
<stop stop-color="#002DFF"/>
<stop offset="0.685417" stop-color="white"/>
<stop offset="1" stop-color="#0E1430"/>
</radialGradient>
<radialGradient id="paint74_radial_1412_523" cx="0" cy="0" r="1" gradientUnits="userSpaceOnUse" gradientTransform="translate(85.8654 628.163) rotate(-158.486) scale(863.009 63.275)">
<stop stop-color="#002DFF"/>
<stop offset="0.685417" stop-color="white"/>
<stop offset="1" stop-color="#0E1430"/>
</radialGradient>
<radialGradient id="paint75_radial_1412_523" cx="0" cy="0" r="1" gradientUnits="userSpaceOnUse" gradientTransform="translate(70.3992 636.737) rotate(-158.486) scale(863.009 65.0223)">
<stop stop-color="#002DFF"/>
<stop offset="0.685417" stop-color="white"/>
<stop offset="1" stop-color="#0E1430"/>
</radialGradient>
<radialGradient id="paint76_radial_1412_523" cx="0" cy="0" r="1" gradientUnits="userSpaceOnUse" gradientTransform="translate(54.581 645.51) rotate(-158.486) scale(863.009 66.5665)">
<stop stop-color="#002DFF"/>
<stop offset="0.685417" stop-color="white"/>
<stop offset="1" stop-color="#0E1430"/>
</radialGradient>
<radialGradient id="paint77_radial_1412_523" cx="0" cy="0" r="1" gradientUnits="userSpaceOnUse" gradientTransform="translate(38.6825 654.323) rotate(-158.486) scale(863.009 67.9369)">
<stop stop-color="#002DFF"/>
<stop offset="0.685417" stop-color="white"/>
<stop offset="1" stop-color="#0E1430"/>
</radialGradient>
<radialGradient id="paint78_radial_1412_523" cx="0" cy="0" r="1" gradientUnits="userSpaceOnUse" gradientTransform="translate(22.4378 663.329) rotate(-158.486) scale(863.009 68.9957)">
<stop stop-color="#002DFF"/>
<stop offset="0.685417" stop-color="white"/>
<stop offset="1" stop-color="#0E1430"/>
</radialGradient>
<radialGradient id="paint79_radial_1412_523" cx="0" cy="0" r="1" gradientUnits="userSpaceOnUse" gradientTransform="translate(6.0741 672.469) rotate(-158.486) scale(862.933 69.783)">
<stop stop-color="#002DFF"/>
<stop offset="0.685417" stop-color="white"/>
<stop offset="1" stop-color="#0E1430"/>
</radialGradient>
<radialGradient id="paint80_radial_1412_523" cx="0" cy="0" r="1" gradientUnits="userSpaceOnUse" gradientTransform="translate(-11.2498 681.94) rotate(-158.486) scale(863.086 70.0188)">
<stop stop-color="#002DFF"/>
<stop offset="0.685417" stop-color="white"/>
<stop offset="1" stop-color="#0E1430"/>
</radialGradient>
<radialGradient id="paint81_radial_1412_523" cx="0" cy="0" r="1" gradientUnits="userSpaceOnUse" gradientTransform="translate(-29.7729 691.194) rotate(-158.486) scale(861.782 70.1205)">
<stop stop-color="#002DFF"/>
<stop offset="0.685417" stop-color="white"/>
<stop offset="1" stop-color="#0E1430"/>
</radialGradient>
<radialGradient id="paint82_radial_1412_523" cx="0" cy="0" r="1" gradientUnits="userSpaceOnUse" gradientTransform="translate(-50.0809 699.269) rotate(-158.486) scale(858.176 70.4532)">
<stop stop-color="#002DFF"/>
<stop offset="0.685417" stop-color="white"/>
<stop offset="1" stop-color="#0E1430"/>
</radialGradient>
<radialGradient id="paint83_radial_1412_523" cx="0" cy="0" r="1" gradientUnits="userSpaceOnUse" gradientTransform="translate(-72.4396 706.656) rotate(-158.486) scale(852.5 70.7784)">
<stop stop-color="#002DFF"/>
<stop offset="0.685417" stop-color="white"/>
<stop offset="1" stop-color="#0E1430"/>
</radialGradient>
<radialGradient id="paint84_radial_1412_523" cx="0" cy="0" r="1" gradientUnits="userSpaceOnUse" gradientTransform="translate(-96.1053 713.278) rotate(-158.486) scale(845.135 71.2329)">
<stop stop-color="#002DFF"/>
<stop offset="0.685417" stop-color="white"/>
<stop offset="1" stop-color="#0E1430"/>
</radialGradient>
<radialGradient id="paint85_radial_1412_523" cx="0" cy="0" r="1" gradientUnits="userSpaceOnUse" gradientTransform="translate(-121.011 719.374) rotate(-158.486) scale(836.39 71.8267)">
<stop stop-color="#002DFF"/>
<stop offset="0.685417" stop-color="white"/>
<stop offset="1" stop-color="#0E1430"/>
</radialGradient>
<radialGradient id="paint86_radial_1412_523" cx="0" cy="0" r="1" gradientUnits="userSpaceOnUse" gradientTransform="translate(-146.938 725.144) rotate(-158.486) scale(826.648 72.4698)">
<stop stop-color="#002DFF"/>
<stop offset="0.685417" stop-color="white"/>
<stop offset="1" stop-color="#0E1430"/>
</radialGradient>
<radialGradient id="paint87_radial_1412_523" cx="0" cy="0" r="1" gradientUnits="userSpaceOnUse" gradientTransform="translate(-174.074 730.915) rotate(-158.486) scale(816.292 72.6377)">
<stop stop-color="#002DFF"/>
<stop offset="0.685417" stop-color="white"/>
<stop offset="1" stop-color="#0E1430"/>
</radialGradient>
<radialGradient id="paint88_radial_1412_523" cx="0" cy="0" r="1" gradientUnits="userSpaceOnUse" gradientTransform="translate(-200.642 736.304) rotate(-158.486) scale(805.398 73.2782)">
<stop stop-color="#002DFF"/>
<stop offset="0.685417" stop-color="white"/>
<stop offset="1" stop-color="#0E1430"/>
</radialGradient>
<radialGradient id="paint89_radial_1412_523" cx="0" cy="0" r="1" gradientUnits="userSpaceOnUse" gradientTransform="translate(-227.389 741.449) rotate(-158.486) scale(794.736 73.9772)">
<stop stop-color="#002DFF"/>
<stop offset="0.685417" stop-color="white"/>
<stop offset="1" stop-color="#0E1430"/>
</radialGradient>
<radialGradient id="paint90_radial_1412_523" cx="0" cy="0" r="1" gradientUnits="userSpaceOnUse" gradientTransform="translate(-253.966 746.98) rotate(-158.486) scale(784.149 74.5875)">
<stop stop-color="#002DFF"/>
<stop offset="0.685417" stop-color="white"/>
<stop offset="1" stop-color="#0E1430"/>
</radialGradient>
<radialGradient id="paint91_radial_1412_523" cx="0" cy="0" r="1" gradientUnits="userSpaceOnUse" gradientTransform="translate(-279.835 752.521) rotate(-158.486) scale(774.484 75.237)">
<stop stop-color="#002DFF"/>
<stop offset="0.685417" stop-color="white"/>
<stop offset="1" stop-color="#0E1430"/>
</radialGradient>
<radialGradient id="paint92_radial_1412_523" cx="0" cy="0" r="1" gradientUnits="userSpaceOnUse" gradientTransform="translate(-304.54 758.702) rotate(-158.486) scale(765.508 75.8248)">
<stop stop-color="#002DFF"/>
<stop offset="0.685417" stop-color="white"/>
<stop offset="1" stop-color="#0E1430"/>
</radialGradient>
<radialGradient id="paint93_radial_1412_523" cx="0" cy="0" r="1" gradientUnits="userSpaceOnUse" gradientTransform="translate(-327.783 764.954) rotate(-158.486) scale(758.144 76.9905)">
<stop stop-color="#002DFF"/>
<stop offset="0.685417" stop-color="white"/>
<stop offset="1" stop-color="#0E1430"/>
</radialGradient>
<radialGradient id="paint94_radial_1412_523" cx="0" cy="0" r="1" gradientUnits="userSpaceOnUse" gradientTransform="translate(-345.851 769.758) rotate(-158.486) scale(752.39 81.1852)">
<stop stop-color="#002DFF"/>
<stop offset="0.685417" stop-color="white"/>
<stop offset="1" stop-color="#0E1430"/>
</radialGradient>
<radialGradient id="paint95_radial_1412_523" cx="0" cy="0" r="1" gradientUnits="userSpaceOnUse" gradientTransform="translate(-363.668 776.318) rotate(-158.486) scale(748.632 83.9463)">
<stop stop-color="#002DFF"/>
<stop offset="0.685417" stop-color="white"/>
<stop offset="1" stop-color="#0E1430"/>
</radialGradient>
<radialGradient id="paint96_radial_1412_523" cx="0" cy="0" r="1" gradientUnits="userSpaceOnUse" gradientTransform="translate(-381.186 784.881) rotate(-158.486) scale(747.174 84.9551)">
<stop stop-color="#002DFF"/>
<stop offset="0.685417" stop-color="white"/>
<stop offset="1" stop-color="#0E1430"/>
</radialGradient>
</defs>
</svg>
