<svg xmlns="http://www.w3.org/2000/svg" width="167" height="25" fill="none" xmlns:v="https://vecta.io/nano"><path d="M.695 0h19.107l9.004 12.123L19.244 25H5.887L21.205 4.374H13.67l-4.864 6.549L.695 0z" fill="url(#A)"/><path d="M97.751 7.836c-4.265 0-7.724 3.39-7.724 7.571s3.459 7.569 7.724 7.569 7.724-3.387 7.724-7.569-3.456-7.571-7.724-7.571zm0 12.418c-2.73 0-4.951-2.17-4.951-4.847s2.216-4.847 4.951-4.847 4.952 2.17 4.952 4.847-2.219 4.847-4.952 4.847zM56.845 7.838h-2.66v15.14h2.66V7.838zm0-5.815h-2.66v3.523h2.66V2.023zm13.928 10.09h-2.525c-.075-1.452-1.04-2.18-2.891-2.177-.955 0-1.709.183-2.259.551a1.7 1.7 0 0 0-.83 1.483c0 .951.889 1.631 2.667 2.037l2.216.511c1.441.338 2.478.818 3.115 1.443s.955 1.471.955 2.546a3.87 3.87 0 0 1-1.599 3.264c-1.068.803-2.509 1.205-4.322 1.203-1.983 0-3.489-.476-4.517-1.426-.87-.789-1.37-1.911-1.377-3.09h2.603a3.38 3.38 0 0 0 .618 1.443c.505.604 1.448.906 2.829.906 1.03 0 1.848-.193 2.457-.58a1.76 1.76 0 0 0 .934-1.521c0-.963-.738-1.624-2.216-1.98l-2.16-.509c-1.648-.397-2.799-.872-3.452-1.426-.755-.616-1.132-1.507-1.132-2.677a3.76 3.76 0 0 1 1.502-3.14c1-.773 2.341-1.158 4.025-1.16 1.759 0 3.124.442 4.098 1.329.832.756 1.294 1.842 1.261 2.971zm9.596 8.137c-2.735 0-4.951-2.175-4.951-4.854s2.219-4.857 4.951-4.857a4.95 4.95 0 0 1 4.694 3.297h2.881c-.736-3.44-3.846-6.024-7.576-6.024-4.272 0-7.736 3.395-7.736 7.583s3.464 7.58 7.736 7.58c3.772 0 6.922-2.653 7.601-6.161h-2.855c-.672 2.063-2.591 3.454-4.746 3.435zm39.03-12.299l-5.404 15.023h-3.105l-5.423-15.023h3.114l3.773 11.562h.155l3.773-11.562h3.117zm1.475 8.799h13.892c.085-.449.128-.906.128-1.364 0-4.193-3.469-7.592-7.748-7.592s-7.748 3.399-7.748 7.592 3.469 7.59 7.748 7.59c3.225.024 6.13-1.971 7.285-5.009h-3.086a5.01 5.01 0 0 1-6.976 1.429 5.07 5.07 0 0 1-1.498-1.555.94.94 0 0 0-.794-.449h-1.203v-.642zm6.272-6.226c2.176-.017 4.107 1.402 4.76 3.494h-9.52c.653-2.092 2.584-3.511 4.76-3.494zm26.771-2.711c-1.236 0-2.433.423-3.395 1.203V7.95h-2.926v15.023h2.919V11.849c0-.525-.422-.951-.943-.951h-.522v-.537h6.956v-2.14c-.663-.273-1.372-.414-2.089-.409zm10.69 0c-1.236 0-2.434.423-3.395 1.203V7.95h-2.929v15.023h2.921V11.849c0-.525-.422-.951-.943-.951h-.521v-.537h6.956v-2.14a5.39 5.39 0 0 0-2.089-.409zm-21.379-.002c-1.236 0-2.433.423-3.395 1.203V7.949h-2.929v15.023h2.922V11.847c0-.521-.415-.944-.932-.951h-.523v-.537h6.955V8.22a5.34 5.34 0 0 0-2.098-.409zm-92.702-.943a8.35 8.35 0 0 0-3.372-3.592c-1.462-.834-3.211-1.25-5.248-1.253h-6.932v20.952h6.729c2.11 0 3.909-.421 5.399-1.262 1.476-.83 2.667-2.092 3.414-3.618.785-1.569 1.179-3.444 1.179-5.627s-.389-4.048-1.169-5.6zm-2.693 9.81a5.62 5.62 0 0 1-2.358 2.629c-1.049.604-2.365.906-3.947.906H38.11V6.29c0-.525-.422-.951-.943-.951h-.719v-.547h5.284c1.514 0 2.782.297 3.805.889a5.6 5.6 0 0 1 2.308 2.615c.516 1.146.773 2.541.776 4.184s-.262 3.043-.788 4.198z" fill="#fff"/><defs><linearGradient id="A" x1="14.752" y1="30.586" x2="14.752" y2="-4.043" gradientUnits="userSpaceOnUse"><stop stop-color="#005de8"/><stop offset="1" stop-color="#0999f6"/></linearGradient></defs></svg>