<svg xmlns="http://www.w3.org/2000/svg" xmlns:xlink="http://www.w3.org/1999/xlink" width="1438" height="786" fill="none" xmlns:v="https://vecta.io/nano"><g stroke-width="1.3" stroke-miterlimit="10"><path d="M-581.886 563.657A215441126.525 215441126.525 0 00-88.04 980.647c49.453 41.753 92.797 84.563 143.004 120.363 39.485 28.3 93.838 31.35 140.797 35.14 58.589 4.69 117.563 5.25 175.895 11.85 36.59 4.15 93.631 7.92 117.984 41.08 20.78 28.21 9.616 68.6.631 98.82-11.247 38.19-29.776 77.21-31.275 117.62-1.465 40.83 25.685 58.72 53.863 82.51l178.233 150.49" stroke="url(#A)"/><path d="M-568.053 547.229c113.752 98.763 231.624 192.863 345.376 291.626 48.88 42.436 99.018 83.608 148.47 125.365 49.453 41.76 92.988 84.33 142.908 120.47 39.616 28.61 93.535 31.49 140.684 35.05 58.346 4.29 117.152 4.12 175.449 10.31 36.572 3.94 93.613 7.71 117.871 40.99 20.685 28.32 9.538 68.92.875 99.21-11.098 38.71-29.365 78.34-30.829 119.17-1.369 40.71 25.65 58.29 53.941 82.18l178.233 150.5" stroke="url(#B)"/><path d="M-554.217 530.8c113.519 99.729 234.331 190.108 346.514 291.423 47.795 43.265 97.993 83.906 147.332 125.567 49.34 41.661 92.988 84.33 143.021 120.57 39.521 28.72 93.195 31.2 140.387 34.02 58.179 3.57 116.706 2.58 174.741 8.16 36.745 3.5 93.351 7.1 117.817 40.36 20.799 28.42 9.61 69.76 1.191 100.45-10.819 39.53-28.806 79.97-30.008 121.41-1.238 41.02 25.441 58.32 53.959 82.39l178.232 150.5" stroke="url(#C)"/><path d="M-540.387 514.372c63.114 55.424 133.521 101.498 198.162 155.11 52.211 43.31 101.297 89.41 150.342 136.249 46.311 44.338 96.36 84.466 145.247 125.745C2.25 972.754 46.35 1015.81 96.384 1052.04c39.408 28.63 92.916 30.38 139.941 32.48 57.882 2.55 115.903.55 173.754 5.2 36.596 2.99 92.94 5.98 117.407 39.24 21.137 28.7 9.942 71.2 1.88 102.39-10.521 40.55-28.098 82.12-29.003 124.58-.898 41.31 25.364 58.64 54.108 82.91l178.233 150.5" stroke="url(#D)"/><path d="M-526.549 497.945c64.984 56.422 139.29 100.166 206.278 154.209 52.217 42.152 98.211 88.936 145.032 136.806 44.41 45.446 94.102 85.079 142.649 126.07 48.547 40.992 92.892 84.446 143.021 120.57 39.276 28.32 92.505 29.26 139.137 30.44 57.471 1.42 115.177-1.8 172.522 1.84 36.639 2.24 92.399 4.55 116.865 37.81 21.382 29.1 10.424 73.16 2.72 104.84-10.093 41.88-27.259 84.57-27.754 128.16-.541 41.8 25.209 59.28 54.405 83.93l178.233 150.5" stroke="url(#E)"/><path d="M-512.718 481.515c67.386 57.481 146.006 98.859 215.741 153.089 52.415 40.768 94.69 88.289 138.793 137.547 42.127 47.008 91.33 85.841 139.425 126.45 48.095 40.61 92.797 84.559 142.908 120.469 39.032 27.92 92.059 27.72 138.281 27.79 57.156.18 114.225-4.36 171.35-2.07 36.681 1.51 91.727 2.82 116.288 35.97 21.948 29.58 11.037 75.42 3.708 107.81-9.665 43.21-26.272 87.54-26.469 132.15-.166 42.51 25.053 59.92 54.928 85.15l178.233 150.5" stroke="url(#F)"/><path d="M-498.883 465.087c70.186 58.293 153.139 97.515 226.152 151.992 52.725 39.479 90.959 87.659 132.023 138.229 39.426 48.604 88.142 86.637 135.67 126.769 47.53 40.132 92.72 84.88 142.909 120.473 38.788 27.52 91.69 25.86 137.406 24.91 56.614-1.24 113.238-7.32 169.952-6.15 36.61.67 90.828.9 115.598 34.02 22.514 30.06 11.667 77.9 4.826 111.09-9.219 44.75-25.284 90.5-25.035 136.65.209 43.22 24.934 60.99 55.261 86.6l178.233 150.49" stroke="url(#G)"/><path d="M-485.052 448.659c73.308 59.185 160.785 96.023 237.188 150.842 53.357 38.269 86.986 86.631 124.837 138.946 36.422 50.333 84.632 87.357 131.82 127.202 47.19 39.845 92.642 85.203 143.004 120.36 38.64 27.001 91.305 23.781 136.306 21.851 56.186-2.57 112.154-10.175 168.423-10.545 36.634-.278 90.12-1.253 114.872 31.665 23.08 30.54 12.315 80.57 5.962 114.56-8.659 46.39-24.165 93.78-23.375 141.36.697 44.01 24.814 62.05 55.821 88.23l178.233 150.49" stroke="url(#H)"/><path d="M-471.217 432.23c76.542 60.172 168.753 94.609 248.623 149.449 54.329 37.344 83.108 85.488 117.555 139.775 33.114 52.193 80.931 88.303 127.555 127.671 46.623 39.367 92.45 85.429 143.003 120.36 38.282 26.509 91.031 21.81 135.187 18.579 55.74-4.112 111.054-13.236 166.989-15.05 36.45-1.209 89.091-3.479 114.052 29.426 23.645 31.01 13.093 83.55 7.116 118.25-8.214 47.92-23.048 97.04-21.811 146.16 1.281 44.7 24.694 63.11 56.38 89.87l178.233 150.49" stroke="url(#I)"/><path d="M-457.386 415.801c79.968 60.933 176.511 93.213 260.076 148.264 55.528 36.612 79.325 84.232 110.273 140.606 29.598 54.069 77.213 89.04 123.496 128.121 46.284 39.08 92.373 85.751 142.891 120.264 38.133 25.996 90.645 19.74 134.068 15.309 55.294-5.652 109.953-16.298 165.443-19.652 36.474-2.157 88.174-5.61 113.326 27.065 24.228 31.702 13.854 86.332 8.365 121.822-7.654 49.56-22.024 100.43-20.246 150.98 1.655 45.4 24.687 64.27 57.052 91.59l178.233 150.5" stroke="url(#J)"/><path d="M-443.556 399.373c83.186 61.71 184.063 91.833 271.113 147.114 57.065 36.165 75.959 82.941 103.087 141.322C-43.39 743.66 4.346 777.569 50.29 816.363c45.945 38.794 92.296 86.073 142.89 120.265 37.89 25.595 90.259 17.668 133.064 12.133 54.752-7.078 108.965-19.264 164.026-23.949 35.552-3.131 88.17-8.134 112.618 24.916 24.449 33.051 14.754 88.252 9.502 125.302-7.095 51.2-21.019 103.61-18.7 155.58 2.031 46.11 24.682 65.43 57.499 93.14l178.233 150.49" stroke="url(#K)"/><path d="M-429.721 382.946c86.212 62.715 191.1 90.603 281.41 145.923 58.62 35.927 73.123 81.709 96.43 142.098 22.225 57.537 70.401 90.461 116.006 128.969 45.605 38.508 92.218 86.396 142.89 120.265 37.741 25.082 90.004 15.902 132.189 9.262 54.324-8.409 107.996-22.021 162.611-28.246 35.272-3.948 87.575-10.186 112.023 22.864 24.824 33.754 15.479 90.609 10.62 128.579-6.649 52.73-20.031 106.57-17.17 159.96 2.501 46.7 24.561 66.49 57.944 94.68l178.233 150.5" stroke="url(#L)"/><path d="M-415.89 366.516c88.918 63.641 197.608 89.313 290.778 144.915 60.194 35.899 70.61 80.556 90.287 142.727 18.654 58.787 67.516 91.127 112.668 129.252 45.153 38.126 92.027 86.623 142.873 120.056 37.609 24.778 89.653 14.249 131.237 6.714 53.895-9.74 106.93-24.665 161.343-32.03 35.201-4.783 86.885-12.126 111.351 21.133 25.294 34.346 15.979 92.778 11.608 131.537-6.221 54.07-19.062 109.33-15.868 164.17 2.763 47.31 24.519 67.23 58.468 95.9l178.233 150.49" stroke="url(#M)"/><path d="M-402.056 350.086c91.091 64.509 203.072 88.113 298.798 144.128 61.558 35.888 68.643 79.672 84.882 143.397 15.388 59.906 65.144 91.645 110.07 129.579 44.926 37.934 92.045 86.831 142.872 120.056 37.593 24.569 89.338 13.014 130.643 4.661 53.598-10.767 106.109-26.91 160.32-35.414 35.035-5.506 86.343-13.553 110.905 19.593 25.651 34.841 16.556 94.622 12.447 133.994-5.906 55.3-18.223 111.78-14.732 167.65 3.007 47.71 24.477 67.97 58.652 96.82l178.233 150.5" stroke="url(#N)"/><path d="M-388.222 333.661c92.658 65.637 207.608 87.095 305.038 143.386 62.844 36.199 67.225 79.056 80.501 143.77 12.504 60.572 63.607 92.091 108.194 129.738 44.586 37.648 92.044 86.831 142.872 120.056 37.592 24.569 89.154 12.083 130.083 3.026 53.301-11.793 105.419-28.849 159.238-38.267 34.981-6.132 85.932-14.675 110.494 18.471 25.877 35.032 16.888 96.066 13.023 135.838-5.512 56.211-17.419 113.811-13.744 170.621 3.234 47.89 24.4 68.29 58.915 97.43l178.232 150.49" stroke="url(#O)"/><path d="M-374.385 317.23c93.295 66.951 210.684 86.202 309.305 142.918 30.148 17.314 54.71 36.891 66.002 70.851 7.9 23.73 7.303 48.814 11.389 73.394 10.228 60.976 62.921 92.675 107.055 129.94 46.51 39.272 92.14 86.718 142.89 120.265 37.723 24.874 88.927 11.892 129.804 2.208 53.039-12.402 104.86-30.484 158.529-40.415 34.946-6.55 85.558-15.379 110.346 17.957 26.104 35.224 17.072 96.997 13.338 137.074-5.233 57.028-16.973 115.358-12.923 172.858 3.347 48 24.4 68.29 58.915 97.44l178.232 150.49" stroke="url(#P)"/><path d="M-360.553 300.803c92.984 68.239 212.298 85.434 311.277 142.645 29.826 17.237 55.146 37.065 65.793 70.869 7.597 23.861 6.165 49.016 9.72 73.536 8.864 60.987 63.148 92.866 107.056 129.94 46.623 39.368 92.218 86.396 142.89 120.265 37.854 25.178 88.641 12.232 129.803 2.208 52.891-12.915 104.563-31.511 158.102-41.746 34.928-6.759 85.54-15.588 110.346 17.958 26.103 35.223 17.108 97.414 13.582 137.473-5.084 57.549-16.581 116.269-12.382 174.289 3.347 47.99 24.269 67.98 58.784 97.13l178.233 150.49" stroke="url(#Q)"/><path d="M-346.725 284.375c93.277 66.742 210.475 86.22 309.305 142.918 30.147 17.314 55.092 36.438 66.062 70.32 7.858 24.469 7.01 50.311 10.94 75.536 9.585 60.82 62.367 93.563 107.073 130.149 46.952 38.288 93.214 84.523 143.434 118.01 37.306 24.909 89.136 11.874 129.821 2.416 52.735-12.27 104.27-30.013 157.636-39.813 34.754-6.323 85.879-15.301 110.345 17.958 25.782 35.145 17.073 96.997 13.643 136.942-4.929 56.902-16.27 114.979-12.029 172.259 3.555 47.98 24.095 68.42 58.723 97.66l178.233 150.49" stroke="url(#R)"/><path d="M-332.888 267.945c92.545 65.542 207.4 87.113 304.83 143.404 30.6 17.696 54.979 36.343 66.419 70.815 8.46 25.366 8.343 52.407 12.876 78.527 10.775 61.245 61.508 94.584 108.038 130.383 47.774 36.85 94.658 80.508 144.538 113.708 37.079 24.718 88.963 12.31 129.511 3.706 52.502-11.304 104.03-27.89 157.145-36.932 34.695-5.792 85.968-14.257 110.208 18.811 25.556 34.954 17.365 95.499 13.918 135.236-4.81 55.84-15.709 112.937-11.444 169.267 3.538 47.76 24.304 68.4 58.706 97.45l178.233 150.49" stroke="url(#S)"/><path d="M-319.055 251.519c90.979 64.413 202.865 88.13 298.478 144.05 66.317 38.744 68.705 85.346 82.45 154.332 12.324 62.166 60.875 95.795 109.855 130.754 24.481 17.376 49.612 33.75 74.093 51.125 24.707 17.567 46.98 39.863 72.033 56.559 36.854 24.527 88.444 13.616 129.158 5.734 52.288-10.129 103.618-25.331 156.327-32.971 34.653-5.052 85.902-12.568 109.916 20.308 25.198 34.459 17.718 93.472 14.538 132.659-4.498 54.551-15.201 110.261-10.738 165.211 3.806 47.21 24.781 67.83 58.957 96.69l178.232 150.49" stroke="url(#T)"/><path d="M-305.223 235.091c88.804 63.546 197.191 89.349 290.36 144.95 31.655 18.974 54.818 38.145 67.485 73.46 10.168 28.165 12.1 58.292 18.454 87.308 14.1 63.276 60.184 97.536 112.394 130.959 24.773 15.878 50.483 30.414 75.352 46.178 25.662 16.434 47.602 37.286 72.655 53.982 36.74 24.431 87.543 15.375 128.555 8.52 51.899-8.518 103.163-22.031 155.562-28.383 34.837-4.121 85.471-10.218 109.449 22.242 24.824 33.754 18.113 90.702 15.089 129.246-4.111 52.94-14.425 107.037-9.782 160.397 4.169 46.55 25.544 66.93 59.154 95.3l178.232 150.5" stroke="url(#U)"/><path d="M-291.386 218.661c86.099 62.62 190.778 90.526 280.993 145.959 67.93 41.656 72.489 96.489 90.141 168.193 15.893 64.596 59.432 99.809 115.48 131.432 25.257 14.154 51.415 26.549 76.786 40.798 26.579 14.883 48.265 33.969 73.431 50.76 36.74 24.432 86.356 17.475 127.909 12.046 51.624-6.812 102.614-18.618 154.528-23.246 34.926-3.077 84.982-7.336 108.924 24.705 24.64 32.824 18.681 87.499 15.812 125.398-3.853 51.026-13.684 103.401-8.784 154.834 4.42 45.8 26.498 65.8 59.542 93.7l178.233 150.5" stroke="url(#V)"/><path d="M-277.556 202.235c83.09 61.823 183.645 91.869 270.487 147.168 68.62 43.596 74.743 103.239 94.624 176.436 17.78 65.803 58.732 102.708 118.965 131.662 53.883 25.918 102.875 48.675 152.642 81.78 36.853 24.527 84.996 20.01 127.186 15.894 51.254-4.992 101.985-14.884 153.434-17.579 35.241-1.841 84.414-4.132 108.529 27.474 24.247 31.91 19.213 83.878 16.691 120.906-3.388 49.092-12.866 99.439-7.613 148.844 4.748 44.72 27.435 64.46 59.799 91.79l178.233 150.49" stroke="url(#W)"/><path d="M-263.722 185.803c79.76 60.95 176.095 93.248 259.451 148.317 69.442 45.841 77.338 110.276 99.255 185.194 19.687 67.218 58.105 106.443 122.678 132.082 55.553 22.094 105.15 38.384 155.352 71.662 37.08 24.718 83.428 22.563 126.386 20.064 50.787-3.059 101.393-10.731 152.358-11.702 36.087-.546 83.047-.44 107.944 30.469 24.2 30.126 19.876 80.561 17.551 116.205-3.035 47.063-11.952 95.364-6.364 142.536 5.172 43.53 28.675 62.98 60.247 89.64l178.234 150.5" stroke="url(#X)"/><path d="M-249.887 169.374c76.429 60.077 168.336 94.644 248.11 149.598 70.281 48.293 80.16 117.504 104.113 194.141 21.367 68.443 57.626 110.691 126.599 132.485 56.884 17.984 107.39 27.675 157.932 61.24 75.803 50.243 191.444 16.842 276.79 18.731 36.097.82 82.497 2.973 107.358 33.464 23.807 29.213 20.581 76.503 18.506 111.39-2.699 44.826-11.15 91.194-5.228 136.127 5.596 42.33 30.01 61.4 60.678 87.29l178.229 150.5" stroke="url(#Y)"/><path d="M-236.058 152.948C-162.959 212.151-75.577 249.102.6 303.73c70.928 50.973 82.96 124.523 108.874 203.203 22.82 69.476 57.409 115.547 130.519 132.887C298 653.712 349.529 656.9 400.6 690.525c76.787 50.685 187.937 23.767 274.836 29.1 36.109 2.187 81.834 6.29 106.79 36.667 23.319 28.413 21.269 72.238 19.463 106.576-2.252 42.684-10.254 86.911-3.997 129.608 6.02 41.144 31.25 59.924 61.013 85.054l178.235 150.49" stroke="url(#Z)"/><path d="M-222.223 136.521c69.977 58.312 152.836 97.646 225.526 152.046 71.69 53.748 85.842 131.219 113.714 211.941 24.256 70.301 57.418 120.595 134.231 133.308 58.807 9.721 111.585 6.598 163.205 40.491 77.639 50.823 184.716 30.352 272.846 39.051 36.12 3.553 81.266 9.494 106.205 39.662 22.813 27.405 21.879 68.295 20.323 101.875-1.899 40.656-9.34 82.836-2.748 123.296 6.539 39.829 32.491 58.449 61.461 82.909l178.23 150.5" stroke="url(#a)"/><path d="M-208.389 120.09C-141.117 177.475-62.8 218.984 6.727 273.232c72.45 56.523 88.46 137.307 118.083 220.089 25.369 71.047 57.558 125.948 137.717 133.537 59.208 5.796 113.271-3.222 165.647 30.923 78.395 51.074 181.858 36.275 271.029 48.567 36.131 4.919 80.585 12.601 105.697 42.334 22.325 26.605 22.507 64.56 21.202 97.382-1.434 38.724-8.522 78.875-1.673 117.42 6.963 38.636 33.636 57.096 61.927 80.976l178.234 150.5" stroke="url(#b)"/><path d="M-194.555 103.664c64.872 56.327 138.986 100.297 205.748 154.149C84.274 316.807 102.01 400.6 133.384 485.442c26.352 71.489 57.871 130.864 140.803 134.01 59.532 2.192 114.819-12.189 167.743 22.225 78.943 51.343 179.687 41.614 269.446 57.116 36.029 6.19 79.964 15.179 105.171 44.799 21.932 25.691 22.866 61.373 21.925 93.534-1.063 36.904-7.668 75.331-.561 111.961 7.29 37.56 34.702 56.053 62.201 79.273l178.228 150.49" stroke="url(#c)"/><path d="M-180.726 87.234c63.114 55.424 133.313 101.516 197.84 155.032 73.694 61.256 92.989 147.335 125.775 233.949 27.109 71.741 58.262 135.46 143.246 134.329 59.587-.863 116.039-20.076 169.737 14.798 79.36 51.307 178.087 46.272 268.078 64.49 36.022 7.348 79.515 17.32 104.818 46.827 21.557 24.987 23.26 58.605 22.588 90.217-.788 35.197-7.196 72.241.394 107.146 7.959 36.767 35.353 55.052 62.513 77.988L1092.5 1162.5" stroke="url(#d)"/><path d="M-166.89 70.807c61.869 54.374 128.569 102.551 191.487 155.678 74.462 62.873 94.865 150.857 128.817 238.845 27.622 71.592 58.695 139.314 145.159 134.587 59.809-3.196 116.757-26.449 171.213 8.676 79.247 51.212 177.042 50.043 266.906 70.48 35.885 8.201 79.24 19.027 104.507 48.116 21.087 24.396 23.518 56.69 23.001 87.657-.608 33.605-6.974 69.908 1.1 103.09 8.757 36.278 35.508 54.407 62.554 77.244l178.236 150.5" stroke="url(#e)"/><path d="M-153.054 54.376c61.46 53.252 125.285 103.462 187.126 156.26 75.081 63.978 96.311 153.048 131.091 242.122 27.795 71.157 58.944 142.238 146.028 134.934 60.276-5.129 116.975-31.306 172.336 4.584 78.925 51.134 176.742 52.698 266.105 74.65 35.617 8.749 79.103 19.88 104.37 48.969 20.843 23.996 23.525 55.532 23.389 86.046-.262 32.734-6.317 67.749 1.686 100.095 9.043 35.939 35.603 54.294 62.649 77.131l178.234 150.493" stroke="url(#f)"/><path d="M-139.225 37.949L46.023 194.368c75.82 64.02 97.234 154.021 132.581 243.573 27.723 70.321 59.085 143.909 146.046 135.142 61.02-6.244 116.517-34.211 172.783 2.443 78.282 50.978 177.076 54.142 265.753 76.678 35.425 8.977 79.311 19.863 104.37 48.969 20.729 23.901 23.185 55.246 23.449 85.516.232 32.376-5.912 66.346 2.151 98.161 9.061 36.148 35.43 54.73 62.477 77.567l178.237 150.493" stroke="url(#g)"/><path d="M-123.668 22.006C-60.354 72.364-2.687 129.199 59.369 180.822c74.808 62.002 97.569 151.784 133.458 239.081 28.88 70.328 59.343 141.994 146.219 134.707 59.972-4.998 114.543-30.257 169.946 4.892 79.593 50.341 176.23 52.847 265.706 74.895 35.408 8.767 79.199 19.766 103.953 49.004 20.199 23.84 23.447 55.855 24.11 85.88.781 32.645-3.832 67.327 4.57 99.428 9.365 36.017 34.656 54.27 61.929 77.298l178.23 150.493" stroke="url(#h)"/><path d="M-105.298 7.086C-40.995 56.729 11.146 118.978 73.047 171.245c72.085 60.866 97.601 145.996 134.494 230.262 30.197 68.533 60.603 137.049 145.32 132.785 58.463-2.976 110.565-23.923 164.157 9.698 79.88 50.001 175.713 50.471 265.518 71.439 35.676 8.219 78.918 18.949 103.899 48.378 20.312 23.936 24.37 56.828 26.189 86.86 1.895 33.392-.866 68.863 8.424 101.52 10.2 35.946 34.752 54.156 62.137 77.28l178.235 150.493" stroke="url(#i)"/><path d="M-84.427-6.892C-19.105 43.61 26.782 112.597 88.712 166.44c65.908 57.395 94.546 133.529 131.608 211.155 31.331 65.807 62.822 133.494 144.212 134.562 55.731.727 107.23-17.434 157.658 16.036 75.256 49.973 170.268 48.2 256.493 65.37 37.405 7.546 81.775 16.708 109.223 45.506 22.153 23.358 28.463 56.795 32.04 87.73 4.027 34.998 3.632 71.109 13.063 105.437 10.14 36.476 34.155 55.785 62.22 79.482l180.042 152.022" stroke="url(#j)"/><path d="M-61.306-20.323C4.236 31.529 42.337 106.542 103.002 162.806c60.986 56.342 93.693 123.504 132.85 196.113 32.912 60.94 66.062 123.437 141.681 129.519 54.156 4.437 97.857-5.382 147.167 24.817 77.563 47.463 168.566 44.243 255.996 59.523 37.637 6.579 81.423 15.054 109.062 43.626 22.928 23.818 30.578 58.193 35.99 89.707 6.123 36.188 8.034 73.47 19.318 108.587 11.618 36.561 35.46 56.305 63.974 80.384l180.05 152.028" stroke="url(#k)"/><path d="M-36.562-33.16c63.83 52.734 93.219 130.276 149.109 189.681 27.239 28.816 54.696 52.775 77.685 85.95 22.762 32.983 42.633 67.79 64.102 101.62 35.197 55.696 70.843 109.251 140.143 120.078 48.851 7.518 87.44 6.759 130.566 34.644 75.697 48.989 172.364 39.502 258.383 53.008 35.124 5.426 75.526 12.401 102.767 37.536 25.3 23.301 35.56 58.716 43.241 90.984 8.882 37.74 13.472 76.898 26.264 113.675 12.904 36.872 36.62 58.836 65.592 83.297l181.85 153.557" stroke="url(#l)"/><path d="M-10.62-45.568C53.835 10.794 73.917 95.02 128.876 158.29c24.797 28.498 54.148 52.506 78.104 82.233 22.902 28.449 44.033 58.31 66.362 87.439 36.269 47.295 72.908 92.772 131.86 110.369 43.533 12.915 80.266 18.73 118.887 45.525 72.919 50.909 176.615 35.144 260.83 45.964 35.678 4.537 74.281 11.35 101.35 36.92 26.502 25.092 37.869 62.41 47.796 96.381 10.443 36.345 17.734 73.906 31.349 109.245 14.828 38.497 37.196 60.68 68.086 86.766l183.67 155.079" stroke="url(#m)"/><path d="M16.188-57.633C80.432 2.428 90.99 91.986 143.688 159.55c22.162 28.406 52.45 51.073 77.737 76.689 23.101 23.383 45.326 47.577 68.141 71.3 38.376 39.964 76.805 80.554 127.495 104.745 37.328 17.755 70.02 34.116 104.759 57.246 73.819 49.149 176.153 29.713 260.345 37.8 35.798 3.475 73.99 9.166 101.345 34.396 27.807 25.612 41.42 64.633 53.408 99.375 12.975 37.708 23.006 76.613 38.831 113.237 16.723 38.545 39.821 61.929 71.401 88.588l183.66 155.081" stroke="url(#n)"/><path d="M43.32-69.613c64.748 64.751 64.826 160.775 116.55 232.946 35.16 49.073 96.057 84.597 143.206 121.5 72.034 56.559 141.658 116.899 216.155 170.303 67.343 48.333 172.955 25.463 250.464 29.07 38.916 1.843 83.128 5.443 112.548 33.968 28.855 28.048 44.748 69.189 59.095 105.728 30.466 77.871 52.196 145.652 117.602 200.882l185.48 156.61" stroke="url(#o)"/><path d="M70.661-81.621C135.627-11.84 125 90.459 176.185 167.409c31.306 46.982 92.424 70.286 140.3 95.978 47.876 25.693 89.808 56.835 125.658 97.961 23.289 26.838 45.206 58.526 74.196 79.514 67.134 48.351 176.421 19.278 253.031 20.963 35.889.838 76.89 2.503 105.651 26.982 31.704 26.964 50.391 70.076 67.007 107.369 19.985 44.789 36.871 91.421 61.302 134.149 19.63 34.407 45.21 57.368 75.09 82.594l180.04 152.024" stroke="url(#p)"/><path d="M97.467-93.68c65.41 75.002 43.53 183.308 94.671 264.679 30.857 49.123 92.758 58.161 143.589 74.136 49.866 15.741 91.651 42.688 117.159 89.427 18.138 32.956 30.525 67.454 61.659 91.415 29.227 22.547 69.382 22.916 104.617 22.232 50.226-1.013 100.111-8.518 150.391-8.905 37.26-.33 75.472 1.888 104.816 27.054 30.477 26.121 49.785 66.656 67.493 101.962 42.648 85.25 74.248 164.077 148.368 226.663l181.85 153.553" stroke="url(#q)"/><path d="M123.41-106.092c65.348 79.216 33.837 191.601 83.152 277.44 30.587 53.354 92.548 48.292 145.351 54.107 52.595 5.832 95.96 31.593 113.004 83.785 12.349 37.762 14.903 75.199 48.71 102.194 28.393 22.617 69.884 21.401 104.291 19.63 50.197-2.588 99.827-11.86 150.077-13.822 37.476-1.506 75.182-.296 104.813 24.529 31.686 26.755 52.995 68.592 72.538 104.479 46.717 86.165 82.984 167.961 159.024 232.172l181.85 153.553" stroke="url(#r)"/><path d="M148.155-118.925c66.174 83.984 23.66 201.618 74.052 291.468 32.08 57.329 96.577 36.379 148.937 33.291 52.778-3.124 96.25 23.89 105.779 77.879 7.087 40.102-.368 84.597 36.441 113.545 31.413 24.78 81.874 19.119 118.433 15.482 42.381-4.342 84.329-12.54 126.876-16.16 40.14-3.521 84.837-5.325 116.51 23.744 32.935 30.33 55.757 72.669 77.712 110.98 48.335 84.24 88.065 166.056 163.095 229.407l183.78 155.177" stroke="url(#s)"/><path d="M171.067-132.339c67.066 87.064 15.606 208.194 65.126 301.378 33.133 62.288 99.508 27.61 150.49 16.961 54.189-11.237 99.037 17.132 102.938 74.124 2.832 41.937-13.098 90.519 26.14 122.1 31.109 24.91 82.281 17.716 118.238 13.184 42.387-5.5 84.133-14.837 126.687-19.615 40.164-4.469 84.564-7.3 116.445 21.752 33.936 30.98 58.194 74.144 81.776 113.053 51.233 84.94 94.403 168.883 171.013 233.572l183.78 155.176" stroke="url(#t)"/><path d="M192.033-146.431c66.404 86.699 12.734 206.544 55.157 301.49 32.673 72.95 97.872 31.851 151.403 12.886 54.253-19.131 104.834 7.488 104.145 68.552-.578 45.067-23.112 95.052 18.801 129.667 28.369 23.565 72.859 18.097 106.826 13.629 51.112-6.663 101.071-20.696 152.325-25.688 33.126-3.24 69.386-4.221 96.587 17.971 39.518 32.399 66.675 82.469 93.21 125.229 53.653 86.206 100.613 169.09 178.923 235.212l178.12 150.399" stroke="url(#u)"/><path d="M210.405-161.35c68.561 87.356 7.822 210.538 50.446 306.623 34.072 77.039 100.324 27.33 152.553 4.164 53.844-23.935 107.183 4.238 103.151 66.743-2.915 46.002-31.015 98.459 13.125 134.567 28.786 23.531 72.52 17.811 106.756 12.794 51.04-7.498 100.815-22.462 152.093-28.403 33.186-3.77 69.219-4.943 96.439 17.458 39.875 32.895 67.788 83.216 95.288 126.209 55.224 86.177 104.114 170.685 182.984 237.285l178.12 150.4" stroke="url(#v)"/><path d="M225.862-177.18c71.732 86.351 4.55 212.816 48.348 309.116 36.311 79.899 101.242 25.78 153.431-.328 52.892-26.483 109.251 3.852 103.437 66.403-4.399 47.075-36.027 100.043 10.383 136.904 29.525 23.573 72.025 18.169 106.964 12.777 51.1-8.03 100.596-23.812 151.952-30.075 33.263-4.092 69.201-5.152 96.342 17.572 39.608 33.443 67.712 83.538 95.629 126.495 56.042 85.898 105.762 171.493 184.742 238.188l178.12 150.399" stroke="url(#w)"/><path d="M238.071-194.209c69.378 87.077 6.928 211.14 49.874 307.303 34.394 77.116 100.932 27.068 153.352 3.675 53.748-23.821 107.582 3.994 103.246 66.63-3.028 45.906-31.659 98.304 12.881 134.167 28.863 23.208 72.824 17.68 106.755 12.794 50.32-7.332 99.392-21.92 149.966-27.486 33.091-3.657 69.446-4.752 96.742 17.328 39.954 32.572 67.694 83.328 95.173 126.112 54.78 85.796 103.49 170.739 181.91 236.957 59.87 50.547 122.02 98.375 180.93 150.055" stroke="url(#x)"/><path d="M247.363-212.142c67.864 86.575 10.583 208.41 53.344 303.642 33.049 73.655 100 30.935 153.836 11.839 54.044-19.114 105.996 6.337 104.544 68.307-1.013 44.894-24.643 94.341 17.878 128.693 28.202 22.844 72.233 18.151 105.914 14.023 49.27-6.086 97.537-19.028 147.044-23.556 32.727-2.995 69.248-3.368 96.283 18.103 39.561 31.659 66.562 82.373 92.854 124.733 52.62 85.137 98.96 169.44 176.94 234.118 61.47 50.936 127.39 96.13 187.05 149.219" stroke="url(#y)"/><path d="M254.064-230.91c68.9 87.643 11.379 211.603 61.613 305.778 33.865 63.488 103.686 26.098 155.371 15.074 53.85-11.524 101.171 15.057 103.702 73.217 1.771 41.817-15.553 88.834 24.103 120.38 29.864 23.86 80.439 18.294 115.085 14.399 39.651-4.32 78.87-12.496 118.67-16.303 39.079-3.641 82.865-5.052 113.918 22.913 33.674 30.372 57.614 73.458 80.624 111.889 49.84 83.375 91.75 168.582 168.07 231.087 65.27 53.559 138.46 96.556 201.55 152.929" stroke="url(#z)"/><path d="M258.817-250.355c68.401 85.477 17.281 206.894 68.267 298.796C360.099 108.11 430.228 83 483.752 78.761c52.576-4.263 99.529 20.456 107.418 76.162 5.705 39.904-3.876 81.635 33.064 110.887 56.655 44.93 162.524 10.258 227.148 6.863 38.578-2.126 81.272-1.552 111.551 25.954 32.543 29.416 54.707 71.391 75.867 109.034 46.04 81.91 83.65 166.01 159.06 225.226 68.57 54.015 147.14 93.609 212.87 151.44" stroke="url(#AA)"/><path d="M261.736-270.376c67.665 81.753 25.437 199.047 74.715 288.15 31.663 57.364 101.141 46.825 155.948 50.26 52.798 3.29 100.67 26.46 115.692 80.822 10.324 37.408 10.186 71.603 43.862 98.294 58.126 46.172 159.172 16.538 226.785 17.411 35.115.378 70.132 4.551 97.726 27.657 30.986 25.972 51.466 66.723 69.896 101.863 43.52 83.072 76.31 168.529 153.97 225.766 72.18 53.391 155.4 89.539 224.03 148.07" stroke="url(#AB)"/><path d="M263.464-290.822c67.72 78.699 32.71 193.17 83.181 279.016C378.799 42.677 449.569 44.859 504.4 57.233c51.501 11.5 96.994 36.343 121.011 85.313 15.886 32.411 25.094 62.867 55.131 86.291 57.942 45.241 150.147 24.037 218.079 28.67 34.232 2.346 68.044 8.409 94.578 31.395 29.251 25.279 47.661 63.892 63.931 98.374 38.65 81.488 65.66 164.387 142.49 218.013 76.71 53.531 165.84 86.337 238.37 146.219" stroke="url(#AC)"/><path d="M264.323-311.615c67.365 74.521 41.116 184.566 90.999 267.2 32.273 53.422 103.46 69.137 157.542 89.989 52.02 20.08 95.73 48.652 131.148 92.129 20.759 25.475 39.383 53.026 65.989 73.165 57.46 43.284 139.548 31.566 206.775 40.256 32.08 4.212 66.077 11.207 91.254 33.046 30.15 26.043 47.23 66.242 61.84 102.233 32.75 79.991 54.5 156.71 130.43 205.891 81.25 52.514 175.26 82.274 251.62 142.673" stroke="url(#AD)"/><path d="M264.652-332.468c67.122 70.439 49.201 175.884 98.895 255.064C398.423-21.786 473.16 6.039 528.285 36.689 604.7 79.307 670.952 139.513 740.563 192.281c55.798 42.268 129.08 39.399 194.863 52.103 82.664 16.105 119.994 63.521 146.114 140.817 24.71 73.207 40.13 144.575 109.49 188.214 87.9 55.418 191.51 81.838 274.82 145.011" stroke="url(#AE)"/><path d="M265.185-353.341c66.785 66.471 56.981 167.333 106.713 243.249 38.628 58.981 115.838 98.586 172.024 139.243 43.881 31.818 83.959 75.739 134.4 97.006 33.992 14.358 62.034 25.435 92.608 47.761 57.58 42.222 125.286 46.663 191.977 66.337 72.063 21.11 107.363 63.125 127.083 134.443 20.65 74.815 28.82 143.749 101.33 186.173 92.63 54.175 201.14 77.759 288.49 141.429" stroke="url(#AF)"/><path d="M266.042-374.132c66.858 63.625 64.219 161.037 115.674 233.757 22.09 31.253 56.101 55.706 84.516 81.056 29.756 26.288 59.815 52.444 89.666 78.619 41.655 36.53 83.236 89.474 140.022 101.366 40.11 8.472 69.462 9.025 104.831 34.625 56.526 40.944 118.251 54.099 182.413 78.616 66.436 25.27 102.916 64.028 116.886 134.363 14.7 74.059 16.76 137.834 89.4 178.038 97.77 54.054 211.91 74.634 304.17 139.358" stroke="url(#AG)"/><path d="M267.769-394.58c66.157 60.319 71.01 153.202 122.521 222.867 23.151 31.372 56.869 57.323 84.228 85.077 30.111 30.464 59.84 61.382 89.76 92.074 41.527 42.43 85.509 106.32 150.058 109.452 44.183 2.026 76.102-5.528 114.848 22.729 54.316 39.66 111.544 60.454 171.836 88.877 59.86 28.249 99.99 62.91 108.91 130.729 4.36 32.761 2.52 66.681 11.34 98.747 10.52 38.548 35.4 59.36 70.11 77.233 101.96 52.75 220.31 70.869 316.08 136.031" stroke="url(#AH)"/><path d="M270.689-414.602c67.581 59.778 77.338 153.505 134.685 220.149 53.957 62.62 113.376 121.514 167.56 184.325 40.309 46.636 85.204 120.019 154.463 118.018 47.766-1.54 85.548-20.427 129.393 10.973 25.726 18.426 48.561 38.677 76.558 54.175 27.998 15.499 57.277 28.784 85.292 44.492 57.37 32.352 100.39 66.347 102.72 135.778 1.04 30.73-3.73 62.375 3.25 92.494 8.87 38.899 35.73 57.123 70.36 73.951 105.51 51.291 227.77 67.289 326.42 132.943" stroke="url(#AI)"/><path d="M275.232-434.029c67.039 58.351 83.222 148.587 141.242 213.28 25.631 28.427 53.725 53.699 78.306 83.372 31.15 37.74 60.511 76.683 90.671 115.137 39.586 50.485 84.179 130.204 157.965 122.138 49.436-5.364 91.906-32.117 138.545 1.253 25.386 18.14 47.642 40.228 74.304 57.313 26.679 17.293 54.255 32.827 80.845 50.234 52.94 34.623 99.11 67.403 95.57 135.756-1.41 29.045-9.16 58.945-4.27 88.085 6.57 38.884 35.06 56.549 68.99 72.595 108.98 51.311 235.84 64.603 337.53 131.471" stroke="url(#AJ)"/><path d="M282.029-452.91c65.55 56.9 87.652 142.635 144.827 206.033 28.531 31.651 58.489 59.078 84.808 93.127 31.154 40.263 60.156 82.392 90.32 123.37 38.721 52.662 81.979 133.968 158.3 119.9 50.368-9.229 96.046-40.252 144.061-5.526 52.148 37.635 103.135 78.945 154.845 117.565 50.03 37.395 94.41 67.697 85.36 135.467-3.68 27.135-14.07 55.577-9.72 83.29 6.03 38.824 37.6 55.596 70.7 70.556 110.98 50.089 240.71 61.349 343.52 128.963" stroke="url(#AK)"/><path d="M291.322-470.846c64.3 57.006 91.289 139.696 148.393 202.259 28.966 31.824 58.81 59.156 84.688 94.188 31.671 42.639 60.451 87.1 90.829 130.585C653.148 10.494 696.88 94.915 774.83 77.764c51.346-11.31 99.458-47.064 149.057-11 51.826 37.557 100.903 82.291 150.873 122.741 47.6 38.443 95.77 67.686 82.49 134.976-5.23 26.214-17.63 53.354-14.37 80.529 4.53 38.531 38.05 55.979 70.27 70.383 112.66 50.156 245.86 58.912 349.54 128.24" stroke="url(#AL)"/><path d="M303.437-487.754c62.476 57.793 93.459 138.039 150.033 200.541 28.757 31.843 58.661 58.644 84.33 93.694 32.1 43.969 60.718 90.233 91.125 135.293C665.684-3.926 710.751 82.59 788.236 63.69 840.727 51.021 888.817 12.534 940 49.936c51.862 37.976 99.57 83.878 148.79 125.443 46.17 38.985 98.64 66.811 82.23 134.367-6.14 25.45-20.18 51.783-17.36 78.785 3.97 38.053 38.76 56.761 70.42 70.896 113 50.443 249.23 56.522 352.45 127.782" stroke="url(#AM)"/><path d="M317.27-504.182c64.448 57.519 93.368 140.676 150.829 203.734 28.74 31.633 58.28 59.096 84.027 93.824 31.784 42.734 60.904 87.483 91.395 131.063 38.368 54.69 81.273 138.024 159.484 121.482C854.596 35.011 903.822.004 953.593 35.632c51.677 37.044 99.877 82.589 148.997 122.901 46.99 38.705 97.84 67.3 82.37 134.881-5.98 25.963-19.65 53-16.7 80.306 4.18 38.036 38.87 56.857 70.32 71.01 112.69 50.365 249.23 53.998 351.57 126.069" stroke="url(#AN)"/><path d="M331.105-520.611c66.848 58.578 93.83 146.107 152.72 211.146 28.4 31.347 57.863 59.132 84.033 92.667 31.607 40.645 61.139 82.835 91.756 124.195 40.097 54.017 81.533 132.428 159.074 120.36 51.1-8.029 99.972-37.326 148.141-3.244 51.191 36.245 100.031 79.421 149.551 118.331 23.19 18.222 53.95 37.798 72.03 61.398 17.7 22.896 16.69 46.857 11.02 74.056-5.49 26.763-18.86 54.827-15.53 82.838 4.5 38.113 38.46 57.1 70.54 71.2 112.08 49.47 248.47 50.065 349.87 122.112" stroke="url(#AO)"/><path d="M344.937-537.043c69.47 60.984 94.905 153.799 155.521 221.847 60.391 67.857 119.459 134.986 176.552 206.068C718.842-56.941 759.858 15.3 835.316 9.615c50.717-3.894 98.411-26.044 144.579 6.736 50.525 35.88 99.865 75.017 150.145 111.654 23.51 17.142 54.25 36.509 72.09 59.709 18.06 23.392 17.02 48.302 11.94 76.187-5.09 27.886-17.82 57.263-14 86.073 5.05 38.382 37.97 57.459 70.68 71.505 111.21 47.965 246.77 44.951 347.16 116.346" stroke="url(#AP)"/><path d="M358.767-553.473c72.387 64.417 96.556 163.335 159.196 235.418 56.841 65.635 119.558 127.509 177.501 192.525C739.263-76.14 780.51-11.072 852.627-9.11c50.005 1.32 96.115-12.28 140.3 19.407 49.883 35.724 99.803 69.342 150.813 103.498 23.83 15.853 54.61 34.48 72.43 57.472 18.53 23.982 17.5 50.259 13.21 78.813-4.45 29.198-16.53 60.097-12.19 90.125 5.51 38.765 37.18 57.948 70.94 72.114 110 45.966 244.59 39.036 343.94 109.153" stroke="url(#AQ)"/><path d="M372.601-569.901c75.376 68.686 98.749 174.298 163.275 251.269 53.064 63.222 119.873 118.858 178.707 177.066C760.584-95.94 802.782-38.21 870.377-27.658c48.643 7.536 93.241 3.32 135.233 33.931 49.05 35.795 99.57 62.946 151.68 93.958 24.23 14.451 55.04 32.13 72.73 54.817 19.09 24.46 18.35 52.712 14.65 82.162-3.79 30.72-14.99 63.332-10.12 94.578 6.18 39.338 36.29 58.758 71.09 72.627 108.83 43.435 241.9 32.112 340.05 100.648" stroke="url(#AR)"/><path d="M386.436-586.327c78.436 73.79 101.352 186.382 167.931 268.964 49.419 61.113 120.116 109.371 179.98 159.918 48.434 40.896 92.036 91.67 154.181 110.995 46.178 14.372 89.638 20.246 129.572 50.085 48.34 36.171 99.51 56.114 152.69 83.565 24.71 12.727 55.43 29.361 73.08 51.631 19.66 24.937 19.43 55.565 16.32 85.701-3.35 32.26-13.53 66.89-7.92 99.544 6.75 39.816 35.33 59.682 71.47 73.331 107.45 40.713 238.76 24.807 335.79 91.23" stroke="url(#AS)"/><path d="M400.263-602.757c81.532 79.311 104.026 199.302 172.885 287.686 46.469 59.785 119.984 99.179 181.389 141.917 51.119 35.408 96.327 80.366 152.437 107.777C950.157-44.229 992.002-27.7 1030.65 1.829c47.64 36.546 99.74 48.941 153.62 72.335 25.3 10.89 55.8 26.176 73.54 48.332 20.34 25.511 20.63 58.514 18.02 89.659-6.19 76.573-21.7 147.417 66.15 178.754 106.04 37.783 235.35 16.893 331.37 81.297" stroke="url(#AT)"/><path d="M414.104-619.185c84.454 85.268 106.927 212.413 178.005 307.129 44.669 59.623 119.096 88.736 182.841 123.176 54.828 29.624 99.896 69.229 150.597 104.673C965.414-56.36 1004.79-29.313 1043.05.668c47.04 36.808 100.21 41.961 154.76 60.88 25.87 9.053 56.25 22.877 73.97 44.824 21.25 26.275 21.63 61.689 19.94 93.598-4.1 76.605-20.52 155.205 68.97 184.825 104.74 34.738 231.82 8.673 326.71 70.965" stroke="url(#AU)"/><path d="M427.933-635.611c87.472 91.112 109.827 225.525 183.011 326.477 44.151 60.93 117.696 78.443 184.407 104.532 107.234 41.888 172.414 133.95 260.199 204 46.54 37.165 100.96 34.849 155.66 49.442 72.23 19.308 98.38 66.203 96.06 138.871-2.33 76.349-19.24 162.879 71.8 190.895 103.21 31.712 228.18.568 321.95 60.746" stroke="url(#AV)"/><path d="M441.766-652.039c90.169 96.878 112.693 238.219 188.078 345.295 44.573 63.418 115.967 69.229 185.817 86.53 65.12 16.021 104.568 47.585 146.901 98.256 33.674 40.26 64.398 86.555 105.348 119.778 46.37 37.602 102.07 28.024 156.72 38.31 75.69 14.28 98.98 67.097 98.3 139.415-.68 75.998-17.93 170.762 74.4 196.774 101.82 28.781 224.67-7.442 317.43 50.719" stroke="url(#AW)"/><path d="M455.601-668.468c93.038 102.208 115.392 250.19 192.734 362.989 45.673 66.48 114.761 61.233 187.185 69.27 30.018 3.441 62.3 8.793 87.269 26.969 23.402 17.046 41.913 44.501 58.018 68.374 30.863 45.442 56.663 100.57 99.803 136.027 46.19 38.037 103.4 21.599 157.61 27.82 78.71 9.08 99.69 68.09 100.34 139.978.65 75.57-16.46 178.211 76.87 202.349 100.64 26.042 221.19-15.034 313.17 41.301" stroke="url(#AX)"/><path d="M469.436-684.9c95.532 106.835 117.793 261.135 196.927 378.936 47.017 69.942 114.288 54.436 188.278 53.715 29.698-.318 62.512 1.412 87.767 19.248 24.254 17.184 41.798 48.087 56.246 73.469 28.186 49.772 49.426 113.071 94.636 150.666 46.55 38.532 104.68 15.495 158.58 18.166 81.11 3.932 100.42 69.29 102.16 140.349 1.87 75.046-15.13 185.145 79.31 207.507 99.49 23.719 218.16-22.245 309.28 32.794" stroke="url(#AY)"/><path d="M483.266-701.326c97.955 110.625 119.653 270.653 200.506 392.62 48.684 73.482 114.547 48.84 189.227 40.171 29.432-3.451 62.491-5.002 88.051 12.703 25.106 17.322 41.84 51.029 54.72 77.805 25.97 53.327 43 123.927 90.36 163.337 47.03 39.123 105.71 10.359 159.34 9.897 82.94-.536 100.95 70.507 103.68 140.851 2.87 74.54-13.9 191.035 81.27 212.073 98.48 21.702 215.41-28.637 306.03 25.393" stroke="url(#AZ)"/><path d="M497.098-717.755c100.289 113.371 121.144 278.309 203.324 403.53 23.786 36.367 46.145 53.502 90.337 50.689 33.954-2.153 66.489-14.809 99.635-21.521 29.219-5.957 62.179-9.919 88.268 7.846 25.878 17.782 41.698 53.04 53.718 80.836 24.11 56.219 37.53 132.49 86.82 173.525 47.81 39.792 106.39 6.093 159.93 3.22 84.28-4.436 101.39 72.047 104.77 141.39 3.58 74.164-12.75 195.881 83.05 215.707 97.73 20.294 213.37-34.038 303.33 19.628" stroke="url(#Aa)"/><path d="M510.932-734.179C613.413-619.732 632.86-450.362 716.147-323.237c23.655 36.063 46.139 54.66 90.248 49.644 34.646-3.894 66.724-19.456 99.996-28.388 29.572-7.985 61.669-13.451 88.55 4.982 26.659 18.243 41.749 53.667 53.139 82.674 22.83 58.432 33.31 138.424 84.27 180.683 48.93 40.539 106.57 3.134 160.38-1.445 85-7.127 101.52 73.508 105.34 141.867 4.09 74.015-11.94 199.282 84.22 218.447 97.36 19.589 211.85-38.431 301.52 15.575" stroke="url(#Ab)"/><path d="M524.766-750.61c52.096 56.783 79.6 135.642 108.974 205.613 29.226 69.457 55.439 145.481 97.264 208.713 23.28 35.358 46.323 55.591 90.039 49.662 34.992-4.765 66.893-22.416 100.249-32.827C1088.8-371.672 1056.75-121.138 1146.04-48.062c50.58 41.345 105.91 1.611 160.7-3.891 85.17-8.72 101.34 75.101 105.48 142.38 4.53 74.188-11.49 200.822 85.01 220.273 97.36 19.589 211.28-41.433 300.74 13.749" stroke="url(#Ac)"/><path d="M538.786-763.585C639.825-648.804 660.65-481.76 743.389-354.905c23.541 35.968 45.726 57.22 90.372 51.107 35.087-4.879 67.196-22.547 100.762-32.976 168.317-52.503 134.667 199.009 224.387 272.05 50.56 41.136 106.97 1.73 161.96-3.79 85.1-8.398 101.21 74.797 105.28 142.398 4.31 74.206-11.68 201.049 84.71 220.405 97.35 19.589 211.54-41.982 300.92 13.522" stroke="url(#Ad)"/><path d="M553.17-769.856c98.126 113.871 119.913 274.943 202.803 398.63 21.648 32.237 42.981 53.351 83.407 49.491 35.629-3.453 68.954-21.645 102.466-32.7 175.214-57.928 135.084 198.973 227.924 272.904 49.13 39.155 105.82 4.25 159.32-2.722 85.29-11.15 105.72 65.999 110.21 136.088 4.71 73.962-13.98 204.926 82.13 225.988 98.37 21.606 213.39-42.559 304.09 13.673" stroke="url(#Ae)"/><path d="M567.938-770.377c93.832 109.083 117.281 261.283 197.361 379.109 21.744 32.124 43.154 52.916 83.485 49.169 35.951-3.375 69.484-21.585 103.413-32.676C1129.8-433.011 1085.59-173.554 1179.22-98.953c49.58 39.537 108.58 4.645 162.86-1.867 85.98-10.367 106.59 65.188 110.86 136.453 4.51 73.98-14.68 205.301 81.64 226.345 98.58 21.589 213.96-43.239 304.78 13.089" stroke="url(#Af)"/><path d="M582.901-766.075c86.931 99.572 114.141 236.727 184.942 346.718 23.107 35.794 46.803 61.23 92.11 55.481 36.678-4.698 70.534-22.83 105.428-33.688 174.169-54.158 130.799 206.596 221.649 280.591 50.1 40.755 113.56 5.168 169.05-.71 82.98-8.639 105.25 60.569 109.89 131.171 4.79 73.64-16.64 209.465 78.78 232.269 99.7 23.702 216.11-43.948 308.34 12.996" stroke="url(#Ag)"/><path d="M598.191-758.016c82.955 92.338 109.444 219.772 178.778 321.158 23.625 34.487 49.671 56.673 93.334 50.118 37.441-5.605 71.791-24.095 107.764-34.623C1151.4-471.768 1103.08-207.439 1193.92-134.81c52.07 41.64 118.52 4.115 176.25-.061 86.53-6.416 105.34 65.295 109.45 138.362 4.03 70.865-16.18 202.483 75.11 226.06 101.05 26.006 218.34-44.769 312.2 12.772" stroke="url(#Ah)"/><path d="M613.514-747.011c78.341 83.79 104.341 200.538 171.666 291.891 25.05 33.946 51.384 52.111 94.863 44.624 35.094-6.036 67.405-22.564 101.214-32.593C1163-497.05 1106.28-230.322 1200.11-153.424c50.68 41.441 119.31 7.307 176.12 2.158 31.26-2.871 64.2.322 86.67 24.916 27.89 30.338 28.97 81.26 30.46 119.734 2.81 68.865-15.94 195.521 71.42 219.852 102.33 28.633 220.38-45.573 316.08 12.548" stroke="url(#Ai)"/><path d="M629.001-734.13c73.353 74.537 99.306 179.614 163.83 260.267 55.474 69.328 120.66 30.544 190.943 8.471 191.526-60.052 124.076 215.266 221.836 293.933 52.2 41.943 125.77 7.915 184.3 3.25 29.43-2.293 60.74.301 83.25 21.631 30.06 28.681 31.93 79.114 33.53 117.685 3.32 76.079-18.89 206.395 79.17 228.133 100.11 22.3 215.95-45.827 309.04 10.097" stroke="url(#Aj)"/><path d="M644.457-720.301c67.894 64.694 94.276 157.533 155.643 226.99 57.657 65.356 125.8 23.059 195.164 2.537 188.216-55.669 120.876 222.06 215.666 300.349 53.21 43.961 132.04 8.749 192.51 4.76 30.92-2 62.78 2.022 85.12 25.153 26.74 27.808 29.17 72.513 30.92 109.073 3.53 74.904-21.12 211.107 75.93 234.509 101.45 24.604 218.28-46.762 313.09 9.647" stroke="url(#Ak)"/><path d="M660.038-706.376c61.923 55 89.82 134.773 147.308 193.2 60.71 61.73 129.76 16.517 199.644-2.788 186.68-51.541 115.15 230.016 209.03 307.54 52.19 43.101 132.77 11.107 192.24 6.466 33.6-2.648 72.89-.101 96.86 27.31 25.83 29.567 26.6 76.938 27.97 113.951 2.73 72.869-20.82 203.614 72.12 227.997 102.82 27.118 220.5-47.792 317.26 9.292" stroke="url(#Al)"/><path d="M675.535-693.285c53.646 44.134 83.519 106.384 132.938 153.928 63.951 61.559 127.493 21.968 200.837 1.318 196.86-55.352 114.53 228.911 212.67 310.806 55.84 46.577 145.73 9.267 209.87 7.595 28.93-.778 61.71 3.059 83.38 24.46 31.06 30.49 30.6 84.381 31.51 124.694 1.57 74.02-20.13 206.711 79.15 224.243 100.99 17.808 216.67-48.518 310.39 6.196" stroke="url(#Am)"/><path d="M690.885-682.073c47.4 36.146 80.343 85.092 125.608 123.313 28.404 23.984 53.841 36.545 91.777 30.582 35.756-5.672 69.198-21.244 103.62-31.535 205.68-61.468 115.69 230.284 215.84 314.848 54.43 45.961 146.14 11.546 208.72 8.746 33.38-1.473 70.51 1.573 94.56 27.505 27.4 29.538 28.14 77.649 29.06 115.646 1.74 73.584-23.29 211.608 75.62 230.959 102.32 19.904 219.23-49.261 314.56 5.841" stroke="url(#An)"/><path d="M706.069-673.901c39.485 28.3 74.242 61.525 112.869 90.844 32.455 24.691 57.843 39.149 100.262 31.543 36.31-6.56 70.473-22.3 105.86-32.357 201.77-56.823 111.37 237.489 209.69 320.315 56.13 47.394 150.91 12.087 216.11 10.536 33.44-.847 73.18 2.082 96.45 29.869 23.6 28.073 24.75 72.467 25.81 107.087 2.1 72.922-25.91 216.564 72.1 237.676 103.69 22.416 221.56-50.197 318.52 5.503" stroke="url(#Ao)"/><path d="M721.055-669.391c34.923 24.06 72.011 43.939 107.393 67.224 31.492 20.776 53.073 34.927 92.558 29.884 40.927-5.375 78.823-24.167 118.584-34.597 197.87-52.177 106.48 244.216 202.82 325.949 56.94 48.271 157.83 11.919 223.92 10.923 30.95-.425 68.1 2.831 91.2 26.214 28.96 29.3 28.38 80.573 29.19 118.474 1.57 70.338-24.93 208.277 68.56 230.614 105.08 25.138 223.71-50.905 322.5 5.375" stroke="url(#Ap)"/><path d="M735.859-669.492c32.904 22.549 68.254 28.166 101.839 47.606 33.036 19.172 52.203 34.581 92.618 29.354 41.136-5.394 79.444-24.221 119.424-34.669 200.06-52.259 104.89 246.56 201.91 328.866 57.5 48.75 160.61 12.524 227.46 11.779 31.06-.329 68.93 2.76 92.16 26.448 28.86 29.413 28.29 80.686 29 118.701 1.36 70.355-25.63 208.652 68.07 230.971 105.38 25.007 224.28-51.585 323.3 4.887" stroke="url(#Aq)"/><path d="M750.273-675.346c20.8 14.849 35.025 22.789 59.479 25.021 14.604 1.282 24.835 1.779 38.381 9.146 34.217 18.23 50.987 35.104 92.749 29.657 41.457-5.315 79.978-24.16 120.158-34.626 201.52-52.383 103.56 248.146 201.33 330.704 57.94 48.922 162.64 12.876 230.04 12.401 31.29-.138 69.14 2.742 92.69 26.507 28.98 29.51 28.19 80.8 28.91 118.815 1.15 70.373-26.13 209.01 67.66 231.216 105.38 25.007 224.76-52.152 323.8 4.528" stroke="url(#Ar)"/><path d="M764.332-687.9c21.925 16.961 33.403 24.715 59.283 22.723 15.547-1.218 23.341-2.196 38.323 5.995 30.398 16.557 47.537 35.293 85.026 31.472 42.076-4.211 81.416-23.336 121.876-34.142 208.9-55.85 106.34 242.546 206.57 329.312 55.33 47.882 157.48 15.104 222.55 13.249 35.63-.929 77.39.988 102.91 29.319 28.3 31.46 27.01 82.899 27.03 122.656.2 67.824-24.57 200.251 64.2 223.832 106.38 28.182 226.52-52.407 327.09 4.985" stroke="url(#As)"/></g><defs><radialGradient id="A" cx="0" cy="0" r="1" gradientTransform="rotate(40.177 -1332.34 678.273) scale(833.038 108.569)" xlink:href="#At"><stop stop-color="#c4ff96"/><stop offset=".264" stop-color="#06124a"/><stop offset=".508" stop-opacity=".74"/><stop offset=".753" stop-color="#0e1430" stop-opacity="0"/><stop offset="1" stop-color="#210593" stop-opacity=".49"/></radialGradient><radialGradient id="B" cx="0" cy="0" r="1" gradientTransform="matrix(636.4869 537.43532 -70.26856 83.21935 137.345 1002.835)" xlink:href="#At"><stop stop-color="#c4ff96"/><stop offset=".264" stop-color="#06124a"/><stop offset=".508" stop-opacity=".74"/><stop offset=".753" stop-color="#0e1430" stop-opacity="0"/><stop offset="1" stop-color="#210593" stop-opacity=".49"/></radialGradient><radialGradient id="C" cx="0" cy="0" r="1" gradientTransform="matrix(636.54421 537.4837 -70.97177 84.05217 151.94 985.615)" xlink:href="#At"><stop stop-color="#c4ff96"/><stop offset=".264" stop-color="#06124a"/><stop offset=".508" stop-opacity=".74"/><stop offset=".753" stop-color="#0e1430" stop-opacity="0"/><stop offset="1" stop-color="#210593" stop-opacity=".49"/></radialGradient><radialGradient id="D" cx="0" cy="0" r="1" gradientTransform="matrix(636.54421 537.4837 -71.97111 85.2357 166.672 968.115)" xlink:href="#At"><stop stop-color="#c4ff96"/><stop offset=".264" stop-color="#06124a"/><stop offset=".508" stop-opacity=".74"/><stop offset=".753" stop-color="#0e1430" stop-opacity="0"/><stop offset="1" stop-color="#210593" stop-opacity=".49"/></radialGradient><radialGradient id="E" cx="0" cy="0" r="1" gradientTransform="matrix(636.60186 537.52858 -73.1366 86.6166 181.784 950.286)" xlink:href="#At"><stop stop-color="#c4ff96"/><stop offset=".264" stop-color="#06124a"/><stop offset=".508" stop-opacity=".74"/><stop offset=".753" stop-color="#0e1430" stop-opacity="0"/><stop offset="1" stop-color="#210593" stop-opacity=".49"/></radialGradient><radialGradient id="F" cx="0" cy="0" r="1" gradientTransform="matrix(636.54609 537.48149 -74.66754 88.4297 197.045 932.043)" xlink:href="#At"><stop stop-color="#c4ff96"/><stop offset=".264" stop-color="#06124a"/><stop offset=".508" stop-opacity=".74"/><stop offset=".753" stop-color="#0e1430" stop-opacity="0"/><stop offset="1" stop-color="#210593" stop-opacity=".49"/></radialGradient><radialGradient id="G" cx="0" cy="0" r="1" gradientTransform="matrix(636.54421 537.4837 -76.26846 90.32506 212.392 913.821)" xlink:href="#At"><stop stop-color="#c4ff96"/><stop offset=".264" stop-color="#06124a"/><stop offset=".508" stop-opacity=".74"/><stop offset=".753" stop-color="#0e1430" stop-opacity="0"/><stop offset="1" stop-color="#210593" stop-opacity=".49"/></radialGradient><radialGradient id="H" cx="0" cy="0" r="1" gradientTransform="matrix(636.54421 537.4837 -78.04521 92.42927 227.94 895.356)" xlink:href="#At"><stop stop-color="#c4ff96"/><stop offset=".264" stop-color="#06124a"/><stop offset=".508" stop-opacity=".74"/><stop offset=".753" stop-color="#0e1430" stop-opacity="0"/><stop offset="1" stop-color="#210593" stop-opacity=".49"/></radialGradient><radialGradient id="I" cx="0" cy="0" r="1" gradientTransform="matrix(636.48878 537.4331 -79.83646 94.55133 243.422 876.852)" xlink:href="#At"><stop stop-color="#c4ff96"/><stop offset=".264" stop-color="#06124a"/><stop offset=".508" stop-opacity=".74"/><stop offset=".753" stop-color="#0e1430" stop-opacity="0"/><stop offset="1" stop-color="#210593" stop-opacity=".49"/></radialGradient><radialGradient id="J" cx="0" cy="0" r="1" gradientTransform="matrix(636.4869 537.43532 -81.66386 96.71485 258.992 858.361)" xlink:href="#At"><stop stop-color="#c4ff96"/><stop offset=".264" stop-color="#06124a"/><stop offset=".508" stop-opacity=".74"/><stop offset=".753" stop-color="#0e1430" stop-opacity="0"/><stop offset="1" stop-color="#210593" stop-opacity=".49"/></radialGradient><radialGradient id="K" cx="0" cy="0" r="1" gradientTransform="matrix(636.4869 537.43532 -83.47674 98.86185 274.548 839.884)" xlink:href="#At"><stop stop-color="#c4ff96"/><stop offset=".264" stop-color="#06124a"/><stop offset=".508" stop-opacity=".74"/><stop offset=".753" stop-color="#0e1430" stop-opacity="0"/><stop offset="1" stop-color="#210593" stop-opacity=".49"/></radialGradient><radialGradient id="L" cx="0" cy="0" r="1" gradientTransform="matrix(636.54609 537.48149 -85.1828 100.88307 290.059 821.577)" xlink:href="#At"><stop stop-color="#c4ff96"/><stop offset=".264" stop-color="#06124a"/><stop offset=".508" stop-opacity=".74"/><stop offset=".753" stop-color="#0e1430" stop-opacity="0"/><stop offset="1" stop-color="#210593" stop-opacity=".49"/></radialGradient><radialGradient id="M" cx="0" cy="0" r="1" gradientTransform="matrix(636.48878 537.4331 -86.6544 102.62589 305.245 803.424)" xlink:href="#At"><stop stop-color="#c4ff96"/><stop offset=".264" stop-color="#06124a"/><stop offset=".508" stop-opacity=".74"/><stop offset=".753" stop-color="#0e1430" stop-opacity="0"/><stop offset="1" stop-color="#210593" stop-opacity=".49"/></radialGradient><radialGradient id="N" cx="0" cy="0" r="1" gradientTransform="rotate(40.177 -914.003 830.726) scale(833.113 136.324)" xlink:href="#At"><stop stop-color="#c4ff96"/><stop offset=".264" stop-color="#06124a"/><stop offset=".508" stop-opacity=".74"/><stop offset=".753" stop-color="#0e1430" stop-opacity="0"/><stop offset="1" stop-color="#210593" stop-opacity=".49"/></radialGradient><radialGradient id="O" cx="0" cy="0" r="1" gradientTransform="matrix(636.37383 537.33984 -88.9031 105.28832 335.001 767.861)" xlink:href="#At"><stop stop-color="#c4ff96"/><stop offset=".264" stop-color="#06124a"/><stop offset=".508" stop-opacity=".74"/><stop offset=".753" stop-color="#0e1430" stop-opacity="0"/><stop offset="1" stop-color="#210593" stop-opacity=".49"/></radialGradient><radialGradient id="P" cx="0" cy="0" r="1" gradientTransform="matrix(636.48878 537.4331 -89.46853 105.9587 349.437 750.947)" xlink:href="#At"><stop stop-color="#c4ff96"/><stop offset=".264" stop-color="#06124a"/><stop offset=".508" stop-opacity=".74"/><stop offset=".753" stop-color="#0e1430" stop-opacity="0"/><stop offset="1" stop-color="#210593" stop-opacity=".49"/></radialGradient><radialGradient id="Q" cx="0" cy="0" r="1" gradientTransform="matrix(636.60186 537.52858 -89.6782 106.20702 363.771 734.153)" xlink:href="#At"><stop stop-color="#c4ff96"/><stop offset=".264" stop-color="#06124a"/><stop offset=".508" stop-opacity=".74"/><stop offset=".753" stop-color="#0e1430" stop-opacity="0"/><stop offset="1" stop-color="#210593" stop-opacity=".49"/></radialGradient><radialGradient id="R" cx="0" cy="0" r="1" gradientTransform="matrix(636.54609 537.48149 -89.29111 105.74859 376.871 718.474)" xlink:href="#At"><stop stop-color="#c4ff96"/><stop offset=".264" stop-color="#06124a"/><stop offset=".508" stop-opacity=".74"/><stop offset=".753" stop-color="#0e1430" stop-opacity="0"/><stop offset="1" stop-color="#210593" stop-opacity=".49"/></radialGradient><radialGradient id="S" cx="0" cy="0" r="1" gradientTransform="rotate(40.177 -770.742 882.786) scale(833.038 138.59)" xlink:href="#At"><stop stop-color="#c4ff96"/><stop offset=".264" stop-color="#06124a"/><stop offset=".508" stop-opacity=".74"/><stop offset=".753" stop-color="#0e1430" stop-opacity="0"/><stop offset="1" stop-color="#210593" stop-opacity=".49"/></radialGradient><radialGradient id="T" cx="0" cy="0" r="1" gradientTransform="matrix(636.59999 537.5308 -89.45729 105.94464 397.395 694.226)" xlink:href="#At"><stop stop-color="#c4ff96"/><stop offset=".264" stop-color="#06124a"/><stop offset=".508" stop-opacity=".74"/><stop offset=".753" stop-color="#0e1430" stop-opacity="0"/><stop offset="1" stop-color="#210593" stop-opacity=".49"/></radialGradient><radialGradient id="U" cx="0" cy="0" r="1" gradientTransform="matrix(636.43037 537.38758 -89.59341 106.10586 405.459 684.302)" xlink:href="#At"><stop stop-color="#c4ff96"/><stop offset=".264" stop-color="#06124a"/><stop offset=".508" stop-opacity=".74"/><stop offset=".753" stop-color="#0e1430" stop-opacity="0"/><stop offset="1" stop-color="#210593" stop-opacity=".49"/></radialGradient><radialGradient id="V" cx="0" cy="0" r="1" gradientTransform="rotate(40.177 -717.469 902.305) scale(833.113 138.972)" xlink:href="#At"><stop stop-color="#c4ff96"/><stop offset=".264" stop-color="#06124a"/><stop offset=".508" stop-opacity=".74"/><stop offset=".753" stop-color="#0e1430" stop-opacity="0"/><stop offset="1" stop-color="#210593" stop-opacity=".49"/></radialGradient><radialGradient id="W" cx="0" cy="0" r="1" gradientTransform="rotate(40.177 -703.494 907.277) scale(833.038 139.384)" xlink:href="#At"><stop stop-color="#c4ff96"/><stop offset=".264" stop-color="#06124a"/><stop offset=".508" stop-opacity=".74"/><stop offset=".753" stop-color="#0e1430" stop-opacity="0"/><stop offset="1" stop-color="#210593" stop-opacity=".49"/></radialGradient><radialGradient id="X" cx="0" cy="0" r="1" gradientTransform="matrix(636.54609 537.48149 -90.15045 106.76631 425.346 660.908)" xlink:href="#At"><stop stop-color="#c4ff96"/><stop offset=".264" stop-color="#06124a"/><stop offset=".508" stop-opacity=".74"/><stop offset=".753" stop-color="#0e1430" stop-opacity="0"/><stop offset="1" stop-color="#210593" stop-opacity=".49"/></radialGradient><radialGradient id="Y" cx="0" cy="0" r="1" gradientTransform="matrix(636.54609 537.48149 -90.46722 107.14147 431.123 654.049)" xlink:href="#At"><stop stop-color="#c4ff96"/><stop offset=".264" stop-color="#06124a"/><stop offset=".508" stop-opacity=".74"/><stop offset=".753" stop-color="#0e1430" stop-opacity="0"/><stop offset="1" stop-color="#210593" stop-opacity=".49"/></radialGradient><radialGradient id="Z" cx="0" cy="0" r="1" gradientTransform="matrix(636.54609 537.48149 -90.8414 107.58462 436.771 647.339)" xlink:href="#At"><stop stop-color="#c4ff96"/><stop offset=".264" stop-color="#06124a"/><stop offset=".508" stop-opacity=".74"/><stop offset=".753" stop-color="#0e1430" stop-opacity="0"/><stop offset="1" stop-color="#210593" stop-opacity=".49"/></radialGradient><radialGradient id="a" cx="0" cy="0" r="1" gradientTransform="matrix(636.54421 537.4837 -91.21339 108.0244 442.713 640.29)" xlink:href="#At"><stop stop-color="#c4ff96"/><stop offset=".264" stop-color="#06124a"/><stop offset=".508" stop-opacity=".74"/><stop offset=".753" stop-color="#0e1430" stop-opacity="0"/><stop offset="1" stop-color="#210593" stop-opacity=".49"/></radialGradient><radialGradient id="b" cx="0" cy="0" r="1" gradientTransform="matrix(636.48878 537.4331 -91.63816 108.52823 449.056 632.636)" xlink:href="#At"><stop stop-color="#c4ff96"/><stop offset=".264" stop-color="#06124a"/><stop offset=".508" stop-opacity=".74"/><stop offset=".753" stop-color="#0e1430" stop-opacity="0"/><stop offset="1" stop-color="#210593" stop-opacity=".49"/></radialGradient><radialGradient id="c" cx="0" cy="0" r="1" gradientTransform="matrix(636.54609 537.48149 -91.94719 108.89421 456.156 624.323)" xlink:href="#At"><stop stop-color="#c4ff96"/><stop offset=".264" stop-color="#06124a"/><stop offset=".508" stop-opacity=".74"/><stop offset=".753" stop-color="#0e1430" stop-opacity="0"/><stop offset="1" stop-color="#210593" stop-opacity=".49"/></radialGradient><radialGradient id="d" cx="0" cy="0" r="1" gradientTransform="matrix(636.65917 537.57697 -92.28009 109.28847 464.421 614.729)" xlink:href="#At"><stop stop-color="#c4ff96"/><stop offset=".264" stop-color="#06124a"/><stop offset=".508" stop-opacity=".74"/><stop offset=".753" stop-color="#0e1430" stop-opacity="0"/><stop offset="1" stop-color="#210593" stop-opacity=".49"/></radialGradient><radialGradient id="e" cx="0" cy="0" r="1" gradientTransform="matrix(636.48878 537.4331 -92.5646 109.62542 473.755 603.305)" xlink:href="#At"><stop stop-color="#c4ff96"/><stop offset=".264" stop-color="#06124a"/><stop offset=".508" stop-opacity=".74"/><stop offset=".753" stop-color="#0e1430" stop-opacity="0"/><stop offset="1" stop-color="#210593" stop-opacity=".49"/></radialGradient><radialGradient id="f" cx="0" cy="0" r="1" gradientTransform="rotate(40.177 -565.189 957.874) scale(833.186 143.685)" xlink:href="#At"><stop stop-color="#c4ff96"/><stop offset=".264" stop-color="#06124a"/><stop offset=".508" stop-opacity=".74"/><stop offset=".753" stop-color="#0e1430" stop-opacity="0"/><stop offset="1" stop-color="#210593" stop-opacity=".49"/></radialGradient><radialGradient id="g" cx="0" cy="0" r="1" gradientTransform="matrix(636.54609 537.48149 -92.8291 109.93868 497.325 575.424)" xlink:href="#At"><stop stop-color="#c4ff96"/><stop offset=".264" stop-color="#06124a"/><stop offset=".508" stop-opacity=".74"/><stop offset=".753" stop-color="#0e1430" stop-opacity="0"/><stop offset="1" stop-color="#210593" stop-opacity=".49"/></radialGradient><radialGradient id="h" cx="0" cy="0" r="1" gradientTransform="matrix(635.86684 536.90795 -91.81945 108.74293 512.326 558.762)" xlink:href="#At"><stop stop-color="#c4ff96"/><stop offset=".264" stop-color="#06124a"/><stop offset=".508" stop-opacity=".74"/><stop offset=".753" stop-color="#0e1430" stop-opacity="0"/><stop offset="1" stop-color="#210593" stop-opacity=".49"/></radialGradient><radialGradient id="i" cx="0" cy="0" r="1" gradientTransform="rotate(40.177 -477.163 994.403) scale(830.002 139.141)" xlink:href="#At"><stop stop-color="#c4ff96"/><stop offset=".264" stop-color="#06124a"/><stop offset=".508" stop-opacity=".74"/><stop offset=".753" stop-color="#0e1430" stop-opacity="0"/><stop offset="1" stop-color="#210593" stop-opacity=".49"/></radialGradient><radialGradient id="j" cx="0" cy="0" r="1" gradientTransform="matrix(631.56673 533.27705 -86.71181 102.69389 547.071 526.467)" xlink:href="#At"><stop stop-color="#c4ff96"/><stop offset=".264" stop-color="#06124a"/><stop offset=".508" stop-opacity=".74"/><stop offset=".753" stop-color="#0e1430" stop-opacity="0"/><stop offset="1" stop-color="#210593" stop-opacity=".49"/></radialGradient><radialGradient id="k" cx="0" cy="0" r="1" gradientTransform="matrix(628.05632 530.31673 -82.86384 98.136 566.188 510.669)" xlink:href="#At"><stop stop-color="#c4ff96"/><stop offset=".264" stop-color="#06124a"/><stop offset=".508" stop-opacity=".74"/><stop offset=".753" stop-color="#0e1430" stop-opacity="0"/><stop offset="1" stop-color="#210593" stop-opacity=".49"/></radialGradient><radialGradient id="l" cx="0" cy="0" r="1" gradientTransform="rotate(40.177 -383.52 1049.379) scale(816.82 121.349)" xlink:href="#At"><stop stop-color="#c4ff96"/><stop offset=".264" stop-color="#06124a"/><stop offset=".508" stop-opacity=".74"/><stop offset=".753" stop-color="#0e1430" stop-opacity="0"/><stop offset="1" stop-color="#210593" stop-opacity=".49"/></radialGradient><radialGradient id="m" cx="0" cy="0" r="1" gradientTransform="rotate(40.177 -351.979 1070.05) scale(810.896 113.513)" xlink:href="#At"><stop stop-color="#c4ff96"/><stop offset=".264" stop-color="#06124a"/><stop offset=".508" stop-opacity=".74"/><stop offset=".753" stop-color="#0e1430" stop-opacity="0"/><stop offset="1" stop-color="#210593" stop-opacity=".49"/></radialGradient><radialGradient id="n" cx="0" cy="0" r="1" gradientTransform="matrix(614.70475 519.03928 -67.99928 80.5324 628.508 464.239)" xlink:href="#At"><stop stop-color="#c4ff96"/><stop offset=".264" stop-color="#06124a"/><stop offset=".508" stop-opacity=".74"/><stop offset=".753" stop-color="#0e1430" stop-opacity="0"/><stop offset="1" stop-color="#210593" stop-opacity=".49"/></radialGradient><radialGradient id="o" cx="0" cy="0" r="1" gradientTransform="matrix(609.61307 514.74 -65.2787 77.31038 647.235 451.893)" xlink:href="#At"><stop stop-color="#c4ff96"/><stop offset=".264" stop-color="#06124a"/><stop offset=".508" stop-opacity=".74"/><stop offset=".753" stop-color="#0e1430" stop-opacity="0"/><stop offset="1" stop-color="#210593" stop-opacity=".49"/></radialGradient><radialGradient id="p" cx="0" cy="0" r="1" gradientTransform="matrix(604.6337 510.53558 -68.00186 80.53546 660.923 445.982)" xlink:href="#At"><stop stop-color="#c4ff96"/><stop offset=".264" stop-color="#06124a"/><stop offset=".508" stop-opacity=".74"/><stop offset=".753" stop-color="#0e1430" stop-opacity="0"/><stop offset="1" stop-color="#210593" stop-opacity=".49"/></radialGradient><radialGradient id="q" cx="0" cy="0" r="1" gradientTransform="matrix(599.70912 506.38098 -70.79694 83.84511 673.723 440.559)" xlink:href="#At"><stop stop-color="#c4ff96"/><stop offset=".264" stop-color="#06124a"/><stop offset=".508" stop-opacity=".74"/><stop offset=".753" stop-color="#0e1430" stop-opacity="0"/><stop offset="1" stop-color="#210593" stop-opacity=".49"/></radialGradient><radialGradient id="r" cx="0" cy="0" r="1" gradientTransform="matrix(595.24115 502.60477 -73.77981 87.37836 686.776 434.368)" xlink:href="#At"><stop stop-color="#c4ff96"/><stop offset=".264" stop-color="#06124a"/><stop offset=".508" stop-opacity=".74"/><stop offset=".753" stop-color="#0e1430" stop-opacity="0"/><stop offset="1" stop-color="#210593" stop-opacity=".49"/></radialGradient><radialGradient id="s" cx="0" cy="0" r="1" gradientTransform="matrix(591.1672 499.16484 -76.55718 90.66763 699.666 427.336)" xlink:href="#At"><stop stop-color="#c4ff96"/><stop offset=".264" stop-color="#06124a"/><stop offset=".508" stop-opacity=".74"/><stop offset=".753" stop-color="#0e1430" stop-opacity="0"/><stop offset="1" stop-color="#210593" stop-opacity=".49"/></radialGradient><radialGradient id="t" cx="0" cy="0" r="1" gradientTransform="rotate(40.177 -216.185 1183.751) scale(769.277 122.369)" xlink:href="#At"><stop stop-color="#c4ff96"/><stop offset=".264" stop-color="#06124a"/><stop offset=".508" stop-opacity=".74"/><stop offset=".753" stop-color="#0e1430" stop-opacity="0"/><stop offset="1" stop-color="#210593" stop-opacity=".49"/></radialGradient><radialGradient id="u" cx="0" cy="0" r="1" gradientTransform="rotate(40.177 -194.621 1196.995) scale(765.797 124.842)" xlink:href="#At"><stop stop-color="#c4ff96"/><stop offset=".264" stop-color="#06124a"/><stop offset=".508" stop-opacity=".74"/><stop offset=".753" stop-color="#0e1430" stop-opacity="0"/><stop offset="1" stop-color="#210593" stop-opacity=".49"/></radialGradient><radialGradient id="v" cx="0" cy="0" r="1" gradientTransform="rotate(40.177 -171.272 1208.941) scale(763.575 126.8)" xlink:href="#At"><stop stop-color="#c4ff96"/><stop offset=".264" stop-color="#06124a"/><stop offset=".508" stop-opacity=".74"/><stop offset=".753" stop-color="#0e1430" stop-opacity="0"/><stop offset="1" stop-color="#210593" stop-opacity=".49"/></radialGradient><radialGradient id="w" cx="0" cy="0" r="1" gradientTransform="matrix(582.84967 492.14175 -82.50415 97.7107 752.958 381.176)" xlink:href="#At"><stop stop-color="#c4ff96"/><stop offset=".264" stop-color="#06124a"/><stop offset=".508" stop-opacity=".74"/><stop offset=".753" stop-color="#0e1430" stop-opacity="0"/><stop offset="1" stop-color="#210593" stop-opacity=".49"/></radialGradient><radialGradient id="x" cx="0" cy="0" r="1" gradientTransform="matrix(583.30199 492.52368 -81.58482 96.62192 766.364 363.644)" xlink:href="#At"><stop stop-color="#c4ff96"/><stop offset=".264" stop-color="#06124a"/><stop offset=".508" stop-opacity=".74"/><stop offset=".753" stop-color="#0e1430" stop-opacity="0"/><stop offset="1" stop-color="#210593" stop-opacity=".49"/></radialGradient><radialGradient id="y" cx="0" cy="0" r="1" gradientTransform="matrix(585.1128 494.05268 -79.48163 94.1311 778.824 345.628)" xlink:href="#At"><stop stop-color="#c4ff96"/><stop offset=".264" stop-color="#06124a"/><stop offset=".508" stop-opacity=".74"/><stop offset=".753" stop-color="#0e1430" stop-opacity="0"/><stop offset="1" stop-color="#210593" stop-opacity=".49"/></radialGradient><radialGradient id="z" cx="0" cy="0" r="1" gradientTransform="matrix(587.71518 496.25005 -76.52234 90.62637 789.641 327.26)" xlink:href="#At"><stop stop-color="#c4ff96"/><stop offset=".264" stop-color="#06124a"/><stop offset=".508" stop-opacity=".74"/><stop offset=".753" stop-color="#0e1430" stop-opacity="0"/><stop offset="1" stop-color="#210593" stop-opacity=".49"/></radialGradient><radialGradient id="AA" cx="0" cy="0" r="1" gradientTransform="rotate(40.177 -21.031 1248.043) scale(773.795 112.226)" xlink:href="#At"><stop stop-color="#c4ff96"/><stop offset=".264" stop-color="#06124a"/><stop offset=".508" stop-opacity=".74"/><stop offset=".753" stop-color="#0e1430" stop-opacity="0"/><stop offset="1" stop-color="#210593" stop-opacity=".49"/></radialGradient><radialGradient id="AB" cx="0" cy="0" r="1" gradientTransform="rotate(40.177 10.794 1251.26) scale(779.053 104.505)" xlink:href="#At"><stop stop-color="#304bca"/><stop offset=".264" stop-color="#06124a"/><stop offset=".508" stop-opacity=".7"/><stop offset=".753" stop-color="#0e1430"/><stop offset="1" stop-color="#210593"/></radialGradient><radialGradient id="AC" cx="0" cy="0" r="1" gradientTransform="rotate(40.177 43.101 1253.736) scale(784.903 96.4148)" xlink:href="#At"><stop stop-color="#c4ff96"/><stop offset=".264" stop-color="#06124a"/><stop offset=".508" stop-opacity=".74"/><stop offset=".753" stop-color="#0e1430" stop-opacity="0"/><stop offset="1" stop-color="#210593" stop-opacity=".49"/></radialGradient><radialGradient id="AD" cx="0" cy="0" r="1" gradientTransform="matrix(604.57717 510.48783 -56.82131 67.2942 828.013 247.431)" xlink:href="#At"><stop stop-color="#c4ff96"/><stop offset=".264" stop-color="#06124a"/><stop offset=".508" stop-opacity=".74"/><stop offset=".753" stop-color="#0e1430" stop-opacity="0"/><stop offset="1" stop-color="#210593" stop-opacity=".49"/></radialGradient><radialGradient id="AE" cx="0" cy="0" r="1" gradientTransform="matrix(609.61307 514.74 -50.16538 59.4115 835.306 228.539)" xlink:href="#At"><stop stop-color="#c4ff96"/><stop offset=".264" stop-color="#06124a"/><stop offset=".508" stop-opacity=".74"/><stop offset=".753" stop-color="#0e1430" stop-opacity="0"/><stop offset="1" stop-color="#210593" stop-opacity=".49"/></radialGradient><radialGradient id="AF" cx="0" cy="0" r="1" gradientTransform="matrix(614.70475 519.03928 -45.27974 53.62536 843.985 208.339)" xlink:href="#At"><stop stop-color="#c4ff96"/><stop offset=".264" stop-color="#06124a"/><stop offset=".508" stop-opacity=".74"/><stop offset=".753" stop-color="#0e1430" stop-opacity="0"/><stop offset="1" stop-color="#210593" stop-opacity=".49"/></radialGradient><radialGradient id="AG" cx="0" cy="0" r="1" gradientTransform="matrix(619.51449 523.10048 -41.76613 49.46415 851.326 189.621)" xlink:href="#At"><stop stop-color="#c4ff96"/><stop offset=".264" stop-color="#06124a"/><stop offset=".508" stop-opacity=".74"/><stop offset=".753" stop-color="#0e1430" stop-opacity="0"/><stop offset="1" stop-color="#210593" stop-opacity=".49"/></radialGradient><radialGradient id="AH" cx="0" cy="0" r="1" gradientTransform="matrix(624.04076 526.92234 -43.05256 50.98768 854.48 176.675)" xlink:href="#At"><stop stop-color="#c4ff96"/><stop offset=".264" stop-color="#06124a"/><stop offset=".508" stop-opacity=".74"/><stop offset=".753" stop-color="#0e1430" stop-opacity="0"/><stop offset="1" stop-color="#210593" stop-opacity=".49"/></radialGradient><radialGradient id="AI" cx="0" cy="0" r="1" gradientTransform="matrix(628.11472 530.36227 -44.35363 52.52856 858.881 163.174)" xlink:href="#At"><stop stop-color="#c4ff96"/><stop offset=".264" stop-color="#06124a"/><stop offset=".508" stop-opacity=".74"/><stop offset=".753" stop-color="#0e1430" stop-opacity="0"/><stop offset="1" stop-color="#210593" stop-opacity=".49"/></radialGradient><radialGradient id="AJ" cx="0" cy="0" r="1" gradientTransform="matrix(631.56673 533.27705 -45.4989 53.88491 864.647 149.307)" xlink:href="#At"><stop stop-color="#c4ff96"/><stop offset=".264" stop-color="#06124a"/><stop offset=".508" stop-opacity=".74"/><stop offset=".753" stop-color="#0e1430" stop-opacity="0"/><stop offset="1" stop-color="#210593" stop-opacity=".49"/></radialGradient><radialGradient id="AK" cx="0" cy="0" r="1" gradientTransform="rotate(40.177 251.768 1259.965) scale(830.076 71.7364)" xlink:href="#At"><stop stop-color="#c4ff96"/><stop offset=".264" stop-color="#06124a"/><stop offset=".508" stop-opacity=".74"/><stop offset=".753" stop-color="#0e1430" stop-opacity="0"/><stop offset="1" stop-color="#210593" stop-opacity=".49"/></radialGradient><radialGradient id="AL" cx="0" cy="0" r="1" gradientTransform="matrix(635.92338 536.9557 -46.86016 55.49707 881.809 120.071)" xlink:href="#At"><stop stop-color="#081554"/><stop offset=".2" stop-color="#0e1c60"/><stop offset=".4" stop-color="#06124a"/><stop offset=".6" stop-color="#0e1430"/><stop offset=".8" stop-color="#070223"/><stop offset="1" stop-color="#0a0716"/></radialGradient><radialGradient id="AM" cx="0" cy="0" r="1" gradientTransform="matrix(636.54609 537.48149 -47.37673 56.10886 893.884 104.474)" xlink:href="#At"><stop stop-color="#c4ff96"/><stop offset=".264" stop-color="#06124a"/><stop offset=".508" stop-opacity=".74"/><stop offset=".753" stop-color="#0e1430" stop-opacity="0"/><stop offset="1" stop-color="#210593" stop-opacity=".49"/></radialGradient><radialGradient id="AN" cx="0" cy="0" r="1" gradientTransform="rotate(40.177 334.813 1285.396) scale(833.038 72.1303)" xlink:href="#At"><stop stop-color="#c4ff96"/><stop offset=".264" stop-color="#06124a"/><stop offset=".508" stop-opacity=".74"/><stop offset=".753" stop-color="#0e1430" stop-opacity="0"/><stop offset="1" stop-color="#210593" stop-opacity=".49"/></radialGradient><radialGradient id="AO" cx="0" cy="0" r="1" gradientTransform="matrix(636.59999 537.5308 -46.45152 55.01273 922.927 70.105)" xlink:href="#At"><stop stop-color="#c4ff96"/><stop offset=".264" stop-color="#06124a"/><stop offset=".508" stop-opacity=".74"/><stop offset=".753" stop-color="#0e1430" stop-opacity="0"/><stop offset="1" stop-color="#210593" stop-opacity=".49"/></radialGradient><radialGradient id="AP" cx="0" cy="0" r="1" gradientTransform="matrix(636.48878 537.4331 -47.25912 55.96957 935.702 54.693)" xlink:href="#At"><stop stop-color="#c4ff96"/><stop offset=".264" stop-color="#06124a"/><stop offset=".508" stop-opacity=".74"/><stop offset=".753" stop-color="#0e1430" stop-opacity="0"/><stop offset="1" stop-color="#210593" stop-opacity=".49"/></radialGradient><radialGradient id="AQ" cx="0" cy="0" r="1" gradientTransform="matrix(636.59999 537.5308 -48.28814 57.18784 948.52 39.703)" xlink:href="#At"><stop stop-color="#c4ff96"/><stop offset=".264" stop-color="#06124a"/><stop offset=".508" stop-opacity=".74"/><stop offset=".753" stop-color="#0e1430" stop-opacity="0"/><stop offset="1" stop-color="#210593" stop-opacity=".49"/></radialGradient><radialGradient id="AR" cx="0" cy="0" r="1" gradientTransform="matrix(636.54609 537.48149 -49.55081 58.68365 960.742 25.066)" xlink:href="#At"><stop stop-color="#c4ff96"/><stop offset=".264" stop-color="#06124a"/><stop offset=".508" stop-opacity=".74"/><stop offset=".753" stop-color="#0e1430" stop-opacity="0"/><stop offset="1" stop-color="#210593" stop-opacity=".49"/></radialGradient><radialGradient id="AS" cx="0" cy="0" r="1" gradientTransform="rotate(40.177 471.902 1335.433) scale(833.113 78.9212)" xlink:href="#At"><stop stop-color="#c4ff96"/><stop offset=".264" stop-color="#06124a"/><stop offset=".508" stop-opacity=".74"/><stop offset=".753" stop-color="#0e1430" stop-opacity="0"/><stop offset="1" stop-color="#210593" stop-opacity=".49"/></radialGradient><radialGradient id="AT" cx="0" cy="0" r="1" gradientTransform="rotate(40.177 498.494 1345.108) scale(833.113 80.7163)" xlink:href="#At"><stop stop-color="#c4ff96"/><stop offset=".264" stop-color="#06124a"/><stop offset=".508" stop-opacity=".74"/><stop offset=".753" stop-color="#0e1430" stop-opacity="0"/><stop offset="1" stop-color="#210593" stop-opacity=".49"/></radialGradient><radialGradient id="AU" cx="0" cy="0" r="1" gradientTransform="matrix(636.60186 537.52858 -53.64776 63.53572 997.498 -18.466)" xlink:href="#At"><stop stop-color="#c4ff96"/><stop offset=".264" stop-color="#06124a"/><stop offset=".508" stop-opacity=".74"/><stop offset=".753" stop-color="#0e1430" stop-opacity="0"/><stop offset="1" stop-color="#210593" stop-opacity=".49"/></radialGradient><radialGradient id="AV" cx="0" cy="0" r="1" gradientTransform="matrix(636.54421 537.4837 -55.1948 65.36743 1009.376 -32.685)" xlink:href="#At"><stop stop-color="#c4ff96"/><stop offset=".264" stop-color="#06124a"/><stop offset=".508" stop-opacity=".74"/><stop offset=".753" stop-color="#0e1430" stop-opacity="0"/><stop offset="1" stop-color="#210593" stop-opacity=".49"/></radialGradient><radialGradient id="AW" cx="0" cy="0" r="1" gradientTransform="rotate(40.177 575.058 1373) scale(833.113 88.2533)" xlink:href="#At"><stop stop-color="#c4ff96"/><stop offset=".264" stop-color="#06124a"/><stop offset=".508" stop-opacity=".74"/><stop offset=".753" stop-color="#0e1430" stop-opacity="0"/><stop offset="1" stop-color="#210593" stop-opacity=".49"/></radialGradient><radialGradient id="AX" cx="0" cy="0" r="1" gradientTransform="matrix(636.54609 537.48149 -58.5087 69.29259 1033.73 -61.614)" xlink:href="#At"><stop stop-color="#c4ff96"/><stop offset=".264" stop-color="#06124a"/><stop offset=".508" stop-opacity=".74"/><stop offset=".753" stop-color="#0e1430" stop-opacity="0"/><stop offset="1" stop-color="#210593" stop-opacity=".49"/></radialGradient><radialGradient id="AY" cx="0" cy="0" r="1" gradientTransform="matrix(636.54609 537.48149 -59.89822 70.93821 1046.28 -76.511)" xlink:href="#At"><stop stop-color="#c4ff96"/><stop offset=".264" stop-color="#06124a"/><stop offset=".508" stop-opacity=".74"/><stop offset=".753" stop-color="#0e1430" stop-opacity="0"/><stop offset="1" stop-color="#210593" stop-opacity=".49"/></radialGradient><radialGradient id="AZ" cx="0" cy="0" r="1" gradientTransform="rotate(40.177 654.497 1401.92) scale(833.113 94.7555)" xlink:href="#At"><stop stop-color="#c4ff96"/><stop offset=".264" stop-color="#06124a"/><stop offset=".508" stop-opacity=".74"/><stop offset=".753" stop-color="#0e1430" stop-opacity="0"/><stop offset="1" stop-color="#210593" stop-opacity=".49"/></radialGradient><radialGradient id="Aa" cx="0" cy="0" r="1" gradientTransform="rotate(40.177 681.86 1411.893) scale(833.113 96.2323)" xlink:href="#At"><stop stop-color="#c4ff96"/><stop offset=".264" stop-color="#06124a"/><stop offset=".508" stop-opacity=".74"/><stop offset=".753" stop-color="#0e1430" stop-opacity="0"/><stop offset="1" stop-color="#210593" stop-opacity=".49"/></radialGradient><radialGradient id="Ab" cx="0" cy="0" r="1" gradientTransform="rotate(40.177 709.56 1421.866) scale(833.038 97.3303)" xlink:href="#At"><stop stop-color="#c4ff96"/><stop offset=".264" stop-color="#06124a"/><stop offset=".508" stop-opacity=".74"/><stop offset=".753" stop-color="#0e1430" stop-opacity="0"/><stop offset="1" stop-color="#210593" stop-opacity=".49"/></radialGradient><radialGradient id="Ac" cx="0" cy="0" r="1" gradientTransform="matrix(636.59999 537.5308 -63.005 74.61708 1098.476 -138.376)" xlink:href="#At"><stop stop-color="#c4ff96"/><stop offset=".264" stop-color="#06124a"/><stop offset=".508" stop-opacity=".74"/><stop offset=".753" stop-color="#0e1430" stop-opacity="0"/><stop offset="1" stop-color="#210593" stop-opacity=".49"/></radialGradient><radialGradient id="Ad" cx="0" cy="0" r="1" gradientTransform="matrix(635.6388 536.7192 -63.09648 74.72543 1113.156 -154.094)" xlink:href="#At"><stop stop-color="#c4ff96"/><stop offset=".264" stop-color="#06124a"/><stop offset=".508" stop-opacity=".74"/><stop offset=".753" stop-color="#0e1430" stop-opacity="0"/><stop offset="1" stop-color="#210593" stop-opacity=".49"/></radialGradient><radialGradient id="Ae" cx="0" cy="0" r="1" gradientTransform="matrix(632.97913 534.47343 -63.3959 75.08002 1129.256 -167.808)" xlink:href="#At"><stop stop-color="#c4ff96"/><stop offset=".264" stop-color="#06124a"/><stop offset=".508" stop-opacity=".74"/><stop offset=".753" stop-color="#0e1430" stop-opacity="0"/><stop offset="1" stop-color="#210593" stop-opacity=".49"/></radialGradient><radialGradient id="Af" cx="0" cy="0" r="1" gradientTransform="rotate(40.177 820.066 1477.941) scale(822.967 98.7187)" xlink:href="#At"><stop stop-color="#c4ff96"/><stop offset=".264" stop-color="#06124a"/><stop offset=".508" stop-opacity=".74"/><stop offset=".753" stop-color="#0e1430" stop-opacity="0"/><stop offset="1" stop-color="#210593" stop-opacity=".49"/></radialGradient><radialGradient id="Ag" cx="0" cy="0" r="1" gradientTransform="matrix(623.36228 526.34945 -64.09723 75.91116 1165.74 -191.598)" xlink:href="#At"><stop stop-color="#c4ff96"/><stop offset=".264" stop-color="#06124a"/><stop offset=".508" stop-opacity=".74"/><stop offset=".753" stop-color="#0e1430" stop-opacity="0"/><stop offset="1" stop-color="#210593" stop-opacity=".49"/></radialGradient><radialGradient id="Ah" cx="0" cy="0" r="1" gradientTransform="rotate(40.177 868.843 1519.795) scale(807.416 100.181)" xlink:href="#At"><stop stop-color="#c4ff96"/><stop offset=".264" stop-color="#06124a"/><stop offset=".508" stop-opacity=".74"/><stop offset=".753" stop-color="#0e1430" stop-opacity="0"/><stop offset="1" stop-color="#210593" stop-opacity=".49"/></radialGradient><radialGradient id="Ai" cx="0" cy="0" r="1" gradientTransform="matrix(609.72615 514.83549 -65.2103 77.22939 1206.04 -211.75)" xlink:href="#At"><stop stop-color="#c4ff96"/><stop offset=".264" stop-color="#06124a"/><stop offset=".508" stop-opacity=".74"/><stop offset=".753" stop-color="#0e1430" stop-opacity="0"/><stop offset="1" stop-color="#210593" stop-opacity=".49"/></radialGradient><radialGradient id="Aj" cx="0" cy="0" r="1" gradientTransform="matrix(602.0871 508.3853 -65.36127 77.40818 1227.56 -221.551)" xlink:href="#At"><stop stop-color="#c4ff96"/><stop offset=".264" stop-color="#06124a"/><stop offset=".508" stop-opacity=".74"/><stop offset=".753" stop-color="#0e1430" stop-opacity="0"/><stop offset="1" stop-color="#210593" stop-opacity=".49"/></radialGradient><radialGradient id="Ak" cx="0" cy="0" r="1" gradientTransform="matrix(594.05304 501.60156 -65.93739 78.09048 1248.62 -230.704)" xlink:href="#At"><stop stop-color="#c4ff96"/><stop offset=".264" stop-color="#06124a"/><stop offset=".508" stop-opacity=".74"/><stop offset=".753" stop-color="#0e1430" stop-opacity="0"/><stop offset="1" stop-color="#210593" stop-opacity=".49"/></radialGradient><radialGradient id="Al" cx="0" cy="0" r="1" gradientTransform="matrix(586.18783 494.9604 -66.5664 78.83543 1269.83 -239.442)" xlink:href="#At"><stop stop-color="#c4ff96"/><stop offset=".264" stop-color="#06124a"/><stop offset=".508" stop-opacity=".74"/><stop offset=".753" stop-color="#0e1430" stop-opacity="0"/><stop offset="1" stop-color="#210593" stop-opacity=".49"/></radialGradient><radialGradient id="Am" cx="0" cy="0" r="1" gradientTransform="matrix(578.37917 488.36699 -67.11607 79.48641 1290.89 -248.835)" xlink:href="#At"><stop stop-color="#c4ff96"/><stop offset=".264" stop-color="#06124a"/><stop offset=".508" stop-opacity=".74"/><stop offset=".753" stop-color="#0e1430" stop-opacity="0"/><stop offset="1" stop-color="#210593" stop-opacity=".49"/></radialGradient><radialGradient id="An" cx="0" cy="0" r="1" gradientTransform="matrix(571.24883 482.34975 -67.70021 80.17765 1311.416 -258.244)" xlink:href="#At"><stop stop-color="#c4ff96"/><stop offset=".264" stop-color="#06124a"/><stop offset=".508" stop-opacity=".74"/><stop offset=".753" stop-color="#0e1430" stop-opacity="0"/><stop offset="1" stop-color="#210593" stop-opacity=".49"/></radialGradient><radialGradient id="Ao" cx="0" cy="0" r="1" gradientTransform="matrix(564.62996 476.75754 -68.22896 80.80441 1330.99 -268.745)" xlink:href="#At"><stop stop-color="#c4ff96"/><stop offset=".264" stop-color="#06124a"/><stop offset=".508" stop-opacity=".74"/><stop offset=".753" stop-color="#0e1430" stop-opacity="0"/><stop offset="1" stop-color="#210593" stop-opacity=".49"/></radialGradient><radialGradient id="Ap" cx="0" cy="0" r="1" gradientTransform="matrix(559.19662 472.17313 -69.27825 82.04653 1349.427 -279.36)" xlink:href="#At"><stop stop-color="#c4ff96"/><stop offset=".264" stop-color="#06124a"/><stop offset=".508" stop-opacity=".74"/><stop offset=".753" stop-color="#0e1430" stop-opacity="0"/><stop offset="1" stop-color="#210593" stop-opacity=".49"/></radialGradient><radialGradient id="Aq" cx="0" cy="0" r="1" gradientTransform="matrix(554.95306 468.58997 -73.05303 86.51701 1363.757 -287.52)" xlink:href="#At"><stop stop-color="#c4ff96"/><stop offset=".264" stop-color="#06124a"/><stop offset=".508" stop-opacity=".74"/><stop offset=".753" stop-color="#0e1430" stop-opacity="0"/><stop offset="1" stop-color="#210593" stop-opacity=".49"/></radialGradient><radialGradient id="Ar" cx="0" cy="0" r="1" gradientTransform="rotate(40.177 1097.256 1734.455) scale(722.697 117.085)" xlink:href="#At"><stop stop-color="#c4ff96"/><stop offset=".264" stop-color="#06124a"/><stop offset=".508" stop-opacity=".74"/><stop offset=".753" stop-color="#0e1430" stop-opacity="0"/><stop offset="1" stop-color="#210593" stop-opacity=".49"/></radialGradient><radialGradient id="As" cx="0" cy="0" r="1" gradientTransform="matrix(551.1069 465.33906 -76.44492 90.53468 1391.76 -313.2)" xlink:href="#At"><stop stop-color="#c4ff96"/><stop offset=".264" stop-color="#06124a"/><stop offset=".508" stop-opacity=".74"/><stop offset=".753" stop-color="#0e1430" stop-opacity="0"/><stop offset="1" stop-color="#210593" stop-opacity=".49"/></radialGradient><linearGradient id="At" gradientUnits="userSpaceOnUse"/></defs></svg>