<svg width="1438" height="786" viewBox="0 0 1438 786" fill="none" xmlns="http://www.w3.org/2000/svg">
<path d="M-581.886 563.657C-466.798 660.834 -351.711 758.01 -236.51 855.282C-187.058 897.039 -137.492 938.891 -88.0396 980.647C-38.5871 1022.4 4.75716 1065.21 54.9637 1101.01C94.4486 1129.31 148.802 1132.36 195.761 1136.15C254.35 1140.84 313.324 1141.4 371.656 1148C408.246 1152.15 465.287 1155.92 489.64 1189.08C510.42 1217.29 499.256 1257.68 490.271 1287.9C479.024 1326.09 460.495 1365.11 458.996 1405.52C457.531 1446.35 484.681 1464.24 512.859 1488.03L691.092 1638.52" stroke="url(#paint0_radial_496_2508)" stroke-width="1.3" stroke-miterlimit="10"/>
<path d="M-568.053 547.229C-454.301 645.992 -336.429 740.092 -222.677 838.855C-173.797 881.291 -123.659 922.463 -74.2067 964.22C-24.7542 1005.98 18.7808 1048.55 68.7011 1084.69C108.317 1113.3 162.236 1116.18 209.385 1119.74C267.731 1124.03 326.537 1123.86 384.834 1130.05C421.406 1133.99 478.447 1137.76 502.705 1171.04C523.39 1199.36 512.243 1239.96 503.58 1270.25C492.482 1308.96 474.215 1348.59 472.751 1389.42C471.382 1430.13 498.401 1447.71 526.692 1471.6L704.925 1622.1" stroke="url(#paint1_radial_496_2508)" stroke-width="1.3" stroke-miterlimit="10"/>
<path d="M-554.217 530.8C-440.698 630.529 -319.886 720.908 -207.703 822.223C-159.908 865.488 -109.71 906.129 -60.3708 947.79C-11.0314 989.451 32.6168 1032.12 82.6503 1068.36C122.171 1097.08 175.845 1099.56 223.037 1102.38C281.216 1105.95 339.743 1104.96 397.778 1110.54C434.523 1114.04 491.129 1117.64 515.595 1150.9C536.394 1179.32 525.205 1220.66 516.786 1251.35C505.967 1290.88 487.98 1331.32 486.778 1372.76C485.54 1413.78 512.219 1431.08 540.737 1455.15L718.969 1605.65" stroke="url(#paint2_radial_496_2508)" stroke-width="1.3" stroke-miterlimit="10"/>
<path d="M-540.387 514.372C-477.273 569.796 -406.866 615.87 -342.225 669.482C-290.014 712.792 -240.928 758.892 -191.883 805.731C-145.572 850.069 -95.5231 890.197 -46.6364 931.476C2.25029 972.754 46.3512 1015.81 96.3847 1052.04C135.792 1080.67 189.3 1082.42 236.325 1084.52C294.207 1087.07 352.228 1085.07 410.079 1089.72C446.675 1092.71 503.019 1095.7 527.486 1128.96C548.623 1157.66 537.428 1200.16 529.366 1231.35C518.845 1271.9 501.268 1313.47 500.363 1355.93C499.465 1397.24 525.727 1414.57 554.471 1438.84L732.704 1589.34" stroke="url(#paint3_radial_496_2508)" stroke-width="1.3" stroke-miterlimit="10"/>
<path d="M-526.549 497.945C-461.565 554.367 -387.259 598.111 -320.271 652.154C-268.054 694.306 -222.06 741.09 -175.239 788.96C-130.829 834.406 -81.1375 874.039 -32.5903 915.03C15.9569 956.022 60.3018 999.476 110.431 1035.6C149.707 1063.92 202.936 1064.86 249.568 1066.04C307.039 1067.46 364.745 1064.24 422.09 1067.88C458.729 1070.12 514.489 1072.43 538.955 1105.69C560.337 1134.79 549.379 1178.85 541.675 1210.53C531.582 1252.41 514.416 1295.1 513.921 1338.69C513.38 1380.49 539.13 1397.97 568.326 1422.62L746.559 1573.12" stroke="url(#paint4_radial_496_2508)" stroke-width="1.3" stroke-miterlimit="10"/>
<path d="M-512.718 481.515C-445.332 538.996 -366.712 580.374 -296.977 634.604C-244.562 675.372 -202.287 722.893 -158.184 772.151C-116.057 819.159 -66.8533 857.992 -18.7588 898.601C29.3358 939.211 74.038 983.16 124.149 1019.07C163.181 1046.99 216.208 1046.79 262.43 1046.86C319.586 1047.04 376.655 1042.5 433.78 1044.79C470.461 1046.3 525.507 1047.61 550.068 1080.76C572.016 1110.34 561.105 1156.18 553.776 1188.57C544.111 1231.78 527.504 1276.11 527.307 1320.72C527.141 1363.23 552.36 1380.64 582.235 1405.87L760.468 1556.37" stroke="url(#paint5_radial_496_2508)" stroke-width="1.3" stroke-miterlimit="10"/>
<path d="M-498.883 465.087C-428.697 523.38 -345.744 562.602 -272.731 617.079C-220.006 656.558 -181.772 704.738 -140.708 755.308C-101.282 803.912 -52.5659 841.945 -5.03715 882.077C42.4916 922.209 87.6819 966.957 137.871 1002.55C176.659 1030.07 229.561 1028.41 275.277 1027.46C331.891 1026.22 388.515 1020.14 445.229 1021.31C481.839 1021.98 536.057 1022.21 560.827 1055.33C583.341 1085.39 572.494 1133.23 565.653 1166.42C556.434 1211.17 540.369 1256.92 540.618 1303.07C540.827 1346.29 565.552 1364.06 595.879 1389.67L774.112 1540.16" stroke="url(#paint6_radial_496_2508)" stroke-width="1.3" stroke-miterlimit="10"/>
<path d="M-485.052 448.659C-411.744 507.844 -324.267 544.682 -247.864 599.501C-194.507 637.77 -160.878 686.132 -123.027 738.447C-86.605 788.78 -38.3953 825.804 8.79394 865.649C55.9832 905.494 101.435 950.852 151.797 986.009C190.437 1013.01 243.102 1009.79 288.103 1007.86C344.289 1005.29 400.257 997.685 456.526 997.315C493.16 997.037 546.646 996.062 571.398 1028.98C594.478 1059.52 583.713 1109.55 577.36 1143.54C568.701 1189.93 553.195 1237.32 553.985 1284.9C554.682 1328.91 578.799 1346.95 609.806 1373.13L788.039 1523.62" stroke="url(#paint7_radial_496_2508)" stroke-width="1.3" stroke-miterlimit="10"/>
<path d="M-471.217 432.23C-394.675 492.402 -302.464 526.839 -222.594 581.679C-168.265 619.023 -139.486 667.167 -105.039 721.454C-71.9248 773.647 -24.1079 809.757 22.5155 849.125C69.1389 888.492 114.966 934.554 165.519 969.485C203.801 995.994 256.55 991.295 300.706 988.064C356.446 983.952 411.76 974.828 467.695 973.014C504.145 971.805 556.786 969.535 581.747 1002.44C605.392 1033.45 594.84 1085.99 588.863 1120.69C580.649 1168.61 565.815 1217.73 567.052 1266.85C568.333 1311.55 591.746 1329.96 623.432 1356.72L801.665 1507.21" stroke="url(#paint8_radial_496_2508)" stroke-width="1.3" stroke-miterlimit="10"/>
<path d="M-457.386 415.801C-377.418 476.734 -280.875 509.014 -197.31 564.065C-141.782 600.677 -117.985 648.297 -87.0367 704.671C-57.4394 758.74 -9.82445 793.711 36.4595 832.792C82.7434 871.872 128.832 918.543 179.35 953.056C217.483 979.052 269.995 972.796 313.418 968.365C368.712 962.713 423.371 952.067 478.861 948.713C515.335 946.556 567.035 943.103 592.187 975.778C616.415 1007.48 606.041 1062.11 600.552 1097.6C592.898 1147.16 578.528 1198.03 580.306 1248.58C581.961 1293.98 604.993 1312.85 637.358 1340.17L815.591 1490.67" stroke="url(#paint9_radial_496_2508)" stroke-width="1.3" stroke-miterlimit="10"/>
<path d="M-443.556 399.373C-360.37 461.083 -259.493 491.206 -172.443 546.487C-115.378 582.652 -96.4844 629.428 -69.3563 687.809C-43.3888 743.66 4.34587 777.569 50.2903 816.363C96.2347 855.157 142.586 902.436 193.18 936.628C231.07 962.223 283.439 954.296 326.244 948.761C380.996 941.683 435.209 929.497 490.27 924.812C525.822 921.681 578.44 916.678 602.888 949.728C627.337 982.779 617.642 1037.98 612.39 1075.03C605.295 1126.23 591.371 1178.64 593.69 1230.61C595.721 1276.72 618.372 1296.04 651.189 1323.75L829.422 1474.24" stroke="url(#paint10_radial_496_2508)" stroke-width="1.3" stroke-miterlimit="10"/>
<path d="M-429.721 382.946C-343.509 445.661 -238.621 473.549 -148.311 528.869C-89.6904 564.796 -75.188 610.578 -51.8805 670.967C-29.656 728.504 18.5201 761.428 64.1251 799.936C109.73 838.444 156.343 886.332 207.015 920.201C244.756 945.283 297.019 936.103 339.204 929.463C393.528 921.054 447.2 907.442 501.815 901.217C537.087 897.269 589.39 891.031 613.838 924.081C638.662 957.835 629.317 1014.69 624.458 1052.66C617.809 1105.39 604.427 1159.23 607.288 1212.62C609.789 1259.32 631.849 1279.11 665.232 1307.3L843.465 1457.8" stroke="url(#paint11_radial_496_2508)" stroke-width="1.3" stroke-miterlimit="10"/>
<path d="M-415.89 366.516C-326.972 430.157 -218.282 455.829 -125.112 511.431C-64.9183 547.33 -54.5029 591.987 -34.8253 654.158C-16.1708 712.945 32.691 745.285 77.8433 783.41C122.996 821.536 169.87 870.033 220.716 903.466C258.325 928.244 310.369 917.715 351.953 910.18C405.848 900.44 458.883 885.515 513.296 878.15C548.497 873.367 600.181 866.024 624.647 899.283C649.941 933.629 640.626 992.061 636.255 1030.82C630.034 1084.89 617.193 1140.15 620.387 1194.99C623.15 1242.3 644.906 1262.22 678.855 1290.89L857.088 1441.38" stroke="url(#paint12_radial_496_2508)" stroke-width="1.3" stroke-miterlimit="10"/>
<path d="M-402.056 350.086C-310.965 414.595 -198.984 438.199 -103.258 494.214C-41.6998 530.102 -34.6149 573.886 -18.3763 637.611C-2.98771 697.517 46.7682 729.256 91.6941 767.19C136.62 805.124 183.739 854.021 234.566 887.246C272.159 911.815 323.904 900.26 365.209 891.907C418.807 881.14 471.318 864.997 525.529 856.493C560.564 850.987 611.872 842.94 636.434 876.086C662.085 910.927 652.99 970.708 648.881 1010.08C642.975 1065.38 630.658 1121.86 634.149 1177.73C637.156 1225.44 658.626 1245.7 692.801 1274.55L871.034 1425.05" stroke="url(#paint13_radial_496_2508)" stroke-width="1.3" stroke-miterlimit="10"/>
<path d="M-388.222 333.661C-295.564 399.298 -180.614 420.756 -83.1842 477.047C-20.3395 513.246 -15.9593 556.103 -2.68272 620.817C9.82148 681.389 60.9242 712.908 105.511 750.555C150.097 788.203 197.555 837.386 248.383 870.611C285.975 895.18 337.537 882.694 378.466 873.637C431.767 861.844 483.885 844.788 537.704 835.37C572.685 829.238 623.636 820.695 648.198 853.841C674.075 888.873 665.086 949.907 661.221 989.679C655.709 1045.89 643.802 1103.49 647.477 1160.3C650.711 1208.19 671.877 1228.59 706.392 1257.73L884.624 1408.22" stroke="url(#paint14_radial_496_2508)" stroke-width="1.3" stroke-miterlimit="10"/>
<path d="M-374.385 317.23C-281.09 384.181 -163.701 403.432 -65.0799 460.148C-34.9322 477.462 -10.3691 497.039 0.922033 530.999C8.8223 554.729 8.22471 579.813 12.3109 604.393C22.5387 665.369 75.2322 697.068 119.366 734.333C165.876 773.605 211.506 821.051 262.256 854.598C299.979 879.472 351.183 866.49 392.06 856.806C445.099 844.404 496.92 826.322 550.589 816.391C585.535 809.841 636.147 801.012 660.935 834.348C687.039 869.572 678.007 931.345 674.273 971.422C669.04 1028.45 657.3 1086.78 661.35 1144.28C664.697 1192.28 685.75 1212.57 720.265 1241.72L898.497 1392.21" stroke="url(#paint15_radial_496_2508)" stroke-width="1.3" stroke-miterlimit="10"/>
<path d="M-360.553 300.803C-267.569 369.042 -148.255 386.237 -49.2758 443.448C-19.4499 460.685 5.8698 480.513 16.5175 514.317C24.1138 538.178 22.6819 563.333 26.2379 587.853C35.1011 648.84 89.3855 680.719 133.293 717.793C179.916 757.161 225.511 804.189 276.183 838.058C314.037 863.236 364.824 850.29 405.986 840.266C458.877 827.351 510.549 808.755 564.088 798.52C599.016 791.761 649.628 782.932 674.434 816.478C700.537 851.701 691.542 913.892 688.016 953.951C682.932 1011.5 671.435 1070.22 675.634 1128.24C678.981 1176.23 699.903 1196.22 734.418 1225.37L912.651 1375.86" stroke="url(#paint16_radial_496_2508)" stroke-width="1.3" stroke-miterlimit="10"/>
<path d="M-346.725 284.375C-253.448 351.117 -136.25 370.595 -37.4202 427.293C-7.27256 444.607 17.6721 463.731 28.6416 497.613C36.4998 522.082 35.6515 547.924 39.5824 573.149C49.1667 633.969 101.949 666.712 146.655 703.298C193.607 741.586 239.869 787.821 290.089 821.308C327.395 846.217 379.225 833.182 419.91 823.724C472.645 811.454 524.18 793.711 577.546 783.911C612.3 777.588 663.425 768.61 687.891 801.869C713.673 837.014 704.964 898.866 701.534 938.811C696.605 995.713 685.264 1053.79 689.505 1111.07C693.06 1159.05 713.6 1179.49 748.228 1208.73L926.461 1359.22" stroke="url(#paint17_radial_496_2508)" stroke-width="1.3" stroke-miterlimit="10"/>
<path d="M-332.888 267.945C-240.343 333.487 -125.488 355.058 -28.0582 411.349C2.5421 429.045 26.921 447.692 38.3608 482.164C46.8203 507.53 46.7043 534.571 51.2366 560.691C62.0124 621.936 112.745 655.275 159.275 691.074C207.049 727.924 253.933 771.582 303.813 804.782C340.892 829.5 392.776 817.092 433.324 808.488C485.826 797.184 537.354 780.598 590.469 771.556C625.164 765.764 676.437 757.299 700.677 790.367C726.233 825.321 718.042 885.866 714.595 925.603C709.785 981.443 698.886 1038.54 703.151 1094.87C706.689 1142.63 727.455 1163.27 761.857 1192.32L940.09 1342.81" stroke="url(#paint18_radial_496_2508)" stroke-width="1.3" stroke-miterlimit="10"/>
<path d="M-319.055 251.519C-228.076 315.932 -116.19 339.649 -20.5775 395.569C45.7397 434.313 48.1276 480.915 61.8726 549.901C74.1972 612.067 122.748 645.696 171.728 680.655C196.209 698.031 221.34 714.405 245.821 731.78C270.528 749.347 292.801 771.643 317.854 788.339C354.708 812.866 406.298 801.955 447.012 794.073C499.3 783.944 550.63 768.742 603.339 761.102C637.992 756.05 689.241 748.534 713.255 781.41C738.453 815.869 730.973 874.882 727.793 914.069C723.295 968.62 712.592 1024.33 717.055 1079.28C720.861 1126.49 741.836 1147.11 776.012 1175.97L954.244 1326.46" stroke="url(#paint19_radial_496_2508)" stroke-width="1.3" stroke-miterlimit="10"/>
<path d="M-305.223 235.091C-216.419 298.637 -108.032 324.44 -14.8624 380.041C16.7919 399.015 39.9549 418.186 52.6218 453.501C62.7899 481.666 64.722 511.793 71.0761 540.809C85.1758 604.085 131.26 638.345 183.47 671.768C208.243 687.646 233.953 702.182 258.822 717.946C284.484 734.38 306.424 755.232 331.477 771.928C368.217 796.359 419.02 787.303 460.032 780.448C511.931 771.93 563.195 758.417 615.594 752.065C650.431 747.944 701.065 741.847 725.043 774.307C749.867 808.061 743.156 865.009 740.132 903.553C736.021 956.493 725.707 1010.59 730.35 1063.95C734.519 1110.5 755.894 1130.88 789.504 1159.25L967.736 1309.75" stroke="url(#paint20_radial_496_2508)" stroke-width="1.3" stroke-miterlimit="10"/>
<path d="M-291.386 218.661C-205.287 281.281 -100.608 309.187 -10.3932 364.62C57.5374 406.276 62.0958 461.109 79.7482 532.813C95.6407 597.409 139.18 632.622 195.228 664.245C220.485 678.399 246.643 690.794 272.014 705.043C298.593 719.926 320.279 739.012 345.445 755.803C382.185 780.235 431.801 773.278 473.354 767.849C524.978 761.037 575.968 749.231 627.882 744.603C662.808 741.526 712.864 737.267 736.806 769.308C761.446 802.132 755.487 856.807 752.618 894.706C748.765 945.732 738.934 998.107 743.834 1049.54C748.254 1095.34 770.332 1115.34 803.376 1143.24L981.609 1293.74" stroke="url(#paint21_radial_496_2508)" stroke-width="1.3" stroke-miterlimit="10"/>
<path d="M-277.556 202.235C-194.466 264.058 -93.9112 294.104 -7.06916 349.403C61.5515 392.999 67.6745 452.642 87.5547 525.839C105.335 591.642 146.287 628.547 206.52 657.501C260.403 683.419 309.395 706.176 359.162 739.281C396.015 763.808 444.158 759.291 486.348 755.175C537.602 750.183 588.333 740.291 639.782 737.596C675.023 735.755 724.196 733.464 748.311 765.07C772.558 796.98 767.524 848.948 765.002 885.976C761.614 935.068 752.136 985.415 757.389 1034.82C762.137 1079.54 784.824 1099.28 817.188 1126.61L995.421 1277.1" stroke="url(#paint22_radial_496_2508)" stroke-width="1.3" stroke-miterlimit="10"/>
<path d="M-263.722 185.803C-183.962 246.753 -87.6269 279.051 -4.2706 334.12C65.1712 379.961 73.0672 444.396 94.9843 519.314C114.671 586.532 153.089 625.757 217.662 651.396C273.215 673.49 322.812 689.78 373.014 723.058C410.094 747.776 456.442 745.621 499.4 743.122C550.187 740.063 600.793 732.391 651.758 731.42C687.845 730.874 734.805 730.98 759.702 761.889C783.902 792.015 779.578 842.45 777.253 878.094C774.218 925.157 765.301 973.458 770.889 1020.63C776.061 1064.16 799.564 1083.61 831.136 1110.27L1009.37 1260.77" stroke="url(#paint23_radial_496_2508)" stroke-width="1.3" stroke-miterlimit="10"/>
<path d="M-249.887 169.374C-173.458 229.451 -81.5512 264.018 -1.77607 318.972C68.5045 367.265 78.3822 436.476 102.336 513.113C123.703 581.556 159.962 623.804 228.935 645.598C285.819 663.582 336.325 673.273 386.867 706.838C462.67 757.081 578.311 723.68 663.657 725.569C699.754 726.389 746.154 728.542 771.015 759.033C794.822 788.246 791.596 835.536 789.521 870.423C786.822 915.249 778.371 961.617 784.293 1006.55C789.889 1048.88 814.303 1067.95 844.971 1093.84L1023.2 1244.34" stroke="url(#paint24_radial_496_2508)" stroke-width="1.3" stroke-miterlimit="10"/>
<path d="M-236.058 152.948C-162.959 212.151 -75.5765 249.102 0.599745 303.73C71.5284 354.703 83.5607 428.253 109.474 506.933C132.294 576.409 166.883 622.48 239.993 639.82C298 653.712 349.529 656.9 400.6 690.525C477.387 741.21 588.537 714.292 675.436 719.625C711.545 721.812 757.27 725.915 782.226 756.292C805.545 784.705 803.495 828.53 801.689 862.868C799.437 905.552 791.435 949.779 797.692 992.476C803.712 1033.62 828.942 1052.4 858.705 1077.53L1036.94 1228.02" stroke="url(#paint25_radial_496_2508)" stroke-width="1.3" stroke-miterlimit="10"/>
<path d="M-222.223 136.521C-152.246 194.833 -69.3874 234.167 3.30318 288.567C74.993 342.315 89.1446 419.786 117.017 500.508C141.273 570.809 174.435 621.103 251.248 633.816C310.055 643.537 362.833 640.414 414.453 674.307C492.092 725.13 599.169 704.659 687.299 713.358C723.419 716.911 768.565 722.852 793.504 753.02C816.317 780.425 815.383 821.315 813.827 854.895C811.928 895.551 804.487 937.731 811.079 978.191C817.618 1018.02 843.57 1036.64 872.54 1061.1L1050.77 1211.6" stroke="url(#paint26_radial_496_2508)" stroke-width="1.3" stroke-miterlimit="10"/>
<path d="M-208.389 120.09C-141.117 177.475 -62.8 218.984 6.7266 273.232C79.1776 329.755 95.1865 410.539 124.81 493.321C150.179 564.368 182.368 619.269 262.527 626.858C321.735 632.654 375.798 623.636 428.174 657.781C506.569 708.855 610.032 694.056 699.203 706.348C735.334 711.267 779.788 718.949 804.9 748.682C827.225 775.287 827.407 813.242 826.102 846.064C824.668 884.788 817.58 924.939 824.429 963.484C831.392 1002.12 858.065 1020.58 886.356 1044.46L1064.59 1194.96" stroke="url(#paint27_radial_496_2508)" stroke-width="1.3" stroke-miterlimit="10"/>
<path d="M-194.555 103.664C-129.683 159.991 -55.5689 203.961 11.193 257.813C84.2744 316.807 102.01 400.6 133.384 485.442C159.736 556.931 191.255 616.306 274.187 619.452C333.719 621.644 389.006 607.263 441.93 641.677C520.873 693.02 621.617 683.291 711.376 698.793C747.405 704.983 791.34 713.972 816.547 743.592C838.479 769.283 839.413 804.965 838.472 837.126C837.409 874.03 830.804 912.457 837.911 949.087C845.201 986.647 872.613 1005.14 900.112 1028.36L1078.34 1178.85" stroke="url(#paint28_radial_496_2508)" stroke-width="1.3" stroke-miterlimit="10"/>
<path d="M-180.726 87.2336C-117.612 142.658 -47.4134 188.75 17.1142 242.266C90.8081 303.522 110.103 389.601 142.889 476.215C169.998 547.956 201.151 611.675 286.135 610.544C345.722 609.681 402.174 590.468 455.872 625.342C535.232 676.649 633.959 671.614 723.95 689.832C759.972 697.18 803.465 707.152 828.768 736.659C850.325 761.646 852.028 795.264 851.356 826.876C850.568 862.073 844.16 899.117 851.75 934.022C859.709 970.789 887.103 989.074 914.263 1012.01L1092.5 1162.5" stroke="url(#paint29_radial_496_2508)" stroke-width="1.3" stroke-miterlimit="10"/>
<path d="M-166.89 70.8072C-105.021 125.181 -38.3214 173.358 24.5975 226.485C99.0592 289.358 119.462 377.342 153.414 465.33C181.036 536.922 212.109 604.644 298.573 599.917C358.382 596.721 415.33 573.468 469.786 608.593C549.033 659.805 646.828 658.636 736.692 679.073C772.577 687.274 815.932 698.1 841.199 727.189C862.286 751.585 864.717 783.879 864.2 814.846C863.592 848.451 857.226 884.754 865.3 917.936C874.057 954.214 900.808 972.343 927.854 995.18L1106.09 1145.68" stroke="url(#paint30_radial_496_2508)" stroke-width="1.3" stroke-miterlimit="10"/>
<path d="M-153.054 54.3764C-91.5949 107.628 -27.7686 157.838 34.072 210.636C109.153 274.614 130.383 363.684 165.163 452.758C192.958 523.915 224.107 594.996 311.191 587.692C371.467 582.563 428.166 556.386 483.527 592.276C562.452 643.41 660.269 644.974 749.632 666.926C785.249 675.675 828.735 686.806 854.002 715.895C874.845 739.891 877.527 771.427 877.391 801.941C877.129 834.675 871.074 869.69 879.077 902.036C888.12 937.975 914.68 956.33 941.726 979.167L1119.96 1129.66" stroke="url(#paint31_radial_496_2508)" stroke-width="1.3" stroke-miterlimit="10"/>
<path d="M-139.225 37.9485C-77.438 90.1201 -15.7638 142.196 46.0235 194.368C121.843 258.388 143.257 348.389 178.604 437.941C206.327 508.262 237.689 581.85 324.65 573.083C385.67 566.839 441.167 538.872 497.433 575.526C575.715 626.504 674.509 629.668 763.186 652.204C798.611 661.181 842.497 672.067 867.556 701.173C888.285 725.074 890.741 756.419 891.005 786.689C891.237 819.065 885.093 853.035 893.156 884.85C902.217 920.998 928.586 939.58 955.633 962.417L1133.87 1112.91" stroke="url(#paint32_radial_496_2508)" stroke-width="1.3" stroke-miterlimit="10"/>
<path d="M-123.668 22.0056C-60.3543 72.3644 -2.68695 129.199 59.3688 180.822C134.177 242.824 156.938 332.606 192.827 419.903C221.707 490.231 252.17 561.897 339.046 554.61C399.018 549.612 453.589 524.353 508.992 559.502C588.585 609.843 685.222 612.349 774.698 634.397C810.106 643.164 853.897 654.163 878.651 683.401C898.85 707.241 902.098 739.256 902.761 769.281C903.542 801.926 898.929 836.608 907.331 868.709C916.696 904.726 941.987 922.979 969.26 946.007L1147.49 1096.5" stroke="url(#paint33_radial_496_2508)" stroke-width="1.3" stroke-miterlimit="10"/>
<path d="M-105.298 7.08566C-40.9945 56.7292 11.1462 118.978 73.0466 171.245C145.132 232.111 170.648 317.241 207.541 401.507C237.738 470.04 268.144 538.556 352.861 534.292C411.324 531.316 463.426 510.369 517.018 543.99C596.898 593.991 692.731 594.461 782.536 615.429C818.212 623.648 861.454 634.378 886.435 663.807C906.747 687.743 910.805 720.635 912.624 750.667C914.519 784.059 911.758 819.53 921.048 852.187C931.248 888.133 955.8 906.343 983.185 929.467L1161.42 1079.96" stroke="url(#paint34_radial_496_2508)" stroke-width="1.3" stroke-miterlimit="10"/>
<path d="M-84.4265 -6.89224C-19.1048 43.6112 26.7815 112.597 88.7109 166.44C154.619 223.835 183.257 299.969 220.319 377.595C251.65 443.402 283.141 511.089 364.531 512.157C420.262 512.884 471.761 494.723 522.189 528.193C597.445 578.166 692.457 576.393 778.682 593.563C816.087 601.109 860.457 610.271 887.905 639.069C910.058 662.427 916.368 695.864 919.945 726.799C923.972 761.797 923.577 797.908 933.008 832.236C943.148 868.712 967.163 888.021 995.228 911.718L1175.27 1063.74" stroke="url(#paint35_radial_496_2508)" stroke-width="1.3" stroke-miterlimit="10"/>
<path d="M-61.3057 -20.3231C4.23576 31.529 42.3367 106.542 103.002 162.806C163.988 219.148 196.695 286.31 235.852 358.919C268.764 419.859 301.914 482.356 377.533 488.438C431.689 492.875 475.39 483.056 524.7 513.255C602.263 560.718 693.266 557.498 780.696 572.778C818.333 579.357 862.119 587.832 889.758 616.404C912.686 640.222 920.336 674.597 925.748 706.111C931.871 742.299 933.782 779.581 945.066 814.698C956.684 851.259 980.526 871.003 1009.04 895.082L1189.09 1047.11" stroke="url(#paint36_radial_496_2508)" stroke-width="1.3" stroke-miterlimit="10"/>
<path d="M-36.5621 -33.1599C27.2687 19.5741 56.6567 97.1165 112.547 156.521C139.786 185.337 167.243 209.296 190.232 242.471C212.994 275.454 232.865 310.261 254.334 344.091C289.531 399.787 325.177 453.342 394.477 464.169C443.328 471.687 481.917 470.928 525.043 498.813C600.74 547.802 697.407 538.315 783.426 551.821C818.55 557.247 858.952 564.222 886.193 589.357C911.493 612.658 921.753 648.073 929.434 680.341C938.316 718.081 942.906 757.239 955.698 794.016C968.602 830.888 992.318 852.852 1021.29 877.313L1203.14 1030.87" stroke="url(#paint37_radial_496_2508)" stroke-width="1.3" stroke-miterlimit="10"/>
<path d="M-10.6199 -45.5679C53.8347 10.7944 73.9174 95.0187 128.876 158.289C153.673 186.787 183.024 210.795 206.98 240.522C229.882 268.971 251.013 298.832 273.342 327.961C309.611 375.256 346.25 420.733 405.202 438.33C448.735 451.245 485.468 457.06 524.089 483.855C597.008 534.764 700.704 518.999 784.919 529.819C820.597 534.356 859.2 541.169 886.269 566.739C912.771 591.831 924.138 629.149 934.065 663.12C944.508 699.465 951.799 737.026 965.414 772.365C980.242 810.862 1002.61 833.045 1033.5 859.131L1217.17 1014.21" stroke="url(#paint38_radial_496_2508)" stroke-width="1.3" stroke-miterlimit="10"/>
<path d="M16.1879 -57.6335C80.4318 2.42801 90.9896 91.9856 143.688 159.551C165.85 187.957 196.138 210.624 221.425 236.24C244.526 259.623 266.751 283.817 289.566 307.54C327.942 347.504 366.371 388.094 417.061 412.285C454.389 430.04 487.081 446.401 521.82 469.531C595.639 518.68 697.973 499.244 782.165 507.331C817.963 510.806 856.155 516.497 883.51 541.727C911.317 567.339 924.93 606.36 936.918 641.102C949.893 678.81 959.924 717.715 975.749 754.339C992.472 792.884 1015.57 816.268 1047.15 842.927L1230.81 998.008" stroke="url(#paint39_radial_496_2508)" stroke-width="1.3" stroke-miterlimit="10"/>
<path d="M43.3196 -69.6134C108.068 -4.86168 108.146 91.1621 159.87 163.333C195.03 212.406 255.927 247.93 303.076 284.833C375.11 341.392 444.734 401.732 519.231 455.136C586.574 503.469 692.186 480.599 769.695 484.206C808.611 486.049 852.823 489.649 882.243 518.174C911.098 546.222 926.991 587.363 941.338 623.902C971.804 701.773 993.534 769.554 1058.94 824.784L1244.42 981.394" stroke="url(#paint40_radial_496_2508)" stroke-width="1.3" stroke-miterlimit="10"/>
<path d="M70.661 -81.6214C135.627 -11.8394 125 90.4596 176.185 167.409C207.491 214.391 268.609 237.695 316.485 263.387C364.361 289.08 406.293 320.222 442.143 361.348C465.432 388.186 487.349 419.874 516.339 440.862C583.473 489.213 692.76 460.14 769.37 461.825C805.259 462.663 846.26 464.328 875.021 488.807C906.725 515.771 925.412 558.883 942.028 596.176C962.013 640.965 978.899 687.597 1003.33 730.325C1022.96 764.732 1048.54 787.693 1078.42 812.919L1258.46 964.943" stroke="url(#paint41_radial_496_2508)" stroke-width="1.3" stroke-miterlimit="10"/>
<path d="M97.467 -93.6808C162.877 -18.6776 140.997 89.6276 192.138 170.999C222.995 220.122 284.896 229.16 335.727 245.135C385.593 260.876 427.378 287.823 452.886 334.562C471.024 367.518 483.411 402.016 514.545 425.977C543.772 448.524 583.927 448.893 619.162 448.209C669.388 447.196 719.273 439.691 769.553 439.304C806.813 438.974 845.025 441.192 874.369 466.358C904.846 492.479 924.154 533.014 941.862 568.32C984.51 653.57 1016.11 732.397 1090.23 794.983L1272.08 948.536" stroke="url(#paint42_radial_496_2508)" stroke-width="1.3" stroke-miterlimit="10"/>
<path d="M123.41 -106.092C188.758 -26.8764 157.247 85.509 206.562 171.348C237.149 224.702 299.11 219.64 351.913 225.455C404.508 231.287 447.873 257.048 464.917 309.24C477.266 347.002 479.82 384.439 513.627 411.434C542.02 434.051 583.511 432.835 617.918 431.064C668.115 428.476 717.745 419.204 767.995 417.242C805.471 415.736 843.177 416.946 872.808 441.771C904.494 468.526 925.803 510.363 945.346 546.25C992.063 632.415 1028.33 714.211 1104.37 778.422L1286.22 931.975" stroke="url(#paint43_radial_496_2508)" stroke-width="1.3" stroke-miterlimit="10"/>
<path d="M148.155 -118.925C214.329 -34.9408 171.815 82.6933 222.207 172.543C254.287 229.872 318.784 208.922 371.144 205.834C423.922 202.71 467.394 229.724 476.923 283.713C484.01 323.815 476.555 368.31 513.364 397.258C544.777 422.038 595.238 416.377 631.797 412.74C674.178 408.398 716.126 400.2 758.673 396.58C798.813 393.059 843.51 391.255 875.183 420.324C908.118 450.654 930.94 492.993 952.895 531.304C1001.23 615.544 1040.96 697.36 1115.99 760.711L1299.77 915.888" stroke="url(#paint44_radial_496_2508)" stroke-width="1.3" stroke-miterlimit="10"/>
<path d="M171.067 -132.339C238.133 -45.2755 186.673 75.8545 236.193 169.039C269.326 231.327 335.701 196.649 386.683 186C440.872 174.763 485.72 203.132 489.621 260.124C492.453 302.061 476.523 350.643 515.761 382.224C546.87 407.134 598.042 399.94 633.999 395.408C676.386 389.908 718.132 380.571 760.686 375.793C800.85 371.324 845.25 368.493 877.131 397.545C911.067 428.525 935.325 471.689 958.907 510.598C1010.14 595.538 1053.31 679.481 1129.92 744.17L1313.7 899.346" stroke="url(#paint45_radial_496_2508)" stroke-width="1.3" stroke-miterlimit="10"/>
<path d="M192.033 -146.431C258.437 -59.732 204.767 60.1134 247.19 155.059C279.863 228.009 345.062 186.91 398.593 167.945C452.846 148.814 503.427 175.433 502.738 236.497C502.16 281.564 479.626 331.549 521.539 366.164C549.908 389.729 594.398 384.261 628.365 379.793C679.477 373.13 729.436 359.097 780.69 354.105C813.816 350.865 850.076 349.884 877.277 372.076C916.795 404.475 943.952 454.545 970.487 497.305C1024.14 583.511 1071.1 666.395 1149.41 732.517L1327.53 882.916" stroke="url(#paint46_radial_496_2508)" stroke-width="1.3" stroke-miterlimit="10"/>
<path d="M210.405 -161.35C278.966 -73.9936 218.227 49.188 260.851 145.273C294.923 222.312 361.175 172.603 413.404 149.437C467.248 125.502 520.587 153.675 516.555 216.18C513.64 262.182 485.54 314.639 529.68 350.747C558.466 374.278 602.2 368.558 636.436 363.541C687.476 356.043 737.251 341.079 788.529 335.138C821.715 331.368 857.748 330.195 884.968 352.596C924.843 385.491 952.756 435.812 980.256 478.805C1035.48 564.982 1084.37 649.49 1163.24 716.09L1341.36 866.49" stroke="url(#paint47_radial_496_2508)" stroke-width="1.3" stroke-miterlimit="10"/>
<path d="M225.862 -177.18C297.594 -90.829 230.412 35.6357 274.21 131.936C310.521 211.835 375.452 157.716 427.641 131.608C480.533 105.125 536.892 135.46 531.078 198.011C526.679 245.086 495.051 298.054 541.461 334.915C570.986 358.488 613.486 353.084 648.425 347.692C699.525 339.662 749.021 323.88 800.377 317.617C833.64 313.525 869.578 312.465 896.719 335.189C936.327 368.632 964.431 418.727 992.348 461.684C1048.39 547.582 1098.11 633.177 1177.09 699.872L1355.21 850.271" stroke="url(#paint48_radial_496_2508)" stroke-width="1.3" stroke-miterlimit="10"/>
<path d="M238.071 -194.209C307.449 -107.132 244.999 16.9312 287.945 113.094C322.339 190.21 388.877 140.162 441.297 116.769C495.045 92.9476 548.879 120.763 544.543 183.399C541.515 229.305 512.884 281.703 557.424 317.566C586.287 340.774 630.248 335.246 664.179 330.36C714.499 323.028 763.571 308.44 814.145 302.874C847.236 299.217 883.591 298.122 910.887 320.202C950.841 352.774 978.581 403.53 1006.06 446.314C1060.84 532.11 1109.55 617.053 1187.97 683.271C1247.84 733.818 1309.99 781.646 1368.9 833.326" stroke="url(#paint49_radial_496_2508)" stroke-width="1.3" stroke-miterlimit="10"/>
<path d="M247.363 -212.142C315.227 -125.567 257.946 -3.73138 300.707 91.5005C333.756 165.155 400.707 122.435 454.543 103.339C508.587 84.2251 560.539 109.676 559.087 171.646C558.074 216.54 534.444 265.987 576.965 300.339C605.167 323.183 649.198 318.49 682.879 314.362C732.149 308.276 780.416 295.334 829.923 290.806C862.65 287.811 899.171 287.438 926.206 308.909C965.767 340.568 992.768 391.282 1019.06 433.642C1071.68 518.779 1118.02 603.082 1196 667.76C1257.47 718.696 1323.39 763.89 1383.05 816.979" stroke="url(#paint50_radial_496_2508)" stroke-width="1.3" stroke-miterlimit="10"/>
<path d="M254.064 -230.91C322.964 -143.267 265.443 -19.3072 315.677 74.8681C349.542 138.356 419.363 100.966 471.048 89.9415C524.898 78.4175 572.219 104.999 574.75 163.159C576.521 204.976 559.197 251.993 598.853 283.539C628.717 307.399 679.292 301.833 713.938 297.938C753.589 293.618 792.808 285.442 832.608 281.635C871.687 277.994 915.473 276.583 946.526 304.548C980.2 334.92 1004.14 378.006 1027.15 416.437C1076.99 499.812 1118.9 585.019 1195.22 647.524C1260.49 701.083 1333.68 744.08 1396.77 800.453" stroke="url(#paint51_radial_496_2508)" stroke-width="1.3" stroke-miterlimit="10"/>
<path d="M258.817 -250.355C327.218 -164.878 276.098 -43.4611 327.084 48.4414C360.099 108.11 430.228 82.9996 483.752 78.7608C536.328 74.4975 583.281 99.2168 591.17 154.923C596.875 194.827 587.294 236.558 624.234 265.81C680.889 310.74 786.758 276.068 851.382 272.673C889.96 270.547 932.654 271.121 962.933 298.627C995.476 328.043 1017.64 370.018 1038.8 407.661C1084.84 489.571 1122.45 573.671 1197.86 632.887C1266.43 686.902 1345 726.496 1410.73 784.327" stroke="url(#paint52_radial_496_2508)" stroke-width="1.3" stroke-miterlimit="10"/>
<path d="M261.736 -270.376C329.401 -188.623 287.173 -71.3287 336.451 17.7741C368.114 75.1385 437.592 64.5986 492.399 68.0341C545.197 71.3249 593.069 94.4936 608.091 148.856C618.415 186.264 618.277 220.459 651.953 247.15C710.079 293.322 811.125 263.688 878.738 264.561C913.853 264.939 948.87 269.112 976.464 292.218C1007.45 318.19 1027.93 358.941 1046.36 394.081C1089.88 477.153 1122.67 562.61 1200.33 619.847C1272.51 673.238 1355.73 709.386 1424.36 767.917" stroke="url(#paint53_radial_496_2508)" stroke-width="1.3" stroke-miterlimit="10"/>
<path d="M263.464 -290.822C331.184 -212.123 296.174 -97.652 346.645 -11.8062C378.799 42.6766 449.569 44.8589 504.4 57.2327C555.901 68.7329 601.394 93.5764 625.411 142.546C641.297 174.957 650.505 205.413 680.542 228.837C738.484 274.078 830.689 252.874 898.621 257.507C932.853 259.853 966.665 265.916 993.199 288.902C1022.45 314.181 1040.86 352.794 1057.13 387.276C1095.78 468.764 1122.79 551.663 1199.62 605.289C1276.33 658.82 1365.46 691.626 1437.99 751.508" stroke="url(#paint54_radial_496_2508)" stroke-width="1.3" stroke-miterlimit="10"/>
<path d="M264.323 -311.615C331.688 -237.094 305.439 -127.049 355.322 -44.4142C387.595 9.00652 458.782 24.7218 512.864 45.5739C564.884 65.6548 608.594 94.2263 644.012 137.703C664.771 163.178 683.395 190.729 710.001 210.868C767.461 254.152 849.549 242.434 916.776 251.124C948.856 255.336 982.853 262.331 1008.03 284.17C1038.18 310.213 1055.26 350.412 1069.87 386.403C1102.62 466.394 1124.37 543.113 1200.3 592.294C1281.55 644.808 1375.56 674.568 1451.92 734.967" stroke="url(#paint55_radial_496_2508)" stroke-width="1.3" stroke-miterlimit="10"/>
<path d="M264.652 -332.468C331.774 -262.029 313.853 -156.584 363.547 -77.4042C398.423 -21.7857 473.16 6.03887 528.285 36.6892C604.7 79.3068 670.952 139.513 740.563 192.281C796.361 234.549 869.643 231.68 935.426 244.384C1018.09 260.489 1055.42 307.905 1081.54 385.201C1106.25 458.408 1121.67 529.776 1191.03 573.415C1278.93 628.833 1382.54 655.253 1465.85 718.426" stroke="url(#paint56_radial_496_2508)" stroke-width="1.3" stroke-miterlimit="10"/>
<path d="M265.185 -353.341C331.97 -286.87 322.166 -186.008 371.898 -110.092C410.526 -51.111 487.736 -11.5062 543.922 29.1513C587.803 60.9688 627.881 104.89 678.322 126.157C712.314 140.515 740.356 151.592 770.93 173.918C828.51 216.14 896.216 220.581 962.907 240.255C1034.97 261.365 1070.27 303.38 1089.99 374.698C1110.64 449.513 1118.81 518.447 1191.32 560.871C1283.95 615.046 1392.46 638.63 1479.81 702.3" stroke="url(#paint57_radial_496_2508)" stroke-width="1.3" stroke-miterlimit="10"/>
<path d="M266.042 -374.132C332.9 -310.507 330.261 -213.095 381.716 -140.375C403.806 -109.122 437.817 -84.6692 466.232 -59.3192C495.988 -33.0314 526.047 -6.87458 555.898 19.2999C597.553 55.8296 639.134 108.774 695.92 120.666C736.03 129.138 765.382 129.691 800.751 155.291C857.277 196.235 919.002 209.39 983.164 233.907C1049.6 259.177 1086.08 297.935 1100.05 368.27C1114.75 442.329 1116.81 506.104 1189.45 546.308C1287.22 600.362 1401.36 620.942 1493.62 685.666" stroke="url(#paint58_radial_496_2508)" stroke-width="1.3" stroke-miterlimit="10"/>
<path d="M267.769 -394.58C333.926 -334.261 338.779 -241.378 390.29 -171.713C413.441 -140.341 447.159 -114.39 474.518 -86.6364C504.629 -56.1715 534.358 -25.2535 564.278 5.43791C605.805 47.8686 649.787 111.758 714.336 114.89C758.519 116.916 790.438 109.362 829.184 137.619C883.5 177.279 940.728 198.073 1001.02 226.496C1060.88 254.745 1101.01 289.406 1109.93 357.225C1114.29 389.986 1112.45 423.906 1121.27 455.972C1131.79 494.52 1156.67 515.332 1191.38 533.205C1293.34 585.955 1411.69 604.074 1507.46 669.236" stroke="url(#paint59_radial_496_2508)" stroke-width="1.3" stroke-miterlimit="10"/>
<path d="M270.689 -414.602C338.27 -354.824 348.027 -261.097 405.374 -194.453C459.331 -131.833 518.75 -72.9389 572.934 -10.1281C613.243 36.5083 658.138 109.891 727.397 107.89C775.163 106.35 812.945 87.4629 856.79 118.863C882.516 137.289 905.351 157.54 933.348 173.038C961.346 188.537 990.625 201.822 1018.64 217.53C1076.01 249.882 1119.03 283.877 1121.36 353.308C1122.4 384.038 1117.63 415.683 1124.61 445.802C1133.48 484.701 1160.34 502.925 1194.97 519.753C1300.48 571.044 1422.74 587.042 1521.39 652.696" stroke="url(#paint60_radial_496_2508)" stroke-width="1.3" stroke-miterlimit="10"/>
<path d="M275.232 -434.029C342.271 -375.678 358.454 -285.442 416.474 -220.749C442.105 -192.322 470.199 -167.05 494.78 -137.377C525.93 -99.6374 555.291 -60.6943 585.451 -22.2399C625.037 28.2446 669.63 107.964 743.416 99.8977C792.852 94.5341 835.322 67.7805 881.961 101.151C907.347 119.291 929.603 141.379 956.265 158.464C982.944 175.757 1010.52 191.291 1037.11 208.698C1090.05 243.321 1136.22 276.101 1132.68 344.454C1131.27 373.499 1123.52 403.399 1128.41 432.539C1134.98 471.423 1163.47 489.088 1197.4 505.134C1306.38 556.445 1433.24 569.737 1534.93 636.605" stroke="url(#paint61_radial_496_2508)" stroke-width="1.3" stroke-miterlimit="10"/>
<path d="M282.029 -452.91C347.579 -396.01 369.681 -310.275 426.856 -246.877C455.387 -215.226 485.345 -187.799 511.664 -153.75C542.818 -113.487 571.82 -71.3582 601.984 -30.3798C640.705 22.2819 683.963 103.588 760.284 89.5205C810.652 80.2912 856.33 49.2676 904.345 83.994C956.493 121.629 1007.48 162.939 1059.19 201.559C1109.22 238.954 1153.6 269.256 1144.55 337.026C1140.87 364.161 1130.48 392.603 1134.83 420.316C1140.86 459.14 1172.43 475.912 1205.53 490.872C1316.51 540.961 1446.24 552.221 1549.05 619.835" stroke="url(#paint62_radial_496_2508)" stroke-width="1.3" stroke-miterlimit="10"/>
<path d="M291.322 -470.846C355.622 -413.84 382.611 -331.15 439.715 -268.587C468.681 -236.763 498.525 -209.431 524.403 -174.399C556.074 -131.76 584.854 -87.2984 615.232 -43.8138C653.148 10.4942 696.88 94.915 774.83 77.7642C826.176 66.4532 874.288 30.6997 923.887 66.7638C975.713 104.321 1024.79 149.055 1074.76 189.505C1122.36 227.948 1170.53 257.191 1157.25 324.481C1152.02 350.695 1139.62 377.835 1142.88 405.01C1147.41 443.541 1180.93 460.989 1213.15 475.393C1325.81 525.549 1459.01 534.305 1562.69 603.633" stroke="url(#paint63_radial_496_2508)" stroke-width="1.3" stroke-miterlimit="10"/>
<path d="M303.437 -487.754C365.913 -429.961 396.896 -349.715 453.47 -287.213C482.227 -255.37 512.131 -228.569 537.8 -193.519C569.9 -149.55 598.518 -103.286 628.925 -58.2265C665.684 -3.92532 710.751 82.5908 788.236 63.6914C840.727 51.0208 888.817 12.5345 940 49.9364C991.862 87.9116 1039.57 133.814 1088.79 175.379C1134.96 214.364 1187.43 242.19 1171.02 309.746C1164.88 335.196 1150.84 361.529 1153.66 388.531C1157.63 426.584 1192.42 445.292 1224.08 459.427C1337.08 509.87 1473.31 515.949 1576.53 587.209" stroke="url(#paint64_radial_496_2508)" stroke-width="1.3" stroke-miterlimit="10"/>
<path d="M317.27 -504.182C381.718 -446.663 410.638 -363.506 468.099 -300.448C496.839 -268.815 526.379 -241.352 552.126 -206.624C583.91 -163.89 613.03 -119.141 643.521 -75.5611C681.889 -20.871 724.794 62.4632 803.005 45.9212C854.596 35.0102 903.822 0.00350112 953.593 35.6322C1005.27 72.6764 1053.47 118.221 1102.59 158.533C1149.58 197.238 1200.43 225.833 1184.96 293.414C1178.98 319.377 1165.31 346.414 1168.26 373.72C1172.44 411.756 1207.13 430.577 1238.58 444.73C1351.27 495.095 1487.81 498.728 1590.15 570.799" stroke="url(#paint65_radial_496_2508)" stroke-width="1.3" stroke-miterlimit="10"/>
<path d="M331.105 -520.611C397.953 -462.033 424.935 -374.504 483.825 -309.465C512.225 -278.118 541.688 -250.333 567.858 -216.798C599.465 -176.153 628.997 -133.963 659.614 -92.6028C699.711 -38.5856 741.147 39.8249 818.688 27.7575C869.788 19.728 918.66 -9.56867 966.829 24.5134C1018.02 60.7577 1066.86 103.934 1116.38 142.844C1139.57 161.066 1170.33 180.642 1188.41 204.242C1206.11 227.138 1205.1 251.099 1199.43 278.298C1193.94 305.061 1180.57 333.125 1183.9 361.136C1188.4 399.249 1222.36 418.236 1254.44 432.336C1366.52 481.806 1502.91 482.401 1604.31 554.448" stroke="url(#paint66_radial_496_2508)" stroke-width="1.3" stroke-miterlimit="10"/>
<path d="M344.937 -537.043C414.407 -476.059 439.842 -383.244 500.458 -315.196C560.849 -247.339 619.917 -180.21 677.01 -109.128C718.842 -56.9409 759.858 15.2997 835.316 9.61525C886.033 5.72052 933.727 -16.4288 979.895 16.351C1030.42 52.2309 1079.76 91.3676 1130.04 128.005C1153.55 145.147 1184.29 164.514 1202.13 187.714C1220.19 211.106 1219.15 236.016 1214.07 263.901C1208.98 291.787 1196.25 321.164 1200.07 349.974C1205.12 388.356 1238.04 407.433 1270.75 421.479C1381.96 469.444 1517.52 466.43 1617.91 537.825" stroke="url(#paint67_radial_496_2508)" stroke-width="1.3" stroke-miterlimit="10"/>
<path d="M358.767 -553.473C431.154 -489.056 455.323 -390.138 517.963 -318.055C574.804 -252.42 637.521 -190.546 695.464 -125.53C739.263 -76.1406 780.51 -11.072 852.627 -9.10948C902.632 -7.78976 948.742 -21.3899 992.927 10.2965C1042.81 46.0208 1092.73 79.6388 1143.74 113.795C1167.57 129.648 1198.35 148.275 1216.17 171.267C1234.7 195.249 1233.67 221.526 1229.38 250.08C1224.93 279.278 1212.85 310.177 1217.19 340.205C1222.7 378.97 1254.37 398.153 1288.13 412.319C1398.13 458.285 1532.72 451.355 1632.07 521.472" stroke="url(#paint68_radial_496_2508)" stroke-width="1.3" stroke-miterlimit="10"/>
<path d="M372.601 -569.901C447.977 -501.215 471.35 -395.603 535.876 -318.632C588.94 -255.41 655.749 -199.774 714.583 -141.566C760.584 -95.9399 802.782 -38.2098 870.377 -27.6584C919.02 -20.1222 963.618 -24.3378 1005.61 6.27303C1054.66 42.0683 1105.18 69.2188 1157.29 100.231C1181.52 114.682 1212.33 132.361 1230.02 155.048C1249.11 179.508 1248.37 207.76 1244.67 237.21C1240.88 267.93 1229.68 300.542 1234.55 331.788C1240.73 371.126 1270.84 390.546 1305.64 404.415C1414.47 447.85 1547.54 436.527 1645.69 505.063" stroke="url(#paint69_radial_496_2508)" stroke-width="1.3" stroke-miterlimit="10"/>
<path d="M386.436 -586.327C464.872 -512.537 487.788 -399.945 554.367 -317.363C603.786 -256.25 674.483 -207.992 734.347 -157.445C782.781 -116.549 826.383 -65.7747 888.528 -46.4501C934.706 -32.0778 978.166 -26.2043 1018.1 3.63534C1066.44 39.806 1117.61 59.7489 1170.79 87.1996C1195.5 99.9272 1226.22 116.561 1243.87 138.831C1263.53 163.768 1263.3 194.396 1260.19 224.532C1256.84 256.792 1246.66 291.422 1252.27 324.076C1259.02 363.892 1287.6 383.758 1323.74 397.407C1431.19 438.12 1562.5 422.214 1659.53 488.637" stroke="url(#paint70_radial_496_2508)" stroke-width="1.3" stroke-miterlimit="10"/>
<path d="M400.263 -602.757C481.795 -523.446 504.289 -403.455 573.148 -315.071C619.617 -255.286 693.132 -215.892 754.537 -173.154C805.656 -137.746 850.864 -92.7881 906.974 -65.377C950.157 -44.2286 992.002 -27.6996 1030.65 1.82874C1078.29 38.3747 1130.39 50.7704 1184.27 74.1642C1209.57 85.0544 1240.07 100.34 1257.81 122.496C1278.15 148.007 1278.44 181.01 1275.83 212.155C1269.64 288.728 1254.13 359.572 1341.98 390.909C1448.02 428.692 1577.33 407.802 1673.35 472.206" stroke="url(#paint71_radial_496_2508)" stroke-width="1.3" stroke-miterlimit="10"/>
<path d="M414.104 -619.185C498.558 -533.917 521.031 -406.772 592.109 -312.056C636.778 -252.433 711.205 -223.32 774.95 -188.88C829.778 -159.256 874.846 -119.651 925.547 -84.2065C965.414 -56.3599 1004.79 -29.3133 1043.05 0.668308C1090.09 37.4764 1143.26 42.6292 1197.81 61.5484C1223.68 70.6012 1254.06 84.4249 1271.78 106.372C1293.03 132.647 1293.41 168.061 1291.72 199.97C1287.62 276.575 1271.2 355.175 1360.69 384.795C1465.43 419.533 1592.51 393.468 1687.4 455.76" stroke="url(#paint72_radial_496_2508)" stroke-width="1.3" stroke-miterlimit="10"/>
<path d="M427.933 -635.611C515.405 -544.499 537.76 -410.086 610.944 -309.134C655.095 -248.204 728.64 -230.691 795.351 -204.602C902.585 -162.714 967.765 -70.6519 1055.55 -0.602482C1102.09 36.5633 1156.51 34.2466 1211.21 48.8399C1283.44 68.1481 1309.59 115.043 1307.27 187.711C1304.94 264.06 1288.03 350.59 1379.07 378.606C1482.28 410.318 1607.25 379.174 1701.02 439.352" stroke="url(#paint73_radial_496_2508)" stroke-width="1.3" stroke-miterlimit="10"/>
<path d="M441.766 -652.039C531.935 -555.161 554.459 -413.82 629.844 -306.744C674.417 -243.326 745.811 -237.515 815.661 -220.214C880.781 -204.193 920.229 -172.629 962.562 -121.958C996.236 -81.6985 1026.96 -35.4033 1067.91 -2.17974C1114.28 35.4215 1169.98 25.844 1224.63 36.1293C1300.32 50.4099 1323.61 103.227 1322.93 175.545C1322.25 251.543 1305 346.307 1397.33 372.319C1499.15 401.1 1622 364.877 1714.76 423.038" stroke="url(#paint74_radial_496_2508)" stroke-width="1.3" stroke-miterlimit="10"/>
<path d="M455.601 -668.468C548.639 -566.26 570.993 -418.278 648.335 -305.479C694.008 -238.999 763.096 -244.246 835.52 -236.209C865.538 -232.768 897.82 -227.416 922.789 -209.24C946.191 -192.194 964.702 -164.739 980.807 -140.866C1011.67 -95.4238 1037.47 -40.2954 1080.61 -4.83864C1126.8 33.198 1184.01 16.7599 1238.22 22.9815C1316.93 32.0613 1337.91 91.0705 1338.56 162.959C1339.21 238.529 1322.1 341.17 1415.43 365.308C1516.07 391.35 1636.62 350.274 1728.6 406.609" stroke="url(#paint75_radial_496_2508)" stroke-width="1.3" stroke-miterlimit="10"/>
<path d="M469.436 -684.9C564.968 -578.065 587.229 -423.765 666.363 -305.964C713.38 -236.022 780.651 -251.528 854.641 -252.249C884.339 -252.567 917.153 -250.837 942.408 -233.001C966.662 -215.817 984.206 -184.914 998.654 -159.532C1026.84 -109.76 1048.08 -46.4607 1093.29 -8.86631C1139.84 29.6658 1197.97 6.62915 1251.87 9.30025C1332.98 13.2325 1352.29 78.5892 1354.03 149.649C1355.9 224.695 1338.9 334.794 1433.34 357.156C1532.83 380.875 1651.5 334.911 1742.62 389.95" stroke="url(#paint76_radial_496_2508)" stroke-width="1.3" stroke-miterlimit="10"/>
<path d="M483.266 -701.326C581.221 -590.701 602.919 -430.673 683.772 -308.706C732.456 -235.224 798.319 -259.866 872.999 -268.535C902.431 -271.986 935.49 -273.537 961.05 -255.832C986.156 -238.51 1002.89 -204.803 1015.77 -178.027C1041.74 -124.7 1058.77 -54.1001 1106.13 -14.6902C1153.16 24.433 1211.84 -4.33146 1265.47 -4.79313C1348.41 -5.32867 1366.42 65.7135 1369.15 136.058C1372.02 210.598 1355.25 327.093 1450.42 348.131C1548.9 369.833 1665.83 319.494 1756.45 373.524" stroke="url(#paint77_radial_496_2508)" stroke-width="1.3" stroke-miterlimit="10"/>
<path d="M497.098 -717.755C597.387 -604.384 618.242 -439.446 700.422 -314.225C724.208 -277.858 746.567 -260.723 790.759 -263.536C824.713 -265.689 857.248 -278.345 890.394 -285.057C919.613 -291.014 952.573 -294.976 978.662 -277.211C1004.54 -259.429 1020.36 -224.171 1032.38 -196.375C1056.49 -140.156 1069.91 -63.8843 1119.2 -22.85C1167.01 16.9421 1225.59 -16.757 1279.13 -19.6294C1363.41 -24.0662 1380.52 52.4171 1383.9 121.76C1387.48 195.924 1371.15 317.641 1466.95 337.467C1564.68 357.761 1680.32 303.429 1770.28 357.095" stroke="url(#paint78_radial_496_2508)" stroke-width="1.3" stroke-miterlimit="10"/>
<path d="M510.932 -734.179C613.413 -619.732 632.86 -450.362 716.147 -323.237C739.802 -287.174 762.286 -268.577 806.395 -273.593C841.041 -277.487 873.119 -293.049 906.391 -301.981C935.963 -309.966 968.06 -315.432 994.941 -296.999C1021.6 -278.756 1036.69 -243.332 1048.08 -214.325C1070.91 -155.893 1081.39 -75.9005 1132.35 -33.6419C1181.28 6.89688 1238.92 -30.5083 1292.73 -35.087C1377.73 -42.2143 1394.25 38.4214 1398.07 106.78C1402.16 180.795 1386.13 306.062 1482.29 325.227C1579.65 344.816 1694.14 286.796 1783.81 340.802" stroke="url(#paint79_radial_496_2508)" stroke-width="1.3" stroke-miterlimit="10"/>
<path d="M524.766 -750.61C576.862 -693.827 604.366 -614.968 633.74 -544.997C662.966 -475.54 689.179 -399.516 731.004 -336.284C754.284 -300.926 777.327 -280.693 821.043 -286.622C856.035 -291.387 887.936 -309.038 921.292 -319.449C1088.8 -371.672 1056.75 -121.138 1146.04 -48.0622C1196.62 -6.7167 1251.95 -46.4505 1306.74 -51.9533C1391.91 -60.6737 1408.08 23.148 1412.22 90.4268C1416.75 164.615 1400.73 291.249 1497.23 310.7C1594.59 330.289 1708.51 269.267 1797.97 324.449" stroke="url(#paint80_radial_496_2508)" stroke-width="1.3" stroke-miterlimit="10"/>
<path d="M538.786 -763.585C639.825 -648.804 660.65 -481.76 743.389 -354.905C766.93 -318.937 789.115 -297.685 833.761 -303.798C868.848 -308.677 900.957 -326.345 934.523 -336.774C1102.84 -389.277 1069.19 -137.765 1158.91 -64.7249C1209.47 -23.5883 1265.88 -62.9932 1320.87 -68.5137C1405.97 -76.9119 1422.08 6.28319 1426.15 73.8841C1430.46 148.09 1414.47 274.933 1510.86 294.289C1608.21 313.878 1722.4 252.307 1811.78 307.811" stroke="url(#paint81_radial_496_2508)" stroke-width="1.3" stroke-miterlimit="10"/>
<path d="M553.17 -769.856C651.296 -655.985 673.083 -494.913 755.973 -371.226C777.621 -338.989 798.954 -317.875 839.38 -321.735C875.009 -325.188 908.334 -343.38 941.846 -354.435C1117.06 -412.363 1076.93 -155.462 1169.77 -81.5306C1218.9 -42.376 1275.59 -77.2818 1329.09 -84.2534C1414.38 -95.4021 1434.81 -18.2542 1439.3 51.8352C1444.01 125.797 1425.32 256.761 1521.43 277.823C1619.8 299.429 1734.82 235.264 1825.52 291.496" stroke="url(#paint82_radial_496_2508)" stroke-width="1.3" stroke-miterlimit="10"/>
<path d="M567.938 -770.377C661.77 -661.294 685.219 -509.094 765.299 -391.268C787.043 -359.144 808.453 -338.352 848.784 -342.099C884.735 -345.474 918.268 -363.684 952.197 -374.775C1129.8 -433.011 1085.59 -173.554 1179.22 -98.9531C1228.8 -59.4163 1287.8 -94.3084 1342.08 -100.82C1428.06 -111.187 1448.67 -35.6316 1452.94 35.6331C1457.45 109.613 1438.26 240.934 1534.58 261.978C1633.16 283.567 1748.54 218.739 1839.36 275.067" stroke="url(#paint83_radial_496_2508)" stroke-width="1.3" stroke-miterlimit="10"/>
<path d="M582.901 -766.075C669.832 -666.503 697.042 -529.348 767.843 -419.357C790.95 -383.563 814.646 -358.127 859.953 -363.876C896.631 -368.574 930.487 -386.706 965.381 -397.564C1139.55 -451.722 1096.18 -190.968 1187.03 -116.973C1237.13 -76.2182 1300.59 -111.805 1356.08 -117.683C1439.06 -126.322 1461.33 -57.1142 1465.97 13.4884C1470.76 87.1283 1449.33 222.953 1544.75 245.757C1644.45 269.459 1760.86 201.809 1853.09 258.753" stroke="url(#paint84_radial_496_2508)" stroke-width="1.3" stroke-miterlimit="10"/>
<path d="M598.191 -758.016C681.146 -665.678 707.635 -538.244 776.969 -436.858C800.594 -402.371 826.64 -380.185 870.303 -386.74C907.744 -392.345 942.094 -410.835 978.067 -421.363C1151.4 -471.768 1103.08 -207.439 1193.92 -134.81C1245.99 -93.1706 1312.44 -130.695 1370.17 -134.871C1456.7 -141.287 1475.51 -69.5757 1479.62 3.49088C1483.65 74.3556 1463.44 205.974 1554.73 229.551C1655.78 255.557 1773.07 184.782 1866.93 242.323" stroke="url(#paint85_radial_496_2508)" stroke-width="1.3" stroke-miterlimit="10"/>
<path d="M613.514 -747.011C691.855 -663.221 717.855 -546.473 785.18 -455.12C810.23 -421.174 836.564 -403.009 880.043 -410.496C915.137 -416.532 947.448 -433.06 981.257 -443.089C1163 -497.05 1106.28 -230.322 1200.11 -153.424C1250.79 -111.983 1319.42 -146.117 1376.23 -151.266C1407.49 -154.137 1440.43 -150.944 1462.9 -126.35C1490.79 -96.0123 1491.87 -45.0908 1493.36 -6.61579C1496.17 62.2492 1477.42 188.905 1564.78 213.236C1667.11 241.869 1785.16 167.663 1880.86 225.784" stroke="url(#paint86_radial_496_2508)" stroke-width="1.3" stroke-miterlimit="10"/>
<path d="M629.001 -734.13C702.354 -659.593 728.307 -554.516 792.831 -473.863C848.305 -404.535 913.491 -443.319 983.774 -465.392C1175.3 -525.444 1107.85 -250.126 1205.61 -171.459C1257.81 -129.516 1331.38 -163.544 1389.91 -168.209C1419.34 -170.502 1450.65 -167.908 1473.16 -146.578C1503.22 -117.897 1505.09 -67.4639 1506.69 -28.8933C1510.01 47.1859 1487.8 177.502 1585.86 199.24C1685.97 221.54 1801.81 153.413 1894.9 209.337" stroke="url(#paint87_radial_496_2508)" stroke-width="1.3" stroke-miterlimit="10"/>
<path d="M644.457 -720.301C712.351 -655.607 738.733 -562.768 800.1 -493.311C857.757 -427.955 925.9 -470.252 995.264 -490.774C1183.48 -546.443 1116.14 -268.714 1210.93 -190.425C1264.14 -146.464 1342.97 -181.676 1403.44 -185.665C1434.36 -187.665 1466.22 -183.643 1488.56 -160.512C1515.3 -132.704 1517.73 -87.9993 1519.48 -51.4394C1523.01 23.4645 1498.36 159.668 1595.41 183.07C1696.86 207.674 1813.69 136.308 1908.5 192.717" stroke="url(#paint88_radial_496_2508)" stroke-width="1.3" stroke-miterlimit="10"/>
<path d="M660.038 -706.376C721.961 -651.376 749.858 -571.603 807.346 -513.176C868.056 -451.446 937.106 -496.659 1006.99 -515.964C1193.67 -567.505 1122.14 -285.948 1216.02 -208.424C1268.21 -165.323 1348.79 -197.317 1408.26 -201.958C1441.86 -204.606 1481.15 -202.059 1505.12 -174.648C1530.95 -145.081 1531.72 -97.7099 1533.09 -60.6968C1535.82 12.1718 1512.27 142.917 1605.21 167.3C1708.03 194.418 1825.71 119.508 1922.47 176.592" stroke="url(#paint89_radial_496_2508)" stroke-width="1.3" stroke-miterlimit="10"/>
<path d="M675.535 -693.285C729.181 -649.151 759.054 -586.901 808.473 -539.357C872.424 -477.798 935.966 -517.389 1009.31 -538.039C1206.17 -593.391 1123.84 -309.128 1221.98 -227.233C1277.82 -180.656 1367.71 -217.966 1431.85 -219.638C1460.78 -220.416 1493.56 -216.579 1515.23 -195.178C1546.29 -164.688 1545.83 -110.797 1546.74 -70.4842C1548.31 3.5352 1526.61 136.227 1625.89 153.759C1726.88 171.567 1842.56 105.241 1936.28 159.955" stroke="url(#paint90_radial_496_2508)" stroke-width="1.3" stroke-miterlimit="10"/>
<path d="M690.885 -682.073C738.285 -645.927 771.228 -596.981 816.493 -558.76C844.897 -534.776 870.334 -522.215 908.27 -528.178C944.026 -533.85 977.468 -549.422 1011.89 -559.713C1217.57 -621.181 1127.58 -329.429 1227.73 -244.865C1282.16 -198.904 1373.87 -233.319 1436.45 -236.119C1469.83 -237.592 1506.96 -234.546 1531.01 -208.614C1558.41 -179.076 1559.15 -130.965 1560.07 -92.9678C1561.81 -19.3839 1536.78 118.64 1635.69 137.991C1738.01 157.895 1854.92 88.7299 1950.25 143.832" stroke="url(#paint91_radial_496_2508)" stroke-width="1.3" stroke-miterlimit="10"/>
<path d="M706.069 -673.901C745.554 -645.601 780.311 -612.376 818.938 -583.057C851.393 -558.366 876.781 -543.908 919.2 -551.514C955.51 -558.074 989.673 -573.814 1025.06 -583.871C1226.83 -640.694 1136.43 -346.382 1234.75 -263.556C1290.88 -216.162 1385.66 -251.469 1450.86 -253.02C1484.3 -253.867 1524.04 -250.938 1547.31 -223.151C1570.91 -195.078 1572.06 -150.684 1573.12 -116.064C1575.22 -43.1417 1547.21 100.5 1645.22 121.612C1748.91 144.028 1866.78 71.4151 1963.74 127.115" stroke="url(#paint92_radial_496_2508)" stroke-width="1.3" stroke-miterlimit="10"/>
<path d="M721.055 -669.391C755.978 -645.331 793.066 -625.452 828.448 -602.167C859.94 -581.391 881.521 -567.24 921.006 -572.283C961.933 -577.658 999.829 -596.45 1039.59 -606.88C1237.46 -659.057 1146.07 -362.664 1242.41 -280.931C1299.35 -232.66 1400.24 -269.012 1466.33 -270.008C1497.28 -270.433 1534.43 -267.177 1557.53 -243.794C1586.49 -214.494 1585.91 -163.221 1586.72 -125.32C1588.29 -54.9817 1561.79 82.9572 1655.28 105.294C1760.36 130.432 1878.99 54.3893 1977.78 110.669" stroke="url(#paint93_radial_496_2508)" stroke-width="1.3" stroke-miterlimit="10"/>
<path d="M735.859 -669.492C768.763 -646.943 804.113 -641.326 837.698 -621.886C870.734 -602.714 889.901 -587.305 930.316 -592.532C971.452 -597.926 1009.76 -616.753 1049.74 -627.201C1249.8 -679.46 1154.63 -380.641 1251.65 -298.335C1309.15 -249.585 1412.26 -285.811 1479.11 -286.556C1510.17 -286.885 1548.04 -283.796 1571.27 -260.108C1600.13 -230.695 1599.56 -179.422 1600.27 -141.407C1601.63 -71.0517 1574.64 67.2448 1668.34 89.5641C1773.72 114.571 1892.62 37.9794 1991.64 94.4506" stroke="url(#paint94_radial_496_2508)" stroke-width="1.3" stroke-miterlimit="10"/>
<path d="M750.273 -675.346C771.073 -660.497 785.298 -652.557 809.752 -650.325C824.356 -649.043 834.587 -648.546 848.133 -641.179C882.35 -622.949 899.12 -606.075 940.882 -611.522C982.339 -616.837 1020.86 -635.682 1061.04 -646.148C1262.56 -698.531 1164.6 -398.002 1262.37 -315.444C1320.31 -266.522 1425.01 -302.568 1492.41 -303.043C1523.7 -303.181 1561.55 -300.301 1585.1 -276.536C1614.08 -247.026 1613.29 -195.736 1614.01 -157.721C1615.16 -87.3478 1587.88 51.2887 1681.67 73.4947C1787.05 98.5017 1906.43 21.3434 2005.47 78.0235" stroke="url(#paint95_radial_496_2508)" stroke-width="1.3" stroke-miterlimit="10"/>
<path d="M764.332 -687.9C786.257 -670.939 797.735 -663.185 823.615 -665.177C839.162 -666.395 846.956 -667.373 861.938 -659.182C892.336 -642.625 909.475 -623.889 946.964 -627.71C989.04 -631.921 1028.38 -651.046 1068.84 -661.852C1277.74 -717.702 1175.18 -419.306 1275.41 -332.54C1330.74 -284.658 1432.89 -317.436 1497.96 -319.291C1533.59 -320.22 1575.35 -318.303 1600.87 -289.972C1629.17 -258.512 1627.88 -207.073 1627.9 -167.316C1628.1 -99.4916 1603.33 32.9353 1692.1 56.5159C1798.48 84.698 1918.62 4.10925 2019.19 61.5005" stroke="url(#paint96_radial_496_2508)" stroke-width="1.3" stroke-miterlimit="10"/>
<defs>
<radialGradient id="paint0_radial_496_2508" cx="0" cy="0" r="1" gradientUnits="userSpaceOnUse" gradientTransform="translate(123.231 1019.59) rotate(40.1768) scale(833.038 108.569)">
<stop stop-color="#C4FF96"/>
<stop offset="0.263542" stop-color="#06124A"/>
<stop offset="0.508333" stop-opacity="0.74"/>
<stop offset="0.753125" stop-color="#0E1430" stop-opacity="0"/>
<stop offset="1" stop-color="#210593" stop-opacity="0.49"/>
</radialGradient>
<radialGradient id="paint1_radial_496_2508" cx="0" cy="0" r="1" gradientUnits="userSpaceOnUse" gradientTransform="translate(137.346 1002.83) rotate(40.1768) scale(833.038 108.918)">
<stop stop-color="#C4FF96"/>
<stop offset="0.263542" stop-color="#06124A"/>
<stop offset="0.508333" stop-opacity="0.74"/>
<stop offset="0.753125" stop-color="#0E1430" stop-opacity="0"/>
<stop offset="1" stop-color="#210593" stop-opacity="0.49"/>
</radialGradient>
<radialGradient id="paint2_radial_496_2508" cx="0" cy="0" r="1" gradientUnits="userSpaceOnUse" gradientTransform="translate(151.941 985.61) rotate(40.1768) scale(833.113 110.008)">
<stop stop-color="#C4FF96"/>
<stop offset="0.263542" stop-color="#06124A"/>
<stop offset="0.508333" stop-opacity="0.74"/>
<stop offset="0.753125" stop-color="#0E1430" stop-opacity="0"/>
<stop offset="1" stop-color="#210593" stop-opacity="0.49"/>
</radialGradient>
<radialGradient id="paint3_radial_496_2508" cx="0" cy="0" r="1" gradientUnits="userSpaceOnUse" gradientTransform="translate(166.673 968.11) rotate(40.1768) scale(833.113 111.557)">
<stop stop-color="#C4FF96"/>
<stop offset="0.263542" stop-color="#06124A"/>
<stop offset="0.508333" stop-opacity="0.74"/>
<stop offset="0.753125" stop-color="#0E1430" stop-opacity="0"/>
<stop offset="1" stop-color="#210593" stop-opacity="0.49"/>
</radialGradient>
<radialGradient id="paint4_radial_496_2508" cx="0" cy="0" r="1" gradientUnits="userSpaceOnUse" gradientTransform="translate(181.784 950.286) rotate(40.1768) scale(833.186 113.364)">
<stop stop-color="#C4FF96"/>
<stop offset="0.263542" stop-color="#06124A"/>
<stop offset="0.508333" stop-opacity="0.74"/>
<stop offset="0.753125" stop-color="#0E1430" stop-opacity="0"/>
<stop offset="1" stop-color="#210593" stop-opacity="0.49"/>
</radialGradient>
<radialGradient id="paint5_radial_496_2508" cx="0" cy="0" r="1" gradientUnits="userSpaceOnUse" gradientTransform="translate(197.045 932.043) rotate(40.1768) scale(833.113 115.737)">
<stop stop-color="#C4FF96"/>
<stop offset="0.263542" stop-color="#06124A"/>
<stop offset="0.508333" stop-opacity="0.74"/>
<stop offset="0.753125" stop-color="#0E1430" stop-opacity="0"/>
<stop offset="1" stop-color="#210593" stop-opacity="0.49"/>
</radialGradient>
<radialGradient id="paint6_radial_496_2508" cx="0" cy="0" r="1" gradientUnits="userSpaceOnUse" gradientTransform="translate(212.393 913.817) rotate(40.1768) scale(833.113 118.218)">
<stop stop-color="#C4FF96"/>
<stop offset="0.263542" stop-color="#06124A"/>
<stop offset="0.508333" stop-opacity="0.74"/>
<stop offset="0.753125" stop-color="#0E1430" stop-opacity="0"/>
<stop offset="1" stop-color="#210593" stop-opacity="0.49"/>
</radialGradient>
<radialGradient id="paint7_radial_496_2508" cx="0" cy="0" r="1" gradientUnits="userSpaceOnUse" gradientTransform="translate(227.94 895.351) rotate(40.1768) scale(833.113 120.972)">
<stop stop-color="#C4FF96"/>
<stop offset="0.263542" stop-color="#06124A"/>
<stop offset="0.508333" stop-opacity="0.74"/>
<stop offset="0.753125" stop-color="#0E1430" stop-opacity="0"/>
<stop offset="1" stop-color="#210593" stop-opacity="0.49"/>
</radialGradient>
<radialGradient id="paint8_radial_496_2508" cx="0" cy="0" r="1" gradientUnits="userSpaceOnUse" gradientTransform="translate(243.422 876.852) rotate(40.1768) scale(833.038 123.749)">
<stop stop-color="#C4FF96"/>
<stop offset="0.263542" stop-color="#06124A"/>
<stop offset="0.508333" stop-opacity="0.74"/>
<stop offset="0.753125" stop-color="#0E1430" stop-opacity="0"/>
<stop offset="1" stop-color="#210593" stop-opacity="0.49"/>
</radialGradient>
<radialGradient id="paint9_radial_496_2508" cx="0" cy="0" r="1" gradientUnits="userSpaceOnUse" gradientTransform="translate(258.993 858.357) rotate(40.1768) scale(833.038 126.581)">
<stop stop-color="#C4FF96"/>
<stop offset="0.263542" stop-color="#06124A"/>
<stop offset="0.508333" stop-opacity="0.74"/>
<stop offset="0.753125" stop-color="#0E1430" stop-opacity="0"/>
<stop offset="1" stop-color="#210593" stop-opacity="0.49"/>
</radialGradient>
<radialGradient id="paint10_radial_496_2508" cx="0" cy="0" r="1" gradientUnits="userSpaceOnUse" gradientTransform="translate(274.548 839.88) rotate(40.1768) scale(833.038 129.391)">
<stop stop-color="#C4FF96"/>
<stop offset="0.263542" stop-color="#06124A"/>
<stop offset="0.508333" stop-opacity="0.74"/>
<stop offset="0.753125" stop-color="#0E1430" stop-opacity="0"/>
<stop offset="1" stop-color="#210593" stop-opacity="0.49"/>
</radialGradient>
<radialGradient id="paint11_radial_496_2508" cx="0" cy="0" r="1" gradientUnits="userSpaceOnUse" gradientTransform="translate(290.059 821.577) rotate(40.1768) scale(833.113 132.036)">
<stop stop-color="#C4FF96"/>
<stop offset="0.263542" stop-color="#06124A"/>
<stop offset="0.508333" stop-opacity="0.74"/>
<stop offset="0.753125" stop-color="#0E1430" stop-opacity="0"/>
<stop offset="1" stop-color="#210593" stop-opacity="0.49"/>
</radialGradient>
<radialGradient id="paint12_radial_496_2508" cx="0" cy="0" r="1" gradientUnits="userSpaceOnUse" gradientTransform="translate(305.245 803.424) rotate(40.1768) scale(833.038 134.317)">
<stop stop-color="#C4FF96"/>
<stop offset="0.263542" stop-color="#06124A"/>
<stop offset="0.508333" stop-opacity="0.74"/>
<stop offset="0.753125" stop-color="#0E1430" stop-opacity="0"/>
<stop offset="1" stop-color="#210593" stop-opacity="0.49"/>
</radialGradient>
<radialGradient id="paint13_radial_496_2508" cx="0" cy="0" r="1" gradientUnits="userSpaceOnUse" gradientTransform="translate(320.289 785.671) rotate(40.1768) scale(833.113 136.324)">
<stop stop-color="#C4FF96"/>
<stop offset="0.263542" stop-color="#06124A"/>
<stop offset="0.508333" stop-opacity="0.74"/>
<stop offset="0.753125" stop-color="#0E1430" stop-opacity="0"/>
<stop offset="1" stop-color="#210593" stop-opacity="0.49"/>
</radialGradient>
<radialGradient id="paint14_radial_496_2508" cx="0" cy="0" r="1" gradientUnits="userSpaceOnUse" gradientTransform="translate(335.001 767.857) rotate(40.1768) scale(832.89 137.802)">
<stop stop-color="#C4FF96"/>
<stop offset="0.263542" stop-color="#06124A"/>
<stop offset="0.508333" stop-opacity="0.74"/>
<stop offset="0.753125" stop-color="#0E1430" stop-opacity="0"/>
<stop offset="1" stop-color="#210593" stop-opacity="0.49"/>
</radialGradient>
<radialGradient id="paint15_radial_496_2508" cx="0" cy="0" r="1" gradientUnits="userSpaceOnUse" gradientTransform="translate(349.437 750.947) rotate(40.1768) scale(833.038 138.679)">
<stop stop-color="#C4FF96"/>
<stop offset="0.263542" stop-color="#06124A"/>
<stop offset="0.508333" stop-opacity="0.74"/>
<stop offset="0.753125" stop-color="#0E1430" stop-opacity="0"/>
<stop offset="1" stop-color="#210593" stop-opacity="0.49"/>
</radialGradient>
<radialGradient id="paint16_radial_496_2508" cx="0" cy="0" r="1" gradientUnits="userSpaceOnUse" gradientTransform="translate(363.771 734.153) rotate(40.1768) scale(833.186 139.004)">
<stop stop-color="#C4FF96"/>
<stop offset="0.263542" stop-color="#06124A"/>
<stop offset="0.508333" stop-opacity="0.74"/>
<stop offset="0.753125" stop-color="#0E1430" stop-opacity="0"/>
<stop offset="1" stop-color="#210593" stop-opacity="0.49"/>
</radialGradient>
<radialGradient id="paint17_radial_496_2508" cx="0" cy="0" r="1" gradientUnits="userSpaceOnUse" gradientTransform="translate(376.871 718.474) rotate(40.1768) scale(833.113 138.404)">
<stop stop-color="#C4FF96"/>
<stop offset="0.263542" stop-color="#06124A"/>
<stop offset="0.508333" stop-opacity="0.74"/>
<stop offset="0.753125" stop-color="#0E1430" stop-opacity="0"/>
<stop offset="1" stop-color="#210593" stop-opacity="0.49"/>
</radialGradient>
<radialGradient id="paint18_radial_496_2508" cx="0" cy="0" r="1" gradientUnits="userSpaceOnUse" gradientTransform="translate(387.677 705.53) rotate(40.1768) scale(833.038 138.59)">
<stop stop-color="#C4FF96"/>
<stop offset="0.263542" stop-color="#06124A"/>
<stop offset="0.508333" stop-opacity="0.74"/>
<stop offset="0.753125" stop-color="#0E1430" stop-opacity="0"/>
<stop offset="1" stop-color="#210593" stop-opacity="0.49"/>
</radialGradient>
<radialGradient id="paint19_radial_496_2508" cx="0" cy="0" r="1" gradientUnits="userSpaceOnUse" gradientTransform="translate(397.394 694.222) rotate(40.1768) scale(833.186 138.661)">
<stop stop-color="#C4FF96"/>
<stop offset="0.263542" stop-color="#06124A"/>
<stop offset="0.508333" stop-opacity="0.74"/>
<stop offset="0.753125" stop-color="#0E1430" stop-opacity="0"/>
<stop offset="1" stop-color="#210593" stop-opacity="0.49"/>
</radialGradient>
<radialGradient id="paint20_radial_496_2508" cx="0" cy="0" r="1" gradientUnits="userSpaceOnUse" gradientTransform="translate(405.458 684.298) rotate(40.1768) scale(832.964 138.872)">
<stop stop-color="#C4FF96"/>
<stop offset="0.263542" stop-color="#06124A"/>
<stop offset="0.508333" stop-opacity="0.74"/>
<stop offset="0.753125" stop-color="#0E1430" stop-opacity="0"/>
<stop offset="1" stop-color="#210593" stop-opacity="0.49"/>
</radialGradient>
<radialGradient id="paint21_radial_496_2508" cx="0" cy="0" r="1" gradientUnits="userSpaceOnUse" gradientTransform="translate(412.839 675.766) rotate(40.1768) scale(833.113 138.972)">
<stop stop-color="#C4FF96"/>
<stop offset="0.263542" stop-color="#06124A"/>
<stop offset="0.508333" stop-opacity="0.74"/>
<stop offset="0.753125" stop-color="#0E1430" stop-opacity="0"/>
<stop offset="1" stop-color="#210593" stop-opacity="0.49"/>
</radialGradient>
<radialGradient id="paint22_radial_496_2508" cx="0" cy="0" r="1" gradientUnits="userSpaceOnUse" gradientTransform="translate(419.344 667.923) rotate(40.1768) scale(833.038 139.384)">
<stop stop-color="#C4FF96"/>
<stop offset="0.263542" stop-color="#06124A"/>
<stop offset="0.508333" stop-opacity="0.74"/>
<stop offset="0.753125" stop-color="#0E1430" stop-opacity="0"/>
<stop offset="1" stop-color="#210593" stop-opacity="0.49"/>
</radialGradient>
<radialGradient id="paint23_radial_496_2508" cx="0" cy="0" r="1" gradientUnits="userSpaceOnUse" gradientTransform="translate(425.346 660.908) rotate(40.1768) scale(833.113 139.736)">
<stop stop-color="#C4FF96"/>
<stop offset="0.263542" stop-color="#06124A"/>
<stop offset="0.508333" stop-opacity="0.74"/>
<stop offset="0.753125" stop-color="#0E1430" stop-opacity="0"/>
<stop offset="1" stop-color="#210593" stop-opacity="0.49"/>
</radialGradient>
<radialGradient id="paint24_radial_496_2508" cx="0" cy="0" r="1" gradientUnits="userSpaceOnUse" gradientTransform="translate(431.123 654.049) rotate(40.1768) scale(833.113 140.227)">
<stop stop-color="#C4FF96"/>
<stop offset="0.263542" stop-color="#06124A"/>
<stop offset="0.508333" stop-opacity="0.74"/>
<stop offset="0.753125" stop-color="#0E1430" stop-opacity="0"/>
<stop offset="1" stop-color="#210593" stop-opacity="0.49"/>
</radialGradient>
<radialGradient id="paint25_radial_496_2508" cx="0" cy="0" r="1" gradientUnits="userSpaceOnUse" gradientTransform="translate(436.771 647.339) rotate(40.1768) scale(833.113 140.807)">
<stop stop-color="#C4FF96"/>
<stop offset="0.263542" stop-color="#06124A"/>
<stop offset="0.508333" stop-opacity="0.74"/>
<stop offset="0.753125" stop-color="#0E1430" stop-opacity="0"/>
<stop offset="1" stop-color="#210593" stop-opacity="0.49"/>
</radialGradient>
<radialGradient id="paint26_radial_496_2508" cx="0" cy="0" r="1" gradientUnits="userSpaceOnUse" gradientTransform="translate(442.712 640.287) rotate(40.1768) scale(833.113 141.383)">
<stop stop-color="#C4FF96"/>
<stop offset="0.263542" stop-color="#06124A"/>
<stop offset="0.508333" stop-opacity="0.74"/>
<stop offset="0.753125" stop-color="#0E1430" stop-opacity="0"/>
<stop offset="1" stop-color="#210593" stop-opacity="0.49"/>
</radialGradient>
<radialGradient id="paint27_radial_496_2508" cx="0" cy="0" r="1" gradientUnits="userSpaceOnUse" gradientTransform="translate(449.056 632.636) rotate(40.1768) scale(833.038 142.042)">
<stop stop-color="#C4FF96"/>
<stop offset="0.263542" stop-color="#06124A"/>
<stop offset="0.508333" stop-opacity="0.74"/>
<stop offset="0.753125" stop-color="#0E1430" stop-opacity="0"/>
<stop offset="1" stop-color="#210593" stop-opacity="0.49"/>
</radialGradient>
<radialGradient id="paint28_radial_496_2508" cx="0" cy="0" r="1" gradientUnits="userSpaceOnUse" gradientTransform="translate(456.156 624.323) rotate(40.1768) scale(833.113 142.521)">
<stop stop-color="#C4FF96"/>
<stop offset="0.263542" stop-color="#06124A"/>
<stop offset="0.508333" stop-opacity="0.74"/>
<stop offset="0.753125" stop-color="#0E1430" stop-opacity="0"/>
<stop offset="1" stop-color="#210593" stop-opacity="0.49"/>
</radialGradient>
<radialGradient id="paint29_radial_496_2508" cx="0" cy="0" r="1" gradientUnits="userSpaceOnUse" gradientTransform="translate(464.421 614.729) rotate(40.1768) scale(833.261 143.037)">
<stop stop-color="#C4FF96"/>
<stop offset="0.263542" stop-color="#06124A"/>
<stop offset="0.508333" stop-opacity="0.74"/>
<stop offset="0.753125" stop-color="#0E1430" stop-opacity="0"/>
<stop offset="1" stop-color="#210593" stop-opacity="0.49"/>
</radialGradient>
<radialGradient id="paint30_radial_496_2508" cx="0" cy="0" r="1" gradientUnits="userSpaceOnUse" gradientTransform="translate(473.755 603.305) rotate(40.1768) scale(833.038 143.478)">
<stop stop-color="#C4FF96"/>
<stop offset="0.263542" stop-color="#06124A"/>
<stop offset="0.508333" stop-opacity="0.74"/>
<stop offset="0.753125" stop-color="#0E1430" stop-opacity="0"/>
<stop offset="1" stop-color="#210593" stop-opacity="0.49"/>
</radialGradient>
<radialGradient id="paint31_radial_496_2508" cx="0" cy="0" r="1" gradientUnits="userSpaceOnUse" gradientTransform="translate(484.619 590.634) rotate(40.1768) scale(833.186 143.685)">
<stop stop-color="#C4FF96"/>
<stop offset="0.263542" stop-color="#06124A"/>
<stop offset="0.508333" stop-opacity="0.74"/>
<stop offset="0.753125" stop-color="#0E1430" stop-opacity="0"/>
<stop offset="1" stop-color="#210593" stop-opacity="0.49"/>
</radialGradient>
<radialGradient id="paint32_radial_496_2508" cx="0" cy="0" r="1" gradientUnits="userSpaceOnUse" gradientTransform="translate(497.325 575.424) rotate(40.1768) scale(833.113 143.888)">
<stop stop-color="#C4FF96"/>
<stop offset="0.263542" stop-color="#06124A"/>
<stop offset="0.508333" stop-opacity="0.74"/>
<stop offset="0.753125" stop-color="#0E1430" stop-opacity="0"/>
<stop offset="1" stop-color="#210593" stop-opacity="0.49"/>
</radialGradient>
<radialGradient id="paint33_radial_496_2508" cx="0" cy="0" r="1" gradientUnits="userSpaceOnUse" gradientTransform="translate(512.326 558.762) rotate(40.1768) scale(832.224 142.323)">
<stop stop-color="#C4FF96"/>
<stop offset="0.263542" stop-color="#06124A"/>
<stop offset="0.508333" stop-opacity="0.74"/>
<stop offset="0.753125" stop-color="#0E1430" stop-opacity="0"/>
<stop offset="1" stop-color="#210593" stop-opacity="0.49"/>
</radialGradient>
<radialGradient id="paint34_radial_496_2508" cx="0" cy="0" r="1" gradientUnits="userSpaceOnUse" gradientTransform="translate(528.954 542.463) rotate(40.1768) scale(830.002 139.141)">
<stop stop-color="#C4FF96"/>
<stop offset="0.263542" stop-color="#06124A"/>
<stop offset="0.508333" stop-opacity="0.74"/>
<stop offset="0.753125" stop-color="#0E1430" stop-opacity="0"/>
<stop offset="1" stop-color="#210593" stop-opacity="0.49"/>
</radialGradient>
<radialGradient id="paint35_radial_496_2508" cx="0" cy="0" r="1" gradientUnits="userSpaceOnUse" gradientTransform="translate(547.071 526.467) rotate(40.1768) scale(826.596 134.406)">
<stop stop-color="#C4FF96"/>
<stop offset="0.263542" stop-color="#06124A"/>
<stop offset="0.508333" stop-opacity="0.74"/>
<stop offset="0.753125" stop-color="#0E1430" stop-opacity="0"/>
<stop offset="1" stop-color="#210593" stop-opacity="0.49"/>
</radialGradient>
<radialGradient id="paint36_radial_496_2508" cx="0" cy="0" r="1" gradientUnits="userSpaceOnUse" gradientTransform="translate(566.186 510.665) rotate(40.1768) scale(822.004 128.441)">
<stop stop-color="#C4FF96"/>
<stop offset="0.263542" stop-color="#06124A"/>
<stop offset="0.508333" stop-opacity="0.74"/>
<stop offset="0.753125" stop-color="#0E1430" stop-opacity="0"/>
<stop offset="1" stop-color="#210593" stop-opacity="0.49"/>
</radialGradient>
<radialGradient id="paint37_radial_496_2508" cx="0" cy="0" r="1" gradientUnits="userSpaceOnUse" gradientTransform="translate(586.516 495.021) rotate(40.1768) scale(816.82 121.349)">
<stop stop-color="#C4FF96"/>
<stop offset="0.263542" stop-color="#06124A"/>
<stop offset="0.508333" stop-opacity="0.74"/>
<stop offset="0.753125" stop-color="#0E1430" stop-opacity="0"/>
<stop offset="1" stop-color="#210593" stop-opacity="0.49"/>
</radialGradient>
<radialGradient id="paint38_radial_496_2508" cx="0" cy="0" r="1" gradientUnits="userSpaceOnUse" gradientTransform="translate(607.294 479.549) rotate(40.1768) scale(810.896 113.513)">
<stop stop-color="#C4FF96"/>
<stop offset="0.263542" stop-color="#06124A"/>
<stop offset="0.508333" stop-opacity="0.74"/>
<stop offset="0.753125" stop-color="#0E1430" stop-opacity="0"/>
<stop offset="1" stop-color="#210593" stop-opacity="0.49"/>
</radialGradient>
<radialGradient id="paint39_radial_496_2508" cx="0" cy="0" r="1" gradientUnits="userSpaceOnUse" gradientTransform="translate(628.508 464.239) rotate(40.1768) scale(804.527 105.401)">
<stop stop-color="#C4FF96"/>
<stop offset="0.263542" stop-color="#06124A"/>
<stop offset="0.508333" stop-opacity="0.74"/>
<stop offset="0.753125" stop-color="#0E1430" stop-opacity="0"/>
<stop offset="1" stop-color="#210593" stop-opacity="0.49"/>
</radialGradient>
<radialGradient id="paint40_radial_496_2508" cx="0" cy="0" r="1" gradientUnits="userSpaceOnUse" gradientTransform="translate(647.235 451.893) rotate(40.1768) scale(797.863 101.184)">
<stop stop-color="#C4FF96"/>
<stop offset="0.263542" stop-color="#06124A"/>
<stop offset="0.508333" stop-opacity="0.74"/>
<stop offset="0.753125" stop-color="#0E1430" stop-opacity="0"/>
<stop offset="1" stop-color="#210593" stop-opacity="0.49"/>
</radialGradient>
<radialGradient id="paint41_radial_496_2508" cx="0" cy="0" r="1" gradientUnits="userSpaceOnUse" gradientTransform="translate(660.923 445.982) rotate(40.1768) scale(791.346 105.405)">
<stop stop-color="#C4FF96"/>
<stop offset="0.263542" stop-color="#06124A"/>
<stop offset="0.508333" stop-opacity="0.74"/>
<stop offset="0.753125" stop-color="#0E1430" stop-opacity="0"/>
<stop offset="1" stop-color="#210593" stop-opacity="0.49"/>
</radialGradient>
<radialGradient id="paint42_radial_496_2508" cx="0" cy="0" r="1" gradientUnits="userSpaceOnUse" gradientTransform="translate(673.721 440.556) rotate(40.1768) scale(784.903 109.737)">
<stop stop-color="#C4FF96"/>
<stop offset="0.263542" stop-color="#06124A"/>
<stop offset="0.508333" stop-opacity="0.74"/>
<stop offset="0.753125" stop-color="#0E1430" stop-opacity="0"/>
<stop offset="1" stop-color="#210593" stop-opacity="0.49"/>
</radialGradient>
<radialGradient id="paint43_radial_496_2508" cx="0" cy="0" r="1" gradientUnits="userSpaceOnUse" gradientTransform="translate(686.776 434.368) rotate(40.1768) scale(779.053 114.361)">
<stop stop-color="#C4FF96"/>
<stop offset="0.263542" stop-color="#06124A"/>
<stop offset="0.508333" stop-opacity="0.74"/>
<stop offset="0.753125" stop-color="#0E1430" stop-opacity="0"/>
<stop offset="1" stop-color="#210593" stop-opacity="0.49"/>
</radialGradient>
<radialGradient id="paint44_radial_496_2508" cx="0" cy="0" r="1" gradientUnits="userSpaceOnUse" gradientTransform="translate(699.666 427.336) rotate(40.1768) scale(773.721 118.666)">
<stop stop-color="#C4FF96"/>
<stop offset="0.263542" stop-color="#06124A"/>
<stop offset="0.508333" stop-opacity="0.74"/>
<stop offset="0.753125" stop-color="#0E1430" stop-opacity="0"/>
<stop offset="1" stop-color="#210593" stop-opacity="0.49"/>
</radialGradient>
<radialGradient id="paint45_radial_496_2508" cx="0" cy="0" r="1" gradientUnits="userSpaceOnUse" gradientTransform="translate(712.688 418.769) rotate(40.1768) scale(769.277 122.369)">
<stop stop-color="#C4FF96"/>
<stop offset="0.263542" stop-color="#06124A"/>
<stop offset="0.508333" stop-opacity="0.74"/>
<stop offset="0.753125" stop-color="#0E1430" stop-opacity="0"/>
<stop offset="1" stop-color="#210593" stop-opacity="0.49"/>
</radialGradient>
<radialGradient id="paint46_radial_496_2508" cx="0" cy="0" r="1" gradientUnits="userSpaceOnUse" gradientTransform="translate(726.32 407.982) rotate(40.1768) scale(765.797 124.842)">
<stop stop-color="#C4FF96"/>
<stop offset="0.263542" stop-color="#06124A"/>
<stop offset="0.508333" stop-opacity="0.74"/>
<stop offset="0.753125" stop-color="#0E1430" stop-opacity="0"/>
<stop offset="1" stop-color="#210593" stop-opacity="0.49"/>
</radialGradient>
<radialGradient id="paint47_radial_496_2508" cx="0" cy="0" r="1" gradientUnits="userSpaceOnUse" gradientTransform="translate(739.536 395.737) rotate(40.1768) scale(763.575 126.8)">
<stop stop-color="#C4FF96"/>
<stop offset="0.263542" stop-color="#06124A"/>
<stop offset="0.508333" stop-opacity="0.74"/>
<stop offset="0.753125" stop-color="#0E1430" stop-opacity="0"/>
<stop offset="1" stop-color="#210593" stop-opacity="0.49"/>
</radialGradient>
<radialGradient id="paint48_radial_496_2508" cx="0" cy="0" r="1" gradientUnits="userSpaceOnUse" gradientTransform="translate(752.958 381.176) rotate(40.1768) scale(762.835 127.884)">
<stop stop-color="#C4FF96"/>
<stop offset="0.263542" stop-color="#06124A"/>
<stop offset="0.508333" stop-opacity="0.74"/>
<stop offset="0.753125" stop-color="#0E1430" stop-opacity="0"/>
<stop offset="1" stop-color="#210593" stop-opacity="0.49"/>
</radialGradient>
<radialGradient id="paint49_radial_496_2508" cx="0" cy="0" r="1" gradientUnits="userSpaceOnUse" gradientTransform="translate(766.364 363.644) rotate(40.1768) scale(763.427 126.459)">
<stop stop-color="#C4FF96"/>
<stop offset="0.263542" stop-color="#06124A"/>
<stop offset="0.508333" stop-opacity="0.74"/>
<stop offset="0.753125" stop-color="#0E1430" stop-opacity="0"/>
<stop offset="1" stop-color="#210593" stop-opacity="0.49"/>
</radialGradient>
<radialGradient id="paint50_radial_496_2508" cx="0" cy="0" r="1" gradientUnits="userSpaceOnUse" gradientTransform="translate(778.824 345.628) rotate(40.1768) scale(765.797 123.199)">
<stop stop-color="#C4FF96"/>
<stop offset="0.263542" stop-color="#06124A"/>
<stop offset="0.508333" stop-opacity="0.74"/>
<stop offset="0.753125" stop-color="#0E1430" stop-opacity="0"/>
<stop offset="1" stop-color="#210593" stop-opacity="0.49"/>
</radialGradient>
<radialGradient id="paint51_radial_496_2508" cx="0" cy="0" r="1" gradientUnits="userSpaceOnUse" gradientTransform="translate(789.641 327.26) rotate(40.1768) scale(769.203 118.612)">
<stop stop-color="#C4FF96"/>
<stop offset="0.263542" stop-color="#06124A"/>
<stop offset="0.508333" stop-opacity="0.74"/>
<stop offset="0.753125" stop-color="#0E1430" stop-opacity="0"/>
<stop offset="1" stop-color="#210593" stop-opacity="0.49"/>
</radialGradient>
<radialGradient id="paint52_radial_496_2508" cx="0" cy="0" r="1" gradientUnits="userSpaceOnUse" gradientTransform="translate(800.211 308.035) rotate(40.1768) scale(773.795 112.226)">
<stop stop-color="#C4FF96"/>
<stop offset="0.263542" stop-color="#06124A"/>
<stop offset="0.508333" stop-opacity="0.74"/>
<stop offset="0.753125" stop-color="#0E1430" stop-opacity="0"/>
<stop offset="1" stop-color="#210593" stop-opacity="0.49"/>
</radialGradient>
<radialGradient id="paint53_radial_496_2508" cx="0" cy="0" r="1" gradientUnits="userSpaceOnUse" gradientTransform="translate(809.795 288.262) rotate(40.1768) scale(779.053 104.505)">
<stop stop-color="#304BCA"/>
<stop offset="0.263542" stop-color="#06124A"/>
<stop offset="0.508333" stop-opacity="0.7"/>
<stop offset="0.753125" stop-color="#0E1430"/>
<stop offset="1" stop-color="#210593"/>
</radialGradient>
<radialGradient id="paint54_radial_496_2508" cx="0" cy="0" r="1" gradientUnits="userSpaceOnUse" gradientTransform="translate(819.015 268.003) rotate(40.1768) scale(784.903 96.4148)">
<stop stop-color="#C4FF96"/>
<stop offset="0.263542" stop-color="#06124A"/>
<stop offset="0.508333" stop-opacity="0.74"/>
<stop offset="0.753125" stop-color="#0E1430" stop-opacity="0"/>
<stop offset="1" stop-color="#210593" stop-opacity="0.49"/>
</radialGradient>
<radialGradient id="paint55_radial_496_2508" cx="0" cy="0" r="1" gradientUnits="userSpaceOnUse" gradientTransform="translate(828.013 247.431) rotate(40.1768) scale(791.272 88.0748)">
<stop stop-color="#C4FF96"/>
<stop offset="0.263542" stop-color="#06124A"/>
<stop offset="0.508333" stop-opacity="0.74"/>
<stop offset="0.753125" stop-color="#0E1430" stop-opacity="0"/>
<stop offset="1" stop-color="#210593" stop-opacity="0.49"/>
</radialGradient>
<radialGradient id="paint56_radial_496_2508" cx="0" cy="0" r="1" gradientUnits="userSpaceOnUse" gradientTransform="translate(835.306 228.539) rotate(40.1768) scale(797.863 77.7579)">
<stop stop-color="#C4FF96"/>
<stop offset="0.263542" stop-color="#06124A"/>
<stop offset="0.508333" stop-opacity="0.74"/>
<stop offset="0.753125" stop-color="#0E1430" stop-opacity="0"/>
<stop offset="1" stop-color="#210593" stop-opacity="0.49"/>
</radialGradient>
<radialGradient id="paint57_radial_496_2508" cx="0" cy="0" r="1" gradientUnits="userSpaceOnUse" gradientTransform="translate(843.985 208.339) rotate(40.1768) scale(804.527 70.185)">
<stop stop-color="#C4FF96"/>
<stop offset="0.263542" stop-color="#06124A"/>
<stop offset="0.508333" stop-opacity="0.74"/>
<stop offset="0.753125" stop-color="#0E1430" stop-opacity="0"/>
<stop offset="1" stop-color="#210593" stop-opacity="0.49"/>
</radialGradient>
<radialGradient id="paint58_radial_496_2508" cx="0" cy="0" r="1" gradientUnits="userSpaceOnUse" gradientTransform="translate(851.326 189.621) rotate(40.1768) scale(810.822 64.7388)">
<stop stop-color="#C4FF96"/>
<stop offset="0.263542" stop-color="#06124A"/>
<stop offset="0.508333" stop-opacity="0.74"/>
<stop offset="0.753125" stop-color="#0E1430" stop-opacity="0"/>
<stop offset="1" stop-color="#210593" stop-opacity="0.49"/>
</radialGradient>
<radialGradient id="paint59_radial_496_2508" cx="0" cy="0" r="1" gradientUnits="userSpaceOnUse" gradientTransform="translate(854.48 176.675) rotate(40.1768) scale(816.746 66.7328)">
<stop stop-color="#C4FF96"/>
<stop offset="0.263542" stop-color="#06124A"/>
<stop offset="0.508333" stop-opacity="0.74"/>
<stop offset="0.753125" stop-color="#0E1430" stop-opacity="0"/>
<stop offset="1" stop-color="#210593" stop-opacity="0.49"/>
</radialGradient>
<radialGradient id="paint60_radial_496_2508" cx="0" cy="0" r="1" gradientUnits="userSpaceOnUse" gradientTransform="translate(858.881 163.174) rotate(40.1768) scale(822.078 68.7495)">
<stop stop-color="#C4FF96"/>
<stop offset="0.263542" stop-color="#06124A"/>
<stop offset="0.508333" stop-opacity="0.74"/>
<stop offset="0.753125" stop-color="#0E1430" stop-opacity="0"/>
<stop offset="1" stop-color="#210593" stop-opacity="0.49"/>
</radialGradient>
<radialGradient id="paint61_radial_496_2508" cx="0" cy="0" r="1" gradientUnits="userSpaceOnUse" gradientTransform="translate(864.647 149.307) rotate(40.1768) scale(826.596 70.5247)">
<stop stop-color="#C4FF96"/>
<stop offset="0.263542" stop-color="#06124A"/>
<stop offset="0.508333" stop-opacity="0.74"/>
<stop offset="0.753125" stop-color="#0E1430" stop-opacity="0"/>
<stop offset="1" stop-color="#210593" stop-opacity="0.49"/>
</radialGradient>
<radialGradient id="paint62_radial_496_2508" cx="0" cy="0" r="1" gradientUnits="userSpaceOnUse" gradientTransform="translate(872.267 134.852) rotate(40.1768) scale(830.076 71.7364)">
<stop stop-color="#C4FF96"/>
<stop offset="0.263542" stop-color="#06124A"/>
<stop offset="0.508333" stop-opacity="0.74"/>
<stop offset="0.753125" stop-color="#0E1430" stop-opacity="0"/>
<stop offset="1" stop-color="#210593" stop-opacity="0.49"/>
</radialGradient>
<radialGradient id="paint63_radial_496_2508" cx="0" cy="0" r="1" gradientUnits="userSpaceOnUse" gradientTransform="translate(881.809 120.071) rotate(40.1768) scale(832.298 72.6347)">
<stop stop-color="#081554"/>
<stop offset="0.2" stop-color="#0E1C60"/>
<stop offset="0.4" stop-color="#06124A"/>
<stop offset="0.6" stop-color="#0E1430"/>
<stop offset="0.8" stop-color="#070223"/>
<stop offset="1" stop-color="#0A0716"/>
</radialGradient>
<radialGradient id="paint64_radial_496_2508" cx="0" cy="0" r="1" gradientUnits="userSpaceOnUse" gradientTransform="translate(893.884 104.474) rotate(40.1768) scale(833.113 73.4354)">
<stop stop-color="#C4FF96"/>
<stop offset="0.263542" stop-color="#06124A"/>
<stop offset="0.508333" stop-opacity="0.74"/>
<stop offset="0.753125" stop-color="#0E1430" stop-opacity="0"/>
<stop offset="1" stop-color="#210593" stop-opacity="0.49"/>
</radialGradient>
<radialGradient id="paint65_radial_496_2508" cx="0" cy="0" r="1" gradientUnits="userSpaceOnUse" gradientTransform="translate(908.268 87.2761) rotate(40.1768) scale(833.038 72.1303)">
<stop stop-color="#C4FF96"/>
<stop offset="0.263542" stop-color="#06124A"/>
<stop offset="0.508333" stop-opacity="0.74"/>
<stop offset="0.753125" stop-color="#0E1430" stop-opacity="0"/>
<stop offset="1" stop-color="#210593" stop-opacity="0.49"/>
</radialGradient>
<radialGradient id="paint66_radial_496_2508" cx="0" cy="0" r="1" gradientUnits="userSpaceOnUse" gradientTransform="translate(922.923 70.1034) rotate(40.1768) scale(833.186 72.001)">
<stop stop-color="#C4FF96"/>
<stop offset="0.263542" stop-color="#06124A"/>
<stop offset="0.508333" stop-opacity="0.74"/>
<stop offset="0.753125" stop-color="#0E1430" stop-opacity="0"/>
<stop offset="1" stop-color="#210593" stop-opacity="0.49"/>
</radialGradient>
<radialGradient id="paint67_radial_496_2508" cx="0" cy="0" r="1" gradientUnits="userSpaceOnUse" gradientTransform="translate(935.702 54.6927) rotate(40.1768) scale(833.038 73.2531)">
<stop stop-color="#C4FF96"/>
<stop offset="0.263542" stop-color="#06124A"/>
<stop offset="0.508333" stop-opacity="0.74"/>
<stop offset="0.753125" stop-color="#0E1430" stop-opacity="0"/>
<stop offset="1" stop-color="#210593" stop-opacity="0.49"/>
</radialGradient>
<radialGradient id="paint68_radial_496_2508" cx="0" cy="0" r="1" gradientUnits="userSpaceOnUse" gradientTransform="translate(948.515 39.7011) rotate(40.1768) scale(833.186 74.8478)">
<stop stop-color="#C4FF96"/>
<stop offset="0.263542" stop-color="#06124A"/>
<stop offset="0.508333" stop-opacity="0.74"/>
<stop offset="0.753125" stop-color="#0E1430" stop-opacity="0"/>
<stop offset="1" stop-color="#210593" stop-opacity="0.49"/>
</radialGradient>
<radialGradient id="paint69_radial_496_2508" cx="0" cy="0" r="1" gradientUnits="userSpaceOnUse" gradientTransform="translate(960.742 25.0662) rotate(40.1768) scale(833.113 76.8053)">
<stop stop-color="#C4FF96"/>
<stop offset="0.263542" stop-color="#06124A"/>
<stop offset="0.508333" stop-opacity="0.74"/>
<stop offset="0.753125" stop-color="#0E1430" stop-opacity="0"/>
<stop offset="1" stop-color="#210593" stop-opacity="0.49"/>
</radialGradient>
<radialGradient id="paint70_radial_496_2508" cx="0" cy="0" r="1" gradientUnits="userSpaceOnUse" gradientTransform="translate(972.894 10.639) rotate(40.1768) scale(833.113 78.9212)">
<stop stop-color="#C4FF96"/>
<stop offset="0.263542" stop-color="#06124A"/>
<stop offset="0.508333" stop-opacity="0.74"/>
<stop offset="0.753125" stop-color="#0E1430" stop-opacity="0"/>
<stop offset="1" stop-color="#210593" stop-opacity="0.49"/>
</radialGradient>
<radialGradient id="paint71_radial_496_2508" cx="0" cy="0" r="1" gradientUnits="userSpaceOnUse" gradientTransform="translate(985.41 -4.23411) rotate(40.1768) scale(833.113 80.7163)">
<stop stop-color="#C4FF96"/>
<stop offset="0.263542" stop-color="#06124A"/>
<stop offset="0.508333" stop-opacity="0.74"/>
<stop offset="0.753125" stop-color="#0E1430" stop-opacity="0"/>
<stop offset="1" stop-color="#210593" stop-opacity="0.49"/>
</radialGradient>
<radialGradient id="paint72_radial_496_2508" cx="0" cy="0" r="1" gradientUnits="userSpaceOnUse" gradientTransform="translate(997.498 -18.4664) rotate(40.1768) scale(833.186 83.1557)">
<stop stop-color="#C4FF96"/>
<stop offset="0.263542" stop-color="#06124A"/>
<stop offset="0.508333" stop-opacity="0.74"/>
<stop offset="0.753125" stop-color="#0E1430" stop-opacity="0"/>
<stop offset="1" stop-color="#210593" stop-opacity="0.49"/>
</radialGradient>
<radialGradient id="paint73_radial_496_2508" cx="0" cy="0" r="1" gradientUnits="userSpaceOnUse" gradientTransform="translate(1009.37 -32.6861) rotate(40.1768) scale(833.113 85.5533)">
<stop stop-color="#C4FF96"/>
<stop offset="0.263542" stop-color="#06124A"/>
<stop offset="0.508333" stop-opacity="0.74"/>
<stop offset="0.753125" stop-color="#0E1430" stop-opacity="0"/>
<stop offset="1" stop-color="#210593" stop-opacity="0.49"/>
</radialGradient>
<radialGradient id="paint74_radial_496_2508" cx="0" cy="0" r="1" gradientUnits="userSpaceOnUse" gradientTransform="translate(1021.47 -47.0483) rotate(40.1768) scale(833.113 88.2533)">
<stop stop-color="#C4FF96"/>
<stop offset="0.263542" stop-color="#06124A"/>
<stop offset="0.508333" stop-opacity="0.74"/>
<stop offset="0.753125" stop-color="#0E1430" stop-opacity="0"/>
<stop offset="1" stop-color="#210593" stop-opacity="0.49"/>
</radialGradient>
<radialGradient id="paint75_radial_496_2508" cx="0" cy="0" r="1" gradientUnits="userSpaceOnUse" gradientTransform="translate(1033.73 -61.6136) rotate(40.1768) scale(833.113 90.6903)">
<stop stop-color="#C4FF96"/>
<stop offset="0.263542" stop-color="#06124A"/>
<stop offset="0.508333" stop-opacity="0.74"/>
<stop offset="0.753125" stop-color="#0E1430" stop-opacity="0"/>
<stop offset="1" stop-color="#210593" stop-opacity="0.49"/>
</radialGradient>
<radialGradient id="paint76_radial_496_2508" cx="0" cy="0" r="1" gradientUnits="userSpaceOnUse" gradientTransform="translate(1046.28 -76.5112) rotate(40.1768) scale(833.113 92.8441)">
<stop stop-color="#C4FF96"/>
<stop offset="0.263542" stop-color="#06124A"/>
<stop offset="0.508333" stop-opacity="0.74"/>
<stop offset="0.753125" stop-color="#0E1430" stop-opacity="0"/>
<stop offset="1" stop-color="#210593" stop-opacity="0.49"/>
</radialGradient>
<radialGradient id="paint77_radial_496_2508" cx="0" cy="0" r="1" gradientUnits="userSpaceOnUse" gradientTransform="translate(1058.87 -91.4752) rotate(40.1768) scale(833.113 94.7555)">
<stop stop-color="#C4FF96"/>
<stop offset="0.263542" stop-color="#06124A"/>
<stop offset="0.508333" stop-opacity="0.74"/>
<stop offset="0.753125" stop-color="#0E1430" stop-opacity="0"/>
<stop offset="1" stop-color="#210593" stop-opacity="0.49"/>
</radialGradient>
<radialGradient id="paint78_radial_496_2508" cx="0" cy="0" r="1" gradientUnits="userSpaceOnUse" gradientTransform="translate(1071.76 -106.775) rotate(40.1768) scale(833.113 96.2323)">
<stop stop-color="#C4FF96"/>
<stop offset="0.263542" stop-color="#06124A"/>
<stop offset="0.508333" stop-opacity="0.74"/>
<stop offset="0.753125" stop-color="#0E1430" stop-opacity="0"/>
<stop offset="1" stop-color="#210593" stop-opacity="0.49"/>
</radialGradient>
<radialGradient id="paint79_radial_496_2508" cx="0" cy="0" r="1" gradientUnits="userSpaceOnUse" gradientTransform="translate(1084.73 -122.293) rotate(40.1768) scale(833.038 97.3303)">
<stop stop-color="#C4FF96"/>
<stop offset="0.263542" stop-color="#06124A"/>
<stop offset="0.508333" stop-opacity="0.74"/>
<stop offset="0.753125" stop-color="#0E1430" stop-opacity="0"/>
<stop offset="1" stop-color="#210593" stop-opacity="0.49"/>
</radialGradient>
<radialGradient id="paint80_radial_496_2508" cx="0" cy="0" r="1" gradientUnits="userSpaceOnUse" gradientTransform="translate(1098.47 -138.377) rotate(40.1768) scale(833.186 97.6593)">
<stop stop-color="#C4FF96"/>
<stop offset="0.263542" stop-color="#06124A"/>
<stop offset="0.508333" stop-opacity="0.74"/>
<stop offset="0.753125" stop-color="#0E1430" stop-opacity="0"/>
<stop offset="1" stop-color="#210593" stop-opacity="0.49"/>
</radialGradient>
<radialGradient id="paint81_radial_496_2508" cx="0" cy="0" r="1" gradientUnits="userSpaceOnUse" gradientTransform="translate(1113.15 -154.095) rotate(40.1768) scale(831.928 97.8011)">
<stop stop-color="#C4FF96"/>
<stop offset="0.263542" stop-color="#06124A"/>
<stop offset="0.508333" stop-opacity="0.74"/>
<stop offset="0.753125" stop-color="#0E1430" stop-opacity="0"/>
<stop offset="1" stop-color="#210593" stop-opacity="0.49"/>
</radialGradient>
<radialGradient id="paint82_radial_496_2508" cx="0" cy="0" r="1" gradientUnits="userSpaceOnUse" gradientTransform="translate(1129.25 -167.809) rotate(40.1768) scale(828.447 98.2652)">
<stop stop-color="#C4FF96"/>
<stop offset="0.263542" stop-color="#06124A"/>
<stop offset="0.508333" stop-opacity="0.74"/>
<stop offset="0.753125" stop-color="#0E1430" stop-opacity="0"/>
<stop offset="1" stop-color="#210593" stop-opacity="0.49"/>
</radialGradient>
<radialGradient id="paint83_radial_496_2508" cx="0" cy="0" r="1" gradientUnits="userSpaceOnUse" gradientTransform="translate(1146.98 -180.355) rotate(40.1768) scale(822.967 98.7187)">
<stop stop-color="#C4FF96"/>
<stop offset="0.263542" stop-color="#06124A"/>
<stop offset="0.508333" stop-opacity="0.74"/>
<stop offset="0.753125" stop-color="#0E1430" stop-opacity="0"/>
<stop offset="1" stop-color="#210593" stop-opacity="0.49"/>
</radialGradient>
<radialGradient id="paint84_radial_496_2508" cx="0" cy="0" r="1" gradientUnits="userSpaceOnUse" gradientTransform="translate(1165.74 -191.598) rotate(40.1768) scale(815.858 99.3527)">
<stop stop-color="#C4FF96"/>
<stop offset="0.263542" stop-color="#06124A"/>
<stop offset="0.508333" stop-opacity="0.74"/>
<stop offset="0.753125" stop-color="#0E1430" stop-opacity="0"/>
<stop offset="1" stop-color="#210593" stop-opacity="0.49"/>
</radialGradient>
<radialGradient id="paint85_radial_496_2508" cx="0" cy="0" r="1" gradientUnits="userSpaceOnUse" gradientTransform="translate(1185.49 -201.948) rotate(40.1768) scale(807.416 100.181)">
<stop stop-color="#C4FF96"/>
<stop offset="0.263542" stop-color="#06124A"/>
<stop offset="0.508333" stop-opacity="0.74"/>
<stop offset="0.753125" stop-color="#0E1430" stop-opacity="0"/>
<stop offset="1" stop-color="#210593" stop-opacity="0.49"/>
</radialGradient>
<radialGradient id="paint86_radial_496_2508" cx="0" cy="0" r="1" gradientUnits="userSpaceOnUse" gradientTransform="translate(1206.04 -211.75) rotate(40.1768) scale(798.011 101.078)">
<stop stop-color="#C4FF96"/>
<stop offset="0.263542" stop-color="#06124A"/>
<stop offset="0.508333" stop-opacity="0.74"/>
<stop offset="0.753125" stop-color="#0E1430" stop-opacity="0"/>
<stop offset="1" stop-color="#210593" stop-opacity="0.49"/>
</radialGradient>
<radialGradient id="paint87_radial_496_2508" cx="0" cy="0" r="1" gradientUnits="userSpaceOnUse" gradientTransform="translate(1227.56 -221.551) rotate(40.1768) scale(788.013 101.312)">
<stop stop-color="#C4FF96"/>
<stop offset="0.263542" stop-color="#06124A"/>
<stop offset="0.508333" stop-opacity="0.74"/>
<stop offset="0.753125" stop-color="#0E1430" stop-opacity="0"/>
<stop offset="1" stop-color="#210593" stop-opacity="0.49"/>
</radialGradient>
<radialGradient id="paint88_radial_496_2508" cx="0" cy="0" r="1" gradientUnits="userSpaceOnUse" gradientTransform="translate(1248.62 -230.704) rotate(40.1768) scale(777.498 102.205)">
<stop stop-color="#C4FF96"/>
<stop offset="0.263542" stop-color="#06124A"/>
<stop offset="0.508333" stop-opacity="0.74"/>
<stop offset="0.753125" stop-color="#0E1430" stop-opacity="0"/>
<stop offset="1" stop-color="#210593" stop-opacity="0.49"/>
</radialGradient>
<radialGradient id="paint89_radial_496_2508" cx="0" cy="0" r="1" gradientUnits="userSpaceOnUse" gradientTransform="translate(1269.83 -239.442) rotate(40.1768) scale(767.204 103.18)">
<stop stop-color="#C4FF96"/>
<stop offset="0.263542" stop-color="#06124A"/>
<stop offset="0.508333" stop-opacity="0.74"/>
<stop offset="0.753125" stop-color="#0E1430" stop-opacity="0"/>
<stop offset="1" stop-color="#210593" stop-opacity="0.49"/>
</radialGradient>
<radialGradient id="paint90_radial_496_2508" cx="0" cy="0" r="1" gradientUnits="userSpaceOnUse" gradientTransform="translate(1290.89 -248.835) rotate(40.1768) scale(756.984 104.032)">
<stop stop-color="#C4FF96"/>
<stop offset="0.263542" stop-color="#06124A"/>
<stop offset="0.508333" stop-opacity="0.74"/>
<stop offset="0.753125" stop-color="#0E1430" stop-opacity="0"/>
<stop offset="1" stop-color="#210593" stop-opacity="0.49"/>
</radialGradient>
<radialGradient id="paint91_radial_496_2508" cx="0" cy="0" r="1" gradientUnits="userSpaceOnUse" gradientTransform="translate(1311.41 -258.245) rotate(40.1768) scale(747.654 104.937)">
<stop stop-color="#C4FF96"/>
<stop offset="0.263542" stop-color="#06124A"/>
<stop offset="0.508333" stop-opacity="0.74"/>
<stop offset="0.753125" stop-color="#0E1430" stop-opacity="0"/>
<stop offset="1" stop-color="#210593" stop-opacity="0.49"/>
</radialGradient>
<radialGradient id="paint92_radial_496_2508" cx="0" cy="0" r="1" gradientUnits="userSpaceOnUse" gradientTransform="translate(1330.99 -268.745) rotate(40.1768) scale(738.989 105.757)">
<stop stop-color="#C4FF96"/>
<stop offset="0.263542" stop-color="#06124A"/>
<stop offset="0.508333" stop-opacity="0.74"/>
<stop offset="0.753125" stop-color="#0E1430" stop-opacity="0"/>
<stop offset="1" stop-color="#210593" stop-opacity="0.49"/>
</radialGradient>
<radialGradient id="paint93_radial_496_2508" cx="0" cy="0" r="1" gradientUnits="userSpaceOnUse" gradientTransform="translate(1349.42 -279.361) rotate(40.1768) scale(731.88 107.383)">
<stop stop-color="#C4FF96"/>
<stop offset="0.263542" stop-color="#06124A"/>
<stop offset="0.508333" stop-opacity="0.74"/>
<stop offset="0.753125" stop-color="#0E1430" stop-opacity="0"/>
<stop offset="1" stop-color="#210593" stop-opacity="0.49"/>
</radialGradient>
<radialGradient id="paint94_radial_496_2508" cx="0" cy="0" r="1" gradientUnits="userSpaceOnUse" gradientTransform="translate(1363.75 -287.521) rotate(40.1768) scale(726.326 113.234)">
<stop stop-color="#C4FF96"/>
<stop offset="0.263542" stop-color="#06124A"/>
<stop offset="0.508333" stop-opacity="0.74"/>
<stop offset="0.753125" stop-color="#0E1430" stop-opacity="0"/>
<stop offset="1" stop-color="#210593" stop-opacity="0.49"/>
</radialGradient>
<radialGradient id="paint95_radial_496_2508" cx="0" cy="0" r="1" gradientUnits="userSpaceOnUse" gradientTransform="translate(1377.87 -298.661) rotate(40.1768) scale(722.697 117.085)">
<stop stop-color="#C4FF96"/>
<stop offset="0.263542" stop-color="#06124A"/>
<stop offset="0.508333" stop-opacity="0.74"/>
<stop offset="0.753125" stop-color="#0E1430" stop-opacity="0"/>
<stop offset="1" stop-color="#210593" stop-opacity="0.49"/>
</radialGradient>
<radialGradient id="paint96_radial_496_2508" cx="0" cy="0" r="1" gradientUnits="userSpaceOnUse" gradientTransform="translate(1391.76 -313.2) rotate(40.1768) scale(721.29 118.492)">
<stop stop-color="#C4FF96"/>
<stop offset="0.263542" stop-color="#06124A"/>
<stop offset="0.508333" stop-opacity="0.74"/>
<stop offset="0.753125" stop-color="#0E1430" stop-opacity="0"/>
<stop offset="1" stop-color="#210593" stop-opacity="0.49"/>
</radialGradient>
</defs>
</svg>
