<svg xmlns="http://www.w3.org/2000/svg" viewBox="0 0 704.1 105.17" xmlns:v="https://vecta.io/nano"><defs><linearGradient id="A" x1="59.62" y1="128.67" x2="59.62" y2="-17.01" gradientUnits="userSpaceOnUse"><stop offset="0" stop-color="#005de8"/><stop offset="1" stop-color="#0999f6"/></linearGradient></defs><path d="M0 0h81.04l38.19 51-40.56 54.17H22.02L86.99 18.4H55.03L34.4 45.95 0 0z" fill="url(#A)"/><path d="M411.65 32.96c-18.09 0-32.76 14.26-32.76 31.85s14.67 31.84 32.76 31.84 32.76-14.25 32.76-31.84-14.66-31.85-32.76-31.85zm0 52.24c-11.58 0-21-9.13-21-20.39s9.4-20.39 21-20.39 21 9.13 21 20.39-9.41 20.39-21 20.39zM226.87 32.97h11.28v63.69h-11.28zm0-24.46h11.28v14.82h-11.28zm70.35 42.44h-10.71q-.48-9.17-12.26-9.16c-4.05 0-7.25.77-9.58 2.32a7.13 7.13 0 0 0-3.52 6.24q0 6 11.31 8.57l9.4 2.15q9.16 2.13 13.21 6.07c2.7 2.61 4.05 6.19 4.05 10.71a16.23 16.23 0 0 1-6.78 13.73q-6.79 5.07-18.33 5.06-12.62 0-19.16-6a17.63 17.63 0 0 1-5.84-13h11.04a14.08 14.08 0 0 0 2.62 6.07q3.21 3.81 12 3.81 6.55 0 10.42-2.44a7.4 7.4 0 0 0 3.96-6.4q0-6.08-9.4-8.33l-9.16-2.14q-10.49-2.5-14.64-6-4.8-3.88-4.8-11.26a15.76 15.76 0 0 1 6.37-13.21q6.36-4.87 17.07-4.88 11.19 0 17.38 5.59a16.17 16.17 0 0 1 5.35 12.5zm40.7 34.23c-11.6 0-21-9.15-21-20.42s9.41-20.43 21-20.43a21 21 0 0 1 19.91 13.87h12.22c-3.12-14.47-16.31-25.34-32.13-25.34-18.12 0-32.81 14.28-32.81 31.9s14.69 31.89 32.81 31.89c16 0 29.36-11.16 32.24-25.92h-12.11a21 21 0 0 1-20.13 14.45zm165.54-51.73l-22.92 63.2h-13.17l-23-63.2h13.21l16 48.64h.66l16-48.64zm6.26 37.01h58.92a31 31 0 0 0 .54-5.74c0-17.64-14.71-31.94-32.86-31.94s-32.86 14.3-32.86 31.94 14.71 31.93 32.86 31.93a32.83 32.83 0 0 0 30.9-21.07h-13.09a21.35 21.35 0 0 1-35.94-.53 4 4 0 0 0-3.37-1.89h-5.1zm26.6-26.19a21 21 0 0 1 20.19 14.7h-40.38a21 21 0 0 1 20.19-14.7zm113.54-11.41a23 23 0 0 0-14.4 5.06v-4.48h-12.41v63.2h12.38v-46.8a4 4 0 0 0-4-4h-2.21v-2.26h29.5v-9a23 23 0 0 0-8.86-1.72zm45.34 0a23 23 0 0 0-14.4 5.06v-4.48h-12.42v63.2h12.39v-46.8a4 4 0 0 0-4-4h-2.21v-2.26h29.5v-9a23 23 0 0 0-8.86-1.72zm-90.67 0a23 23 0 0 0-14.4 5.06v-4.48h-12.42v63.2h12.39v-46.8a4 4 0 0 0-3.95-4h-2.22v-2.26h29.5v-9a22.91 22.91 0 0 0-8.9-1.72zm-393.18-3.97a35.2 35.2 0 0 0-14.3-15.11q-9.3-5.26-22.26-5.27h-29.4v88.14h28.54q13.42 0 22.9-5.31a35.38 35.38 0 0 0 14.48-15.22q5-9.9 5-23.67 0-13.77-4.96-23.56zm-11.42 41.27a23.71 23.71 0 0 1-10 11.06q-6.67 3.81-16.74 3.81h-14.5V26.46a4 4 0 0 0-4-4h-3.05v-2.3h22.41q9.63 0 16.14 3.74a23.6 23.6 0 0 1 9.79 11q3.28 7.23 3.29 17.6.01 10.37-3.34 17.66z" fill="#080c29"/></svg>