<svg xmlns="http://www.w3.org/2000/svg" width="467" height="11" fill="none" xmlns:v="https://vecta.io/nano"><style><![CDATA[.B{fill-opacity:.3}.C{fill-opacity:.9}.D{fill-opacity:.6}]]></style><g fill-rule="evenodd" fill="#fff"><path d="M0 10V0h1v10H0z" class="C"/><path d="M93 10V0h1v10h-1zm93 0V0h1v10h-1zm93.182 0V0h1v10h-1zm93 0V0h1v10h-1zM465 10V0h1v10h-1z"/><path d="M9.3 9.328v-8h1v8h-1zm9.305 0v-8h1v8h-1zm9.321 0v-8h1v8h-1zm9.305 0v-8h1v8h-1z" class="B"/><path d="M46.5 9.328v-8h1v8h-1z" class="D"/><path d="M55.856 9.322v-8h1v8h-1zm9.322.006v-8h1v8h-1zm9.304 0v-8h1v8h-1zm9.322 0v-8h1v8h-1z" class="B"/><path d="M93 10.328v-10h1v10h-1z" class="C"/><path d="M186 10.328v-10h1v10h-1z"/><path d="M102.3 9.656v-8h1v8h-1zm9.304 0v-8h1v8h-1zm9.322 0v-8h1v8h-1zm9.304 0v-8h1v8h-1z" class="B"/><path d="M139.5 9.656v-8h1v8h-1z" class="D"/><path d="M148.856 9.65v-8h1v8h-1zm9.322.006v-8h1v8h-1zm9.304 0v-8h1v8h-1zm9.322 0v-8h1v8h-1z" class="B"/><path d="M279.182 10V0h1v10h-1z" class="C"/><path d="M372.182 10V0h1v10h-1z"/><path d="M288.481 9.328v-8h1v8h-1zm9.305 0v-8h1v8h-1zm9.321 0v-8h1v8h-1zm9.305 0v-8h1v8h-1z" class="B"/><path d="M325.682 9.328v-8h1v8h-1z" class="D"/><path d="M335.038 9.322v-8h1v8h-1zm9.321.006v-8h1v8h-1zm9.305 0v-8h1v8h-1zm9.321 0v-8h1v8h-1z" class="B"/><path d="M372.363 10V0h1v10h-1zm93 0V0h1v10h-1z"/><path d="M372.363 10V0h1v10h-1zm93 0V0h1v10h-1z" class="C"/><path d="M381.663 9.328v-8h1v8h-1zm9.305 0v-8h1v8h-1zm9.321 0v-8h1v8h-1zm9.305 0v-8h1v8h-1z" class="B"/><path d="M418.863 9.328v-8h1v8h-1z" class="D"/><path d="M428.22 9.322v-8h1v8h-1zm9.321.006v-8h1v8h-1zm9.305 0v-8h1v8h-1zm9.321 0v-8h1v8h-1z" class="B"/><path d="M186.182 10.328v-10h1v10h-1z" class="C"/><path d="M195.481 9.656v-8h1v8h-1zm9.305 0v-8h1v8h-1zm9.321 0v-8h1v8h-1zm9.305 0v-8h1v8h-1z" class="B"/><path d="M232.682 9.656v-8h1v8h-1z" class="D"/><path d="M242.038 9.65v-8h1v8h-1zm9.321.006v-8h1v8h-1zm9.305 0v-8h1v8h-1zm9.321 0v-8h1v8h-1z" class="B"/></g></svg>