<svg width="467" height="10" viewBox="0 0 467 10" fill="none" xmlns="http://www.w3.org/2000/svg">
<line x1="1.00391" x2="1.00391" y2="10" stroke="white"/>
<line x1="94.0039" x2="94.0039" y2="10" stroke="white"/>
<line x1="187.004" x2="187.004" y2="10" stroke="white"/>
<line x1="280.004" x2="280.004" y2="10" stroke="white"/>
<line x1="373.004" x2="373.004" y2="10" stroke="white"/>
<line x1="466.004" x2="466.004" y2="10" stroke="white"/>
<line x1="40.5039" y1="1.32812" x2="40.5039" y2="9.32812" stroke="white" stroke-opacity="0.3"/>
<line x1="33.5039" y1="1.32812" x2="33.5039" y2="9.32812" stroke="white" stroke-opacity="0.3"/>
<line x1="19.5039" y1="1.32812" x2="19.5039" y2="9.32812" stroke="white" stroke-opacity="0.3"/>
<line x1="26.5039" y1="1.32812" x2="26.5039" y2="9.32812" stroke="white" stroke-opacity="0.3"/>
<line x1="47.5039" y1="1" x2="47.5039" y2="9" stroke="white" stroke-opacity="0.5"/>
<line x1="68.5039" y1="1.32812" x2="68.5039" y2="9.32812" stroke="white" stroke-opacity="0.3"/>
<line x1="61.5039" y1="1.32812" x2="61.5039" y2="9.32812" stroke="white" stroke-opacity="0.3"/>
<line x1="54.5039" y1="1.32812" x2="54.5039" y2="9.32812" stroke="white" stroke-opacity="0.3"/>
<line x1="75.5039" y1="1.32812" x2="75.5039" y2="9.32812" stroke="white" stroke-opacity="0.3"/>
<line x1="133.504" y1="1.32812" x2="133.504" y2="9.32812" stroke="white" stroke-opacity="0.3"/>
<line x1="126.504" y1="1.32812" x2="126.504" y2="9.32812" stroke="white" stroke-opacity="0.3"/>
<line x1="112.504" y1="1.32812" x2="112.504" y2="9.32812" stroke="white" stroke-opacity="0.3"/>
<line x1="119.504" y1="1.32812" x2="119.504" y2="9.32812" stroke="white" stroke-opacity="0.3"/>
<line x1="140.504" y1="1" x2="140.504" y2="9" stroke="white" stroke-opacity="0.5"/>
<line x1="161.504" y1="1.32812" x2="161.504" y2="9.32812" stroke="white" stroke-opacity="0.3"/>
<line x1="154.504" y1="1.32812" x2="154.504" y2="9.32812" stroke="white" stroke-opacity="0.3"/>
<line x1="147.504" y1="1.32812" x2="147.504" y2="9.32812" stroke="white" stroke-opacity="0.3"/>
<line x1="168.504" y1="1.32812" x2="168.504" y2="9.32812" stroke="white" stroke-opacity="0.3"/>
<line x1="226.504" y1="1.32812" x2="226.504" y2="9.32812" stroke="white" stroke-opacity="0.3"/>
<line x1="219.504" y1="1.32812" x2="219.504" y2="9.32812" stroke="white" stroke-opacity="0.3"/>
<line x1="205.504" y1="1.32812" x2="205.504" y2="9.32812" stroke="white" stroke-opacity="0.3"/>
<line x1="212.504" y1="1.32812" x2="212.504" y2="9.32812" stroke="white" stroke-opacity="0.3"/>
<line x1="233.504" y1="1" x2="233.504" y2="9" stroke="white" stroke-opacity="0.5"/>
<line x1="254.504" y1="1.32812" x2="254.504" y2="9.32812" stroke="white" stroke-opacity="0.3"/>
<line x1="247.504" y1="1.32812" x2="247.504" y2="9.32812" stroke="white" stroke-opacity="0.3"/>
<line x1="240.504" y1="1.32812" x2="240.504" y2="9.32812" stroke="white" stroke-opacity="0.3"/>
<line x1="261.504" y1="1.32812" x2="261.504" y2="9.32812" stroke="white" stroke-opacity="0.3"/>
<line x1="319.504" y1="1.32812" x2="319.504" y2="9.32812" stroke="white" stroke-opacity="0.3"/>
<line x1="312.504" y1="1.32812" x2="312.504" y2="9.32812" stroke="white" stroke-opacity="0.3"/>
<line x1="298.504" y1="1.32812" x2="298.504" y2="9.32812" stroke="white" stroke-opacity="0.3"/>
<line x1="305.504" y1="1.32812" x2="305.504" y2="9.32812" stroke="white" stroke-opacity="0.3"/>
<line x1="326.504" y1="1" x2="326.504" y2="9" stroke="white" stroke-opacity="0.5"/>
<line x1="347.504" y1="1.32812" x2="347.504" y2="9.32812" stroke="white" stroke-opacity="0.3"/>
<line x1="340.504" y1="1.32812" x2="340.504" y2="9.32812" stroke="white" stroke-opacity="0.3"/>
<line x1="333.504" y1="1.32812" x2="333.504" y2="9.32812" stroke="white" stroke-opacity="0.3"/>
<line x1="354.504" y1="1.32812" x2="354.504" y2="9.32812" stroke="white" stroke-opacity="0.3"/>
<line x1="412.504" y1="1.32812" x2="412.504" y2="9.32812" stroke="white" stroke-opacity="0.3"/>
<line x1="405.504" y1="1.32812" x2="405.504" y2="9.32812" stroke="white" stroke-opacity="0.3"/>
<line x1="391.504" y1="1.32812" x2="391.504" y2="9.32812" stroke="white" stroke-opacity="0.3"/>
<line x1="398.504" y1="1.32812" x2="398.504" y2="9.32812" stroke="white" stroke-opacity="0.3"/>
<line x1="419.504" y1="1" x2="419.504" y2="9" stroke="white" stroke-opacity="0.5"/>
<line x1="440.504" y1="1.32812" x2="440.504" y2="9.32812" stroke="white" stroke-opacity="0.3"/>
<line x1="433.504" y1="1.32812" x2="433.504" y2="9.32812" stroke="white" stroke-opacity="0.3"/>
<line x1="426.504" y1="1.32812" x2="426.504" y2="9.32812" stroke="white" stroke-opacity="0.3"/>
<line x1="447.504" y1="1.32812" x2="447.504" y2="9.32812" stroke="white" stroke-opacity="0.3"/>
</svg>
