<svg xmlns="http://www.w3.org/2000/svg" width="229" height="47" fill="none" xmlns:v="https://vecta.io/nano"><g clip-path="url(#A)" fill="#fff"><path d="M71.809 36.811h-19.2v-26.19h4.87v21.32h14.33v4.87zM96.511 23.74c0 4.99-4.01 9-9 8.94-4.99 0-9-4.01-8.94-9 0-4.93 4.01-8.94 9-8.94s8.94 4.01 8.94 9zm4.87 0V10.62h-4.81v2.58c-5.79-4.99-14.5-4.3-19.48 1.49-4.99 5.79-4.3 14.5 1.49 19.48a13.89 13.89 0 0 0 17.99 0v2.58h4.81V23.74zm10.31-8.249v5.5h9.97v4.81h-9.97v11h-4.81v-26.18h18.45v4.87h-13.64zm42.519 8.25c0 7.62-6.19 13.81-13.81 13.81s-13.81-6.19-13.81-13.87 6.19-13.81 13.81-13.81c7.62.06 13.81 6.25 13.81 13.87zm-13.81-9c-4.99 0-9 4.01-9 8.94s4.01 9 8.94 9 9-4.01 9-8.94-3.95-9-8.94-9zm38.46 3.9c0-4.41-3.61-8.02-8.02-8.02h-12.32v26.19h4.81v-10.14h3.27l6.53 10.14h5.73l-6.59-10.32c3.78-.63 6.59-3.95 6.59-7.85zm-8.02 3.15h-7.51v-6.3h7.51c1.72-.17 3.27 1.15 3.44 2.87s-1.15 3.27-2.86 3.44h-.57l-.01-.01zm17.13-6.3v5.5h9.97v4.81h-9.97v6.13h13.64v4.87h-18.45v-26.18h18.45v4.87h-13.64zM186.311 8.1V3.86l4.41-2.41c.63-.34 1.32-.57 2.01-.63.74.06 1.43.29 2.06.63l4.41 2.35v4.24L193.641 5c-.29-.17-.63-.23-.92-.23-.34 0-.63.11-.92.23l-5.5 3.09.01.01zm41.889 7.391h-8.65v21.32h-4.81v-21.32h-8.65v-4.87h22.12v4.87h-.01zM0 1.221v44.99h44.99V1.221H0zm39.03 16.96l-2.35 2.41c-.92.92-2.46.97-3.44.11l2.41-2.41c.92-.92 2.41-.97 3.38-.11zm-8.08 4.7c.92-.92 2.46-.97 3.44-.11l-4.3 4.3c-.92.92-2.46.97-3.44.11l4.3-4.3zm-4.41 2.29l-.8.8c-.92-.97-.86-2.52.11-3.5l.8-.8c.86 1.03.8 2.58-.11 3.5zm10.72-10.72l-.86.8c-.92.92-2.46.97-3.44.11l.8-.8c.97-.97 2.52-.97 3.5-.11zm-5.27-3.61l.8-.8c.92.97.86 2.52-.11 3.5l-.8.8c-.86-1.03-.86-2.52.11-3.5zm2.52 6.36l-3.61 3.61c-.92.92-2.46.97-3.44.11l3.61-3.61c.92-.97 2.41-.97 3.44-.11zm-4.58-1.03l-.63.97c-1.09-.8-1.32-2.29-.57-3.44l.63-.97c1.09.8 1.32 2.29.57 3.44zm-2.81-6.02l2.41-2.41c.92.97.86 2.52-.11 3.5l-2.35 2.35a2.43 2.43 0 0 1 .06-3.44h-.01zm-3.32-2.06l1.49-1.49c.86.97.8 2.52-.11 3.44l-1.49 1.49a2.5 2.5 0 0 1 .11-3.44zm1.38 7.39l-1.49 1.49c-.86-.97-.86-2.52.11-3.44l1.49-1.49c.86.97.8 2.46-.11 3.44zm-.23 2.52c.97-.97 2.46-.97 3.5-.11l-4.01 4.01a2.53 2.53 0 0 1-3.55 0l-4.01-4.01c.97-.92 2.52-.86 3.5.11l2.35 2.29 2.24-2.29h-.02zm-5.62 7.97l-.8-.8c-.92-.92-.97-2.46-.11-3.44l.8.8c.92.97.97 2.46.11 3.44zm-1.6-4.93c-.97.92-2.52.86-3.44-.11l-.8-.8c.97-.92 2.52-.86 3.44.11l.8.8zm2.06-14.44l1.49 1.49c.92.92.97 2.46.11 3.44l-1.49-1.49c-.92-.92-.97-2.41-.11-3.44zm-4.24 1.2l5.79 5.79c.92.92.97 2.46.11 3.44l-5.79-5.79c-.92-.97-.97-2.46-.11-3.44zm.23 4.93l.63.97c.74 1.09.52 2.64-.57 3.44l-.63-.97c-.74-1.15-.52-2.64.57-3.44zm-4.24-2.58l1.03.52a2.57 2.57 0 0 1 1.32 3.21l-1.03-.46c-1.26-.57-1.83-2.01-1.32-3.27zm-.4 4.3l3.61 3.61c-.97.86-2.52.86-3.44-.11l-3.67-3.61c1.03-.86 2.58-.86 3.5.11zM6.5 27.521H5.41a2.52 2.52 0 0 1 2.52-2.41h1.03c0 1.32-1.15 2.41-2.46 2.41zm-1.2-6.13h1.03c1.38 0 2.46 1.03 2.58 2.41H7.88c-1.38 0-2.52-1.09-2.58-2.41zm5.62 7.11l-.74.74c-.92-.97-.86-2.52.06-3.5l.74-.74c.92 1.03.92 2.58-.06 3.5zm-.57-5.96l-4.3-4.3c.97-.86 2.52-.86 3.44.11l4.3 4.3c-.97.86-2.46.8-3.44-.11zm5.56 2.12l2.41 2.41c-.97.92-2.52.86-3.44-.11l-2.41-2.41c.97-.86 2.46-.8 3.44.11zm-1.15 6.48l-.97-.52c-1.2-.63-1.66-2.12-1.09-3.32l.92.52c1.2.63 1.72 2.06 1.15 3.32h-.01zm6.42 9.68c-1.6-.11-3.15-.34-4.7-.8.23-.74.97-1.15 1.72-.97l2.98.4v-7.85l-2.98-2.98a1.34 1.34 0 0 1 1.89 0l1.09 1.09v-3.15c0-1.49 1.2-2.69 2.69-2.69v5.85l1.09-1.09a1.34 1.34 0 0 1 1.89 0l-2.98 2.98v6.48c0 1.55-1.2 2.75-2.69 2.75v-.02zm3.95-.11c-.06 0-.11 0-.17.06-.74.06-1.38-.52-1.43-1.26h.34c.97-.06 2.01-.23 2.98-.4.74-.17 1.43.23 1.72.92l-3.44.69v-.01zm6.13-10.09l-.92.52c-.57-1.2-.11-2.69 1.09-3.32l.92-.52c.57 1.2.11 2.69-1.09 3.32zm3.61-1.32l-.74-.74c-.97-.97-.97-2.52-.06-3.5l.74.75c.92.92.97 2.46.06 3.5v-.01zm3.67-1.78c-1.38 0-2.46-1.03-2.52-2.41h1.09c1.38 0 2.46 1.03 2.52 2.41h-1.09zm-1.32-3.72h-1.09a2.52 2.52 0 0 1 2.52-2.41h1.09a2.53 2.53 0 0 1-2.52 2.41z"/></g><defs><clipPath id="A"><path fill="#fff" transform="translate(0 .82)" d="M0 0h228.2v45.39H0z"/></clipPath></defs></svg>