<svg xmlns="http://www.w3.org/2000/svg" width="165" height="47" fill="none" xmlns:v="https://vecta.io/nano"><g clip-path="url(#A)" fill-rule="evenodd" fill="#fff"><path d="M37.75 39.08l-6.376-13.36 13.127-1.98c-.122 6.06-2.747 11.5-6.751 15.34zm-15.621 5.81l7.623-17.56 6.255 13.11c-3.629 2.72-7.998 4.45-12.874 4.45H22.13zM32.753 4.45l-14.374 5.57L4.876 2.1h18.247a20.89 20.89 0 0 1 9.62 2.35h.01zm6.63 5.32c2.747 3.34 4.501 7.42 4.876 12l-12.621 1.86 7.755-13.85-.01-.01zm-21.38 23.75l9.498-5.94-6.751 15.34-2.747-9.4zm-1.754 1.36L19.25 44.9H4.004L16.25 34.88zm-14.121-12l12.996 10.14L2.129 43.78v-20.9zm27.502.25l-9.62-11.5 15.003-5.81c1.004.74 1.997 1.48 2.879 2.35l-8.251 14.97-.01-.01zm-2.372.37l-23-3.34 13.878-7.79 9.123 11.13zm-10.37 8.29l-12.012-9.4 21.997 3.09-9.995 6.31h.01zm-.628-20.66L2.129 19.05V2.84l14.121 8.29h.01zM23.123 0H0v47h23.123c12.874 0 23.376-10.51 23.376-23.5S35.997 0 23.123 0zm100.752 19.669c-4.38 0-7.998 3.34-7.998 7.54s3.629 7.54 7.998 7.54 7.998-3.34 7.998-7.54-3.629-7.54-7.998-7.54zm0 17.07c-5.626 0-10.127-4.33-10.127-9.52s4.501-9.52 10.127-9.52 10.127 4.33 10.127 9.52-4.501 9.52-10.127 9.52zm-53.625-2.23h-5.129v-14.59h5.129c4.247 0 7.755 3.22 7.755 7.3s-3.497 7.3-7.755 7.3v-.01zm-7.248 1.98h7.248c5.373 0 9.874-4.21 9.874-9.28s-4.379-9.28-9.874-9.28h-7.248v18.55.01zm37.253-1.98h-5.129v-14.59h5.129c4.248 0 7.745 3.22 7.745 7.3s-3.497 7.3-7.745 7.3v-.01zm-7.248 1.98h7.248c5.373 0 9.874-4.21 9.874-9.28s-4.379-9.28-9.874-9.28h-7.248v18.55.01zm-5.879-.12h-2.129v-18.31h2.129v18.31zm75.754 0h2.129v-18.31h-2.129v18.31zm-7.877 0h2.129v-18.19h-1.875l-7.502 9.77-7.248-9.77h-1.875v18.18h2.129v-14.47l7.126 9.4 7.248-10.02v15.09h-.121l-.011.01z"/></g><defs><clipPath id="A"><path fill="#fff" d="M0 0h165v47H0z"/></clipPath></defs></svg>