<svg xmlns="http://www.w3.org/2000/svg" width="205" height="52" fill="#fff" xmlns:v="https://vecta.io/nano"><path d="M7.805 34.17l.8 1.65.62-.03c2.96 0 5.77 1.15 7.85 3.24l.09.09.71-1.68c-2.37-2.15-5.45-3.35-8.65-3.32l-1.42.06v-.01zm-1.21-3.82l.41 1.65c.74-.12 1.48-.15 2.19-.15 3.58 0 7.05 1.26 9.77 3.56.3-.5.62-.94.98-1.41-3.02-2.5-6.81-3.85-10.72-3.85-.86.03-1.75.09-2.64.21l.01-.01zm3.26 7.47c.5.71 1.07 1.38 1.66 2.03 1.78.59 3.26 1.79 4.15 3.41.12.09.27.15.38.24.12-.71.24-1.41.44-2.12-1.57-2.06-4-3.35-6.63-3.56zm-.62-11.47c-1.01 0-2.04.09-3.02.24 0 .56.03 1.15.09 1.71.98-.15 1.95-.24 2.93-.24 4.41 0 8.7 1.53 12.08 4.35.38-.41.8-.82 1.21-1.21-3.7-3.12-8.41-4.85-13.29-4.85z"/><path d="M28.915 46.171c.59-.06 1.15-.18 1.72-.29.21-3.21 2.99-5.65 6.22-5.47a5.88 5.88 0 0 1 2.81.91 14.2 14.2 0 0 0 1.24-1.21c-3.38-2.44-8.11-1.68-10.57 1.68a8.01 8.01 0 0 0-1.42 4.38zm-4.65.06a16.09 16.09 0 0 0 1.72.09v-.09c0-5.76 4.71-10.44 10.51-10.44 2.28 0 4.5.74 6.31 2.09.33-.47.65-.94.92-1.44-5.45-3.97-13.09-2.82-17.08 2.59a12.16 12.16 0 0 0-2.37 7.21l-.01-.01zm12.23-20.44c-10.33 0-19.07 7.59-20.43 17.76.53.29 1.07.59 1.63.85 1.04-10.32 10.3-17.85 20.7-16.82 2.75.26 5.39 1.15 7.76 2.53a17.54 17.54 0 0 0 .27-1.79c-3.05-1.68-6.45-2.53-9.92-2.53h-.01zm-16.58 19.5c.56.18 1.13.35 1.69.5.27-8.18 7.14-14.59 15.37-14.35 2.87.09 5.66 1 8.02 2.62.24-.53.41-1.09.59-1.65-7.7-4.97-17.97-2.82-23.01 4.79-1.57 2.44-2.49 5.21-2.66 8.09zM26.365.82C12.185.82.695 12.23.695 26.32s11.49 25.5 25.67 25.5 25.67-11.41 25.67-25.5S40.545.82 26.365.82zm15.81 41.21c-3.76 3.74-8.7 6-14 6.41l-1.81 3.09-1.81-3.09c-10.93-.85-19.6-9.47-20.46-20.32l-3.11-1.79 3.11-1.79c.86-10.87 9.54-19.48 20.46-20.37l1.81-3.06 1.81 3.09c10.93.85 19.6 9.47 20.46 20.32l3.11 1.79-3.11 1.79c-.41 5.24-2.69 10.18-6.45 13.91l-.01.02zm28.78-30.149h4.12l11.55 26.62h-5.45l-2.49-6.09h-11.61l-2.43 6.09h-5.33l11.64-26.62zm6.04 16.47l-4.12-10.82-4.2 10.82h8.32zm36.42 8.179c-3.32 1.76-6.99 2.62-11.07 2.62a15.51 15.51 0 0 1-5.69-1 12.76 12.76 0 0 1-7.4-7.21c-.71-1.79-1.1-3.74-1.07-5.68-.03-2 .33-3.97 1.07-5.82.65-1.68 1.66-3.18 2.93-4.44a12.94 12.94 0 0 1 4.47-2.85c1.81-.68 3.76-1.03 5.69-1a22.1 22.1 0 0 1 5.74.74c1.78.5 3.43 1.38 4.8 2.62l-3.52 3.53a8.7 8.7 0 0 0-3.11-1.91c-1.24-.44-2.55-.68-3.88-.68-1.3-.03-2.58.24-3.76.74-1.1.47-2.07 1.18-2.9 2.03-.83.88-1.45 1.91-1.87 3.03-.44 1.18-.68 2.44-.65 3.74 0 1.35.21 2.68.65 3.94a9.21 9.21 0 0 0 1.87 3.12c.8.88 1.81 1.59 2.9 2.06 1.18.53 2.46.76 3.76.76 1.15 0 2.31-.12 3.43-.35 1.01-.21 1.95-.56 2.84-1.06v-6.24h-5.51v-4.26h10.24l.03 13.59.01-.02zm5.501-24.649h4.77v26.62h-4.77v-26.62zm29.019 6.229c-.98-1.06-1.92-1.76-2.84-2.12-.89-.35-1.84-.53-2.78-.53-1.3-.03-2.58.24-3.76.74-1.1.47-2.07 1.18-2.9 2.03-.83.88-1.45 1.91-1.86 3.03-.44 1.18-.68 2.44-.65 3.74 0 1.35.21 2.68.65 3.94.41 1.15 1.04 2.21 1.86 3.12.8.88 1.81 1.59 2.9 2.06 1.18.53 2.46.76 3.76.76 1.1 0 2.19-.26 3.17-.76a8.23 8.23 0 0 0 2.84-2.47l3.94 2.76c-1.12 1.59-2.66 2.82-4.44 3.62-1.75.76-3.64 1.15-5.57 1.12-1.95.03-3.88-.32-5.69-1-3.38-1.26-6.07-3.85-7.4-7.21-.74-1.79-1.1-3.74-1.07-5.68-.03-2 .36-3.97 1.07-5.82.65-1.68 1.66-3.18 2.93-4.44a12.94 12.94 0 0 1 4.47-2.85c1.81-.68 3.76-1.03 5.69-1 1.72-.03 3.43.32 5.06.97 1.69.74 3.17 1.85 4.32 3.26l-3.7 2.74v-.01zm18.481-6.229h4.12l11.55 26.62h-5.45l-2.49-6.09h-11.64l-2.43 6.09h-5.33l11.67-26.62zm6.07 16.47l-4.11-10.82-4.23 10.82h8.35-.01zm13.35-16.47h9c1.24 0 2.49.12 3.73.38a9.88 9.88 0 0 1 3.17 1.26 6.32 6.32 0 0 1 2.16 2.35c.56 1.15.86 2.41.8 3.71 0 1.68-.3 3.03-.86 4.06-.56 1-1.36 1.82-2.34 2.38a10.15 10.15 0 0 1-3.43 1.15c-1.33.21-2.69.29-4.06.29h-3.4v11h-4.77v-26.58zm7.64 11.53l2.13-.09c.68-.06 1.39-.21 2.01-.47.59-.24 1.12-.62 1.51-1.12.41-.62.62-1.35.59-2.12.03-.71-.15-1.38-.53-1.97-.35-.47-.83-.88-1.36-1.12-.59-.26-1.21-.44-1.86-.5-.65-.09-1.3-.12-1.96-.12h-3.4v7.5h2.87v.01z"/></svg>