<svg xmlns="http://www.w3.org/2000/svg" width="217" height="38" fill="none" xmlns:v="https://vecta.io/nano"><g clip-path="url(#A)"><path d="M28.085 15.81a.96.96 0 0 1-.254-.62.87.87 0 0 1 .254-.62l5.976-6.33a.79.79 0 0 1 1.146 0l12.055 12.83a2.6 2.6 0 0 1-.028 3.48L34.897 37.74c-.141.18-.367.27-.583.27h-11.98c-.338 0-.639-.21-.752-.56-.113-.33-.028-.71.226-.95l12.281-13.07a.96.96 0 0 0 .254-.62.87.87 0 0 0-.254-.62l-6.004-6.36v-.02zm-8.231 6.39a.96.96 0 0 1 .254.62.87.87 0 0 1-.254.62l-5.976 6.36a.79.79 0 0 1-1.146 0L.649 16.94c-.864-.98-.864-2.53.028-3.48L13.07.27c.169-.18.367-.27.583-.27h11.952c.338 0 .639.21.752.56.113.33.028.71-.226.95L13.85 14.59a.96.96 0 0 0-.254.62.87.87 0 0 0 .254.62l6.004 6.36v.01zm42.348.27c1.231 1.19 3.157 1.93 4.999 1.93 1.316 0 2.321-.68 2.321-1.63 0-2.91-8.823-1.87-8.823-8.11 0-3.71 3.373-6.03 6.981-6.03 2.377 0 4.971.95 6.173 1.96l-2.293 3.74c-.949-.71-2.18-1.31-3.486-1.31s-2.481.56-2.481 1.57c0 2.53 8.823 1.52 8.823 8.23 0 3.71-3.401 6-7.254 6-2.509 0-5.196-.92-7.338-2.58l2.405-3.77h-.028zm19.929-.86c1.005 1.52 2.65 2.41 4.407 2.41 2.734 0 4.801-2.23 4.801-5.29 0-2.79-1.842-5.32-4.689-5.32-1.785 0-3.429.89-4.519 2.41v5.79zm-4.886-12.6h4.689v1.54c1.428-1.25 3.27-1.96 5.328-1.96 4.971 0 8.936 4.4 8.936 10.13 0 2.64-.864 5.05-2.293 6.8-1.616 1.99-4.219 3.27-6.925 3.27-1.842 0-3.401-.56-4.886-1.75V38h-4.886V9h.028l.009.01zm33.525 7.19c-.141-1.72-1.617-3.39-3.599-3.39s-3.683 1.63-3.909 3.39h7.508zm4.547 9.12c-1.757 2.23-4.66 3.48-7.479 3.48-5.44 0-9.546-4.01-9.546-10.07 0-5.41 3.457-10.1 8.879-10.1 5.027 0 8.597 4.52 8.597 9.92 0 .51-.028 1.04-.113 1.49h-12.647c.254 2.73 2.321 4.61 4.915 4.61 2.067 0 3.711-1.25 4.575-2.23l2.819 2.91v-.01zm3.27 3.09V9h4.689v1.54c1.456-1.28 3.269-1.96 5.139-1.96 2.509 0 4.802 1.19 6.305 3.12 1.203 1.52 1.87 3.48 1.87 6.8v9.86h-4.886V18.11c0-1.93-.423-2.91-1.09-3.65-.639-.68-1.616-1.07-2.734-1.07-2.067 0-3.768 1.4-4.435 2.41v12.6h-4.858v.01zm34.756-12.6c-1.062-1.52-2.735-2.41-4.52-2.41-2.847 0-4.688 2.53-4.688 5.32 0 3.03 2.067 5.29 4.801 5.29 1.757 0 3.383-.89 4.416-2.41v-5.79h-.009zm.197 12.6v-1.54c-1.503 1.37-3.242 1.96-5.083 1.96a8.94 8.94 0 0 1-6.869-3.27c-1.503-1.9-2.339-4.31-2.339-6.8 0-5.7 3.993-10.1 8.935-10.1 1.983 0 3.712.59 5.14 1.81V0h4.886v28.4h-4.661l-.009.01zm20.098-12.21c-.141-1.72-1.616-3.39-3.599-3.39s-3.683 1.63-3.908 3.39h7.507zm4.519 9.12c-1.757 2.23-4.66 3.48-7.479 3.48-5.44 0-9.546-4.01-9.546-10.07 0-5.41 3.458-10.1 8.879-10.1 5.027 0 8.597 4.52 8.597 9.92 0 .51-.028 1.04-.112 1.49h-12.619c.254 2.73 2.321 4.61 4.914 4.61 2.067 0 3.711-1.25 4.576-2.23l2.79 2.91v-.01zm5.056-2.85c1.23 1.19 3.157 1.93 4.998 1.93 1.316 0 2.321-.68 2.321-1.63 0-2.91-8.823-1.87-8.823-8.11 0-3.71 3.373-6.03 6.981-6.03 2.378 0 4.971.95 6.174 1.96l-2.293 3.74c-.949-.71-2.18-1.31-3.486-1.31s-2.481.56-2.481 1.57c0 2.53 8.823 1.52 8.823 8.23 0 3.71-3.401 6-7.263 6-2.509 0-5.196-.92-7.31-2.58l2.368-3.77h-.009zm23.753-4.75l10.025 10.67h-6.587l-7.704-8.41v8.41h-4.886V0h4.886v15.27L208.976 9h6.869l-8.879 8.71v.01z" fill="#fff"/></g><defs><clipPath id="A"><path fill="#fff" d="M0 0h217v38H0z"/></clipPath></defs></svg>