<svg xmlns="http://www.w3.org/2000/svg" width="174" height="29" fill="none" xmlns:v="https://vecta.io/nano"><g clip-path="url(#A)" fill="#fff"><path d="M106.911 28.721c-4.94-.09-8.95-3.41-9.78-8.18-.14-.82-.61-.8-1.21-.81-.62-.02-.97.12-1.09.84-.35 2.1-1.37 4.02-2.92 5.49a9.79 9.79 0 0 1-5.65 2.62c-2.15.27-4.33-.18-6.2-1.27a9.9 9.9 0 0 1-4.16-4.76c-.2-.49-.45-.99-.52-1.51-.11-.88-.32-1.56-1.3-1.89-.29-.1-.58-.77-.54-1.14.04-.38.45-.93.78-1.01.87-.2 1.14-.74 1.39-1.49 1.31-3.98 5.23-6.67 9.6-6.63 2.05.04 4.03.71 5.68 1.92s2.88 2.9 3.52 4.83c.24.76.53 1.18 1.44 1.19.96.01 1.35-.37 1.63-1.24 2.25-7.08 11.45-8.85 16.37-3.75 1.01 1.05 1.66 2.49 2.34 3.81.31.6.57 1.02 1.24 1.29a2.02 2.02 0 0 1 .68.47c.19.2.35.44.45.7.23.74-.49 1.06-1.07 1.19-.77.18-.86.72-.97 1.33-.84 4.58-5.11 8.08-9.74 8h.03zm-.22-2.75c4.05.06 7.35-3.09 7.39-7.05.03-3.84-3.2-7.1-7.1-7.14-3.87-.04-7.15 3.19-7.24 7.13-.09 3.68 3.18 7 6.95 7.06zm-21.5 0c3.81-.02 7.08-3.28 7.08-7.05 0-3.85-3.36-7.18-7.23-7.13-3.85.04-7.13 3.04-7.09 7.12.04 4.16 3.3 7.09 7.24 7.07v-.01zm39.019-8.19l3.9-3.57 4.79-4.45c.65-.6 1.49-.85 2.21-.34.4.28.67 1.01.64 1.52-.02.45-.47.94-.85 1.29l-4.49 4.03c-.58.5-.54.85-.1 1.41l6.12 8.11c.75 1 .75 1.79.04 2.4-.69.59-1.93.46-2.59-.4l-5.53-7.42-1.03-1.34-3.17 2.98c-.2.2-.21.63-.21.95l-.01 3.62c0 1.35-.48 1.95-1.56 1.97-1.09.02-1.6-.58-1.6-1.93V4.591v-2.11c.03-1.01.71-1.69 1.63-1.66.89.03 1.52.66 1.52 1.65l.02 13.98v1.19l.28.14h-.01zm26.43 2.13h-5.96c-.78 0-1.06.18-.84 1.07.86 3.5 3.63 4.85 7.12 4.65 1.47-.08 2.93-.62 4.36-1.07.94-.29 1.73-.18 2.1.55.46.9 0 1.61-.72 1.92-1.46.62-2.98 1.33-4.53 1.49a16.9 16.9 0 0 1-5.67-.32c-3.16-.77-5.13-2.98-5.81-6.17-.78-3.7-.54-7.26 2.02-10.34a7.29 7.29 0 0 1 4.35-2.52c6.76-1.3 10.6 2.99 11.03 7.86.02.27.05.53.08.8.15 1.34-.46 2.03-1.8 2.03h-2.93-2.82v.06l.02-.01zm-1.33-2.48v.09h3.53c2.34 0 2.45-.16 1.64-2.38-.8-2.16-3.24-3.73-5.48-3.51-2.85.28-4.9 2.13-5.28 4.71-.11.79.14 1.11.95 1.1 1.55-.03 3.1 0 4.64 0v-.01zm-105.02 8.99c-1.72.74-3.34 1.67-5.08 2.11-2.19.55-4.42.39-6.3-1.16-1.71-1.42-2.1-3.35-1.74-5.37.41-2.31 2.06-3.75 4.26-4.19 2.21-.44 4.51-.43 6.78-.59.66-.05 1.32 0 1.95 0 .44-3.73-1.85-5.4-5.55-5.16-1.39.09-2.77.48-4.13.8-1.09.26-1.79.1-2.08-.62-.35-.86.05-1.6 1.11-2.03 2.94-1.2 5.96-1.63 9.05-.79 2.96.8 4.83 3.29 4.89 6.37l.12 10.85c.01 1.26-.49 1.84-1.58 1.87-1.1.03-1.51-.39-1.63-1.68l-.06-.4-.01-.01zm-2.65-6.71l-.02-.17-5.25.72c-1.51.36-2.2 1.47-2.13 2.77.07 1.33.95 2.36 2.42 2.7 2.86.66 5.18-.39 7.18-2.35a1.45 1.45 0 0 0 .37-.79c.39-2.73.25-2.88-2.47-2.88h-.1zM0 15.49V4.42c0-1.59.6-2.18 2.19-2.18h13.73c.83 0 1.57.17 1.89 1.02.4 1.07-.29 1.94-1.57 1.96l-7.57.01H4.23c-.72-.01-1.04.27-1.03 1v6.44c-.02.88.33 1.17 1.19 1.16h10.3c.65 0 1.37 0 1.64.7.18.45.29 1.12.07 1.48-.16.22-.36.4-.59.53a1.99 1.99 0 0 1-.76.24l-10.4.04c-.887 0-1.33.437-1.33 1.31v8.45c0 1.36-.56 1.98-1.73 1.96C.49 28.51 0 27.89 0 26.56V15.49zm54.65 3.36l.01-5.73c.01-.76-.23-1.13-1.04-1.06-.47.05-.94.05-1.41-.02-.32-.05-.8-.21-.88-.44-.09-.26.1-.72.32-.96.53-.6 1.15-1.12 1.73-1.68l2.98-2.86c.28-.25.76-.29 1.14-.42l.33.99a2.41 2.41 0 0 1 0 .6c.06 2.25-.48 2.1 2.18 2.11h2.12c.98.03 1.38.43 1.39 1.33 0 .94-.52 1.32-1.39 1.33H58.7c-.63 0-.88.23-.87.89l.03 10.87c0 1.3.72 2.06 2.07 2.1.72.03 1.46-.15 2.18-.29.81-.16 1.45.07 1.74.82.27.72-.05 1.36-.77 1.64-2.28.89-4.57 1.06-6.76-.26a3.13 3.13 0 0 1-1.17-1.17 3.16 3.16 0 0 1-.43-1.59l-.01-6.23h-.06v.03zm13.62-4.129V2.661c0-1.13.59-1.81 1.54-1.83 1.06-.02 1.66.6 1.66 1.81v23.92c0 1.45-.57 2.02-1.8 1.94-.92-.06-1.39-.62-1.39-1.72v-12.06h-.01zm-42.3.049v12.16c0 .77-.33 1.41-1.03 1.5-.58.07-1.25-.21-1.81-.49-.22-.11-.32-.64-.32-.98V2.54c0-1 .65-1.71 1.46-1.7 1.11.02 1.7.61 1.7 1.77v12.16zm140.421-2.429l1.22-1.29c1.29-1.31 2.82-2.15 4.71-2.16 1.2 0 1.75.6 1.67 1.74-.06.85-.45 1.34-1.38 1.39-2.16.11-4.11.76-5.51 2.49a3.5 3.5 0 0 0-.76 1.95c-.08 3.35-.04 6.7-.03 10.05 0 .92-.28 1.69-1.22 1.96-1.19.35-2.09-.41-2.09-1.71v-12.26-3.62c.01-1 .68-1.75 1.55-1.78.88-.03 1.56.66 1.65 1.67.04.45.11.91.18 1.58l.01-.01z"/></g><defs><clipPath id="A"><path fill="#fff" transform="translate(0 .82)" d="M0 0h174v28H0z"/></clipPath></defs></svg>