<svg width="8" height="14" viewBox="0 0 8 14" fill="none" xmlns="http://www.w3.org/2000/svg">
<path d="M0.461239 6.02002L6.12124 0.370017C6.2142 0.276289 6.3248 0.201895 6.44666 0.151126C6.56852 0.100357 6.69923 0.0742188 6.83124 0.0742188C6.96325 0.0742188 7.09396 0.100357 7.21582 0.151126C7.33767 0.201895 7.44828 0.276289 7.54124 0.370017C7.72749 0.557379 7.83203 0.810831 7.83203 1.07502C7.83203 1.3392 7.72749 1.59265 7.54124 1.78002L2.59124 6.78002L7.54124 11.73C7.72749 11.9174 7.83203 12.1708 7.83203 12.435C7.83203 12.6992 7.72749 12.9527 7.54124 13.14C7.44862 13.2345 7.33818 13.3097 7.2163 13.3612C7.09443 13.4127 6.96355 13.4395 6.83124 13.44C6.69893 13.4395 6.56805 13.4127 6.44617 13.3612C6.3243 13.3097 6.21385 13.2345 6.12124 13.14L0.461239 7.49002C0.359734 7.39638 0.278726 7.28272 0.223318 7.15622C0.167911 7.02972 0.139306 6.89312 0.139306 6.75502C0.139306 6.61691 0.167911 6.48031 0.223318 6.35381C0.278726 6.22731 0.359734 6.11366 0.461239 6.02002Z" fill="#080C29"/>
</svg>
