<svg width="8" height="14" viewBox="0 0 8 14" fill="none" xmlns="http://www.w3.org/2000/svg">
<path d="M7.53876 6.02002L1.87876 0.370017C1.7858 0.276289 1.6752 0.201895 1.55334 0.151126C1.43148 0.100357 1.30077 0.0742188 1.16876 0.0742188C1.03675 0.0742188 0.906044 0.100357 0.784184 0.151126C0.662325 0.201895 0.551724 0.276289 0.458761 0.370017C0.27251 0.557379 0.167969 0.810831 0.167969 1.07502C0.167969 1.3392 0.27251 1.59265 0.458761 1.78002L5.40876 6.78002L0.458761 11.73C0.27251 11.9174 0.167969 12.1708 0.167969 12.435C0.167969 12.6992 0.27251 12.9527 0.458761 13.14C0.551376 13.2345 0.661821 13.3097 0.783696 13.3612C0.905571 13.4127 1.03645 13.4395 1.16876 13.44C1.30107 13.4395 1.43195 13.4127 1.55383 13.3612C1.6757 13.3097 1.78615 13.2345 1.87876 13.14L7.53876 7.49002C7.64027 7.39638 7.72127 7.28272 7.77668 7.15622C7.83209 7.02972 7.86069 6.89312 7.86069 6.75502C7.86069 6.61691 7.83209 6.48031 7.77668 6.35381C7.72127 6.22731 7.64027 6.11366 7.53876 6.02002Z" fill="#080C29"/>
</svg>
