<svg xmlns="http://www.w3.org/2000/svg" width="183" height="123" fill="none" xmlns:v="https://vecta.io/nano"><g clip-path="url(#A)"><path d="M162.453 35.456c-5.032-13.596-18.68-23.346-33.132-19.99-13.602 3.159-23.38 15.193-36.358 20.015-13.606 5.054-25.406 1.473-37.666-4.526-10.568-5.172-23.201-9.319-32.026 2.01-9.569 12.285-8.29 31.094-3.577 44.76 4.646 13.473 13.794 24.592 25.625 31.809 23.581 14.382 56.851 15.558 81.856 2.205 25.849-13.804 46.248-46.645 35.278-76.284z" stroke="#4361ee" stroke-width="3" stroke-miterlimit="10"/><path opacity=".1" d="M149.732 12.677c-9.219-11.194-25.312-15.931-37.863-8.022-11.811 7.443-17.096 22.016-27.772 30.824-11.193 9.235-23.516 9.719-37.068 8.071-11.681-1.42-24.977-1.197-29.592 12.398-5.006 14.742 2.38 32.09 11.32 43.456 8.814 11.204 21.106 18.709 34.652 21.648 26.998 5.857 58.813-3.938 78.049-24.749 19.885-21.515 28.37-59.224 8.274-83.626z" fill="#fff"/><path d="M90.441 29.334l-41.394 35.53.77 16.076c0 1.917 2.315 29.105 4.517 29.105l38.652-25.841 34.827 23.189c2.202 0 6.453-25.266 6.453-27.183l2.574-15.382-41.43-35.493c-1.454-1.008-3.515-1.008-4.969 0z" fill="#5570f0"/><path d="M126.239 116.464H59.453a3.22 3.22 0 0 1-3.222-3.219V45.28a3.22 3.22 0 0 1 3.222-3.219h66.787a3.22 3.22 0 0 1 3.222 3.219v67.965a3.22 3.22 0 0 1-3.222 3.219z" fill="#fff"/><path d="M78.353 85.402H62.831a1.09 1.09 0 0 1-1.089-1.088V68.806a1.09 1.09 0 0 1 1.089-1.087h15.522a1.09 1.09 0 0 1 1.089 1.087v15.508a1.09 1.09 0 0 1-1.089 1.088zm-14.434-2.175h13.344V69.895H63.919v13.332z" fill="#cad2ff"/><path d="M125.846 81.16H87.104a1.09 1.09 0 0 1-1.089-1.088 1.09 1.09 0 0 1 1.089-1.088h38.742a1.09 1.09 0 0 1 1.088 1.088c.001.6-.487 1.088-1.088 1.088z" fill="#0a113a"/><path d="M69.532 81.888h-.026c-.399-.01-.761-.236-.942-.591L66.665 77.6c-.275-.534-.064-1.19.472-1.464a1.09 1.09 0 0 1 1.465.471l.986 1.919 3.89-6.747a1.09 1.09 0 0 1 1.487-.4c.521.3.7.965.4 1.486l-4.889 8.479a1.09 1.09 0 0 1-.944.544z" fill="#4361ee"/><path d="M106.578 74.117H87.096a1.08 1.08 0 0 1-1.08-1.079 1.08 1.08 0 0 1 1.08-1.079h19.483a1.08 1.08 0 0 1 1.08 1.079 1.08 1.08 0 0 1-1.08 1.079z" fill="#a3b3fe"/><path d="M78.353 65.244H62.831a1.09 1.09 0 0 1-1.089-1.088V48.648a1.09 1.09 0 0 1 1.089-1.088h15.522a1.09 1.09 0 0 1 1.089 1.088v15.508a1.09 1.09 0 0 1-1.089 1.088zm-14.434-2.176h13.344V49.736H63.919v13.332z" fill="#cad2ff"/><path d="M116.588 53.978H86.97c-.527 0-.954-.487-.954-1.087s.427-1.088.954-1.088h29.618c.526 0 .954.487.954 1.088s-.428 1.087-.954 1.087z" fill="#a3b3fe"/><path d="M123.517 61.001H87.041c-.566 0-1.025-.487-1.025-1.088s.459-1.087 1.025-1.087h36.477c.566 0 1.025.487 1.025 1.087s-.458 1.088-1.025 1.088z" fill="#0a113a"/><path d="M69.532 61.728h-.026c-.399-.009-.761-.236-.942-.591l-1.899-3.697c-.275-.534-.064-1.19.472-1.464a1.09 1.09 0 0 1 1.465.471l.986 1.919 3.89-6.747a1.09 1.09 0 0 1 1.487-.4c.521.3.7.965.4 1.486l-4.889 8.479a1.09 1.09 0 0 1-.944.544z" fill="#4361ee"/><g fill="#5570f0"><path d="M93.835 91.733l19.973-19.634c5.246-5.156 12.733-8.103 20.591-8.103 1.846 0 3.342 1.171 3.342 2.617v26.75 25.728c0 1.445-2.495 3.639-4.341 3.639h-11.348L93.835 94.994c-.944-.928-.944-2.333 0-3.261zm-1.698-.035L72.163 72.064c-5.246-5.156-12.733-8.103-20.591-8.103-1.846 0-3.342 1.171-3.342 2.617v26.75 26.043c0 1.445 2.142 3.36 3.988 3.36l11.702-.036 28.217-27.736a2.23 2.23 0 0 0 0-3.261z"/><path d="M137.742 108.35v11.318c0 1.691-1.786 3.063-3.987 3.063H52.219c-2.202 0-3.987-1.371-3.987-3.063V108.35l42.27-25.862c.688-.421 1.512-.643 2.344-.666.925-.025 1.859.197 2.625.666l42.271 25.862z"/></g><g fill="#a3b3fe"><path d="M100.901 84.75l36.839 18.785-.001 4.815-37.501-22.949.663-.651zm-15.831 0l-36.839 18.785v4.815l37.501-22.949-.663-.651zM71.937 22.121l-8.639 28.032-1.384 4.492-3.947-3.328-10.316-8.694 24.287-20.502z"/></g><path d="M71.937 22.121L41.921 39.44l-13.653-4.52 43.67-12.799z" fill="#cad2ff"/><path d="M71.936 22.121L47.651 42.623l-4.667 9.323L41.92 39.44l30.016-17.319z" fill="#5570f0"/><g fill="#fff"><path d="M81.007 116.991a.49.49 0 0 1-.14-.021l-2.99-1.016a.491.491 0 0 1 .352-.917l2.919.992a.49.49 0 0 1 .331.611.49.49 0 0 1-.47.351zm-6.759-2.686c-.074 0-.15-.016-.221-.052l-2.764-1.525a.49.49 0 0 1 .508-.842l2.7 1.489a.49.49 0 0 1 .218.66c-.088.171-.261.27-.441.27zm-6.184-3.826c-.102 0-.206-.033-.294-.098l-2.455-1.983a.49.49 0 0 1-.159-.275 14.62 14.62 0 0 1-1.407.416c-.263.064-.529-.099-.594-.362a.49.49 0 0 1 .362-.593c.993-.241 1.941-.587 2.82-1.028a.491.491 0 0 1 .442.877l-.7.328 2.279 1.833a.49.49 0 0 1 .099.688c-.095.129-.243.197-.393.197zm-8.56-1.539c-.008 0-.016 0-.023-.001a18.02 18.02 0 0 1-3.174-.445.491.491 0 0 1 .221-.957c1.009.232 2.018.374 3 .421a.49.49 0 0 1 .468.514.49.49 0 0 1-.49.468zm-7.021-1.769a.5.5 0 0 1-.201-.043 27.6 27.6 0 0 1-2.817-1.467.491.491 0 1 1 .503-.844c.903.537 1.817 1.013 2.716 1.414a.49.49 0 0 1 .248.65c-.082.181-.261.29-.449.29zm10.166-1.544a.49.49 0 0 1-.363-.159 20.76 20.76 0 0 1-1.975-2.51.49.49 0 1 1 .818-.544c.548.824 1.181 1.628 1.88 2.39a.49.49 0 0 1-.03.694.48.48 0 0 1-.331.129zm7.229-.612a.49.49 0 0 1-.361-.825 9.8 9.8 0 0 0 .846-1.052c.301-.433.566-.904.787-1.399a.492.492 0 1 1 .898.4c-.246.552-.542 1.076-.877 1.559-.28.403-.593.793-.931 1.158a.48.48 0 0 1-.36.159zm-23.589-1.638a.49.49 0 0 1-.304-.105l-2.397-2.065a.492.492 0 1 1 .676-.714l2.329 2.006a.49.49 0 0 1-.304.878zm12.609-3.922c-.21 0-.405-.136-.47-.347-.296-.96-.447-1.895-.446-2.78l.014-.468a.491.491 0 1 1 .981.06l-.012.409c0 .787.135 1.625.402 2.49a.49.49 0 0 1-.325.614.51.51 0 0 1-.144.021zm13.548-1.064c-.27 0-.49-.219-.492-.489-.004-1.015-.172-1.989-.5-2.892a.492.492 0 0 1 .925-.335c.365 1.01.554 2.095.558 3.223a.49.49 0 0 1-.489.493zm-31.365-.082a.49.49 0 0 1-.379-.177l-1.913-2.518a.492.492 0 0 1 .809-.559l1.861 2.449a.49.49 0 0 1-.064.692c-.092.075-.203.112-.314.112zm18.937-5.71a.49.49 0 0 1-.365-.821c.727-.803 1.696-1.427 2.803-1.805a.491.491 0 1 1 .318.93c-.948.323-1.775.854-2.39 1.534a.5.5 0 0 1-.366.162zm-22.984-.324c-.176 0-.346-.095-.435-.261l-1.356-2.856a.491.491 0 1 1 .906-.381l1.319 2.777a.49.49 0 0 1-.204.664c-.073.038-.152.057-.229.057zm32.506-.287a.49.49 0 0 1-.299-.102c-.739-.566-1.646-.977-2.624-1.188a.491.491 0 0 1 .208-.96c1.119.241 2.161.715 3.014 1.369a.49.49 0 0 1-.299.881zm-35.224-6.449a.49.49 0 0 1-.473-.357l-.724-3.079a.491.491 0 1 1 .966-.18l.703 2.99a.49.49 0 0 1-.339.606c-.044.013-.09.019-.134.019zm-1.215-7.159a.49.49 0 0 1-.49-.463l-.058-2.004.019-1.158c.009-.271.237-.484.508-.475a.49.49 0 0 1 .475.507l-.019 1.126.057 1.947a.49.49 0 0 1-.462.519c-.01-.001-.019 0-.029 0zm.35-7.255a.44.44 0 0 1-.075-.006.49.49 0 0 1-.411-.56l.618-3.1c.065-.263.331-.424.595-.36a.49.49 0 0 1 .36.594l-.602 3.014c-.038.244-.248.417-.486.417zm1.837-7.027a.5.5 0 0 1-.173-.031.49.49 0 0 1-.288-.633l1.241-2.908a.491.491 0 1 1 .886.425l-1.207 2.827a.49.49 0 0 1-.46.32zm3.249-6.497a.49.49 0 0 1-.414-.757l1.831-2.581c.168-.214.476-.251.69-.085a.49.49 0 0 1 .085.689l-1.778 2.505c-.092.147-.251.227-.413.227zm67.996 58.88a.51.51 0 0 1-.086-.008.49.49 0 0 1-.398-.569 13.59 13.59 0 0 1 .943-3.086c.109-.248.399-.362.648-.253a.49.49 0 0 1 .253.646c-.413.946-.708 1.91-.876 2.863-.043.24-.251.407-.484.407zm21.714-3.933c-.015 0-.029-.001-.044-.002-1.098-.095-2.208-.524-3.126-1.206a.491.491 0 0 1 .587-.788c.774.575 1.706.936 2.625 1.016a.49.49 0 0 1 .447.532.49.49 0 0 1-.489.448zm3.665-1.541c-.103 0-.206-.033-.295-.099a.49.49 0 0 1-.097-.687c.505-.672.772-1.534.772-2.492l-.002-.135a.49.49 0 0 1 .479-.504c.269-.008.497.207.504.479l.002.16c0 1.172-.335 2.238-.969 3.082-.097.128-.245.196-.394.196zm-22.326-1.05a.49.49 0 0 1-.387-.793 20.88 20.88 0 0 1 2.156-2.353c.198-.186.51-.176.695.021a.49.49 0 0 1-.02.694c-.756.71-1.448 1.464-2.055 2.242a.5.5 0 0 1-.389.189zm13.762-2.011a.49.49 0 0 1-.489-.437c-.024-.222-.036-.449-.036-.675 0-.872.178-1.752.531-2.616a.491.491 0 1 1 .91.371c-.304.746-.458 1.502-.458 2.246a5.33 5.33 0 0 0 .03.567.49.49 0 0 1-.435.542l-.053.002zm-8.377-2.842c-.162 0-.32-.08-.414-.225a.49.49 0 0 1 .147-.679c.896-.578 1.835-1.097 2.787-1.542a.491.491 0 1 1 .417.889c-.913.427-1.812.924-2.671 1.478-.083.053-.176.079-.266.079zm16.346-.84c-.138 0-.275-.059-.373-.171a4.97 4.97 0 0 0-.549-.547 6.84 6.84 0 0 0-1.803-1.085.491.491 0 1 1 .375-.908c.766.316 1.459.734 2.062 1.243.233.198.456.418.661.656a.49.49 0 0 1-.373.812zm-9.7-2.053a.49.49 0 0 1-.478-.377.49.49 0 0 1 .365-.592l.555-.123a14.52 14.52 0 0 1 2.637-.3c.273-.004.496.21.502.481a.49.49 0 0 1-.482.501c-.801.016-1.629.111-2.458.281l-.525.116a.51.51 0 0 1-.116.013zm4.703-.572c-.148 0-.295-.066-.391-.194a.49.49 0 0 1 .092-.688c.415-.316.858-.591 1.314-.815a10.35 10.35 0 0 1 1.633-.63.491.491 0 0 1 .278.942 9.4 9.4 0 0 0-1.477.57 6.88 6.88 0 0 0-1.15.714c-.09.068-.195.101-.299.101zm6.893-1.977a.49.49 0 0 1-.49-.465.49.49 0 0 1 .464-.518l1.721-.071.244-.009 1.155-.049c.27-.015.502.194.517.465a.49.49 0 0 1-.465.517l-1.173.05-.245.009-1.7.07c-.01.001-.019.001-.028.001zm7.229-.723a.49.49 0 0 1-.473-.356.49.49 0 0 1 .338-.607 8.74 8.74 0 0 0 2.138-.908c.15-.09.312-.205.484-.343a.491.491 0 0 1 .619.763 5.37 5.37 0 0 1-.595.423c-.71.426-1.487.757-2.374 1.011-.046.012-.092.018-.137.018zm5.399-4.56c-.082 0-.166-.021-.242-.064a.49.49 0 0 1-.184-.669 13.6 13.6 0 0 0 1.184-2.761.492.492 0 0 1 .942.284 14.57 14.57 0 0 1-1.27 2.961c-.092.159-.259.248-.43.248zm1.796-6.962a.49.49 0 0 1-.491-.481c-.02-.988-.16-1.987-.414-2.968a.491.491 0 1 1 .951-.247c.274 1.055.423 2.13.446 3.195a.49.49 0 0 1-.482.501zm.466-9.162a10.29 10.29 0 0 0 0-14.561c-4.024-4.021-10.549-4.021-14.574 0a10.29 10.29 0 0 0 0 14.561c4.024 4.021 10.55 4.021 14.574 0z"/></g><g fill="#4361ee"><path d="M144.784 72.298v-2.327c0-2.187-1.776-3.96-3.964-3.96a3.96 3.96 0 0 0-3.963 3.96v2.327c0 1.265-.348 1.749-1.003 2.83h9.933c-.656-1.081-1.003-1.565-1.003-2.83zm-3.966 4.849c-.826 0-1.496-.669-1.496-1.495h2.992c.001.825-.669 1.495-1.496 1.495z"/><path d="M140.818 64.799c-.671 0-1.214.543-1.214 1.213s.543 1.213 1.214 1.213 1.214-.543 1.214-1.213-.544-1.213-1.214-1.213zm0 1.942a.73.73 0 0 1-.73-.728.73.73 0 0 1 .73-.729.73.73 0 0 1 .729.729.73.73 0 0 1-.729.728z"/></g><path d="M140.817 83.564c-3.366 0-6.53-1.31-8.911-3.688a12.5 12.5 0 0 1 0-17.805c2.381-2.378 5.545-3.688 8.911-3.688s6.53 1.31 8.911 3.688a12.5 12.5 0 0 1 0 17.805c-2.38 2.378-5.545 3.688-8.911 3.688zm0-24.198a11.55 11.55 0 0 0-8.216 3.399c-2.194 2.193-3.402 5.107-3.402 8.208a11.53 11.53 0 0 0 3.402 8.208 11.55 11.55 0 0 0 16.432 0c2.194-2.193 3.402-5.107 3.402-8.208a11.53 11.53 0 0 0-3.402-8.208 11.55 11.55 0 0 0-8.216-3.399z" fill="#fff"/><path d="M131.539 40.098a.49.49 0 0 1-.348-.838l3.222-3.219a.49.49 0 1 1 .695.694l-3.222 3.219a.49.49 0 0 1-.347.144z" fill="#262f5f"/><path d="M131.538 40.22a.61.61 0 0 1-.434-.18c-.117-.116-.18-.27-.18-.434s.063-.318.18-.434l3.222-3.219c.239-.24.629-.24.868 0a.61.61 0 0 1 0 .868l-3.222 3.219a.61.61 0 0 1-.434.18zm3.222-4.201c-.094 0-.189.036-.261.108l-3.222 3.219c-.07.07-.108.162-.108.261s.038.191.108.261.162.108.261.108.191-.038.261-.108l3.222-3.219c.07-.07.108-.162.108-.261s-.038-.191-.108-.26a.37.37 0 0 0-.261-.108z" fill="#fff"/><path d="M138.429 44.705a.51.51 0 0 1-.073-.005l-5.363-.804a.49.49 0 0 1 .146-.972l5.362.804a.49.49 0 0 1 .414.558.49.49 0 0 1-.486.418z" fill="#262f5f"/><path d="M138.429 44.827a.65.65 0 0 1-.092-.007l-5.363-.804c-.334-.05-.566-.363-.516-.698s.364-.566.699-.516l5.362.804c.335.05.567.363.517.698a.62.62 0 0 1-.607.523zm-5.364-1.787a.37.37 0 0 0-.364.314.37.37 0 0 0 .309.419l5.363.804a.37.37 0 0 0 .419-.309.37.37 0 0 0-.309-.419l-5.363-.804c-.018-.003-.037-.004-.055-.004z" fill="#fff"/><path d="M127.734 38.57c-.239 0-.449-.175-.486-.418l-.805-5.358a.49.49 0 0 1 .413-.559c.268-.04.519.145.56.413l.805 5.358a.49.49 0 0 1-.414.559c-.024.004-.05.005-.073.005z" fill="#262f5f"/><path d="M127.734 38.694a.62.62 0 0 1-.607-.523l-.806-5.357a.61.61 0 0 1 .114-.456c.098-.132.241-.218.403-.242a.61.61 0 0 1 .456.113c.133.098.218.241.242.403l.806 5.357a.61.61 0 0 1-.114.456c-.098.132-.241.218-.403.242-.03.005-.061.007-.091.007zm-.805-6.34c-.018 0-.036.002-.055.004-.098.015-.184.066-.242.145s-.083.176-.068.274l.805 5.358a.37.37 0 0 0 .364.314c.018 0 .036-.002.055-.004.097-.015.183-.066.241-.146a.36.36 0 0 0 .068-.274l-.805-5.358c-.015-.098-.066-.183-.145-.241-.064-.047-.14-.072-.218-.072z" fill="#fff"/></g><defs><clipPath id="A"><path fill="#fff" transform="translate(.184 .73)" d="M0 0h182v122H0z"/></clipPath></defs></svg>