<svg width="183" height="123" viewBox="0 0 183 123" fill="none" xmlns="http://www.w3.org/2000/svg">
<g clip-path="url(#clip0_1230_3219)">
<path d="M162.453 35.4561C157.421 21.8601 143.773 12.1097 129.321 15.4664C115.719 18.6254 105.941 30.6598 92.9632 35.4814C79.3571 40.5357 67.5575 36.9541 55.2973 30.9552C44.7292 25.7833 32.0966 21.6361 23.2712 32.9656C13.7019 45.251 14.9815 64.0599 19.6942 77.7256C24.3406 91.1988 33.4878 102.318 45.3189 109.535C68.8999 123.917 102.17 125.093 127.175 111.74C153.024 97.9358 173.423 65.0952 162.453 35.4561Z" stroke="#4361EE" stroke-width="3" stroke-miterlimit="10"/>
<path opacity="0.1" d="M149.732 12.6773C140.513 1.48295 124.42 -3.25326 111.869 4.65495C100.058 12.0978 94.7731 26.6707 84.0969 35.4791C72.9034 44.7145 60.5813 45.1982 47.0293 43.5503C35.3482 42.1299 22.0527 42.353 17.4368 55.9481C12.431 70.6901 19.8171 88.0385 28.7567 99.4036C37.5707 110.608 49.8623 118.113 63.4091 121.052C90.4075 126.909 122.222 117.114 141.458 96.3031C161.343 74.7884 169.828 37.0791 149.732 12.6773Z" fill="white"/>
<path d="M90.4408 29.3343L49.0469 64.8642L49.8171 80.9403C49.8171 82.8574 52.132 110.045 54.3344 110.045L92.986 84.2038L127.813 107.393C130.015 107.393 134.266 82.1272 134.266 80.21L136.84 64.8276L95.4099 29.3343C93.9559 28.3261 91.8948 28.3261 90.4408 29.3343Z" fill="#5570F0"/>
<path d="M126.239 116.464H59.4525C57.6732 116.464 56.2305 115.023 56.2305 113.245V45.2796C56.2305 43.5019 57.6732 42.0605 59.4525 42.0605H126.239C128.018 42.0605 129.461 43.5019 129.461 45.2796V113.245C129.461 115.023 128.018 116.464 126.239 116.464Z" fill="white"/>
<path d="M78.3531 85.4018H62.8307C62.2298 85.4018 61.7422 84.9146 61.7422 84.3142V68.8063C61.7422 68.2059 62.2298 67.7188 62.8307 67.7188H78.3531C78.9541 67.7188 79.4417 68.2059 79.4417 68.8063V84.3142C79.4417 84.9146 78.9541 85.4018 78.3531 85.4018ZM63.9193 83.2267H77.2637V69.8947H63.9193V83.2267Z" fill="#CAD2FF"/>
<path d="M125.846 81.1595H87.1042C86.5032 81.1595 86.0156 80.6723 86.0156 80.0719C86.0156 79.4715 86.5032 78.9844 87.1042 78.9844H125.846C126.447 78.9844 126.934 79.4715 126.934 80.0719C126.935 80.6723 126.447 81.1595 125.846 81.1595Z" fill="#0A113A"/>
<path d="M69.5324 81.8881C69.5237 81.8881 69.515 81.8881 69.5063 81.8881C69.1077 81.8785 68.7457 81.6519 68.5643 81.2973L66.6654 77.5998C66.3906 77.0656 66.6017 76.4094 67.1373 76.1358C67.672 75.8613 68.3288 76.0722 68.6026 76.6072L69.5883 78.5261L73.4785 71.7795C73.7785 71.2593 74.444 71.0798 74.9656 71.3795C75.4864 71.6793 75.666 72.3442 75.3651 72.8653L70.4762 81.3443C70.2817 81.6807 69.9215 81.8881 69.5324 81.8881Z" fill="#4361EE"/>
<path d="M106.578 74.1166H87.0955C86.4988 74.1166 86.0156 73.6339 86.0156 73.0378C86.0156 72.4418 86.4988 71.959 87.0955 71.959H106.578C107.174 71.959 107.658 72.4418 107.658 73.0378C107.658 73.6339 107.174 74.1166 106.578 74.1166Z" fill="#A3B3FE"/>
<path d="M78.3531 65.2436H62.8307C62.2298 65.2436 61.7422 64.7564 61.7422 64.156V48.6481C61.7422 48.0477 62.2298 47.5605 62.8307 47.5605H78.3531C78.9541 47.5605 79.4417 48.0477 79.4417 48.6481V64.156C79.4417 64.7564 78.9541 65.2436 78.3531 65.2436ZM63.9193 63.0676H77.2637V49.7356H63.9193V63.0676Z" fill="#CAD2FF"/>
<path d="M116.588 53.9778H86.9699C86.443 53.9778 86.0156 53.4907 86.0156 52.8903C86.0156 52.2899 86.443 51.8027 86.9699 51.8027H116.588C117.114 51.8027 117.542 52.2899 117.542 52.8903C117.542 53.4907 117.114 53.9778 116.588 53.9778Z" fill="#A3B3FE"/>
<path d="M123.517 61.0013H87.0405C86.4744 61.0013 86.0156 60.5141 86.0156 59.9137C86.0156 59.3133 86.4744 58.8262 87.0405 58.8262H123.517C124.083 58.8262 124.542 59.3133 124.542 59.9137C124.542 60.5141 124.084 61.0013 123.517 61.0013Z" fill="#0A113A"/>
<path d="M69.5324 61.7279C69.5237 61.7279 69.515 61.7279 69.5063 61.7279C69.1077 61.7184 68.7457 61.4918 68.5643 61.1371L66.6654 57.4397C66.3906 56.9055 66.6017 56.2493 67.1373 55.9756C67.672 55.7011 68.3288 55.912 68.6026 56.4471L69.5883 58.366L73.4785 51.6194C73.7785 51.0991 74.444 50.9196 74.9656 51.2194C75.4864 51.5192 75.666 52.1841 75.3651 52.7052L70.4762 61.1842C70.2817 61.5205 69.9215 61.7279 69.5324 61.7279Z" fill="#4361EE"/>
<path d="M93.8348 91.7328L113.808 72.0986C119.054 66.9424 126.541 63.9961 134.399 63.9961C136.245 63.9961 137.741 65.1673 137.741 66.613V93.3632V119.091C137.741 120.536 135.246 122.73 133.4 122.73H122.052L93.8348 94.9937C92.891 94.0656 92.891 92.6609 93.8348 91.7328Z" fill="#5570F0"/>
<path d="M92.1373 91.6976L72.163 72.0635C66.9173 66.9072 59.43 63.9609 51.572 63.9609C49.7264 63.9609 48.2305 65.1321 48.2305 66.5778V93.3281V119.371C48.2305 120.816 50.3727 122.731 52.2184 122.731L63.9203 122.695L92.1373 94.9585C93.081 94.0305 93.081 92.6257 92.1373 91.6976Z" fill="#5570F0"/>
<path d="M137.742 108.35V119.668C137.742 121.359 135.956 122.731 133.755 122.731H52.2194C50.0179 122.731 48.2324 121.36 48.2324 119.668V108.35L90.502 82.488C91.1902 82.0671 92.0136 81.8449 92.8458 81.8222C93.7703 81.797 94.7045 82.0192 95.4712 82.488L137.742 108.35Z" fill="#5570F0"/>
<path d="M100.901 84.75L137.74 103.535L137.739 108.35L100.238 85.401L100.901 84.75Z" fill="#A3B3FE"/>
<path d="M85.0695 84.75L48.2305 103.535L48.2313 108.35L85.7324 85.401L85.0695 84.75Z" fill="#A3B3FE"/>
<path d="M71.937 22.1211L63.2975 50.1532L61.9133 54.6454L57.9664 51.3174L47.6504 42.6232L71.937 22.1211Z" fill="#A3B3FE"/>
<path d="M71.9371 22.1211L41.9208 39.4399L28.2676 34.9198L71.9371 22.1211Z" fill="#CAD2FF"/>
<path d="M71.9363 22.1211L47.6505 42.6232L42.9832 51.9466L41.9199 39.4399L71.9363 22.1211Z" fill="#5570F0"/>
<path d="M81.0065 116.991C80.9603 116.991 80.9132 116.984 80.8661 116.97C79.8639 116.672 78.8573 116.33 77.8761 115.954C77.6222 115.857 77.4958 115.573 77.5926 115.319C77.6894 115.066 77.9746 114.94 78.2276 115.037C79.1853 115.404 80.1674 115.738 81.1461 116.029C81.406 116.106 81.5543 116.38 81.4767 116.64C81.4139 116.853 81.2176 116.991 81.0065 116.991ZM74.2475 114.305C74.1734 114.305 74.0975 114.289 74.0269 114.253C73.0918 113.781 72.1612 113.268 71.2627 112.728C71.0299 112.588 70.9548 112.286 71.0953 112.053C71.2357 111.821 71.5375 111.746 71.7704 111.886C72.6479 112.414 73.5559 112.915 74.47 113.375C74.7125 113.497 74.8101 113.793 74.688 114.035C74.5999 114.206 74.4272 114.305 74.2475 114.305ZM68.0634 110.479C67.9613 110.479 67.8575 110.446 67.7694 110.381C66.9286 109.753 66.1026 109.085 65.3141 108.398C65.2286 108.324 65.1754 108.226 65.1553 108.123C64.6974 108.284 64.2273 108.423 63.7484 108.539C63.485 108.603 63.2189 108.44 63.1544 108.177C63.0907 107.913 63.253 107.648 63.5164 107.584C64.509 107.343 65.4571 106.997 66.3363 106.556C66.5788 106.434 66.8745 106.531 66.9966 106.773C67.1187 107.016 67.021 107.311 66.7786 107.433C66.5492 107.548 66.3154 107.658 66.0782 107.761C66.8117 108.396 67.5784 109.012 68.3573 109.594C68.5745 109.756 68.619 110.065 68.4567 110.282C68.3617 110.411 68.2134 110.479 68.0634 110.479ZM59.5032 108.94C59.4954 108.94 59.4875 108.94 59.4797 108.939C58.4399 108.889 57.3723 108.74 56.3056 108.494C56.0413 108.433 55.8756 108.169 55.9366 107.905C55.9977 107.641 56.262 107.476 56.5262 107.537C57.5354 107.769 58.5446 107.911 59.5259 107.958C59.7971 107.971 60.0065 108.201 59.9934 108.472C59.9821 108.735 59.764 108.94 59.5032 108.94ZM52.4825 107.171C52.4154 107.171 52.3473 107.157 52.2819 107.128C51.3486 106.711 50.4005 106.217 49.4646 105.661C49.2308 105.523 49.1541 105.221 49.2936 104.988C49.4323 104.754 49.7341 104.678 49.9679 104.817C50.8706 105.354 51.7848 105.83 52.684 106.231C52.9317 106.342 53.0425 106.633 52.9317 106.881C52.8498 107.062 52.6709 107.171 52.4825 107.171ZM62.6485 105.627C62.5159 105.627 62.3833 105.574 62.2856 105.468C61.5521 104.669 60.8874 103.824 60.3109 102.958C60.1609 102.733 60.2219 102.428 60.4478 102.278C60.6737 102.128 60.979 102.189 61.1291 102.414C61.6768 103.238 62.3101 104.042 63.0096 104.804C63.1928 105.004 63.1797 105.315 62.98 105.498C62.8866 105.585 62.768 105.627 62.6485 105.627ZM69.8776 105.015C69.7581 105.015 69.6386 104.972 69.5444 104.885C69.3447 104.701 69.3325 104.39 69.5165 104.19C69.8235 103.858 70.1079 103.504 70.3626 103.138C70.6635 102.705 70.9287 102.234 71.1493 101.739C71.2601 101.492 71.5506 101.38 71.7983 101.491C72.046 101.601 72.1577 101.892 72.0469 102.139C71.8009 102.691 71.5052 103.215 71.1694 103.698C70.8894 104.101 70.5763 104.491 70.2379 104.856C70.1428 104.962 70.0102 105.015 69.8776 105.015ZM46.2888 103.377C46.1824 103.377 46.0759 103.343 45.9852 103.272C45.1618 102.626 44.355 101.932 43.5883 101.207C43.3912 101.02 43.3825 100.709 43.5691 100.512C43.7558 100.315 44.0672 100.306 44.2643 100.493C45.0092 101.197 45.7925 101.872 46.5932 102.499C46.8069 102.666 46.8444 102.976 46.676 103.188C46.5792 103.312 46.4344 103.377 46.2888 103.377ZM58.8979 99.4551C58.6877 99.4551 58.4932 99.3192 58.4277 99.1083C58.132 98.1488 57.9811 97.2129 57.982 96.3284C57.982 96.1716 57.9864 96.0138 57.996 95.8605C58.0125 95.5895 58.2454 95.3838 58.5167 95.4004C58.788 95.4169 58.9938 95.6496 58.9772 95.9206C58.9694 96.0548 58.965 96.1925 58.965 96.3293C58.965 97.1162 59.1002 97.9545 59.3671 98.8198C59.4474 99.0787 59.3017 99.354 59.0418 99.4342C58.9947 99.4481 58.9458 99.4551 58.8979 99.4551ZM72.4464 98.3911C72.176 98.3911 71.9562 98.1724 71.9544 97.9022C71.9501 96.887 71.7826 95.9136 71.4546 95.01C71.3622 94.7546 71.4948 94.4732 71.7495 94.3808C72.005 94.2884 72.2868 94.4209 72.3792 94.6753C72.7447 95.6853 72.9331 96.7702 72.9374 97.8979C72.9383 98.1689 72.7194 98.3902 72.4481 98.3911C72.4472 98.3911 72.4472 98.3911 72.4464 98.3911ZM41.0815 98.3092C40.9402 98.3092 40.8006 98.2491 40.7029 98.1323C40.0322 97.3262 39.3885 96.4792 38.7901 95.6147C38.6357 95.3916 38.6916 95.0858 38.9149 94.9315C39.1381 94.7773 39.4443 94.8331 39.5987 95.0561C40.1805 95.8971 40.8067 96.7206 41.4592 97.5049C41.6328 97.7131 41.604 98.0234 41.3955 98.1968C41.3039 98.2717 41.1923 98.3092 41.0815 98.3092ZM60.0187 92.5996C59.9009 92.5996 59.7832 92.5578 59.689 92.4724C59.4875 92.2902 59.4718 91.98 59.6541 91.7787C60.3807 90.9752 61.3497 90.3513 62.4566 89.974C62.7139 89.886 62.993 90.0236 63.0811 90.2798C63.1692 90.5369 63.0314 90.8158 62.775 90.9038C61.8268 91.2271 61 91.7578 60.385 92.4375C60.2865 92.5447 60.1522 92.5996 60.0187 92.5996ZM37.0343 92.2754C36.8581 92.2754 36.688 92.1804 36.5991 92.014C36.1062 91.0842 35.6492 90.1239 35.2427 89.1583C35.1372 88.9082 35.2549 88.6206 35.5053 88.5152C35.7556 88.4098 36.0434 88.5274 36.149 88.7775C36.5441 89.716 36.9881 90.6502 37.4678 91.5547C37.5952 91.7944 37.5036 92.0915 37.2637 92.2188C37.1904 92.2571 37.1119 92.2754 37.0343 92.2754ZM69.5401 91.9887C69.4354 91.9887 69.3307 91.9556 69.2409 91.8868C68.5021 91.3203 67.595 90.9099 66.6172 90.699C66.352 90.6415 66.1828 90.3801 66.2404 90.1151C66.298 89.8502 66.5596 89.6812 66.8248 89.7387C67.9439 89.9801 68.9862 90.4533 69.8392 91.1077C70.0547 91.2733 70.0957 91.5809 69.93 91.7961C69.8331 91.9225 69.6875 91.9887 69.5401 91.9887ZM34.3164 85.5393C34.1018 85.5393 33.9056 85.3981 33.8436 85.182C33.5549 84.1676 33.3107 83.1315 33.1197 82.1032C33.07 81.8366 33.2462 81.5804 33.5131 81.5307C33.78 81.481 34.0364 81.6571 34.0861 81.9237C34.2719 82.9224 34.5083 83.928 34.7892 84.9136C34.8633 85.1741 34.7124 85.446 34.4507 85.5201C34.4062 85.5332 34.3609 85.5393 34.3164 85.5393ZM33.1014 78.3805C32.8432 78.3805 32.626 78.1792 32.6112 77.9178C32.5728 77.2555 32.5527 76.581 32.5527 75.9143C32.5527 75.53 32.5588 75.1405 32.5719 74.7562C32.5806 74.4852 32.8092 74.2726 33.0796 74.2813C33.3508 74.29 33.5637 74.5174 33.5549 74.7885C33.5427 75.1623 33.5357 75.5405 33.5357 75.9143C33.5357 76.5618 33.5549 77.2171 33.5924 77.8611C33.6081 78.1321 33.4014 78.3639 33.1302 78.3805C33.1206 78.3796 33.111 78.3805 33.1014 78.3805ZM33.4511 71.1258C33.4267 71.1258 33.4014 71.1241 33.3761 71.1197C33.1075 71.0788 32.9234 70.8278 32.9653 70.5594C33.1249 69.5224 33.3334 68.4802 33.5837 67.4597C33.6483 67.1966 33.9152 67.0354 34.1786 67.0998C34.442 67.1643 34.6034 67.431 34.5388 67.6942C34.2946 68.6867 34.0922 69.7011 33.937 70.7084C33.8986 70.9524 33.6893 71.1258 33.4511 71.1258ZM35.2881 64.0986C35.2305 64.0986 35.1721 64.0882 35.1154 64.0673C34.8607 63.9723 34.7325 63.6891 34.8275 63.4346C35.1974 62.449 35.6152 61.4713 36.0687 60.5267C36.1865 60.2818 36.4804 60.179 36.7247 60.2966C36.9698 60.4142 37.0727 60.7079 36.9549 60.9519C36.5136 61.8695 36.1071 62.8211 35.7477 63.7788C35.6745 63.9766 35.4878 64.0986 35.2881 64.0986ZM38.5372 57.6021C38.4465 57.6021 38.3549 57.5769 38.272 57.5246C38.0435 57.3782 37.9763 57.0741 38.1229 56.8457C38.6924 55.9569 39.3091 55.0889 39.9537 54.2646C40.1212 54.0511 40.4299 54.0136 40.6436 54.18C40.8573 54.3474 40.8948 54.6558 40.7282 54.8693C40.102 55.6693 39.5045 56.512 38.9506 57.3747C38.8582 57.522 38.6994 57.6021 38.5372 57.6021Z" fill="white"/>
<path d="M106.533 116.481C106.505 116.481 106.476 116.478 106.447 116.473C106.179 116.426 106.001 116.172 106.049 115.904C106.23 114.874 106.547 113.835 106.992 112.818C107.101 112.57 107.391 112.456 107.64 112.565C107.888 112.674 108.002 112.963 107.893 113.211C107.48 114.157 107.185 115.121 107.017 116.074C106.974 116.314 106.766 116.481 106.533 116.481ZM128.247 112.548C128.232 112.548 128.218 112.547 128.203 112.546C127.105 112.451 125.995 112.022 125.077 111.34C124.859 111.178 124.814 110.871 124.976 110.653C125.138 110.435 125.446 110.39 125.664 110.552C126.438 111.127 127.37 111.488 128.289 111.568C128.559 111.591 128.76 111.83 128.736 112.1C128.715 112.356 128.499 112.548 128.247 112.548ZM131.912 111.007C131.809 111.007 131.706 110.974 131.617 110.908C131.4 110.745 131.357 110.438 131.52 110.221C132.025 109.549 132.292 108.687 132.292 107.729C132.292 107.685 132.291 107.639 132.29 107.594C132.283 107.323 132.497 107.097 132.769 107.09C133.038 107.082 133.266 107.297 133.273 107.569C133.275 107.622 133.275 107.676 133.275 107.729C133.275 108.901 132.94 109.967 132.306 110.811C132.209 110.939 132.061 111.007 131.912 111.007ZM109.586 109.957C109.481 109.957 109.374 109.923 109.284 109.853C109.07 109.686 109.032 109.377 109.199 109.164C109.838 108.346 110.563 107.555 111.355 106.811C111.553 106.625 111.865 106.635 112.05 106.832C112.236 107.029 112.227 107.341 112.03 107.526C111.274 108.236 110.582 108.99 109.975 109.768C109.877 109.891 109.732 109.957 109.586 109.957ZM123.348 107.946C123.1 107.946 122.887 107.76 122.859 107.509C122.835 107.287 122.823 107.06 122.823 106.834C122.823 105.962 123.001 105.082 123.354 104.218C123.457 103.967 123.743 103.846 123.995 103.949C124.246 104.051 124.367 104.338 124.264 104.589C123.96 105.335 123.806 106.091 123.806 106.835C123.806 107.025 123.816 107.216 123.836 107.402C123.866 107.671 123.671 107.914 123.401 107.944C123.383 107.945 123.365 107.946 123.348 107.946ZM114.971 105.104C114.809 105.104 114.651 105.024 114.557 104.879C114.41 104.65 114.476 104.346 114.704 104.2C115.6 103.622 116.539 103.103 117.491 102.658C117.737 102.542 118.031 102.649 118.145 102.895C118.26 103.14 118.154 103.433 117.908 103.547C116.995 103.974 116.096 104.471 115.237 105.025C115.154 105.078 115.061 105.104 114.971 105.104ZM131.317 104.264C131.179 104.264 131.042 104.205 130.944 104.093C130.773 103.894 130.588 103.71 130.395 103.546C129.869 103.103 129.263 102.738 128.592 102.461C128.34 102.357 128.221 102.069 128.325 101.819C128.429 101.568 128.716 101.45 128.967 101.553C129.733 101.869 130.426 102.287 131.029 102.796C131.262 102.994 131.485 103.214 131.69 103.452C131.867 103.658 131.843 103.968 131.637 104.145C131.545 104.224 131.431 104.264 131.317 104.264ZM121.617 102.211C121.395 102.211 121.193 102.06 121.139 101.834C121.076 101.57 121.24 101.305 121.504 101.242C121.69 101.198 121.876 101.157 122.059 101.119C122.947 100.937 123.834 100.835 124.696 100.819C124.969 100.815 125.192 101.029 125.198 101.3C125.203 101.571 124.988 101.796 124.716 101.801C123.915 101.817 123.087 101.912 122.258 102.082C122.086 102.117 121.909 102.156 121.733 102.198C121.694 102.207 121.656 102.211 121.617 102.211ZM126.32 101.639C126.172 101.639 126.025 101.573 125.929 101.445C125.764 101.229 125.806 100.922 126.021 100.757C126.436 100.441 126.879 100.166 127.335 99.9421C127.839 99.6947 128.388 99.4829 128.968 99.3121C129.228 99.2354 129.501 99.3844 129.578 99.6441C129.655 99.9047 129.506 100.177 129.246 100.254C128.72 100.409 128.224 100.601 127.769 100.824C127.37 101.019 126.983 101.26 126.619 101.538C126.529 101.606 126.424 101.639 126.32 101.639ZM133.213 99.6624C132.954 99.6624 132.737 99.4602 132.723 99.1979C132.708 98.9269 132.915 98.6951 133.187 98.6803C133.762 98.6489 134.344 98.6289 134.908 98.6097L135.152 98.601C135.615 98.5853 135.972 98.5696 136.307 98.5522C136.577 98.5374 136.809 98.7457 136.824 99.0167C136.839 99.2877 136.63 99.5186 136.359 99.5334C136.018 99.5517 135.656 99.5674 135.186 99.5831L134.941 99.5918C134.383 99.611 133.807 99.6302 133.241 99.6615C133.231 99.6624 133.222 99.6624 133.213 99.6624ZM140.442 98.9391C140.228 98.9391 140.031 98.7988 139.969 98.5827C139.894 98.3222 140.046 98.0503 140.307 97.9753C141.11 97.7461 141.81 97.449 142.445 97.0673C142.595 96.9775 142.757 96.8625 142.929 96.7239C143.14 96.5531 143.449 96.5854 143.62 96.7963C143.791 97.0072 143.759 97.3165 143.548 97.4873C143.341 97.6546 143.141 97.7967 142.953 97.91C142.243 98.3361 141.466 98.6672 140.579 98.9208C140.533 98.933 140.487 98.9391 140.442 98.9391ZM145.841 94.3789C145.759 94.3789 145.675 94.358 145.599 94.3153C145.363 94.1811 145.28 93.8814 145.415 93.6461C145.912 92.7694 146.31 91.8405 146.599 90.8854C146.678 90.6257 146.951 90.4784 147.212 90.5569C147.472 90.6353 147.62 90.9089 147.541 91.1695C147.231 92.1943 146.804 93.1903 146.271 94.1306C146.179 94.2901 146.012 94.3789 145.841 94.3789ZM147.637 87.4171C147.37 87.4171 147.151 87.2036 147.146 86.9361C147.126 85.9479 146.986 84.9492 146.732 83.968C146.664 83.7057 146.821 83.4373 147.084 83.3693C147.347 83.3013 147.615 83.4591 147.683 83.7214C147.957 84.7767 148.106 85.8511 148.129 86.916C148.134 87.187 147.919 87.4119 147.647 87.4171C147.644 87.4171 147.64 87.4171 147.637 87.4171Z" fill="white"/>
<path d="M148.103 78.2549C152.128 74.2341 152.128 67.7151 148.103 63.6944C144.079 59.6736 137.554 59.6736 133.529 63.6944C129.505 67.7151 129.505 74.2341 133.529 78.2549C137.554 82.2756 144.079 82.2756 148.103 78.2549Z" fill="white"/>
<path d="M144.784 72.2982V69.9715C144.784 67.7842 143.008 66.0117 140.82 66.0117C138.631 66.0117 136.857 67.7842 136.857 69.9715V72.2982C136.857 73.5635 136.509 74.0472 135.854 75.1286H145.787C145.131 74.0472 144.784 73.5635 144.784 72.2982Z" fill="#4361EE"/>
<path d="M140.818 77.1468C139.992 77.1468 139.322 76.4776 139.322 75.6523H142.314C142.315 76.4776 141.645 77.1468 140.818 77.1468Z" fill="#4361EE"/>
<path d="M140.818 64.7988C140.147 64.7988 139.604 65.3417 139.604 66.0119C139.604 66.682 140.147 67.2249 140.818 67.2249C141.488 67.2249 142.032 66.682 142.032 66.0119C142.032 65.3417 141.488 64.7988 140.818 64.7988ZM140.818 66.7404C140.415 66.7404 140.088 66.4145 140.088 66.0119C140.088 65.6093 140.415 65.2833 140.818 65.2833C141.221 65.2833 141.547 65.6093 141.547 66.0119C141.548 66.4145 141.221 66.7404 140.818 66.7404Z" fill="#4361EE"/>
<path d="M140.817 83.5636C137.451 83.5636 134.287 82.2539 131.906 79.8757C129.526 77.4976 128.215 74.3361 128.215 70.9732C128.215 67.6104 129.526 64.4488 131.906 62.0707C134.287 59.6926 137.451 58.3828 140.817 58.3828C144.183 58.3828 147.347 59.6926 149.728 62.0707C152.108 64.4488 153.419 67.6104 153.419 70.9732C153.419 74.3361 152.108 77.4976 149.728 79.8757C147.348 82.2539 144.183 83.5636 140.817 83.5636ZM140.817 59.3658C137.714 59.3658 134.796 60.5736 132.601 62.7652C130.407 64.9577 129.199 67.8727 129.199 70.9732C129.199 74.0738 130.408 76.9887 132.601 79.1812C134.796 81.3737 137.714 82.5806 140.817 82.5806C143.92 82.5806 146.838 81.3728 149.033 79.1812C151.227 76.9887 152.435 74.0738 152.435 70.9732C152.435 67.8727 151.226 64.9577 149.033 62.7652C146.838 60.5736 143.92 59.3658 140.817 59.3658Z" fill="white"/>
<path d="M131.539 40.0976C131.413 40.0976 131.287 40.0497 131.191 39.9539C130.999 39.7621 130.999 39.451 131.191 39.2593L134.413 36.0403C134.605 35.8486 134.916 35.8486 135.108 36.0403C135.3 36.232 135.3 36.5431 135.108 36.7348L131.886 39.9539C131.79 40.0497 131.664 40.0976 131.539 40.0976Z" fill="#262F5F"/>
<path d="M131.538 40.2197C131.374 40.2197 131.22 40.1561 131.104 40.0402C130.987 39.9243 130.924 39.77 130.924 39.6062C130.924 39.4424 130.987 39.2881 131.104 39.1722L134.326 35.9532C134.565 35.7135 134.955 35.7135 135.194 35.9532C135.31 36.0691 135.374 36.2233 135.374 36.3871C135.374 36.551 135.31 36.7052 135.194 36.8211L131.972 40.0402C131.856 40.1561 131.702 40.2197 131.538 40.2197ZM134.76 36.0185C134.666 36.0185 134.571 36.0543 134.499 36.1266L131.277 39.3456C131.207 39.4154 131.169 39.5077 131.169 39.6062C131.169 39.7047 131.207 39.797 131.277 39.8668C131.347 39.9365 131.439 39.9748 131.538 39.9748C131.636 39.9748 131.729 39.9365 131.799 39.8668L135.021 36.6477C135.091 36.578 135.129 36.4856 135.129 36.3871C135.129 36.2887 135.091 36.1963 135.021 36.1266C134.948 36.0543 134.854 36.0185 134.76 36.0185Z" fill="white"/>
<path d="M138.429 44.7046C138.405 44.7046 138.38 44.7029 138.356 44.6994L132.993 43.8951C132.724 43.855 132.54 43.6049 132.58 43.3365C132.62 43.0681 132.87 42.8833 133.139 42.9234L138.501 43.7278C138.77 43.7678 138.955 44.0179 138.915 44.2863C138.878 44.5303 138.668 44.7046 138.429 44.7046Z" fill="#262F5F"/>
<path d="M138.429 44.827C138.398 44.827 138.367 44.8244 138.337 44.8201L132.974 44.0157C132.64 43.9652 132.408 43.6524 132.458 43.3177C132.509 42.9831 132.822 42.7513 133.157 42.8018L138.519 43.6062C138.854 43.6567 139.086 43.9696 139.036 44.3042C138.991 44.6022 138.73 44.827 138.429 44.827ZM133.065 43.0397C132.885 43.0397 132.728 43.1713 132.701 43.3535C132.67 43.5548 132.81 43.7421 133.01 43.7726L138.373 44.5769C138.391 44.5796 138.409 44.5813 138.429 44.5813C138.609 44.5813 138.766 44.4462 138.792 44.2676C138.823 44.0663 138.683 43.8789 138.483 43.8484L133.12 43.0441C133.102 43.0415 133.083 43.0397 133.065 43.0397Z" fill="white"/>
<path d="M127.734 38.5703C127.495 38.5703 127.285 38.3952 127.248 38.1521L126.443 32.7945C126.403 32.5261 126.588 32.276 126.856 32.2359C127.124 32.1958 127.375 32.3806 127.416 32.649L128.221 38.0065C128.261 38.2749 128.076 38.525 127.807 38.5651C127.783 38.5686 127.757 38.5703 127.734 38.5703Z" fill="#262F5F"/>
<path d="M127.734 38.6939C127.433 38.6939 127.171 38.4691 127.127 38.171L126.321 32.8144C126.297 32.6523 126.337 32.4902 126.435 32.3586C126.533 32.227 126.676 32.1407 126.838 32.1163C127 32.0919 127.162 32.132 127.294 32.2296C127.427 32.3272 127.512 32.4701 127.536 32.6322L128.342 37.9889C128.366 38.151 128.326 38.3131 128.228 38.4447C128.13 38.5762 127.987 38.6625 127.825 38.6869C127.795 38.6921 127.764 38.6939 127.734 38.6939ZM126.929 32.3542C126.911 32.3542 126.893 32.356 126.874 32.3586C126.776 32.3734 126.69 32.4248 126.632 32.5041C126.574 32.5834 126.549 32.6802 126.564 32.7778L127.369 38.1353C127.396 38.3139 127.552 38.449 127.733 38.449C127.751 38.449 127.769 38.4473 127.788 38.4447C127.885 38.4298 127.971 38.3784 128.029 38.2991C128.088 38.2198 128.112 38.1231 128.097 38.0255L127.292 32.668C127.277 32.5704 127.226 32.485 127.147 32.4266C127.083 32.3795 127.007 32.3542 126.929 32.3542Z" fill="white"/>
</g>
<defs>
<clipPath id="clip0_1230_3219">
<rect width="182" height="122" fill="white" transform="translate(0.183594 0.730469)"/>
</clipPath>
</defs>
</svg>
