<svg xmlns="http://www.w3.org/2000/svg" xmlns:xlink="http://www.w3.org/1999/xlink" width="1095" height="769" fill="none" xmlns:v="https://vecta.io/nano"><path d="M1060.54 768.502l-10.3-58.827.05-.009a57.52 57.52 0 0 1 10.31-.907h.05v59.734l-.11.009zm-10.17-58.736l10.17 58.075v-58.968a57.25 57.25 0 0 0-10.17.895v-.002z" fill="#fff"/><g stroke-width=".3" stroke-miterlimit="10"><path d="M1013.15 134.144C941.698 119.484 916.211 35.1686 850.947 9.74837C808.62 -6.79395 783.361 36.1451 757.729 61.2425C732.592 85.9467 697.999 93.3419 670.239 68.0785C650.326 50.0043 637.47 24.4461 606.08 25.223C557.909 26.3809 518.4 89.5397 486.719 118.956C467.848 136.568 445.718 154.553 418.486 153.376C389.28 152.186 360.049 140.094 333.175 129.802C274.701 107.401 219.615 80.2662 155.747 82.1098C97.6048 83.6952 40.4697 96.9821 -17.8483 95.3949" stroke="url(#A)"/><path d="M1020.18 145.688C950.689 132.627 922.399 54.2388 859.203 29.5265C818.549 13.5902 787.421 48.7589 757.864 70.4598C729.397 91.3753 694.994 99.961 664.148 78.4426C642.93 63.6301 628.442 45.9893 599.816 46.6859C550.362 47.8351 511.181 106.338 476.15 134.84C457.989 149.681 438.262 162.53 414.279 162.465C387.336 162.38 359.488 150.198 335.08 140.022C277.407 115.942 224.214 86.0452 160.037 89.8689C100.303 93.3265 42.2544 110.373 -17.846 109.666" stroke="url(#B)"/><path d="M1028 156.944C959.781 145.478 928.992 71.6315 866.571 49.1048C826.893 34.86 789.686 64.0408 756.311 81.1568C725.014 97.2958 691.117 104.002 657.957 89.108C636.014 79.2458 618.328 67.5296 592.958 68.3476C543.995 69.8965 505.757 120.279 468.961 146.985C450.415 160.436 430.501 171.797 407.113 171.34C381.357 170.867 355.481 158.896 332.459 148.135C277.952 122.788 228.814 91.7297 166.6 97.0534C104.485 102.378 44.829 123.675 -17.844 123.941" stroke="url(#C)"/><path d="M1036.41 168.003C970.156 158.532 936.76 90.7133 876.008 69.5855C836.72 55.938 793.538 78.3388 756.937 90.7747C721.722 102.725 687.151 106.75 650.485 99.5626C628.998 95.3526 607.722 89.1619 585.508 90.1996C537.626 92.5488 500.535 133.722 462.374 158.04C444.136 169.611 423.731 180.571 401.528 180.122C374.982 179.644 349.115 166.286 326.3 154.04C275.458 126.934 231.643 96.8038 171.785 104.027C107.778 111.816 46.9128 136.772 -17.9407 138.41" stroke="url(#D)"/><path d="M1045.13 178.86C980.732 171.384 945.026 109.496 885.841 90.0641C844.284 76.4011 794.127 94.0963 752.819 101.941C695.504 112.749 635.909 110.162 577.76 112.838C531.161 114.997 494.818 147.851 455.688 169.487C406.454 196.603 367.131 188.208 320.838 159.647C277.002 132.589 238.714 102.497 184.58 109.759C115.926 118.903 51.5669 149.683 -18.0345 152.875" stroke="url(#E)"/><path d="M1053.74 189.822C991.202 184.242 953.286 128.186 895.472 110.448C850.56 96.6627 794.119 109.36 748.008 112.514C711.968 114.944 672.724 109.522 637.813 120.186C614.275 127.359 595.184 133.671 570.006 135.283C522.514 138.23 485.916 164.937 443.353 183.378C397.424 203.381 361.444 196.892 320.971 168.668C278.535 139.042 244.996 107.099 189.764 116.336C119.216 128.144 53.55 162.482 -18.3313 167.145" stroke="url(#F)"/><path d="M1062.15 200.78C1000.79 196.695 960.668 145.48 903.331 130.124C878.702 123.514 850.856 125.504 825.498 124.637C799.053 123.862 772.507 123.285 746.062 122.609C709.156 121.663 665.3 112.246 631.128 130.447C606.96 143.265 591.679 155.549 562.649 157.531C516.241 160.683 478.999 180.35 435.671 195.217C390.858 210.67 355.653 206.366 318.55 176.183C279.483 144.4 251.274 112.493 196.921 122.925C123.792 136.995 56.5206 175.287 -18.332 181.515" stroke="url(#G)"/><path d="M1069.97 212.035C1010.38 209.349 968.345 163.672 912.281 149.91C887.057 143.692 858.724 144.787 832.883 142.232C804.477 139.462 776.075 136.295 747.67 133.326C708.318 129.291 658.572 115.275 624.149 141.303C600.638 159.18 587.492 176.732 555.6 178.794C510.872 181.66 472.683 195.472 429.675 206.675C386.964 217.781 351.636 217.144 318.19 186.093C302.006 171.117 288.509 152.888 270.336 140.178C248.529 124.866 226.915 124.817 201.512 130.491C126.787 147.028 58.4094 188.384 -18.4257 195.887" stroke="url(#H)"/><path d="M1077 223.679C1016.91 221.881 972 177.869 914.23 168.159C859.91 159.066 804.378 154.228 749.861 145.134C709.342 138.416 655.086 119.909 620.435 150.594C596.605 171.839 585.278 197.727 549.434 200.357C528.402 201.898 508.075 201.264 487.125 205.283C466.174 209.303 445.509 215.009 424.46 218.929C381.277 226.86 344.754 227.8 313.997 193.101C300.382 177.746 289.353 159.435 272.955 146.935C251.845 130.735 230.315 132.868 205.402 139.041C129.478 157.849 59.9955 201.972 -18.524 210.455" stroke="url(#I)"/><path d="M1082.94 235.61C1023.73 234.314 977.017 194.848 919.732 186.43C894.491 182.789 869.33 181.824 844.096 177.093C812.061 171.027 780.43 163.577 748.598 156.719C706.812 147.713 650.012 125.819 615.623 161.56C592.565 185.486 582.184 217.426 544.069 220.238C523.333 221.782 502.52 219.955 481.579 222.587C460.54 225.119 439.789 228.942 418.75 231.375C376.871 236.243 339.248 239.158 311.959 202.5C300.319 186.96 291.563 168.268 276.648 155.382C256.729 138.2 234.6 141.319 210.377 147.596C132.667 167.878 61.9773 215.363 -18.6194 224.526" stroke="url(#J)"/><path d="M1087.49 248.127C1029.67 246.94 981.836 212.323 925.535 204.208C897.435 200.151 870.401 198.877 842.414 192.64C809.302 185.278 776.499 176.036 743.589 167.883C701.32 157.386 644.53 134.105 611.396 174.017C589.506 200.33 579.298 235.839 539.901 238.544C497.146 241.522 453.42 242.116 410.472 244.4C368.907 246.594 333.255 250.017 309.04 211.3C299.373 195.773 292.593 176.698 278.563 164.313C258.941 146.935 235.616 151.83 212.281 158.311C134.066 180.076 62.7697 229.837 -18.7159 239.093" stroke="url(#K)"/><path d="M1090.36 261.334C1033.13 259.556 984.091 228.597 928.183 220.882C899.786 216.922 872.851 215.648 844.671 208.716C810.282 200.355 776.6 189.818 742.514 180.468C699.957 168.78 641.597 144.101 608.941 186.295C587.436 214.097 577.994 253.08 537.215 255.775C494.658 258.656 450.456 256.67 407.619 257.27C366.854 257.883 329.707 263.477 307.87 223.19C299.39 207.473 294.19 188.211 280.951 175.633C262.221 157.765 237.609 163.147 214.965 169.534C135.858 191.987 63.8518 244.518 -18.8148 253.27" stroke="url(#L)"/><path d="M1091.45 275.311C1034.82 272.347 984.776 244.355 929.165 236.444C900.867 232.385 874.127 231.41 846.047 224.38C810.872 215.518 776.506 203.985 741.735 193.837C699.773 181.658 639.837 156.472 608.163 199.368C586.65 228.358 578.384 268.737 536.223 271.423C493.47 274.104 449.473 270.93 406.543 270.637C366.277 270.362 327.534 278.522 307.188 236.758C299.497 221.047 295.484 201.496 282.541 188.821C264.304 170.956 238.509 176.231 216.261 182.521C136.858 204.972 64.4384 260.176 -18.8123 267.735" stroke="url(#M)"/><path d="M1091.36 289.683C1033.83 287.705 983.604 257.333 927.302 249.515C899.102 245.557 872.267 244.085 844.284 237.254C809.797 228.892 775.818 218.353 741.634 209.002C698.682 197.312 641.209 172.837 608.159 214.831C586.358 242.531 576.028 281.608 535.346 284.601C493.084 287.682 448.986 284.903 406.644 285.209C366.079 285.428 327.836 292.501 306.994 251.13C299.008 235.219 294.503 215.466 281.364 202.69C263.027 184.924 237.233 190.1 215.084 196.292C135.879 218.645 64.3383 275.242 -18.8083 282.009" stroke="url(#N)"/><path d="M1091.26 304.053C1032.05 302.559 980.958 269.109 923.079 260.885C895.175 256.928 868.243 255.258 840.55 249.221C807.044 241.857 773.943 232.811 740.639 224.655C697.087 214.051 642.464 191.478 607.852 230.885C585.076 256.893 572.497 292.882 533.294 295.985C491.623 299.268 448.206 297.981 406.252 299.181C386.608 299.741 362.506 302.847 343.191 298.454C324.369 294.262 314.684 281.51 306.011 265.098C297.434 248.984 292.339 228.831 278.708 215.854C260.173 198.186 234.678 202.967 212.23 209.454C133.715 232.01 63.5461 290.103 -19.1044 296.477" stroke="url(#O)"/><path d="M1091.16 318.421C1029.59 316.811 977.036 279.981 916.992 270.949C857.145 261.919 798.286 252.697 738.756 240.596C695.094 231.676 643.312 212.096 607.051 247.328C582.711 271.047 567.693 302.857 530.071 305.772C488.893 308.959 446.941 309.961 405.57 312.652C386.217 313.908 362.213 317.114 343.194 312.821C323.977 308.528 313.901 295.278 304.636 278.763C295.371 262.248 289.391 241.692 275.169 228.513C256.239 210.941 231.24 215.23 208.495 222.013C131.062 244.972 62.8572 304.566 -19.0032 310.846" stroke="url(#P)"/><path d="M1091.07 332.791C1026.54 330.666 972.032 290.156 909.233 279.916C852.152 270.508 793.659 265.55 736.277 256.932C692.797 250.293 643.951 234.499 606.147 264.369C579.952 285.102 562.105 311.838 525.965 314.466C485.184 317.458 445.284 321.547 404.593 325.828C385.629 327.879 361.918 331.483 342.997 327.29C323.288 322.894 312.624 308.947 302.668 292.427C292.518 275.51 285.554 254.452 270.545 240.871C251.221 223.296 226.818 226.995 203.478 234.169C127.522 257.635 61.4777 318.829 -19.2984 325.314" stroke="url(#Q)"/><path d="M1090.97 347.164C1023.09 344.124 966.145 299.831 900.297 287.886C846.18 278.101 788.246 278.102 733.305 273.367C690.299 269.605 644.09 257.991 604.947 281.51C576.803 298.463 555.737 319.726 521.178 321.968C480.795 324.567 443.338 332.24 403.422 338.607C384.848 341.553 361.528 345.656 342.803 341.563C322.601 337.164 310.956 322.318 300.311 305.595C289.177 288.175 281.032 266.614 265.236 252.631C245.319 235.052 221.613 237.963 197.874 245.729C123.591 269.999 60.2004 332.797 -19.2947 339.588" stroke="url(#R)"/><path d="M1090.87 361.527C1019.25 357.174 959.568 309.096 890.28 295.145C838.929 284.884 782.142 290.343 729.935 289.987C687.696 289.699 643.728 282.263 603.644 298.937C573.854 311.32 549.075 326.909 515.902 328.665C475.719 330.769 440.998 342.425 402.054 351.079C383.966 355.118 361.136 359.72 342.608 355.827C321.912 351.424 308.991 335.578 297.754 318.752C285.736 300.732 276.213 278.566 259.433 264.18C239.023 246.598 215.915 248.621 191.579 257.077C119.165 282.153 58.6265 346.556 -19.3922 353.952" stroke="url(#S)"/><path d="M1090.78 375.903C1015.22 370.036 952.599 317.974 879.672 302.016C830.398 291.174 775.942 302.398 726.269 306.717C684.99 310.4 642.675 306.642 602.242 316.574C571.102 324.191 542.614 333.61 510.233 334.975C470.251 336.585 438.265 352.521 400.687 363.563C383.084 368.795 360.941 373.995 342.412 370.202C321.123 365.795 306.926 348.949 295.001 331.822C265.577 289.798 243.364 246.733 184.989 268.237C114.544 294.218 57.1515 360.327 -19.4896 368.327" stroke="url(#T)"/><path d="M1090.68 390.276C1011.09 382.597 945.434 326.847 868.674 308.583C820.391 297.055 769.844 313.955 722.505 323.542C681.787 331.788 641.823 330.722 600.742 334.208C568.45 336.961 536.75 339.916 504.371 340.884C464.589 342.099 435.141 362.215 399.124 375.844C382.007 382.269 360.55 388.168 342.119 384.474C320.041 380.062 304.766 362.019 292.051 344.886C261.536 303.747 236.491 256.302 178.006 279.391C109.528 306.377 55.4798 374.193 -19.685 382.798" stroke="url(#U)"/><path d="M1090.58 404.644C1006.95 395.253 938.267 335.717 857.772 315.148C809.199 302.725 764.043 325.212 718.738 340.363C645.935 364.742 573.327 345.318 498.506 346.888C458.825 347.708 431.914 372.202 397.658 388.122C352.413 409.122 319.043 396.208 289.298 357.849C257.987 317.596 229.812 265.869 171.219 290.444C104.807 318.335 54.0046 387.859 -19.6838 397.068" stroke="url(#V)"/><path d="M1090.49 419.017C1003.02 407.816 931.299 344.79 847.069 322.015C797.22 308.494 758.149 336.076 714.976 357.09C674.774 376.736 641.114 377.398 597.841 369.472C563.438 363.191 527.98 352.543 492.842 352.997C453.064 353.519 428.591 382.291 396.196 400.405C351.318 425.47 316.891 408.287 286.449 370.816C254.441 331.45 222.941 275.339 164.534 301.501C100.09 330.298 52.533 401.528 -19.7778 411.342" stroke="url(#W)"/><path d="M1090.39 433.38C999.181 420.666 924.719 354.153 837.048 329.274C785.332 314.649 752.15 346.93 711.603 373.809C694.75 384.893 675.924 395.963 655.386 397.31C636.132 398.566 614.955 392.376 596.535 386.998C561.369 376.847 524.673 359.55 487.463 359.792C447.589 360.015 425.259 392.965 394.825 412.975C350.612 442.009 314.732 420.654 283.791 383.972C251.284 345.396 216.356 285.297 158.237 312.848C95.563 342.549 51.2526 415.288 -19.8778 425.705" stroke="url(#X)"/><path d="M1090.29 447.755C995.838 433.732 918.734 363.93 828.015 337.246C774.136 321.417 746.254 358.194 708.632 390.246C693.544 403.126 675.986 416.287 655.447 417.93C635.697 419.48 613.547 411.103 595.335 404.24C559.699 390.716 521.859 367.267 482.677 367.297C442.409 367.419 422.422 404.15 393.655 425.857C350.403 458.564 312.675 433.233 281.531 397.441C248.624 359.655 210.465 295.768 152.533 324.708C91.4338 355.113 50.1715 429.558 -19.9741 440.279" stroke="url(#Y)"/><path d="M1090.2 462.124C992.884 447.188 913.63 374.201 820.257 346.111C764.016 329.176 740.745 370.048 706.154 406.481C692.536 420.858 676.249 435.811 655.609 437.652C635.365 439.496 612.437 429.33 594.432 421.08C558.419 404.779 519.63 375.774 478.573 375.791C437.812 375.81 419.975 415.728 392.678 438.931C350.393 474.717 310.911 445.905 279.565 410.904C246.357 373.81 205.357 306.732 147.616 336.665C87.8944 367.674 49.3853 443.625 -20.0714 454.647" stroke="url(#Z)"/><path d="M1090.1 476.488C990.421 461.14 909.509 385.267 814.07 356.073C786.394 347.559 767.637 348.323 746.182 368.691C729.693 384.337 718.403 404.775 704.269 422.419C691.828 437.993 676.619 454.142 655.681 456.18C634.844 458.119 611.727 446.762 593.727 437.621C557.434 419.038 518.083 385.569 475.348 385.575C433.896 385.589 418.214 427.999 391.994 452.398C350.679 490.768 309.344 458.772 278.09 424.565C244.682 387.965 201.231 318.393 143.682 349.219C84.9444 380.631 48.7939 458.084 -20.1687 469.011" stroke="url(#a)"/><path d="M1090 490.862C988.745 475.9 906.668 397.144 809.851 367.445C782.371 359.032 762.928 359.098 742.452 380.563C726.35 397.401 716.532 419.137 703.279 437.976C691.52 454.744 677.393 471.297 655.766 473.33C634.335 475.364 611.517 463.613 593.326 453.578C556.748 433.309 517.319 396.668 473.202 396.763C430.861 396.871 417.242 440.781 391.608 466.176C351.07 506.236 308.271 471.851 277.21 438.339C243.602 402.035 198.485 330.767 141.031 362.089C82.786 393.703 48.7973 472.558 -20.1633 483.188" stroke="url(#b)"/><path d="M1089.9 505.232C1039.02 498.344 991.352 469.575 946.504 446.177C901.952 422.979 856.148 395.115 807.787 380.513C780.8 372.302 760.373 371.766 740.488 393.533C724.579 410.966 715.741 433.7 703.075 453.336C639.443 551.91 549.209 409.373 472.321 410.038C428.794 410.434 417.345 454.558 391.606 480.844C351.654 521.8 307.683 485.623 276.914 452.807C243.009 416.6 197.305 344.634 139.554 375.954C81.309 407.568 48.8906 487.722 -20.4601 497.655" stroke="url(#c)"/><path d="M1088.14 517.907C987.479 502.156 905.686 425.187 809.264 395.391C781.884 386.979 761.463 385.551 741.18 407.811C725.271 425.343 716.333 448.176 703.567 467.91C639.636 566.977 549.805 423.254 472.719 424.115C429.29 424.612 417.147 469.028 391.309 495.412C351.26 536.169 307.583 500.292 276.716 467.277C242.911 430.971 197.108 358.906 139.457 390.226C81.2115 421.84 48.8891 502.392 -20.5589 512.126" stroke="url(#d)"/><path d="M1083.44 527.293C984.661 510.762 904.917 437.276 809.767 409.174C784.945 401.869 765.021 400.147 745.941 419.442C729.147 436.473 719.81 460.095 707.338 480.129C642.184 584.936 553.377 435.67 474.311 437.41C432.458 438.313 418.258 480.535 393.8 507.028C354.827 549.279 311.511 518.359 279.369 484.245C245.463 448.237 199.288 372.898 141.051 403.223C81.4279 434.233 49.7851 516.474 -20.6512 526.4" stroke="url(#e)"/><path d="M1076.09 533.876C981.553 517.969 904.734 449.755 813.519 423.464C788.697 416.258 768.87 414.735 749.791 433.931C732.799 451.059 723.362 474.78 710.691 495.011C644.444 601 556.644 448.668 476.887 450.403C434.64 451.304 419.248 494.509 394.198 521.097C354.535 563.244 311.805 533.22 279.273 498.41C245.466 462.303 199.392 386.568 141.056 416.992C81.3337 448.101 49.7862 530.838 -20.7488 540.763" stroke="url(#f)"/><path d="M1066.59 538.075C979.636 524.102 907.295 465.234 824.173 438.999C797.089 430.489 774.113 427.557 753.335 449.913C736.534 468.034 726.899 491.853 713.634 512.376C647.411 614.797 558.626 462.162 480.553 463.016C437.519 463.516 420.138 508.986 394.198 535.766C355.339 575.738 314.458 549.692 282.021 515.378C248.212 479.568 201.371 400.557 142.747 429.691C81.5486 460.195 50.6793 544.819 -20.8446 555.035" stroke="url(#g)"/><path d="M1055.32 540.476C973.486 528.521 905.652 474.342 826.946 451.902C800.153 444.286 777.356 444.032 757.764 466.098C740.957 485.012 731.221 509.226 717.263 530.043C649.871 630.176 562.101 473.583 484.615 475.136C440.196 476.022 422.109 523.767 394.294 550.634C352.669 590.983 312.497 562.166 279.28 526.361C247.044 491.651 201.368 415.325 144.536 442.291C81.6634 472.188 51.6689 558.801 -20.9432 569.406" stroke="url(#h)"/><path d="M1042.78 541.382C966.949 531.846 903.917 482.953 830.511 464.811C803.218 458.084 781.986 460.02 762.885 482.486C747.465 500.617 737.939 522.95 724.877 542.583C654.685 648.148 570.204 486.722 489.368 487.359C445.743 487.755 425.095 534.69 398.167 561.662C383.362 576.526 365.118 588.988 343.129 585.964C315.914 582.309 293.684 556.588 276.541 537.442C245.781 503.239 201.466 430.093 146.326 454.989C81.682 484.082 52.7592 572.783 -21.0406 583.875" stroke="url(#i)"/><path d="M1029.36 541.39C960.023 534.475 901.983 491.562 834.569 477.723C776.616 465.831 759.713 513.684 733.083 555.127C660.473 668.009 577.829 497.577 494.225 498.988C449.609 499.774 426.382 548.772 398.365 576.232C384.258 590.011 367.102 602.084 346.484 600.754C318.862 598.88 296.43 573.753 279.189 554.606C245.097 516.911 201.002 440.397 141.479 471.21C80.6686 502.608 50.2929 587.236 -21.237 598.344" stroke="url(#j)"/><path d="M1015.55 540.898C953.199 536.706 900.149 500.269 839.12 490.834C781.74 481.92 764.816 532.844 737.996 573.097C665.213 682.311 581.492 510.682 499.573 511.015C453.58 511.196 428.162 563.054 398.859 591C383.86 605.268 365.819 616.84 344.517 614.514C318.974 611.664 298.692 589.722 282.233 571.672C248.531 534.673 203.181 454.087 143.469 483.61C80.985 514.402 51.4834 601.117 -21.1355 612.713" stroke="url(#k)"/></g><defs><radialGradient id="A" cx="0" cy="0" r="1" gradientTransform="translate(497.894 78.8642) rotate(-179.609) scale(515.62 75.0911)" xlink:href="#l"><stop stop-color="#34d1bf"/><stop offset=".769" stop-color="#4361ee"/><stop offset="1" stop-color="#bababa"/></radialGradient><radialGradient id="B" cx="0" cy="0" r="1" gradientTransform="translate(501.4 93.1334) rotate(-179.609) scale(519.123 69.9251)" xlink:href="#l"><stop stop-color="#34d1bf"/><stop offset=".769" stop-color="#4361ee"/><stop offset="1" stop-color="#bababa"/></radialGradient><radialGradient id="C" cx="0" cy="0" r="1" gradientTransform="translate(505.3 107.502) rotate(-179.609) scale(523.022 64.5117)" xlink:href="#l"><stop stop-color="#34d1bf"/><stop offset=".769" stop-color="#4361ee"/><stop offset="1" stop-color="#bababa"/></radialGradient><radialGradient id="D" cx="0" cy="0" r="1" gradientTransform="translate(509.448 121.932) rotate(-179.609) scale(527.265 58.9313)" xlink:href="#l"><stop stop-color="#34d1bf"/><stop offset=".769" stop-color="#4361ee"/><stop offset="1" stop-color="#bababa"/></radialGradient><radialGradient id="E" cx="0" cy="0" r="1" gradientTransform="translate(513.757 134.763) rotate(-179.609) scale(531.657 52.0283)" xlink:href="#l"><stop stop-color="#34d1bf"/><stop offset=".769" stop-color="#4361ee"/><stop offset="1" stop-color="#bababa"/></radialGradient><radialGradient id="F" cx="0" cy="0" r="1" gradientTransform="translate(517.902 148.867) rotate(-179.609) scale(536.098 46.9612)" xlink:href="#l"><stop stop-color="#34d1bf"/><stop offset=".769" stop-color="#4361ee"/><stop offset="1" stop-color="#bababa"/></radialGradient><radialGradient id="G" cx="0" cy="0" r="1" gradientTransform="translate(522.108 161.536) rotate(-179.609) scale(540.293 43.3171)" xlink:href="#l"><stop stop-color="#34d1bf"/><stop offset=".769" stop-color="#4361ee"/><stop offset="1" stop-color="#bababa"/></radialGradient><radialGradient id="H" cx="0" cy="0" r="1" gradientTransform="translate(526.005 169.544) rotate(-179.609) scale(544.241 44.6514)" xlink:href="#l"><stop stop-color="#34d1bf"/><stop offset=".769" stop-color="#4361ee"/><stop offset="1" stop-color="#bababa"/></radialGradient><radialGradient id="I" cx="0" cy="0" r="1" gradientTransform="translate(529.497 178.469) rotate(-179.609) scale(547.793 46.0007)" xlink:href="#l"><stop stop-color="#34d1bf"/><stop offset=".769" stop-color="#4361ee"/><stop offset="1" stop-color="#bababa"/></radialGradient><radialGradient id="J" cx="0" cy="0" r="1" gradientTransform="translate(532.442 188.066) rotate(-179.609) scale(550.804 47.1885)" xlink:href="#l"><stop stop-color="#34d1bf"/><stop offset=".769" stop-color="#4361ee"/><stop offset="1" stop-color="#bababa"/></radialGradient><radialGradient id="K" cx="0" cy="0" r="1" gradientTransform="translate(534.692 198.66) rotate(-179.609) scale(553.123 47.9993)" xlink:href="#l"><stop stop-color="#34d1bf"/><stop offset=".769" stop-color="#4361ee"/><stop offset="1" stop-color="#bababa"/></radialGradient><radialGradient id="L" cx="0" cy="0" r="1" gradientTransform="translate(536.09 210.35) rotate(-179.609) scale(554.603 48.6003)" xlink:href="#l"><stop stop-color="#34d1bf"/><stop offset=".769" stop-color="#4361ee"/><stop offset="1" stop-color="#bababa"/></radialGradient><radialGradient id="M" cx="0" cy="0" r="1" gradientTransform="translate(536.643 223.636) rotate(-179.609) scale(555.146 49.1361)" xlink:href="#l"><stop stop-color="#34d1bf"/><stop offset=".769" stop-color="#4361ee"/><stop offset="1" stop-color="#bababa"/></radialGradient><radialGradient id="N" cx="0" cy="0" r="1" gradientTransform="translate(536.593 238.64) rotate(-179.609) scale(555.097 48.2629)" xlink:href="#l"><stop stop-color="#34d1bf"/><stop offset=".769" stop-color="#4361ee"/><stop offset="1" stop-color="#bababa"/></radialGradient><radialGradient id="O" cx="0" cy="0" r="1" gradientTransform="translate(536.391 253.744) rotate(-179.609) scale(555.195 48.1763)" xlink:href="#l"><stop stop-color="#34d1bf"/><stop offset=".769" stop-color="#4361ee"/><stop offset="1" stop-color="#bababa"/></radialGradient><radialGradient id="P" cx="0" cy="0" r="1" gradientTransform="translate(536.401 267.136) rotate(-179.609) scale(555.097 49.0141)" xlink:href="#l"><stop stop-color="#34d1bf"/><stop offset=".769" stop-color="#4361ee"/><stop offset="1" stop-color="#bababa"/></radialGradient><radialGradient id="Q" cx="0" cy="0" r="1" gradientTransform="translate(536.213 280.331) rotate(-179.609) scale(555.195 50.0811)" xlink:href="#l"><stop stop-color="#34d1bf"/><stop offset=".769" stop-color="#4361ee"/><stop offset="1" stop-color="#bababa"/></radialGradient><radialGradient id="R" cx="0" cy="0" r="1" gradientTransform="translate(536.177 293.094) rotate(-179.609) scale(555.146 51.3909)" xlink:href="#l"><stop stop-color="#34d1bf"/><stop offset=".769" stop-color="#4361ee"/><stop offset="1" stop-color="#bababa"/></radialGradient><radialGradient id="S" cx="0" cy="0" r="1" gradientTransform="translate(536.091 305.709) rotate(-179.609) scale(555.146 52.8066)" xlink:href="#l"><stop stop-color="#34d1bf"/><stop offset=".769" stop-color="#4361ee"/><stop offset="1" stop-color="#bababa"/></radialGradient><radialGradient id="T" cx="0" cy="0" r="1" gradientTransform="translate(536.003 318.723) rotate(-179.609) scale(555.146 54.0078)" xlink:href="#l"><stop stop-color="#34d1bf"/><stop offset=".769" stop-color="#4361ee"/><stop offset="1" stop-color="#bababa"/></radialGradient><radialGradient id="U" cx="0" cy="0" r="1" gradientTransform="translate(535.871 331.216) rotate(-179.609) scale(555.195 55.6399)" xlink:href="#l"><stop stop-color="#34d1bf"/><stop offset=".769" stop-color="#4361ee"/><stop offset="1" stop-color="#bababa"/></radialGradient><radialGradient id="V" cx="0" cy="0" r="1" gradientTransform="translate(535.835 343.613) rotate(-179.609) scale(555.146 57.2442)" xlink:href="#l"><stop stop-color="#34d1bf"/><stop offset=".769" stop-color="#4361ee"/><stop offset="1" stop-color="#bababa"/></radialGradient><radialGradient id="W" cx="0" cy="0" r="1" gradientTransform="translate(535.752 356.18) rotate(-179.609) scale(555.146 59.0508)" xlink:href="#l"><stop stop-color="#34d1bf"/><stop offset=".769" stop-color="#4361ee"/><stop offset="1" stop-color="#bababa"/></radialGradient><radialGradient id="X" cx="0" cy="0" r="1" gradientTransform="translate(535.663 368.912) rotate(-179.609) scale(555.146 60.6814)" xlink:href="#l"><stop stop-color="#34d1bf"/><stop offset=".769" stop-color="#4361ee"/><stop offset="1" stop-color="#bababa"/></radialGradient><radialGradient id="Y" cx="0" cy="0" r="1" gradientTransform="translate(535.577 381.946) rotate(-179.609) scale(555.146 62.1225)" xlink:href="#l"><stop stop-color="#34d1bf"/><stop offset=".769" stop-color="#4361ee"/><stop offset="1" stop-color="#bababa"/></radialGradient><radialGradient id="Z" cx="0" cy="0" r="1" gradientTransform="translate(535.489 395.035) rotate(-179.609) scale(555.146 63.4015)" xlink:href="#l"><stop stop-color="#34d1bf"/><stop offset=".769" stop-color="#4361ee"/><stop offset="1" stop-color="#bababa"/></radialGradient><radialGradient id="a" cx="0" cy="0" r="1" gradientTransform="translate(535.398 408.411) rotate(-179.609) scale(555.146 64.3896)" xlink:href="#l"><stop stop-color="#34d1bf"/><stop offset=".769" stop-color="#4361ee"/><stop offset="1" stop-color="#bababa"/></radialGradient><radialGradient id="b" cx="0" cy="0" r="1" gradientTransform="translate(535.358 421.952) rotate(-179.609) scale(555.097 65.1243)" xlink:href="#l"><stop stop-color="#34d1bf"/><stop offset=".769" stop-color="#4361ee"/><stop offset="1" stop-color="#bababa"/></radialGradient><radialGradient id="c" cx="0" cy="0" r="1" gradientTransform="translate(535.163 436.101) rotate(-179.609) scale(555.195 65.3444)" xlink:href="#l"><stop stop-color="#34d1bf"/><stop offset=".769" stop-color="#4361ee"/><stop offset="1" stop-color="#bababa"/></radialGradient><radialGradient id="d" cx="0" cy="0" r="1" gradientTransform="translate(534.225 450.471) rotate(-179.609) scale(554.357 65.4393)" xlink:href="#l"><stop stop-color="#34d1bf"/><stop offset=".769" stop-color="#4361ee"/><stop offset="1" stop-color="#bababa"/></radialGradient><radialGradient id="e" cx="0" cy="0" r="1" gradientTransform="translate(531.816 464.418) rotate(-179.609) scale(552.037 65.7498)" xlink:href="#l"><stop stop-color="#34d1bf"/><stop offset=".769" stop-color="#4361ee"/><stop offset="1" stop-color="#bababa"/></radialGradient><radialGradient id="f" cx="0" cy="0" r="1" gradientTransform="translate(528.069 478.453) rotate(-179.609) scale(548.386 66.0533)" xlink:href="#l"><stop stop-color="#34d1bf"/><stop offset=".769" stop-color="#4361ee"/><stop offset="1" stop-color="#bababa"/></radialGradient><radialGradient id="g" cx="0" cy="0" r="1" gradientTransform="translate(523.239 492.268) rotate(-179.609) scale(543.648 66.4774)" xlink:href="#l"><stop stop-color="#34d1bf"/><stop offset=".769" stop-color="#4361ee"/><stop offset="1" stop-color="#bababa"/></radialGradient><radialGradient id="h" cx="0" cy="0" r="1" gradientTransform="translate(517.519 506.047) rotate(-179.609) scale(538.023 67.0316)" xlink:href="#l"><stop stop-color="#34d1bf"/><stop offset=".769" stop-color="#4361ee"/><stop offset="1" stop-color="#bababa"/></radialGradient><radialGradient id="i" cx="0" cy="0" r="1" gradientTransform="translate(511.158 519.889) rotate(-179.609) scale(531.756 67.6318)" xlink:href="#l"><stop stop-color="#34d1bf"/><stop offset=".769" stop-color="#4361ee"/><stop offset="1" stop-color="#bababa"/></radialGradient><radialGradient id="j" cx="0" cy="0" r="1" gradientTransform="translate(504.301 534.14) rotate(-179.609) scale(525.094 67.7885)" xlink:href="#l"><stop stop-color="#34d1bf"/><stop offset=".769" stop-color="#4361ee"/><stop offset="1" stop-color="#bababa"/></radialGradient><radialGradient id="k" cx="0" cy="0" r="1" gradientTransform="translate(497.4 547.863) rotate(-179.609) scale(518.087 68.3862)" xlink:href="#l"><stop stop-color="#34d1bf"/><stop offset=".769" stop-color="#4361ee"/><stop offset="1" stop-color="#bababa"/></radialGradient><linearGradient id="l" gradientUnits="userSpaceOnUse"/></defs></svg>