<svg xmlns="http://www.w3.org/2000/svg" width="118" height="31" fill="none" xmlns:v="https://vecta.io/nano"><path d="M2.122 17.447a1 1 0 0 0-1.243 1.567l1.243-1.567zM43 8.23l.882-.471L43 8.23zm74.5-7.5L105.967.167l5.278 10.27L117.5.73zM.878 19.014C16.763 31.62 29.506 33.01 37.422 28.936c7.922-4.077 10.581-13.45 6.46-21.176l-1.765.941c3.618 6.783 1.277 14.911-5.611 18.456-6.894 3.548-18.769 2.683-34.385-9.71L.878 19.014zM43.882 7.76c-.938-1.758-2.301-2.749-3.873-2.429-1.411.288-2.478 1.565-3.107 2.996-1.291 2.939-1.24 7.598 2.158 11.125s9.908 5.684 21.049 4.215c11.161-1.471 27.166-6.601 49.841-17.932l-.895-1.789c-22.582 11.285-38.36 16.308-49.207 17.738-10.868 1.433-16.591-.76-19.347-3.62s-2.781-6.625-1.767-8.933c.524-1.193 1.205-1.745 1.675-1.841.31-.063.961.008 1.708 1.41l1.765-.941z" fill="#ccd7ff"/></svg>