<svg width="20" height="28" viewBox="0 0 20 28" fill="none" xmlns="http://www.w3.org/2000/svg">
<path d="M11.3184 1.69922C11.3184 1.00886 10.7587 0.449219 10.0684 0.449219C9.378 0.449219 8.81836 1.00886 8.81836 1.69922L11.3184 1.69922ZM9.18448 27.5831C9.67263 28.0713 10.4641 28.0713 10.9522 27.5831L18.9072 19.6282C19.3954 19.14 19.3954 18.3485 18.9072 17.8604C18.419 17.3722 17.6276 17.3722 17.1394 17.8604L10.0684 24.9315L2.99729 17.8604C2.50914 17.3722 1.71768 17.3722 1.22953 17.8604C0.74137 18.3485 0.74137 19.14 1.22953 19.6282L9.18448 27.5831ZM8.81836 1.69922L8.81836 26.6992L11.3184 26.6992L11.3184 1.69922L8.81836 1.69922Z" fill="#6981F1"/>
</svg>
