<svg width="25" height="15" viewBox="0 0 25 15" fill="none" xmlns="http://www.w3.org/2000/svg">
<path d="M1.17871 6.37891C0.626426 6.37891 0.178711 6.82662 0.178711 7.37891C0.178711 7.93119 0.626426 8.37891 1.17871 8.37891L1.17871 6.37891ZM23.8858 8.08601C24.2763 7.69549 24.2763 7.06232 23.8858 6.6718L17.5219 0.307837C17.1313 -0.0826873 16.4982 -0.0826873 16.1076 0.307837C15.7171 0.698362 15.7171 1.33153 16.1076 1.72205L21.7645 7.3789L16.1076 13.0358C15.7171 13.4263 15.7171 14.0594 16.1076 14.45C16.4982 14.8405 17.1313 14.8405 17.5219 14.45L23.8858 8.08601ZM1.17871 8.37891L23.1787 8.3789L23.1787 6.3789L1.17871 6.37891L1.17871 8.37891Z" fill="white"/>
</svg>
