<svg width="21" height="21" viewBox="0 0 21 21" fill="none" xmlns="http://www.w3.org/2000/svg">
<g clip-path="url(#clip0_1577_3262)">
<path d="M10.0684 2.21875C12.7402 2.21875 13.0566 2.23047 14.1074 2.27734C15.084 2.32031 15.6113 2.48438 15.9629 2.62109C16.4277 2.80078 16.7637 3.01953 17.1113 3.36719C17.4629 3.71875 17.6777 4.05078 17.8574 4.51562C17.9941 4.86719 18.1582 5.39844 18.2012 6.37109C18.248 7.42578 18.2598 7.74219 18.2598 10.4102C18.2598 13.082 18.248 13.3984 18.2012 14.4492C18.1582 15.4258 17.9941 15.9531 17.8574 16.3047C17.6777 16.7695 17.459 17.1055 17.1113 17.4531C16.7598 17.8047 16.4277 18.0195 15.9629 18.1992C15.6113 18.3359 15.0801 18.5 14.1074 18.543C13.0527 18.5898 12.7363 18.6016 10.0684 18.6016C7.39648 18.6016 7.08008 18.5898 6.0293 18.543C5.05273 18.5 4.52539 18.3359 4.17383 18.1992C3.70898 18.0195 3.37305 17.8008 3.02539 17.4531C2.67383 17.1016 2.45898 16.7695 2.2793 16.3047C2.14258 15.9531 1.97852 15.4219 1.93555 14.4492C1.88867 13.3945 1.87695 13.0781 1.87695 10.4102C1.87695 7.73828 1.88867 7.42187 1.93555 6.37109C1.97852 5.39453 2.14258 4.86719 2.2793 4.51562C2.45898 4.05078 2.67773 3.71484 3.02539 3.36719C3.37695 3.01562 3.70898 2.80078 4.17383 2.62109C4.52539 2.48438 5.05664 2.32031 6.0293 2.27734C7.08008 2.23047 7.39648 2.21875 10.0684 2.21875ZM10.0684 0.417969C7.35352 0.417969 7.01367 0.429687 5.94727 0.476562C4.88477 0.523437 4.1543 0.695312 3.52148 0.941406C2.86133 1.19922 2.30273 1.53906 1.74805 2.09766C1.18945 2.65234 0.849609 3.21094 0.591797 3.86719C0.345703 4.50391 0.173828 5.23047 0.126953 6.29297C0.0800781 7.36328 0.0683594 7.70312 0.0683594 10.418C0.0683594 13.1328 0.0800781 13.4727 0.126953 14.5391C0.173828 15.6016 0.345703 16.332 0.591797 16.9648C0.849609 17.625 1.18945 18.1836 1.74805 18.7383C2.30273 19.293 2.86133 19.6367 3.51758 19.8906C4.1543 20.1367 4.88086 20.3086 5.94336 20.3555C7.00977 20.4023 7.34961 20.4141 10.0645 20.4141C12.7793 20.4141 13.1191 20.4023 14.1855 20.3555C15.248 20.3086 15.9785 20.1367 16.6113 19.8906C17.2676 19.6367 17.8262 19.293 18.3809 18.7383C18.9355 18.1836 19.2793 17.625 19.5332 16.9688C19.7793 16.332 19.9512 15.6055 19.998 14.543C20.0449 13.4766 20.0566 13.1367 20.0566 10.4219C20.0566 7.70703 20.0449 7.36719 19.998 6.30078C19.9512 5.23828 19.7793 4.50781 19.5332 3.875C19.2871 3.21094 18.9473 2.65234 18.3887 2.09766C17.834 1.54297 17.2754 1.19922 16.6191 0.945312C15.9824 0.699219 15.2559 0.527344 14.1934 0.480469C13.123 0.429688 12.7832 0.417969 10.0684 0.417969Z" fill="white"/>
<path d="M10.0684 5.28125C7.23242 5.28125 4.93164 7.58203 4.93164 10.418C4.93164 13.2539 7.23242 15.5547 10.0684 15.5547C12.9043 15.5547 15.2051 13.2539 15.2051 10.418C15.2051 7.58203 12.9043 5.28125 10.0684 5.28125ZM10.0684 13.75C8.22852 13.75 6.73633 12.2578 6.73633 10.418C6.73633 8.57812 8.22852 7.08594 10.0684 7.08594C11.9082 7.08594 13.4004 8.57812 13.4004 10.418C13.4004 12.2578 11.9082 13.75 10.0684 13.75Z" fill="white"/>
<path d="M16.6074 5.07813C16.6074 5.74219 16.0684 6.27735 15.4082 6.27735C14.7441 6.27735 14.209 5.73828 14.209 5.07813C14.209 4.41406 14.748 3.87891 15.4082 3.87891C16.0684 3.87891 16.6074 4.41797 16.6074 5.07813Z" fill="#4361EE"/>
</g>
<defs>
<clipPath id="clip0_1577_3262">
<rect width="20" height="20" fill="white" transform="translate(0.0683594 0.417969)"/>
</clipPath>
</defs>
</svg>
