<svg width="21" height="21" viewBox="0 0 21 21" fill="none" xmlns="http://www.w3.org/2000/svg">
<g clip-path="url(#clip0_1577_3264)">
<path d="M18.5879 0.417969H1.54492C0.728516 0.417969 0.0683594 1.0625 0.0683594 1.85938V18.9727C0.0683594 19.7695 0.728516 20.418 1.54492 20.418H18.5879C19.4043 20.418 20.0684 19.7695 20.0684 18.9766V1.85938C20.0684 1.0625 19.4043 0.417969 18.5879 0.417969ZM6.00195 17.4609H3.0332V7.91406H6.00195V17.4609ZM4.51758 6.61328C3.56445 6.61328 2.79492 5.84375 2.79492 4.89453C2.79492 3.94531 3.56445 3.17578 4.51758 3.17578C5.4668 3.17578 6.23633 3.94531 6.23633 4.89453C6.23633 5.83984 5.4668 6.61328 4.51758 6.61328ZM17.1113 17.4609H14.1465V12.8203C14.1465 11.7148 14.127 10.2891 12.6035 10.2891C11.0605 10.2891 10.8262 11.4961 10.8262 12.7422V17.4609H7.86523V7.91406H10.709V9.21875H10.748C11.1426 8.46875 12.1113 7.67578 13.5527 7.67578C16.5566 7.67578 17.1113 9.65234 17.1113 12.2227V17.4609Z" fill="white"/>
</g>
<defs>
<clipPath id="clip0_1577_3264">
<path d="M0.0683594 0.417969H20.0684V20.418H0.0683594V0.417969Z" fill="white"/>
</clipPath>
</defs>
</svg>
