<svg width="26" height="26" viewBox="0 0 26 26" fill="none" xmlns="http://www.w3.org/2000/svg">
<g clip-path="url(#clip0_1423_1591)">
<path d="M6.09718 0.0757258C6.45621 0.0757258 6.72102 0.0757258 6.98746 0.0757258C12.836 0.0499193 18.6845 0.0241129 24.5314 0.000149724C25.8782 -0.00538023 26.0001 0.134712 26.0001 1.69232C26.0001 8.42043 26.0001 15.1467 26.0001 21.8748C26.0001 24.6306 24.8596 25.9135 22.4195 25.9246C17.0583 25.9485 11.6988 25.9743 6.33762 25.9983C6.05007 25.9983 5.76414 25.9983 5.3125 25.9983C6.14104 24.708 6.1053 23.3919 6.10368 22.072C6.09393 15.1301 6.0988 8.18632 6.0988 1.24439V0.0757258H6.09718ZM16.1096 5.20568V5.24255C13.8904 5.24255 11.6695 5.25545 9.45034 5.23517C8.73877 5.2278 8.38623 5.56328 8.38948 6.37434C8.39435 7.38817 8.38461 8.40199 8.39598 9.41582C8.40248 10.0776 8.68191 10.4278 9.30088 10.426C13.7945 10.4094 18.2881 10.4075 22.7818 10.3965C23.4105 10.3965 23.7224 10.0241 23.7191 9.30338C23.7143 8.35038 23.7256 7.39923 23.7159 6.44623C23.7062 5.42319 23.5209 5.21121 22.6063 5.20752C20.4407 5.20015 18.2751 5.20568 16.1096 5.20568ZM19.8331 20.7946V20.7596C20.7803 20.7596 21.729 20.7485 22.6762 20.7633C23.378 20.7743 23.7273 20.4278 23.7224 19.6057C23.711 17.4859 23.7094 15.366 23.7224 13.2462C23.7273 12.4757 23.417 12.096 22.7493 12.1034C20.8274 12.1237 18.9055 12.155 16.982 12.1771C16.3419 12.1845 16.0657 12.531 16.0722 13.2684C16.0917 15.4177 16.0901 17.5688 16.0722 19.72C16.0657 20.5218 16.4036 20.8131 17.0713 20.7983C17.9908 20.778 18.912 20.7928 19.8331 20.7928V20.7946ZM11.5071 15.6075C10.7516 15.6075 9.98483 15.5301 9.24239 15.6444C8.94022 15.6905 8.52757 16.1052 8.45122 16.437C8.318 17.014 8.73552 17.3476 9.22127 17.3568C10.7062 17.3863 12.1927 17.3882 13.6775 17.3568C14.147 17.3476 14.5174 17.0822 14.4915 16.4444C14.4671 15.814 14.0951 15.6167 13.6142 15.6075C12.9124 15.5928 12.2105 15.6038 11.5071 15.6075ZM11.4502 13.9006C12.178 13.9006 12.9059 13.9154 13.6337 13.8951C14.1113 13.8822 14.4833 13.6739 14.4898 13.0398C14.4947 12.3983 14.1308 12.1937 13.6434 12.19C12.1878 12.1808 10.7338 12.1845 9.27813 12.1863C8.78263 12.1863 8.42197 12.402 8.42197 13.0269C8.42197 13.6425 8.77451 13.8859 9.26839 13.8951C9.9962 13.908 10.724 13.8988 11.4518 13.8988L11.4502 13.9006ZM11.5347 19.0711C10.7793 19.0711 10.0238 19.0674 9.26839 19.0711C8.76151 19.0748 8.4236 19.3421 8.42197 19.9412C8.42197 20.5476 8.76964 20.7946 9.27488 20.7946C10.7321 20.7946 12.1894 20.7983 13.6467 20.7946C14.147 20.7946 14.4915 20.5568 14.4882 19.9356C14.4833 19.32 14.1373 19.0803 13.6402 19.073C12.9383 19.0637 12.2365 19.0711 11.5347 19.0711Z" fill="white"/>
<path d="M4.55611 3.55422V4.39293C4.55611 10.5975 4.54961 16.804 4.56261 23.0086C4.56424 23.9468 4.40665 24.7874 3.7292 25.3902C3.0095 26.0298 2.20695 26.1644 1.36379 25.7404C0.518997 25.3146 0.080357 24.5367 0.0234962 23.5063C-0.0171187 22.7708 0.00725025 22.0316 0.00725025 21.2943C0.00725025 15.8565 0.00725025 10.4187 0.00725025 4.98279C0.00725025 3.70537 0.137218 3.55975 1.27443 3.55422C2.3288 3.54869 3.38316 3.55422 4.55449 3.55422H4.55611Z" fill="white"/>
<path d="M22.1587 7.03223V8.61195H9.96289V7.03223H22.1571H22.1587Z" fill="white"/>
<path d="M22.1521 13.9375V18.9827H17.6211V13.9375H22.1521Z" fill="white"/>
</g>
<defs>
<clipPath id="clip0_1423_1591">
<rect width="26" height="26" fill="white"/>
</clipPath>
</defs>
</svg>
