<svg width="26" height="27" viewBox="0 0 26 27" fill="none" xmlns="http://www.w3.org/2000/svg">
<path d="M0.15676 5.50391C8.59035 5.50391 16.9911 5.50391 25.4341 5.50391C25.4341 5.60938 25.4341 5.71172 25.4341 5.81484C25.4341 11.4281 25.4349 17.0414 25.4333 22.6555C25.4325 24.6695 24.0255 26.0789 22.0154 26.0797C15.863 26.0812 9.71145 26.0812 3.5591 26.0797C1.58176 26.0789 0.158323 24.6656 0.157541 22.6977C0.155198 17.0648 0.15676 11.432 0.15676 5.79844C0.15676 5.71094 0.15676 5.62344 0.15676 5.50391ZM15.6044 10.1703C18.0224 10.1703 20.4411 10.1703 22.8591 10.1703C22.9568 10.1703 23.0568 10.1805 23.1513 10.1625C23.4029 10.1164 23.556 9.96016 23.5552 9.70234C23.5552 9.44375 23.4029 9.28906 23.1505 9.24219C23.0654 9.22656 22.9755 9.23516 22.888 9.23516C18.0318 9.23516 13.1755 9.23516 8.31926 9.23516C8.23176 9.23516 8.14192 9.22656 8.05676 9.24219C7.8052 9.28906 7.65285 9.44375 7.65285 9.70234C7.65285 9.96172 7.80598 10.1164 8.05754 10.1625C8.15207 10.1797 8.25207 10.1703 8.34973 10.1703C10.7677 10.1703 13.1857 10.1703 15.6044 10.1703ZM15.6372 14.8492C13.1997 14.8492 10.7614 14.8492 8.32395 14.8492C8.22629 14.8492 8.12551 14.8391 8.03254 14.8602C7.7966 14.9133 7.65442 15.0664 7.65207 15.3117C7.64973 15.5578 7.79035 15.7125 8.02473 15.7703C8.11692 15.793 8.21848 15.7836 8.31613 15.7836C13.1724 15.7844 18.0286 15.7844 22.8849 15.7836C22.963 15.7836 23.0411 15.7883 23.1185 15.7797C23.3779 15.7523 23.5575 15.5633 23.5599 15.3195C23.5622 15.0766 23.3841 14.8805 23.1271 14.8523C23.0404 14.843 22.9521 14.8484 22.8638 14.8484C20.4544 14.8492 18.0458 14.8492 15.6372 14.8492ZM15.6333 20.4641C13.1958 20.4641 10.7575 20.4641 8.32004 20.4648C8.22239 20.4648 8.1216 20.4547 8.02864 20.4766C7.79348 20.532 7.65207 20.6859 7.65207 20.932C7.65207 21.1781 7.79348 21.3313 8.02864 21.3875C8.1216 21.4094 8.22239 21.4 8.32004 21.4C13.1763 21.4008 18.0325 21.4008 22.8888 21.4C22.9763 21.4 23.0661 21.4086 23.1513 21.393C23.4029 21.3461 23.556 21.1914 23.556 20.9328C23.556 20.6742 23.4036 20.518 23.1521 20.4727C23.0575 20.4555 22.9575 20.4656 22.8599 20.4648C20.4505 20.4641 18.0419 20.4641 15.6333 20.4641ZM2.02942 9.70781C2.02942 10.0195 2.02395 10.3312 2.0302 10.643C2.04582 11.4266 2.64114 12.0273 3.42473 12.0398C4.05754 12.05 4.69114 12.0508 5.32473 12.0391C6.09348 12.0258 6.6927 11.4281 6.70676 10.6609C6.71848 10.0281 6.71692 9.39453 6.70754 8.76172C6.69582 7.97656 6.09739 7.37656 5.31379 7.36484C4.68098 7.35547 4.04739 7.35469 3.41379 7.36562C2.64582 7.37891 2.04973 7.97734 2.03098 8.74375C2.02317 9.06484 2.0302 9.38672 2.02942 9.70781ZM6.70989 15.3133C6.70989 15.0117 6.71379 14.7094 6.7091 14.4078C6.69739 13.5867 6.10442 12.9883 5.28645 12.9797C4.67238 12.9734 4.05832 12.9727 3.44504 12.9797C2.6427 12.9891 2.04114 13.5867 2.03098 14.3859C2.02317 15.0094 2.02239 15.6328 2.03098 16.2563C2.04192 17.0398 2.64035 17.6422 3.42317 17.6547C4.05598 17.6648 4.68957 17.6656 5.32317 17.6547C6.09192 17.6414 6.68723 17.0445 6.70754 16.2781C6.71614 15.9563 6.7091 15.6352 6.70989 15.3133ZM6.7091 20.9344C6.7091 20.6133 6.71614 20.2914 6.70754 19.9703C6.68723 19.2156 6.10051 18.6141 5.35051 18.5977C4.69817 18.5828 4.04504 18.5836 3.39192 18.5977C2.64192 18.6133 2.04582 19.2148 2.03176 19.9664C2.02004 20.6094 2.02004 21.2523 2.03176 21.8945C2.04504 22.6477 2.63801 23.2508 3.38801 23.268C4.04035 23.2828 4.69348 23.2828 5.3466 23.268C6.09817 23.2516 6.68645 22.6523 6.70754 21.8984C6.71692 21.5773 6.7091 21.2555 6.7091 20.9344Z" fill="white"/>
<path d="M25.4146 4.54597C16.9966 4.54597 8.59583 4.54597 0.197397 4.54597C-0.0252593 3.14206 0.762241 1.59987 2.24505 1.05222C2.62943 0.910031 3.05912 0.823312 3.46849 0.822531C9.68802 0.808468 15.9076 0.807687 22.1271 0.815499C24.149 0.817843 25.6083 2.47487 25.4146 4.54597ZM3.9013 1.74909C3.39037 1.74987 2.97162 2.16706 2.96849 2.678C2.96537 3.18581 3.38333 3.61237 3.89037 3.61941C4.41068 3.62644 4.84349 3.19519 4.8388 2.67566C4.83333 2.16784 4.40911 1.74753 3.9013 1.74909ZM6.70833 1.74909C6.1974 1.75066 5.77943 2.16862 5.77708 2.67956C5.77474 3.18737 6.19349 3.61316 6.70052 3.61941C7.22083 3.62566 7.65287 3.19441 7.6474 2.67409C7.64115 2.16628 7.21615 1.74675 6.70833 1.74909ZM10.4552 2.6905C10.4591 2.18269 10.0411 1.75612 9.53333 1.74909C9.02161 1.74206 8.59583 2.15222 8.5849 2.66237C8.57396 3.18191 9.0013 3.61941 9.52083 3.61941C10.0294 3.61862 10.4521 3.19831 10.4552 2.6905Z" fill="white"/>
<path d="M4.37148 8.29958C4.67383 8.29958 4.97617 8.29255 5.27852 8.30115C5.58945 8.30974 5.76836 8.48552 5.77305 8.79646C5.78086 9.40037 5.78086 10.0051 5.77305 10.609C5.76914 10.9191 5.58867 11.0988 5.27773 11.1027C4.67305 11.1105 4.06836 11.1105 3.46445 11.1027C3.15352 11.0988 2.97461 10.9191 2.9707 10.6074C2.96289 10.0035 2.96289 9.3988 2.9707 8.7949C2.97461 8.48474 3.1543 8.30974 3.46602 8.30037C3.7668 8.29333 4.06914 8.29958 4.37148 8.29958Z" fill="white"/>
<path d="M4.38623 13.9143C4.66905 13.9143 4.95186 13.9104 5.23467 13.9151C5.58467 13.9214 5.76592 14.0901 5.76983 14.4299C5.77686 15.0245 5.77686 15.619 5.76983 16.2135C5.76592 16.5393 5.58545 16.7159 5.25577 16.719C4.66123 16.7253 4.06592 16.726 3.47139 16.7182C3.14561 16.7143 2.96905 16.5339 2.96592 16.2042C2.95967 15.6096 2.95889 15.0151 2.96592 14.4206C2.96983 14.0948 3.14952 13.9221 3.47998 13.9151C3.78233 13.9089 4.08467 13.9143 4.38623 13.9143Z" fill="white"/>
<path d="M4.3668 22.3359C4.06445 22.3359 3.76211 22.343 3.45977 22.3336C3.14961 22.3242 2.9707 22.1484 2.9668 21.8367C2.95898 21.2328 2.95898 20.6281 2.9668 20.0242C2.9707 19.7141 3.15117 19.5359 3.46289 19.5312C4.06758 19.5234 4.67227 19.5234 5.27617 19.5312C5.58633 19.5352 5.76523 19.7156 5.76914 20.0273C5.77695 20.6312 5.77695 21.2359 5.76914 21.8398C5.76523 22.15 5.58398 22.3242 5.27305 22.3336C4.97148 22.343 4.66914 22.3359 4.3668 22.3359Z" fill="white"/>
</svg>
