<svg width="14" height="17" viewBox="0 0 14 17" fill="none" xmlns="http://www.w3.org/2000/svg">
<path d="M6.75985 16.9989C5.16222 16.9667 3.56515 16.9252 1.96751 16.9069C0.910937 16.8947 0.126313 15.9418 0.0332031 15.1296C-0.114411 13.841 0.23532 12.6925 0.979635 11.6526C2.27126 9.84878 4.02445 8.73965 6.30055 8.63882C9.84441 8.48148 12.2352 10.6804 13.1334 13.077C13.4008 13.7906 13.4638 14.5357 13.3156 15.2864C13.1464 16.1418 12.3834 16.8598 11.496 16.8997C10.1555 16.9595 8.81168 16.9507 7.46953 16.97C7.23335 16.9734 6.9966 16.97 6.76042 16.97V16.9989H6.75985Z" fill="white"/>
<path d="M6.68893 7.44093C4.61155 7.43927 2.86857 5.74012 2.86914 3.71853C2.87028 1.7047 4.62745 -0.00276669 6.69688 3.36573e-06C8.78107 0.00277342 10.5087 1.6914 10.5087 3.72628C10.5087 5.75507 8.77313 7.44259 6.68836 7.44093H6.68893Z" fill="white"/>
</svg>
