<svg width="27" height="26" viewBox="0 0 27 26" fill="none" xmlns="http://www.w3.org/2000/svg">
<g clip-path="url(#clip0_1413_3259)">
<path d="M0.183594 7.14556C0.222818 6.95824 0.254602 6.7682 0.302618 6.58291C0.43652 6.06691 0.674568 5.60501 1.05193 5.22427C1.73023 4.54124 2.40853 3.8582 3.09833 3.18666C3.67113 2.62941 4.33794 2.3562 5.12377 2.68487C5.39698 2.79916 5.66141 2.97837 5.87376 3.18598C6.90034 4.18957 7.91204 5.20804 8.92104 6.22989C9.37076 6.6857 9.65953 7.21657 9.55877 7.88811C9.4837 8.38856 9.19696 8.77065 8.85206 9.11622C8.27994 9.69038 7.70307 10.2605 7.1296 10.8333C6.83406 11.1288 6.82865 11.2073 6.99907 11.59C7.65235 13.0535 8.65324 14.2708 9.72648 15.434C10.7957 16.5931 11.9731 17.6305 13.3114 18.4704C13.7672 18.7565 14.2589 18.9858 14.7336 19.2421C14.9534 19.3604 15.1184 19.2671 15.2733 19.1115C15.8684 18.5124 16.4547 17.9037 17.0668 17.3221C17.3075 17.0929 17.5834 16.8751 17.8823 16.7385C18.4944 16.4585 19.0854 16.5863 19.6204 16.9752C19.7563 17.0739 19.8821 17.1889 20.0018 17.3079C20.9716 18.273 21.9461 19.2333 22.9016 20.2125C23.1336 20.4499 23.3493 20.7285 23.4873 21.0267C23.7835 21.6699 23.6685 22.3117 23.2066 22.8209C22.458 23.6453 21.6661 24.4318 20.8661 25.2068C20.4258 25.6328 19.8604 25.8465 19.2558 25.946C19.1821 25.9581 19.1098 25.9811 19.0374 25.9994C18.7162 25.9994 18.3956 25.9994 18.0744 25.9994C18.0183 25.9845 17.9635 25.9669 17.9067 25.9554C17.1817 25.8039 16.4378 25.714 15.7358 25.4915C13.6502 24.8308 11.7634 23.7616 9.98685 22.5044C6.76711 20.2267 4.18916 17.3573 2.23811 13.9299C1.50165 12.6362 0.903148 11.2783 0.510234 9.83916C0.368893 9.32181 0.291121 8.78756 0.183594 8.26074C0.183594 7.88879 0.183594 7.51752 0.183594 7.14556Z" fill="white"/>
<path d="M26.1246 12.2261C25.4639 12.3397 24.8187 12.4506 24.1384 12.5676C23.642 9.83141 22.4159 7.48407 20.4249 5.55331C18.4387 3.62728 16.0637 2.47288 13.293 2.0563C13.3863 1.38544 13.4776 0.730804 13.5682 0.0761719C19.09 0.729452 24.8599 5.15228 26.1246 12.2261Z" fill="white"/>
<path d="M20.8529 12.5734C20.2091 12.6843 19.5646 12.7952 18.9072 12.9081C18.1755 9.76412 16.2326 7.87191 13.0352 7.21186C13.1231 6.57549 13.2137 5.92153 13.3043 5.26758C16.8581 5.62871 20.255 8.66315 20.8529 12.5734Z" fill="white"/>
</g>
<defs>
<clipPath id="clip0_1413_3259">
<rect width="26" height="26" fill="white" transform="translate(0.183594)"/>
</clipPath>
</defs>
</svg>
