<svg width="24" height="25" viewBox="0 0 24 25" fill="none" xmlns="http://www.w3.org/2000/svg">
<path d="M0.0683594 5.17096C0.107583 4.98363 0.139368 4.79359 0.187383 4.6083C0.321286 4.0923 0.559334 3.6304 0.936694 3.24966C1.615 2.56663 2.2933 1.88359 2.9831 1.21205C3.5559 0.654802 4.22271 0.381588 5.00854 0.710257C5.28175 0.824547 5.54617 1.00376 5.75852 1.21138C6.7851 2.21496 7.79681 3.23343 8.80581 4.25528C9.25553 4.71109 9.5443 5.24196 9.44353 5.9135C9.36847 6.41395 9.08173 6.79604 8.73683 7.14162C8.1647 7.71577 7.58784 8.28587 7.01436 8.85867C6.71883 9.1542 6.71342 9.23265 6.88384 9.61542C7.53712 11.0789 8.538 12.2962 9.61125 13.4594C10.6804 14.6185 11.8578 15.6559 13.1962 16.4958C13.652 16.7819 14.1436 17.0111 14.6184 17.2675C14.8382 17.3858 15.0032 17.2925 15.158 17.1369C15.7532 16.5378 16.3395 15.9291 16.9515 15.3475C17.1923 15.1183 17.4682 14.9005 17.7671 14.7639C18.3791 14.4839 18.9702 14.6117 19.5051 15.0006C19.6411 15.0993 19.7668 15.2143 19.8865 15.3333C20.8563 16.2984 21.8308 17.2587 22.7864 18.2379C23.0184 18.4753 23.2341 18.7539 23.3721 19.0521C23.6683 19.6953 23.5533 20.3371 23.0914 20.8463C22.3428 21.6707 21.5509 22.4572 20.7508 23.2322C20.3106 23.6582 19.7452 23.8719 19.1406 23.9714C19.0669 23.9835 18.9945 24.0065 18.9222 24.0248C18.601 24.0248 18.2804 24.0248 17.9592 24.0248C17.903 24.0099 17.8483 23.9923 17.7915 23.9808C17.0665 23.8293 16.3226 23.7394 15.6206 23.5169C13.535 22.8562 11.6482 21.787 9.87162 20.5298C6.65188 18.2521 4.07393 15.3827 2.12288 11.9553C1.38642 10.6616 0.787914 9.30366 0.394999 7.86455C0.253658 7.3472 0.175887 6.81295 0.0683594 6.28613C0.0683594 5.91418 0.0683594 5.54291 0.0683594 5.17096Z" fill="#4361EE"/>
</svg>
