<svg width="21" height="21" viewBox="0 0 21 21" fill="none" xmlns="http://www.w3.org/2000/svg">
<g clip-path="url(#clip0_1577_3260)">
<path d="M6.35796 18.544C13.9052 18.544 18.0332 12.2912 18.0332 6.86881C18.0332 6.69121 18.0332 6.51441 18.0212 6.33841C18.8242 5.75754 19.5174 5.03831 20.0684 4.21441C19.3195 4.54641 18.5251 4.76404 17.7116 4.86001C18.5682 4.34725 19.2093 3.54066 19.5156 2.59041C18.7101 3.06842 17.8289 3.40526 16.91 3.58641C16.2913 2.92856 15.473 2.49294 14.5819 2.34698C13.6907 2.20102 12.7762 2.35284 11.98 2.77895C11.1838 3.20507 10.5502 3.88172 10.1773 4.7042C9.80441 5.52668 9.71298 6.44913 9.91716 7.32881C8.28577 7.24697 6.68982 6.823 5.2329 6.08441C3.77599 5.34582 2.49066 4.30913 1.46036 3.04161C0.935633 3.94494 0.77492 5.0143 1.01094 6.03196C1.24697 7.04962 1.86198 7.93907 2.73076 8.51921C2.07772 8.50007 1.4389 8.3239 0.868359 8.00561V8.05761C0.868619 9.00498 1.19657 9.9231 1.79659 10.6562C2.3966 11.3894 3.23174 11.8924 4.16036 12.08C3.55626 12.2448 2.92242 12.2689 2.30756 12.1504C2.56987 12.9657 3.08038 13.6786 3.76773 14.1895C4.45507 14.7004 5.28488 14.9838 6.14116 15C5.29039 15.6687 4.31612 16.1632 3.27409 16.455C2.23205 16.7468 1.1427 16.8304 0.0683594 16.7008C1.94489 17.905 4.1283 18.5437 6.35796 18.5408" fill="white" fill-opacity="0.8"/>
</g>
<defs>
<clipPath id="clip0_1577_3260">
<rect width="20" height="20" fill="white" transform="translate(0.0683594 0.417969)"/>
</clipPath>
</defs>
</svg>
