<svg width="500" height="156" viewBox="0 0 500 156" fill="none" xmlns="http://www.w3.org/2000/svg">
<g opacity="0.1" filter="url(#filter0_d_1532_5971)">
<mask id="path-1-inside-1_1532_5971" fill="white">
<path fill-rule="evenodd" clip-rule="evenodd" d="M19.0684 0.705078C10.7841 0.705078 4.06836 7.42082 4.06836 15.7051V114.726C4.06836 123.01 10.7841 129.726 19.0684 129.726H446.001L447.275 145.199C447.416 146.921 449.533 147.639 450.722 146.368L466.304 129.726H480.068C488.353 129.726 495.068 123.01 495.068 114.726V15.7051C495.068 7.42081 488.353 0.705078 480.068 0.705078H19.0684Z"/>
</mask>
<path fill-rule="evenodd" clip-rule="evenodd" d="M19.0684 0.705078C10.7841 0.705078 4.06836 7.42082 4.06836 15.7051V114.726C4.06836 123.01 10.7841 129.726 19.0684 129.726H446.001L447.275 145.199C447.416 146.921 449.533 147.639 450.722 146.368L466.304 129.726H480.068C488.353 129.726 495.068 123.01 495.068 114.726V15.7051C495.068 7.42081 488.353 0.705078 480.068 0.705078H19.0684Z" fill="white"/>
<path d="M446.001 129.726L446.998 129.644L446.923 128.726H446.001V129.726ZM447.275 145.199L446.278 145.281V145.281L447.275 145.199ZM450.722 146.368L449.992 145.685L450.722 146.368ZM466.304 129.726V128.726H465.87L465.574 129.043L466.304 129.726ZM5.06836 15.7051C5.06836 7.9731 11.3364 1.70508 19.0684 1.70508V-0.294922C10.2318 -0.294922 3.06836 6.86854 3.06836 15.7051H5.06836ZM5.06836 114.726V15.7051H3.06836V114.726H5.06836ZM19.0684 128.726C11.3364 128.726 5.06836 122.458 5.06836 114.726H3.06836C3.06836 123.563 10.2318 130.726 19.0684 130.726V128.726ZM446.001 128.726H19.0684V130.726H446.001V128.726ZM448.271 145.117L446.998 129.644L445.005 129.808L446.278 145.281L448.271 145.117ZM449.992 145.685C449.377 146.342 448.34 145.948 448.271 145.117L446.278 145.281C446.493 147.894 449.688 148.936 451.452 147.052L449.992 145.685ZM465.574 129.043L449.992 145.685L451.452 147.052L467.034 130.41L465.574 129.043ZM480.068 128.726H466.304V130.726H480.068V128.726ZM494.068 114.726C494.068 122.458 487.8 128.726 480.068 128.726V130.726C488.905 130.726 496.068 123.563 496.068 114.726H494.068ZM494.068 15.7051V114.726H496.068V15.7051H494.068ZM480.068 1.70508C487.8 1.70508 494.068 7.97309 494.068 15.7051H496.068C496.068 6.86852 488.905 -0.294922 480.068 -0.294922V1.70508ZM19.0684 1.70508H480.068V-0.294922H19.0684V1.70508Z" fill="black" mask="url(#path-1-inside-1_1532_5971)"/>
</g>
<defs>
<filter id="filter0_d_1532_5971" x="0.0683594" y="0.705078" width="499" height="154.309" filterUnits="userSpaceOnUse" color-interpolation-filters="sRGB">
<feFlood flood-opacity="0" result="BackgroundImageFix"/>
<feColorMatrix in="SourceAlpha" type="matrix" values="0 0 0 0 0 0 0 0 0 0 0 0 0 0 0 0 0 0 127 0" result="hardAlpha"/>
<feOffset dy="4"/>
<feGaussianBlur stdDeviation="2"/>
<feComposite in2="hardAlpha" operator="out"/>
<feColorMatrix type="matrix" values="0 0 0 0 0 0 0 0 0 0 0 0 0 0 0 0 0 0 0.25 0"/>
<feBlend mode="normal" in2="BackgroundImageFix" result="effect1_dropShadow_1532_5971"/>
<feBlend mode="normal" in="SourceGraphic" in2="effect1_dropShadow_1532_5971" result="shape"/>
</filter>
</defs>
</svg>
